<svg width="28" height="27" viewBox="0 0 28 27" fill="none" xmlns="http://www.w3.org/2000/svg">
<g clip-path="url(#clip0_554_3734)">
<path d="M22.9588 18.316L21.2428 16.028V11.868C21.2428 8.43602 19.0848 5.34202 15.8868 4.14602C15.8868 2.76802 14.7428 1.65002 13.3648 1.65002H12.6108C11.2328 1.65002 10.0888 2.76802 10.0888 4.17202C6.89081 5.36802 4.73281 8.43602 4.73281 11.894V16.054L3.01681 18.342C2.47081 19.07 2.39281 20.032 2.78281 20.864C3.17281 21.696 4.00481 22.19 4.94081 22.19H8.76281C8.76281 24.504 10.6608 26.402 12.9748 26.402C15.2888 26.402 17.1868 24.53 17.1868 22.19H21.0088C21.9188 22.19 22.7508 21.67 23.1668 20.864C23.5828 20.006 23.5048 19.044 22.9588 18.316ZM13.0008 24.426C11.7528 24.426 10.7128 23.412 10.7128 22.164H15.2888C15.2888 23.412 14.2488 24.426 13.0008 24.426ZM21.4508 19.954C21.3988 20.032 21.2948 20.214 21.0348 20.214H4.96681C4.70681 20.214 4.57681 20.032 4.55081 19.954C4.49881 19.876 4.44681 19.668 4.60281 19.46L6.50081 16.912C6.63081 16.756 6.68281 16.548 6.68281 16.34V11.868C6.68281 9.03402 8.60681 6.53802 11.3368 5.78402C11.7528 5.68002 12.0388 5.29002 12.0388 4.84802V4.14602C12.0388 3.80802 12.2988 3.54802 12.6368 3.54802H13.3908C13.7288 3.54802 13.9888 3.80802 13.9888 4.14602V4.82202C13.9888 5.26402 14.2748 5.62802 14.6908 5.75802C17.4208 6.53802 19.3188 9.06002 19.3188 11.868V16.34C19.3188 16.548 19.3968 16.756 19.5008 16.912L21.3988 19.46C21.5808 19.668 21.5028 19.876 21.4508 19.954Z" fill="#264B82"/>
</g>
<circle cx="20" cy="8" r="8" fill="#DB2B21"/>
<path d="M22.5781 5.39062C22.5781 5.77734 22.5 6.11328 22.3438 6.39844C22.1875 6.68359 21.9727 6.91797 21.6992 7.10156C21.4297 7.28125 21.1172 7.41016 20.7617 7.48828V7.5293C21.4453 7.61523 21.9609 7.83008 22.3086 8.17383C22.6602 8.51758 22.8359 8.97266 22.8359 9.53906C22.8359 10.0352 22.7168 10.4785 22.4785 10.8691C22.2402 11.2559 21.875 11.5605 21.3828 11.7832C20.8906 12.0059 20.2578 12.1172 19.4844 12.1172C19.0195 12.1172 18.5879 12.0801 18.1895 12.0059C17.7949 11.9316 17.4199 11.8125 17.0645 11.6484V10.4238C17.4277 10.6035 17.8145 10.7422 18.2246 10.8398C18.6348 10.9375 19.0234 10.9863 19.3906 10.9863C20.1055 10.9863 20.6152 10.8535 20.9199 10.5879C21.2246 10.3184 21.377 9.94727 21.377 9.47461C21.377 9.16992 21.2969 8.91992 21.1367 8.72461C20.9805 8.5293 20.7363 8.38281 20.4043 8.28516C20.0762 8.1875 19.6523 8.13867 19.1328 8.13867H18.377V7.03125H19.1387C19.6348 7.03125 20.0332 6.97266 20.334 6.85547C20.6348 6.73438 20.8516 6.56836 20.9844 6.35742C21.1211 6.14648 21.1895 5.90039 21.1895 5.61914C21.1895 5.25195 21.0703 4.9668 20.832 4.76367C20.5938 4.55664 20.2402 4.45312 19.7715 4.45312C19.4824 4.45312 19.2188 4.48633 18.9805 4.55273C18.7461 4.61914 18.5293 4.70312 18.3301 4.80469C18.1309 4.90625 17.9414 5.01562 17.7617 5.13281L17.0996 4.17773C17.4238 3.93555 17.8105 3.73047 18.2598 3.5625C18.709 3.39453 19.2324 3.31055 19.8301 3.31055C20.709 3.31055 21.3867 3.5 21.8633 3.87891C22.3398 4.25391 22.5781 4.75781 22.5781 5.39062Z" fill="white"/>
<defs>
<clipPath id="clip0_554_3734">
<rect width="26" height="26" fill="white" transform="translate(0 1)"/>
</clipPath>
</defs>
</svg>
