<svg width="56" height="56" viewBox="0 0 56 56" fill="none" xmlns="http://www.w3.org/2000/svg">
<path d="M17.7734 34L22.0625 24.625H16.4297V22.5938H24.625V24.1094L20.3047 34H17.7734ZM29.9375 26.7031C31.0417 26.7031 31.9193 27.013 32.5703 27.6328C33.2266 28.2526 33.5547 29.1016 33.5547 30.1797C33.5547 31.4557 33.1615 32.4375 32.375 33.125C31.5885 33.8125 30.4635 34.1562 29 34.1562C27.7292 34.1562 26.7031 33.9505 25.9219 33.5391V31.4531C26.3333 31.6719 26.8125 31.8516 27.3594 31.9922C27.9062 32.1276 28.4245 32.1953 28.9141 32.1953C30.388 32.1953 31.125 31.5911 31.125 30.3828C31.125 29.2318 30.362 28.6562 28.8359 28.6562C28.5599 28.6562 28.2552 28.6849 27.9219 28.7422C27.5885 28.7943 27.3177 28.8516 27.1094 28.9141L26.1484 28.3984L26.5781 22.5781H32.7734V24.625H28.6953L28.4844 26.8672L28.7578 26.8125C29.0755 26.7396 29.4688 26.7031 29.9375 26.7031ZM35.6436 29C35.6436 29.485 35.6908 29.8464 35.7852 30.084C35.8796 30.3216 36.0342 30.4404 36.249 30.4404C36.6787 30.4404 36.8936 29.9603 36.8936 29C36.8936 28.0397 36.6787 27.5596 36.249 27.5596C36.0342 27.5596 35.8796 27.6784 35.7852 27.916C35.6908 28.1536 35.6436 28.515 35.6436 29ZM37.8408 28.9902C37.8408 29.7389 37.7057 30.3021 37.4355 30.6797C37.1686 31.054 36.7731 31.2412 36.249 31.2412C35.7542 31.2412 35.3701 31.0475 35.0967 30.6602C34.8265 30.2695 34.6914 29.7129 34.6914 28.9902C34.6914 27.5026 35.2106 26.7588 36.249 26.7588C36.7601 26.7588 37.1523 26.9525 37.4258 27.3398C37.7025 27.724 37.8408 28.2741 37.8408 28.9902ZM40.292 31.8516C40.292 32.3366 40.3392 32.6995 40.4336 32.9404C40.5312 33.1813 40.6875 33.3018 40.9023 33.3018C41.3288 33.3018 41.542 32.8184 41.542 31.8516C41.542 30.8978 41.3288 30.4209 40.9023 30.4209C40.6875 30.4209 40.5312 30.5381 40.4336 30.7725C40.3392 31.0068 40.292 31.3665 40.292 31.8516ZM42.4893 31.8516C42.4893 32.6003 42.3542 33.1618 42.084 33.5361C41.8138 33.9105 41.4199 34.0977 40.9023 34.0977C40.4076 34.0977 40.0234 33.9056 39.75 33.5215C39.4766 33.1341 39.3398 32.5775 39.3398 31.8516C39.3398 30.3639 39.8607 29.6201 40.9023 29.6201C41.4036 29.6201 41.7926 29.8122 42.0693 30.1963C42.3493 30.5804 42.4893 31.1322 42.4893 31.8516ZM41.0391 26.8613L37.0791 34H36.1318L40.0918 26.8613H41.0391Z" fill="black"/>
<circle cx="28" cy="28" r="25" stroke="#D4DBE6" stroke-width="2"/>
<path d="M3 28C3 41.8071 14.1929 53 28 53C41.8071 53 53 41.8071 53 28C53 14.1929 41.8071 3 28 3" stroke="#009A8D" stroke-width="5" stroke-linecap="round"/>
</svg>
