<svg width="24" height="24" viewBox="0 0 24 24" fill="none" xmlns="http://www.w3.org/2000/svg">
<mask id="mask0_554_3753" style="mask-type:alpha" maskUnits="userSpaceOnUse" x="0" y="0" width="24" height="24">
<circle cx="12" cy="12" r="12" fill="#C4C4C4"/>
</mask>
<g mask="url(#mask0_554_3753)">
<path d="M12.5 24.8633C19.4036 24.8633 25 19.2668 25 12.3633C25 5.45972 19.4036 -0.136719 12.5 -0.136719C5.59644 -0.136719 0 5.45972 0 12.3633C0 19.2668 5.59644 24.8633 12.5 24.8633Z" fill="#F0F0F0"/>
<path d="M24.2225 16.7112C24.725 15.3571 25 13.8924 25 12.3634C25 10.8344 24.725 9.36978 24.2225 8.01562H0.77749C0.275049 9.36978 0 10.8344 0 12.3634C0 13.8924 0.275049 15.3571 0.77749 16.7112L12.5 17.7982L24.2225 16.7112Z" fill="#264B82"/>
<path d="M12.5003 24.8631C17.8749 24.8631 22.4567 21.4709 24.2228 16.7109H0.777832C2.54399 21.4709 7.12578 24.8631 12.5003 24.8631Z" fill="#C92723"/>
</g>
</svg>
