<svg width="30" height="30" viewBox="0 0 30 30" fill="none" xmlns="http://www.w3.org/2000/svg">
<g clip-path="url(#clip0_554_3760)">
<path d="M5.12573 14.4489C5.1103 14.4438 5.10401 14.4392 5.10284 14.4383C5.10142 14.4373 5.10086 14.4366 5.1002 14.4357C5.09819 14.4328 5.09232 14.422 5.09164 14.4034C5.09095 14.3848 5.09601 14.3735 5.0978 14.3705C5.09839 14.3695 5.0989 14.3689 5.10024 14.3677C5.10134 14.3667 5.10727 14.3617 5.12228 14.3554L4.75517 13.4792L5.12228 14.3554L23.8173 6.52251C23.831 6.51675 23.8383 6.51597 23.8401 6.51583C23.8421 6.51565 23.8433 6.51577 23.8447 6.51609C23.8486 6.51696 23.8597 6.52101 23.8719 6.53327C23.8842 6.54554 23.8883 6.55665 23.8891 6.56052C23.8894 6.56195 23.8896 6.56315 23.8894 6.56515C23.8892 6.56687 23.8885 6.57419 23.8827 6.58795L16.0498 25.2829C16.0435 25.2979 16.0385 25.3039 16.0375 25.305C16.0364 25.3063 16.0357 25.3068 16.0347 25.3074C16.0317 25.3092 16.0204 25.3143 16.0018 25.3136C15.9832 25.3129 15.9724 25.307 15.9695 25.305C15.9686 25.3043 15.968 25.3038 15.9669 25.3024C15.966 25.3012 15.9614 25.2949 15.9563 25.2795L13.5479 18.0872C13.3536 17.507 12.8983 17.0516 12.318 16.8573L5.12573 14.4489Z" stroke="#264B82" stroke-width="1.9"/>
</g>
<defs>
<clipPath id="clip0_554_3760">
<rect width="30" height="30" fill="white"/>
</clipPath>
</defs>
</svg>
