<svg width="180" height="41" viewBox="0 0 180 41" fill="none" xmlns="http://www.w3.org/2000/svg">
<path d="M61.2278 0.632446V14.3919H57.5595V3.82648H52.7669V14.3919H49.0986V0.632446H61.2278Z" fill="#DB2B21"/>
<path fill-rule="evenodd" clip-rule="evenodd" d="M66.238 14.2935C66.9902 14.434 67.8756 14.504 68.8942 14.504C69.9149 14.504 70.8029 14.434 71.5568 14.2935C72.3107 14.1535 72.9654 13.9018 73.5209 13.5387C74.0764 13.1762 74.5055 12.6611 74.8084 11.9935C75.1117 11.3263 75.2633 10.4805 75.2633 9.45631V5.56848C75.2633 4.54433 75.1108 3.69674 74.8062 3.02658C74.5017 2.35641 74.0725 1.84132 73.5183 1.48132C72.9646 1.12175 72.3107 0.871301 71.5568 0.731253C70.8029 0.590776 69.9149 0.520752 68.8942 0.520752C67.8756 0.520752 66.9902 0.590776 66.238 0.731253C65.4853 0.871301 64.8324 1.12175 64.2782 1.48132C63.7244 1.84132 63.2944 2.35641 62.9881 3.02658C62.6822 3.69674 62.5293 4.54433 62.5293 5.56848V9.45631C62.5293 10.4805 62.6818 11.3263 62.9864 11.9935C63.291 12.6611 63.721 13.1762 64.276 13.5387C64.8315 13.9018 65.4853 14.1535 66.238 14.2935ZM70.4729 11.1652C70.1219 11.2619 69.5957 11.3104 68.8942 11.3104C68.1982 11.3104 67.678 11.2619 67.333 11.1652C66.9881 11.0682 66.7359 10.8611 66.5761 10.5445C66.4163 10.2279 66.3273 9.73125 66.3097 9.05335V5.95383C66.3273 5.27894 66.4171 4.7849 66.5782 4.4713C66.7398 4.1577 66.9919 3.95321 67.3352 3.85741C67.6784 3.76204 68.1982 3.71393 68.8942 3.71393C69.4196 3.71393 69.8384 3.73755 70.1503 3.78352C70.4622 3.82992 70.7169 3.927 70.9141 4.07479C71.1113 4.22257 71.2552 4.44338 71.3463 4.73765C71.4374 5.03192 71.4829 5.43703 71.4829 5.95383V9.05335C71.4829 9.72524 71.4021 10.2206 71.241 10.5402C71.0795 10.8598 70.8235 11.0682 70.4729 11.1652Z" fill="#DB2B21"/>
<path fill-rule="evenodd" clip-rule="evenodd" d="M76.4746 14.3919H80.1433V10.8718H83.3906C84.3551 10.8718 85.1417 10.7812 85.7508 10.6008C86.36 10.4199 86.8326 10.1325 87.1689 9.73856C87.5044 9.34419 87.7411 8.82094 87.8786 8.16882C88.0157 7.51626 88.0844 6.685 88.0844 5.67588C88.0844 4.77116 87.9989 3.99875 87.8271 3.35822C87.6552 2.7177 87.3863 2.19875 87.0207 1.8018C86.6551 1.40443 86.1744 1.11058 85.5786 0.919415C84.9827 0.728246 84.2533 0.632446 83.3906 0.632446H76.4746V14.3919ZM82.6535 7.67822H80.1433V3.82648H82.6535C83.1273 3.82648 83.4809 3.88147 83.7137 3.99187C83.9465 4.10228 84.1029 4.28658 84.1832 4.54519C84.264 4.80338 84.3044 5.18056 84.3044 5.67588C84.3044 6.29106 84.2632 6.73354 84.1811 7.00419C84.099 7.2744 83.9487 7.4544 83.7292 7.54376C83.5101 7.63354 83.1514 7.67822 82.6535 7.67822Z" fill="#DB2B21"/>
<path d="M95.2048 3.82636V14.3922H91.5365V3.82636H88.0112V0.632324H98.9087V3.82636H95.2048Z" fill="#DB2B21"/>
<path fill-rule="evenodd" clip-rule="evenodd" d="M102.723 12.0273H107.659L108.376 14.3922H112.12L107.936 0.632324H102.355L98.231 14.3922H102.047L102.723 12.0273ZM105.218 3.38259L106.924 9.34879H103.512L105.182 3.38259H105.218Z" fill="#DB2B21"/>
<path d="M114.098 0.632446H125.251V14.3919H121.564V3.82648H117.583V9.60409C117.583 10.6222 117.433 11.4973 117.134 12.2289C116.836 12.9605 116.381 13.5224 115.769 13.9151C115.157 14.3077 114.398 14.504 113.493 14.504C112.83 14.504 112.206 14.4486 111.621 14.3382V11.3641C111.878 11.4509 112.251 11.4943 112.741 11.4943C113.242 11.4943 113.594 11.3581 113.796 11.0866C113.997 10.8151 114.098 10.3387 114.098 9.65779V0.632446Z" fill="#DB2B21"/>
<path d="M49.1245 20.0049H59.1826V32.4618H57.8002V21.2529H50.5065V32.4618H49.1245V20.0049Z" fill="#9D9D9C"/>
<path fill-rule="evenodd" clip-rule="evenodd" d="M61.7477 21.054C61.3671 21.5038 61.0973 22.1353 60.9392 22.9481C60.7807 23.7613 60.7017 24.8564 60.7017 26.2332C60.7017 27.6019 60.7798 28.6918 60.9371 29.502C61.0943 30.3122 61.3637 30.9424 61.746 31.3927C62.1279 31.8424 62.6473 32.1556 63.3046 32.3317C63.9614 32.5075 64.8356 32.596 65.9277 32.596C67.0274 32.596 67.9094 32.5075 68.5731 32.3317C69.2368 32.1556 69.7579 31.8437 70.136 31.3965C70.5136 30.9493 70.7812 30.3178 70.9385 29.502C71.0957 28.6862 71.1743 27.5963 71.1743 26.2332C71.1743 24.862 71.097 23.7678 70.9423 22.9503C70.7881 22.1332 70.5213 21.5004 70.142 21.0519C69.7627 20.603 69.2459 20.2915 68.5916 20.1167C67.9373 19.9418 67.0601 19.8546 65.9599 19.8546C64.852 19.8546 63.9683 19.9418 63.3084 20.1167C62.6486 20.2915 62.1283 20.6038 61.7477 21.054ZM62.7517 30.4553C62.4956 30.1017 62.3229 29.6038 62.2336 28.9612C62.1442 28.3189 62.0996 27.4095 62.0996 26.2332C62.0996 25.0299 62.1417 24.1097 62.225 23.4731C62.3092 22.836 62.4793 22.3402 62.7354 21.9867C62.9914 21.6331 63.3626 21.3917 63.8489 21.2633C64.3352 21.1344 65.0337 21.0699 65.944 21.0699C66.8461 21.0699 67.5404 21.1344 68.0267 21.2633C68.513 21.3917 68.8833 21.6323 69.138 21.9845C69.3932 22.3372 69.5625 22.8326 69.6458 23.4709C69.73 24.1093 69.7721 25.0299 69.7721 26.2332C69.7721 27.4258 69.7287 28.34 69.6424 28.9753C69.5552 29.6111 69.3855 30.1052 69.132 30.457C68.8786 30.8097 68.5061 31.0516 68.0146 31.183C67.5228 31.3145 66.8328 31.3802 65.944 31.3802C65.0582 31.3802 64.3682 31.3145 63.8751 31.183C63.3823 31.0516 63.0077 30.8088 62.7517 30.4553Z" fill="#9D9D9C"/>
<path d="M80.6778 28.2985H82.0276C82.0276 29.4073 81.8854 30.2669 81.6006 30.8778C81.3157 31.4891 80.82 31.9285 80.1124 32.1953C79.4053 32.4621 78.3958 32.5957 77.0838 32.5957C76.0889 32.5957 75.2829 32.5085 74.6648 32.3337C74.047 32.1588 73.55 31.8491 73.1749 31.4044C72.7995 30.9598 72.5271 30.3257 72.3574 29.5018C72.1881 28.6778 72.1035 27.5991 72.1035 26.2656C72.1035 24.9378 72.1869 23.859 72.3535 23.0295C72.5202 22.2004 72.7926 21.5551 73.1706 21.0942C73.5487 20.6337 74.0487 20.3119 74.6708 20.1289C75.2928 19.9459 76.097 19.8544 77.0838 19.8544C78.0676 19.8544 78.8658 19.9343 79.4784 20.0941C80.091 20.2543 80.5622 20.4996 80.893 20.83C81.2238 21.1608 81.4566 21.5706 81.5924 22.0603C81.7277 22.5492 81.8175 23.1799 81.8605 23.9523L80.515 23.9364C80.4282 23.115 80.3058 22.517 80.1472 22.1411C79.9887 21.7661 79.6816 21.4937 79.2262 21.324C78.7708 21.1548 78.0568 21.0697 77.0838 21.0697C76.3466 21.0697 75.7525 21.1423 75.301 21.2875C74.8499 21.4327 74.4929 21.69 74.2296 22.0603C73.9667 22.4298 73.7798 22.9496 73.669 23.6189C73.5573 24.2886 73.5018 25.1706 73.5018 26.2656C73.5018 27.3744 73.5564 28.2542 73.6647 28.9064C73.7729 29.5585 73.9585 30.0654 74.2218 30.4288C74.4843 30.7923 74.8409 31.0414 75.2907 31.1768C75.7409 31.3125 76.338 31.38 77.0838 31.38C77.8373 31.38 78.4452 31.3331 78.907 31.2399C79.3692 31.1463 79.7292 30.9873 79.9866 30.7622C80.2439 30.5371 80.4235 30.2304 80.5253 29.8411C80.6267 29.4524 80.6778 28.9381 80.6778 28.2985Z" fill="#9D9D9C"/>
<path d="M86.3111 32.4617V21.2531H82.2295V19.9884H91.7545L91.7381 21.2531H87.7094V32.4617H86.3111Z" fill="#9D9D9C"/>
<path fill-rule="evenodd" clip-rule="evenodd" d="M96.6031 19.9886L92.0537 32.4615H93.5539L94.5544 29.8964H100.848L101.783 32.4615H103.262L98.6158 19.9886H96.6031ZM97.6354 21.0214L100.4 28.6806H94.8873L97.6354 21.0214Z" fill="#9D9D9C"/>
<path fill-rule="evenodd" clip-rule="evenodd" d="M104.378 32.4618H110.737C111.886 32.4618 112.704 32.1602 113.191 31.5571C113.677 30.9539 113.921 30.0617 113.921 28.8798C113.921 28.2891 113.872 27.8089 113.774 27.4385C113.677 27.0687 113.489 26.7598 113.211 26.5119C112.933 26.2636 112.526 26.0651 111.99 25.9161C112.439 25.7563 112.778 25.5462 113.006 25.2859C113.234 25.0259 113.382 24.7244 113.451 24.3816C113.52 24.0387 113.555 23.6014 113.555 23.0704C113.555 21.9647 113.3 21.1742 112.79 20.6999C112.281 20.2257 111.48 19.9885 110.388 19.9885H104.378V32.4618ZM105.761 21.2206V25.4323H109.725C110.351 25.4323 110.838 25.3683 111.187 25.2412C111.535 25.114 111.784 24.8889 111.932 24.5663C112.081 24.2437 112.156 23.7844 112.156 23.1881C112.156 22.4265 112.021 21.9084 111.752 21.633C111.482 21.3581 110.973 21.2206 110.225 21.2206H105.761ZM105.761 26.6481V31.2134H109.607C110.203 31.2134 110.675 31.1889 111.022 31.1404C111.369 31.0914 111.654 30.9913 111.877 30.8396C112.101 30.6876 112.264 30.4629 112.368 30.1648C112.471 29.8666 112.522 29.4611 112.522 28.949C112.522 28.2715 112.455 27.7715 112.321 27.4489C112.187 27.1262 111.961 26.9123 111.644 26.8066C111.327 26.7009 110.842 26.6481 110.189 26.6481H105.761Z" fill="#9D9D9C"/>
<path d="M123.245 19.9885H124.627V31.2134H130.969V19.9885H132.352V31.2134H133.234V35.328H132.002V32.4618H115.5V19.9885H116.882V31.2134H123.245V19.9885Z" fill="#9D9D9C"/>
<path d="M134.603 19.9885H135.985V31.5145L143.075 19.9885H145.291V32.4618H143.909V21.0539L136.798 32.4618H134.603V19.9885Z" fill="#9D9D9C"/>
<path d="M148.704 19.9885V25.4323H149.952L155.03 19.9885H156.896L151.168 26.0157L157.563 32.4618H155.648L149.936 26.664H148.704V32.4618H147.322V19.9885H148.704Z" fill="#9D9D9C"/>
<path fill-rule="evenodd" clip-rule="evenodd" d="M159.095 21.054C158.715 21.5038 158.445 22.1353 158.286 22.9481C158.128 23.7613 158.049 24.8564 158.049 26.2332C158.049 27.6019 158.128 28.6918 158.285 29.502C158.442 30.3122 158.712 30.9424 159.093 31.3927C159.476 31.8424 159.995 32.1556 160.652 32.3317C161.309 32.5075 162.184 32.596 163.275 32.596C164.375 32.596 165.257 32.5075 165.921 32.3317C166.585 32.1556 167.106 31.8437 167.484 31.3965C167.861 30.9493 168.129 30.3178 168.286 29.502C168.443 28.6862 168.522 27.5963 168.522 26.2332C168.522 24.862 168.445 23.7678 168.29 22.9503C168.136 22.1332 167.869 21.5004 167.489 21.0519C167.11 20.603 166.594 20.2915 165.939 20.1167C165.285 19.9418 164.408 19.8546 163.308 19.8546C162.2 19.8546 161.316 19.9418 160.656 20.1167C159.996 20.2915 159.476 20.6038 159.095 21.054ZM160.099 30.4553C159.843 30.1017 159.671 29.6038 159.581 28.9612C159.491 28.3189 159.447 27.4095 159.447 26.2332C159.447 25.0299 159.489 24.1097 159.573 23.4731C159.657 22.836 159.827 22.3402 160.083 21.9867C160.339 21.6331 160.71 21.3917 161.197 21.2633C161.683 21.1344 162.381 21.0699 163.292 21.0699C164.194 21.0699 164.888 21.1344 165.374 21.2633C165.861 21.3917 166.231 21.6323 166.486 21.9845C166.74 22.3372 166.91 22.8326 166.994 23.4709C167.078 24.1093 167.12 25.0299 167.12 26.2332C167.12 27.4258 167.076 28.34 166.99 28.9753C166.903 29.6111 166.733 30.1052 166.48 30.457C166.227 30.8097 165.854 31.0516 165.362 31.183C164.871 31.3145 164.18 31.3802 163.292 31.3802C162.405 31.3802 161.716 31.3145 161.223 31.183C160.73 31.0516 160.355 30.8088 160.099 30.4553Z" fill="#9D9D9C"/>
<path fill-rule="evenodd" clip-rule="evenodd" d="M169.935 32.4618H176.293C177.443 32.4618 178.261 32.1602 178.747 31.5571C179.234 30.9539 179.477 30.0617 179.477 28.8798C179.477 28.2891 179.428 27.8089 179.33 27.4385C179.233 27.0687 179.045 26.7598 178.768 26.5119C178.49 26.2636 178.082 26.0651 177.546 25.9161C177.996 25.7563 178.334 25.5462 178.562 25.2859C178.79 25.0259 178.938 24.7244 179.007 24.3816C179.076 24.0387 179.111 23.6014 179.111 23.0704C179.111 21.9647 178.856 21.1742 178.347 20.6999C177.837 20.2257 177.036 19.9885 175.944 19.9885H169.935V32.4618ZM171.317 21.2206V25.4323H175.281C175.907 25.4323 176.394 25.3683 176.743 25.2412C177.091 25.114 177.34 24.8889 177.489 24.5663C177.638 24.2437 177.712 23.7844 177.712 23.1881C177.712 22.4265 177.578 21.9084 177.308 21.633C177.038 21.3581 176.529 21.2206 175.781 21.2206H171.317ZM171.317 26.6481V31.2134H175.163C175.759 31.2134 176.231 31.1889 176.578 31.1404C176.925 31.0914 177.21 30.9913 177.434 30.8396C177.657 30.6876 177.821 30.4629 177.924 30.1648C178.027 29.8666 178.078 29.4611 178.078 28.949C178.078 28.2715 178.011 27.7715 177.877 27.4489C177.743 27.1262 177.517 26.9123 177.2 26.8066C176.883 26.7009 176.398 26.6481 175.745 26.6481H171.317Z" fill="#9D9D9C"/>
<path fill-rule="evenodd" clip-rule="evenodd" d="M6.76267 33.3102H26.1284V13.9449H6.76267V33.3102ZM0 7.18268L0.000429594 40.0728H32.8906V7.18225L0 7.18268Z" fill="#9D9D9C"/>
<path fill-rule="evenodd" clip-rule="evenodd" d="M13.4854 26.5874H32.8506V7.22215H13.4854V26.5874ZM6.72314 33.3496H39.6129V0.459473H6.72314V33.3496Z" fill="#C92723"/>
<path d="M32.8907 40.0727L26.1284 33.3496V7.22208L32.8907 7.18213V40.0727Z" fill="#9D9D9C"/>
</svg>
