<svg width="30" height="30" viewBox="0 0 30 30" fill="none" xmlns="http://www.w3.org/2000/svg">
<path d="M8.79841 6.49715C9.11011 6.18875 9.11011 5.68085 8.79841 5.36945L7.67131 4.24145C7.36321 3.93335 6.85501 3.93335 6.54331 4.24145C6.23491 4.55315 6.23491 5.06075 6.54331 5.36945L7.67131 6.49715C7.98181 6.80885 8.49031 6.80885 8.79841 6.49715Z" fill="#264B82"/>
<path d="M15.7974 4.26137C16.0152 4.26137 16.2147 4.17047 16.3605 4.02407C16.5045 3.88037 16.5942 3.68177 16.5942 3.45977V1.86557C16.5942 1.42667 16.2366 1.06787 15.7974 1.06787C15.4683 1.06787 15.1833 1.27067 15.0633 1.55687L15 1.86887V3.46397C15 3.90227 15.3576 4.26137 15.7974 4.26137Z" fill="#264B82"/>
<path d="M4.63664 12.2318H3.04214C2.60444 12.2318 2.24414 12.5909 2.24414 13.0298C2.24414 13.4687 2.60444 13.8275 3.04214 13.8275H4.63634C5.07584 13.8275 5.43404 13.4687 5.43404 13.0298C5.43404 12.5909 5.07584 12.2318 4.63664 12.2318Z" fill="#264B82"/>
<path d="M24.5822 5.36936C24.2735 5.06096 23.7656 5.06096 23.4536 5.36936L22.3265 6.49706C22.0175 6.80876 22.0175 7.31636 22.3265 7.62506C22.637 7.93586 23.1452 7.93586 23.4536 7.62506L24.5822 6.49706C24.8933 6.18866 24.8933 5.68106 24.5822 5.36936Z" fill="#264B82"/>
<path d="M26.9581 13.8242H25.3639C24.9262 13.8242 24.5659 14.1833 24.5659 14.6222C24.5659 15.0608 24.9262 15.4184 25.3639 15.4184H26.9581C27.3967 15.4184 27.7555 15.0608 27.7555 14.6222C27.7558 14.183 27.3967 13.8242 26.9581 13.8242Z" fill="#264B82"/>
<path d="M15 7.53271C11.0112 7.53271 7.76611 10.7841 7.76611 14.781C7.76611 17.1276 8.87581 19.2834 10.7616 20.6466V22.7349C10.7616 23.2563 11.1843 23.679 11.7057 23.679C12.2271 23.679 12.6498 23.2563 12.6498 22.7349V20.1435C12.6498 19.8165 12.4809 19.5129 12.2025 19.3407C10.6068 18.3537 9.65431 16.6494 9.65431 14.7813C9.65431 11.8254 12.0528 9.42092 15.0003 9.42092C17.9481 9.42092 20.3448 11.8254 20.3448 14.7813C20.3448 16.65 19.3932 18.354 17.7978 19.3407C17.52 19.512 17.3505 19.8165 17.3505 20.1435V22.7349C17.3505 23.2563 17.7732 23.679 18.2946 23.679C18.816 23.679 19.2387 23.2563 19.2387 22.7349V20.6466C21.123 19.2837 22.233 17.1282 22.233 14.781C22.2327 10.7844 18.9888 7.53271 15 7.53271Z" fill="#264B82"/>
<path d="M15 27.0445C14.261 27.0445 13.6061 26.6997 13.1807 26.1545C12.9284 25.8311 12.5752 25.5667 12.1652 25.5667H12.104C11.4695 25.5667 10.9924 26.1602 11.2929 26.7191C12.0083 28.0496 13.3997 28.9323 15 28.9323C16.6 28.9323 17.9916 28.0495 18.707 26.719C19.0074 26.1601 18.5304 25.5667 17.8959 25.5667H17.8344C17.424 25.5667 17.0706 25.8316 16.8183 26.1553C16.3934 26.7002 15.7389 27.0445 15 27.0445Z" fill="#264B82"/>
</svg>
