<svg width="50" height="50" viewBox="0 0 50 50" fill="none" xmlns="http://www.w3.org/2000/svg">
<rect width="50" height="50" rx="5" fill="#2D8FD5"/>
<path fill-rule="evenodd" clip-rule="evenodd" d="M25.0009 20.4245C26.5692 20.4245 27.8405 19.1532 27.8405 17.5849C27.8405 16.0166 26.5692 14.7453 25.0009 14.7453C23.4327 14.7453 22.1613 16.0166 22.1613 17.5849C22.1613 19.1532 23.4327 20.4245 25.0009 20.4245ZM25.0009 22.1698C27.5331 22.1698 29.5858 20.1171 29.5858 17.5849C29.5858 15.0527 27.5331 13 25.0009 13C22.4687 13 20.416 15.0527 20.416 17.5849C20.416 20.1171 22.4687 22.1698 25.0009 22.1698Z" fill="white"/>
<path fill-rule="evenodd" clip-rule="evenodd" d="M33.9768 31.2609C33.9922 31.4759 34 31.693 34 31.9119V32.7609H32.5H26.5014V31.3638L27.444 32.2892C28.0352 32.8696 28.9936 32.8696 29.5848 32.2892C29.8745 32.0048 30.0222 31.6337 30.028 31.2609H32.4721C32.1422 27.4236 28.9228 24.4119 25 24.4119C21.0772 24.4119 17.8578 27.4236 17.5279 31.2609H19.9786C19.9844 31.6337 20.1321 32.0048 20.4218 32.2892C21.013 32.8696 21.9714 32.8696 22.5626 32.2892L23.5014 31.3675V32.7609H17.5H16V31.9119C16 31.693 16.0078 31.4759 16.0232 31.2609C16.3567 26.5942 20.2483 22.9119 25 22.9119C29.7517 22.9119 33.6433 26.5942 33.9768 31.2609Z" fill="white"/>
<path d="M25.002 35.834V28.941" stroke="white" stroke-width="1.4" stroke-linecap="round"/>
<path d="M28.5146 31.2385L25.0035 27.7914L21.4924 31.2385" stroke="white" stroke-width="1.4" stroke-linecap="round"/>
</svg>
