<svg width="30" height="30" viewBox="0 0 30 30" fill="none" xmlns="http://www.w3.org/2000/svg">
<g clip-path="url(#clip0_554_3777)">
<path d="M12.4333 25.9155C12.4333 27.0922 11.4945 28 10.3545 28C9.21459 28 8.2758 27.0586 8.2758 25.9155C8.2758 24.7724 9.21459 23.831 10.3545 23.831C11.4945 23.831 12.4333 24.7724 12.4333 25.9155ZM22.9276 23.831C21.7542 23.831 20.8489 24.7724 20.8489 25.9155C20.8489 27.0586 21.7877 28 22.9276 28C24.0676 28 25.0064 27.0586 25.0064 25.9155C25.0064 24.7724 24.0676 23.831 22.9276 23.831ZM11.4275 8.07135C10.891 8.07135 10.321 8.40756 10.321 9.07998C10.321 9.78602 10.7569 10.0886 11.3604 10.0886H25.0728C25.4081 10.0886 25.6763 10.4584 25.5757 10.7947L24.2011 17.3085C24.1676 17.5102 23.9999 17.6783 23.7987 17.712L11.528 20.4016C11.2598 20.4689 10.9916 20.3008 10.9245 20.0318L7.16936 4.70604C7.03525 4.26897 6.63291 4 6.16352 4H3.07892C2.54247 4 2.03954 4.36983 2.00602 4.90777C1.93896 5.54657 2.44188 6.01726 3.04539 6.01726H4.99003C5.22473 6.01726 5.4259 6.18537 5.49295 6.38709L9.08047 21.1413C9.38223 22.2172 10.4551 22.856 11.528 22.6206L24.6034 19.7292C25.4081 19.5611 26.0451 18.9559 26.2128 18.1827L27.9563 10.055C28.1909 9.04636 27.4533 8.07135 26.414 8.07135H11.4275Z" fill="#264B82"/>
</g>
<defs>
<clipPath id="clip0_554_3777">
<rect width="30" height="30" fill="white"/>
</clipPath>
</defs>
</svg>
