<svg width="50" height="50" viewBox="0 0 50 50" fill="none" xmlns="http://www.w3.org/2000/svg">
<rect width="50" height="50" rx="5" fill="#009A8D"/>
<path d="M16.4035 22.1003H33.6666C34.4223 22.1003 34.9999 22.713 35 23.4688V25.3635C35 26.1193 34.4224 26.7319 33.6666 26.7319C33.5891 26.7319 33.5263 26.7947 33.5263 26.8722V34.3109C33.5263 35.0667 32.9487 35.6793 32.1929 35.6793H17.7719C17.0162 35.6793 16.3684 35.0667 16.3684 34.3109V28.1986C16.3684 27.3886 15.559 26.7233 15.1679 26.0139C15.0613 25.8204 15 25.5989 15 25.3635V23.4688C15 22.713 15.6477 22.1003 16.4035 22.1003Z" stroke="white" stroke-width="1.5"/>
<path d="M22.6846 15.1898H23.3142V17.4217C23.3142 18.2652 23.9708 18.7687 25.0121 18.7687H25.0548C26.0961 18.7687 26.6826 18.2652 26.6826 17.4217V15.1898H27.3824C27.6343 15.1898 27.8303 15.0684 27.9203 14.888C28.0103 14.7076 27.9751 14.4798 27.8239 14.2785L25.5814 11.2914C25.4433 11.1076 25.2436 11 25.0335 11C24.8236 11 24.6238 11.1042 24.4857 11.288L22.2431 14.27C22.0918 14.4713 22.0566 14.7078 22.1466 14.8882C22.2366 15.0686 22.4327 15.1898 22.6846 15.1898Z" fill="white"/>
<path d="M21.9715 30.483H28.0304C28.8405 30.483 29.4971 29.8264 29.4971 29.0163V28.9523C29.4971 28.1422 28.8405 27.4856 28.0304 27.4856H21.9715C21.1615 27.4856 20.5049 28.1422 20.5049 28.9523V29.0163C20.5049 29.8264 21.1615 30.483 21.9715 30.483Z" stroke="white" stroke-width="1.5"/>
</svg>
