<svg width="273" height="240" viewBox="0 0 273 240" fill="none" xmlns="http://www.w3.org/2000/svg">
<g filter="url(#filter0_dd_202_5494)">
<g filter="url(#filter1_dd_202_5494)">
<path d="M132.648 74.4341H108.728V88.0044H132.648V74.4341Z" fill="white" stroke="#9DAFCC" stroke-width="0.6" stroke-miterlimit="10"/>
<path d="M127.712 62.0703H113.663V74.4341H127.712V62.0703Z" fill="#E4EBF5" stroke="#9DAFCC" stroke-width="0.6" stroke-miterlimit="10"/>
<path d="M136.671 88.0046H104.709L100.084 157.106H141.295L136.671 88.0046Z" fill="white" stroke="#9DAFCC" stroke-width="0.6" stroke-miterlimit="10" stroke-linecap="round"/>
<path d="M141.295 157.106L140.786 149.507H100.593L100.084 157.106H96.7017V175.551H144.674V157.106H141.295Z" fill="#F25451" stroke="#9DAFCC" stroke-width="0.6" stroke-miterlimit="10" stroke-linecap="round"/>
<path d="M96.7017 125.815L95.0038 103.545H23.3047L21.0276 125.815" fill="#F25451"/>
<path d="M96.7017 125.815L95.0038 103.545H23.3047L21.0276 125.815" stroke="#9DAFCC" stroke-width="0.6" stroke-miterlimit="10" stroke-linecap="round"/>
<path d="M21.0276 125.104V175.551H96.7017V125.104" fill="white"/>
<path d="M21.0276 125.104V175.551H96.7017V125.104" stroke="#9DAFCC" stroke-width="0.6" stroke-miterlimit="10"/>
<path d="M96.7017 155.729H21.0276V175.551H96.7017V155.729Z" fill="#E4EBF5" stroke="#9DAFCC" stroke-width="0.6" stroke-miterlimit="10"/>
<path d="M31.2328 131.545H27.2534V137.38H31.2328V131.545Z" fill="#365DA0" stroke="#9DAFCC" stroke-width="0.6" stroke-linecap="round" stroke-linejoin="round"/>
<path d="M40.025 131.545H36.0457V137.38H40.025V131.545Z" fill="#365DA0" stroke="#9DAFCC" stroke-width="0.6" stroke-linecap="round" stroke-linejoin="round"/>
<path d="M41.9335 143.637H35.2339V151.697H41.9335V143.637Z" fill="#365DA0" stroke="#9DAFCC" stroke-width="0.6" stroke-linecap="round" stroke-linejoin="round"/>
<path d="M38.5862 143.637V151.697" stroke="#9DAFCC" stroke-width="0.6" stroke-linecap="round" stroke-linejoin="round"/>
<path d="M35.6379 147.138H41.9339" stroke="#9DAFCC" stroke-width="0.6" stroke-linecap="round" stroke-linejoin="round"/>
<path d="M32.0443 143.637H25.3447V151.697H32.0443V143.637Z" fill="#365DA0" stroke="#9DAFCC" stroke-width="0.6" stroke-linecap="round" stroke-linejoin="round"/>
<path d="M28.6924 143.637V151.697" stroke="#9DAFCC" stroke-width="0.6" stroke-linecap="round" stroke-linejoin="round"/>
<path d="M25.7483 147.138H32.0442" stroke="#9DAFCC" stroke-width="0.6" stroke-linecap="round" stroke-linejoin="round"/>
<path d="M32.0443 160.393H25.3447V171.953H32.0443V160.393Z" fill="#365DA0" stroke="#9DAFCC" stroke-width="0.6" stroke-linecap="round" stroke-linejoin="round"/>
<path d="M28.6924 160.393V171.958" stroke="#9DAFCC" stroke-width="0.6" stroke-linecap="round" stroke-linejoin="round"/>
<path d="M25.7483 163.894H32.0442" stroke="#9DAFCC" stroke-width="0.6" stroke-linecap="round" stroke-linejoin="round"/>
<path d="M41.9335 160.393H35.2339V171.953H41.9335V160.393Z" fill="#365DA0" stroke="#9DAFCC" stroke-width="0.6" stroke-linecap="round" stroke-linejoin="round"/>
<path d="M38.5862 160.393V171.958" stroke="#9DAFCC" stroke-width="0.6" stroke-linecap="round" stroke-linejoin="round"/>
<path d="M35.6379 163.894H41.9339" stroke="#9DAFCC" stroke-width="0.6" stroke-linecap="round" stroke-linejoin="round"/>
<path d="M46.2509 154.351H21.0276V157.111H46.2509V154.351Z" fill="#9DAFCC"/>
<path d="M56.4603 131.545H52.481V137.38H56.4603V131.545Z" fill="#365DA0" stroke="#9DAFCC" stroke-width="0.6" stroke-linecap="round" stroke-linejoin="round"/>
<path d="M65.2528 131.545H61.2734V137.38H65.2528V131.545Z" fill="#365DA0" stroke="#9DAFCC" stroke-width="0.6" stroke-linecap="round" stroke-linejoin="round"/>
<path d="M67.1613 143.637H60.4617V151.697H67.1613V143.637Z" fill="#365DA0" stroke="#9DAFCC" stroke-width="0.6" stroke-linecap="round" stroke-linejoin="round"/>
<path d="M63.8093 143.637V151.697" stroke="#9DAFCC" stroke-width="0.6" stroke-linecap="round" stroke-linejoin="round"/>
<path d="M60.8655 147.138H67.1614" stroke="#9DAFCC" stroke-width="0.6" stroke-linecap="round" stroke-linejoin="round"/>
<path d="M57.2675 143.637H50.5679V151.697H57.2675V143.637Z" fill="#365DA0" stroke="#9DAFCC" stroke-width="0.6" stroke-linecap="round" stroke-linejoin="round"/>
<path d="M53.9202 143.637V151.697" stroke="#9DAFCC" stroke-width="0.6" stroke-linecap="round" stroke-linejoin="round"/>
<path d="M50.9717 147.138H57.2676" stroke="#9DAFCC" stroke-width="0.6" stroke-linecap="round" stroke-linejoin="round"/>
<path d="M57.2675 160.393H50.5679V171.953H57.2675V160.393Z" fill="#365DA0" stroke="#9DAFCC" stroke-width="0.6" stroke-linecap="round" stroke-linejoin="round"/>
<path d="M53.9202 160.393V171.958" stroke="#9DAFCC" stroke-width="0.6" stroke-linecap="round" stroke-linejoin="round"/>
<path d="M50.9717 163.894H57.2676" stroke="#9DAFCC" stroke-width="0.6" stroke-linecap="round" stroke-linejoin="round"/>
<path d="M67.1613 160.393H60.4617V171.953H67.1613V160.393Z" fill="#365DA0" stroke="#9DAFCC" stroke-width="0.6" stroke-linecap="round" stroke-linejoin="round"/>
<path d="M63.8093 160.393V171.958" stroke="#9DAFCC" stroke-width="0.6" stroke-linecap="round" stroke-linejoin="round"/>
<path d="M60.8655 163.894H67.1614" stroke="#9DAFCC" stroke-width="0.6" stroke-linecap="round" stroke-linejoin="round"/>
<path d="M71.4742 154.351H46.251V157.111H71.4742V154.351Z" fill="#9DAFCC"/>
<path d="M81.6835 131.545H77.7041V137.38H81.6835V131.545Z" fill="#365DA0" stroke="#9DAFCC" stroke-width="0.6" stroke-linecap="round" stroke-linejoin="round"/>
<path d="M90.4762 131.545H86.4968V137.38H90.4762V131.545Z" fill="#365DA0" stroke="#9DAFCC" stroke-width="0.6" stroke-linecap="round" stroke-linejoin="round"/>
<path d="M92.3844 143.637H85.6848V151.697H92.3844V143.637Z" fill="#365DA0" stroke="#9DAFCC" stroke-width="0.6" stroke-linecap="round" stroke-linejoin="round"/>
<path d="M89.0371 143.637V151.697" stroke="#9DAFCC" stroke-width="0.6" stroke-linecap="round" stroke-linejoin="round"/>
<path d="M86.0886 147.138H92.3846" stroke="#9DAFCC" stroke-width="0.6" stroke-linecap="round" stroke-linejoin="round"/>
<path d="M82.4911 143.637H75.7915V151.697H82.4911V143.637Z" fill="#365DA0" stroke="#9DAFCC" stroke-width="0.6" stroke-linecap="round" stroke-linejoin="round"/>
<path d="M79.1433 143.637V151.697" stroke="#9DAFCC" stroke-width="0.6" stroke-linecap="round" stroke-linejoin="round"/>
<path d="M76.1992 147.138H82.4908" stroke="#9DAFCC" stroke-width="0.6" stroke-linecap="round" stroke-linejoin="round"/>
<path d="M82.4911 160.393H75.7915V171.953H82.4911V160.393Z" fill="#365DA0" stroke="#9DAFCC" stroke-width="0.6" stroke-linecap="round" stroke-linejoin="round"/>
<path d="M79.1433 160.393V171.958" stroke="#9DAFCC" stroke-width="0.6" stroke-linecap="round" stroke-linejoin="round"/>
<path d="M76.1992 163.894H82.4908" stroke="#9DAFCC" stroke-width="0.6" stroke-linecap="round" stroke-linejoin="round"/>
<path d="M92.3844 160.393H85.6848V171.953H92.3844V160.393Z" fill="#365DA0" stroke="#9DAFCC" stroke-width="0.6" stroke-linecap="round" stroke-linejoin="round"/>
<path d="M89.0371 160.393V171.958" stroke="#9DAFCC" stroke-width="0.6" stroke-linecap="round" stroke-linejoin="round"/>
<path d="M86.0886 163.894H92.3846" stroke="#9DAFCC" stroke-width="0.6" stroke-linecap="round" stroke-linejoin="round"/>
<path d="M96.7018 154.351H71.4785V157.111H96.7018V154.351Z" fill="#9DAFCC"/>
<path d="M96.7017 157.106H144.674" stroke="#9DAFCC" stroke-width="0.6" stroke-miterlimit="10"/>
<path d="M96.7017 160.393H144.674" stroke="#9DAFCC" stroke-width="0.6" stroke-miterlimit="10"/>
<path d="M253.517 129.812H144.674V175.551H253.517V129.812Z" fill="white" stroke="#9DAFCC" stroke-width="0.6" stroke-miterlimit="10"/>
<path d="M253.517 156.961H144.674V175.551H253.517V156.961Z" fill="#E4EBF5" stroke="#9DAFCC" stroke-width="0.6" stroke-miterlimit="10"/>
<path d="M253.517 114.509H144.674V122.555H253.517V114.509Z" fill="#F25451" stroke="#9DAFCC" stroke-width="0.6" stroke-miterlimit="10"/>
<path d="M255.057 129.812H143.134L144.674 122.555H253.517L255.057 129.812Z" fill="#F25451" stroke="#9DAFCC" stroke-width="0.6" stroke-miterlimit="10"/>
<path d="M231.404 117.334H227.49V127.022H231.404V117.334Z" fill="#F25451" stroke="#9DAFCC" stroke-width="0.6" stroke-miterlimit="10" stroke-linecap="round"/>
<path d="M220.054 111.433H212.113V114.509H220.054V111.433Z" fill="#F25451" stroke="#9DAFCC" stroke-width="0.6" stroke-miterlimit="10" stroke-linecap="round"/>
<path d="M153.563 134.463H148.25V139.776H153.563V134.463Z" fill="#365DA0" stroke="#9DAFCC" stroke-width="0.6" stroke-miterlimit="10" stroke-linecap="round"/>
<path d="M163.869 134.463H158.555V139.776H163.869V134.463Z" fill="#365DA0" stroke="#9DAFCC" stroke-width="0.6" stroke-miterlimit="10" stroke-linecap="round"/>
<path d="M174.17 134.463H168.857V139.776H174.17V134.463Z" fill="#365DA0" stroke="#9DAFCC" stroke-width="0.6" stroke-miterlimit="10" stroke-linecap="round"/>
<path d="M184.476 134.463H179.163V139.776H184.476V134.463Z" fill="#365DA0" stroke="#9DAFCC" stroke-width="0.6" stroke-miterlimit="10" stroke-linecap="round"/>
<path d="M196.13 134.463H190.816V139.776H196.13V134.463Z" fill="#365DA0" stroke="#9DAFCC" stroke-width="0.6" stroke-miterlimit="10" stroke-linecap="round"/>
<path d="M206.435 134.463H201.122V139.776H206.435V134.463Z" fill="#365DA0" stroke="#9DAFCC" stroke-width="0.6" stroke-miterlimit="10" stroke-linecap="round"/>
<path d="M218.624 134.463H213.311V139.776H218.624V134.463Z" fill="#365DA0" stroke="#9DAFCC" stroke-width="0.6" stroke-miterlimit="10" stroke-linecap="round"/>
<path d="M228.93 134.463H223.616V139.776H228.93V134.463Z" fill="#365DA0" stroke="#9DAFCC" stroke-width="0.6" stroke-miterlimit="10" stroke-linecap="round"/>
<path d="M238.937 134.463H233.624V139.776H238.937V134.463Z" fill="#365DA0" stroke="#9DAFCC" stroke-width="0.6" stroke-miterlimit="10" stroke-linecap="round"/>
<path d="M249.244 134.463H243.93V139.776H249.244V134.463Z" fill="#365DA0" stroke="#9DAFCC" stroke-width="0.6" stroke-miterlimit="10" stroke-linecap="round"/>
<path d="M153.563 147.331H148.25V154.347H153.563V147.331Z" fill="#365DA0" stroke="#9DAFCC" stroke-width="0.6" stroke-miterlimit="10" stroke-linecap="round"/>
<path d="M163.869 147.331H158.555V154.347H163.869V147.331Z" fill="#365DA0" stroke="#9DAFCC" stroke-width="0.6" stroke-miterlimit="10" stroke-linecap="round"/>
<path d="M174.17 147.331H168.857V154.347H174.17V147.331Z" fill="#365DA0" stroke="#9DAFCC" stroke-width="0.6" stroke-miterlimit="10" stroke-linecap="round"/>
<path d="M184.476 147.331H179.163V154.347H184.476V147.331Z" fill="#365DA0" stroke="#9DAFCC" stroke-width="0.6" stroke-miterlimit="10" stroke-linecap="round"/>
<path d="M196.13 147.331H190.816V154.347H196.13V147.331Z" fill="#365DA0" stroke="#9DAFCC" stroke-width="0.6" stroke-miterlimit="10" stroke-linecap="round"/>
<path d="M206.435 147.331H201.122V154.347H206.435V147.331Z" fill="#365DA0" stroke="#9DAFCC" stroke-width="0.6" stroke-miterlimit="10" stroke-linecap="round"/>
<path d="M218.624 147.331H213.311V154.347H218.624V147.331Z" fill="#365DA0" stroke="#9DAFCC" stroke-width="0.6" stroke-miterlimit="10" stroke-linecap="round"/>
<path d="M228.93 147.331H223.616V154.347H228.93V147.331Z" fill="#365DA0" stroke="#9DAFCC" stroke-width="0.6" stroke-miterlimit="10" stroke-linecap="round"/>
<path d="M238.937 147.331H233.624V154.347H238.937V147.331Z" fill="#365DA0" stroke="#9DAFCC" stroke-width="0.6" stroke-miterlimit="10" stroke-linecap="round"/>
<path d="M249.244 147.331H243.93V154.347H249.244V147.331Z" fill="#365DA0" stroke="#9DAFCC" stroke-width="0.6" stroke-miterlimit="10" stroke-linecap="round"/>
<path d="M153.563 161.906H148.25V168.921H153.563V161.906Z" fill="#365DA0" stroke="#9DAFCC" stroke-width="0.6" stroke-miterlimit="10" stroke-linecap="round"/>
<path d="M165.619 173.177H156.757V175.546H165.619V173.177Z" fill="#F25451" stroke="#9DAFCC" stroke-width="0.6" stroke-miterlimit="10" stroke-linecap="round"/>
<path d="M163.842 161.906H158.529V173.182H163.842V161.906Z" fill="#F25451" stroke="#9DAFCC" stroke-width="0.6" stroke-miterlimit="10" stroke-linecap="round"/>
<path d="M174.17 161.906H168.857V168.921H174.17V161.906Z" fill="#365DA0" stroke="#9DAFCC" stroke-width="0.6" stroke-miterlimit="10" stroke-linecap="round"/>
<path d="M184.476 161.906H179.163V168.921H184.476V161.906Z" fill="#365DA0" stroke="#9DAFCC" stroke-width="0.6" stroke-miterlimit="10" stroke-linecap="round"/>
<path d="M196.13 161.906H190.816V168.921H196.13V161.906Z" fill="#365DA0" stroke="#9DAFCC" stroke-width="0.6" stroke-miterlimit="10" stroke-linecap="round"/>
<path d="M218.624 161.906H213.311V168.921H218.624V161.906Z" fill="#365DA0" stroke="#9DAFCC" stroke-width="0.6" stroke-miterlimit="10" stroke-linecap="round"/>
<path d="M228.93 161.906H223.616V168.921H228.93V161.906Z" fill="#365DA0" stroke="#9DAFCC" stroke-width="0.6" stroke-miterlimit="10" stroke-linecap="round"/>
<path d="M249.244 161.906H243.93V168.921H249.244V161.906Z" fill="#365DA0" stroke="#9DAFCC" stroke-width="0.6" stroke-miterlimit="10" stroke-linecap="round"/>
<path d="M208.212 173.177H199.35V175.546H208.212V173.177Z" fill="#F25451" stroke="#9DAFCC" stroke-width="0.6" stroke-miterlimit="10" stroke-linecap="round"/>
<path d="M206.435 161.906H201.122V173.182H206.435V161.906Z" fill="#F25451" stroke="#9DAFCC" stroke-width="0.6" stroke-miterlimit="10" stroke-linecap="round"/>
<path d="M240.714 173.177H231.852V175.546H240.714V173.177Z" fill="#F25451" stroke="#9DAFCC" stroke-width="0.6" stroke-miterlimit="10" stroke-linecap="round"/>
<path d="M238.937 161.906H233.624V173.182H238.937V161.906Z" fill="#F25451" stroke="#9DAFCC" stroke-width="0.6" stroke-miterlimit="10" stroke-linecap="round"/>
<path d="M152.834 159.686H149.039V161.906H152.834V159.686Z" fill="#9DAFCC"/>
<path d="M163.11 159.686H159.314V161.906H163.11V159.686Z" fill="#9DAFCC"/>
<path d="M173.411 159.686H169.616V161.906H173.411V159.686Z" fill="#9DAFCC"/>
<path d="M183.717 159.686H179.922V161.906H183.717V159.686Z" fill="#9DAFCC"/>
<path d="M195.371 159.686H191.575V161.906H195.371V159.686Z" fill="#9DAFCC"/>
<path d="M205.676 159.686H201.881V161.906H205.676V159.686Z" fill="#9DAFCC"/>
<path d="M217.865 159.686H214.07V161.906H217.865V159.686Z" fill="#9DAFCC"/>
<path d="M228 159.686H224.205V161.906H228V159.686Z" fill="#9DAFCC"/>
<path d="M238.178 159.686H234.383V161.906H238.178V159.686Z" fill="#9DAFCC"/>
<path d="M248.485 159.686H244.689V161.906H248.485V159.686Z" fill="#9DAFCC"/>
<path d="M150.908 168.921V161.906" stroke="#9DAFCC" stroke-width="0.6" stroke-linecap="round" stroke-linejoin="round"/>
<path d="M171.516 168.921V161.906" stroke="#9DAFCC" stroke-width="0.6" stroke-linecap="round" stroke-linejoin="round"/>
<path d="M181.822 168.921V161.906" stroke="#9DAFCC" stroke-width="0.6" stroke-linecap="round" stroke-linejoin="round"/>
<path d="M193.475 168.921V161.906" stroke="#9DAFCC" stroke-width="0.6" stroke-linecap="round" stroke-linejoin="round"/>
<path d="M215.969 168.921V161.906" stroke="#9DAFCC" stroke-width="0.6" stroke-linecap="round" stroke-linejoin="round"/>
<path d="M226.271 168.921V161.906" stroke="#9DAFCC" stroke-width="0.6" stroke-linecap="round" stroke-linejoin="round"/>
<path d="M246.589 168.921V161.906" stroke="#9DAFCC" stroke-width="0.6" stroke-linecap="round" stroke-linejoin="round"/>
<path d="M187.508 122.555V175.551" stroke="#9DAFCC" stroke-width="0.6" stroke-linecap="round" stroke-linejoin="round"/>
<path d="M46.251 125.104V175.551" stroke="#9DAFCC" stroke-width="0.6" stroke-linecap="round" stroke-linejoin="round"/>
<path d="M71.4785 125.104V175.551" stroke="#9DAFCC" stroke-width="0.6" stroke-linecap="round" stroke-linejoin="round"/>
<path d="M210.261 122.555V175.551" stroke="#9DAFCC" stroke-width="0.6" stroke-linecap="round" stroke-linejoin="round"/>
<path d="M104.305 88.0046H137.07" stroke="#9DAFCC" stroke-width="0.6" stroke-miterlimit="10"/>
<path d="M109.202 153.741H104.375V146.914L104.547 146.818C105.235 146.436 106.008 146.236 106.795 146.236C107.582 146.236 108.356 146.436 109.044 146.818L109.215 146.914L109.202 153.741Z" fill="#365DA0" stroke="#9DAFCC" stroke-width="0.6" stroke-miterlimit="10" stroke-linecap="round"/>
<path d="M118.472 153.741H113.646V146.914L113.817 146.818C114.505 146.436 115.279 146.236 116.065 146.236C116.852 146.236 117.626 146.436 118.314 146.818L118.485 146.914L118.472 153.741Z" fill="#365DA0" stroke="#9DAFCC" stroke-width="0.6" stroke-miterlimit="10" stroke-linecap="round"/>
<path d="M127.743 153.741H122.917V146.914L123.088 146.818C123.776 146.436 124.549 146.236 125.336 146.236C126.123 146.236 126.897 146.436 127.585 146.818L127.756 146.914L127.743 153.741Z" fill="#365DA0" stroke="#9DAFCC" stroke-width="0.6" stroke-miterlimit="10" stroke-linecap="round"/>
<path d="M137.013 153.741H132.187V146.914L132.358 146.818C133.046 146.436 133.82 146.236 134.607 146.236C135.394 146.236 136.168 146.436 136.855 146.818L137.027 146.914L137.013 153.741Z" fill="#365DA0" stroke="#9DAFCC" stroke-width="0.6" stroke-miterlimit="10" stroke-linecap="round"/>
<path d="M114.646 106.668H110.733V113.495H114.646V106.668Z" fill="#365DA0" stroke="#9DAFCC" stroke-width="0.6" stroke-miterlimit="10" stroke-linecap="round"/>
<path d="M122.645 106.668H118.731V113.495H122.645V106.668Z" fill="#365DA0" stroke="#9DAFCC" stroke-width="0.6" stroke-miterlimit="10" stroke-linecap="round"/>
<path d="M130.647 106.668H126.733V113.495H130.647V106.668Z" fill="#365DA0" stroke="#9DAFCC" stroke-width="0.6" stroke-miterlimit="10" stroke-linecap="round"/>
<path d="M101.3 138.464H140.076" stroke="#9DAFCC" stroke-width="0.6" stroke-miterlimit="10" stroke-linecap="round"/>
<path d="M104.305 93.4141H137.07" stroke="#9DAFCC" stroke-width="0.6" stroke-miterlimit="10"/>
<path d="M104.305 96.2615H137.07" stroke="#9DAFCC" stroke-width="0.6" stroke-miterlimit="10"/>
<path d="M101.862 88.0046H139.514" stroke="#F25451" stroke-width="0.6" stroke-miterlimit="10"/>
<path d="M139.514 81.2786V88.7679" stroke="#F25451" stroke-width="0.6" stroke-miterlimit="10"/>
<path d="M134.806 81.2786V88.7679" stroke="#F25451" stroke-width="0.6" stroke-miterlimit="10"/>
<path d="M130.103 81.2786V88.7679" stroke="#F25451" stroke-width="0.6" stroke-miterlimit="10"/>
<path d="M125.396 81.2786V88.7679" stroke="#F25451" stroke-width="0.6" stroke-miterlimit="10"/>
<path d="M120.688 81.2786V88.7679" stroke="#F25451" stroke-width="0.6" stroke-miterlimit="10"/>
<path d="M115.98 81.2786V88.7679" stroke="#F25451" stroke-width="0.6" stroke-miterlimit="10"/>
<path d="M111.277 81.2786V88.7679" stroke="#F25451" stroke-width="0.6" stroke-miterlimit="10"/>
<path d="M106.569 81.2786V88.7679" stroke="#F25451" stroke-width="0.6" stroke-miterlimit="10"/>
<path d="M101.862 81.2786V88.7679" stroke="#F25451" stroke-width="0.6" stroke-miterlimit="10"/>
<path d="M134.429 71.1172H106.946V74.4341H134.429V71.1172Z" fill="#F25451" stroke="#9DAFCC" stroke-width="0.6" stroke-miterlimit="10"/>
<path d="M120.688 52.5586C118.168 52.5586 115.752 53.5594 113.971 55.3407C112.19 57.1221 111.189 59.5381 111.189 62.0574H130.186C130.186 60.81 129.941 59.5748 129.463 58.4224C128.986 57.2699 128.286 56.2228 127.404 55.3407C126.523 54.4587 125.475 53.759 124.323 53.2816C123.17 52.8043 121.935 52.5586 120.688 52.5586Z" fill="#F25451" stroke="#9DAFCC" stroke-width="0.6" stroke-miterlimit="10"/>
<path d="M120.688 52.5585V48" stroke="#9DAFCC" stroke-width="0.6" stroke-miterlimit="10"/>
<path d="M137.07 88.7678H104.305V91.5275H137.07V88.7678Z" fill="#9DAFCC"/>
<path d="M257.738 175.551H15.6003V186.607H257.738V175.551Z" fill="#365DA0" stroke="#9DAFCC" stroke-width="0.6" stroke-miterlimit="10"/>
<path d="M237.178 181.079H38.3621V186.607H237.178V181.079Z" fill="#E4EBF5" stroke="#9DAFCC" stroke-width="0.6" stroke-miterlimit="10"/>
<path d="M46.2509 125.104L33.6414 101.132L21.0276 125.104" fill="white"/>
<path d="M46.2509 125.104L33.6414 101.132L21.0276 125.104" stroke="#F25451" stroke-width="0.6" stroke-linecap="round" stroke-linejoin="round"/>
<path d="M35.4402 116.474H31.8425V121.845H35.4402V116.474Z" fill="#F25451" stroke="#9DAFCC" stroke-width="0.6" stroke-linecap="round" stroke-linejoin="round"/>
<path d="M46.251 125.104L58.8648 101.132L71.4786 125.104" fill="white"/>
<path d="M46.251 125.104L58.8648 101.132L71.4786 125.104" stroke="#F25451" stroke-width="0.6" stroke-linecap="round" stroke-linejoin="round"/>
<path d="M60.6634 116.474H57.0657V121.845H60.6634V116.474Z" fill="#F25451" stroke="#9DAFCC" stroke-width="0.6" stroke-linecap="round" stroke-linejoin="round"/>
<path d="M71.4785 125.104L84.0879 101.132L96.7018 125.104" fill="white"/>
<path d="M71.4785 125.104L84.0879 101.132L96.7018 125.104" stroke="#F25451" stroke-width="0.6" stroke-linecap="round" stroke-linejoin="round"/>
<path d="M85.8867 116.474H82.2891V121.845H85.8867V116.474Z" fill="#F25451" stroke="#9DAFCC" stroke-width="0.6" stroke-linecap="round" stroke-linejoin="round"/>
<path d="M241.587 154.351H155.976V156.962H241.587V154.351Z" fill="#F25451" stroke="#9DAFCC" stroke-width="0.6" stroke-miterlimit="10" stroke-linecap="round"/>
</g>
</g>
<defs>
<filter id="filter0_dd_202_5494" x="-11.9112" y="-11.9112" width="296.822" height="263.822" filterUnits="userSpaceOnUse" color-interpolation-filters="sRGB">
<feFlood flood-opacity="0" result="BackgroundImageFix"/>
<feColorMatrix in="SourceAlpha" type="matrix" values="0 0 0 0 0 0 0 0 0 0 0 0 0 0 0 0 0 0 127 0" result="hardAlpha"/>
<feOffset/>
<feGaussianBlur stdDeviation="5.95559"/>
<feComposite in2="hardAlpha" operator="out"/>
<feColorMatrix type="matrix" values="0 0 0 0 0.568627 0 0 0 0 0.741176 0 0 0 0 0.866667 0 0 0 1 0"/>
<feBlend mode="normal" in2="BackgroundImageFix" result="effect1_dropShadow_202_5494"/>
<feColorMatrix in="SourceAlpha" type="matrix" values="0 0 0 0 0 0 0 0 0 0 0 0 0 0 0 0 0 0 127 0" result="hardAlpha"/>
<feOffset dy="2.38223"/>
<feGaussianBlur stdDeviation="2.97779"/>
<feComposite in2="hardAlpha" operator="out"/>
<feColorMatrix type="matrix" values="0 0 0 0 0 0 0 0 0 0 0 0 0 0 0 0 0 0 0.1 0"/>
<feBlend mode="normal" in2="effect1_dropShadow_202_5494" result="effect2_dropShadow_202_5494"/>
<feBlend mode="normal" in="SourceGraphic" in2="effect2_dropShadow_202_5494" result="shape"/>
</filter>
<filter id="filter1_dd_202_5494" x="3.38912" y="36.0888" width="266.56" height="162.73" filterUnits="userSpaceOnUse" color-interpolation-filters="sRGB">
<feFlood flood-opacity="0" result="BackgroundImageFix"/>
<feColorMatrix in="SourceAlpha" type="matrix" values="0 0 0 0 0 0 0 0 0 0 0 0 0 0 0 0 0 0 127 0" result="hardAlpha"/>
<feOffset/>
<feGaussianBlur stdDeviation="5.95559"/>
<feComposite in2="hardAlpha" operator="out"/>
<feColorMatrix type="matrix" values="0 0 0 0 0.568627 0 0 0 0 0.741176 0 0 0 0 0.866667 0 0 0 1 0"/>
<feBlend mode="normal" in2="BackgroundImageFix" result="effect1_dropShadow_202_5494"/>
<feColorMatrix in="SourceAlpha" type="matrix" values="0 0 0 0 0 0 0 0 0 0 0 0 0 0 0 0 0 0 127 0" result="hardAlpha"/>
<feOffset dy="2.38223"/>
<feGaussianBlur stdDeviation="2.97779"/>
<feComposite in2="hardAlpha" operator="out"/>
<feColorMatrix type="matrix" values="0 0 0 0 0 0 0 0 0 0 0 0 0 0 0 0 0 0 0.1 0"/>
<feBlend mode="normal" in2="effect1_dropShadow_202_5494" result="effect2_dropShadow_202_5494"/>
<feBlend mode="normal" in="SourceGraphic" in2="effect2_dropShadow_202_5494" result="shape"/>
</filter>
</defs>
</svg>
