<svg width="273" height="257" viewBox="0 0 273 257" fill="none" xmlns="http://www.w3.org/2000/svg">
<g filter="url(#filter0_dd_202_706)">
<g filter="url(#filter1_dd_202_706)">
<path d="M114.049 103.87H85.9719V141.067H114.049V103.87Z" fill="#E4EBF5" stroke="#9DAFCC" stroke-width="0.6" stroke-miterlimit="10"/>
<path d="M95.3347 109.102V141.067" stroke="white" stroke-width="0.6" stroke-miterlimit="10"/>
<path d="M104.692 109.102V141.067" stroke="white" stroke-width="0.6" stroke-miterlimit="10"/>
<path d="M114.049 103.87H85.9719V109.102H114.049V103.87Z" fill="white" stroke="#9DAFCC" stroke-width="0.6" stroke-miterlimit="10"/>
<path d="M114.049 133.452H85.9719V141.073H114.049V133.452Z" fill="white" stroke="#9DAFCC" stroke-width="0.6" stroke-miterlimit="10"/>
<path d="M100.034 113.689C100.672 113.689 101.284 113.943 101.735 114.393C102.186 114.845 102.44 115.457 102.44 116.095V128.13H97.6282V116.095C97.6282 115.457 97.8818 114.845 98.3328 114.393C98.7843 113.943 99.3959 113.689 100.034 113.689Z" fill="#365DA0" stroke="#9DAFCC" stroke-width="0.6" stroke-miterlimit="10"/>
<path d="M90.6769 113.689C91.3151 113.689 91.9267 113.943 92.3783 114.393C92.8292 114.845 93.0828 115.457 93.0828 116.095V128.13H88.271V116.095C88.271 115.457 88.5246 114.845 88.9756 114.393C89.4271 113.943 90.0387 113.689 90.6769 113.689Z" fill="#365DA0" stroke="#9DAFCC" stroke-width="0.6" stroke-miterlimit="10"/>
<path d="M109.344 113.689C109.982 113.689 110.594 113.943 111.045 114.393C111.496 114.845 111.75 115.457 111.75 116.095V128.13H106.932V116.095C106.932 115.778 106.994 115.465 107.116 115.173C107.237 114.881 107.415 114.615 107.639 114.392C107.863 114.168 108.129 113.991 108.421 113.87C108.714 113.75 109.027 113.688 109.344 113.689Z" fill="#365DA0" stroke="#9DAFCC" stroke-width="0.6" stroke-miterlimit="10"/>
<path d="M114.049 99.9763C114.028 97.0951 113.1 94.2939 111.399 91.9692C109.697 89.6444 107.307 87.9135 104.567 87.0222H95.4414C92.7025 87.9147 90.3131 89.6456 88.6112 91.9704C86.9099 94.2945 85.9825 97.0957 85.96 99.9763C85.96 100.018 85.96 100.053 85.96 100.095V103.87H114.037V100.095C114.043 100.053 114.049 100.018 114.049 99.9763Z" fill="#365DA0" stroke="#9DAFCC" stroke-width="0.6" stroke-miterlimit="10"/>
<path d="M104.544 75.4133H95.4888V87.0222H104.544V75.4133Z" fill="white" stroke="#9DAFCC" stroke-width="0.6" stroke-miterlimit="10"/>
<path d="M104.538 71.0579H95.489L94.3394 75.4134H105.688L104.538 71.0579Z" fill="#F25451" stroke="#9DAFCC" stroke-width="0.6" stroke-linejoin="round"/>
<path d="M100.01 71.0577H95.7556C93.5097 71.0577 91.6904 68.4918 91.6904 65.3332C91.6904 62.3169 93.806 61.1851 96.4312 59.2059C98.5526 57.6 99.9867 50.868 99.9867 50.868C99.9867 50.868 101.764 57.6592 103.542 59.2059C106.019 61.3629 108.313 62.3169 108.313 65.3332C108.313 68.4918 106.493 71.0577 104.247 71.0577H100.01Z" fill="#F25451" stroke="#9DAFCC" stroke-width="0.6" stroke-linejoin="round"/>
<path d="M100.01 75.4133V87.0222" stroke="#9DAFCC" stroke-width="0.6" stroke-linejoin="round"/>
<path d="M100.016 50.8683V34.6371" stroke="#9DAFCC" stroke-width="0.6" stroke-linejoin="round"/>
<path d="M95.8918 40.2311H103.963" stroke="#9DAFCC" stroke-width="0.6" stroke-linejoin="round"/>
<path d="M98.0962 37.1022H101.942" stroke="#9DAFCC" stroke-width="0.6" stroke-linejoin="round"/>
<path d="M97.7229 44.3615L102.25 46.8207" stroke="#9DAFCC" stroke-width="0.6" stroke-linejoin="round"/>
<path d="M158.831 190.969H41.1897V235.283H158.831V190.969Z" fill="#E4EBF5" stroke="#9DAFCC" stroke-width="0.6" stroke-miterlimit="10"/>
<path d="M158.831 229.393H41.1897V235.283H158.831V229.393Z" fill="#365DA0" stroke="#9DAFCC" stroke-width="0.6" stroke-miterlimit="10"/>
<path d="M100.01 205.932C98.3588 205.933 96.776 206.59 95.608 207.758C94.4406 208.925 93.784 210.508 93.7822 212.16V235.271H106.227V212.16C106.225 210.511 105.57 208.929 104.405 207.762C103.24 206.594 101.66 205.937 100.01 205.932Z" fill="#365DA0" stroke="#9DAFCC" stroke-width="0.6" stroke-miterlimit="10"/>
<path d="M67.0326 203.301C65.6181 203.301 64.2615 203.862 63.2613 204.863C62.2611 205.863 61.6992 207.22 61.6992 208.634V222.963H72.3659V208.622C72.3627 207.209 71.7995 205.856 70.7996 204.859C69.7998 203.861 68.445 203.301 67.0326 203.301Z" fill="#365DA0" stroke="white" stroke-width="0.6" stroke-miterlimit="10"/>
<path d="M67.0327 203.301V222.951" stroke="white" stroke-width="0.6" stroke-miterlimit="10"/>
<path d="M61.8059 209.849H72.3541" stroke="white" stroke-width="0.6" stroke-miterlimit="10"/>
<path d="M61.8059 216.403H72.3541" stroke="white" stroke-width="0.6" stroke-miterlimit="10"/>
<path d="M83.1866 203.301C81.7721 203.301 80.4156 203.862 79.4153 204.863C78.4152 205.863 77.8533 207.22 77.8533 208.634V222.963H88.5199V208.622C88.517 207.209 87.9534 205.856 86.9537 204.859C85.954 203.861 84.5987 203.301 83.1866 203.301Z" fill="#365DA0" stroke="white" stroke-width="0.6" stroke-miterlimit="10"/>
<path d="M83.1868 203.301V222.951" stroke="white" stroke-width="0.6" stroke-miterlimit="10"/>
<path d="M77.96 209.849H88.5081" stroke="white" stroke-width="0.6" stroke-miterlimit="10"/>
<path d="M77.96 216.403H88.5081" stroke="white" stroke-width="0.6" stroke-miterlimit="10"/>
<path d="M116.84 203.301C115.425 203.301 114.069 203.862 113.069 204.863C112.068 205.863 111.507 207.22 111.507 208.634V222.963H122.173V208.622C122.17 207.209 121.607 205.856 120.607 204.859C119.607 203.861 118.252 203.301 116.84 203.301Z" fill="#365DA0" stroke="white" stroke-width="0.6" stroke-miterlimit="10"/>
<path d="M116.84 203.301V222.951" stroke="white" stroke-width="0.6" stroke-miterlimit="10"/>
<path d="M111.613 209.849H122.161" stroke="white" stroke-width="0.6" stroke-miterlimit="10"/>
<path d="M111.613 216.403H122.161" stroke="white" stroke-width="0.6" stroke-miterlimit="10"/>
<path d="M132.988 203.301C131.574 203.301 130.217 203.862 129.217 204.863C128.217 205.863 127.655 207.22 127.655 208.634V222.963H138.321V208.622C138.318 207.209 137.755 205.856 136.755 204.859C135.756 203.861 134.4 203.301 132.988 203.301Z" fill="#365DA0" stroke="white" stroke-width="0.6" stroke-miterlimit="10"/>
<path d="M132.988 203.301V222.951" stroke="white" stroke-width="0.6" stroke-miterlimit="10"/>
<path d="M127.761 209.849H138.31" stroke="white" stroke-width="0.6" stroke-miterlimit="10"/>
<path d="M127.761 216.403H138.31" stroke="white" stroke-width="0.6" stroke-miterlimit="10"/>
<path d="M55.2163 196.859H144.81" stroke="white" stroke-width="0.6" stroke-miterlimit="10"/>
<path d="M55.2163 190.969H47.9097V229.393H55.2163V190.969Z" fill="white" stroke="#9DAFCC" stroke-width="0.6" stroke-miterlimit="10"/>
<path d="M152.117 190.969H144.81V229.393H152.117V190.969Z" fill="white" stroke="#9DAFCC" stroke-width="0.6" stroke-miterlimit="10"/>
<path d="M144.81 196.859H152.117" stroke="#9DAFCC" stroke-width="0.6" stroke-miterlimit="10"/>
<path d="M47.9097 196.859H55.2163" stroke="#9DAFCC" stroke-width="0.6" stroke-miterlimit="10"/>
<path d="M44.8103 185.203L35.0681 190.969H164.958L155.216 185.203H44.8103Z" fill="#F25451" stroke="#9DAFCC" stroke-width="0.6" stroke-linejoin="round"/>
<path d="M51.7081 141.719L40.4844 149.529H159.56L148.33 141.719H51.7081Z" fill="#F25451" stroke="#9DAFCC" stroke-width="0.6" stroke-linejoin="round"/>
<path d="M155.222 149.529H44.8164V185.197H155.222V149.529Z" fill="#E4EBF5" stroke="#9DAFCC" stroke-width="0.6" stroke-miterlimit="10"/>
<path d="M100.022 159.881C97.4504 159.881 95.3704 162.252 95.3704 165.215V179.538H104.68V165.203C104.68 162.264 102.588 159.881 100.022 159.881Z" fill="#365DA0" stroke="white" stroke-width="0.6" stroke-miterlimit="10"/>
<path d="M100.022 159.881V179.532" stroke="white" stroke-width="0.6" stroke-miterlimit="10"/>
<path d="M95.4475 166.43H104.674" stroke="white" stroke-width="0.6" stroke-miterlimit="10"/>
<path d="M95.4475 172.984H104.674" stroke="white" stroke-width="0.6" stroke-miterlimit="10"/>
<path d="M85.96 159.881C83.394 159.881 81.3081 162.252 81.3081 165.215V179.538H90.6177V165.203C90.6177 162.264 88.5318 159.881 85.96 159.881Z" fill="#365DA0" stroke="white" stroke-width="0.6" stroke-miterlimit="10"/>
<path d="M85.96 159.881V179.532" stroke="white" stroke-width="0.6" stroke-miterlimit="10"/>
<path d="M81.3911 166.43H90.6178" stroke="white" stroke-width="0.6" stroke-miterlimit="10"/>
<path d="M81.3911 172.984H90.6178" stroke="white" stroke-width="0.6" stroke-miterlimit="10"/>
<path d="M114.079 159.881C111.507 159.881 109.427 162.252 109.427 165.215V179.538H118.73V165.203C118.73 162.264 116.65 159.881 114.079 159.881Z" fill="#365DA0" stroke="white" stroke-width="0.6" stroke-miterlimit="10"/>
<path d="M114.079 159.881V179.532" stroke="white" stroke-width="0.6" stroke-miterlimit="10"/>
<path d="M109.51 166.43H118.73" stroke="white" stroke-width="0.6" stroke-miterlimit="10"/>
<path d="M109.51 172.984H118.73" stroke="white" stroke-width="0.6" stroke-miterlimit="10"/>
<path d="M136.923 159.881C134.351 159.881 132.271 162.252 132.271 165.215V179.538H141.575V165.203C141.575 162.264 139.489 159.881 136.923 159.881Z" fill="#365DA0" stroke="white" stroke-width="0.6" stroke-miterlimit="10"/>
<path d="M136.923 159.881V179.532" stroke="white" stroke-width="0.6" stroke-miterlimit="10"/>
<path d="M132.354 166.43H141.575" stroke="white" stroke-width="0.6" stroke-miterlimit="10"/>
<path d="M132.354 172.984H141.575" stroke="white" stroke-width="0.6" stroke-miterlimit="10"/>
<path d="M63.1216 159.881C60.5497 159.881 58.4697 162.252 58.4697 165.215V179.538H67.7734V165.203C67.7734 162.264 65.6875 159.881 63.1216 159.881Z" fill="#365DA0" stroke="white" stroke-width="0.6" stroke-miterlimit="10"/>
<path d="M63.1216 159.881V179.532" stroke="white" stroke-width="0.6" stroke-miterlimit="10"/>
<path d="M58.5466 166.43H67.7733" stroke="white" stroke-width="0.6" stroke-miterlimit="10"/>
<path d="M58.5466 172.984H67.7733" stroke="white" stroke-width="0.6" stroke-miterlimit="10"/>
<path d="M55.2222 154.27H144.816" stroke="white" stroke-width="0.6" stroke-miterlimit="10"/>
<path d="M55.2222 149.529H47.9155V185.197H55.2222V149.529Z" fill="white" stroke="#9DAFCC" stroke-width="0.6" stroke-miterlimit="10"/>
<path d="M47.9155 154.27H55.2222" stroke="#9DAFCC" stroke-width="0.6" stroke-miterlimit="10"/>
<path d="M152.123 149.529H144.816V185.197H152.123V149.529Z" fill="white" stroke="#9DAFCC" stroke-width="0.6" stroke-miterlimit="10"/>
<path d="M144.816 154.27H152.129" stroke="#9DAFCC" stroke-width="0.6" stroke-miterlimit="10"/>
<path d="M129.024 149.529H121.717V185.197H129.024V149.529Z" fill="white" stroke="#9DAFCC" stroke-width="0.6" stroke-miterlimit="10"/>
<path d="M121.717 154.27H129.024" stroke="#9DAFCC" stroke-width="0.6" stroke-miterlimit="10"/>
<path d="M78.3216 149.529H71.0149V185.197H78.3216V149.529Z" fill="white" stroke="#9DAFCC" stroke-width="0.6" stroke-miterlimit="10"/>
<path d="M71.0149 154.27H78.3216" stroke="#9DAFCC" stroke-width="0.6" stroke-miterlimit="10"/>
<path d="M100.022 132.012L67.7734 149.529H132.271L100.022 132.012Z" fill="white" stroke="#9DAFCC" stroke-width="0.6" stroke-linejoin="round"/>
<path d="M100.022 135.769L80.52 146.364H119.519L100.022 135.769Z" fill="#9DAFCC"/>
<path d="M79.6608 108.978H56.5557V139.597H79.6608V108.978Z" fill="#E4EBF5" stroke="#9DAFCC" stroke-width="0.6" stroke-miterlimit="10"/>
<path d="M64.2593 113.28V139.591" stroke="white" stroke-width="0.6" stroke-miterlimit="10"/>
<path d="M71.9629 113.28V139.591" stroke="white" stroke-width="0.6" stroke-miterlimit="10"/>
<path d="M79.6608 108.978H56.5557V113.286H79.6608V108.978Z" fill="white" stroke="#9DAFCC" stroke-width="0.6" stroke-miterlimit="10"/>
<path d="M79.6608 133.321H56.5557V141.719H79.6608V133.321Z" fill="white" stroke="#9DAFCC" stroke-width="0.6" stroke-miterlimit="10"/>
<path d="M68.1288 117.055C68.6532 117.056 69.1558 117.265 69.5266 117.636C69.8974 118.007 70.1065 118.51 70.1081 119.034V128.942H66.1614V119.034C66.1629 118.511 66.3703 118.011 66.7386 117.64C67.1069 117.27 67.6064 117.06 68.1288 117.055Z" fill="#365DA0" stroke="#9DAFCC" stroke-width="0.6" stroke-miterlimit="10"/>
<path d="M60.4252 117.055C60.9507 117.055 61.4547 117.263 61.8268 117.634C62.1989 118.005 62.4088 118.508 62.4104 119.034V128.942H58.4578V119.034C58.4593 118.511 58.6667 118.011 59.035 117.64C59.4033 117.27 59.9028 117.06 60.4252 117.055Z" fill="#365DA0" stroke="#9DAFCC" stroke-width="0.6" stroke-miterlimit="10"/>
<path d="M75.7852 117.055C76.3107 117.055 76.8147 117.263 77.1868 117.634C77.559 118.005 77.7688 118.508 77.7704 119.034V128.942H73.8059V119.034C73.8074 118.51 74.0165 118.007 74.3874 117.636C74.7582 117.265 75.2607 117.056 75.7852 117.055Z" fill="#365DA0" stroke="#9DAFCC" stroke-width="0.6" stroke-miterlimit="10"/>
<path d="M79.6668 105.772C79.6491 103.402 78.8873 101.097 77.4891 99.1829C76.0909 97.2694 74.1268 95.843 71.8742 95.1052H64.3483C62.0947 95.8412 60.1296 97.267 58.7311 99.1817C57.3326 101.096 56.5715 103.402 56.5557 105.772C56.5557 105.802 56.5557 105.837 56.5557 105.867V108.978H79.6668V105.867C79.6608 105.837 79.6668 105.802 79.6668 105.772Z" fill="#365DA0" stroke="#9DAFCC" stroke-width="0.6" stroke-miterlimit="10"/>
<path d="M71.8327 85.5526H64.3838V95.1111H71.8327V85.5526Z" fill="white" stroke="#9DAFCC" stroke-width="0.6" stroke-miterlimit="10"/>
<path d="M71.8384 81.9674H64.3836L63.4414 85.5526H72.7807L71.8384 81.9674Z" fill="#365DA0" stroke="#9DAFCC" stroke-width="0.6" stroke-linejoin="round"/>
<path d="M68.1111 81.9674H64.603C62.76 81.9674 61.2607 79.8578 61.2607 77.2563C61.2607 74.7793 63.003 73.8608 65.1837 72.2134C66.9259 70.8919 68.1111 65.3571 68.1111 65.3571C68.1111 65.3571 69.5807 70.9393 71.0385 72.2134C73.077 73.9911 74.9615 74.7793 74.9615 77.2563C74.9615 79.8578 73.4622 81.9674 71.6133 81.9674H68.1111Z" fill="#365DA0" stroke="#9DAFCC" stroke-width="0.6" stroke-linejoin="round"/>
<path d="M68.1111 85.5526V95.1111" stroke="#9DAFCC" stroke-width="0.6" stroke-linejoin="round"/>
<path d="M68.1052 65.3571V49.1201" stroke="#9DAFCC" stroke-width="0.6" stroke-linejoin="round"/>
<path d="M63.9807 54.7141H72.0518" stroke="#9DAFCC" stroke-width="0.6" stroke-linejoin="round"/>
<path d="M66.1853 51.5912H70.0312" stroke="#9DAFCC" stroke-width="0.6" stroke-linejoin="round"/>
<path d="M65.8118 58.8443L70.3332 61.3036" stroke="#9DAFCC" stroke-width="0.6" stroke-linejoin="round"/>
<path d="M143.465 108.978H120.36V139.597H143.465V108.978Z" fill="#E4EBF5" stroke="#9DAFCC" stroke-width="0.6" stroke-miterlimit="10"/>
<path d="M128.064 113.28V139.591" stroke="white" stroke-width="0.6" stroke-miterlimit="10"/>
<path d="M135.767 113.28V139.591" stroke="white" stroke-width="0.6" stroke-miterlimit="10"/>
<path d="M143.465 108.978H120.36V113.286H143.465V108.978Z" fill="white" stroke="#9DAFCC" stroke-width="0.6" stroke-miterlimit="10"/>
<path d="M143.465 133.321H120.36V141.719H143.465V133.321Z" fill="white" stroke="#9DAFCC" stroke-width="0.6" stroke-miterlimit="10"/>
<path d="M131.939 117.055C132.464 117.056 132.966 117.265 133.337 117.636C133.708 118.007 133.917 118.51 133.919 119.034V128.942H129.954V119.034C129.956 118.508 130.166 118.005 130.538 117.634C130.91 117.263 131.414 117.055 131.939 117.055Z" fill="#365DA0" stroke="#9DAFCC" stroke-width="0.6" stroke-miterlimit="10"/>
<path d="M124.236 117.055C124.761 117.055 125.265 117.263 125.637 117.634C126.009 118.005 126.219 118.508 126.221 119.034V128.942H122.256V119.034C122.258 118.51 122.467 118.007 122.838 117.636C123.209 117.265 123.711 117.056 124.236 117.055Z" fill="#365DA0" stroke="#9DAFCC" stroke-width="0.6" stroke-miterlimit="10"/>
<path d="M139.59 117.055C140.115 117.055 140.619 117.263 140.991 117.634C141.363 118.005 141.573 118.508 141.575 119.034V128.942H137.61V119.034C137.612 118.51 137.821 118.007 138.192 117.636C138.563 117.265 139.065 117.056 139.59 117.055Z" fill="#365DA0" stroke="#9DAFCC" stroke-width="0.6" stroke-miterlimit="10"/>
<path d="M143.471 105.772C143.453 103.402 142.692 101.097 141.293 99.1829C139.896 97.2694 137.931 95.843 135.679 95.1052H128.153C125.899 95.8412 123.934 97.267 122.536 99.1817C121.137 101.096 120.376 103.402 120.36 105.772C120.36 105.802 120.36 105.837 120.36 105.867V108.978H143.471V105.867C143.465 105.837 143.471 105.802 143.471 105.772Z" fill="#365DA0" stroke="#9DAFCC" stroke-width="0.6" stroke-miterlimit="10"/>
<path d="M135.637 85.5526H128.188V95.1111H135.637V85.5526Z" fill="white" stroke="#9DAFCC" stroke-width="0.6" stroke-miterlimit="10"/>
<path d="M135.643 81.9674H128.188L127.246 85.5526H136.585L135.643 81.9674Z" fill="#365DA0" stroke="#9DAFCC" stroke-width="0.6" stroke-linejoin="round"/>
<path d="M131.939 81.9674H128.384C126.541 81.9674 125.042 79.8578 125.042 77.2563C125.042 74.7793 126.784 73.8608 128.964 72.2134C130.707 70.8919 131.892 65.3571 131.892 65.3571C131.892 65.3571 133.362 70.9393 134.819 72.2134C136.858 73.9911 138.742 74.7793 138.742 77.2563C138.742 79.8578 137.243 81.9674 135.394 81.9674H131.939Z" fill="#365DA0" stroke="#9DAFCC" stroke-width="0.6" stroke-linejoin="round"/>
<path d="M131.916 85.5526V95.1111" stroke="#9DAFCC" stroke-width="0.6" stroke-linejoin="round"/>
<path d="M131.91 65.3571V49.1201" stroke="#9DAFCC" stroke-width="0.6" stroke-linejoin="round"/>
<path d="M127.785 54.7141H135.856" stroke="#9DAFCC" stroke-width="0.6" stroke-linejoin="round"/>
<path d="M129.99 51.5912H133.836" stroke="#9DAFCC" stroke-width="0.6" stroke-linejoin="round"/>
<path d="M129.616 58.8443L134.138 61.3036" stroke="#9DAFCC" stroke-width="0.6" stroke-linejoin="round"/>
<path d="M200.769 60.16H179.412V63.8103H200.769V60.16Z" fill="white" stroke="#9DAFCC" stroke-width="0.6" stroke-miterlimit="10"/>
<path d="M198.523 53.6059C198.567 53.1388 198.567 52.6686 198.523 52.2015C198.282 50.1199 197.274 48.2028 195.697 46.8235C194.119 45.4442 192.084 44.7018 189.99 44.7407C187.837 44.8115 185.796 45.7167 184.299 47.265C182.801 48.8132 181.965 50.8831 181.966 53.037C181.966 53.2266 181.966 53.4163 181.966 53.6C182.071 55.3423 181.49 57.0564 180.348 58.3763L178.837 60.154H201.664L200.152 58.3763C199.007 57.0601 198.422 55.3479 198.523 53.6059Z" fill="#F25451" stroke="#9DAFCC" stroke-width="0.6" stroke-linecap="round" stroke-linejoin="round"/>
<path d="M190.245 41.0844H187.53C186.102 41.0844 184.947 39.4548 184.947 37.44C184.947 35.5259 186.292 34.8148 187.981 33.5407C189.326 32.5214 190.245 28.237 190.245 28.237C190.245 28.237 191.382 32.557 192.508 33.5407C194.085 34.9155 195.542 35.5259 195.542 37.44C195.542 39.4548 194.387 41.0844 192.953 41.0844H190.245Z" fill="#F25451" stroke="#9DAFCC" stroke-width="0.6" stroke-linejoin="round"/>
<path d="M192.686 41.0845H187.803V44.7349H192.686V41.0845Z" fill="#F25451" stroke="#9DAFCC" stroke-width="0.6" stroke-linejoin="round"/>
<path d="M176.058 93.4282V120.225H204.123V93.4282H176.058ZM194.73 114.761H185.421V102.062C185.398 101.437 185.503 100.814 185.726 100.229C185.95 99.645 186.29 99.1123 186.724 98.6619C187.158 98.2116 187.679 97.8536 188.255 97.6089C188.831 97.3648 189.45 97.2385 190.076 97.2385C190.701 97.2385 191.321 97.3648 191.897 97.6089C192.472 97.8536 192.993 98.2116 193.427 98.6619C193.862 99.1123 194.201 99.645 194.425 100.229C194.649 100.814 194.753 101.437 194.73 102.062V114.761Z" fill="#F25451" stroke="#9DAFCC" stroke-width="0.6" stroke-miterlimit="10"/>
<path d="M172.484 125.766V150.062H185.433V133.884C185.476 132.679 185.985 131.537 186.853 130.699C187.721 129.861 188.881 129.393 190.087 129.393C191.294 129.393 192.454 129.861 193.322 130.699C194.19 131.537 194.699 132.679 194.742 133.884V150.062H207.726V125.766H172.484Z" fill="#F25451" stroke="#9DAFCC" stroke-width="0.6" stroke-miterlimit="10"/>
<path d="M226.132 184.729H154.043V190.382H226.132V184.729Z" fill="white" stroke="#9DAFCC" stroke-width="0.6" stroke-miterlimit="10"/>
<path d="M154.043 190.376V243.964H180.668V224.841C180.637 223.585 180.857 222.334 181.316 221.164C181.775 219.993 182.464 218.927 183.342 218.027C184.22 217.127 185.268 216.411 186.427 215.923C187.585 215.435 188.83 215.183 190.087 215.183C191.345 215.183 192.589 215.435 193.748 215.923C194.906 216.411 195.955 217.127 196.833 218.027C197.711 218.927 198.4 219.993 198.859 221.164C199.318 222.334 199.538 223.585 199.507 224.841V243.964H226.161V190.376H154.043Z" fill="#F25451" stroke="#9DAFCC" stroke-width="0.6" stroke-miterlimit="10"/>
<path d="M219.987 206.412C219.24 206.412 218.523 206.708 217.994 207.236C217.465 207.764 217.168 208.479 217.166 209.227V214.501H222.808V209.227C222.806 208.479 222.508 207.764 221.979 207.236C221.45 206.708 220.734 206.412 219.987 206.412Z" fill="#365DA0" stroke="#9DAFCC" stroke-width="0.6" stroke-miterlimit="10"/>
<path d="M160.194 206.412C159.448 206.412 158.732 206.708 158.204 207.236C157.676 207.764 157.379 208.48 157.379 209.227V214.501H163.015V209.227C163.013 208.479 162.716 207.764 162.186 207.236C161.658 206.708 160.941 206.412 160.194 206.412Z" fill="#365DA0" stroke="#9DAFCC" stroke-width="0.6" stroke-miterlimit="10"/>
<path d="M154.043 199.834H226.132" stroke="white" stroke-width="0.6" stroke-miterlimit="10"/>
<path d="M176.378 211.597H203.933" stroke="white" stroke-width="0.6" stroke-miterlimit="10"/>
<path d="M213.77 190.376V222.092" stroke="white" stroke-width="0.6" stroke-miterlimit="10"/>
<path d="M166.41 190.376V222.092" stroke="white" stroke-width="0.6" stroke-miterlimit="10"/>
<path d="M176.384 199.834H170.997V237.576H176.384V199.834Z" fill="white" stroke="#9DAFCC" stroke-width="0.6" stroke-miterlimit="10"/>
<path d="M209.32 199.834H203.933V237.576H209.32V199.834Z" fill="white" stroke="#9DAFCC" stroke-width="0.6" stroke-miterlimit="10"/>
<path d="M190.09 190.376L166.41 199.834H213.77L190.09 190.376Z" stroke="#9DAFCC" stroke-width="0.6" stroke-linejoin="round"/>
<path d="M154.043 190.376V243.964H180.668V224.841C180.637 223.585 180.857 222.334 181.316 221.164C181.775 219.993 182.464 218.927 183.342 218.027C184.22 217.127 185.268 216.411 186.427 215.923C187.585 215.435 188.83 215.183 190.087 215.183C191.345 215.183 192.589 215.435 193.748 215.923C194.906 216.411 195.955 217.127 196.833 218.027C197.711 218.927 198.4 219.993 198.859 221.164C199.318 222.334 199.538 223.585 199.507 224.841V243.964H226.161V190.376H154.043Z" stroke="#9DAFCC" stroke-width="0.6" stroke-miterlimit="10"/>
<path d="M231.27 237.576H199.507V243.964H231.27V237.576Z" fill="#365DA0" stroke="#9DAFCC" stroke-width="0.6" stroke-miterlimit="10"/>
<path d="M148.911 243.964H180.674V237.576H148.911V243.964Z" fill="#365DA0" stroke="#9DAFCC" stroke-width="0.6" stroke-miterlimit="10"/>
<path d="M231.27 222.092H213.77V237.576H231.27V222.092Z" fill="white" stroke="#9DAFCC" stroke-width="0.6" stroke-miterlimit="10"/>
<path d="M219.987 225.636C219.239 225.636 218.521 225.932 217.992 226.462C217.464 226.991 217.166 227.708 217.166 228.456V233.719H222.808V228.456C222.808 227.708 222.511 226.991 221.981 226.462C221.452 225.932 220.735 225.636 219.987 225.636Z" fill="#365DA0" stroke="#9DAFCC" stroke-width="0.6" stroke-miterlimit="10"/>
<path d="M148.911 237.576H166.41V222.092H148.911V237.576Z" fill="white" stroke="#9DAFCC" stroke-width="0.6" stroke-miterlimit="10"/>
<path d="M160.194 225.636C160.942 225.636 161.66 225.932 162.189 226.462C162.718 226.991 163.015 227.708 163.015 228.456V233.719H157.379V228.456C157.379 227.709 157.676 226.993 158.204 226.463C158.731 225.935 159.447 225.637 160.194 225.636Z" fill="#365DA0" stroke="#9DAFCC" stroke-width="0.6" stroke-miterlimit="10"/>
<path d="M183.246 203.194V207.556" stroke="#365DA0" stroke-width="0.6" stroke-miterlimit="10"/>
<path d="M190.09 203.194V207.556" stroke="#365DA0" stroke-width="0.6" stroke-miterlimit="10"/>
<path d="M196.935 203.194V207.556" stroke="#365DA0" stroke-width="0.6" stroke-miterlimit="10"/>
<path d="M166.41 184.729V190.376" stroke="#9DAFCC" stroke-width="0.6" stroke-miterlimit="10"/>
<path d="M170.357 184.729V190.376" stroke="#9DAFCC" stroke-width="0.6" stroke-miterlimit="10"/>
<path d="M174.298 184.729V190.376" stroke="#9DAFCC" stroke-width="0.6" stroke-miterlimit="10"/>
<path d="M178.244 184.729V190.376" stroke="#9DAFCC" stroke-width="0.6" stroke-miterlimit="10"/>
<path d="M182.191 184.729V190.376" stroke="#9DAFCC" stroke-width="0.6" stroke-miterlimit="10"/>
<path d="M186.132 184.729V190.376" stroke="#9DAFCC" stroke-width="0.6" stroke-miterlimit="10"/>
<path d="M190.079 184.729V190.376" stroke="#9DAFCC" stroke-width="0.6" stroke-miterlimit="10"/>
<path d="M194.019 184.729V190.376" stroke="#9DAFCC" stroke-width="0.6" stroke-miterlimit="10"/>
<path d="M197.966 184.729V190.376" stroke="#9DAFCC" stroke-width="0.6" stroke-miterlimit="10"/>
<path d="M201.907 184.729V190.376" stroke="#9DAFCC" stroke-width="0.6" stroke-miterlimit="10"/>
<path d="M205.853 184.729V190.376" stroke="#9DAFCC" stroke-width="0.6" stroke-miterlimit="10"/>
<path d="M209.8 184.729V190.376" stroke="#9DAFCC" stroke-width="0.6" stroke-miterlimit="10"/>
<path d="M213.741 184.729V190.376" stroke="#9DAFCC" stroke-width="0.6" stroke-miterlimit="10"/>
<path d="M181.19 150.038V120.231H176.058V150.038H181.19Z" fill="white" stroke="#9DAFCC" stroke-width="0.6" stroke-miterlimit="10"/>
<path d="M204.153 150.033V120.225H199.021V150.033H204.153Z" fill="white" stroke="#9DAFCC" stroke-width="0.6" stroke-miterlimit="10"/>
<path d="M181.178 120.231V83.7808H176.046V120.231H181.178Z" fill="white" stroke="#9DAFCC" stroke-width="0.6" stroke-miterlimit="10"/>
<path d="M204.141 120.231V83.7808H199.009V120.231H204.141Z" fill="white" stroke="#9DAFCC" stroke-width="0.6" stroke-miterlimit="10"/>
<path d="M207.726 120.225H172.484V125.766H207.726V120.225Z" fill="white" stroke="#9DAFCC" stroke-width="0.6" stroke-miterlimit="10"/>
<path d="M209.569 144.498H170.612V150.039H209.569V144.498Z" fill="white" stroke="#9DAFCC" stroke-width="0.6" stroke-miterlimit="10"/>
<path d="M170.612 150.039V184.729H185.427V167.443C185.427 166.207 185.917 165.023 186.791 164.149C187.664 163.276 188.849 162.785 190.084 162.785C191.32 162.785 192.505 163.276 193.378 164.149C194.252 165.023 194.742 166.207 194.742 167.443V184.729H209.557V150.039H170.612Z" fill="#F25451" stroke="#9DAFCC" stroke-width="0.6" stroke-miterlimit="10"/>
<path d="M211.524 150.039H168.662V156.575H211.524V150.039Z" fill="white" stroke="#9DAFCC" stroke-width="0.6" stroke-miterlimit="10"/>
<path d="M181.172 184.723V156.569H176.04V184.723H181.172Z" fill="white" stroke="#9DAFCC" stroke-width="0.6" stroke-miterlimit="10"/>
<path d="M204.141 184.723V156.569H199.009V184.723H204.141Z" fill="white" stroke="#9DAFCC" stroke-width="0.6" stroke-miterlimit="10"/>
<path d="M190.126 142.767L171.921 150.039H208.33L190.126 142.767Z" fill="#F25451" stroke="#9DAFCC" stroke-width="0.6" stroke-linejoin="round"/>
<path d="M173.723 156.569V150.039" stroke="#9DAFCC" stroke-width="0.6" stroke-miterlimit="10"/>
<path d="M206.659 156.569V150.039" stroke="#9DAFCC" stroke-width="0.6" stroke-miterlimit="10"/>
<path d="M202.535 63.8105H199.009V83.7807H202.535V63.8105Z" fill="white" stroke="#9DAFCC" stroke-width="0.6" stroke-miterlimit="10"/>
<path d="M181.172 63.8105H177.646V83.7807H181.172V63.8105Z" fill="white" stroke="#9DAFCC" stroke-width="0.6" stroke-miterlimit="10"/>
<path d="M181.172 63.8105V87.8933H199.009V63.8105H181.172ZM194.73 84.5511H185.421V71.8163C185.398 71.1912 185.503 70.5678 185.726 69.9836C185.95 69.3993 186.289 68.8662 186.724 68.416C187.158 67.9657 187.679 67.6077 188.255 67.3631C188.831 67.1186 189.45 66.9925 190.076 66.9925C190.701 66.9925 191.321 67.1186 191.897 67.3631C192.472 67.6077 192.993 67.9657 193.427 68.416C193.862 68.8662 194.201 69.3993 194.425 69.9836C194.649 70.5678 194.753 71.1912 194.73 71.8163V84.5511Z" fill="#F25451" stroke="#9DAFCC" stroke-width="0.6" stroke-miterlimit="10"/>
<path d="M205.326 87.8933H174.79V93.434H205.326V87.8933Z" fill="white" stroke="#9DAFCC" stroke-width="0.6" stroke-miterlimit="10"/>
<path d="M190.055 91.4489C192.886 91.4489 195.181 89.1538 195.181 86.3229C195.181 83.4921 192.886 81.197 190.055 81.197C187.224 81.197 184.929 83.4921 184.929 86.3229C184.929 89.1538 187.224 91.4489 190.055 91.4489Z" fill="#365DA0" stroke="#9DAFCC" stroke-width="0.6" stroke-miterlimit="10"/>
<path d="M176.058 120.225V125.766" stroke="#9DAFCC" stroke-width="0.6" stroke-miterlimit="10"/>
<path d="M181.19 120.225V125.766" stroke="#9DAFCC" stroke-width="0.6" stroke-miterlimit="10"/>
<path d="M199.009 120.225V125.766" stroke="#9DAFCC" stroke-width="0.6" stroke-miterlimit="10"/>
<path d="M204.123 120.225V125.766" stroke="#9DAFCC" stroke-width="0.6" stroke-miterlimit="10"/>
<path d="M181.19 87.8933V93.4281" stroke="#9DAFCC" stroke-width="0.6" stroke-miterlimit="10"/>
<path d="M199.009 87.8933V93.4281" stroke="#9DAFCC" stroke-width="0.6" stroke-miterlimit="10"/>
<path d="M185.421 110.323H195.181" stroke="#9DAFCC" stroke-width="0.6" stroke-linejoin="round"/>
<path d="M185.421 169.659H195.181" stroke="#9DAFCC" stroke-width="0.6" stroke-linejoin="round"/>
<path d="M196.141 58.9037C196.141 56.1897 193.498 53.9971 190.244 53.9971C186.991 53.9971 184.348 56.1897 184.348 58.9037V63.7926H190.067C190.126 63.7926 190.179 63.7926 190.244 63.7926H190.422H196.141V58.9037Z" fill="white" stroke="#9DAFCC" stroke-width="0.6" stroke-miterlimit="10"/>
<path d="M190.244 60.1601C190.964 60.1601 191.548 59.5764 191.548 58.8564C191.548 58.1364 190.964 57.5527 190.244 57.5527C189.524 57.5527 188.941 58.1364 188.941 58.8564C188.941 59.5764 189.524 60.1601 190.244 60.1601Z" fill="white" stroke="#9DAFCC" stroke-width="0.6" stroke-miterlimit="10"/>
<path d="M190.239 28.237V12" stroke="#9DAFCC" stroke-width="0.6" stroke-linejoin="round"/>
<path d="M186.114 17.5941H194.185" stroke="#9DAFCC" stroke-width="0.6" stroke-linejoin="round"/>
<path d="M188.319 14.4711H192.165" stroke="#9DAFCC" stroke-width="0.6" stroke-linejoin="round"/>
<path d="M187.945 21.7246L192.467 24.1839" stroke="#9DAFCC" stroke-width="0.6" stroke-linejoin="round"/>
<path d="M156.55 178.999C156.519 179.617 156.252 180.199 155.804 180.626C155.355 181.053 154.76 181.291 154.141 181.291C153.522 181.291 152.927 181.053 152.478 180.626C152.03 180.199 151.763 179.617 151.732 178.999C151.732 177.671 154.138 175.277 154.138 175.277C154.138 175.277 156.55 177.671 156.55 178.999Z" fill="white" stroke="#9DAFCC" stroke-width="0.6" stroke-linejoin="round"/>
<path d="M166.233 178.999C166.233 179.637 165.979 180.248 165.528 180.7C165.076 181.151 164.465 181.404 163.827 181.404C163.188 181.404 162.577 181.151 162.125 180.7C161.674 180.248 161.421 179.637 161.421 178.999C161.421 177.671 163.827 175.277 163.827 175.277C163.827 175.277 166.233 177.671 166.233 178.999Z" fill="white" stroke="#9DAFCC" stroke-width="0.6" stroke-linejoin="round"/>
<path d="M218.76 178.999C218.76 179.637 218.506 180.248 218.056 180.7C217.604 181.151 216.992 181.404 216.354 181.404C215.716 181.404 215.104 181.151 214.653 180.7C214.202 180.248 213.948 179.637 213.948 178.999C213.948 177.671 216.354 175.277 216.354 175.277C216.354 175.277 218.76 177.671 218.76 178.999Z" fill="white" stroke="#9DAFCC" stroke-width="0.6" stroke-linejoin="round"/>
<path d="M228.449 178.999C228.449 179.637 228.195 180.248 227.744 180.7C227.293 181.151 226.681 181.404 226.043 181.404C225.405 181.404 224.793 181.151 224.342 180.7C223.891 180.248 223.637 179.637 223.637 178.999C223.637 177.671 226.043 175.277 226.043 175.277C226.043 175.277 228.449 177.671 228.449 178.999Z" fill="white" stroke="#9DAFCC" stroke-width="0.6" stroke-linejoin="round"/>
</g>
</g>
<defs>
<filter id="filter0_dd_202_706" x="-11.9112" y="0.0888281" width="296.822" height="263.822" filterUnits="userSpaceOnUse" color-interpolation-filters="sRGB">
<feFlood flood-opacity="0" result="BackgroundImageFix"/>
<feColorMatrix in="SourceAlpha" type="matrix" values="0 0 0 0 0 0 0 0 0 0 0 0 0 0 0 0 0 0 127 0" result="hardAlpha"/>
<feOffset/>
<feGaussianBlur stdDeviation="5.95559"/>
<feComposite in2="hardAlpha" operator="out"/>
<feColorMatrix type="matrix" values="0 0 0 0 0.568627 0 0 0 0 0.741176 0 0 0 0 0.866667 0 0 0 1 0"/>
<feBlend mode="normal" in2="BackgroundImageFix" result="effect1_dropShadow_202_706"/>
<feColorMatrix in="SourceAlpha" type="matrix" values="0 0 0 0 0 0 0 0 0 0 0 0 0 0 0 0 0 0 127 0" result="hardAlpha"/>
<feOffset dy="2.38223"/>
<feGaussianBlur stdDeviation="2.97779"/>
<feComposite in2="hardAlpha" operator="out"/>
<feColorMatrix type="matrix" values="0 0 0 0 0 0 0 0 0 0 0 0 0 0 0 0 0 0 0.1 0"/>
<feBlend mode="normal" in2="effect1_dropShadow_202_706" result="effect2_dropShadow_202_706"/>
<feBlend mode="normal" in="SourceGraphic" in2="effect2_dropShadow_202_706" result="shape"/>
</filter>
<filter id="filter1_dd_202_706" x="22.8569" y="0.0888281" width="220.624" height="256.087" filterUnits="userSpaceOnUse" color-interpolation-filters="sRGB">
<feFlood flood-opacity="0" result="BackgroundImageFix"/>
<feColorMatrix in="SourceAlpha" type="matrix" values="0 0 0 0 0 0 0 0 0 0 0 0 0 0 0 0 0 0 127 0" result="hardAlpha"/>
<feOffset/>
<feGaussianBlur stdDeviation="5.95559"/>
<feComposite in2="hardAlpha" operator="out"/>
<feColorMatrix type="matrix" values="0 0 0 0 0.568627 0 0 0 0 0.741176 0 0 0 0 0.866667 0 0 0 1 0"/>
<feBlend mode="normal" in2="BackgroundImageFix" result="effect1_dropShadow_202_706"/>
<feColorMatrix in="SourceAlpha" type="matrix" values="0 0 0 0 0 0 0 0 0 0 0 0 0 0 0 0 0 0 127 0" result="hardAlpha"/>
<feOffset dy="2.38223"/>
<feGaussianBlur stdDeviation="2.97779"/>
<feComposite in2="hardAlpha" operator="out"/>
<feColorMatrix type="matrix" values="0 0 0 0 0 0 0 0 0 0 0 0 0 0 0 0 0 0 0.1 0"/>
<feBlend mode="normal" in2="effect1_dropShadow_202_706" result="effect2_dropShadow_202_706"/>
<feBlend mode="normal" in="SourceGraphic" in2="effect2_dropShadow_202_706" result="shape"/>
</filter>
</defs>
</svg>
