<svg width="273" height="240" viewBox="0 0 273 240" fill="none" xmlns="http://www.w3.org/2000/svg">
<g filter="url(#filter0_dd_202_2104)">
<g filter="url(#filter1_dd_202_2104)">
<path d="M242.857 93.04H31.1357V172.109H242.857V93.04Z" fill="#9DAFCC" stroke="#9DAFCC" stroke-width="0.6" stroke-miterlimit="10"/>
<path d="M223.66 93.04H50.3483V172.109H223.66V93.04Z" fill="#E4EBF5" stroke="#9DAFCC" stroke-width="0.6" stroke-miterlimit="10"/>
<path d="M247.969 80.4303L137 53.6978L26.0303 80.4303H247.969Z" fill="#E4EBF5" stroke="#9DAFCC" stroke-width="0.6" stroke-linejoin="round"/>
<path d="M247.969 80.4302H26.0303V93.0476H247.969V80.4302Z" fill="white" stroke="#9DAFCC" stroke-width="0.6" stroke-linejoin="round"/>
<path d="M247.969 86.7345H26.0303" stroke="#9DAFCC" stroke-width="0.6" stroke-linejoin="round"/>
<path d="M249.499 74.1011L137 47V47.0078V47L24.5016 74.1011L26.0307 80.4294L137 53.6969L247.969 80.4294L249.499 74.1011Z" fill="white" stroke="#9DAFCC" stroke-width="0.6" stroke-linejoin="round"/>
<path d="M245.358 93.04H232.678V98.3881H245.358V93.04Z" fill="white" stroke="#9DAFCC" stroke-width="0.6" stroke-linejoin="round"/>
<path d="M242.864 98.3881H235.171V172.117H242.864V98.3881Z" fill="white" stroke="#9DAFCC" stroke-width="0.6" stroke-linejoin="round"/>
<path d="M235.171 102.521H242.864" stroke="#9DAFCC" stroke-width="0.6" stroke-linejoin="round"/>
<path d="M216.21 93.04H203.53V98.3881H216.21V93.04Z" fill="white" stroke="#9DAFCC" stroke-width="0.6" stroke-linejoin="round"/>
<path d="M213.716 98.3881H206.023V172.117H213.716V98.3881Z" fill="white" stroke="#9DAFCC" stroke-width="0.6" stroke-linejoin="round"/>
<path d="M206.023 102.521H213.716" stroke="#9DAFCC" stroke-width="0.6" stroke-linejoin="round"/>
<path d="M187.062 93.04H174.381V98.3881H187.062V93.04Z" fill="white" stroke="#9DAFCC" stroke-width="0.6" stroke-linejoin="round"/>
<path d="M184.568 98.3881H176.875V172.117H184.568V98.3881Z" fill="white" stroke="#9DAFCC" stroke-width="0.6" stroke-linejoin="round"/>
<path d="M176.875 102.521H184.568" stroke="#9DAFCC" stroke-width="0.6" stroke-linejoin="round"/>
<path d="M157.914 93.04H145.234V98.3881H157.914V93.04Z" fill="white" stroke="#9DAFCC" stroke-width="0.6" stroke-linejoin="round"/>
<path d="M155.42 98.3881H147.727V172.117H155.42V98.3881Z" fill="white" stroke="#9DAFCC" stroke-width="0.6" stroke-linejoin="round"/>
<path d="M147.727 102.521H155.42" stroke="#9DAFCC" stroke-width="0.6" stroke-linejoin="round"/>
<path d="M128.766 93.04H116.086V98.3881H128.766V93.04Z" fill="white" stroke="#9DAFCC" stroke-width="0.6" stroke-linejoin="round"/>
<path d="M126.273 98.3881H118.58V172.117H126.273V98.3881Z" fill="white" stroke="#9DAFCC" stroke-width="0.6" stroke-linejoin="round"/>
<path d="M118.58 102.521H126.273" stroke="#9DAFCC" stroke-width="0.6" stroke-linejoin="round"/>
<path d="M99.6182 93.04H86.938V98.3881H99.6182V93.04Z" fill="white" stroke="#9DAFCC" stroke-width="0.6" stroke-linejoin="round"/>
<path d="M97.1242 98.3881H89.4314V172.117H97.1242V98.3881Z" fill="white" stroke="#9DAFCC" stroke-width="0.6" stroke-linejoin="round"/>
<path d="M89.4314 102.521H97.1242" stroke="#9DAFCC" stroke-width="0.6" stroke-linejoin="round"/>
<path d="M70.4702 93.04H57.79V98.3881H70.4702V93.04Z" fill="white" stroke="#9DAFCC" stroke-width="0.6" stroke-linejoin="round"/>
<path d="M67.9764 98.3881H60.2836V172.117H67.9764V98.3881Z" fill="white" stroke="#9DAFCC" stroke-width="0.6" stroke-linejoin="round"/>
<path d="M60.2836 102.521H67.9842" stroke="#9DAFCC" stroke-width="0.6" stroke-linejoin="round"/>
<path d="M41.3219 93.04H28.6417V98.3881H41.3219V93.04Z" fill="white" stroke="#9DAFCC" stroke-width="0.6" stroke-linejoin="round"/>
<path d="M38.8285 98.3881H31.1357V172.117H38.8285V98.3881Z" fill="white" stroke="#9DAFCC" stroke-width="0.6" stroke-linejoin="round"/>
<path d="M31.1357 102.521H38.8363" stroke="#9DAFCC" stroke-width="0.6" stroke-linejoin="round"/>
<path d="M245.358 172.117H28.6417V178.963H245.358V172.117Z" fill="#E4EBF5" stroke="#9DAFCC" stroke-width="0.6" stroke-linejoin="round"/>
<path d="M166.712 75.5927H171.974C173.056 75.9534 175.487 73.8832 173.127 72.3933C171.088 71.115 170.868 69.5859 171.558 68.4096C172.248 67.2334 177.212 67.1549 180.671 70.5112C184.129 73.8675 184.764 73.5146 187.909 74.0322C191.053 74.5498 194.402 74.2439 198.181 74.3459C201.961 74.4478 205.396 75.2398 207.591 75.1771C209.544 75.1144 218.703 77.9296 219.221 80.4311H167.873L166.712 75.5927Z" fill="#E4EBF5" stroke="#9DAFCC" stroke-width="0.6" stroke-linejoin="round"/>
<path d="M107.295 75.5927H102.002C100.928 75.9534 98.4888 73.8832 100.849 72.3933C102.896 71.115 103.115 69.5859 102.418 68.4096C101.72 67.2334 96.7557 67.1549 93.2975 70.5112C89.8393 73.8675 89.2119 73.5146 86.0673 74.0322C82.9228 74.5498 79.5665 74.2439 75.7946 74.3459C72.0227 74.4478 68.5723 75.2398 66.3844 75.1771C64.424 75.1144 55.2726 77.9296 54.7472 80.4311H106.166L107.295 75.5927Z" fill="#E4EBF5" stroke="#9DAFCC" stroke-width="0.6" stroke-linejoin="round"/>
<path d="M165.724 74.3451H108.393V80.4303H165.724V74.3451Z" fill="#E4EBF5" stroke="#9DAFCC" stroke-width="0.6" stroke-linejoin="round"/>
<path d="M149.923 74.3455C149.923 74.3455 150.833 66.1351 152.127 65.4137C153.421 64.6922 153.876 65.4137 153.876 65.4137C153.876 65.4137 153.813 61.7751 156.228 62.3789C158.644 62.9827 157.797 65.4137 157.271 66.0802C158.173 66.8017 157.914 67.2879 161.867 67.4447C165.819 67.6015 165.364 67.9387 165.105 68.519C164.846 69.0993 163.294 71.593 163.294 71.8988C163.294 72.2047 169.512 76.6039 167.693 80.4307C166.078 80.4307 159.443 74.2043 159.443 74.2043L149.923 74.3455Z" fill="#E4EBF5" stroke="#9DAFCC" stroke-width="0.6" stroke-linejoin="round"/>
<path d="M144.795 74.3441L148.08 61.4287L137.008 58.7625L125.935 61.4287L129.229 74.3441H144.795Z" fill="#E4EBF5" stroke="#9DAFCC" stroke-width="0.6" stroke-linejoin="round"/>
<path d="M137.007 70.0171C138.922 70.0171 140.473 68.4652 140.473 66.551C140.473 64.6369 138.922 63.085 137.007 63.085C135.093 63.085 133.541 64.6369 133.541 66.551C133.541 68.4652 135.093 70.0171 137.007 70.0171Z" fill="#E4EBF5" stroke="#9DAFCC" stroke-width="0.6" stroke-linejoin="round"/>
<path d="M124.092 74.3455C124.092 74.3455 123.191 66.1351 121.889 65.4137C120.587 64.6922 120.14 65.4137 120.14 65.4137C120.14 65.4137 120.211 61.7751 117.788 62.3789C115.364 62.9827 116.219 65.4137 116.752 66.0802C115.843 66.8017 116.102 67.2879 112.149 67.4447C108.197 67.6015 108.652 67.9387 108.911 68.519C109.169 69.0993 110.73 71.593 110.73 71.8988C110.73 72.2047 104.511 76.6039 106.323 80.4307C107.946 80.4307 114.58 74.2043 114.58 74.2043L124.092 74.3455Z" fill="#E4EBF5" stroke="#9DAFCC" stroke-width="0.6" stroke-linejoin="round"/>
<path d="M129.229 74.3441L125.935 61.4287L137.008 58.7625L148.08 61.4287L144.795 74.3441H129.229Z" fill="#E4EBF5" stroke="#9DAFCC" stroke-width="0.6" stroke-linejoin="round"/>
<path d="M137.007 70.0171C138.922 70.0171 140.473 68.4652 140.473 66.551C140.473 64.6369 138.922 63.085 137.007 63.085C135.093 63.085 133.541 64.6369 133.541 66.551C133.541 68.4652 135.093 70.0171 137.007 70.0171Z" fill="#E4EBF5" stroke="#9DAFCC" stroke-width="0.6" stroke-linejoin="round"/>
<path d="M140.121 74.3451C142.246 75.7958 144.826 80.4303 149.531 80.4303L140.121 74.3451Z" fill="#E4EBF5"/>
<path d="M140.121 74.3451C142.246 75.7958 144.826 80.4303 149.531 80.4303" stroke="#9DAFCC" stroke-width="0.6" stroke-linejoin="round"/>
<path d="M133.894 74.3451C131.777 75.7958 129.189 80.4303 124.484 80.4303L133.894 74.3451Z" fill="#E4EBF5"/>
<path d="M133.894 74.3451C131.777 75.7958 129.189 80.4303 124.484 80.4303" stroke="#9DAFCC" stroke-width="0.6" stroke-linejoin="round"/>
<path d="M245.358 172.117H232.678V178.963H245.358V172.117Z" fill="#F25451" stroke="#9DAFCC" stroke-width="0.6" stroke-linejoin="round"/>
<path d="M216.21 172.117H203.53V178.963H216.21V172.117Z" fill="#F25451" stroke="#9DAFCC" stroke-width="0.6" stroke-linejoin="round"/>
<path d="M187.062 172.117H174.381V178.963H187.062V172.117Z" fill="#F25451" stroke="#9DAFCC" stroke-width="0.6" stroke-linejoin="round"/>
<path d="M157.914 172.117H145.234V178.963H157.914V172.117Z" fill="#F25451" stroke="#9DAFCC" stroke-width="0.6" stroke-linejoin="round"/>
<path d="M128.766 172.117H116.086V178.963H128.766V172.117Z" fill="#F25451" stroke="#9DAFCC" stroke-width="0.6" stroke-linejoin="round"/>
<path d="M99.6182 172.117H86.938V178.963H99.6182V172.117Z" fill="#F25451" stroke="#9DAFCC" stroke-width="0.6" stroke-linejoin="round"/>
<path d="M70.4702 172.117H57.79V178.963H70.4702V172.117Z" fill="#F25451" stroke="#9DAFCC" stroke-width="0.6" stroke-linejoin="round"/>
<path d="M41.3219 172.117H28.6417V178.963H41.3219V172.117Z" fill="#F25451" stroke="#9DAFCC" stroke-width="0.6" stroke-linejoin="round"/>
<path d="M252 178.963H22V193.838H252V178.963Z" fill="#365DA0" stroke="#9DAFCC" stroke-width="0.6" stroke-linejoin="round"/>
<path d="M187.062 178.963H86.938V193.838H187.062V178.963Z" fill="#E4EBF5" stroke="#9DAFCC" stroke-width="0.6" stroke-linejoin="round"/>
<path d="M86.938 183.919H187.062" stroke="#9DAFCC" stroke-width="0.6" stroke-linejoin="round"/>
<path d="M86.938 188.883H187.062" stroke="#9DAFCC" stroke-width="0.6" stroke-linejoin="round"/>
<path d="M112.933 110.096H102.551V126.563H112.933V110.096Z" fill="#365DA0" stroke="#9DAFCC" stroke-width="0.6" stroke-miterlimit="10"/>
<path d="M112.933 134.68H102.551V160.44H112.933V134.68Z" fill="#365DA0" stroke="#9DAFCC" stroke-width="0.6" stroke-miterlimit="10"/>
<path d="M147.727 134.68H126.272V160.44H147.727V134.68Z" fill="#365DA0" stroke="#9DAFCC" stroke-width="0.6" stroke-miterlimit="10"/>
<path d="M147.727 110.096H126.272V126.563H147.727V110.096Z" fill="#365DA0" stroke="#9DAFCC" stroke-width="0.6" stroke-miterlimit="10"/>
<path d="M142.191 151.376H131.808V172.494H142.191V151.376Z" fill="#F25451" stroke="#9DAFCC" stroke-width="0.6" stroke-miterlimit="10"/>
<path d="M171.449 110.096H161.066V126.563H171.449V110.096Z" fill="#365DA0" stroke="#9DAFCC" stroke-width="0.6" stroke-miterlimit="10"/>
<path d="M198.746 110.096H191.838V119.506H198.746V110.096Z" fill="#365DA0" stroke="#9DAFCC" stroke-width="0.6" stroke-miterlimit="10"/>
<path d="M198.746 126.03H191.838V135.441H198.746V126.03Z" fill="#365DA0" stroke="#9DAFCC" stroke-width="0.6" stroke-miterlimit="10"/>
<path d="M198.746 141.956H191.838V151.366H198.746V141.956Z" fill="#365DA0" stroke="#9DAFCC" stroke-width="0.6" stroke-miterlimit="10"/>
<path d="M171.449 134.68H161.066V160.44H171.449V134.68Z" fill="#365DA0" stroke="#9DAFCC" stroke-width="0.6" stroke-miterlimit="10"/>
<path d="M82.1624 110.096H75.2538V119.506H82.1624V110.096Z" fill="#365DA0" stroke="#9DAFCC" stroke-width="0.6" stroke-miterlimit="10"/>
<path d="M82.1624 126.03H75.2538V135.441H82.1624V126.03Z" fill="#365DA0" stroke="#9DAFCC" stroke-width="0.6" stroke-miterlimit="10"/>
<path d="M82.1624 141.956H75.2538V151.366H82.1624V141.956Z" fill="#365DA0" stroke="#9DAFCC" stroke-width="0.6" stroke-miterlimit="10"/>
<path d="M191.869 193.838H203.012" stroke="#9DAFCC" stroke-width="0.6" stroke-linecap="round" stroke-linejoin="round"/>
</g>
</g>
<defs>
<filter id="filter0_dd_202_2104" x="-11.9112" y="-11.9112" width="296.822" height="263.822" filterUnits="userSpaceOnUse" color-interpolation-filters="sRGB">
<feFlood flood-opacity="0" result="BackgroundImageFix"/>
<feColorMatrix in="SourceAlpha" type="matrix" values="0 0 0 0 0 0 0 0 0 0 0 0 0 0 0 0 0 0 127 0" result="hardAlpha"/>
<feOffset/>
<feGaussianBlur stdDeviation="5.95559"/>
<feComposite in2="hardAlpha" operator="out"/>
<feColorMatrix type="matrix" values="0 0 0 0 0.568627 0 0 0 0 0.741176 0 0 0 0 0.866667 0 0 0 1 0"/>
<feBlend mode="normal" in2="BackgroundImageFix" result="effect1_dropShadow_202_2104"/>
<feColorMatrix in="SourceAlpha" type="matrix" values="0 0 0 0 0 0 0 0 0 0 0 0 0 0 0 0 0 0 127 0" result="hardAlpha"/>
<feOffset dy="2.38223"/>
<feGaussianBlur stdDeviation="2.97779"/>
<feComposite in2="hardAlpha" operator="out"/>
<feColorMatrix type="matrix" values="0 0 0 0 0 0 0 0 0 0 0 0 0 0 0 0 0 0 0.1 0"/>
<feBlend mode="normal" in2="effect1_dropShadow_202_2104" result="effect2_dropShadow_202_2104"/>
<feBlend mode="normal" in="SourceGraphic" in2="effect2_dropShadow_202_2104" result="shape"/>
</filter>
<filter id="filter1_dd_202_2104" x="9.78884" y="34.7888" width="254.422" height="171.261" filterUnits="userSpaceOnUse" color-interpolation-filters="sRGB">
<feFlood flood-opacity="0" result="BackgroundImageFix"/>
<feColorMatrix in="SourceAlpha" type="matrix" values="0 0 0 0 0 0 0 0 0 0 0 0 0 0 0 0 0 0 127 0" result="hardAlpha"/>
<feOffset/>
<feGaussianBlur stdDeviation="5.95559"/>
<feComposite in2="hardAlpha" operator="out"/>
<feColorMatrix type="matrix" values="0 0 0 0 0.568627 0 0 0 0 0.741176 0 0 0 0 0.866667 0 0 0 1 0"/>
<feBlend mode="normal" in2="BackgroundImageFix" result="effect1_dropShadow_202_2104"/>
<feColorMatrix in="SourceAlpha" type="matrix" values="0 0 0 0 0 0 0 0 0 0 0 0 0 0 0 0 0 0 127 0" result="hardAlpha"/>
<feOffset dy="2.38223"/>
<feGaussianBlur stdDeviation="2.97779"/>
<feComposite in2="hardAlpha" operator="out"/>
<feColorMatrix type="matrix" values="0 0 0 0 0 0 0 0 0 0 0 0 0 0 0 0 0 0 0.1 0"/>
<feBlend mode="normal" in2="effect1_dropShadow_202_2104" result="effect2_dropShadow_202_2104"/>
<feBlend mode="normal" in="SourceGraphic" in2="effect2_dropShadow_202_2104" result="shape"/>
</filter>
</defs>
</svg>
