<svg width="279" height="240" viewBox="0 0 279 240" fill="none" xmlns="http://www.w3.org/2000/svg">
<g filter="url(#filter0_dd_202_175)">
<g filter="url(#filter1_dd_202_175)">
<path d="M245.412 122.224H193.302V185.741H245.412V122.224Z" fill="white" stroke="#9DAFCC" stroke-width="0.6" stroke-miterlimit="10"/>
<path d="M210.669 122.224V185.741" stroke="#9DAFCC" stroke-width="0.6" stroke-miterlimit="10"/>
<path d="M228.04 122.224V185.741" stroke="#9DAFCC" stroke-width="0.6" stroke-miterlimit="10"/>
<path d="M228.081 159.252C227.243 157.663 225.988 156.333 224.45 155.405C222.912 154.478 221.151 153.987 219.354 153.987C217.558 153.987 215.796 154.478 214.259 155.405C212.721 156.333 211.466 157.663 210.628 159.252H228.081Z" fill="#F25451" stroke="#9DAFCC" stroke-width="0.6" stroke-linejoin="round"/>
<path d="M219.354 167.6C218.587 167.6 217.851 167.905 217.308 168.447C216.764 168.989 216.459 169.725 216.458 170.493V177.816H222.251V170.493C222.251 170.113 222.176 169.736 222.031 169.385C221.885 169.034 221.671 168.715 221.402 168.446C221.133 168.178 220.814 167.964 220.463 167.82C220.111 167.674 219.734 167.6 219.354 167.6Z" fill="white" stroke="#9DAFCC" stroke-width="0.6" stroke-miterlimit="10"/>
<path d="M219.354 136.915C218.587 136.916 217.85 137.221 217.307 137.764C216.764 138.307 216.459 139.043 216.458 139.811V148.834H222.251V139.802C222.249 139.036 221.943 138.301 221.4 137.76C220.857 137.219 220.121 136.915 219.354 136.915Z" fill="#365DA0" stroke="#9DAFCC" stroke-width="0.6" stroke-miterlimit="10"/>
<path d="M219.355 129.317C219.373 128.735 219.275 128.155 219.065 127.612C218.855 127.069 218.538 126.573 218.133 126.155C217.728 125.736 217.243 125.404 216.707 125.177C216.17 124.95 215.594 124.832 215.012 124.832C214.429 124.832 213.853 124.95 213.317 125.177C212.78 125.404 212.295 125.736 211.89 126.155C211.485 126.573 211.168 127.069 210.958 127.612C210.748 128.155 210.65 128.735 210.669 129.317" stroke="#9DAFCC" stroke-width="0.6" stroke-miterlimit="10" stroke-linecap="round"/>
<path d="M228.04 129.317C228.059 128.735 227.961 128.155 227.751 127.612C227.541 127.069 227.224 126.573 226.819 126.155C226.414 125.736 225.929 125.404 225.392 125.177C224.856 124.95 224.28 124.832 223.697 124.832C223.115 124.832 222.539 124.95 222.002 125.177C221.466 125.404 220.981 125.736 220.576 126.155C220.171 126.573 219.854 127.069 219.644 127.612C219.434 128.155 219.336 128.735 219.354 129.317" stroke="#9DAFCC" stroke-width="0.6" stroke-miterlimit="10" stroke-linecap="round"/>
<path d="M245.488 159.252C244.652 157.663 243.397 156.333 241.859 155.405C240.322 154.477 238.56 153.987 236.764 153.987C234.969 153.987 233.207 154.477 231.669 155.405C230.132 156.333 228.877 157.663 228.04 159.252H245.488Z" fill="#F25451" stroke="#9DAFCC" stroke-width="0.6" stroke-linejoin="round"/>
<path d="M236.766 167.6C236.386 167.6 236.01 167.674 235.658 167.82C235.307 167.964 234.987 168.178 234.718 168.446C234.45 168.715 234.236 169.034 234.09 169.385C233.945 169.736 233.87 170.113 233.87 170.493V177.816H239.659V170.493C239.659 169.726 239.354 168.99 238.812 168.447C238.269 167.905 237.533 167.6 236.766 167.6Z" fill="white" stroke="#9DAFCC" stroke-width="0.6" stroke-miterlimit="10"/>
<path d="M236.766 136.915C235.998 136.915 235.261 137.22 234.718 137.763C234.175 138.306 233.87 139.043 233.87 139.811V148.834H239.659V139.802C239.656 139.036 239.351 138.303 238.809 137.762C238.267 137.22 237.532 136.916 236.766 136.915Z" fill="#365DA0" stroke="#9DAFCC" stroke-width="0.6" stroke-miterlimit="10"/>
<path d="M236.767 129.317C236.786 128.735 236.687 128.155 236.477 127.612C236.267 127.069 235.95 126.573 235.545 126.155C235.14 125.736 234.655 125.404 234.119 125.177C233.582 124.95 233.006 124.832 232.424 124.832C231.841 124.832 231.265 124.95 230.729 125.177C230.192 125.404 229.707 125.736 229.302 126.155C228.897 126.573 228.58 127.069 228.371 127.612C228.16 128.155 228.062 128.735 228.081 129.317" stroke="#9DAFCC" stroke-width="0.6" stroke-miterlimit="10" stroke-linecap="round"/>
<path d="M245.448 129.317C245.448 128.166 244.99 127.062 244.177 126.248C243.363 125.434 242.258 124.977 241.107 124.977C239.956 124.977 238.852 125.434 238.038 126.248C237.224 127.062 236.767 128.166 236.767 129.317" stroke="#9DAFCC" stroke-width="0.6" stroke-miterlimit="10" stroke-linecap="round"/>
<path d="M210.75 159.252C209.913 157.663 208.658 156.333 207.121 155.405C205.583 154.477 203.821 153.987 202.026 153.987C200.23 153.987 198.468 154.477 196.931 155.405C195.393 156.333 194.138 157.663 193.302 159.252H210.75Z" fill="#F25451" stroke="#9DAFCC" stroke-width="0.6" stroke-linejoin="round"/>
<path d="M202.023 167.6C201.256 167.6 200.52 167.905 199.977 168.447C199.433 168.989 199.128 169.725 199.127 170.493V177.816H204.92V170.493C204.92 170.113 204.845 169.736 204.7 169.385C204.554 169.034 204.34 168.715 204.071 168.446C203.802 168.178 203.483 167.964 203.132 167.82C202.78 167.674 202.403 167.6 202.023 167.6Z" fill="white" stroke="#9DAFCC" stroke-width="0.6" stroke-miterlimit="10"/>
<path d="M202.023 136.915C201.255 136.916 200.519 137.221 199.976 137.764C199.433 138.307 199.128 139.043 199.127 139.811V148.834H204.92V139.802C204.918 139.036 204.611 138.301 204.069 137.76C203.526 137.219 202.79 136.915 202.023 136.915Z" fill="#365DA0" stroke="#9DAFCC" stroke-width="0.6" stroke-miterlimit="10"/>
<path d="M202.023 129.317C202.042 128.735 201.944 128.155 201.734 127.612C201.524 127.069 201.207 126.573 200.802 126.155C200.397 125.736 199.912 125.404 199.375 125.177C198.839 124.95 198.263 124.832 197.681 124.832C197.098 124.832 196.522 124.95 195.986 125.177C195.449 125.404 194.964 125.736 194.559 126.155C194.154 126.573 193.837 127.069 193.627 127.612C193.417 128.155 193.319 128.735 193.338 129.317" stroke="#9DAFCC" stroke-width="0.6" stroke-miterlimit="10" stroke-linecap="round"/>
<path d="M210.709 129.317C210.728 128.735 210.629 128.155 210.419 127.612C210.21 127.069 209.893 126.573 209.488 126.155C209.083 125.736 208.598 125.404 208.061 125.177C207.525 124.95 206.949 124.832 206.366 124.832C205.784 124.832 205.207 124.95 204.671 125.177C204.135 125.404 203.65 125.736 203.245 126.155C202.84 126.573 202.523 127.069 202.313 127.612C202.103 128.155 202.004 128.735 202.023 129.317" stroke="#9DAFCC" stroke-width="0.6" stroke-miterlimit="10" stroke-linecap="round"/>
<path d="M193.302 177.816H245.412" stroke="#9DAFCC" stroke-width="0.6" stroke-miterlimit="10"/>
<path d="M193.302 132.007H245.412" stroke="#9DAFCC" stroke-width="0.6" stroke-miterlimit="10"/>
<path d="M255.303 147.607H250.396V156.891H255.303V147.607Z" fill="white" stroke="#9DAFCC" stroke-width="0.6" stroke-miterlimit="10"/>
<path d="M252.847 147.607H250.378C249.073 147.607 248.021 146.217 248.021 144.498C248.021 142.861 249.042 142.029 250.787 141.165C252.074 140.527 252.847 137.778 252.847 137.778C252.847 137.778 253.625 140.527 254.912 141.165C256.653 142.029 257.678 142.861 257.678 144.498C257.678 146.217 256.621 147.607 255.321 147.607H252.847Z" fill="#F25451" stroke="#9DAFCC" stroke-width="0.6" stroke-linejoin="round"/>
<path d="M259.374 159.252H245.412V185.746H259.374V159.252Z" fill="white" stroke="#9DAFCC" stroke-width="0.6" stroke-miterlimit="10"/>
<path d="M262.721 179.161H245.412V185.741H262.721V179.161Z" fill="white" stroke="#9DAFCC" stroke-width="0.6" stroke-miterlimit="10"/>
<path d="M245.488 179.16L251.763 172.706L266.216 179.16H245.488Z" fill="#F25451" stroke="#9DAFCC" stroke-width="0.6" stroke-linejoin="round"/>
<path d="M245.412 159.247V152.77L264.542 159.247H245.412Z" fill="#F25451" stroke="#9DAFCC" stroke-width="0.6" stroke-linejoin="round"/>
<path d="M252.847 137.778V126.344" stroke="#9DAFCC" stroke-width="0.6" stroke-linejoin="round"/>
<path d="M256.122 130.626H249.577" stroke="#9DAFCC" stroke-width="0.6" stroke-linejoin="round"/>
<path d="M254.808 128.314H250.891" stroke="#9DAFCC" stroke-width="0.6" stroke-linejoin="round"/>
<path d="M254.817 133.361L250.877 135.502" stroke="#9DAFCC" stroke-width="0.6" stroke-linejoin="round"/>
<path d="M183.41 156.895H188.318V147.611H183.41V156.895Z" fill="white" stroke="#9DAFCC" stroke-width="0.6" stroke-miterlimit="10"/>
<path d="M185.866 147.607H188.336C189.64 147.607 190.693 146.217 190.693 144.498C190.693 142.861 189.672 142.029 187.931 141.165C186.645 140.527 185.866 137.778 185.866 137.778C185.866 137.778 185.088 140.527 183.802 141.165C182.061 142.029 181.035 142.861 181.035 144.498C181.035 146.217 182.092 147.607 183.397 147.607H185.866Z" fill="#F25451" stroke="#9DAFCC" stroke-width="0.6" stroke-linejoin="round"/>
<path d="M179.34 185.741H193.302V159.248H179.34V185.741Z" fill="white" stroke="#9DAFCC" stroke-width="0.6" stroke-miterlimit="10"/>
<path d="M175.993 185.741H193.302V179.161H175.993V185.741Z" fill="white" stroke="#9DAFCC" stroke-width="0.6" stroke-miterlimit="10"/>
<path d="M193.221 179.16L186.946 172.706L172.493 179.16H193.221Z" fill="#F25451" stroke="#9DAFCC" stroke-width="0.6" stroke-linejoin="round"/>
<path d="M193.302 159.247V152.77L174.167 159.247H193.302Z" fill="#F25451" stroke="#9DAFCC" stroke-width="0.6" stroke-linejoin="round"/>
<path d="M185.862 137.778V126.344" stroke="#9DAFCC" stroke-width="0.6" stroke-linejoin="round"/>
<path d="M182.587 130.626H189.132" stroke="#9DAFCC" stroke-width="0.6" stroke-linejoin="round"/>
<path d="M183.892 133.361L187.832 135.502" stroke="#9DAFCC" stroke-width="0.6" stroke-linejoin="round"/>
<path d="M219.318 90.4809H212.657C209.139 90.4809 206.292 86.7205 206.292 82.0829C206.292 77.6658 209.054 75.4303 213.754 73.0868C217.222 71.3685 219.318 66.3397 219.318 66.3397C219.318 66.3397 221.415 71.3865 224.887 73.0868C229.588 75.4213 232.349 77.6568 232.349 82.0829C232.349 86.7205 229.498 90.4809 225.985 90.4809H219.318Z" fill="#F25451" stroke="#9DAFCC" stroke-width="0.6" stroke-linejoin="round"/>
<path d="M226.659 90.4808H211.982V114.078H226.659V90.4808Z" fill="white" stroke="#9DAFCC" stroke-width="0.6" stroke-miterlimit="10"/>
<path d="M237.905 105.941H230.019V117.631H237.905V105.941Z" fill="white" stroke="#9DAFCC" stroke-width="0.6" stroke-miterlimit="10"/>
<path d="M233.964 105.941H229.992C227.901 105.941 226.205 103.692 226.205 100.943C226.205 98.3119 227.847 96.9805 230.649 95.5906C232.714 94.565 233.964 90.1434 233.964 90.1434C233.964 90.1434 235.21 94.565 237.279 95.5906C240.077 96.9805 241.723 98.3119 241.723 100.943C241.723 103.705 240.028 105.941 237.932 105.941H233.964Z" fill="#F25451" stroke="#9DAFCC" stroke-width="0.6" stroke-linejoin="round"/>
<path d="M232.484 109.107V114.469" stroke="#9DAFCC" stroke-width="0.6" stroke-linecap="round" stroke-linejoin="round"/>
<path d="M235.444 109.107V114.469" stroke="#9DAFCC" stroke-width="0.6" stroke-linecap="round" stroke-linejoin="round"/>
<path d="M208.622 105.941H200.737V117.631H208.622V105.941Z" fill="white" stroke="#9DAFCC" stroke-width="0.6" stroke-miterlimit="10"/>
<path d="M204.677 105.941H200.71C198.618 105.941 196.923 103.692 196.923 100.943C196.923 98.3119 198.564 96.9805 201.367 95.5906C203.436 94.565 204.682 90.1434 204.682 90.1434C204.682 90.1434 205.932 94.565 207.997 95.5906C210.799 96.9805 212.441 98.3119 212.441 100.943C212.441 103.705 210.745 105.941 208.654 105.941H204.677Z" fill="#F25451" stroke="#9DAFCC" stroke-width="0.6" stroke-linejoin="round"/>
<path d="M203.197 109.107V114.469" stroke="#9DAFCC" stroke-width="0.6" stroke-linecap="round" stroke-linejoin="round"/>
<path d="M206.157 109.107V114.469" stroke="#9DAFCC" stroke-width="0.6" stroke-linecap="round" stroke-linejoin="round"/>
<path d="M219.319 66.4341V55" stroke="#9DAFCC" stroke-width="0.6" stroke-linejoin="round"/>
<path d="M222.593 59.2822H216.048" stroke="#9DAFCC" stroke-width="0.6" stroke-linejoin="round"/>
<path d="M221.28 56.9701H217.362" stroke="#9DAFCC" stroke-width="0.6" stroke-linejoin="round"/>
<path d="M221.289 62.017L217.353 64.1581" stroke="#9DAFCC" stroke-width="0.6" stroke-linejoin="round"/>
<path d="M249.411 114.078H189.555V122.228H249.411V114.078Z" fill="#F25451" stroke="#9DAFCC" stroke-width="0.6" stroke-linejoin="round"/>
<path d="M193.351 162.788H179.466" stroke="#9DAFCC" stroke-width="0.6" stroke-miterlimit="10"/>
<path d="M259.459 162.788H245.578" stroke="#9DAFCC" stroke-width="0.6" stroke-miterlimit="10"/>
<path d="M215.742 96.1394V109.107" stroke="#9DAFCC" stroke-width="0.6" stroke-linecap="round" stroke-linejoin="round"/>
<path d="M219.354 96.1394V109.107" stroke="#9DAFCC" stroke-width="0.6" stroke-linecap="round" stroke-linejoin="round"/>
<path d="M222.966 96.1394V109.107" stroke="#9DAFCC" stroke-width="0.6" stroke-linecap="round" stroke-linejoin="round"/>
<path d="M29.8459 165.127C57.1402 160.372 68.5294 158.096 110.294 157.268V178.153H29.8459V166.152" fill="#F25451"/>
<path d="M29.8459 165.127C57.1402 160.372 68.5294 158.096 110.294 157.268V178.153H29.8459V166.152" stroke="#9DAFCC" stroke-width="0.6" stroke-linecap="round" stroke-linejoin="round"/>
<path d="M29.8459 169.035C57.1402 164.281 68.5294 162.009 110.294 161.182V182.062H29.8459V170.07" fill="#F25451"/>
<path d="M29.8459 169.035C57.1402 164.281 68.5294 162.009 110.294 161.182V182.062H29.8459V170.07" stroke="#9DAFCC" stroke-width="0.6" stroke-linecap="round" stroke-linejoin="round"/>
<path d="M115.012 185.84H12.9059L29.8592 176.291C29.8592 176.291 65.7988 167.403 115.026 168.644C114.828 176.705 115.012 185.84 115.012 185.84Z" fill="#365DA0" stroke="#9DAFCC" stroke-width="0.6" stroke-linecap="round" stroke-linejoin="round"/>
<path d="M121.382 185.741H143.98L145.221 148.407C145.221 148.407 135.996 146.221 121.382 167.263C106.767 188.305 121.382 185.741 121.382 185.741Z" fill="#365DA0" stroke="#9DAFCC" stroke-width="0.6" stroke-linecap="round" stroke-linejoin="round"/>
<path d="M137.629 185.741L142.622 134.764H195.6L200.593 185.741H137.629Z" fill="#E4EBF5" stroke="#9DAFCC" stroke-width="0.6" stroke-miterlimit="10"/>
<path d="M202.693 134.764L186.667 128.215L169.111 91.412L151.555 128.215L135.528 134.764H202.693Z" fill="#F25451" stroke="#9DAFCC" stroke-width="0.6" stroke-linejoin="round"/>
<path d="M157.335 162.077H153.903V172.418H157.335V162.077Z" fill="#365DA0" stroke="#9DAFCC" stroke-width="0.6" stroke-linejoin="round"/>
<path d="M184.314 162.077H180.882V172.418H184.314V162.077Z" fill="#365DA0" stroke="#9DAFCC" stroke-width="0.6" stroke-linejoin="round"/>
<path d="M155.621 134.764H151.069V141.741H155.621V134.764Z" fill="#365DA0" stroke="#9DAFCC" stroke-width="0.6" stroke-linejoin="round"/>
<path d="M171.387 134.764H166.835V141.741H171.387V134.764Z" fill="#365DA0" stroke="#9DAFCC" stroke-width="0.6" stroke-linejoin="round"/>
<path d="M187.153 134.764H182.601V141.741H187.153V134.764Z" fill="#365DA0" stroke="#9DAFCC" stroke-width="0.6" stroke-linejoin="round"/>
<path d="M147.349 148.106V156.328" stroke="#9DAFCC" stroke-width="0.6" stroke-linecap="round" stroke-linejoin="round"/>
<path d="M161.855 148.106V156.328" stroke="#9DAFCC" stroke-width="0.6" stroke-linecap="round" stroke-linejoin="round"/>
<path d="M176.366 148.106V156.328" stroke="#9DAFCC" stroke-width="0.6" stroke-linecap="round" stroke-linejoin="round"/>
<path d="M190.873 148.106V156.328" stroke="#9DAFCC" stroke-width="0.6" stroke-linecap="round" stroke-linejoin="round"/>
<path d="M163.187 103.827H174.864" stroke="#9DAFCC" stroke-width="0.6" stroke-linecap="round" stroke-linejoin="round"/>
<path d="M172.125 103.827L176.78 128.215" stroke="#9DAFCC" stroke-width="0.6" stroke-linecap="round" stroke-linejoin="round"/>
<path d="M166.097 103.827L161.442 128.215" stroke="#9DAFCC" stroke-width="0.6" stroke-linecap="round" stroke-linejoin="round"/>
<path d="M169.111 91.412V78.7004" stroke="#9DAFCC" stroke-width="0.6" stroke-linecap="round" stroke-linejoin="round"/>
<path d="M178.305 85.0562H169.111V78.7004H176.717L178.305 85.0562Z" fill="#F25451" stroke="#9DAFCC" stroke-width="0.6" stroke-linecap="round" stroke-linejoin="round"/>
<path d="M117.738 130.419L114.09 139.209H121.382L117.738 130.419Z" fill="#F25451" stroke="#9DAFCC" stroke-width="0.6" stroke-linecap="round" stroke-linejoin="round"/>
<path d="M125.183 153.364H110.294V185.741H125.183V153.364Z" fill="#E4EBF5" stroke="#9DAFCC" stroke-width="0.6" stroke-linecap="round" stroke-linejoin="round"/>
<path d="M115.008 143.419L108.45 153.364H127.022L120.464 143.419H115.008Z" fill="#F25451" stroke="#9DAFCC" stroke-width="0.6" stroke-linecap="round" stroke-linejoin="round"/>
<path d="M120.459 139.209H115.012V143.419H120.459V139.209Z" fill="white" stroke="#9DAFCC" stroke-width="0.6" stroke-linecap="round" stroke-linejoin="round"/>
</g>
</g>
<defs>
<filter id="filter0_dd_202_175" x="-8.91117" y="-11.9112" width="296.822" height="263.822" filterUnits="userSpaceOnUse" color-interpolation-filters="sRGB">
<feFlood flood-opacity="0" result="BackgroundImageFix"/>
<feColorMatrix in="SourceAlpha" type="matrix" values="0 0 0 0 0 0 0 0 0 0 0 0 0 0 0 0 0 0 127 0" result="hardAlpha"/>
<feOffset/>
<feGaussianBlur stdDeviation="5.95559"/>
<feComposite in2="hardAlpha" operator="out"/>
<feColorMatrix type="matrix" values="0 0 0 0 0.568627 0 0 0 0 0.741176 0 0 0 0 0.866667 0 0 0 1 0"/>
<feBlend mode="normal" in2="BackgroundImageFix" result="effect1_dropShadow_202_175"/>
<feColorMatrix in="SourceAlpha" type="matrix" values="0 0 0 0 0 0 0 0 0 0 0 0 0 0 0 0 0 0 127 0" result="hardAlpha"/>
<feOffset dy="2.38223"/>
<feGaussianBlur stdDeviation="2.97779"/>
<feComposite in2="hardAlpha" operator="out"/>
<feColorMatrix type="matrix" values="0 0 0 0 0 0 0 0 0 0 0 0 0 0 0 0 0 0 0.1 0"/>
<feBlend mode="normal" in2="effect1_dropShadow_202_175" result="effect2_dropShadow_202_175"/>
<feBlend mode="normal" in="SourceGraphic" in2="effect2_dropShadow_202_175" result="shape"/>
</filter>
<filter id="filter1_dd_202_175" x="0.694663" y="43.0888" width="277.732" height="154.963" filterUnits="userSpaceOnUse" color-interpolation-filters="sRGB">
<feFlood flood-opacity="0" result="BackgroundImageFix"/>
<feColorMatrix in="SourceAlpha" type="matrix" values="0 0 0 0 0 0 0 0 0 0 0 0 0 0 0 0 0 0 127 0" result="hardAlpha"/>
<feOffset/>
<feGaussianBlur stdDeviation="5.95559"/>
<feComposite in2="hardAlpha" operator="out"/>
<feColorMatrix type="matrix" values="0 0 0 0 0.568627 0 0 0 0 0.741176 0 0 0 0 0.866667 0 0 0 1 0"/>
<feBlend mode="normal" in2="BackgroundImageFix" result="effect1_dropShadow_202_175"/>
<feColorMatrix in="SourceAlpha" type="matrix" values="0 0 0 0 0 0 0 0 0 0 0 0 0 0 0 0 0 0 127 0" result="hardAlpha"/>
<feOffset dy="2.38223"/>
<feGaussianBlur stdDeviation="2.97779"/>
<feComposite in2="hardAlpha" operator="out"/>
<feColorMatrix type="matrix" values="0 0 0 0 0 0 0 0 0 0 0 0 0 0 0 0 0 0 0.1 0"/>
<feBlend mode="normal" in2="effect1_dropShadow_202_175" result="effect2_dropShadow_202_175"/>
<feBlend mode="normal" in="SourceGraphic" in2="effect2_dropShadow_202_175" result="shape"/>
</filter>
</defs>
</svg>
