<svg width="273" height="240" viewBox="0 0 273 240" fill="none" xmlns="http://www.w3.org/2000/svg">
<g filter="url(#filter0_dd_202_2933)">
<g filter="url(#filter1_dd_202_2933)">
<path d="M175.333 48.1984C173.348 48.1984 171.74 50.0403 171.74 52.3124H178.922C178.922 50.0403 177.336 48.1984 175.333 48.1984Z" fill="#F25451" stroke="#9DAFCC" stroke-width="0.6" stroke-linecap="round" stroke-linejoin="round"/>
<path d="M181.055 52.3124H169.608V55.3186H181.055V52.3124Z" fill="#E4EBF5" stroke="#9DAFCC" stroke-width="0.6" stroke-linecap="round" stroke-linejoin="round"/>
<path d="M178.982 55.3187H171.684V63.4773H178.982V55.3187Z" fill="#E4EBF5" stroke="#9DAFCC" stroke-width="0.6" stroke-linecap="round" stroke-linejoin="round"/>
<path d="M175.333 41.8689V48.1985" stroke="#9DAFCC" stroke-width="0.6" stroke-linecap="round" stroke-linejoin="round"/>
<path d="M173.244 44.1583H177.419" stroke="#9DAFCC" stroke-width="0.6" stroke-linecap="round" stroke-linejoin="round"/>
<path d="M197.12 96.9324H153.104V124.497H197.12V96.9324Z" fill="#365DA0" stroke="#9DAFCC" stroke-width="0.6" stroke-linecap="round" stroke-linejoin="round"/>
<path d="M200.508 121.451H149.711V129.189H200.508V121.451Z" fill="#E4EBF5" stroke="#9DAFCC" stroke-width="0.6" stroke-linecap="round" stroke-linejoin="round"/>
<path d="M199.705 91.1285H150.515V98.8657H199.705V91.1285Z" fill="#E4EBF5" stroke="#9DAFCC" stroke-width="0.6" stroke-linecap="round" stroke-linejoin="round"/>
<path d="M256.923 190.994V153.199H253.934V190.994H256.923Z" fill="#E4EBF5" stroke="#9DAFCC" stroke-width="0.6" stroke-linecap="round" stroke-linejoin="round"/>
<path d="M258.235 190.886H252.631V193.909H258.235V190.886Z" fill="#E4EBF5" stroke="#9DAFCC" stroke-width="0.6" stroke-linecap="round" stroke-linejoin="round"/>
<path d="M258.235 150.171H252.631V157.426H258.235V150.171Z" fill="#E4EBF5" stroke="#9DAFCC" stroke-width="0.6" stroke-linecap="round" stroke-linejoin="round"/>
<path d="M96.2809 190.99V153.195H93.292V190.99H96.2809Z" fill="#E4EBF5" stroke="#9DAFCC" stroke-width="0.6" stroke-linecap="round" stroke-linejoin="round"/>
<path d="M97.5929 190.886H91.9888V193.909H97.5929V190.886Z" fill="#E4EBF5" stroke="#9DAFCC" stroke-width="0.6" stroke-linecap="round" stroke-linejoin="round"/>
<path d="M97.5929 150.171H91.9888V157.426H97.5929V150.171Z" fill="#E4EBF5" stroke="#9DAFCC" stroke-width="0.6" stroke-linecap="round" stroke-linejoin="round"/>
<path d="M253.804 127.816H96.2983V193.914H253.804V127.816Z" fill="white" stroke="#9DAFCC" stroke-width="0.6" stroke-linecap="round" stroke-linejoin="round"/>
<path d="M253.804 155.219H96.2983" stroke="#9DAFCC" stroke-width="0.6" stroke-miterlimit="10"/>
<path d="M253.804 134.936H96.2983" stroke="#9DAFCC" stroke-width="0.6" stroke-miterlimit="10"/>
<path d="M253.804 130.787H96.2983" stroke="#9DAFCC" stroke-width="0.6" stroke-miterlimit="10"/>
<path d="M253.804 148.964H96.2983V152.474H253.804V148.964Z" fill="#F25451" stroke="#9DAFCC" stroke-width="0.6" stroke-linecap="round" stroke-linejoin="round"/>
<path d="M208.519 148.964H141.587V193.909H208.519V148.964Z" fill="#365DA0" stroke="#9DAFCC" stroke-width="0.6" stroke-linecap="round" stroke-linejoin="round"/>
<path d="M224.841 125.774H206.595V193.914H224.841V125.774Z" fill="#E4EBF5" stroke="#9DAFCC" stroke-width="0.6" stroke-linecap="round" stroke-linejoin="round"/>
<path d="M222.829 109.244H208.606V125.774H222.829V109.244Z" fill="#E4EBF5" stroke="#9DAFCC" stroke-width="0.6" stroke-linecap="round" stroke-linejoin="round"/>
<path d="M221.4 103.119H210.031V109.244H221.4V103.119Z" fill="#E4EBF5" stroke="#9DAFCC" stroke-width="0.6" stroke-linecap="round" stroke-linejoin="round"/>
<path d="M206.595 132.577H224.841" stroke="#9DAFCC" stroke-width="0.6" stroke-linecap="round" stroke-linejoin="round"/>
<path d="M224.841 155.219H206.595" stroke="#9DAFCC" stroke-width="0.6" stroke-linecap="round" stroke-linejoin="round"/>
<path d="M224.841 145.666H206.595V151.688H224.841V145.666Z" fill="#F25451" stroke="#9DAFCC" stroke-width="0.6" stroke-linecap="round" stroke-linejoin="round"/>
<path d="M221.4 125.774H210.031V129.189H221.4V125.774Z" stroke="#9DAFCC" stroke-width="0.6" stroke-linecap="round" stroke-linejoin="round"/>
<path d="M208.606 112.55H222.829" stroke="#9DAFCC" stroke-width="0.6" stroke-linecap="round" stroke-linejoin="round"/>
<path d="M215.718 103.857L208.606 109.244H222.829L215.718 103.857Z" fill="#E4EBF5" stroke="#9DAFCC" stroke-width="0.6" stroke-linecap="round" stroke-linejoin="round"/>
<path d="M215.718 115.087C214.729 115.087 213.781 115.48 213.082 116.179C212.383 116.878 211.99 117.826 211.99 118.814V125.765H219.445V118.814C219.445 118.325 219.349 117.84 219.161 117.388C218.974 116.936 218.7 116.525 218.353 116.179C218.007 115.833 217.596 115.558 217.144 115.371C216.692 115.183 216.207 115.087 215.718 115.087Z" fill="#365DA0" stroke="#9DAFCC" stroke-width="0.6" stroke-miterlimit="10"/>
<path d="M215.718 97.4364C214.971 97.436 214.232 97.5824 213.542 97.8678C212.852 98.1532 212.225 98.5716 211.697 99.0994C211.169 99.6268 210.75 100.254 210.464 100.943C210.178 101.633 210.031 102.372 210.031 103.119H221.4C221.4 102.372 221.254 101.633 220.969 100.944C220.683 100.254 220.265 99.6272 219.737 99.0994C219.209 98.5716 218.583 98.1532 217.893 97.8678C217.203 97.5824 216.464 97.436 215.718 97.4364Z" fill="#F25451" stroke="#9DAFCC" stroke-width="0.6" stroke-linecap="round" stroke-linejoin="round"/>
<path d="M215.718 92.5621V97.4364" stroke="#9DAFCC" stroke-width="0.6" stroke-linecap="round" stroke-linejoin="round"/>
<path d="M143.507 125.774H125.261V193.914H143.507V125.774Z" fill="#E4EBF5" stroke="#9DAFCC" stroke-width="0.6" stroke-linecap="round" stroke-linejoin="round"/>
<path d="M141.496 109.244H127.273V125.774H141.496V109.244Z" fill="#E4EBF5" stroke="#9DAFCC" stroke-width="0.6" stroke-linecap="round" stroke-linejoin="round"/>
<path d="M140.071 103.119H128.702V109.244H140.071V103.119Z" fill="#E4EBF5" stroke="#9DAFCC" stroke-width="0.6" stroke-linecap="round" stroke-linejoin="round"/>
<path d="M125.261 132.577H143.512" stroke="#9DAFCC" stroke-width="0.6" stroke-linecap="round" stroke-linejoin="round"/>
<path d="M143.512 155.219H125.261" stroke="#9DAFCC" stroke-width="0.6" stroke-linecap="round" stroke-linejoin="round"/>
<path d="M143.507 145.666H125.261V151.688H143.507V145.666Z" fill="#F25451" stroke="#9DAFCC" stroke-width="0.6" stroke-linecap="round" stroke-linejoin="round"/>
<path d="M140.071 125.774H128.702V129.189H140.071V125.774Z" stroke="#9DAFCC" stroke-width="0.6" stroke-linecap="round" stroke-linejoin="round"/>
<path d="M127.273 112.55H141.5" stroke="#9DAFCC" stroke-width="0.6" stroke-linecap="round" stroke-linejoin="round"/>
<path d="M134.384 103.857L127.273 109.244H141.5L134.384 103.857Z" fill="#E4EBF5" stroke="#9DAFCC" stroke-width="0.6" stroke-linecap="round" stroke-linejoin="round"/>
<path d="M134.384 115.087C133.397 115.088 132.449 115.482 131.752 116.18C131.054 116.879 130.661 117.827 130.661 118.814V125.765H138.112V118.814C138.112 117.826 137.719 116.878 137.02 116.179C136.321 115.48 135.373 115.087 134.384 115.087Z" fill="#365DA0" stroke="#9DAFCC" stroke-width="0.6" stroke-miterlimit="10"/>
<path d="M134.384 97.4364C132.877 97.4364 131.432 98.035 130.366 99.1007C129.301 100.166 128.702 101.612 128.702 103.119H140.071C140.071 102.372 139.924 101.633 139.638 100.943C139.352 100.254 138.933 99.6268 138.405 99.0994C137.877 98.5716 137.25 98.1532 136.56 97.8678C135.87 97.5824 135.131 97.436 134.384 97.4364Z" fill="#F25451" stroke="#9DAFCC" stroke-width="0.6" stroke-linecap="round" stroke-linejoin="round"/>
<path d="M134.385 92.5621V97.4364" stroke="#9DAFCC" stroke-width="0.6" stroke-linecap="round" stroke-linejoin="round"/>
<path d="M212.685 144.241H137.417V147.752H212.685V144.241Z" fill="#F25451" stroke="#9DAFCC" stroke-width="0.6" stroke-linecap="round" stroke-linejoin="round"/>
<path d="M211.977 147.752H138.12V150.171H211.977V147.752Z" fill="#E4EBF5" stroke="#9DAFCC" stroke-width="0.6" stroke-linecap="round" stroke-linejoin="round"/>
<path d="M175.051 127.816L134.471 144.246H215.631L175.051 127.816Z" fill="#E4EBF5" stroke="#9DAFCC" stroke-width="0.6" stroke-linecap="round" stroke-linejoin="round"/>
<path d="M201.612 141.544L175.051 130.787L148.49 141.544" stroke="#9DAFCC" stroke-width="0.6" stroke-linecap="round" stroke-linejoin="round"/>
<path d="M144.307 150.171H138.702V153.195H144.307V150.171Z" fill="#E4EBF5" stroke="#9DAFCC" stroke-width="0.6" stroke-linecap="round" stroke-linejoin="round"/>
<path d="M144.307 190.886H138.702V193.909H144.307V190.886Z" fill="#E4EBF5" stroke="#9DAFCC" stroke-width="0.6" stroke-linecap="round" stroke-linejoin="round"/>
<path d="M142.995 190.994V153.199H140.006V190.994H142.995Z" fill="#E4EBF5" stroke="#9DAFCC" stroke-width="0.6" stroke-linecap="round" stroke-linejoin="round"/>
<path d="M153.868 150.171H148.264V153.195H153.868V150.171Z" fill="#E4EBF5" stroke="#9DAFCC" stroke-width="0.6" stroke-linecap="round" stroke-linejoin="round"/>
<path d="M153.868 190.886H148.264V193.909H153.868V190.886Z" fill="#E4EBF5" stroke="#9DAFCC" stroke-width="0.6" stroke-linecap="round" stroke-linejoin="round"/>
<path d="M152.556 190.994V153.199H149.567V190.994H152.556Z" fill="#E4EBF5" stroke="#9DAFCC" stroke-width="0.6" stroke-linecap="round" stroke-linejoin="round"/>
<path d="M163.43 150.171H157.826V153.195H163.43V150.171Z" fill="#E4EBF5" stroke="#9DAFCC" stroke-width="0.6" stroke-linecap="round" stroke-linejoin="round"/>
<path d="M163.43 190.886H157.826V193.909H163.43V190.886Z" fill="#E4EBF5" stroke="#9DAFCC" stroke-width="0.6" stroke-linecap="round" stroke-linejoin="round"/>
<path d="M162.118 190.994V153.199H159.129V190.994H162.118Z" fill="#E4EBF5" stroke="#9DAFCC" stroke-width="0.6" stroke-linecap="round" stroke-linejoin="round"/>
<path d="M172.992 150.171H167.388V153.195H172.992V150.171Z" fill="#E4EBF5" stroke="#9DAFCC" stroke-width="0.6" stroke-linecap="round" stroke-linejoin="round"/>
<path d="M172.992 190.886H167.388V193.909H172.992V190.886Z" fill="#E4EBF5" stroke="#9DAFCC" stroke-width="0.6" stroke-linecap="round" stroke-linejoin="round"/>
<path d="M171.68 190.994V153.199H168.691V190.994H171.68Z" fill="#E4EBF5" stroke="#9DAFCC" stroke-width="0.6" stroke-linecap="round" stroke-linejoin="round"/>
<path d="M182.554 150.171H176.949V153.195H182.554V150.171Z" fill="#E4EBF5" stroke="#9DAFCC" stroke-width="0.6" stroke-linecap="round" stroke-linejoin="round"/>
<path d="M182.554 190.886H176.949V193.909H182.554V190.886Z" fill="#E4EBF5" stroke="#9DAFCC" stroke-width="0.6" stroke-linecap="round" stroke-linejoin="round"/>
<path d="M181.242 190.994V153.199H178.253V190.994H181.242Z" fill="#E4EBF5" stroke="#9DAFCC" stroke-width="0.6" stroke-linecap="round" stroke-linejoin="round"/>
<path d="M192.115 150.171H186.511V153.195H192.115V150.171Z" fill="#E4EBF5" stroke="#9DAFCC" stroke-width="0.6" stroke-linecap="round" stroke-linejoin="round"/>
<path d="M192.115 190.886H186.511V193.909H192.115V190.886Z" fill="#E4EBF5" stroke="#9DAFCC" stroke-width="0.6" stroke-linecap="round" stroke-linejoin="round"/>
<path d="M190.803 190.994V153.199H187.814V190.994H190.803Z" fill="#E4EBF5" stroke="#9DAFCC" stroke-width="0.6" stroke-linecap="round" stroke-linejoin="round"/>
<path d="M201.677 150.171H196.073V153.195H201.677V150.171Z" fill="#E4EBF5" stroke="#9DAFCC" stroke-width="0.6" stroke-linecap="round" stroke-linejoin="round"/>
<path d="M201.677 190.886H196.073V193.909H201.677V190.886Z" fill="#E4EBF5" stroke="#9DAFCC" stroke-width="0.6" stroke-linecap="round" stroke-linejoin="round"/>
<path d="M200.365 190.994V153.199H197.376V190.994H200.365Z" fill="#E4EBF5" stroke="#9DAFCC" stroke-width="0.6" stroke-linecap="round" stroke-linejoin="round"/>
<path d="M211.239 150.171H205.635V153.195H211.239V150.171Z" fill="#E4EBF5" stroke="#9DAFCC" stroke-width="0.6" stroke-linecap="round" stroke-linejoin="round"/>
<path d="M211.239 190.886H205.635V193.909H211.239V190.886Z" fill="#E4EBF5" stroke="#9DAFCC" stroke-width="0.6" stroke-linecap="round" stroke-linejoin="round"/>
<path d="M209.927 190.99V153.195H206.938V190.99H209.927Z" fill="#E4EBF5" stroke="#9DAFCC" stroke-width="0.6" stroke-linecap="round" stroke-linejoin="round"/>
<path d="M246.575 165.828H231.865V186.437H246.575V165.828Z" fill="#E4EBF5" stroke="#9DAFCC" stroke-width="0.6" stroke-linecap="round" stroke-linejoin="round"/>
<path d="M239.22 159.842L230.275 165.828H248.165L239.22 159.842Z" fill="#E4EBF5" stroke="#9DAFCC" stroke-width="0.6" stroke-linecap="round" stroke-linejoin="round"/>
<path d="M239.22 168.791C238.232 168.791 237.285 169.183 236.586 169.881C235.887 170.579 235.494 171.526 235.493 172.514V186.416H242.934V172.514C242.933 171.529 242.542 170.583 241.846 169.886C241.15 169.188 240.206 168.794 239.22 168.791Z" fill="#365DA0" stroke="#9DAFCC" stroke-width="0.6" stroke-miterlimit="10"/>
<path d="M239.22 168.791V186.433" stroke="#9DAFCC" stroke-width="0.6" stroke-miterlimit="10"/>
<path d="M235.493 172.318H242.947" stroke="#9DAFCC" stroke-width="0.6" stroke-miterlimit="10"/>
<path d="M235.493 175.846H242.947" stroke="#9DAFCC" stroke-width="0.6" stroke-miterlimit="10"/>
<path d="M235.493 179.373H242.947" stroke="#9DAFCC" stroke-width="0.6" stroke-miterlimit="10"/>
<path d="M235.493 182.905H242.947" stroke="#9DAFCC" stroke-width="0.6" stroke-miterlimit="10"/>
<path d="M248.165 186.433H230.275V188.509H248.165V186.433Z" fill="#E4EBF5" stroke="#9DAFCC" stroke-width="0.6" stroke-linecap="round" stroke-linejoin="round"/>
<path d="M118.237 165.828H103.527V186.437H118.237V165.828Z" fill="#E4EBF5" stroke="#9DAFCC" stroke-width="0.6" stroke-linecap="round" stroke-linejoin="round"/>
<path d="M110.882 159.842L101.937 165.828H119.827L110.882 159.842Z" fill="#E4EBF5" stroke="#9DAFCC" stroke-width="0.6" stroke-linecap="round" stroke-linejoin="round"/>
<path d="M110.869 168.791C109.881 168.791 108.934 169.183 108.235 169.881C107.536 170.579 107.143 171.526 107.142 172.514V186.416H114.596V172.514C114.595 171.526 114.202 170.579 113.503 169.881C112.804 169.183 111.857 168.791 110.869 168.791Z" fill="#365DA0" stroke="#9DAFCC" stroke-width="0.6" stroke-miterlimit="10"/>
<path d="M110.882 168.791V186.433" stroke="#9DAFCC" stroke-width="0.6" stroke-miterlimit="10"/>
<path d="M107.155 172.318H114.609" stroke="#9DAFCC" stroke-width="0.6" stroke-miterlimit="10"/>
<path d="M107.155 175.846H114.609" stroke="#9DAFCC" stroke-width="0.6" stroke-miterlimit="10"/>
<path d="M107.155 179.373H114.609" stroke="#9DAFCC" stroke-width="0.6" stroke-miterlimit="10"/>
<path d="M107.155 182.905H114.609" stroke="#9DAFCC" stroke-width="0.6" stroke-miterlimit="10"/>
<path d="M119.827 186.433H101.937V188.509H119.827V186.433Z" fill="#E4EBF5" stroke="#9DAFCC" stroke-width="0.6" stroke-linecap="round" stroke-linejoin="round"/>
<path d="M154.112 98.8656H152.096V121.451H154.112V98.8656Z" fill="#E4EBF5" stroke="#9DAFCC" stroke-width="0.6" stroke-miterlimit="10"/>
<path d="M160.398 98.8656H158.382V121.451H160.398V98.8656Z" fill="#E4EBF5" stroke="#9DAFCC" stroke-width="0.6" stroke-miterlimit="10"/>
<path d="M166.684 98.8656H164.668V121.451H166.684V98.8656Z" fill="#E4EBF5" stroke="#9DAFCC" stroke-width="0.6" stroke-miterlimit="10"/>
<path d="M172.974 98.8656H170.959V121.451H172.974V98.8656Z" fill="#E4EBF5" stroke="#9DAFCC" stroke-width="0.6" stroke-miterlimit="10"/>
<path d="M179.261 98.8656H177.245V121.451H179.261V98.8656Z" fill="#E4EBF5" stroke="#9DAFCC" stroke-width="0.6" stroke-miterlimit="10"/>
<path d="M185.547 98.8656H183.531V121.451H185.547V98.8656Z" fill="#E4EBF5" stroke="#9DAFCC" stroke-width="0.6" stroke-miterlimit="10"/>
<path d="M191.837 98.8656H189.822V121.451H191.837V98.8656Z" fill="#E4EBF5" stroke="#9DAFCC" stroke-width="0.6" stroke-miterlimit="10"/>
<path d="M198.123 98.8134H196.108V121.399H198.123V98.8134Z" fill="#E4EBF5" stroke="#9DAFCC" stroke-width="0.6" stroke-miterlimit="10"/>
<path d="M201.104 94.9991H149.116V98.8655H201.104V94.9991Z" fill="#E4EBF5" stroke="#9DAFCC" stroke-width="0.6" stroke-linecap="round" stroke-linejoin="round"/>
<path d="M196.742 82.3834H153.473V91.1285H196.742V82.3834Z" fill="#E4EBF5" stroke="#9DAFCC" stroke-width="0.6" stroke-linecap="round" stroke-linejoin="round"/>
<path d="M175.112 61.896C163.161 61.896 153.473 71.0667 153.473 82.3835H196.746C196.746 71.0667 187.058 61.896 175.112 61.896Z" fill="#F25451" stroke="#9DAFCC" stroke-width="0.6" stroke-linecap="round" stroke-linejoin="round"/>
<path d="M80.7935 72.6741L81.28 82.8701" stroke="#9DAFCC" stroke-width="0.6" stroke-linecap="round" stroke-linejoin="round"/>
<path d="M78.6953 77.7699L83.2307 75.7976" stroke="#9DAFCC" stroke-width="0.6" stroke-linecap="round" stroke-linejoin="round"/>
<path d="M78.4781 93.6872V89.5167C78.4781 89.5167 77.2791 85.8415 77.6093 84.4035C77.9394 82.9656 77.6093 82.4052 78.4781 82.4052C79.347 82.4052 79.9161 82.5659 80.7154 83.6042C81.1151 81.6884 82.0752 80.9672 83.1916 81.1279C84.3081 81.2887 84.7121 82.9656 84.6296 85.1247C84.5471 87.2838 84.6296 89.1171 84.6296 89.1171C84.6296 89.1171 82.2967 87.5184 81.619 86.719C82.2229 89.5167 82.54 90.1554 83.0222 90.7158C83.5044 91.2762 85.6722 93.6872 85.6722 93.6872H78.4781Z" fill="white" stroke="#9DAFCC" stroke-width="0.6" stroke-linejoin="round"/>
<path d="M78.4171 80.7978C78.7482 80.7978 79.0166 80.4808 79.0166 80.0897C79.0166 79.6986 78.7482 79.3816 78.4171 79.3816C78.0861 79.3816 77.8176 79.6986 77.8176 80.0897C77.8176 80.4808 78.0861 80.7978 78.4171 80.7978Z" fill="#E4EBF5" stroke="#9DAFCC" stroke-width="0.6" stroke-linejoin="round"/>
<path d="M87.5315 100.964H75.7368V177.245H87.5315V100.964Z" fill="white" stroke="#9DAFCC" stroke-width="0.6" stroke-miterlimit="10"/>
<path d="M72.9434 100.964H90.3204" stroke="#9DAFCC" stroke-width="0.6" stroke-miterlimit="10" stroke-linecap="round"/>
<path d="M75.7368 93.6698H87.5315" stroke="#9DAFCC" stroke-width="0.6" stroke-miterlimit="10" stroke-linecap="round"/>
<path d="M85.6679 93.6698H77.6006V100.964H85.6679V93.6698Z" fill="white" stroke="#9DAFCC" stroke-width="0.6" stroke-miterlimit="10"/>
<path d="M107.046 193.901C107.046 193.801 107.011 193.714 106.989 193.614C101.885 185.099 96.7023 181.016 96.7023 181.016C96.7023 181.016 89.9687 175.568 89.9687 173.196C89.9687 170.824 95.9942 170.472 97.3539 169.451C98.7137 168.43 97.3539 160.598 97.3539 160.598H73.6256C73.6256 160.598 61.3704 165.016 53.5246 167.057C53.5246 168.76 53.1858 171.484 48.4201 173.187C43.6545 174.89 23.2235 188.505 23.2235 188.505H18.4448L14.8955 193.901H107.046Z" fill="#E4EBF5" stroke="#9DAFCC" stroke-width="0.6" stroke-linejoin="round"/>
<path d="M41.4084 186.137C41.4084 186.137 32.6243 187.302 31.851 188.336C31.0777 189.37 27.9412 193.475 27.9412 193.475" stroke="#9DAFCC" stroke-width="0.6" stroke-miterlimit="10"/>
<path d="M65.5711 182.779L59.2111 187.688L53.4246 188.205C53.4246 188.205 48.4374 187.958 46.7561 193.901" stroke="#9DAFCC" stroke-width="0.6" stroke-miterlimit="10"/>
<path d="M75.7803 185.351C75.7803 185.351 80.0985 186.124 85.7373 194.313" stroke="#9DAFCC" stroke-width="0.6" stroke-miterlimit="10"/>
<path d="M75.2458 181.615C75.2458 181.615 85.8415 180.312 87.5184 181.615C89.1953 182.918 99.2218 185.117 104.027 193.901" stroke="#9DAFCC" stroke-width="0.6" stroke-miterlimit="10"/>
<path d="M97.8362 164.164H78.8952C78.8952 164.164 55.3754 170.893 53.6985 173.604" stroke="#9DAFCC" stroke-width="0.6" stroke-miterlimit="10"/>
<path d="M67.9649 162.565L63.6207 157.452C63.6207 157.452 65.884 153.977 65.7928 153.577C65.7016 153.177 62.2088 150.219 62.2088 150.219C62.2088 150.219 59.107 152.287 59.8802 156.935C58.3293 156.935 56.5221 157.066 56.5221 157.066C56.5221 157.066 55.6185 149.832 61.6918 148.281C64.1463 145.697 66.9918 141.561 67.9606 141.174C67.3741 136.265 66.8571 132.26 69.442 132.26C69.0553 129.545 67.7651 127.09 70.8625 127.481C73.96 127.872 71.8965 131.747 71.8965 131.747C73.5777 132.781 74.225 135.223 74.225 137.69C75.9019 132.134 77.1965 130.305 78.3607 130.196C79.525 130.088 83.6564 132.651 84.043 132.907C84.4297 133.163 84.56 135.879 84.56 135.879L80.8153 136.009C80.8153 136.009 84.043 141.826 84.56 143.116C85.077 144.406 84.56 144.419 84.56 144.419L89.2127 144.033V150.115L85.7373 154.381L83.7998 152.183L85.3507 150.115L86.5106 146.639H82.1098L69.4463 153.616L67.5088 156.848L69.594 162.061L67.9649 162.565Z" fill="#365DA0" stroke="#9DAFCC" stroke-width="0.6" stroke-linejoin="round"/>
<path d="M75.2633 160.589L69.4463 153.577L68.3298 155.441L72.8479 160.589H75.2633Z" fill="#365DA0" stroke="#9DAFCC" stroke-width="0.6" stroke-miterlimit="10"/>
</g>
</g>
<defs>
<filter id="filter0_dd_202_2933" x="-11.9112" y="-11.9112" width="296.822" height="263.822" filterUnits="userSpaceOnUse" color-interpolation-filters="sRGB">
<feFlood flood-opacity="0" result="BackgroundImageFix"/>
<feColorMatrix in="SourceAlpha" type="matrix" values="0 0 0 0 0 0 0 0 0 0 0 0 0 0 0 0 0 0 127 0" result="hardAlpha"/>
<feOffset/>
<feGaussianBlur stdDeviation="5.95559"/>
<feComposite in2="hardAlpha" operator="out"/>
<feColorMatrix type="matrix" values="0 0 0 0 0.568627 0 0 0 0 0.741176 0 0 0 0 0.866667 0 0 0 1 0"/>
<feBlend mode="normal" in2="BackgroundImageFix" result="effect1_dropShadow_202_2933"/>
<feColorMatrix in="SourceAlpha" type="matrix" values="0 0 0 0 0 0 0 0 0 0 0 0 0 0 0 0 0 0 127 0" result="hardAlpha"/>
<feOffset dy="2.38223"/>
<feGaussianBlur stdDeviation="2.97779"/>
<feComposite in2="hardAlpha" operator="out"/>
<feColorMatrix type="matrix" values="0 0 0 0 0 0 0 0 0 0 0 0 0 0 0 0 0 0 0.1 0"/>
<feBlend mode="normal" in2="effect1_dropShadow_202_2933" result="effect2_dropShadow_202_2933"/>
<feBlend mode="normal" in="SourceGraphic" in2="effect2_dropShadow_202_2933" result="shape"/>
</filter>
<filter id="filter1_dd_202_2933" x="2.68429" y="29.6577" width="267.762" height="176.737" filterUnits="userSpaceOnUse" color-interpolation-filters="sRGB">
<feFlood flood-opacity="0" result="BackgroundImageFix"/>
<feColorMatrix in="SourceAlpha" type="matrix" values="0 0 0 0 0 0 0 0 0 0 0 0 0 0 0 0 0 0 127 0" result="hardAlpha"/>
<feOffset/>
<feGaussianBlur stdDeviation="5.95559"/>
<feComposite in2="hardAlpha" operator="out"/>
<feColorMatrix type="matrix" values="0 0 0 0 0.568627 0 0 0 0 0.741176 0 0 0 0 0.866667 0 0 0 1 0"/>
<feBlend mode="normal" in2="BackgroundImageFix" result="effect1_dropShadow_202_2933"/>
<feColorMatrix in="SourceAlpha" type="matrix" values="0 0 0 0 0 0 0 0 0 0 0 0 0 0 0 0 0 0 127 0" result="hardAlpha"/>
<feOffset dy="2.38223"/>
<feGaussianBlur stdDeviation="2.97779"/>
<feComposite in2="hardAlpha" operator="out"/>
<feColorMatrix type="matrix" values="0 0 0 0 0 0 0 0 0 0 0 0 0 0 0 0 0 0 0.1 0"/>
<feBlend mode="normal" in2="effect1_dropShadow_202_2933" result="effect2_dropShadow_202_2933"/>
<feBlend mode="normal" in="SourceGraphic" in2="effect2_dropShadow_202_2933" result="shape"/>
</filter>
</defs>
</svg>
