<svg width="273" height="240" viewBox="0 0 273 240" fill="none" xmlns="http://www.w3.org/2000/svg">
<g filter="url(#filter0_dd_202_440)">
<g filter="url(#filter1_dd_202_440)">
<path d="M191.286 83.2554C191.286 90.8819 183.017 97.0637 172.82 97.0637C162.623 97.0637 154.354 90.8819 154.354 83.2554C154.354 76.6082 158.631 73.0231 166.789 69.8635C169.16 68.9462 172.82 64.8649 172.82 64.8649C172.82 64.8649 176.48 68.9462 178.851 69.8635C187.01 73.0409 191.286 76.586 191.286 83.2554Z" fill="#F25451" stroke="#9DAFCC" stroke-width="0.6" stroke-linejoin="round"/>
<path d="M194.911 86.6985H150.725V109.751H194.911V86.6985Z" fill="white" stroke="#9DAFCC" stroke-width="0.6" stroke-miterlimit="10"/>
<path d="M148.248 83.3262C148.615 82.0247 149.396 80.879 150.474 80.063C151.552 79.2469 152.867 78.8052 154.219 78.8052C155.571 78.8052 156.886 79.2469 157.964 80.063C159.042 80.879 159.824 82.0247 160.191 83.3262H160.634C160.993 82.0158 161.774 80.8596 162.855 80.0357C163.936 79.2117 165.257 78.7654 166.616 78.7654C167.975 78.7654 169.297 79.2117 170.377 80.0357C171.458 80.8596 172.239 82.0158 172.599 83.3262H173.042C173.402 82.0158 174.182 80.8596 175.263 80.0357C176.344 79.2117 177.665 78.7654 179.024 78.7654C180.383 78.7654 181.705 79.2117 182.786 80.0357C183.866 80.8596 184.647 82.0158 185.007 83.3262H185.45C185.817 82.0247 186.598 80.879 187.676 80.063C188.754 79.2469 190.069 78.8052 191.421 78.8052C192.773 78.8052 194.088 79.2469 195.166 80.063C196.244 80.879 197.025 82.0247 197.392 83.3262V86.6985H148.248V83.3262Z" fill="white" stroke="#9DAFCC" stroke-width="0.6" stroke-miterlimit="10"/>
<path d="M94.1664 141.808H152.112V150.963H87.6743L93.8429 144.666L94.1664 141.808Z" fill="#F25451" stroke="#9DAFCC" stroke-width="0.6" stroke-linejoin="round"/>
<path d="M152.112 150.963H120.822V196.381H152.112V150.963Z" fill="white" stroke="#9DAFCC" stroke-width="0.6" stroke-miterlimit="10"/>
<path d="M120.817 150.963H90.5327V196.381H120.817V150.963Z" fill="white" stroke="#9DAFCC" stroke-width="0.6" stroke-miterlimit="10"/>
<path d="M137.701 123.621H109.579V144.666H137.701V123.621Z" fill="white" stroke="#9DAFCC" stroke-width="0.6" stroke-miterlimit="10"/>
<path d="M106.193 123.621H137.696V117.298H110.487L106.193 123.621Z" fill="#F25451" stroke="#9DAFCC" stroke-width="0.6" stroke-linejoin="round"/>
<path d="M145.713 158.08C145.028 158.08 144.371 158.352 143.886 158.837C143.401 159.321 143.129 159.979 143.129 160.664V171.676H148.296V160.664C148.296 160.324 148.23 159.988 148.1 159.675C147.97 159.362 147.78 159.077 147.54 158.837C147.3 158.597 147.015 158.407 146.702 158.277C146.388 158.147 146.052 158.08 145.713 158.08Z" fill="#365DA0" stroke="#9DAFCC" stroke-width="0.6" stroke-miterlimit="10"/>
<path d="M140.546 158.08C139.861 158.08 139.204 158.352 138.719 158.837C138.234 159.321 137.962 159.979 137.962 160.664V171.676H143.129V160.664C143.129 160.324 143.063 159.988 142.933 159.675C142.803 159.362 142.613 159.077 142.373 158.837C142.133 158.597 141.848 158.407 141.535 158.277C141.221 158.147 140.885 158.08 140.546 158.08Z" fill="#365DA0" stroke="#9DAFCC" stroke-width="0.6" stroke-miterlimit="10"/>
<path d="M135.379 158.08C134.693 158.08 134.036 158.352 133.55 158.837C133.065 159.321 132.792 159.978 132.791 160.664V171.676H137.962V160.664C137.962 160.324 137.895 159.988 137.766 159.675C137.636 159.362 137.446 159.077 137.205 158.837C136.966 158.597 136.681 158.407 136.367 158.277C136.054 158.147 135.718 158.08 135.379 158.08Z" fill="#365DA0" stroke="#9DAFCC" stroke-width="0.6" stroke-miterlimit="10"/>
<path d="M130.207 158.08C129.522 158.08 128.865 158.352 128.381 158.837C127.896 159.321 127.624 159.979 127.624 160.664V171.676H132.791V160.664C132.791 160.324 132.724 159.988 132.594 159.675C132.464 159.362 132.274 159.077 132.034 158.837C131.794 158.597 131.509 158.407 131.196 158.277C130.883 158.147 130.547 158.08 130.207 158.08Z" fill="#365DA0" stroke="#9DAFCC" stroke-width="0.6" stroke-miterlimit="10"/>
<path d="M130.469 129.639C129.784 129.639 129.127 129.911 128.642 130.396C128.157 130.88 127.885 131.538 127.885 132.223V140.487H133.052V132.223C133.052 131.538 132.78 130.88 132.295 130.396C131.811 129.911 131.154 129.639 130.469 129.639Z" fill="#365DA0" stroke="#9DAFCC" stroke-width="0.6" stroke-miterlimit="10"/>
<path d="M125.297 129.639C124.612 129.639 123.955 129.911 123.471 130.396C122.986 130.88 122.714 131.538 122.714 132.223V140.487H127.881V132.223C127.881 131.538 127.609 130.88 127.124 130.396C126.64 129.911 125.982 129.639 125.297 129.639Z" fill="#365DA0" stroke="#9DAFCC" stroke-width="0.6" stroke-miterlimit="10"/>
<path d="M114.338 158.08C113.653 158.08 112.996 158.352 112.512 158.837C112.027 159.321 111.755 159.979 111.755 160.664V171.676H116.922V160.664C116.922 160.324 116.855 159.988 116.725 159.675C116.595 159.362 116.405 159.077 116.165 158.837C115.925 158.597 115.64 158.407 115.327 158.277C115.014 158.147 114.678 158.08 114.338 158.08Z" fill="#365DA0" stroke="#9DAFCC" stroke-width="0.6" stroke-miterlimit="10"/>
<path d="M109.167 158.08C108.482 158.08 107.824 158.352 107.34 158.837C106.855 159.321 106.583 159.979 106.583 160.664V171.676H111.755V160.664C111.753 159.978 111.48 159.321 110.995 158.837C110.51 158.352 109.852 158.08 109.167 158.08Z" fill="#365DA0" stroke="#9DAFCC" stroke-width="0.6" stroke-miterlimit="10"/>
<path d="M104 158.08C103.315 158.08 102.658 158.352 102.173 158.837C101.688 159.321 101.416 159.979 101.416 160.664V171.676H106.583V160.664C106.583 160.324 106.516 159.988 106.387 159.675C106.257 159.362 106.067 159.077 105.826 158.837C105.587 158.597 105.302 158.407 104.988 158.277C104.675 158.147 104.339 158.08 104 158.08Z" fill="#365DA0" stroke="#9DAFCC" stroke-width="0.6" stroke-miterlimit="10"/>
<path d="M98.8328 158.08C98.1477 158.08 97.4905 158.352 97.0062 158.837C96.5214 159.321 96.2493 159.979 96.2493 160.664V171.676H101.416V160.664C101.416 160.324 101.349 159.988 101.22 159.675C101.09 159.362 100.9 159.077 100.659 158.837C100.42 158.597 100.135 158.407 99.8215 158.277C99.5082 158.147 99.1723 158.08 98.8328 158.08Z" fill="#365DA0" stroke="#9DAFCC" stroke-width="0.6" stroke-miterlimit="10"/>
<path d="M90.5327 171.676H152.112" stroke="#9DAFCC" stroke-width="0.6" stroke-miterlimit="10"/>
<path d="M91.1885 154.579H152.768" stroke="#9DAFCC" stroke-width="0.6" stroke-miterlimit="10"/>
<path d="M109.579 126.954H137.697" stroke="#9DAFCC" stroke-width="0.6" stroke-miterlimit="10"/>
<path d="M131.129 183.955V177.636" stroke="#9DAFCC" stroke-width="0.6" stroke-miterlimit="10" stroke-linecap="round"/>
<path d="M136.465 183.955V177.636" stroke="#9DAFCC" stroke-width="0.6" stroke-miterlimit="10" stroke-linecap="round"/>
<path d="M141.8 183.955V177.636" stroke="#9DAFCC" stroke-width="0.6" stroke-miterlimit="10" stroke-linecap="round"/>
<path d="M119.891 123.621V126.954" stroke="#9DAFCC" stroke-width="0.6" stroke-miterlimit="10"/>
<path d="M125.829 123.621V126.954" stroke="#9DAFCC" stroke-width="0.6" stroke-miterlimit="10"/>
<path d="M131.763 123.621V126.954" stroke="#9DAFCC" stroke-width="0.6" stroke-miterlimit="10"/>
<path d="M251.398 141.808H193.448V150.963H257.89L251.717 144.666L251.398 141.808Z" fill="#F25451" stroke="#9DAFCC" stroke-width="0.6" stroke-linejoin="round"/>
<path d="M193.453 196.381H224.743V150.963H193.453V196.381Z" fill="white" stroke="#9DAFCC" stroke-width="0.6" stroke-miterlimit="10"/>
<path d="M224.743 196.381H255.028V150.963H224.743V196.381Z" fill="white" stroke="#9DAFCC" stroke-width="0.6" stroke-miterlimit="10"/>
<path d="M207.864 144.662H235.986V123.617H207.864V144.662Z" fill="white" stroke="#9DAFCC" stroke-width="0.6" stroke-miterlimit="10"/>
<path d="M239.367 123.621H207.864V117.298H235.073L239.367 123.621Z" fill="#F25451" stroke="#9DAFCC" stroke-width="0.6" stroke-linejoin="round"/>
<path d="M199.852 158.08C200.537 158.08 201.194 158.352 201.679 158.837C202.163 159.321 202.435 159.979 202.435 160.664V171.676H197.264V160.664C197.265 159.978 197.538 159.321 198.023 158.837C198.509 158.352 199.166 158.08 199.852 158.08Z" fill="#365DA0" stroke="#9DAFCC" stroke-width="0.6" stroke-miterlimit="10"/>
<path d="M205.019 158.08C205.704 158.08 206.361 158.352 206.845 158.837C207.33 159.321 207.602 159.979 207.602 160.664V171.676H202.435V160.664C202.435 160.324 202.502 159.988 202.632 159.675C202.762 159.362 202.952 159.077 203.192 158.837C203.432 158.597 203.717 158.407 204.03 158.277C204.343 158.147 204.679 158.08 205.019 158.08Z" fill="#365DA0" stroke="#9DAFCC" stroke-width="0.6" stroke-miterlimit="10"/>
<path d="M210.186 158.08C210.871 158.08 211.528 158.352 212.013 158.837C212.497 159.321 212.769 159.979 212.769 160.664V171.676H207.602V160.664C207.602 160.324 207.669 159.988 207.799 159.675C207.929 159.362 208.119 159.077 208.359 158.837C208.599 158.597 208.884 158.407 209.197 158.277C209.51 158.147 209.846 158.08 210.186 158.08Z" fill="#365DA0" stroke="#9DAFCC" stroke-width="0.6" stroke-miterlimit="10"/>
<path d="M215.353 158.08C216.038 158.08 216.695 158.352 217.18 158.837C217.664 159.321 217.937 159.979 217.937 160.664V171.676H212.77V160.664C212.77 160.324 212.836 159.988 212.966 159.675C213.096 159.362 213.286 159.077 213.526 158.837C213.766 158.597 214.051 158.407 214.364 158.277C214.678 158.147 215.014 158.08 215.353 158.08Z" fill="#365DA0" stroke="#9DAFCC" stroke-width="0.6" stroke-miterlimit="10"/>
<path d="M215.092 129.639C215.777 129.639 216.434 129.911 216.918 130.396C217.403 130.88 217.675 131.538 217.675 132.223V140.487H212.508V132.223C212.508 131.538 212.78 130.88 213.265 130.396C213.749 129.911 214.406 129.639 215.092 129.639Z" fill="#365DA0" stroke="#9DAFCC" stroke-width="0.6" stroke-miterlimit="10"/>
<path d="M220.259 129.639C220.598 129.638 220.935 129.705 221.249 129.835C221.563 129.964 221.848 130.154 222.088 130.394C222.329 130.634 222.52 130.919 222.649 131.233C222.78 131.546 222.847 131.883 222.847 132.223V140.487H217.675V132.223C217.675 131.538 217.947 130.88 218.432 130.396C218.916 129.911 219.573 129.639 220.259 129.639Z" fill="#365DA0" stroke="#9DAFCC" stroke-width="0.6" stroke-miterlimit="10"/>
<path d="M231.209 158.08C231.894 158.08 232.551 158.352 233.035 158.837C233.52 159.321 233.792 159.979 233.792 160.664V171.676H228.643V160.664C228.643 159.982 228.913 159.327 229.393 158.843C229.874 158.359 230.527 158.085 231.209 158.08Z" fill="#365DA0" stroke="#9DAFCC" stroke-width="0.6" stroke-miterlimit="10"/>
<path d="M236.394 158.08C237.079 158.08 237.736 158.352 238.22 158.837C238.705 159.321 238.977 159.979 238.977 160.664V171.676H233.81V160.664C233.81 160.324 233.877 159.988 234.007 159.675C234.137 159.362 234.327 159.077 234.567 158.837C234.807 158.597 235.092 158.407 235.405 158.277C235.718 158.147 236.054 158.08 236.394 158.08Z" fill="#365DA0" stroke="#9DAFCC" stroke-width="0.6" stroke-miterlimit="10"/>
<path d="M241.561 158.08C242.246 158.08 242.903 158.352 243.387 158.837C243.872 159.321 244.144 159.979 244.144 160.664V171.676H238.977V160.664C238.977 160.324 239.044 159.988 239.174 159.675C239.304 159.362 239.494 159.077 239.734 158.837C239.974 158.597 240.259 158.407 240.572 158.277C240.885 158.147 241.221 158.08 241.561 158.08Z" fill="#365DA0" stroke="#9DAFCC" stroke-width="0.6" stroke-miterlimit="10"/>
<path d="M246.719 158.08C247.404 158.08 248.061 158.352 248.545 158.837C249.03 159.321 249.302 159.979 249.302 160.664V171.676H244.144V160.664C244.144 159.98 244.415 159.324 244.897 158.84C245.38 158.356 246.035 158.082 246.719 158.08Z" fill="#365DA0" stroke="#9DAFCC" stroke-width="0.6" stroke-miterlimit="10"/>
<path d="M255.028 171.676H193.448" stroke="#9DAFCC" stroke-width="0.6" stroke-miterlimit="10"/>
<path d="M254.372 154.579H192.792" stroke="#9DAFCC" stroke-width="0.6" stroke-miterlimit="10"/>
<path d="M235.986 126.954H207.864" stroke="#9DAFCC" stroke-width="0.6" stroke-miterlimit="10"/>
<path d="M238.392 184.514V179.249" stroke="#9DAFCC" stroke-width="0.6" stroke-miterlimit="10" stroke-linecap="round"/>
<path d="M214.431 183.955V177.636" stroke="#9DAFCC" stroke-width="0.6" stroke-miterlimit="10" stroke-linecap="round"/>
<path d="M209.096 183.955V177.636" stroke="#9DAFCC" stroke-width="0.6" stroke-miterlimit="10" stroke-linecap="round"/>
<path d="M203.76 183.955V177.636" stroke="#9DAFCC" stroke-width="0.6" stroke-miterlimit="10" stroke-linecap="round"/>
<path d="M225.669 123.621V126.954" stroke="#9DAFCC" stroke-width="0.6" stroke-miterlimit="10"/>
<path d="M219.736 123.621V126.954" stroke="#9DAFCC" stroke-width="0.6" stroke-miterlimit="10"/>
<path d="M213.798 123.621V126.954" stroke="#9DAFCC" stroke-width="0.6" stroke-miterlimit="10"/>
<path d="M203.105 114.351L172.776 97.4093L142.451 114.351H137.697V144.666H207.855V114.351H203.105Z" fill="white" stroke="#9DAFCC" stroke-width="0.6" stroke-miterlimit="10"/>
<path d="M172.776 97.4093L150.685 109.751H194.871L172.776 97.4093Z" fill="#F25451" stroke="#9DAFCC" stroke-width="0.6" stroke-miterlimit="10"/>
<path d="M193.444 109.751H152.107V196.381H193.444V109.751Z" fill="white" stroke="#9DAFCC" stroke-width="0.6" stroke-miterlimit="10"/>
<path d="M255.023 190.195H90.5327V196.381H255.023V190.195Z" fill="#E4EBF5" stroke="#9DAFCC" stroke-width="0.6" stroke-miterlimit="10"/>
<path d="M206.902 118.565H138.605" stroke="#E4EBF5" stroke-width="0.6" stroke-miterlimit="10"/>
<path d="M206.902 122.779H138.605" stroke="#E4EBF5" stroke-width="0.6" stroke-miterlimit="10"/>
<path d="M206.902 126.989H138.605" stroke="#E4EBF5" stroke-width="0.6" stroke-miterlimit="10"/>
<path d="M206.902 131.204H138.605" stroke="#E4EBF5" stroke-width="0.6" stroke-miterlimit="10"/>
<path d="M206.902 135.418H138.605" stroke="#E4EBF5" stroke-width="0.6" stroke-miterlimit="10"/>
<path d="M206.902 139.632H138.605" stroke="#E4EBF5" stroke-width="0.6" stroke-miterlimit="10"/>
<path d="M192.593 143.846H153.007" stroke="#E4EBF5" stroke-width="0.6" stroke-miterlimit="10"/>
<path d="M192.593 148.061H153.007" stroke="#E4EBF5" stroke-width="0.6" stroke-miterlimit="10"/>
<path d="M192.593 152.271H153.007" stroke="#E4EBF5" stroke-width="0.6" stroke-miterlimit="10"/>
<path d="M192.593 156.485H153.007" stroke="#E4EBF5" stroke-width="0.6" stroke-miterlimit="10"/>
<path d="M192.593 160.699H153.007" stroke="#E4EBF5" stroke-width="0.6" stroke-miterlimit="10"/>
<path d="M192.593 164.913H153.007" stroke="#E4EBF5" stroke-width="0.6" stroke-miterlimit="10"/>
<path d="M192.593 169.128H153.007" stroke="#E4EBF5" stroke-width="0.6" stroke-miterlimit="10"/>
<path d="M192.593 173.338H153.007" stroke="#E4EBF5" stroke-width="0.6" stroke-miterlimit="10"/>
<path d="M192.593 177.552H153.007" stroke="#E4EBF5" stroke-width="0.6" stroke-miterlimit="10"/>
<path d="M192.593 181.766H153.007" stroke="#E4EBF5" stroke-width="0.6" stroke-miterlimit="10"/>
<path d="M192.593 185.981H153.007" stroke="#E4EBF5" stroke-width="0.6" stroke-miterlimit="10"/>
<path d="M178.054 128.367C177.72 128.367 177.39 128.433 177.083 128.561C176.775 128.689 176.495 128.876 176.26 129.111C176.024 129.347 175.837 129.627 175.711 129.935C175.584 130.243 175.518 130.573 175.519 130.907V143.846H180.593V130.907C180.593 130.573 180.528 130.243 180.401 129.934C180.273 129.626 180.086 129.346 179.851 129.11C179.614 128.874 179.334 128.687 179.026 128.56C178.718 128.432 178.387 128.367 178.054 128.367Z" fill="#365DA0" stroke="#9DAFCC" stroke-width="0.6" stroke-miterlimit="10"/>
<path d="M172.98 122.779C172.307 122.779 171.662 123.046 171.186 123.522C170.71 123.997 170.442 124.641 170.44 125.314V143.846H175.519V125.332C175.521 124.997 175.456 124.666 175.329 124.356C175.202 124.046 175.016 123.765 174.78 123.528C174.544 123.29 174.263 123.102 173.955 122.974C173.646 122.845 173.314 122.779 172.98 122.779Z" fill="#365DA0" stroke="#9DAFCC" stroke-width="0.6" stroke-miterlimit="10"/>
<path d="M167.901 128.367C167.228 128.367 166.582 128.635 166.106 129.111C165.63 129.587 165.362 130.233 165.362 130.907V143.846H170.44V130.907C170.441 130.573 170.376 130.243 170.249 129.934C170.121 129.626 169.934 129.346 169.698 129.11C169.462 128.874 169.182 128.687 168.874 128.56C168.566 128.432 168.235 128.367 167.901 128.367Z" fill="#365DA0" stroke="#9DAFCC" stroke-width="0.6" stroke-miterlimit="10"/>
<path d="M172.878 167.231V153.068" stroke="#365DA0" stroke-width="0.6" stroke-miterlimit="10" stroke-linecap="round"/>
<path d="M167.711 157.77H178.045" stroke="#365DA0" stroke-width="0.6" stroke-miterlimit="10" stroke-linecap="round"/>
<path d="M172.776 174.592C171.52 174.593 170.316 175.092 169.429 175.981C168.542 176.869 168.043 178.073 168.043 179.329V194.759H177.513V179.329C177.513 178.073 177.014 176.868 176.125 175.979C175.237 175.091 174.032 174.592 172.776 174.592Z" fill="#F25451" stroke="#9DAFCC" stroke-width="0.6" stroke-miterlimit="10"/>
<path d="M120.822 190.195V196.381" stroke="#9DAFCC" stroke-width="0.6" stroke-miterlimit="10"/>
<path d="M152.107 190.195V196.381" stroke="#9DAFCC" stroke-width="0.6" stroke-miterlimit="10"/>
<path d="M193.453 190.195V196.381" stroke="#9DAFCC" stroke-width="0.6" stroke-miterlimit="10"/>
<path d="M224.739 190.195V196.381" stroke="#9DAFCC" stroke-width="0.6" stroke-miterlimit="10"/>
<path d="M154.354 81.9038C153.876 81.9038 153.402 81.9982 152.959 82.1817C152.517 82.3647 152.115 82.6337 151.777 82.9722C151.439 83.3112 151.17 83.7132 150.988 84.1554C150.805 84.5981 150.711 85.0723 150.712 85.5509V97.4139H158.001V85.5376C157.999 84.5724 157.614 83.6476 156.93 82.966C156.246 82.2849 155.319 81.9025 154.354 81.9038Z" fill="#365DA0" stroke="#9DAFCC" stroke-width="0.6" stroke-miterlimit="10"/>
<path d="M166.665 81.9038C165.698 81.9038 164.77 82.288 164.086 82.9722C163.402 83.656 163.018 84.5835 163.018 85.5509V97.4138H170.312V85.5376C170.308 84.5729 169.922 83.6485 169.239 82.9674C168.555 82.2862 167.63 81.9038 166.665 81.9038Z" fill="#365DA0" stroke="#9DAFCC" stroke-width="0.6" stroke-miterlimit="10"/>
<path d="M178.975 81.9038C178.496 81.9034 178.022 81.9973 177.579 82.1803C177.136 82.3634 176.734 82.6319 176.395 82.9709C176.056 83.3095 175.788 83.7118 175.605 84.1545C175.422 84.5972 175.328 85.0718 175.328 85.5509V97.4138H182.623V85.5376C182.619 84.5729 182.233 83.6485 181.55 82.9674C180.866 82.2862 179.941 81.9038 178.975 81.9038Z" fill="#365DA0" stroke="#9DAFCC" stroke-width="0.6" stroke-miterlimit="10"/>
<path d="M191.286 81.9038C190.807 81.9034 190.332 81.9973 189.889 82.1803C189.447 82.3634 189.044 82.6319 188.706 82.9709C188.367 83.3095 188.098 83.7118 187.915 84.1545C187.732 84.5972 187.638 85.0718 187.639 85.5509V97.4138H194.928V85.5376C194.926 84.5729 194.541 83.6489 193.858 82.9678C193.175 82.2862 192.25 81.9038 191.286 81.9038Z" fill="#365DA0" stroke="#9DAFCC" stroke-width="0.6" stroke-miterlimit="10"/>
<path d="M172.82 64.8649V47.6621" stroke="#9DAFCC" stroke-width="0.6" stroke-linejoin="round"/>
<path d="M176.698 53.414H168.943" stroke="#9DAFCC" stroke-width="0.6" stroke-linejoin="round"/>
<path d="M175.142 50.6399H170.498" stroke="#9DAFCC" stroke-width="0.6" stroke-linejoin="round"/>
<path d="M175.151 59.6312L170.489 62.1704" stroke="#9DAFCC" stroke-width="0.6" stroke-linejoin="round"/>
<path d="M116.222 196.266V187.904L111.13 185.865L107.736 177.521L100.947 171.561L99.5906 164.763L92.1236 157.965H84.3154V152.155L79.9017 146.27L80.0081 127.242L73.7952 118.45H51.0531V134.026L47.9954 140.372H42.5669V152.155L37.4751 160.034V169.013L33.7394 171.561V181.766H27.2917L16.1599 196.266H116.222Z" fill="#E4EBF5" stroke="#9DAFCC" stroke-width="0.6" stroke-miterlimit="10" stroke-linecap="round"/>
<path d="M80.0081 127.242L78.0405 124.459H74.4111V140.7H79.9327L80.0081 127.242Z" fill="#365DA0" stroke="#9DAFCC" stroke-width="0.6" stroke-miterlimit="10" stroke-linecap="round"/>
<path d="M79.9017 146.27L79.9062 145.699H71.9119L77.2074 151.832V157.965H84.3155V152.155L79.9017 146.27Z" fill="#365DA0" stroke="#9DAFCC" stroke-width="0.6" stroke-miterlimit="10" stroke-linecap="round"/>
<path d="M66.1908 142.419L61.4492 136.956V118.45H51.0531V118.49L55.356 124.459V139.14L59.8849 143.979L60.1995 160.69L55.5155 166.159V181.766H33.7394H27.2917L16.1599 196.266H71.9118V189.016V181.766V166.159V159.91L66.1908 152.882V142.419Z" fill="#365DA0" stroke="#9DAFCC" stroke-width="0.6" stroke-miterlimit="10" stroke-linecap="round"/>
<path d="M69.2218 112.942H54.2258V118.445H69.2218V112.942Z" fill="#F25451" stroke="#9DAFCC" stroke-width="0.6" stroke-miterlimit="10" stroke-linecap="round"/>
<path d="M69.2218 50.5869H54.2258V56.0908H55.3603V58.8427H68.0874V56.0908H69.2218V50.5869Z" fill="#F25451" stroke="#9DAFCC" stroke-width="0.6" stroke-miterlimit="10" stroke-linecap="round"/>
<path d="M65.5971 58.8381H57.8509L56.9292 112.946H66.5188L65.5971 58.8381Z" fill="#F25451" stroke="#9DAFCC" stroke-width="0.6" stroke-miterlimit="10" stroke-linecap="round"/>
<path d="M61.5601 43.9883L56.9292 50.5868H66.1909L61.5601 43.9883Z" fill="#F25451" stroke="#9DAFCC" stroke-width="0.6" stroke-linecap="round" stroke-linejoin="round"/>
<path d="M53.0959 38.3294C53.0959 38.3294 56.6987 38.5288 58.2985 39.1315C60.0976 38.3294 62.2867 37.7312 62.6989 40.1286C65.0325 40.6358 67.2469 41.5866 69.2219 42.9292H63.501L61.56 43.9884L58.2985 41.1567L53.0959 38.3294Z" fill="#F25451" stroke="#9DAFCC" stroke-width="0.6" stroke-linecap="round" stroke-linejoin="round"/>
</g>
</g>
<defs>
<filter id="filter0_dd_202_440" x="-11.9112" y="-11.9112" width="296.822" height="263.822" filterUnits="userSpaceOnUse" color-interpolation-filters="sRGB">
<feFlood flood-opacity="0" result="BackgroundImageFix"/>
<feColorMatrix in="SourceAlpha" type="matrix" values="0 0 0 0 0 0 0 0 0 0 0 0 0 0 0 0 0 0 127 0" result="hardAlpha"/>
<feOffset/>
<feGaussianBlur stdDeviation="5.95559"/>
<feComposite in2="hardAlpha" operator="out"/>
<feColorMatrix type="matrix" values="0 0 0 0 0.568627 0 0 0 0 0.741176 0 0 0 0 0.866667 0 0 0 1 0"/>
<feBlend mode="normal" in2="BackgroundImageFix" result="effect1_dropShadow_202_440"/>
<feColorMatrix in="SourceAlpha" type="matrix" values="0 0 0 0 0 0 0 0 0 0 0 0 0 0 0 0 0 0 127 0" result="hardAlpha"/>
<feOffset dy="2.38223"/>
<feGaussianBlur stdDeviation="2.97779"/>
<feComposite in2="hardAlpha" operator="out"/>
<feColorMatrix type="matrix" values="0 0 0 0 0 0 0 0 0 0 0 0 0 0 0 0 0 0 0.1 0"/>
<feBlend mode="normal" in2="effect1_dropShadow_202_440" result="effect2_dropShadow_202_440"/>
<feBlend mode="normal" in="SourceGraphic" in2="effect2_dropShadow_202_440" result="shape"/>
</filter>
<filter id="filter1_dd_202_440" x="3.64022" y="26.1182" width="266.461" height="182.474" filterUnits="userSpaceOnUse" color-interpolation-filters="sRGB">
<feFlood flood-opacity="0" result="BackgroundImageFix"/>
<feColorMatrix in="SourceAlpha" type="matrix" values="0 0 0 0 0 0 0 0 0 0 0 0 0 0 0 0 0 0 127 0" result="hardAlpha"/>
<feOffset/>
<feGaussianBlur stdDeviation="5.95559"/>
<feComposite in2="hardAlpha" operator="out"/>
<feColorMatrix type="matrix" values="0 0 0 0 0.568627 0 0 0 0 0.741176 0 0 0 0 0.866667 0 0 0 1 0"/>
<feBlend mode="normal" in2="BackgroundImageFix" result="effect1_dropShadow_202_440"/>
<feColorMatrix in="SourceAlpha" type="matrix" values="0 0 0 0 0 0 0 0 0 0 0 0 0 0 0 0 0 0 127 0" result="hardAlpha"/>
<feOffset dy="2.38223"/>
<feGaussianBlur stdDeviation="2.97779"/>
<feComposite in2="hardAlpha" operator="out"/>
<feColorMatrix type="matrix" values="0 0 0 0 0 0 0 0 0 0 0 0 0 0 0 0 0 0 0.1 0"/>
<feBlend mode="normal" in2="effect1_dropShadow_202_440" result="effect2_dropShadow_202_440"/>
<feBlend mode="normal" in="SourceGraphic" in2="effect2_dropShadow_202_440" result="shape"/>
</filter>
</defs>
</svg>
