<svg width="273" height="240" viewBox="0 0 273 240" fill="none" xmlns="http://www.w3.org/2000/svg">
<g filter="url(#filter0_dd_202_545)">
<g filter="url(#filter1_dd_202_545)">
<path d="M136.457 103.067H44.4456V122.244H136.457V103.067Z" fill="white" stroke="#9DAFCC" stroke-width="0.6" stroke-linejoin="round"/>
<path d="M136.457 114.239H44.4456V122.244H136.457V114.239Z" fill="white" stroke="#9DAFCC" stroke-width="0.6" stroke-linejoin="round"/>
<path d="M135.992 119.377H44.4883V174.032H135.992V119.377Z" fill="#E4EBF5" stroke="#9DAFCC" stroke-width="0.6" stroke-linejoin="round"/>
<path d="M136.457 158.708H16.4819V174.032H136.457V158.708Z" fill="#9DAFCC" stroke="#9DAFCC" stroke-width="0.6" stroke-linejoin="round"/>
<path d="M68.7052 155.452C68.2639 155.452 67.8265 155.538 67.4186 155.707C67.0106 155.875 66.6398 156.123 66.3279 156.435C66.0155 156.747 65.7676 157.117 65.5986 157.525C65.4296 157.933 65.3425 158.37 65.3425 158.811V174.054H72.0635V158.789C72.058 157.903 71.7017 157.054 71.0722 156.429C70.4432 155.803 69.5923 155.452 68.7052 155.452Z" fill="#F25451" stroke="#9DAFCC" stroke-width="0.6" stroke-miterlimit="10"/>
<path d="M54.3843 130.275C53.943 130.275 53.5056 130.362 53.0981 130.531C52.6901 130.7 52.3197 130.948 52.0082 131.26C51.6963 131.573 51.4488 131.943 51.2802 132.351C51.1117 132.759 51.0255 133.196 51.0259 133.638V144.579H57.7554V133.625C57.7541 133.183 57.6662 132.747 57.496 132.339C57.3261 131.932 57.0774 131.562 56.7641 131.251C56.4513 130.94 56.0797 130.694 55.6713 130.526C55.2629 130.359 54.8255 130.274 54.3843 130.275Z" fill="#365DA0" stroke="#9DAFCC" stroke-width="0.6" stroke-miterlimit="10"/>
<path d="M51.0642 134.654H57.781" stroke="#9DAFCC" stroke-width="0.6" stroke-linejoin="round"/>
<path d="M68.7052 130.275C67.8133 130.275 66.9581 130.63 66.3274 131.26C65.6967 131.891 65.3425 132.746 65.3425 133.638V144.579H72.0635V133.625C72.0614 132.736 71.7064 131.884 71.0769 131.256C70.4475 130.628 69.5945 130.275 68.7052 130.275Z" fill="#365DA0" stroke="#9DAFCC" stroke-width="0.6" stroke-miterlimit="10"/>
<path d="M65.3425 134.654H72.0635" stroke="#9DAFCC" stroke-width="0.6" stroke-linejoin="round"/>
<path d="M83.0262 130.275C82.1343 130.275 81.2792 130.63 80.6485 131.26C80.0178 131.891 79.6636 132.746 79.6636 133.638V144.579H86.3846V133.625C86.3812 132.736 86.0261 131.885 85.3967 131.257C84.7673 130.63 83.9151 130.277 83.0262 130.275Z" fill="#365DA0" stroke="#9DAFCC" stroke-width="0.6" stroke-miterlimit="10"/>
<path d="M79.6594 134.654H86.3804" stroke="#9DAFCC" stroke-width="0.6" stroke-linejoin="round"/>
<path d="M54.3841 155.452C51.9688 155.452 50.0144 156.489 50.0144 158.9V168.549H58.7539V158.866C58.7539 156.468 56.7952 155.452 54.3841 155.452Z" fill="#365DA0" stroke="#9DAFCC" stroke-width="0.6" stroke-miterlimit="10"/>
<path d="M54.384 155.431V168.527" stroke="#9DAFCC" stroke-width="0.6" stroke-miterlimit="10"/>
<path d="M83.022 155.452C80.6067 155.452 78.665 156.468 78.665 158.866V168.515H87.4045V158.866C87.3917 156.468 85.433 155.452 83.022 155.452Z" fill="#365DA0" stroke="#9DAFCC" stroke-width="0.6" stroke-miterlimit="10"/>
<path d="M83.022 155.431V168.527" stroke="#9DAFCC" stroke-width="0.6" stroke-miterlimit="10"/>
<path d="M111.779 155.452C111.338 155.452 110.901 155.538 110.493 155.707C110.085 155.875 109.714 156.123 109.402 156.435C109.09 156.747 108.842 157.117 108.673 157.525C108.504 157.933 108.417 158.37 108.417 158.811V174.054H115.138V158.789C115.132 157.903 114.776 157.054 114.146 156.429C113.517 155.803 112.667 155.452 111.779 155.452Z" fill="#F25451" stroke="#9DAFCC" stroke-width="0.6" stroke-miterlimit="10"/>
<path d="M97.4414 130.275C97.0001 130.275 96.5627 130.362 96.1552 130.531C95.7473 130.7 95.3769 130.948 95.0653 131.261C94.7534 131.573 94.5059 131.943 94.3373 132.351C94.1688 132.759 94.0826 133.197 94.083 133.638V144.579H100.8V133.625C100.798 132.736 100.443 131.884 99.8132 131.256C99.1837 130.628 98.3307 130.275 97.4414 130.275Z" fill="#365DA0" stroke="#9DAFCC" stroke-width="0.6" stroke-miterlimit="10"/>
<path d="M94.1384 134.654H100.855" stroke="#9DAFCC" stroke-width="0.6" stroke-linejoin="round"/>
<path d="M111.779 130.275C110.888 130.275 110.032 130.63 109.402 131.26C108.771 131.891 108.417 132.746 108.417 133.638V144.579H115.138V133.625C115.136 132.736 114.781 131.884 114.151 131.256C113.522 130.628 112.669 130.275 111.779 130.275Z" fill="#365DA0" stroke="#9DAFCC" stroke-width="0.6" stroke-miterlimit="10"/>
<path d="M108.417 134.654H115.138" stroke="#9DAFCC" stroke-width="0.6" stroke-linejoin="round"/>
<path d="M126.101 130.275C125.209 130.275 124.354 130.63 123.723 131.26C123.092 131.891 122.738 132.746 122.738 133.638V144.579H129.446V133.625C129.443 132.738 129.089 131.889 128.463 131.262C127.836 130.634 126.987 130.28 126.101 130.275Z" fill="#365DA0" stroke="#9DAFCC" stroke-width="0.6" stroke-miterlimit="10"/>
<path d="M122.734 134.654H129.455" stroke="#9DAFCC" stroke-width="0.6" stroke-linejoin="round"/>
<path d="M97.4413 155.452C95.026 155.452 93.0715 156.489 93.0715 158.9V168.549H101.811V158.866C101.828 156.468 99.8694 155.452 97.4413 155.452Z" fill="#365DA0" stroke="#9DAFCC" stroke-width="0.6" stroke-miterlimit="10"/>
<path d="M97.4583 155.431V168.527" stroke="#9DAFCC" stroke-width="0.6" stroke-miterlimit="10"/>
<path d="M126.096 155.452C123.681 155.452 121.727 156.489 121.727 158.9V168.549H130.466V158.866C130.466 156.468 128.507 155.452 126.096 155.452Z" fill="#365DA0" stroke="#9DAFCC" stroke-width="0.6" stroke-miterlimit="10"/>
<path d="M126.096 155.431V168.527" stroke="#9DAFCC" stroke-width="0.6" stroke-miterlimit="10"/>
<path d="M156.066 63.0181H144.527V66.2826H156.066V63.0181Z" fill="white" stroke="#9DAFCC" stroke-width="0.6" stroke-miterlimit="10"/>
<path d="M164.421 119.377H136.457V174.032H164.421V119.377Z" fill="#E4EBF5" stroke="#9DAFCC" stroke-width="0.6" stroke-linejoin="round"/>
<path d="M164.421 158.708H136.457V174.032H164.421V158.708Z" fill="#F25451" stroke="#9DAFCC" stroke-width="0.6" stroke-linejoin="round"/>
<path d="M144.672 66.2828L136.457 98.0229H164.421L156.206 66.2828H144.672Z" fill="white" stroke="#9DAFCC" stroke-width="0.6" stroke-miterlimit="10"/>
<path d="M146.818 66.2828L141.659 98.0229H159.219L154.06 66.2828H146.818Z" fill="white" stroke="#9DAFCC" stroke-width="0.6" stroke-miterlimit="10"/>
<path d="M166.93 98.0229H133.948V119.377H166.93V98.0229Z" fill="#E4EBF5" stroke="#9DAFCC" stroke-width="0.6" stroke-linejoin="round"/>
<path d="M150.441 128.103C149.285 128.107 148.177 128.569 147.361 129.388C146.545 130.207 146.087 131.316 146.089 132.473V146.704H154.824V132.473C154.824 131.898 154.711 131.328 154.491 130.797C154.271 130.266 153.948 129.783 153.541 129.377C153.134 128.971 152.65 128.649 152.118 128.431C151.586 128.212 151.017 128.101 150.441 128.103Z" fill="#365DA0" stroke="#9DAFCC" stroke-width="0.6" stroke-miterlimit="10"/>
<path d="M146.072 134.163H154.807" stroke="#9DAFCC" stroke-width="0.6" stroke-miterlimit="10"/>
<path d="M150.441 155.452C148.026 155.452 146.089 156.468 146.089 158.866V168.515H154.824V158.866C154.807 156.468 152.852 155.452 150.441 155.452Z" fill="#365DA0" stroke="#9DAFCC" stroke-width="0.6" stroke-miterlimit="10"/>
<path d="M150.441 155.431V168.527" stroke="#9DAFCC" stroke-width="0.6" stroke-miterlimit="10"/>
<path d="M143.328 115.536V122.244" stroke="#9DAFCC" stroke-width="0.6" stroke-linecap="round" stroke-linejoin="round"/>
<path d="M150.441 115.536V122.244" stroke="#9DAFCC" stroke-width="0.6" stroke-linecap="round" stroke-linejoin="round"/>
<path d="M157.551 115.536V122.244" stroke="#9DAFCC" stroke-width="0.6" stroke-linecap="round" stroke-linejoin="round"/>
<path d="M167.775 105.376H133.103V109.476H167.775V105.376Z" fill="white" stroke="#9DAFCC" stroke-width="0.6" stroke-linecap="round" stroke-linejoin="round"/>
<path d="M150.296 91.6945L143.328 98.0229V105.376H157.26V98.0229L150.296 91.6945Z" fill="#E4EBF5" stroke="#9DAFCC" stroke-width="0.6" stroke-miterlimit="10"/>
<path d="M150.441 96.7343C149.695 96.7343 148.98 97.0304 148.453 97.5578C147.925 98.0853 147.629 98.8005 147.629 99.5464V105.376H153.249V99.5507C153.25 99.1816 153.178 98.8154 153.037 98.474C152.896 98.1326 152.689 97.8224 152.429 97.5608C152.168 97.2992 151.858 97.0919 151.517 96.9502C151.176 96.8081 150.81 96.7347 150.441 96.7343Z" fill="#9DAFCC" stroke="#9DAFCC" stroke-width="0.6" stroke-miterlimit="10"/>
<path d="M141.514 95.454C141.276 95.454 141.04 95.501 140.821 95.5923C140.601 95.6832 140.401 95.8172 140.233 95.9853C140.065 96.1539 139.932 96.354 139.841 96.5738C139.75 96.794 139.704 97.0295 139.705 97.2676V105.376H143.328V97.2676C143.328 96.7867 143.137 96.3254 142.796 95.9853C142.456 95.6452 141.995 95.454 141.514 95.454Z" fill="#E4EBF5" stroke="#9DAFCC" stroke-width="0.6" stroke-miterlimit="10"/>
<path d="M159.074 95.454C158.593 95.454 158.132 95.6452 157.792 95.9853C157.452 96.3254 157.26 96.7867 157.26 97.2676V105.376H160.888V97.2676C160.888 96.7867 160.697 96.3254 160.356 95.9853C160.016 95.6452 159.555 95.454 159.074 95.454Z" fill="#E4EBF5" stroke="#9DAFCC" stroke-width="0.6" stroke-miterlimit="10"/>
<path d="M136.457 124.958H164.421" stroke="#9DAFCC" stroke-width="0.6" stroke-linejoin="round"/>
<path d="M43.6604 151.74H164.421" stroke="#9DAFCC" stroke-width="0.6" stroke-linejoin="round"/>
<path d="M133.948 112.502H166.93" stroke="#9DAFCC" stroke-width="0.6" stroke-linejoin="round"/>
<path d="M36.2353 63.0181H24.6965V66.2826H36.2353V63.0181Z" fill="white" stroke="#9DAFCC" stroke-width="0.6" stroke-miterlimit="10"/>
<path d="M44.4456 119.377H16.4819V174.032H44.4456V119.377Z" fill="#E4EBF5" stroke="#9DAFCC" stroke-width="0.6" stroke-linejoin="round"/>
<path d="M44.4456 158.708H16.4819V174.032H44.4456V158.708Z" fill="#9DAFCC" stroke="#9DAFCC" stroke-width="0.6" stroke-linejoin="round"/>
<path d="M24.6965 66.2828L16.4819 98.0229H44.4456L36.2353 66.2828H24.6965Z" fill="white" stroke="#9DAFCC" stroke-width="0.6" stroke-miterlimit="10"/>
<path d="M26.8429 66.2828L21.688 98.0229H39.2437L34.0888 66.2828H26.8429Z" fill="white" stroke="#9DAFCC" stroke-width="0.6" stroke-miterlimit="10"/>
<path d="M46.9547 98.0229H13.9727V119.377H46.9547V98.0229Z" fill="#E4EBF5" stroke="#9DAFCC" stroke-width="0.6" stroke-linejoin="round"/>
<path d="M30.4659 128.103C29.8919 128.103 29.3234 128.215 28.793 128.435C28.2626 128.654 27.7807 128.976 27.3748 129.382C26.9689 129.788 26.6471 130.27 26.4277 130.8C26.2083 131.331 26.0956 131.899 26.0962 132.473V146.704H34.8356V132.473C34.8356 131.314 34.3752 130.202 33.5558 129.383C32.7363 128.564 31.6248 128.103 30.4659 128.103Z" fill="#365DA0" stroke="#9DAFCC" stroke-width="0.6" stroke-miterlimit="10"/>
<path d="M26.0962 134.163H34.8356" stroke="#9DAFCC" stroke-width="0.6" stroke-miterlimit="10"/>
<path d="M30.4659 155.452C28.0506 155.452 26.0962 156.489 26.0962 158.9V168.549H34.8356V158.866C34.8356 156.468 32.8769 155.452 30.4659 155.452Z" fill="#365DA0" stroke="#9DAFCC" stroke-width="0.6" stroke-miterlimit="10"/>
<path d="M30.4658 155.431V168.527" stroke="#9DAFCC" stroke-width="0.6" stroke-miterlimit="10"/>
<path d="M23.3523 115.536V122.244" stroke="#9DAFCC" stroke-width="0.6" stroke-linecap="round" stroke-linejoin="round"/>
<path d="M30.4658 115.536V122.244" stroke="#9DAFCC" stroke-width="0.6" stroke-linecap="round" stroke-linejoin="round"/>
<path d="M37.5752 115.536V122.244" stroke="#9DAFCC" stroke-width="0.6" stroke-linecap="round" stroke-linejoin="round"/>
<path d="M47.7996 105.376H13.1277V109.476H47.7996V105.376Z" fill="white" stroke="#9DAFCC" stroke-width="0.6" stroke-linecap="round" stroke-linejoin="round"/>
<path d="M30.3208 91.6945L23.3523 98.0229V105.376H37.2893V98.0229L30.3208 91.6945Z" fill="#E4EBF5" stroke="#9DAFCC" stroke-width="0.6" stroke-miterlimit="10"/>
<path d="M30.466 96.7343C30.0963 96.7343 29.7303 96.8072 29.3888 96.9489C29.0473 97.0901 28.7372 97.298 28.476 97.5595C28.2148 97.8211 28.0077 98.1314 27.8667 98.4732C27.7256 98.815 27.6533 99.1811 27.6538 99.5507V105.38H33.2739V99.5507C33.275 99.1811 33.2032 98.8154 33.0626 98.4736C32.922 98.1318 32.7153 97.8216 32.4545 97.5595C32.1936 97.298 31.8837 97.0906 31.5425 96.9489C31.2013 96.8072 30.8354 96.7343 30.466 96.7343Z" fill="#9DAFCC" stroke="#9DAFCC" stroke-width="0.6" stroke-miterlimit="10"/>
<path d="M21.5429 95.454C21.0618 95.454 20.6005 95.6452 20.2604 95.9853C19.9203 96.3254 19.7292 96.7867 19.7292 97.2676V105.376H23.3522V97.2676C23.3527 97.0295 23.3064 96.794 23.2157 96.5738C23.125 96.354 22.9918 96.1539 22.8238 95.9853C22.6557 95.8172 22.4561 95.6832 22.2362 95.5923C22.0164 95.501 21.7808 95.454 21.5429 95.454Z" fill="#E4EBF5" stroke="#9DAFCC" stroke-width="0.6" stroke-miterlimit="10"/>
<path d="M39.0986 95.4541C38.8592 95.4515 38.6218 95.4972 38.4 95.5872C38.1782 95.6773 37.9765 95.8108 37.8067 95.9794C37.6368 96.1479 37.5021 96.3489 37.4103 96.57C37.3186 96.791 37.2717 97.0283 37.2722 97.2677V105.376H40.8952V97.2677C40.8952 96.7897 40.7065 96.331 40.37 95.9913C40.0336 95.6517 39.5767 95.4583 39.0986 95.4541Z" fill="#E4EBF5" stroke="#9DAFCC" stroke-width="0.6" stroke-miterlimit="10"/>
<path d="M16.4819 124.958H44.4456" stroke="#9DAFCC" stroke-width="0.6" stroke-linejoin="round"/>
<path d="M16.4819 151.74H44.4456" stroke="#9DAFCC" stroke-width="0.6" stroke-linejoin="round"/>
<path d="M13.9727 112.502H46.959" stroke="#9DAFCC" stroke-width="0.6" stroke-linejoin="round"/>
<path d="M72.0637 114.239V119.377" stroke="#9DAFCC" stroke-width="0.6" stroke-linejoin="round"/>
<path d="M108.417 114.239V119.377" stroke="#9DAFCC" stroke-width="0.6" stroke-linejoin="round"/>
<path d="M170.882 133.681H135.749V181.24H170.882V133.681Z" fill="#E4EBF5" stroke="#9DAFCC" stroke-width="0.6" stroke-linejoin="round"/>
<path d="M175.23 128.474H135.749V133.681H175.23V128.474Z" fill="#F25451" stroke="#9DAFCC" stroke-width="0.6" stroke-linejoin="round"/>
<path d="M175.23 140.423H135.749V145.629H175.23V140.423Z" fill="#F25451" stroke="#9DAFCC" stroke-width="0.6" stroke-linejoin="round"/>
<path d="M129.634 77.3265C129.634 77.3265 128.021 80.1302 125.401 80.6166C121.876 81.2781 120.566 83.305 120.566 85.635C120.565 86.2168 120.679 86.7931 120.902 87.3307C121.125 87.8684 121.451 88.3569 121.862 88.7684C122.273 89.1798 122.762 89.506 123.3 89.7284C123.837 89.9508 124.414 90.065 124.995 90.0645H134.273C135.447 90.0645 136.574 89.5978 137.405 88.7671C138.235 87.9364 138.702 86.8097 138.702 85.635C138.702 83.305 137.392 81.2781 133.863 80.6166C131.247 80.1302 129.634 77.3265 129.634 77.3265Z" fill="#F25451" stroke="#9DAFCC" stroke-width="0.6" stroke-linejoin="round"/>
<path d="M202.268 74.5102C202.268 76.4091 200.561 77.9539 198.427 77.9539C196.293 77.9539 194.608 76.4091 194.608 74.5102C194.608 72.6112 198.427 69.1376 198.427 69.1376C198.427 69.1376 202.268 72.607 202.268 74.5102Z" fill="#F25451" stroke="#9DAFCC" stroke-width="0.6" stroke-linejoin="round"/>
<path d="M217.003 94.3318C217.003 89.5652 214.323 85.4088 207.103 84.0604C201.747 83.0618 199.908 77.3265 199.908 77.3265H196.981C196.981 77.3265 195.163 83.0618 189.786 84.0604C182.566 85.4088 179.886 89.5652 179.886 94.3318C179.887 96.7351 180.842 99.039 182.542 100.738C184.242 102.437 186.547 103.391 188.95 103.391H207.965C210.364 103.386 212.663 102.429 214.357 100.73C216.051 99.0317 217.003 96.7308 217.003 94.3318Z" fill="#F25451" stroke="#9DAFCC" stroke-width="0.6" stroke-miterlimit="10"/>
<path d="M217.434 115.873H179.331V122.419H217.434V115.873Z" fill="#E4EBF5" stroke="#9DAFCC" stroke-width="0.6" stroke-miterlimit="10"/>
<path d="M215.249 99.5378H181.511V115.877H215.249V99.5378Z" fill="#E4EBF5" stroke="#9DAFCC" stroke-width="0.6" stroke-miterlimit="10"/>
<path d="M184.068 105.755C184.747 105.755 185.398 106.025 185.878 106.506C186.358 106.986 186.628 107.637 186.628 108.316V115.86H181.507V108.328C181.506 107.991 181.571 107.657 181.699 107.345C181.827 107.033 182.015 106.749 182.253 106.51C182.491 106.271 182.773 106.081 183.085 105.952C183.396 105.822 183.731 105.755 184.068 105.755Z" fill="#365DA0" stroke="#9DAFCC" stroke-width="0.6" stroke-miterlimit="10"/>
<path d="M193.618 105.755C194.297 105.755 194.948 106.025 195.429 106.505C195.909 106.985 196.178 107.637 196.178 108.316V115.86H191.041V108.329C191.039 107.99 191.105 107.654 191.233 107.341C191.362 107.027 191.552 106.743 191.792 106.504C192.032 106.264 192.316 106.075 192.63 105.947C192.943 105.818 193.279 105.753 193.618 105.755Z" fill="#365DA0" stroke="#9DAFCC" stroke-width="0.6" stroke-miterlimit="10"/>
<path d="M203.147 105.755C203.826 105.755 204.477 106.025 204.958 106.505C205.438 106.985 205.707 107.637 205.707 108.316V115.86H200.574V108.328C200.572 107.99 200.637 107.655 200.766 107.342C200.895 107.029 201.085 106.744 201.324 106.505C201.563 106.266 201.847 106.076 202.16 105.948C202.473 105.819 202.809 105.754 203.147 105.755Z" fill="#365DA0" stroke="#9DAFCC" stroke-width="0.6" stroke-miterlimit="10"/>
<path d="M212.659 105.755C213.338 105.755 213.989 106.025 214.469 106.506C214.949 106.986 215.219 107.637 215.219 108.316V115.86H210.098V108.328C210.096 107.991 210.161 107.657 210.289 107.345C210.417 107.033 210.606 106.749 210.844 106.51C211.081 106.271 211.364 106.081 211.676 105.952C211.987 105.822 212.321 105.755 212.659 105.755Z" fill="#365DA0" stroke="#9DAFCC" stroke-width="0.6" stroke-miterlimit="10"/>
<path d="M181.511 102.896H215.249" stroke="#9DAFCC" stroke-width="0.6" stroke-miterlimit="10"/>
<path d="M259.527 128.474H177.355V122.423H251.274L259.527 128.474Z" fill="#F25451" stroke="#9DAFCC" stroke-width="0.6" stroke-linejoin="round"/>
<path d="M256.522 128.474H221.569V181.24H256.522V128.474Z" fill="#E4EBF5" stroke="#9DAFCC" stroke-width="0.6" stroke-linejoin="round"/>
<path d="M248.931 145.104C249.61 145.104 250.261 145.374 250.741 145.854C251.221 146.334 251.491 146.986 251.491 147.665V158.636H246.336V147.677C246.335 147.337 246.401 147 246.531 146.686C246.661 146.372 246.852 146.086 247.094 145.847C247.335 145.607 247.622 145.418 247.937 145.291C248.253 145.163 248.591 145.1 248.931 145.104Z" fill="#365DA0" stroke="#9DAFCC" stroke-width="0.6" stroke-miterlimit="10"/>
<path d="M198.444 69.1375V52" stroke="#9DAFCC" stroke-width="0.6" stroke-linejoin="round"/>
<path d="M202.306 57.7311H194.582" stroke="#9DAFCC" stroke-width="0.6" stroke-linejoin="round"/>
<path d="M200.757 54.9659H196.131" stroke="#9DAFCC" stroke-width="0.6" stroke-linejoin="round"/>
<path d="M200.77 63.9272L196.123 66.4535" stroke="#9DAFCC" stroke-width="0.6" stroke-linejoin="round"/>
<path d="M129.647 77.3264V60.1889" stroke="#9DAFCC" stroke-width="0.6" stroke-linejoin="round"/>
<path d="M133.508 65.9242H125.785" stroke="#9DAFCC" stroke-width="0.6" stroke-linejoin="round"/>
<path d="M131.959 63.1548H127.334" stroke="#9DAFCC" stroke-width="0.6" stroke-linejoin="round"/>
<path d="M131.972 72.1161L127.321 74.6424" stroke="#9DAFCC" stroke-width="0.6" stroke-linejoin="round"/>
<path d="M175.23 140.423H154.743V181.24H175.23V140.423Z" fill="#E4EBF5" stroke="#9DAFCC" stroke-width="0.6" stroke-miterlimit="10"/>
<path d="M160.589 133.681H175.23V140.427H151.064L160.589 133.681Z" fill="#F25451" stroke="#9DAFCC" stroke-width="0.6" stroke-linejoin="round"/>
<path d="M166.717 140.423V181.24" stroke="#9DAFCC" stroke-width="0.6" stroke-linejoin="round"/>
<path d="M160.73 145.104C160.051 145.104 159.4 145.374 158.919 145.854C158.439 146.334 158.169 146.986 158.169 147.665V158.636H163.316V147.677C163.318 147.338 163.252 147.001 163.122 146.688C162.993 146.374 162.802 146.089 162.561 145.85C162.321 145.61 162.035 145.421 161.721 145.293C161.406 145.165 161.069 145.101 160.73 145.104Z" fill="#365DA0" stroke="#9DAFCC" stroke-width="0.6" stroke-miterlimit="10"/>
<path d="M221.531 181.244H242.018V140.427H221.531V181.244Z" fill="#E4EBF5" stroke="#9DAFCC" stroke-width="0.6" stroke-miterlimit="10"/>
<path d="M236.172 133.681H221.535V140.427H245.7L236.172 133.681Z" fill="#F25451" stroke="#9DAFCC" stroke-width="0.6" stroke-linejoin="round"/>
<path d="M230.048 140.423V181.24" stroke="#9DAFCC" stroke-width="0.6" stroke-linejoin="round"/>
<path d="M236.035 145.104C236.714 145.104 237.365 145.374 237.846 145.854C238.326 146.334 238.596 146.985 238.596 147.665V158.636H233.462V147.677C233.46 147.339 233.526 147.004 233.654 146.69C233.783 146.378 233.973 146.093 234.212 145.854C234.451 145.615 234.735 145.425 235.049 145.297C235.361 145.168 235.697 145.102 236.035 145.104Z" fill="#365DA0" stroke="#9DAFCC" stroke-width="0.6" stroke-miterlimit="10"/>
<path d="M181.158 128.474C181.158 125.133 179.451 122.423 177.317 122.423C175.183 122.423 173.476 125.133 173.476 128.474H181.158Z" fill="white" stroke="#9DAFCC" stroke-width="0.6" stroke-miterlimit="10"/>
<path d="M223.28 128.474C223.28 125.133 221.573 122.423 219.439 122.423C217.306 122.423 215.599 125.133 215.599 128.474H223.28Z" fill="white" stroke="#9DAFCC" stroke-width="0.6" stroke-miterlimit="10"/>
<path d="M221.535 128.474H175.23V181.24H221.535V128.474Z" fill="#E4EBF5" stroke="#9DAFCC" stroke-width="0.6" stroke-miterlimit="10"/>
<path d="M221.535 128.474H217.434V181.24H221.535V128.474Z" fill="white" stroke="#9DAFCC" stroke-width="0.6" stroke-miterlimit="10"/>
<path d="M179.331 128.474H175.23V181.24H179.331V128.474Z" fill="white" stroke="#9DAFCC" stroke-width="0.6" stroke-miterlimit="10"/>
<path d="M181.162 128.474H173.485V137.278H181.162V128.474Z" fill="white" stroke="#9DAFCC" stroke-width="0.6" stroke-miterlimit="10"/>
<path d="M223.28 128.474H215.603V137.278H223.28V128.474Z" fill="white" stroke="#9DAFCC" stroke-width="0.6" stroke-miterlimit="10"/>
<path d="M198.38 128.474C197.36 133.958 183.261 133.169 183.261 146.884V181.24H213.512V146.884C213.512 133.16 199.404 133.958 198.38 128.474Z" fill="#E4EBF5" stroke="#9DAFCC" stroke-width="0.6" stroke-linejoin="round"/>
<path d="M198.38 141.844C197.701 141.844 197.05 142.114 196.57 142.594C196.09 143.074 195.82 143.725 195.82 144.404V158.636H200.966V144.417C200.968 144.078 200.902 143.741 200.772 143.428C200.643 143.114 200.452 142.829 200.212 142.589C199.971 142.35 199.685 142.161 199.371 142.033C199.057 141.905 198.72 141.841 198.38 141.844Z" fill="#365DA0" stroke="#9DAFCC" stroke-width="0.6" stroke-miterlimit="10"/>
<path d="M189.585 145.104C188.906 145.104 188.255 145.374 187.775 145.854C187.295 146.334 187.025 146.986 187.025 147.665V158.636H192.176V147.677C192.177 147.338 192.111 147.001 191.981 146.686C191.852 146.372 191.661 146.087 191.42 145.848C191.179 145.609 190.892 145.42 190.577 145.292C190.263 145.164 189.925 145.1 189.585 145.104Z" fill="#365DA0" stroke="#9DAFCC" stroke-width="0.6" stroke-miterlimit="10"/>
<path d="M207.175 145.104C206.496 145.104 205.845 145.374 205.365 145.854C204.884 146.334 204.615 146.986 204.615 147.665V158.636H209.765V147.677C209.767 147.338 209.701 147.001 209.571 146.686C209.441 146.372 209.251 146.087 209.01 145.848C208.769 145.609 208.482 145.42 208.167 145.292C207.852 145.164 207.515 145.1 207.175 145.104Z" fill="#365DA0" stroke="#9DAFCC" stroke-width="0.6" stroke-miterlimit="10"/>
<path d="M183.261 162.037H213.504" stroke="#9DAFCC" stroke-width="0.6" stroke-miterlimit="10"/>
<path d="M191.975 167.849H188.224V172.014H191.975V167.849Z" fill="#F25451" stroke="#9DAFCC" stroke-width="0.6" stroke-miterlimit="10"/>
<path d="M200.335 167.849H196.584V172.014H200.335V167.849Z" fill="#F25451" stroke="#9DAFCC" stroke-width="0.6" stroke-miterlimit="10"/>
<path d="M208.69 167.849H204.939V172.014H208.69V167.849Z" fill="#F25451" stroke="#9DAFCC" stroke-width="0.6" stroke-miterlimit="10"/>
<path d="M181.157 133.681H191.693" stroke="#9DAFCC" stroke-width="0.6" stroke-miterlimit="10"/>
<path d="M205.071 133.681H215.603" stroke="#9DAFCC" stroke-width="0.6" stroke-miterlimit="10"/>
<path d="M244.775 112.109C244.775 113.667 242.692 114.93 240.127 114.93C237.563 114.93 235.476 113.65 235.476 112.109C235.476 110.569 240.127 107.603 240.127 107.603C240.127 107.603 244.775 110.552 244.775 112.109Z" fill="#F25451" stroke="#9DAFCC" stroke-width="0.6" stroke-miterlimit="10"/>
<path d="M243.076 114.491H237.174V122.423H243.076V114.491Z" fill="white" stroke="#9DAFCC" stroke-width="0.6" stroke-miterlimit="10"/>
<path d="M203.104 112.109C203.104 113.667 201.022 114.93 198.457 114.93C195.893 114.93 193.81 113.65 193.81 112.109C193.81 110.569 198.457 107.603 198.457 107.603C198.457 107.603 203.104 110.552 203.104 112.109Z" fill="#F25451" stroke="#9DAFCC" stroke-width="0.6" stroke-miterlimit="10"/>
<path d="M201.406 114.491H195.504V122.423H201.406V114.491Z" fill="white" stroke="#9DAFCC" stroke-width="0.6" stroke-miterlimit="10"/>
<path d="M139.154 104.334H120.114V139.032H139.154V104.334Z" fill="#E4EBF5" stroke="#9DAFCC" stroke-width="0.6" stroke-miterlimit="10"/>
<path d="M129.634 123.349C128.955 123.349 128.304 123.619 127.823 124.099C127.343 124.58 127.073 125.231 127.073 125.91V133.728H132.22V125.923C132.222 125.583 132.156 125.247 132.026 124.933C131.897 124.619 131.706 124.334 131.465 124.095C131.225 123.855 130.939 123.666 130.625 123.538C130.31 123.41 129.974 123.346 129.634 123.349Z" fill="#365DA0" stroke="#9DAFCC" stroke-width="0.6" stroke-miterlimit="10"/>
<path d="M140.989 125.833H135.442C135.442 124.289 134.828 122.809 133.737 121.717C132.645 120.626 131.165 120.012 129.621 120.012C128.077 120.012 126.597 120.626 125.505 121.717C124.414 122.809 123.8 124.289 123.8 125.833H118.253" stroke="#9DAFCC" stroke-width="0.6" stroke-miterlimit="10" stroke-linecap="round"/>
<path d="M140.998 139.032H118.291V181.244H140.998V139.032Z" fill="#E4EBF5" stroke="#9DAFCC" stroke-width="0.6" stroke-miterlimit="10"/>
<path d="M141.002 147.353L129.647 141.844L118.291 147.353" stroke="#9DAFCC" stroke-width="0.6" stroke-linejoin="round"/>
<path d="M129.647 148.467C128.968 148.467 128.317 148.737 127.836 149.217C127.356 149.697 127.086 150.348 127.086 151.027V161.994H132.22V151.027C132.22 150.69 132.153 150.356 132.024 150.044C131.894 149.733 131.705 149.45 131.466 149.212C131.227 148.974 130.943 148.786 130.63 148.658C130.318 148.53 129.984 148.465 129.647 148.467Z" fill="#365DA0" stroke="#9DAFCC" stroke-width="0.6" stroke-miterlimit="10"/>
<path d="M148.039 148.467C147.36 148.467 146.709 148.737 146.228 149.217C145.748 149.697 145.479 150.348 145.479 151.027V161.994H150.612V151.027C150.612 150.69 150.546 150.356 150.416 150.044C150.286 149.733 150.097 149.45 149.858 149.212C149.619 148.974 149.335 148.786 149.023 148.658C148.711 148.53 148.376 148.465 148.039 148.467Z" fill="#365DA0" stroke="#9DAFCC" stroke-width="0.6" stroke-miterlimit="10"/>
<path d="M131.524 165.767H127.773V169.931H131.524V165.767Z" fill="#F25451" stroke="#9DAFCC" stroke-width="0.6" stroke-miterlimit="10"/>
<path d="M135.749 144.823V139.032" stroke="#9DAFCC" stroke-width="0.6" stroke-miterlimit="10"/>
<path d="M123.544 144.823V139.032" stroke="#9DAFCC" stroke-width="0.6" stroke-miterlimit="10"/>
<path d="M123.544 134.726H118.291V140.841H123.544V134.726Z" fill="white" stroke="#9DAFCC" stroke-width="0.6" stroke-linejoin="round"/>
<path d="M141.002 134.726H135.749V140.841H141.002V134.726Z" fill="white" stroke="#9DAFCC" stroke-width="0.6" stroke-linejoin="round"/>
<path d="M120.114 108.986H139.154" stroke="#9DAFCC" stroke-width="0.6" stroke-miterlimit="10"/>
<path d="M127.82 111.61V117.665" stroke="#9DAFCC" stroke-width="0.6" stroke-miterlimit="10"/>
<path d="M131.473 111.61V117.665" stroke="#9DAFCC" stroke-width="0.6" stroke-miterlimit="10"/>
<path d="M135.122 111.61V117.665" stroke="#9DAFCC" stroke-width="0.6" stroke-miterlimit="10"/>
<path d="M124.172 111.61V117.665" stroke="#9DAFCC" stroke-width="0.6" stroke-miterlimit="10"/>
<path d="M137.46 88.7116H121.837V104.334H137.46V88.7116Z" fill="white" stroke="#9DAFCC" stroke-width="0.6" stroke-miterlimit="10"/>
<path d="M121.837 91.8951H137.456" stroke="#9DAFCC" stroke-width="0.6" stroke-miterlimit="10"/>
<path d="M125.742 91.8951V104.334" stroke="#9DAFCC" stroke-width="0.6" stroke-linejoin="round"/>
<path d="M129.647 91.8951V104.334" stroke="#9DAFCC" stroke-width="0.6" stroke-linejoin="round"/>
<path d="M133.551 91.8951V104.334" stroke="#9DAFCC" stroke-width="0.6" stroke-linejoin="round"/>
<path d="M117.557 173.499H154.004" stroke="#9DAFCC" stroke-width="0.6" stroke-linejoin="round"/>
<path d="M242.022 165.767H256.527" stroke="#9DAFCC" stroke-width="0.6" stroke-linejoin="round"/>
<path d="M239.048 135.716H256.527" stroke="#9DAFCC" stroke-width="0.6" stroke-linejoin="round"/>
<path d="M175.23 158.649H179.331" stroke="#9DAFCC" stroke-width="0.6" stroke-linejoin="round"/>
<path d="M175.23 147.353H179.331" stroke="#9DAFCC" stroke-width="0.6" stroke-linejoin="round"/>
<path d="M217.391 158.649H221.492" stroke="#9DAFCC" stroke-width="0.6" stroke-linejoin="round"/>
<path d="M217.391 147.353H221.492" stroke="#9DAFCC" stroke-width="0.6" stroke-linejoin="round"/>
<path d="M240.127 107.603V90.4656" stroke="#9DAFCC" stroke-width="0.6" stroke-linejoin="round"/>
<path d="M243.985 96.2008H236.265" stroke="#9DAFCC" stroke-width="0.6" stroke-linejoin="round"/>
<path d="M242.44 93.4312H237.814" stroke="#9DAFCC" stroke-width="0.6" stroke-linejoin="round"/>
<path d="M242.449 102.393L237.802 104.919" stroke="#9DAFCC" stroke-width="0.6" stroke-linejoin="round"/>
</g>
</g>
<defs>
<filter id="filter0_dd_202_545" x="-11.9112" y="-11.9112" width="296.822" height="263.822" filterUnits="userSpaceOnUse" color-interpolation-filters="sRGB">
<feFlood flood-opacity="0" result="BackgroundImageFix"/>
<feColorMatrix in="SourceAlpha" type="matrix" values="0 0 0 0 0 0 0 0 0 0 0 0 0 0 0 0 0 0 127 0" result="hardAlpha"/>
<feOffset/>
<feGaussianBlur stdDeviation="5.95559"/>
<feComposite in2="hardAlpha" operator="out"/>
<feColorMatrix type="matrix" values="0 0 0 0 0.568627 0 0 0 0 0.741176 0 0 0 0 0.866667 0 0 0 1 0"/>
<feBlend mode="normal" in2="BackgroundImageFix" result="effect1_dropShadow_202_545"/>
<feColorMatrix in="SourceAlpha" type="matrix" values="0 0 0 0 0 0 0 0 0 0 0 0 0 0 0 0 0 0 127 0" result="hardAlpha"/>
<feOffset dy="2.38223"/>
<feGaussianBlur stdDeviation="2.97779"/>
<feComposite in2="hardAlpha" operator="out"/>
<feColorMatrix type="matrix" values="0 0 0 0 0 0 0 0 0 0 0 0 0 0 0 0 0 0 0.1 0"/>
<feBlend mode="normal" in2="effect1_dropShadow_202_545" result="effect2_dropShadow_202_545"/>
<feBlend mode="normal" in="SourceGraphic" in2="effect2_dropShadow_202_545" result="shape"/>
</filter>
<filter id="filter1_dd_202_545" x="0.916465" y="40.0888" width="270.821" height="153.366" filterUnits="userSpaceOnUse" color-interpolation-filters="sRGB">
<feFlood flood-opacity="0" result="BackgroundImageFix"/>
<feColorMatrix in="SourceAlpha" type="matrix" values="0 0 0 0 0 0 0 0 0 0 0 0 0 0 0 0 0 0 127 0" result="hardAlpha"/>
<feOffset/>
<feGaussianBlur stdDeviation="5.95559"/>
<feComposite in2="hardAlpha" operator="out"/>
<feColorMatrix type="matrix" values="0 0 0 0 0.568627 0 0 0 0 0.741176 0 0 0 0 0.866667 0 0 0 1 0"/>
<feBlend mode="normal" in2="BackgroundImageFix" result="effect1_dropShadow_202_545"/>
<feColorMatrix in="SourceAlpha" type="matrix" values="0 0 0 0 0 0 0 0 0 0 0 0 0 0 0 0 0 0 127 0" result="hardAlpha"/>
<feOffset dy="2.38223"/>
<feGaussianBlur stdDeviation="2.97779"/>
<feComposite in2="hardAlpha" operator="out"/>
<feColorMatrix type="matrix" values="0 0 0 0 0 0 0 0 0 0 0 0 0 0 0 0 0 0 0.1 0"/>
<feBlend mode="normal" in2="effect1_dropShadow_202_545" result="effect2_dropShadow_202_545"/>
<feBlend mode="normal" in="SourceGraphic" in2="effect2_dropShadow_202_545" result="shape"/>
</filter>
</defs>
</svg>
