<svg width="273" height="240" viewBox="0 0 273 240" fill="none" xmlns="http://www.w3.org/2000/svg">
<g filter="url(#filter0_dd_202_4615)">
<g filter="url(#filter1_dd_202_4615)">
<path d="M90.6099 173.947H124.383V130.577H90.6099V173.947Z" fill="white" stroke="#9DAFCC" stroke-width="0.6" stroke-linecap="round" stroke-linejoin="round"/>
<path d="M107.44 133.964C106.778 133.964 106.122 134.094 105.51 134.347C104.898 134.6 104.341 134.971 103.872 135.439C103.404 135.907 103.032 136.463 102.779 137.075C102.525 137.687 102.395 138.343 102.395 139.005V152.794H112.482V139.005C112.482 137.668 111.95 136.386 111.005 135.441C110.06 134.495 108.777 133.964 107.44 133.964Z" fill="white"/>
<path d="M107.496 136.278C106.778 136.278 106.088 136.564 105.58 137.072C105.072 137.58 104.786 138.27 104.786 138.988V147.27H110.207V139.001C110.209 138.644 110.14 138.291 110.004 137.96C109.869 137.63 109.669 137.33 109.417 137.076C109.166 136.823 108.866 136.623 108.537 136.486C108.207 136.349 107.853 136.278 107.496 136.278Z" fill="#365DA0" stroke="#9DAFCC" stroke-width="0.6" stroke-linecap="round" stroke-linejoin="round"/>
<path d="M90.6055 171.068H96.0606V147.287H90.6055V171.068Z" fill="#E4EBF5" stroke="#9DAFCC" stroke-width="0.6" stroke-linecap="round" stroke-linejoin="round"/>
<path d="M90.6099 160.356H96.065" stroke="#9DAFCC" stroke-width="0.6" stroke-linecap="round" stroke-linejoin="round"/>
<path d="M90.6099 163.032H96.065" stroke="#9DAFCC" stroke-width="0.6" stroke-linecap="round" stroke-linejoin="round"/>
<path d="M90.6099 165.712H96.065" stroke="#9DAFCC" stroke-width="0.6" stroke-linecap="round" stroke-linejoin="round"/>
<path d="M90.6099 168.388H96.065" stroke="#9DAFCC" stroke-width="0.6" stroke-linecap="round" stroke-linejoin="round"/>
<path d="M118.928 171.068H124.383V147.287H118.928V171.068Z" fill="#E4EBF5" stroke="#9DAFCC" stroke-width="0.6" stroke-linecap="round" stroke-linejoin="round"/>
<path d="M118.928 160.356H124.383" stroke="#9DAFCC" stroke-width="0.6" stroke-linecap="round" stroke-linejoin="round"/>
<path d="M118.928 163.032H124.383" stroke="#9DAFCC" stroke-width="0.6" stroke-linecap="round" stroke-linejoin="round"/>
<path d="M118.928 165.712H124.383" stroke="#9DAFCC" stroke-width="0.6" stroke-linecap="round" stroke-linejoin="round"/>
<path d="M118.928 168.388H124.383" stroke="#9DAFCC" stroke-width="0.6" stroke-linecap="round" stroke-linejoin="round"/>
<path d="M90.6099 178.695H124.383V171.064H90.6099V178.695Z" fill="#E4EBF5" stroke="#9DAFCC" stroke-width="0.6" stroke-linecap="round" stroke-linejoin="round"/>
<path d="M90.6099 173.942H124.383V171.064H90.6099V173.942Z" fill="white" stroke="#9DAFCC" stroke-width="0.6" stroke-linecap="round" stroke-linejoin="round"/>
<path d="M90.6099 153.673H124.383V147.283H90.6099V153.673Z" fill="#E4EBF5" stroke="#9DAFCC" stroke-width="0.6" stroke-linecap="round" stroke-linejoin="round"/>
<path d="M90.6099 150.166H124.383V147.287H90.6099V150.166Z" fill="#E4EBF5" stroke="#9DAFCC" stroke-width="0.6" stroke-linecap="round" stroke-linejoin="round"/>
<path d="M102.218 156.927H112.775C113.39 156.927 113.979 157.171 114.414 157.606C114.849 158.04 115.093 158.63 115.093 159.245V178.695H99.8999V159.245C99.8999 158.63 100.144 158.04 100.579 157.606C101.014 157.171 101.603 156.927 102.218 156.927Z" fill="white" stroke="#9DAFCC" stroke-width="0.6" stroke-linecap="round" stroke-linejoin="round"/>
<path d="M102.679 178.695H112.314V159.521H102.679V178.695Z" fill="#F25451" stroke="#9DAFCC" stroke-width="0.6" stroke-linecap="round" stroke-linejoin="round"/>
<path d="M109.444 163.868H105.359V171.129H109.444V163.868Z" fill="#365DA0" stroke="#9DAFCC" stroke-width="0.6" stroke-linecap="round" stroke-linejoin="round"/>
<path d="M90.6055 147.283H96.0606V130.573H90.6055V147.283Z" fill="#E4EBF5" stroke="#9DAFCC" stroke-width="0.6" stroke-linecap="round" stroke-linejoin="round"/>
<path d="M93.3374 130.573V147.283" stroke="#9DAFCC" stroke-width="0.6" stroke-linecap="round" stroke-linejoin="round"/>
<path d="M90.6099 133.167H96.065" stroke="#9DAFCC" stroke-width="0.6" stroke-linecap="round" stroke-linejoin="round"/>
<path d="M118.928 147.283H124.383V130.573H118.928V147.283Z" fill="#E4EBF5" stroke="#9DAFCC" stroke-width="0.6" stroke-linecap="round" stroke-linejoin="round"/>
<path d="M121.656 130.573V147.283" stroke="#9DAFCC" stroke-width="0.6" stroke-linecap="round" stroke-linejoin="round"/>
<path d="M118.928 133.167H124.383" stroke="#9DAFCC" stroke-width="0.6" stroke-linecap="round" stroke-linejoin="round"/>
<path d="M91.9585 130.573H123.013V123.532H91.9585V130.573Z" fill="#F25451" stroke="#9DAFCC" stroke-width="0.6" stroke-linecap="round" stroke-linejoin="round"/>
<path d="M91.9585 126.488H123.013V123.532H91.9585V126.488Z" fill="white" stroke="#9DAFCC" stroke-width="0.6" stroke-linecap="round" stroke-linejoin="round"/>
<path d="M90.6099 123.532H124.383" stroke="#9DAFCC" stroke-width="0.6" stroke-linecap="round" stroke-linejoin="round"/>
<path d="M101.602 98.691L95.3926 123.532H119.596L113.391 98.691H101.602Z" fill="#E4EBF5" stroke="#9DAFCC" stroke-width="0.6" stroke-linecap="round" stroke-linejoin="round"/>
<path d="M100.163 104.461L95.3926 123.532H119.596L114.83 104.461H100.163Z" stroke="#9DAFCC" stroke-width="0.6" stroke-linecap="round" stroke-linejoin="round"/>
<path d="M104.911 104.461L103.227 123.532H111.767L110.082 104.461H104.911Z" fill="white" stroke="#9DAFCC" stroke-width="0.6" stroke-linecap="round" stroke-linejoin="round"/>
<path d="M104.911 104.461L105.545 98.691H109.444L110.082 104.461H104.911Z" stroke="#9DAFCC" stroke-width="0.6" stroke-linecap="round" stroke-linejoin="round"/>
<path d="M101.602 98.6911L96.1685 90.9177H118.825L113.391 98.6911H101.602Z" fill="#E4EBF5" stroke="#9DAFCC" stroke-width="0.6" stroke-linecap="round" stroke-linejoin="round"/>
<path d="M105.531 98.6911L103.722 90.9177H111.271L109.461 98.6911H105.531Z" fill="white" stroke="#9DAFCC" stroke-width="0.6" stroke-linecap="round" stroke-linejoin="round"/>
<path d="M101.029 101.574H114.111" stroke="#9DAFCC" stroke-width="0.6" stroke-linecap="round" stroke-linejoin="round"/>
<path d="M98.6504 94.4683H116.343" stroke="#9DAFCC" stroke-width="0.6" stroke-linecap="round" stroke-linejoin="round"/>
<path d="M107.497 120.042C108.446 120.042 109.216 119.272 109.216 118.323C109.216 117.373 108.446 116.603 107.497 116.603C106.547 116.603 105.777 117.373 105.777 118.323C105.777 119.272 106.547 120.042 107.497 120.042Z" fill="#365DA0" stroke="#9DAFCC" stroke-width="0.6" stroke-miterlimit="10"/>
<path d="M118.825 88.5693H96.1685V90.9177H118.825V88.5693Z" fill="#F25451" stroke="#9DAFCC" stroke-width="0.6" stroke-linecap="round" stroke-linejoin="round"/>
<path d="M113.55 80.2102H101.438V88.5006H113.55V80.2102Z" fill="white" stroke="#9DAFCC" stroke-width="0.6" stroke-linecap="round" stroke-linejoin="round"/>
<path d="M107.496 74.824C104.153 74.824 101.438 77.6636 101.438 80.2102H113.55C113.55 77.6765 110.84 74.824 107.496 74.824Z" fill="#F25451" stroke="#9DAFCC" stroke-width="0.6" stroke-linecap="round" stroke-linejoin="round"/>
<path d="M109.561 82.3254H105.428V88.4743H109.561V82.3254Z" fill="#365DA0" stroke="#9DAFCC" stroke-width="0.6" stroke-linecap="round" stroke-linejoin="round"/>
<path d="M107.497 74.824V69.6748" stroke="#9DAFCC" stroke-width="0.6" stroke-linecap="round" stroke-linejoin="round"/>
<path d="M90.61 153.673H24.0066V178.695H90.61V153.673Z" fill="white" stroke="#9DAFCC" stroke-width="0.6" stroke-linecap="round" stroke-linejoin="round"/>
<path d="M28.419 140.837H90.6099V147.283H16.3281L28.419 140.837Z" fill="#F25451" stroke="#9DAFCC" stroke-width="0.6" stroke-linecap="round" stroke-linejoin="round"/>
<path d="M16.3279 178.695H90.6097V171.064H16.3279V178.695Z" stroke="#9DAFCC" stroke-width="0.6" stroke-linecap="round" stroke-linejoin="round"/>
<path d="M16.3279 173.942H90.6097V171.064H16.3279V173.942Z" fill="white" stroke="#9DAFCC" stroke-width="0.6" stroke-linecap="round" stroke-linejoin="round"/>
<path d="M90.6054 147.283H18.5513V153.673H90.6054V147.283Z" fill="#365DA0" stroke="#9DAFCC" stroke-width="0.6" stroke-linecap="round" stroke-linejoin="round"/>
<path d="M18.5515 150.161H90.6099V147.283H16.3281L18.5515 150.161Z" fill="white" stroke="#9DAFCC" stroke-width="0.6" stroke-linecap="round" stroke-linejoin="round"/>
<path d="M75.3389 159.65C68.729 159.65 63.5884 161.119 63.5884 162.351V178.695H87.5203V162.351C87.5203 161.119 81.9488 159.65 75.3389 159.65Z" fill="#E4EBF5" stroke="#9DAFCC" stroke-width="0.6" stroke-miterlimit="10" stroke-linecap="round"/>
<path d="M75.5542 162.326C70.4739 162.326 66.3589 163.187 66.3589 164.29V178.695H84.7495V164.286C84.7495 163.205 80.6344 162.326 75.5542 162.326Z" fill="#365DA0" stroke="#9DAFCC" stroke-width="0.6" stroke-miterlimit="10" stroke-linecap="round"/>
<path d="M81.798 165.682H69.3064V168.681H81.798V165.682Z" fill="#E4EBF5" stroke="#9DAFCC" stroke-width="0.6" stroke-linecap="round" stroke-linejoin="round"/>
<path d="M75.5542 165.682V168.686" stroke="#9DAFCC" stroke-width="0.6" stroke-linecap="round" stroke-linejoin="round"/>
<path d="M75.5543 175.459C76.5346 175.459 77.3296 174.664 77.3296 173.684C77.3296 172.704 76.5346 171.909 75.5543 171.909C74.5741 171.909 73.7791 172.704 73.7791 173.684C73.7791 174.664 74.5741 175.459 75.5543 175.459Z" fill="#F25451" stroke="#9DAFCC" stroke-width="0.6" stroke-linecap="round" stroke-linejoin="round"/>
<path d="M18.5557 171.068H24.0108V153.673H18.5557V171.068Z" fill="#E4EBF5" stroke="#9DAFCC" stroke-width="0.6" stroke-linecap="round" stroke-linejoin="round"/>
<path d="M18.5513 160.356H24.0064" stroke="#9DAFCC" stroke-width="0.6" stroke-linecap="round" stroke-linejoin="round"/>
<path d="M18.5513 163.032H24.0064" stroke="#9DAFCC" stroke-width="0.6" stroke-linecap="round" stroke-linejoin="round"/>
<path d="M18.5513 165.712H24.0064" stroke="#9DAFCC" stroke-width="0.6" stroke-linecap="round" stroke-linejoin="round"/>
<path d="M18.5513 168.388H24.0064" stroke="#9DAFCC" stroke-width="0.6" stroke-linecap="round" stroke-linejoin="round"/>
<path d="M55.0437 171.068H60.4988V153.673H55.0437V171.068Z" fill="#E4EBF5" stroke="#9DAFCC" stroke-width="0.6" stroke-linecap="round" stroke-linejoin="round"/>
<path d="M55.0437 160.356H60.4988" stroke="#9DAFCC" stroke-width="0.6" stroke-linecap="round" stroke-linejoin="round"/>
<path d="M55.0437 163.032H60.4988" stroke="#9DAFCC" stroke-width="0.6" stroke-linecap="round" stroke-linejoin="round"/>
<path d="M55.0437 165.712H60.4988" stroke="#9DAFCC" stroke-width="0.6" stroke-linecap="round" stroke-linejoin="round"/>
<path d="M55.0437 168.388H60.4988" stroke="#9DAFCC" stroke-width="0.6" stroke-linecap="round" stroke-linejoin="round"/>
<path d="M39.3118 159.65C32.7018 159.65 27.5613 161.119 27.5613 162.351V178.695H51.4932V162.351C51.4932 161.119 45.9174 159.65 39.3118 159.65Z" fill="#E4EBF5" stroke="#9DAFCC" stroke-width="0.6" stroke-miterlimit="10" stroke-linecap="round"/>
<path d="M39.5273 162.326C34.4471 162.326 30.332 163.187 30.332 164.29V178.695H48.7226V164.286C48.7226 163.205 44.6033 162.326 39.5273 162.326Z" fill="#365DA0" stroke="#9DAFCC" stroke-width="0.6" stroke-miterlimit="10" stroke-linecap="round"/>
<path d="M45.7706 165.682H33.2791V168.681H45.7706V165.682Z" fill="#E4EBF5" stroke="#9DAFCC" stroke-width="0.6" stroke-linecap="round" stroke-linejoin="round"/>
<path d="M39.5271 165.682V168.686" stroke="#9DAFCC" stroke-width="0.6" stroke-linecap="round" stroke-linejoin="round"/>
<path d="M39.5272 175.459C40.5077 175.459 41.3025 174.664 41.3025 173.684C41.3025 172.704 40.5077 171.909 39.5272 171.909C38.5468 171.909 37.752 172.704 37.752 173.684C37.752 174.664 38.5468 175.459 39.5272 175.459Z" fill="#F25451" stroke="#9DAFCC" stroke-width="0.6" stroke-linecap="round" stroke-linejoin="round"/>
<path d="M27.5184 150.161H24.0066V153.673H27.5184V150.161Z" fill="#E4EBF5" stroke="#9DAFCC" stroke-width="0.6" stroke-linecap="round" stroke-linejoin="round"/>
<path d="M38.1871 150.161H34.6753V153.673H38.1871V150.161Z" fill="#E4EBF5" stroke="#9DAFCC" stroke-width="0.6" stroke-linecap="round" stroke-linejoin="round"/>
<path d="M48.8604 150.161H45.3486V153.673H48.8604V150.161Z" fill="#E4EBF5" stroke="#9DAFCC" stroke-width="0.6" stroke-linecap="round" stroke-linejoin="round"/>
<path d="M59.5291 150.161H56.0173V153.673H59.5291V150.161Z" fill="#E4EBF5" stroke="#9DAFCC" stroke-width="0.6" stroke-linecap="round" stroke-linejoin="round"/>
<path d="M59.5291 150.161H56.0173V153.673H59.5291V150.161Z" fill="#E4EBF5" stroke="#9DAFCC" stroke-width="0.6" stroke-linecap="round" stroke-linejoin="round"/>
<path d="M69.8883 150.161H66.3765V153.673H69.8883V150.161Z" fill="#E4EBF5" stroke="#9DAFCC" stroke-width="0.6" stroke-linecap="round" stroke-linejoin="round"/>
<path d="M80.2511 150.161H76.7393V153.673H80.2511V150.161Z" fill="#E4EBF5" stroke="#9DAFCC" stroke-width="0.6" stroke-linecap="round" stroke-linejoin="round"/>
<path d="M90.6099 150.161H87.0981V153.673H90.6099V150.161Z" fill="#E4EBF5" stroke="#9DAFCC" stroke-width="0.6" stroke-linecap="round" stroke-linejoin="round"/>
<path d="M124.383 178.695H190.987V153.673H124.383V178.695Z" fill="white" stroke="#9DAFCC" stroke-width="0.6" stroke-linecap="round" stroke-linejoin="round"/>
<path d="M186.574 140.837H124.383V147.283H198.665L186.574 140.837Z" fill="#F25451" stroke="#9DAFCC" stroke-width="0.6" stroke-linecap="round" stroke-linejoin="round"/>
<path d="M198.665 171.068H124.383V178.699H198.665V171.068Z" fill="#E4EBF5" stroke="#9DAFCC" stroke-width="0.6" stroke-linecap="round" stroke-linejoin="round"/>
<path d="M198.665 171.068H124.383V173.947H198.665V171.068Z" fill="white" stroke="#9DAFCC" stroke-width="0.6" stroke-linecap="round" stroke-linejoin="round"/>
<path d="M124.383 153.673H196.437V147.283H124.383V153.673Z" fill="#365DA0" stroke="#9DAFCC" stroke-width="0.6" stroke-linecap="round" stroke-linejoin="round"/>
<path d="M196.437 150.161H124.383V147.283H198.665L196.437 150.161Z" fill="white" stroke="#9DAFCC" stroke-width="0.6" stroke-linecap="round" stroke-linejoin="round"/>
<path d="M139.654 159.65C146.264 159.65 151.405 161.119 151.405 162.351V178.695H127.473V162.351C127.473 161.119 133.044 159.65 139.654 159.65Z" fill="#E4EBF5" stroke="#9DAFCC" stroke-width="0.6" stroke-miterlimit="10" stroke-linecap="round"/>
<path d="M139.439 162.326C144.519 162.326 148.634 163.187 148.634 164.29V178.695H130.244V164.286C130.244 163.205 134.359 162.326 139.439 162.326Z" fill="#365DA0" stroke="#9DAFCC" stroke-width="0.6" stroke-miterlimit="10" stroke-linecap="round"/>
<path d="M133.195 168.686H145.686V165.687H133.195V168.686Z" fill="#E4EBF5" stroke="#9DAFCC" stroke-width="0.6" stroke-linecap="round" stroke-linejoin="round"/>
<path d="M139.439 165.682V168.686" stroke="#9DAFCC" stroke-width="0.6" stroke-linecap="round" stroke-linejoin="round"/>
<path d="M139.438 175.459C140.419 175.459 141.214 174.664 141.214 173.684C141.214 172.704 140.419 171.909 139.438 171.909C138.458 171.909 137.663 172.704 137.663 173.684C137.663 174.664 138.458 175.459 139.438 175.459Z" fill="#F25451" stroke="#9DAFCC" stroke-width="0.6" stroke-linecap="round" stroke-linejoin="round"/>
<path d="M196.441 153.673H190.986V171.068H196.441V153.673Z" fill="#E4EBF5" stroke="#9DAFCC" stroke-width="0.6" stroke-linecap="round" stroke-linejoin="round"/>
<path d="M196.437 160.356H190.986" stroke="#9DAFCC" stroke-width="0.6" stroke-linecap="round" stroke-linejoin="round"/>
<path d="M196.437 163.032H190.986" stroke="#9DAFCC" stroke-width="0.6" stroke-linecap="round" stroke-linejoin="round"/>
<path d="M196.437 165.712H190.986" stroke="#9DAFCC" stroke-width="0.6" stroke-linecap="round" stroke-linejoin="round"/>
<path d="M196.437 168.388H190.986" stroke="#9DAFCC" stroke-width="0.6" stroke-linecap="round" stroke-linejoin="round"/>
<path d="M159.949 153.673H154.494V171.068H159.949V153.673Z" fill="#E4EBF5" stroke="#9DAFCC" stroke-width="0.6" stroke-linecap="round" stroke-linejoin="round"/>
<path d="M159.945 160.356H154.494" stroke="#9DAFCC" stroke-width="0.6" stroke-linecap="round" stroke-linejoin="round"/>
<path d="M159.945 163.032H154.494" stroke="#9DAFCC" stroke-width="0.6" stroke-linecap="round" stroke-linejoin="round"/>
<path d="M159.945 165.712H154.494" stroke="#9DAFCC" stroke-width="0.6" stroke-linecap="round" stroke-linejoin="round"/>
<path d="M159.945 168.388H154.494" stroke="#9DAFCC" stroke-width="0.6" stroke-linecap="round" stroke-linejoin="round"/>
<path d="M175.681 159.65C182.291 159.65 187.432 161.119 187.432 162.351V178.695H163.5V162.351C163.5 161.119 169.059 159.65 175.681 159.65Z" fill="#E4EBF5" stroke="#9DAFCC" stroke-width="0.6" stroke-miterlimit="10" stroke-linecap="round"/>
<path d="M175.466 162.326C180.546 162.326 184.661 163.187 184.661 164.29V178.695H166.271V164.286C166.271 163.205 170.386 162.326 175.466 162.326Z" fill="#365DA0" stroke="#9DAFCC" stroke-width="0.6" stroke-miterlimit="10" stroke-linecap="round"/>
<path d="M169.222 168.686H181.714V165.687H169.222V168.686Z" fill="#E4EBF5" stroke="#9DAFCC" stroke-width="0.6" stroke-linecap="round" stroke-linejoin="round"/>
<path d="M175.466 165.682V168.686" stroke="#9DAFCC" stroke-width="0.6" stroke-linecap="round" stroke-linejoin="round"/>
<path d="M175.466 175.459C176.446 175.459 177.241 174.664 177.241 173.684C177.241 172.704 176.446 171.909 175.466 171.909C174.485 171.909 173.69 172.704 173.69 173.684C173.69 174.664 174.485 175.459 175.466 175.459Z" fill="#F25451" stroke="#9DAFCC" stroke-width="0.6" stroke-linecap="round" stroke-linejoin="round"/>
<path d="M187.475 153.673H190.987V150.161H187.475V153.673Z" fill="#E4EBF5" stroke="#9DAFCC" stroke-width="0.6" stroke-linecap="round" stroke-linejoin="round"/>
<path d="M176.802 153.673H180.314V150.161H176.802V153.673Z" fill="#E4EBF5" stroke="#9DAFCC" stroke-width="0.6" stroke-linecap="round" stroke-linejoin="round"/>
<path d="M166.137 153.673H169.649V150.161H166.137V153.673Z" fill="#E4EBF5" stroke="#9DAFCC" stroke-width="0.6" stroke-linecap="round" stroke-linejoin="round"/>
<path d="M155.464 153.673H158.976V150.161H155.464V153.673Z" fill="#E4EBF5" stroke="#9DAFCC" stroke-width="0.6" stroke-linecap="round" stroke-linejoin="round"/>
<path d="M155.464 153.673H158.976V150.161H155.464V153.673Z" fill="#E4EBF5" stroke="#9DAFCC" stroke-width="0.6" stroke-linecap="round" stroke-linejoin="round"/>
<path d="M145.101 153.673H148.612V150.161H145.101V153.673Z" fill="#E4EBF5" stroke="#9DAFCC" stroke-width="0.6" stroke-linecap="round" stroke-linejoin="round"/>
<path d="M134.742 153.673H138.254V150.161H134.742V153.673Z" fill="#E4EBF5" stroke="#9DAFCC" stroke-width="0.6" stroke-linecap="round" stroke-linejoin="round"/>
<path d="M124.383 153.673H127.895V150.161H124.383V153.673Z" fill="#E4EBF5" stroke="#9DAFCC" stroke-width="0.6" stroke-linecap="round" stroke-linejoin="round"/>
<path d="M196.601 143.129H166.025V151.954H196.601V143.129Z" fill="#F25451" stroke="#9DAFCC" stroke-width="0.6" stroke-linejoin="round"/>
<path d="M254.475 176.933H137.642V182.75H254.475V176.933Z" fill="#365DA0" stroke="#9DAFCC" stroke-width="0.6" stroke-linejoin="round"/>
<path d="M196.597 149.144H171.036V176.933H196.597V149.144Z" fill="#F25451" stroke="#9DAFCC" stroke-width="0.6" stroke-miterlimit="10" stroke-linecap="round"/>
<path d="M217.715 107.279C212.975 107.279 209.145 110.088 209.145 113.553H226.285C226.285 110.088 222.446 107.279 217.715 107.279Z" fill="#F25451" stroke="#9DAFCC" stroke-width="0.6" stroke-linecap="round" stroke-linejoin="round"/>
<path d="M227.246 119.934H208.179V137.868H227.246V119.934Z" fill="#F25451" stroke="#9DAFCC" stroke-width="0.6" stroke-linecap="round" stroke-linejoin="round"/>
<path d="M217.853 125.368C217.403 125.373 216.973 125.554 216.655 125.872C216.337 126.19 216.156 126.62 216.151 127.07V133.831H219.555V127.07C219.549 126.62 219.368 126.19 219.05 125.872C218.732 125.554 218.303 125.373 217.853 125.368Z" fill="#365DA0" stroke="#9DAFCC" stroke-width="0.6" stroke-miterlimit="10" stroke-linecap="round"/>
<path d="M209.881 125.368C209.432 125.373 209.002 125.554 208.684 125.872C208.366 126.19 208.185 126.62 208.179 127.07V133.831H211.583V127.07C211.578 126.62 211.397 126.19 211.079 125.872C210.761 125.554 210.331 125.373 209.881 125.368Z" fill="#365DA0" stroke="#9DAFCC" stroke-width="0.6" stroke-miterlimit="10" stroke-linecap="round"/>
<path d="M225.544 125.368C225.091 125.368 224.656 125.547 224.333 125.865C224.01 126.183 223.826 126.617 223.821 127.07V133.831H227.229V127.07C227.224 126.623 227.045 126.196 226.731 125.878C226.416 125.561 225.991 125.378 225.544 125.368Z" fill="#365DA0" stroke="#9DAFCC" stroke-width="0.6" stroke-miterlimit="10" stroke-linecap="round"/>
<path d="M221.481 133.83V119.934" stroke="#9DAFCC" stroke-width="0.6" stroke-miterlimit="10" stroke-linecap="round"/>
<path d="M214.22 133.83V119.934" stroke="#9DAFCC" stroke-width="0.6" stroke-miterlimit="10" stroke-linecap="round"/>
<path d="M206.693 137.868L201.458 140.031V145.426H234.71V140.031L228.733 137.868H206.693Z" fill="#F25451" stroke="#9DAFCC" stroke-width="0.6" stroke-linecap="round" stroke-linejoin="round"/>
<path d="M221.343 139.074V133.83H214.083V139.074L201.458 145.478V176.933H233.973V145.478L221.343 139.074Z" fill="#F25451" stroke="#9DAFCC" stroke-width="0.6" stroke-linecap="round" stroke-linejoin="round"/>
<path d="M220.994 143.737H214.432L201.458 150.316V176.933H233.973V150.316L220.994 143.737Z" stroke="#9DAFCC" stroke-width="0.6" stroke-linecap="round" stroke-linejoin="round"/>
<path d="M204.172 148.968V153.281" stroke="#9DAFCC" stroke-width="0.6" stroke-linejoin="round"/>
<path d="M206.74 147.641V151.954" stroke="#9DAFCC" stroke-width="0.6" stroke-linejoin="round"/>
<path d="M209.308 146.335V150.648" stroke="#9DAFCC" stroke-width="0.6" stroke-linejoin="round"/>
<path d="M211.876 145.038V149.351" stroke="#9DAFCC" stroke-width="0.6" stroke-linejoin="round"/>
<path d="M214.432 143.737V148.05" stroke="#9DAFCC" stroke-width="0.6" stroke-linejoin="round"/>
<path d="M231.258 148.968V153.281" stroke="#9DAFCC" stroke-width="0.6" stroke-linejoin="round"/>
<path d="M228.69 147.641V151.954" stroke="#9DAFCC" stroke-width="0.6" stroke-linejoin="round"/>
<path d="M226.122 146.335V150.648" stroke="#9DAFCC" stroke-width="0.6" stroke-linejoin="round"/>
<path d="M223.554 145.038V149.351" stroke="#9DAFCC" stroke-width="0.6" stroke-linejoin="round"/>
<path d="M220.999 143.737V148.05" stroke="#9DAFCC" stroke-width="0.6" stroke-linejoin="round"/>
<path d="M214.083 136.73H221.343" stroke="#9DAFCC" stroke-width="0.6" stroke-linejoin="round"/>
<path d="M217.715 158.284C216.646 158.284 215.621 158.708 214.864 159.463C214.108 160.219 213.683 161.244 213.682 162.313V176.933H221.744V162.313C221.744 161.244 221.319 160.219 220.564 159.463C219.808 158.708 218.783 158.284 217.715 158.284Z" fill="#365DA0" stroke="#9DAFCC" stroke-width="0.6" stroke-linecap="round" stroke-linejoin="round"/>
<path d="M222.394 156.418L220.236 152.553H215.194L213.031 156.418H209.851V176.933H225.579V156.418H222.394Z" stroke="#9DAFCC" stroke-width="0.6" stroke-linecap="round" stroke-linejoin="round"/>
<path d="M217.715 150.648C218.545 150.648 219.219 149.975 219.219 149.144C219.219 148.314 218.545 147.641 217.715 147.641C216.884 147.641 216.211 148.314 216.211 149.144C216.211 149.975 216.884 150.648 217.715 150.648Z" stroke="#9DAFCC" stroke-width="0.6" stroke-linecap="round" stroke-linejoin="round"/>
<path d="M217.715 158.284V176.933" stroke="#9DAFCC" stroke-width="0.6" stroke-linecap="round" stroke-linejoin="round"/>
<path d="M213.682 162.881H221.744" stroke="#9DAFCC" stroke-width="0.6" stroke-linecap="round" stroke-linejoin="round"/>
<path d="M213.682 167.565H221.744" stroke="#9DAFCC" stroke-width="0.6" stroke-linecap="round" stroke-linejoin="round"/>
<path d="M213.682 172.249H221.744" stroke="#9DAFCC" stroke-width="0.6" stroke-linecap="round" stroke-linejoin="round"/>
<path d="M223.554 177.325H211.876V182.754H223.554V177.325Z" fill="#365DA0" stroke="#9DAFCC" stroke-width="0.6" stroke-miterlimit="10" stroke-linecap="round"/>
<path d="M211.876 180.04H223.554" stroke="#9DAFCC" stroke-width="0.6" stroke-linecap="round" stroke-linejoin="round"/>
<path d="M208.179 133.83H227.246" stroke="#9DAFCC" stroke-width="0.6" stroke-linecap="round" stroke-linejoin="round"/>
<path d="M226.285 116.44H209.145V119.934H226.285V116.44Z" fill="#F25451" stroke="#9DAFCC" stroke-width="0.6" stroke-linecap="round" stroke-linejoin="round"/>
<path d="M226.285 113.514H209.145V116.44H226.285V113.514Z" fill="#F25451" stroke="#9DAFCC" stroke-width="0.6" stroke-linecap="round" stroke-linejoin="round"/>
<path d="M221.343 116.457C221.343 114.763 217.715 112.579 217.715 112.579C217.715 112.579 214.083 114.733 214.083 116.457V119.951H221.343V116.457Z" fill="#F25451" stroke="#9DAFCC" stroke-width="0.6" stroke-linecap="round" stroke-linejoin="round"/>
<path d="M217.715 104.603C215.965 104.603 214.548 103.517 214.548 102.181C214.548 100.307 216.332 99.9838 217.715 97.9198C219.094 99.9838 220.882 100.307 220.882 102.181C220.882 103.53 219.473 104.603 217.715 104.603Z" fill="#F25451" stroke="#9DAFCC" stroke-width="0.6" stroke-linecap="round" stroke-linejoin="round"/>
<path d="M219.766 104.603H215.655V107.279H219.766V104.603Z" fill="#F25451" stroke="#9DAFCC" stroke-width="0.6" stroke-linecap="round" stroke-linejoin="round"/>
<path d="M217.698 97.9197V90.4523" stroke="#9DAFCC" stroke-width="0.6" stroke-linejoin="round"/>
<path d="M215.797 93.0247H219.512" stroke="#9DAFCC" stroke-width="0.6" stroke-linejoin="round"/>
<path d="M216.81 91.5856H218.581" stroke="#9DAFCC" stroke-width="0.6" stroke-linejoin="round"/>
<path d="M216.638 94.925L218.723 96.0583" stroke="#9DAFCC" stroke-width="0.6" stroke-linejoin="round"/>
<path d="M199.027 137.049C197.278 137.049 195.86 135.963 195.86 134.628C195.86 132.753 197.644 132.43 199.027 130.366C200.411 132.43 202.195 132.753 202.195 134.628C202.195 135.963 200.777 137.049 199.027 137.049Z" fill="#F25451" stroke="#9DAFCC" stroke-width="0.6" stroke-linecap="round" stroke-linejoin="round"/>
<path d="M199.01 130.366V122.899" stroke="#9DAFCC" stroke-width="0.6" stroke-linejoin="round"/>
<path d="M197.109 125.471H200.824" stroke="#9DAFCC" stroke-width="0.6" stroke-linejoin="round"/>
<path d="M198.126 124.032H199.893" stroke="#9DAFCC" stroke-width="0.6" stroke-linejoin="round"/>
<path d="M197.954 127.371L200.035 128.505" stroke="#9DAFCC" stroke-width="0.6" stroke-linejoin="round"/>
<path d="M201.453 140.031H196.597V182.75H201.453V140.031Z" fill="#F25451" stroke="#9DAFCC" stroke-width="0.6" stroke-linejoin="round"/>
<path d="M201.453 146.029H196.597V149.933H201.453V146.029Z" fill="#F25451" stroke="#9DAFCC" stroke-width="0.6" stroke-linejoin="round"/>
<path d="M200.669 137.049H197.39V140.031H200.669V137.049Z" fill="#F25451" stroke="#9DAFCC" stroke-width="0.6" stroke-linejoin="round"/>
<path d="M201.453 153.97H196.597V157.874H201.453V153.97Z" fill="#F25451" stroke="#9DAFCC" stroke-width="0.6" stroke-linejoin="round"/>
<path d="M237.14 137.049C235.39 137.049 233.973 135.963 233.973 134.628C233.973 132.753 235.757 132.43 237.14 130.366C238.519 132.43 240.307 132.753 240.307 134.628C240.307 135.963 238.889 137.049 237.14 137.049Z" fill="#F25451" stroke="#9DAFCC" stroke-width="0.6" stroke-linecap="round" stroke-linejoin="round"/>
<path d="M237.123 130.366V122.899" stroke="#9DAFCC" stroke-width="0.6" stroke-linejoin="round"/>
<path d="M235.222 125.471H238.936" stroke="#9DAFCC" stroke-width="0.6" stroke-linejoin="round"/>
<path d="M236.235 124.032H238.006" stroke="#9DAFCC" stroke-width="0.6" stroke-linejoin="round"/>
<path d="M236.067 127.371L238.148 128.505" stroke="#9DAFCC" stroke-width="0.6" stroke-linejoin="round"/>
<path d="M239.566 140.031H234.709V182.75H239.566V140.031Z" fill="#F25451" stroke="#9DAFCC" stroke-width="0.6" stroke-linejoin="round"/>
<path d="M239.566 146.029H234.709V149.933H239.566V146.029Z" fill="#F25451" stroke="#9DAFCC" stroke-width="0.6" stroke-linejoin="round"/>
<path d="M238.782 137.049H235.502V140.031H238.782V137.049Z" fill="#F25451" stroke="#9DAFCC" stroke-width="0.6" stroke-linejoin="round"/>
<path d="M239.566 153.97H234.709V157.874H239.566V153.97Z" fill="#F25451" stroke="#9DAFCC" stroke-width="0.6" stroke-linejoin="round"/>
<path d="M254.474 148.968H239.565V176.933H254.474V148.968Z" fill="#F25451" stroke="#9DAFCC" stroke-width="0.6" stroke-linejoin="round"/>
<path d="M247.02 143.129H239.565V148.968H256.013L247.02 143.129Z" fill="#F25451" stroke="#9DAFCC" stroke-width="0.6" stroke-linejoin="round"/>
<path d="M247.02 162.08C246.57 162.086 246.14 162.267 245.822 162.585C245.504 162.903 245.323 163.333 245.318 163.782V171.318H248.722V163.782C248.716 163.333 248.535 162.903 248.217 162.585C247.899 162.267 247.47 162.086 247.02 162.08Z" fill="#365DA0" stroke="#9DAFCC" stroke-width="0.6" stroke-miterlimit="10" stroke-linecap="round"/>
<path d="M189.94 162.08C189.49 162.086 189.06 162.267 188.742 162.585C188.424 162.903 188.243 163.333 188.238 163.782V171.318H191.642V163.782C191.636 163.333 191.455 162.903 191.137 162.585C190.819 162.267 190.39 162.086 189.94 162.08Z" fill="#365DA0" stroke="#9DAFCC" stroke-width="0.6" stroke-miterlimit="10" stroke-linecap="round"/>
<path d="M179.883 162.08C179.433 162.086 179.003 162.267 178.685 162.585C178.367 162.903 178.186 163.333 178.181 163.782V171.318H181.585V163.782C181.579 163.333 181.398 162.903 181.08 162.585C180.762 162.267 180.333 162.086 179.883 162.08Z" fill="#365DA0" stroke="#9DAFCC" stroke-width="0.6" stroke-miterlimit="10" stroke-linecap="round"/>
<path d="M251.303 153.97V157.874" stroke="#9DAFCC" stroke-width="0.6" stroke-miterlimit="10" stroke-linecap="round"/>
<path d="M247.791 153.97V157.874" stroke="#9DAFCC" stroke-width="0.6" stroke-miterlimit="10" stroke-linecap="round"/>
<path d="M244.275 153.97V157.874" stroke="#9DAFCC" stroke-width="0.6" stroke-miterlimit="10" stroke-linecap="round"/>
<path d="M196.597 154.38V158.284" stroke="#9DAFCC" stroke-width="0.6" stroke-miterlimit="10" stroke-linecap="round"/>
<path d="M193.499 154.38V158.284" stroke="#9DAFCC" stroke-width="0.6" stroke-miterlimit="10" stroke-linecap="round"/>
<path d="M190.401 154.38V158.284" stroke="#9DAFCC" stroke-width="0.6" stroke-miterlimit="10" stroke-linecap="round"/>
<path d="M187.302 154.38V158.284" stroke="#9DAFCC" stroke-width="0.6" stroke-miterlimit="10" stroke-linecap="round"/>
<path d="M184.204 154.38V158.284" stroke="#9DAFCC" stroke-width="0.6" stroke-miterlimit="10" stroke-linecap="round"/>
<path d="M181.106 154.38V158.284" stroke="#9DAFCC" stroke-width="0.6" stroke-miterlimit="10" stroke-linecap="round"/>
<path d="M178.008 154.38V158.284" stroke="#9DAFCC" stroke-width="0.6" stroke-miterlimit="10" stroke-linecap="round"/>
<path d="M174.91 154.38V158.284" stroke="#9DAFCC" stroke-width="0.6" stroke-miterlimit="10" stroke-linecap="round"/>
<path d="M171.812 154.38V158.284" stroke="#9DAFCC" stroke-width="0.6" stroke-miterlimit="10" stroke-linecap="round"/>
<path d="M171.036 151.954H196.597" stroke="#9DAFCC" stroke-width="0.6" stroke-miterlimit="10" stroke-linecap="round"/>
<path d="M242.547 148.968V151.454" stroke="#9DAFCC" stroke-width="0.6" stroke-miterlimit="10"/>
<path d="M245.529 148.968V151.454" stroke="#9DAFCC" stroke-width="0.6" stroke-miterlimit="10"/>
<path d="M248.511 148.968V151.454" stroke="#9DAFCC" stroke-width="0.6" stroke-miterlimit="10"/>
<path d="M251.493 148.968V151.454" stroke="#9DAFCC" stroke-width="0.6" stroke-miterlimit="10"/>
<path d="M166.025 102.453H142.657V147.326H166.025V102.453Z" fill="#F25451" stroke="#9DAFCC" stroke-width="0.6" stroke-linejoin="round"/>
<path d="M162.698 147.322L159.436 144.521V139.07H149.246V144.521L145.984 147.322H142.657V169.875H166.025V147.322H162.698Z" fill="#F25451" stroke="#9DAFCC" stroke-width="0.6" stroke-linejoin="round"/>
<path d="M154.339 108.533C153.683 108.533 153.054 108.793 152.59 109.257C152.126 109.721 151.866 110.35 151.866 111.006V119.098H156.812V111.006C156.812 110.35 156.552 109.721 156.088 109.257C155.624 108.793 154.995 108.533 154.339 108.533Z" fill="#365DA0" stroke="#9DAFCC" stroke-width="0.6" stroke-miterlimit="10" stroke-linecap="round"/>
<path d="M150.961 129.815C150.508 129.815 150.072 129.993 149.75 130.312C149.427 130.631 149.243 131.063 149.237 131.517V139.053H152.641V131.538C152.641 131.089 152.466 130.657 152.152 130.335C151.838 130.012 151.41 129.826 150.961 129.815Z" fill="#365DA0" stroke="#9DAFCC" stroke-width="0.6" stroke-miterlimit="10" stroke-linecap="round"/>
<path d="M157.735 129.815C157.282 129.815 156.846 129.993 156.524 130.312C156.201 130.631 156.017 131.063 156.011 131.517V139.053H159.415V131.538C159.415 131.089 159.24 130.657 158.926 130.335C158.612 130.012 158.184 129.826 157.735 129.815Z" fill="#365DA0" stroke="#9DAFCC" stroke-width="0.6" stroke-miterlimit="10" stroke-linecap="round"/>
<path d="M162.698 154.38L154.339 147.197L145.984 154.38H142.657V176.933H166.025V154.38H162.698Z" fill="#F25451" stroke="#9DAFCC" stroke-width="0.6" stroke-linejoin="round"/>
<path d="M159.436 102.453H149.246V139.074H159.436V102.453Z" stroke="#9DAFCC" stroke-width="0.6" stroke-linejoin="round"/>
<path d="M141.296 119.098H167.387" stroke="#9DAFCC" stroke-width="0.6" stroke-linecap="round" stroke-linejoin="round"/>
<path d="M141.296 125.368H167.387" stroke="#9DAFCC" stroke-width="0.6" stroke-linecap="round" stroke-linejoin="round"/>
<path d="M142.657 106.042H166.025" stroke="#9DAFCC" stroke-width="0.6" stroke-linecap="round" stroke-linejoin="round"/>
<path d="M145.88 108.834V116.793" stroke="#9DAFCC" stroke-width="0.6" stroke-linejoin="round"/>
<path d="M144.058 111.084H147.703" stroke="#9DAFCC" stroke-width="0.6" stroke-linejoin="round"/>
<path d="M162.797 108.834V116.793" stroke="#9DAFCC" stroke-width="0.6" stroke-linejoin="round"/>
<path d="M160.975 111.084H164.62" stroke="#9DAFCC" stroke-width="0.6" stroke-linejoin="round"/>
<path d="M155.796 141.647H152.887V144.556H155.796V141.647Z" fill="#F25451" stroke="#9DAFCC" stroke-width="0.6" stroke-linejoin="round"/>
<path d="M154.339 157.448C153.889 157.453 153.459 157.635 153.141 157.953C152.823 158.271 152.642 158.7 152.637 159.15V166.682H156.041V159.15C156.041 158.926 155.998 158.705 155.912 158.498C155.827 158.291 155.702 158.103 155.544 157.945C155.385 157.787 155.198 157.661 154.991 157.576C154.784 157.491 154.562 157.447 154.339 157.448Z" fill="#365DA0" stroke="#9DAFCC" stroke-width="0.6" stroke-miterlimit="10" stroke-linecap="round"/>
<path d="M152.038 75.759L144.416 102.453H164.267L156.644 75.759H152.038Z" fill="#E4EBF5" stroke="#9DAFCC" stroke-width="0.6" stroke-linecap="round" stroke-linejoin="round"/>
<path d="M153.158 75.759L149.246 102.453H159.436L155.524 75.759H153.158Z" fill="#E4EBF5" stroke="#9DAFCC" stroke-width="0.6" stroke-linecap="round" stroke-linejoin="round"/>
<path d="M154.339 99.4537C155.434 99.4537 156.321 98.5665 156.321 97.4716C156.321 96.3771 155.434 95.4895 154.339 95.4895C153.245 95.4895 152.357 96.3771 152.357 97.4716C152.357 98.5665 153.245 99.4537 154.339 99.4537Z" fill="#365DA0" stroke="#9DAFCC" stroke-width="0.6" stroke-linecap="round" stroke-linejoin="round"/>
<path d="M156.644 67.1626H152.038V75.7589H156.644V67.1626Z" fill="#E4EBF5" stroke="#9DAFCC" stroke-width="0.6" stroke-linecap="round" stroke-linejoin="round"/>
<path d="M154.339 67.9379C152.124 67.9379 150.328 66.5634 150.328 64.8657C150.328 62.4914 152.59 62.0821 154.339 59.4666C156.093 62.0821 158.355 62.4828 158.355 64.8657C158.355 66.5634 156.563 67.9379 154.339 67.9379Z" fill="#F25451" stroke="#9DAFCC" stroke-width="0.6" stroke-linecap="round" stroke-linejoin="round"/>
<path d="M154.317 59.4667V50" stroke="#9DAFCC" stroke-width="0.6" stroke-linejoin="round"/>
<path d="M151.913 53.262H156.618" stroke="#9DAFCC" stroke-width="0.6" stroke-linejoin="round"/>
<path d="M153.197 51.4391H155.442" stroke="#9DAFCC" stroke-width="0.6" stroke-linejoin="round"/>
<path d="M152.977 55.6707L155.618 57.1055" stroke="#9DAFCC" stroke-width="0.6" stroke-linejoin="round"/>
<path d="M152.038 70.4246H156.644" stroke="#9DAFCC" stroke-width="0.6" stroke-linecap="round" stroke-linejoin="round"/>
<path d="M142.658 147.322H137.642V182.75H142.658V147.322Z" fill="#F25451" stroke="#9DAFCC" stroke-width="0.6" stroke-linecap="round" stroke-linejoin="round"/>
<path d="M142.657 147.322H136.866V151.122H142.657V147.322Z" fill="#F25451" stroke="#9DAFCC" stroke-width="0.6" stroke-linecap="round" stroke-linejoin="round"/>
<path d="M142.657 154.475H136.866V158.275H142.657V154.475Z" fill="#F25451" stroke="#9DAFCC" stroke-width="0.6" stroke-linecap="round" stroke-linejoin="round"/>
<path d="M166.021 182.754H171.036V147.326H166.021V182.754Z" fill="#F25451" stroke="#9DAFCC" stroke-width="0.6" stroke-linecap="round" stroke-linejoin="round"/>
<path d="M166.021 151.127H171.812V147.326H166.021V151.127Z" fill="#F25451" stroke="#9DAFCC" stroke-width="0.6" stroke-linecap="round" stroke-linejoin="round"/>
<path d="M166.021 158.275H171.812V154.475H166.021V158.275Z" fill="#F25451" stroke="#9DAFCC" stroke-width="0.6" stroke-linecap="round" stroke-linejoin="round"/>
<path d="M219.107 138.738H216.198V141.647H219.107V138.738Z" fill="#F25451" stroke="#9DAFCC" stroke-width="0.6" stroke-linejoin="round"/>
<path d="M27.5184 173.947H16.3281V178.7H27.5184V173.947Z" fill="white" stroke="#9DAFCC" stroke-width="0.6" stroke-linecap="round" stroke-linejoin="round"/>
</g>
</g>
<defs>
<filter id="filter0_dd_202_4615" x="-11.9112" y="-11.9112" width="296.822" height="263.822" filterUnits="userSpaceOnUse" color-interpolation-filters="sRGB">
<feFlood flood-opacity="0" result="BackgroundImageFix"/>
<feColorMatrix in="SourceAlpha" type="matrix" values="0 0 0 0 0 0 0 0 0 0 0 0 0 0 0 0 0 0 127 0" result="hardAlpha"/>
<feOffset/>
<feGaussianBlur stdDeviation="5.95559"/>
<feComposite in2="hardAlpha" operator="out"/>
<feColorMatrix type="matrix" values="0 0 0 0 0.568627 0 0 0 0 0.741176 0 0 0 0 0.866667 0 0 0 1 0"/>
<feBlend mode="normal" in2="BackgroundImageFix" result="effect1_dropShadow_202_4615"/>
<feColorMatrix in="SourceAlpha" type="matrix" values="0 0 0 0 0 0 0 0 0 0 0 0 0 0 0 0 0 0 127 0" result="hardAlpha"/>
<feOffset dy="2.38223"/>
<feGaussianBlur stdDeviation="2.97779"/>
<feComposite in2="hardAlpha" operator="out"/>
<feColorMatrix type="matrix" values="0 0 0 0 0 0 0 0 0 0 0 0 0 0 0 0 0 0 0.1 0"/>
<feBlend mode="normal" in2="effect1_dropShadow_202_4615" result="effect2_dropShadow_202_4615"/>
<feBlend mode="normal" in="SourceGraphic" in2="effect2_dropShadow_202_4615" result="shape"/>
</filter>
<filter id="filter1_dd_202_4615" x="4.11666" y="38.0888" width="264.107" height="156.877" filterUnits="userSpaceOnUse" color-interpolation-filters="sRGB">
<feFlood flood-opacity="0" result="BackgroundImageFix"/>
<feColorMatrix in="SourceAlpha" type="matrix" values="0 0 0 0 0 0 0 0 0 0 0 0 0 0 0 0 0 0 127 0" result="hardAlpha"/>
<feOffset/>
<feGaussianBlur stdDeviation="5.95559"/>
<feComposite in2="hardAlpha" operator="out"/>
<feColorMatrix type="matrix" values="0 0 0 0 0.568627 0 0 0 0 0.741176 0 0 0 0 0.866667 0 0 0 1 0"/>
<feBlend mode="normal" in2="BackgroundImageFix" result="effect1_dropShadow_202_4615"/>
<feColorMatrix in="SourceAlpha" type="matrix" values="0 0 0 0 0 0 0 0 0 0 0 0 0 0 0 0 0 0 127 0" result="hardAlpha"/>
<feOffset dy="2.38223"/>
<feGaussianBlur stdDeviation="2.97779"/>
<feComposite in2="hardAlpha" operator="out"/>
<feColorMatrix type="matrix" values="0 0 0 0 0 0 0 0 0 0 0 0 0 0 0 0 0 0 0.1 0"/>
<feBlend mode="normal" in2="effect1_dropShadow_202_4615" result="effect2_dropShadow_202_4615"/>
<feBlend mode="normal" in="SourceGraphic" in2="effect2_dropShadow_202_4615" result="shape"/>
</filter>
</defs>
</svg>
