<svg width="273" height="240" viewBox="0 0 273 240" fill="none" xmlns="http://www.w3.org/2000/svg">
<g filter="url(#filter0_dd_202_6327)">
<g filter="url(#filter1_dd_202_6327)">
<path d="M252.78 134.165V131.199H18.189V134.165H252.78Z" fill="#E4EBF5" stroke="#9DAFCC" stroke-width="0.6" stroke-linecap="round" stroke-linejoin="round"/>
<path d="M23.1467 131.19L76.0502 101.404" stroke="#9DAFCC" stroke-width="0.6" stroke-linecap="round" stroke-linejoin="round"/>
<path d="M32.8208 131.19L76.0501 101.404" stroke="#9DAFCC" stroke-width="0.6" stroke-linecap="round" stroke-linejoin="round"/>
<path d="M42.4995 131.19L76.0501 101.404" stroke="#9DAFCC" stroke-width="0.6" stroke-linecap="round" stroke-linejoin="round"/>
<path d="M52.1741 131.19L76.0504 101.404" stroke="#9DAFCC" stroke-width="0.6" stroke-linecap="round" stroke-linejoin="round"/>
<path d="M61.8525 131.19L76.0502 101.404" stroke="#9DAFCC" stroke-width="0.6" stroke-linecap="round" stroke-linejoin="round"/>
<path d="M128.954 131.19L76.05 101.404" stroke="#9DAFCC" stroke-width="0.6" stroke-linecap="round" stroke-linejoin="round"/>
<path d="M119.275 131.19L76.05 101.404" stroke="#9DAFCC" stroke-width="0.6" stroke-linecap="round" stroke-linejoin="round"/>
<path d="M109.601 131.19L76.05 101.404" stroke="#9DAFCC" stroke-width="0.6" stroke-linecap="round" stroke-linejoin="round"/>
<path d="M99.9264 131.19L76.05 101.404" stroke="#9DAFCC" stroke-width="0.6" stroke-linecap="round" stroke-linejoin="round"/>
<path d="M90.2477 131.19L76.05 101.404" stroke="#9DAFCC" stroke-width="0.6" stroke-linecap="round" stroke-linejoin="round"/>
<path d="M77.5333 96.4419H74.5674V158.765H77.5333V96.4419Z" fill="#E4EBF5" stroke="#9DAFCC" stroke-width="0.6" stroke-linecap="round" stroke-linejoin="round"/>
<path d="M142.006 131.19L194.91 101.404" stroke="#9DAFCC" stroke-width="0.6" stroke-linecap="round" stroke-linejoin="round"/>
<path d="M151.68 131.19L194.91 101.404" stroke="#9DAFCC" stroke-width="0.6" stroke-linecap="round" stroke-linejoin="round"/>
<path d="M161.359 131.19L194.91 101.404" stroke="#9DAFCC" stroke-width="0.6" stroke-linecap="round" stroke-linejoin="round"/>
<path d="M171.033 131.19L194.91 101.404" stroke="#9DAFCC" stroke-width="0.6" stroke-linecap="round" stroke-linejoin="round"/>
<path d="M180.712 131.19L194.91 101.404" stroke="#9DAFCC" stroke-width="0.6" stroke-linecap="round" stroke-linejoin="round"/>
<path d="M247.813 131.19L194.91 101.404" stroke="#9DAFCC" stroke-width="0.6" stroke-linecap="round" stroke-linejoin="round"/>
<path d="M238.134 131.19L194.91 101.404" stroke="#9DAFCC" stroke-width="0.6" stroke-linecap="round" stroke-linejoin="round"/>
<path d="M228.46 131.19L194.91 101.404" stroke="#9DAFCC" stroke-width="0.6" stroke-linecap="round" stroke-linejoin="round"/>
<path d="M218.782 131.19L194.91 101.404" stroke="#9DAFCC" stroke-width="0.6" stroke-linecap="round" stroke-linejoin="round"/>
<path d="M209.107 131.19L194.91 101.404" stroke="#9DAFCC" stroke-width="0.6" stroke-linecap="round" stroke-linejoin="round"/>
<path d="M196.393 95.4419H193.427V157.765H196.393V95.4419Z" fill="#E4EBF5" stroke="#9DAFCC" stroke-width="0.6" stroke-linecap="round" stroke-linejoin="round"/>
<path d="M226.762 121.042V104.242L232.821 105.23L234.55 121.042H226.762Z" fill="#F25451" stroke="#9DAFCC" stroke-width="0.6" stroke-linecap="round" stroke-linejoin="round"/>
<path d="M228.491 111.359H221.568V121.046H228.491V111.359Z" fill="#E4EBF5" stroke="#9DAFCC" stroke-width="0.6" stroke-linecap="round" stroke-linejoin="round"/>
<path d="M109.996 137.385L121.877 158.212H240.175C240.175 158.212 244.251 154.939 245.567 152.798C246.883 150.657 247.725 144.427 247.997 141.996C240.706 141.996 209.388 141.724 209.388 141.724L205.878 144.966H146.455L128.028 138.758L109.996 137.385Z" fill="#365DA0" stroke="#9DAFCC" stroke-width="0.6" stroke-linecap="round" stroke-linejoin="round"/>
<path d="M203.171 131.172H151.316V144.949H203.171V131.172Z" fill="#F25451" stroke="#9DAFCC" stroke-width="0.6" stroke-linecap="round" stroke-linejoin="round"/>
<path d="M168.603 131.172V144.949" stroke="#9DAFCC" stroke-width="0.6" stroke-linecap="round" stroke-linejoin="round"/>
<path d="M185.889 131.172V144.949" stroke="#9DAFCC" stroke-width="0.6" stroke-linecap="round" stroke-linejoin="round"/>
<path d="M151.316 135.766H203.176" stroke="#9DAFCC" stroke-width="0.6" stroke-linecap="round" stroke-linejoin="round"/>
<path d="M151.316 140.355H203.176" stroke="#9DAFCC" stroke-width="0.6" stroke-linecap="round" stroke-linejoin="round"/>
<path d="M213.486 141.807V124.736H218.334V116.29L236.3 118.804V141.917L213.486 141.807Z" fill="white" stroke="#9DAFCC" stroke-width="0.6" stroke-linecap="round" stroke-linejoin="round"/>
<path d="M244.922 137.385H221.568V141.808H244.922V137.385Z" fill="#E4EBF5" stroke="#9DAFCC" stroke-width="0.6" stroke-linecap="round" stroke-linejoin="round"/>
<path d="M243.128 130.558H236.301V137.385H243.128V130.558Z" fill="#365DA0" stroke="#9DAFCC" stroke-width="0.6" stroke-linecap="round" stroke-linejoin="round"/>
<path d="M220.032 128.676H218.093C217.674 128.676 217.334 129.016 217.334 129.435V131.686C217.334 132.105 217.674 132.445 218.093 132.445H220.032C220.451 132.445 220.791 132.105 220.791 131.686V129.435C220.791 129.016 220.451 128.676 220.032 128.676Z" fill="#365DA0"/>
<path d="M225.999 128.676H224.06C223.64 128.676 223.301 129.016 223.301 129.435V131.686C223.301 132.105 223.64 132.445 224.06 132.445H225.999C226.418 132.445 226.758 132.105 226.758 131.686V129.435C226.758 129.016 226.418 128.676 225.999 128.676Z" fill="#365DA0"/>
<path d="M231.97 128.676H230.031C229.612 128.676 229.272 129.016 229.272 129.435V131.686C229.272 132.105 229.612 132.445 230.031 132.445H231.97C232.389 132.445 232.729 132.105 232.729 131.686V129.435C232.729 129.016 232.389 128.676 231.97 128.676Z" fill="#365DA0"/>
<path d="M225.999 122.371H224.06C223.64 122.371 223.301 122.711 223.301 123.13V125.381C223.301 125.8 223.64 126.14 224.06 126.14H225.999C226.418 126.14 226.758 125.8 226.758 125.381V123.13C226.758 122.711 226.418 122.371 225.999 122.371Z" fill="#365DA0"/>
<path d="M231.97 122.371H230.031C229.612 122.371 229.272 122.711 229.272 123.13V125.381C229.272 125.8 229.612 126.14 230.031 126.14H231.97C232.389 126.14 232.729 125.8 232.729 125.381V123.13C232.729 122.711 232.389 122.371 231.97 122.371Z" fill="#365DA0"/>
<path d="M223.674 111.359V101.759" stroke="#9DAFCC" stroke-width="0.6" stroke-linecap="round" stroke-linejoin="round"/>
<path d="M154.515 158.765L153.234 154.299C153.234 154.299 153.628 151.521 152.439 150.925C151.25 150.328 142.318 149.336 140.532 149.731C138.746 150.126 131.174 147.45 128.396 147.252C125.619 147.055 121.447 146.954 117.678 146.41C113.909 145.866 106.824 146.41 106.824 146.41H78.9722L67.4596 147.45L61.7033 148.849H51.2042L43.364 149.288L42.4865 151.675L38.314 151.236L35.9185 152.425H31.1362V158.765H154.515Z" fill="#E4EBF5" stroke="#9DAFCC" stroke-width="0.6" stroke-linecap="round" stroke-linejoin="round"/>
<path d="M35.8878 152.412H18.1846V158.765H63.0941V156.584L57.7327 155.194H49.594L48.6025 151.82L38.2833 151.223L35.8878 152.412Z" fill="#365DA0" stroke="#9DAFCC" stroke-width="0.6" stroke-linecap="round" stroke-linejoin="round"/>
<path d="M122.443 156.185V153.408L120.258 151.223L117.48 152.465L110.728 151.223H105.345L99.5096 152.465L92.4459 151.223H83.7369L80.9552 152.465H75.0015L68.2537 154V158.765H122.443V156.185Z" fill="#365DA0" stroke="#9DAFCC" stroke-width="0.6" stroke-linecap="round" stroke-linejoin="round"/>
<path d="M154.515 158.765L153.234 154.299C153.234 154.299 153.506 152.381 152.913 151.39L150.057 153.952H142.713L137.355 155.29L133.753 153.803H129.19L126.067 158.765H154.515Z" fill="#365DA0" stroke="#9DAFCC" stroke-width="0.6" stroke-linecap="round" stroke-linejoin="round"/>
<path d="M106.823 121.924H88.3831V146.41H106.823V121.924Z" fill="white" stroke="#9DAFCC" stroke-width="0.6" stroke-linecap="round" stroke-linejoin="round"/>
<path d="M92.4458 87.9344C92.4256 87.2457 92.5441 86.5599 92.7937 85.9176C93.0434 85.2754 93.4194 84.6898 93.8994 84.1955C94.3793 83.7012 94.9541 83.3083 95.5885 83.0399C96.2234 82.7716 96.9052 82.6333 97.5944 82.6333C98.2837 82.6333 98.9655 82.7716 99.6004 83.0399C100.235 83.3083 100.809 83.7012 101.29 84.1955C101.77 84.6898 102.146 85.2754 102.395 85.9176C102.645 86.5599 102.763 87.2457 102.743 87.9344" fill="#F25451"/>
<path d="M92.4458 87.9344C92.4256 87.2457 92.5441 86.5599 92.7937 85.9176C93.0434 85.2754 93.4194 84.6898 93.8994 84.1955C94.3793 83.7012 94.9541 83.3083 95.5885 83.0399C96.2234 82.7716 96.9052 82.6333 97.5944 82.6333C98.2837 82.6333 98.9655 82.7716 99.6004 83.0399C100.235 83.3083 100.809 83.7012 101.29 84.1955C101.77 84.6898 102.146 85.2754 102.395 85.9176C102.645 86.5599 102.763 87.2457 102.743 87.9344" stroke="#9DAFCC" stroke-width="0.6" stroke-linecap="round" stroke-linejoin="round"/>
<path d="M106.823 141.461H88.3831V146.406H106.823V141.461Z" fill="#365DA0" stroke="#9DAFCC" stroke-width="0.6" stroke-linecap="round" stroke-linejoin="round"/>
<path d="M106.823 121.924H88.3831V146.41H106.823V121.924Z" stroke="#9DAFCC" stroke-width="0.6" stroke-linecap="round" stroke-linejoin="round"/>
<path d="M105.332 104.874H89.875V121.924H105.332V104.874Z" fill="white" stroke="#9DAFCC" stroke-width="0.6" stroke-linecap="round" stroke-linejoin="round"/>
<path d="M100.234 129.843H94.9731V146.406H100.234V129.843Z" stroke="#9DAFCC" stroke-width="0.6" stroke-linecap="round" stroke-linejoin="round"/>
<path d="M100.234 129.843H94.9731V146.406H100.234V129.843Z" fill="#F25451" stroke="#9DAFCC" stroke-width="0.6" stroke-linecap="round" stroke-linejoin="round"/>
<path d="M88.3831 124.205H106.823" stroke="#9DAFCC" stroke-width="0.6" stroke-linecap="round" stroke-linejoin="round"/>
<path d="M88.3831 126.737H106.823" stroke="#9DAFCC" stroke-width="0.6" stroke-linecap="round" stroke-linejoin="round"/>
<path d="M98.9918 109.021H96.2146V114.878H98.9918V109.021Z" fill="#365DA0" stroke="#9DAFCC" stroke-width="0.6" stroke-linecap="round" stroke-linejoin="round"/>
<path d="M107.381 100.535H87.8306V104.87H107.381V100.535Z" fill="white" stroke="#9DAFCC" stroke-width="0.6" stroke-linecap="round" stroke-linejoin="round"/>
<path d="M87.8306 102.702H107.381" stroke="#9DAFCC" stroke-width="0.6" stroke-linecap="round" stroke-linejoin="round"/>
<path d="M102.752 87.9343H92.4548V100.535H102.752V87.9343Z" fill="#365DA0" stroke="#9DAFCC" stroke-width="0.6" stroke-linecap="round" stroke-linejoin="round"/>
<path d="M102.752 93.4451H92.4548V100.535H102.752V93.4451Z" fill="white" stroke="#9DAFCC" stroke-width="0.6" stroke-linecap="round" stroke-linejoin="round"/>
<path d="M95.8901 87.9343V93.4449" stroke="#9DAFCC" stroke-width="0.6" stroke-linecap="round" stroke-linejoin="round"/>
<path d="M99.321 87.9343V93.4449" stroke="#9DAFCC" stroke-width="0.6" stroke-linecap="round" stroke-linejoin="round"/>
<path d="M91.3796 87.9343H103.827" stroke="#9DAFCC" stroke-width="0.6" stroke-linecap="round" stroke-linejoin="round"/>
<path d="M97.6058 82.7834C98.6575 82.7834 99.5099 81.9309 99.5099 80.8792C99.5099 79.8276 98.6575 78.9751 97.6058 78.9751C96.5541 78.9751 95.7017 79.8276 95.7017 80.8792C95.7017 81.9309 96.5541 82.7834 97.6058 82.7834Z" fill="#F25451" stroke="#9DAFCC" stroke-width="0.6" stroke-linecap="round" stroke-linejoin="round"/>
<path d="M87.0977 100.535H108.113" stroke="#9DAFCC" stroke-width="0.6" stroke-linecap="round" stroke-linejoin="round"/>
<path d="M89.8616 100.535V96.9902" stroke="#9DAFCC" stroke-width="0.6" stroke-linecap="round" stroke-linejoin="round"/>
<path d="M92.446 100.535V96.9902" stroke="#9DAFCC" stroke-width="0.6" stroke-linecap="round" stroke-linejoin="round"/>
<path d="M95.0256 100.535V96.9902" stroke="#9DAFCC" stroke-width="0.6" stroke-linecap="round" stroke-linejoin="round"/>
<path d="M97.6055 100.535V96.9902" stroke="#9DAFCC" stroke-width="0.6" stroke-linecap="round" stroke-linejoin="round"/>
<path d="M100.185 100.535V96.9902" stroke="#9DAFCC" stroke-width="0.6" stroke-linecap="round" stroke-linejoin="round"/>
<path d="M102.765 100.535V96.9902" stroke="#9DAFCC" stroke-width="0.6" stroke-linecap="round" stroke-linejoin="round"/>
<path d="M105.345 100.535V96.9902" stroke="#9DAFCC" stroke-width="0.6" stroke-linecap="round" stroke-linejoin="round"/>
<path d="M89.8616 96.9902H105.345" stroke="#9DAFCC" stroke-width="0.6" stroke-linecap="round" stroke-linejoin="round"/>
<path d="M97.6055 78.9753V74.8774" stroke="#9DAFCC" stroke-width="0.6" stroke-linecap="round" stroke-linejoin="round"/>
</g>
</g>
<defs>
<filter id="filter0_dd_202_6327" x="-11.9112" y="-11.9112" width="296.822" height="263.822" filterUnits="userSpaceOnUse" color-interpolation-filters="sRGB">
<feFlood flood-opacity="0" result="BackgroundImageFix"/>
<feColorMatrix in="SourceAlpha" type="matrix" values="0 0 0 0 0 0 0 0 0 0 0 0 0 0 0 0 0 0 127 0" result="hardAlpha"/>
<feOffset/>
<feGaussianBlur stdDeviation="5.95559"/>
<feComposite in2="hardAlpha" operator="out"/>
<feColorMatrix type="matrix" values="0 0 0 0 0.568627 0 0 0 0 0.741176 0 0 0 0 0.866667 0 0 0 1 0"/>
<feBlend mode="normal" in2="BackgroundImageFix" result="effect1_dropShadow_202_6327"/>
<feColorMatrix in="SourceAlpha" type="matrix" values="0 0 0 0 0 0 0 0 0 0 0 0 0 0 0 0 0 0 127 0" result="hardAlpha"/>
<feOffset dy="2.38223"/>
<feGaussianBlur stdDeviation="2.97779"/>
<feComposite in2="hardAlpha" operator="out"/>
<feColorMatrix type="matrix" values="0 0 0 0 0 0 0 0 0 0 0 0 0 0 0 0 0 0 0.1 0"/>
<feBlend mode="normal" in2="effect1_dropShadow_202_6327" result="effect2_dropShadow_202_6327"/>
<feBlend mode="normal" in="SourceGraphic" in2="effect2_dropShadow_202_6327" result="shape"/>
</filter>
<filter id="filter1_dd_202_6327" x="5.97335" y="62.6662" width="259.017" height="108.31" filterUnits="userSpaceOnUse" color-interpolation-filters="sRGB">
<feFlood flood-opacity="0" result="BackgroundImageFix"/>
<feColorMatrix in="SourceAlpha" type="matrix" values="0 0 0 0 0 0 0 0 0 0 0 0 0 0 0 0 0 0 127 0" result="hardAlpha"/>
<feOffset/>
<feGaussianBlur stdDeviation="5.95559"/>
<feComposite in2="hardAlpha" operator="out"/>
<feColorMatrix type="matrix" values="0 0 0 0 0.568627 0 0 0 0 0.741176 0 0 0 0 0.866667 0 0 0 1 0"/>
<feBlend mode="normal" in2="BackgroundImageFix" result="effect1_dropShadow_202_6327"/>
<feColorMatrix in="SourceAlpha" type="matrix" values="0 0 0 0 0 0 0 0 0 0 0 0 0 0 0 0 0 0 127 0" result="hardAlpha"/>
<feOffset dy="2.38223"/>
<feGaussianBlur stdDeviation="2.97779"/>
<feComposite in2="hardAlpha" operator="out"/>
<feColorMatrix type="matrix" values="0 0 0 0 0 0 0 0 0 0 0 0 0 0 0 0 0 0 0.1 0"/>
<feBlend mode="normal" in2="effect1_dropShadow_202_6327" result="effect2_dropShadow_202_6327"/>
<feBlend mode="normal" in="SourceGraphic" in2="effect2_dropShadow_202_6327" result="shape"/>
</filter>
</defs>
</svg>
