<svg width="273" height="240" viewBox="0 0 273 240" fill="none" xmlns="http://www.w3.org/2000/svg">
<g filter="url(#filter0_dd_202_4848)">
<g filter="url(#filter1_dd_202_4848)">
<path d="M144.376 122.058H255.057V135.902H114.987L144.376 122.058Z" fill="#F25451" stroke="#9DAFCC" stroke-width="0.6" stroke-linecap="round" stroke-linejoin="round"/>
<path d="M255.056 177.024H116.597V215.947H255.056V177.024Z" fill="white" stroke="#9DAFCC" stroke-width="0.6" stroke-linecap="round" stroke-linejoin="round"/>
<path d="M255.056 208.625H116.597V215.951H255.056V208.625Z" fill="#365DA0" stroke="#9DAFCC" stroke-width="0.6" stroke-linecap="round" stroke-linejoin="round"/>
<path d="M255.057 173.268H114.987V177.024H255.057V173.268Z" fill="#365DA0" stroke="#9DAFCC" stroke-width="0.6" stroke-linecap="round" stroke-linejoin="round"/>
<path d="M116.597 180.603H255.056" stroke="#9DAFCC" stroke-width="0.6" stroke-linecap="round" stroke-linejoin="round"/>
<path d="M116.597 192.725H255.056" stroke="#9DAFCC" stroke-width="0.6" stroke-linecap="round" stroke-linejoin="round"/>
<path d="M116.597 184.645H255.056" stroke="#9DAFCC" stroke-width="0.6" stroke-linecap="round" stroke-linejoin="round"/>
<path d="M116.597 188.687H255.056" stroke="#9DAFCC" stroke-width="0.6" stroke-linecap="round" stroke-linejoin="round"/>
<path d="M116.597 200.805H255.056" stroke="#9DAFCC" stroke-width="0.6" stroke-linecap="round" stroke-linejoin="round"/>
<path d="M116.597 192.725H255.056" stroke="#9DAFCC" stroke-width="0.6" stroke-linecap="round" stroke-linejoin="round"/>
<path d="M116.597 196.767H255.056" stroke="#9DAFCC" stroke-width="0.6" stroke-linecap="round" stroke-linejoin="round"/>
<path d="M255.056 146.609H116.597V173.268H255.056V146.609Z" fill="#E4EBF5" stroke="#9DAFCC" stroke-width="0.6" stroke-linecap="round" stroke-linejoin="round"/>
<path d="M161.921 151.071H124.197V173.264H161.921V151.071Z" fill="white" stroke="#9DAFCC" stroke-width="0.6" stroke-linecap="round" stroke-linejoin="round"/>
<path d="M204.687 151.071H166.962V173.264H204.687V151.071Z" fill="white" stroke="#9DAFCC" stroke-width="0.6" stroke-linecap="round" stroke-linejoin="round"/>
<path d="M128.818 154.715C127.593 154.715 126.417 155.202 125.55 156.069C124.683 156.936 124.197 158.111 124.197 159.337V173.268H133.44V159.337C133.44 158.111 132.953 156.936 132.087 156.069C131.22 155.202 130.044 154.715 128.818 154.715Z" fill="#365DA0" stroke="#9DAFCC" stroke-width="0.6" stroke-linecap="round" stroke-linejoin="round"/>
<path d="M128.818 154.715V173.268" stroke="#9DAFCC" stroke-width="0.6" stroke-linecap="round" stroke-linejoin="round"/>
<path d="M124.197 159.437H133.44" stroke="#9DAFCC" stroke-width="0.6" stroke-linecap="round" stroke-linejoin="round"/>
<path d="M124.197 168.654H133.44" stroke="#9DAFCC" stroke-width="0.6" stroke-linecap="round" stroke-linejoin="round"/>
<path d="M124.197 164.045H133.44" stroke="#9DAFCC" stroke-width="0.6" stroke-linecap="round" stroke-linejoin="round"/>
<path d="M131.999 180.603H125.637V190.145H131.999V180.603Z" fill="#365DA0" stroke="#9DAFCC" stroke-width="0.6" stroke-linecap="round" stroke-linejoin="round"/>
<path d="M125.637 184.03H131.999" stroke="#9DAFCC" stroke-width="0.6" stroke-linecap="round" stroke-linejoin="round"/>
<path d="M128.818 184.03V190.15" stroke="#9DAFCC" stroke-width="0.6" stroke-linecap="round" stroke-linejoin="round"/>
<path d="M131.999 195.369H125.637V204.912H131.999V195.369Z" fill="#365DA0" stroke="#9DAFCC" stroke-width="0.6" stroke-linecap="round" stroke-linejoin="round"/>
<path d="M125.637 198.796H131.999" stroke="#9DAFCC" stroke-width="0.6" stroke-linecap="round" stroke-linejoin="round"/>
<path d="M128.818 198.796V204.916" stroke="#9DAFCC" stroke-width="0.6" stroke-linecap="round" stroke-linejoin="round"/>
<path d="M143.06 154.715C141.835 154.715 140.659 155.202 139.792 156.069C138.925 156.936 138.438 158.111 138.438 159.337V173.268H147.683V159.337C147.683 158.111 147.195 156.936 146.329 156.069C145.462 155.202 144.286 154.715 143.06 154.715Z" fill="#365DA0" stroke="#9DAFCC" stroke-width="0.6" stroke-linecap="round" stroke-linejoin="round"/>
<path d="M143.061 154.715V173.268" stroke="#9DAFCC" stroke-width="0.6" stroke-linecap="round" stroke-linejoin="round"/>
<path d="M138.438 159.437H147.683" stroke="#9DAFCC" stroke-width="0.6" stroke-linecap="round" stroke-linejoin="round"/>
<path d="M138.438 168.654H147.683" stroke="#9DAFCC" stroke-width="0.6" stroke-linecap="round" stroke-linejoin="round"/>
<path d="M138.438 164.045H147.683" stroke="#9DAFCC" stroke-width="0.6" stroke-linecap="round" stroke-linejoin="round"/>
<path d="M146.241 180.603H139.88V190.145H146.241V180.603Z" fill="#365DA0" stroke="#9DAFCC" stroke-width="0.6" stroke-linecap="round" stroke-linejoin="round"/>
<path d="M139.88 184.03H146.241" stroke="#9DAFCC" stroke-width="0.6" stroke-linecap="round" stroke-linejoin="round"/>
<path d="M143.061 184.03V190.15" stroke="#9DAFCC" stroke-width="0.6" stroke-linecap="round" stroke-linejoin="round"/>
<path d="M146.241 195.369H139.88V204.912H146.241V195.369Z" fill="#365DA0" stroke="#9DAFCC" stroke-width="0.6" stroke-linecap="round" stroke-linejoin="round"/>
<path d="M139.88 198.796H146.241" stroke="#9DAFCC" stroke-width="0.6" stroke-linecap="round" stroke-linejoin="round"/>
<path d="M143.061 198.796V204.916" stroke="#9DAFCC" stroke-width="0.6" stroke-linecap="round" stroke-linejoin="round"/>
<path d="M157.299 154.715C156.692 154.715 156.091 154.835 155.53 155.067C154.969 155.299 154.46 155.64 154.03 156.069C153.601 156.498 153.261 157.008 153.028 157.569C152.796 158.129 152.677 158.73 152.677 159.337V173.268H161.921V159.337C161.921 158.111 161.434 156.936 160.567 156.069C159.7 155.202 158.525 154.715 157.299 154.715Z" fill="#365DA0" stroke="#9DAFCC" stroke-width="0.6" stroke-linecap="round" stroke-linejoin="round"/>
<path d="M157.299 154.715V173.268" stroke="#9DAFCC" stroke-width="0.6" stroke-linecap="round" stroke-linejoin="round"/>
<path d="M152.677 159.437H161.921" stroke="#9DAFCC" stroke-width="0.6" stroke-linecap="round" stroke-linejoin="round"/>
<path d="M152.677 168.654H161.921" stroke="#9DAFCC" stroke-width="0.6" stroke-linecap="round" stroke-linejoin="round"/>
<path d="M152.677 164.045H161.921" stroke="#9DAFCC" stroke-width="0.6" stroke-linecap="round" stroke-linejoin="round"/>
<path d="M160.479 180.603H154.118V190.145H160.479V180.603Z" fill="#365DA0" stroke="#9DAFCC" stroke-width="0.6" stroke-linecap="round" stroke-linejoin="round"/>
<path d="M154.118 184.03H160.479" stroke="#9DAFCC" stroke-width="0.6" stroke-linecap="round" stroke-linejoin="round"/>
<path d="M157.299 184.03V190.15" stroke="#9DAFCC" stroke-width="0.6" stroke-linecap="round" stroke-linejoin="round"/>
<path d="M160.479 195.369H154.118V204.912H160.479V195.369Z" fill="#365DA0" stroke="#9DAFCC" stroke-width="0.6" stroke-linecap="round" stroke-linejoin="round"/>
<path d="M154.118 198.796H160.479" stroke="#9DAFCC" stroke-width="0.6" stroke-linecap="round" stroke-linejoin="round"/>
<path d="M157.299 198.796V204.916" stroke="#9DAFCC" stroke-width="0.6" stroke-linecap="round" stroke-linejoin="round"/>
<path d="M171.541 154.715C170.315 154.715 169.14 155.202 168.273 156.069C167.406 156.936 166.919 158.111 166.919 159.337V173.268H176.18V159.337C176.18 158.729 176.06 158.126 175.827 157.564C175.594 157.002 175.251 156.492 174.821 156.063C174.389 155.633 173.878 155.293 173.315 155.062C172.752 154.831 172.15 154.713 171.541 154.715Z" fill="#365DA0" stroke="#9DAFCC" stroke-width="0.6" stroke-linecap="round" stroke-linejoin="round"/>
<path d="M171.541 154.715V173.268" stroke="#9DAFCC" stroke-width="0.6" stroke-linecap="round" stroke-linejoin="round"/>
<path d="M166.919 159.437H176.163" stroke="#9DAFCC" stroke-width="0.6" stroke-linecap="round" stroke-linejoin="round"/>
<path d="M166.919 168.654H176.163" stroke="#9DAFCC" stroke-width="0.6" stroke-linecap="round" stroke-linejoin="round"/>
<path d="M166.919 164.045H176.163" stroke="#9DAFCC" stroke-width="0.6" stroke-linecap="round" stroke-linejoin="round"/>
<path d="M174.722 180.603H168.36V190.145H174.722V180.603Z" fill="#365DA0" stroke="#9DAFCC" stroke-width="0.6" stroke-linecap="round" stroke-linejoin="round"/>
<path d="M168.36 184.03H174.722" stroke="#9DAFCC" stroke-width="0.6" stroke-linecap="round" stroke-linejoin="round"/>
<path d="M171.541 184.03V190.15" stroke="#9DAFCC" stroke-width="0.6" stroke-linecap="round" stroke-linejoin="round"/>
<path d="M174.722 195.369H168.36V204.912H174.722V195.369Z" fill="#365DA0" stroke="#9DAFCC" stroke-width="0.6" stroke-linecap="round" stroke-linejoin="round"/>
<path d="M168.36 198.796H174.722" stroke="#9DAFCC" stroke-width="0.6" stroke-linecap="round" stroke-linejoin="round"/>
<path d="M171.541 198.796V204.916" stroke="#9DAFCC" stroke-width="0.6" stroke-linecap="round" stroke-linejoin="round"/>
<path d="M185.779 154.715C184.553 154.715 183.377 155.202 182.511 156.069C181.644 156.936 181.157 158.111 181.157 159.337V173.268H190.401V159.337C190.401 158.111 189.914 156.936 189.047 156.069C188.18 155.202 187.005 154.715 185.779 154.715Z" fill="#365DA0" stroke="#9DAFCC" stroke-width="0.6" stroke-linecap="round" stroke-linejoin="round"/>
<path d="M185.779 154.715V173.268" stroke="#9DAFCC" stroke-width="0.6" stroke-linecap="round" stroke-linejoin="round"/>
<path d="M181.157 159.437H190.401" stroke="#9DAFCC" stroke-width="0.6" stroke-linecap="round" stroke-linejoin="round"/>
<path d="M181.157 168.654H190.401" stroke="#9DAFCC" stroke-width="0.6" stroke-linecap="round" stroke-linejoin="round"/>
<path d="M181.157 164.045H190.401" stroke="#9DAFCC" stroke-width="0.6" stroke-linecap="round" stroke-linejoin="round"/>
<path d="M188.96 180.603H182.598V190.145H188.96V180.603Z" fill="#365DA0" stroke="#9DAFCC" stroke-width="0.6" stroke-linecap="round" stroke-linejoin="round"/>
<path d="M182.598 184.03H188.96" stroke="#9DAFCC" stroke-width="0.6" stroke-linecap="round" stroke-linejoin="round"/>
<path d="M185.779 184.03V190.15" stroke="#9DAFCC" stroke-width="0.6" stroke-linecap="round" stroke-linejoin="round"/>
<path d="M188.96 195.369H182.598V204.912H188.96V195.369Z" fill="#365DA0" stroke="#9DAFCC" stroke-width="0.6" stroke-linecap="round" stroke-linejoin="round"/>
<path d="M182.598 198.796H188.96" stroke="#9DAFCC" stroke-width="0.6" stroke-linecap="round" stroke-linejoin="round"/>
<path d="M185.779 198.796V204.916" stroke="#9DAFCC" stroke-width="0.6" stroke-linecap="round" stroke-linejoin="round"/>
<path d="M200.021 154.715C198.795 154.715 197.62 155.202 196.753 156.069C195.887 156.936 195.399 158.111 195.399 159.337V173.268H204.644V159.337C204.644 158.111 204.156 156.936 203.29 156.069C202.423 155.202 201.247 154.715 200.021 154.715Z" fill="#365DA0" stroke="#9DAFCC" stroke-width="0.6" stroke-linecap="round" stroke-linejoin="round"/>
<path d="M200.021 154.715V173.268" stroke="#9DAFCC" stroke-width="0.6" stroke-linecap="round" stroke-linejoin="round"/>
<path d="M195.399 159.437H204.644" stroke="#9DAFCC" stroke-width="0.6" stroke-linecap="round" stroke-linejoin="round"/>
<path d="M195.399 168.654H204.644" stroke="#9DAFCC" stroke-width="0.6" stroke-linecap="round" stroke-linejoin="round"/>
<path d="M195.399 164.045H204.644" stroke="#9DAFCC" stroke-width="0.6" stroke-linecap="round" stroke-linejoin="round"/>
<path d="M203.198 180.603H196.836V190.145H203.198V180.603Z" fill="#365DA0" stroke="#9DAFCC" stroke-width="0.6" stroke-linecap="round" stroke-linejoin="round"/>
<path d="M196.836 184.03H203.202" stroke="#9DAFCC" stroke-width="0.6" stroke-linecap="round" stroke-linejoin="round"/>
<path d="M200.021 184.03V190.15" stroke="#9DAFCC" stroke-width="0.6" stroke-linecap="round" stroke-linejoin="round"/>
<path d="M203.198 195.369H196.836V204.912H203.198V195.369Z" fill="#365DA0" stroke="#9DAFCC" stroke-width="0.6" stroke-linecap="round" stroke-linejoin="round"/>
<path d="M196.836 198.796H203.202" stroke="#9DAFCC" stroke-width="0.6" stroke-linecap="round" stroke-linejoin="round"/>
<path d="M200.021 198.796V204.916" stroke="#9DAFCC" stroke-width="0.6" stroke-linecap="round" stroke-linejoin="round"/>
<path d="M214.264 154.715C213.038 154.715 211.862 155.202 210.995 156.069C210.129 156.936 209.642 158.111 209.642 159.337V173.268H218.885V159.337C218.885 158.111 218.399 156.936 217.532 156.069C216.665 155.202 215.489 154.715 214.264 154.715Z" fill="#365DA0" stroke="#9DAFCC" stroke-width="0.6" stroke-linecap="round" stroke-linejoin="round"/>
<path d="M214.26 154.715V173.268" stroke="#9DAFCC" stroke-width="0.6" stroke-linecap="round" stroke-linejoin="round"/>
<path d="M209.638 159.437H218.881" stroke="#9DAFCC" stroke-width="0.6" stroke-linecap="round" stroke-linejoin="round"/>
<path d="M209.638 168.654H218.881" stroke="#9DAFCC" stroke-width="0.6" stroke-linecap="round" stroke-linejoin="round"/>
<path d="M209.638 164.045H218.881" stroke="#9DAFCC" stroke-width="0.6" stroke-linecap="round" stroke-linejoin="round"/>
<path d="M217.44 180.603H211.078V190.145H217.44V180.603Z" fill="#365DA0" stroke="#9DAFCC" stroke-width="0.6" stroke-linecap="round" stroke-linejoin="round"/>
<path d="M211.078 184.03H217.44" stroke="#9DAFCC" stroke-width="0.6" stroke-linecap="round" stroke-linejoin="round"/>
<path d="M214.26 184.03V190.15" stroke="#9DAFCC" stroke-width="0.6" stroke-linecap="round" stroke-linejoin="round"/>
<path d="M217.44 195.369H211.078V204.912H217.44V195.369Z" fill="#365DA0" stroke="#9DAFCC" stroke-width="0.6" stroke-linecap="round" stroke-linejoin="round"/>
<path d="M211.078 198.796H217.44" stroke="#9DAFCC" stroke-width="0.6" stroke-linecap="round" stroke-linejoin="round"/>
<path d="M214.26 198.796V204.916" stroke="#9DAFCC" stroke-width="0.6" stroke-linecap="round" stroke-linejoin="round"/>
<path d="M228.498 154.715C227.272 154.715 226.096 155.202 225.229 156.069C224.363 156.936 223.875 158.111 223.875 159.337V173.268H233.124V159.337C233.123 158.111 232.635 156.936 231.768 156.069C230.9 155.202 229.724 154.715 228.498 154.715Z" fill="#365DA0" stroke="#9DAFCC" stroke-width="0.6" stroke-linecap="round" stroke-linejoin="round"/>
<path d="M228.498 154.715V173.268" stroke="#9DAFCC" stroke-width="0.6" stroke-linecap="round" stroke-linejoin="round"/>
<path d="M223.875 159.437H233.124" stroke="#9DAFCC" stroke-width="0.6" stroke-linecap="round" stroke-linejoin="round"/>
<path d="M223.875 168.654H233.124" stroke="#9DAFCC" stroke-width="0.6" stroke-linecap="round" stroke-linejoin="round"/>
<path d="M223.875 164.045H233.124" stroke="#9DAFCC" stroke-width="0.6" stroke-linecap="round" stroke-linejoin="round"/>
<path d="M231.678 180.603H225.317V190.145H231.678V180.603Z" fill="#365DA0" stroke="#9DAFCC" stroke-width="0.6" stroke-linecap="round" stroke-linejoin="round"/>
<path d="M225.317 184.03H231.682" stroke="#9DAFCC" stroke-width="0.6" stroke-linecap="round" stroke-linejoin="round"/>
<path d="M228.498 184.03V190.15" stroke="#9DAFCC" stroke-width="0.6" stroke-linecap="round" stroke-linejoin="round"/>
<path d="M231.678 195.369H225.317V204.912H231.678V195.369Z" fill="#365DA0" stroke="#9DAFCC" stroke-width="0.6" stroke-linecap="round" stroke-linejoin="round"/>
<path d="M225.317 198.796H231.682" stroke="#9DAFCC" stroke-width="0.6" stroke-linecap="round" stroke-linejoin="round"/>
<path d="M228.498 198.796V204.916" stroke="#9DAFCC" stroke-width="0.6" stroke-linecap="round" stroke-linejoin="round"/>
<path d="M242.74 154.715C241.514 154.715 240.339 155.202 239.472 156.069C238.605 156.936 238.118 158.111 238.118 159.337V173.268H247.362V159.337C247.362 158.111 246.875 156.936 246.008 156.069C245.142 155.202 243.966 154.715 242.74 154.715Z" fill="#365DA0" stroke="#9DAFCC" stroke-width="0.6" stroke-linecap="round" stroke-linejoin="round"/>
<path d="M242.74 154.715V173.268" stroke="#9DAFCC" stroke-width="0.6" stroke-linecap="round" stroke-linejoin="round"/>
<path d="M238.118 159.437H247.362" stroke="#9DAFCC" stroke-width="0.6" stroke-linecap="round" stroke-linejoin="round"/>
<path d="M238.118 168.654H247.362" stroke="#9DAFCC" stroke-width="0.6" stroke-linecap="round" stroke-linejoin="round"/>
<path d="M238.118 164.045H247.362" stroke="#9DAFCC" stroke-width="0.6" stroke-linecap="round" stroke-linejoin="round"/>
<path d="M245.921 180.603H239.559V190.145H245.921V180.603Z" fill="#365DA0" stroke="#9DAFCC" stroke-width="0.6" stroke-linecap="round" stroke-linejoin="round"/>
<path d="M239.559 184.03H245.921" stroke="#9DAFCC" stroke-width="0.6" stroke-linecap="round" stroke-linejoin="round"/>
<path d="M242.74 184.03V190.15" stroke="#9DAFCC" stroke-width="0.6" stroke-linecap="round" stroke-linejoin="round"/>
<path d="M245.921 195.369H239.559V204.912H245.921V195.369Z" fill="#365DA0" stroke="#9DAFCC" stroke-width="0.6" stroke-linecap="round" stroke-linejoin="round"/>
<path d="M239.559 198.796H245.921" stroke="#9DAFCC" stroke-width="0.6" stroke-linecap="round" stroke-linejoin="round"/>
<path d="M242.74 198.796V204.916" stroke="#9DAFCC" stroke-width="0.6" stroke-linecap="round" stroke-linejoin="round"/>
<path d="M221.378 154.399C222.614 154.399 223.616 153.397 223.616 152.162C223.616 150.926 222.614 149.924 221.378 149.924C220.143 149.924 219.141 150.926 219.141 152.162C219.141 153.397 220.143 154.399 221.378 154.399Z" fill="#365DA0" stroke="#9DAFCC" stroke-width="0.6" stroke-linecap="round" stroke-linejoin="round"/>
<path d="M235.646 154.399C236.882 154.399 237.884 153.397 237.884 152.162C237.884 150.926 236.882 149.924 235.646 149.924C234.411 149.924 233.409 150.926 233.409 152.162C233.409 153.397 234.411 154.399 235.646 154.399Z" fill="#365DA0" stroke="#9DAFCC" stroke-width="0.6" stroke-linecap="round" stroke-linejoin="round"/>
<path d="M249.915 154.399C251.151 154.399 252.153 153.397 252.153 152.162C252.153 150.926 251.151 149.924 249.915 149.924C248.68 149.924 247.678 150.926 247.678 152.162C247.678 153.397 248.68 154.399 249.915 154.399Z" fill="#365DA0" stroke="#9DAFCC" stroke-width="0.6" stroke-linecap="round" stroke-linejoin="round"/>
<path d="M255.056 139.655H116.597V146.609H255.056V139.655Z" fill="white" stroke="#9DAFCC" stroke-width="0.6" stroke-linecap="round" stroke-linejoin="round"/>
<path d="M255.057 135.902H114.957V139.654H255.057V135.902Z" fill="white" stroke="#9DAFCC" stroke-width="0.6" stroke-linecap="round" stroke-linejoin="round"/>
<path d="M124.621 139.655H120.829V143.446H124.621V139.655Z" fill="white" stroke="#9DAFCC" stroke-width="0.6" stroke-linecap="round" stroke-linejoin="round"/>
<path d="M133.033 139.655H129.242V143.446H133.033V139.655Z" fill="white" stroke="#9DAFCC" stroke-width="0.6" stroke-linecap="round" stroke-linejoin="round"/>
<path d="M141.446 139.655H137.656V143.446H141.446V139.655Z" fill="white" stroke="#9DAFCC" stroke-width="0.6" stroke-linecap="round" stroke-linejoin="round"/>
<path d="M149.859 139.655H146.069V143.446H149.859V139.655Z" fill="white" stroke="#9DAFCC" stroke-width="0.6" stroke-linecap="round" stroke-linejoin="round"/>
<path d="M158.272 139.655H154.481V143.446H158.272V139.655Z" fill="white" stroke="#9DAFCC" stroke-width="0.6" stroke-linecap="round" stroke-linejoin="round"/>
<path d="M166.685 139.655H162.894V143.446H166.685V139.655Z" fill="white" stroke="#9DAFCC" stroke-width="0.6" stroke-linecap="round" stroke-linejoin="round"/>
<path d="M175.103 139.655H171.312V143.446H175.103V139.655Z" fill="white" stroke="#9DAFCC" stroke-width="0.6" stroke-linecap="round" stroke-linejoin="round"/>
<path d="M183.516 139.655H179.724V143.446H183.516V139.655Z" fill="white" stroke="#9DAFCC" stroke-width="0.6" stroke-linecap="round" stroke-linejoin="round"/>
<path d="M191.929 139.655H188.137V143.446H191.929V139.655Z" fill="white" stroke="#9DAFCC" stroke-width="0.6" stroke-linecap="round" stroke-linejoin="round"/>
<path d="M200.342 139.655H196.551V143.446H200.342V139.655Z" fill="white" stroke="#9DAFCC" stroke-width="0.6" stroke-linecap="round" stroke-linejoin="round"/>
<path d="M208.755 139.655H204.963V143.446H208.755V139.655Z" fill="white" stroke="#9DAFCC" stroke-width="0.6" stroke-linecap="round" stroke-linejoin="round"/>
<path d="M217.168 139.655H213.377V143.446H217.168V139.655Z" fill="white" stroke="#9DAFCC" stroke-width="0.6" stroke-linecap="round" stroke-linejoin="round"/>
<path d="M225.581 139.655H221.79V143.446H225.581V139.655Z" fill="white" stroke="#9DAFCC" stroke-width="0.6" stroke-linecap="round" stroke-linejoin="round"/>
<path d="M233.998 139.655H230.207V143.446H233.998V139.655Z" fill="white" stroke="#9DAFCC" stroke-width="0.6" stroke-linecap="round" stroke-linejoin="round"/>
<path d="M242.411 139.655H238.62V143.446H242.411V139.655Z" fill="white" stroke="#9DAFCC" stroke-width="0.6" stroke-linecap="round" stroke-linejoin="round"/>
<path d="M250.824 139.655H247.033V143.446H250.824V139.655Z" fill="white" stroke="#9DAFCC" stroke-width="0.6" stroke-linecap="round" stroke-linejoin="round"/>
<path d="M255.057 130.268H194.954V135.903H255.057V130.268Z" fill="white" stroke="#9DAFCC" stroke-width="0.6" stroke-linecap="round" stroke-linejoin="round"/>
<path d="M237.447 102.458H223.062C215.683 104.765 210.308 110.521 209.72 117.389H250.789C250.184 110.521 244.826 104.765 237.447 102.458Z" fill="#F25451" stroke="#9DAFCC" stroke-width="0.6" stroke-linecap="round" stroke-linejoin="round"/>
<path d="M252.39 117.389H208.118V122.058H252.39V117.389Z" fill="white" stroke="#9DAFCC" stroke-width="0.6" stroke-linecap="round" stroke-linejoin="round"/>
<path d="M250.798 122.058H209.612V130.268H250.798V122.058Z" fill="#E4EBF5" stroke="#9DAFCC" stroke-width="0.6" stroke-linecap="round" stroke-linejoin="round"/>
<path d="M216.964 113.849C215.9 113.849 214.88 114.271 214.128 115.024C213.375 115.776 212.953 116.796 212.953 117.861V130.255H220.976V117.861C220.976 116.796 220.554 115.776 219.801 115.024C219.049 114.271 218.028 113.849 216.964 113.849Z" fill="white" stroke="#9DAFCC" stroke-width="0.6" stroke-linecap="round" stroke-linejoin="round"/>
<path d="M216.964 120.172C217.935 120.172 218.721 119.385 218.721 118.414C218.721 117.444 217.935 116.657 216.964 116.657C215.994 116.657 215.207 117.444 215.207 118.414C215.207 119.385 215.994 120.172 216.964 120.172Z" fill="#365DA0" stroke="#9DAFCC" stroke-width="0.6" stroke-linecap="round" stroke-linejoin="round"/>
<path d="M218.539 122.565H215.389V130.268H218.539V122.565Z" fill="white" stroke="#9DAFCC" stroke-width="0.6" stroke-linecap="round" stroke-linejoin="round"/>
<path d="M230.181 113.849C229.117 113.849 228.096 114.271 227.344 115.024C226.592 115.776 226.169 116.796 226.169 117.861V130.255H234.193V117.861C234.193 116.796 233.77 115.776 233.017 115.024C232.265 114.271 231.245 113.849 230.181 113.849Z" fill="white" stroke="#9DAFCC" stroke-width="0.6" stroke-linecap="round" stroke-linejoin="round"/>
<path d="M230.181 120.172C231.151 120.172 231.938 119.385 231.938 118.414C231.938 117.444 231.151 116.657 230.181 116.657C229.211 116.657 228.424 117.444 228.424 118.414C228.424 119.385 229.211 120.172 230.181 120.172Z" fill="#365DA0" stroke="#9DAFCC" stroke-width="0.6" stroke-linecap="round" stroke-linejoin="round"/>
<path d="M231.756 122.565H228.606V130.268H231.756V122.565Z" fill="white" stroke="#9DAFCC" stroke-width="0.6" stroke-linecap="round" stroke-linejoin="round"/>
<path d="M243.397 113.849C242.334 113.85 241.315 114.273 240.564 115.025C239.812 115.777 239.39 116.797 239.39 117.861V130.255H247.41V117.861C247.41 116.796 246.987 115.776 246.234 115.024C245.482 114.271 244.462 113.849 243.397 113.849Z" fill="white" stroke="#9DAFCC" stroke-width="0.6" stroke-linecap="round" stroke-linejoin="round"/>
<path d="M243.398 120.172C244.368 120.172 245.155 119.385 245.155 118.414C245.155 117.444 244.368 116.657 243.398 116.657C242.427 116.657 241.64 117.444 241.64 118.414C241.64 119.385 242.427 120.172 243.398 120.172Z" fill="#365DA0" stroke="#9DAFCC" stroke-width="0.6" stroke-linecap="round" stroke-linejoin="round"/>
<path d="M244.973 122.565H241.822V130.268H244.973V122.565Z" fill="white" stroke="#9DAFCC" stroke-width="0.6" stroke-linecap="round" stroke-linejoin="round"/>
<path d="M237.434 98.823H223.062V102.458H237.434V98.823Z" fill="#F25451" stroke="#9DAFCC" stroke-width="0.6" stroke-linecap="round" stroke-linejoin="round"/>
<path d="M235.374 91.0547H225.256V98.8185H235.374V91.0547Z" fill="white" stroke="#9DAFCC" stroke-width="0.6" stroke-linecap="round" stroke-linejoin="round"/>
<path d="M230.315 85.9961C228.973 85.997 227.687 86.5304 226.739 87.4788C225.791 88.4276 225.257 89.7137 225.256 91.0548H235.374C235.374 89.7132 234.841 88.4267 233.892 87.4778C232.944 86.5289 231.657 85.9961 230.315 85.9961Z" fill="#F25451" stroke="#9DAFCC" stroke-width="0.6" stroke-linecap="round" stroke-linejoin="round"/>
<path d="M230.315 85.9956V76.8816" stroke="#9DAFCC" stroke-width="0.6" stroke-linecap="round" stroke-linejoin="round"/>
<path d="M149.859 126.313C149.255 126.313 148.674 126.553 148.246 126.981C147.819 127.408 147.579 127.989 147.579 128.594V132.255H152.144V128.594C152.144 128.294 152.085 127.997 151.97 127.72C151.855 127.443 151.687 127.191 151.475 126.98C151.262 126.768 151.01 126.6 150.733 126.485C150.456 126.371 150.159 126.312 149.859 126.313Z" fill="#365DA0" stroke="#9DAFCC" stroke-width="0.6" stroke-miterlimit="10" stroke-linecap="round"/>
<path d="M163.63 126.313C163.025 126.313 162.445 126.553 162.017 126.981C161.589 127.408 161.349 127.989 161.349 128.594V132.255H165.915V128.594C165.915 128.294 165.856 127.997 165.741 127.72C165.626 127.443 165.458 127.191 165.245 126.98C165.033 126.768 164.781 126.6 164.504 126.485C164.227 126.371 163.93 126.312 163.63 126.313Z" fill="#365DA0" stroke="#9DAFCC" stroke-width="0.6" stroke-miterlimit="10" stroke-linecap="round"/>
<path d="M177.271 179.586H164.119V215.947H177.271V179.586Z" fill="white" stroke="#9DAFCC" stroke-width="0.6" stroke-linecap="round" stroke-linejoin="round"/>
<path d="M177.271 209.105H164.119V215.947H177.271V209.105Z" fill="#E4EBF5" stroke="#9DAFCC" stroke-width="0.6" stroke-linecap="round" stroke-linejoin="round"/>
<path d="M123.816 117.194C123.816 106.223 116.848 107.483 112.711 100.598C108.573 107.483 101.623 106.223 101.606 117.194H123.816Z" fill="#F25451" stroke="#9DAFCC" stroke-width="0.6" stroke-linejoin="round"/>
<path d="M121.669 117.194H103.739V144.822H121.669V117.194Z" fill="white" stroke="#9DAFCC" stroke-width="0.6" stroke-linejoin="round"/>
<path d="M103.739 121.634H121.665" stroke="#9DAFCC" stroke-width="0.6" stroke-linejoin="round"/>
<path d="M112.771 100.597V88.7222" stroke="#9DAFCC" stroke-width="0.6" stroke-linejoin="round"/>
<path d="M109.751 92.8162H115.653" stroke="#9DAFCC" stroke-width="0.6" stroke-linejoin="round"/>
<path d="M111.36 90.5273H114.178" stroke="#9DAFCC" stroke-width="0.6" stroke-linejoin="round"/>
<path d="M111.088 95.8372L114.398 97.6375" stroke="#9DAFCC" stroke-width="0.6" stroke-linejoin="round"/>
<path d="M155.779 136.313C155.779 130.54 152.11 131.202 149.933 127.58C147.769 131.202 144.095 130.54 144.086 136.313H155.779Z" fill="#F25451" stroke="#9DAFCC" stroke-width="0.6" stroke-linejoin="round"/>
<path d="M154.654 136.31H145.216V150.855H154.654V136.31Z" fill="white" stroke="#9DAFCC" stroke-width="0.6" stroke-linejoin="round"/>
<path d="M145.216 138.646H154.654" stroke="#9DAFCC" stroke-width="0.6" stroke-linejoin="round"/>
<path d="M149.933 140.849C149.387 140.849 148.862 141.066 148.476 141.452C148.09 141.839 147.873 142.363 147.873 142.909V148.6H151.993V142.909C151.993 142.363 151.776 141.839 151.389 141.452C151.003 141.066 150.479 140.849 149.933 140.849Z" fill="#365DA0" stroke="#9DAFCC" stroke-width="0.6" stroke-miterlimit="10" stroke-linecap="round"/>
<path d="M149.937 127.576V115.701" stroke="#9DAFCC" stroke-width="0.6" stroke-linejoin="round"/>
<path d="M146.921 119.791H152.824" stroke="#9DAFCC" stroke-width="0.6" stroke-linejoin="round"/>
<path d="M148.531 117.505H151.348" stroke="#9DAFCC" stroke-width="0.6" stroke-linejoin="round"/>
<path d="M148.258 122.811L151.569 124.612" stroke="#9DAFCC" stroke-width="0.6" stroke-linejoin="round"/>
<path d="M101.406 144.822L80.0193 151.075H165.56L144.177 144.822H101.406Z" fill="#F25451" stroke="#9DAFCC" stroke-width="0.6" stroke-linecap="round" stroke-linejoin="round"/>
<path d="M164.115 155.156H81.2959V215.951H164.115V155.156Z" fill="white" stroke="#9DAFCC" stroke-width="0.6" stroke-linecap="round" stroke-linejoin="round"/>
<path d="M164.115 209.105H81.2959V215.947H164.115V209.105Z" fill="#E4EBF5" stroke="#9DAFCC" stroke-width="0.6" stroke-linecap="round" stroke-linejoin="round"/>
<path d="M164.115 159.887H81.2959V165.271H164.115V159.887Z" fill="white" stroke="#9DAFCC" stroke-width="0.6" stroke-linecap="round" stroke-linejoin="round"/>
<path d="M137.569 155.156H131.696V209.105H137.569V155.156Z" fill="white" stroke="#9DAFCC" stroke-width="0.6" stroke-linecap="round" stroke-linejoin="round"/>
<path d="M114.818 174.462H17.2334V215.947H114.818V174.462Z" fill="#E4EBF5" stroke="#9DAFCC" stroke-width="0.6" stroke-linecap="round" stroke-linejoin="round"/>
<path d="M23.0888 174.462H17.2334V209.105H23.0888V174.462Z" stroke="#9DAFCC" stroke-width="0.6" stroke-linecap="round" stroke-linejoin="round"/>
<path d="M61.8779 174.462H56.0227V209.105H61.8779V174.462Z" stroke="#9DAFCC" stroke-width="0.6" stroke-linecap="round" stroke-linejoin="round"/>
<path d="M85.5417 174.462H79.686V209.105H85.5417V174.462Z" stroke="#9DAFCC" stroke-width="0.6" stroke-linecap="round" stroke-linejoin="round"/>
<path d="M114.818 209.105H17.2334V215.947H114.818V209.105Z" fill="#365DA0" stroke="#9DAFCC" stroke-width="0.6" stroke-linecap="round" stroke-linejoin="round"/>
<path d="M61.8777 179.586H79.6859" stroke="#9DAFCC" stroke-width="0.6" stroke-linecap="round" stroke-linejoin="round"/>
<path d="M66.3311 174.821V179.586" stroke="#9DAFCC" stroke-width="0.6" stroke-linecap="round" stroke-linejoin="round"/>
<path d="M61.8777 174.821V179.586" stroke="#9DAFCC" stroke-width="0.6" stroke-linecap="round" stroke-linejoin="round"/>
<path d="M70.7842 174.821V179.586" stroke="#9DAFCC" stroke-width="0.6" stroke-linecap="round" stroke-linejoin="round"/>
<path d="M75.2371 174.462V179.586" stroke="#9DAFCC" stroke-width="0.6" stroke-linecap="round" stroke-linejoin="round"/>
<path d="M23.0886 179.586H56.0221" stroke="#9DAFCC" stroke-width="0.6" stroke-linecap="round" stroke-linejoin="round"/>
<path d="M27.2043 174.821V179.586" stroke="#9DAFCC" stroke-width="0.6" stroke-linecap="round" stroke-linejoin="round"/>
<path d="M23.0886 174.821V179.586" stroke="#9DAFCC" stroke-width="0.6" stroke-linecap="round" stroke-linejoin="round"/>
<path d="M31.3242 174.821V179.586" stroke="#9DAFCC" stroke-width="0.6" stroke-linecap="round" stroke-linejoin="round"/>
<path d="M35.4399 174.462V179.586" stroke="#9DAFCC" stroke-width="0.6" stroke-linecap="round" stroke-linejoin="round"/>
<path d="M39.5554 174.821V179.586" stroke="#9DAFCC" stroke-width="0.6" stroke-linecap="round" stroke-linejoin="round"/>
<path d="M43.6711 174.821V179.586" stroke="#9DAFCC" stroke-width="0.6" stroke-linecap="round" stroke-linejoin="round"/>
<path d="M47.791 174.462V179.586" stroke="#9DAFCC" stroke-width="0.6" stroke-linecap="round" stroke-linejoin="round"/>
<path d="M51.9065 174.462V179.586" stroke="#9DAFCC" stroke-width="0.6" stroke-linecap="round" stroke-linejoin="round"/>
<path d="M56.0227 174.462V179.586" stroke="#9DAFCC" stroke-width="0.6" stroke-linecap="round" stroke-linejoin="round"/>
<path d="M79.686 174.462V179.586" stroke="#9DAFCC" stroke-width="0.6" stroke-linecap="round" stroke-linejoin="round"/>
<path d="M70.7843 183.273C70.062 183.273 69.3468 183.415 68.6791 183.692C68.0118 183.968 67.4053 184.374 66.8948 184.884C66.3838 185.395 65.9787 186.001 65.7023 186.669C65.4259 187.336 65.2834 188.052 65.2834 188.774V204.752H76.2847V188.774C76.2847 187.315 75.7049 185.916 74.6734 184.884C73.6419 183.853 72.2428 183.273 70.7843 183.273Z" fill="#365DA0" stroke="#9DAFCC" stroke-width="0.6" stroke-linecap="round" stroke-linejoin="round"/>
<path d="M70.7842 183.273V204.752" stroke="#9DAFCC" stroke-width="0.6" stroke-linecap="round" stroke-linejoin="round"/>
<path d="M65.2834 188.891H76.2847" stroke="#9DAFCC" stroke-width="0.6" stroke-linecap="round" stroke-linejoin="round"/>
<path d="M65.2834 199.463H76.2847" stroke="#9DAFCC" stroke-width="0.6" stroke-linecap="round" stroke-linejoin="round"/>
<path d="M65.2834 194.175H76.2847" stroke="#9DAFCC" stroke-width="0.6" stroke-linecap="round" stroke-linejoin="round"/>
<path d="M39.5556 183.273C38.0969 183.273 36.6978 183.853 35.6662 184.884C34.6347 185.916 34.0552 187.315 34.0552 188.774V204.752H45.0518V188.774C45.0518 187.316 44.4729 185.917 43.4423 184.886C42.4117 183.854 41.0137 183.274 39.5556 183.273Z" fill="#365DA0" stroke="#9DAFCC" stroke-width="0.6" stroke-linecap="round" stroke-linejoin="round"/>
<path d="M39.5554 183.273V204.752" stroke="#9DAFCC" stroke-width="0.6" stroke-linecap="round" stroke-linejoin="round"/>
<path d="M34.0552 188.891H45.0561" stroke="#9DAFCC" stroke-width="0.6" stroke-linecap="round" stroke-linejoin="round"/>
<path d="M34.0552 199.463H45.0561" stroke="#9DAFCC" stroke-width="0.6" stroke-linecap="round" stroke-linejoin="round"/>
<path d="M34.0552 194.175H45.0561" stroke="#9DAFCC" stroke-width="0.6" stroke-linecap="round" stroke-linejoin="round"/>
<path d="M109.209 174.462H103.354V209.105H109.209V174.462Z" stroke="#9DAFCC" stroke-width="0.6" stroke-linecap="round" stroke-linejoin="round"/>
<path d="M85.5413 179.586H103.354" stroke="#9DAFCC" stroke-width="0.6" stroke-linecap="round" stroke-linejoin="round"/>
<path d="M89.9944 174.821V179.586" stroke="#9DAFCC" stroke-width="0.6" stroke-linecap="round" stroke-linejoin="round"/>
<path d="M94.4478 174.821V179.586" stroke="#9DAFCC" stroke-width="0.6" stroke-linecap="round" stroke-linejoin="round"/>
<path d="M98.9009 174.462V179.586" stroke="#9DAFCC" stroke-width="0.6" stroke-linecap="round" stroke-linejoin="round"/>
<path d="M103.354 174.462V179.586" stroke="#9DAFCC" stroke-width="0.6" stroke-linecap="round" stroke-linejoin="round"/>
<path d="M94.4477 183.273C92.9892 183.273 91.5901 183.853 90.5586 184.884C89.5271 185.916 88.9473 187.315 88.9473 188.774V204.752H99.9486V188.774C99.9486 187.315 99.3687 185.916 98.3372 184.884C97.3057 183.853 95.9066 183.273 94.4477 183.273Z" fill="#365DA0" stroke="#9DAFCC" stroke-width="0.6" stroke-linecap="round" stroke-linejoin="round"/>
<path d="M94.4478 183.273V204.752" stroke="#9DAFCC" stroke-width="0.6" stroke-linecap="round" stroke-linejoin="round"/>
<path d="M88.9473 188.891H99.9486" stroke="#9DAFCC" stroke-width="0.6" stroke-linecap="round" stroke-linejoin="round"/>
<path d="M88.9473 199.463H99.9486" stroke="#9DAFCC" stroke-width="0.6" stroke-linecap="round" stroke-linejoin="round"/>
<path d="M88.9473 194.175H99.9486" stroke="#9DAFCC" stroke-width="0.6" stroke-linecap="round" stroke-linejoin="round"/>
<path d="M102.112 159.887H17.2334V174.462H116.631L102.112 159.887Z" fill="#F25451" stroke="#9DAFCC" stroke-width="0.6" stroke-linecap="round" stroke-linejoin="round"/>
<path d="M60.1597 118.284H18.9214V125.464H60.1597V118.284Z" fill="white" stroke="#9DAFCC" stroke-width="0.6" stroke-linecap="round" stroke-linejoin="round"/>
<path d="M25.3479 114.096L17.1902 118.285H61.895L53.7374 114.096H25.3479Z" fill="#F25451" stroke="#9DAFCC" stroke-width="0.6" stroke-linecap="round" stroke-linejoin="round"/>
<path d="M53.7375 85.0007H25.3479V114.096H53.7375V85.0007Z" fill="white" stroke="#9DAFCC" stroke-width="0.6" stroke-linecap="round" stroke-linejoin="round"/>
<path d="M56.7973 78.1497H22.2883V85.0002H56.7973V78.1497Z" fill="white" stroke="#9DAFCC" stroke-width="0.6" stroke-linecap="round" stroke-linejoin="round"/>
<path d="M22.2883 81.5776H56.7973" stroke="#9DAFCC" stroke-width="0.6" stroke-linecap="round" stroke-linejoin="round"/>
<path d="M22.2883 121.872H56.7973" stroke="#9DAFCC" stroke-width="0.6" stroke-linecap="round" stroke-linejoin="round"/>
<path d="M39.5427 91.7036C38.3467 91.7036 37.1997 92.179 36.354 93.0243C35.5083 93.8702 35.0332 95.0171 35.0332 96.2134V109.309H44.0478V96.2134C44.0478 95.018 43.5732 93.8716 42.7285 93.0262C41.8837 92.1804 40.7379 91.705 39.5427 91.7036Z" fill="#365DA0" stroke="#9DAFCC" stroke-width="0.6" stroke-linecap="round" stroke-linejoin="round"/>
<path d="M29.8442 85.0007V114.096" stroke="#9DAFCC" stroke-width="0.6" stroke-linecap="round" stroke-linejoin="round"/>
<path d="M49.241 85.0007V114.096" stroke="#9DAFCC" stroke-width="0.6" stroke-linecap="round" stroke-linejoin="round"/>
<path d="M56.7973 125.46H22.2883V163.31H56.7973V125.46Z" fill="white" stroke="#9DAFCC" stroke-width="0.6" stroke-linecap="round" stroke-linejoin="round"/>
<path d="M20.146 141.45H58.9348" stroke="#9DAFCC" stroke-width="0.6" stroke-linecap="round" stroke-linejoin="round"/>
<path d="M39.5426 132.09C37.5026 132.09 35.5458 132.899 34.1017 134.34C32.6576 135.781 31.844 137.736 31.8394 139.776V155.788H47.2416V139.776C47.2381 137.737 46.4255 135.781 44.982 134.34C43.5385 132.9 41.5822 132.09 39.5426 132.09Z" fill="#365DA0" stroke="#9DAFCC" stroke-width="0.6" stroke-linecap="round" stroke-linejoin="round"/>
<path d="M39.5425 132.09V125.46" stroke="#9DAFCC" stroke-width="0.6" stroke-linecap="round" stroke-linejoin="round"/>
<path d="M45.8308 135.353L48.5789 132.09H56.793" fill="white"/>
<path d="M45.8308 135.353L48.5789 132.09H56.793" stroke="#9DAFCC" stroke-width="0.6" stroke-linecap="round" stroke-linejoin="round"/>
<path d="M42.7104 132.77L48.6437 125.46" stroke="#9DAFCC" stroke-width="0.6" stroke-linecap="round" stroke-linejoin="round"/>
<path d="M47.1768 138.759L49.7474 136.919H56.7931" fill="white"/>
<path d="M47.1768 138.759L49.7474 136.919H56.7931" stroke="#9DAFCC" stroke-width="0.6" stroke-linecap="round" stroke-linejoin="round"/>
<path d="M33.2503 135.353L30.5022 132.09H22.2883" fill="white"/>
<path d="M33.2503 135.353L30.5022 132.09H22.2883" stroke="#9DAFCC" stroke-width="0.6" stroke-linecap="round" stroke-linejoin="round"/>
<path d="M36.3746 132.77L30.4414 125.46" stroke="#9DAFCC" stroke-width="0.6" stroke-linecap="round" stroke-linejoin="round"/>
<path d="M31.9087 138.759L29.3338 136.919H22.2883" fill="white"/>
<path d="M31.9087 138.759L29.3338 136.919H22.2883" stroke="#9DAFCC" stroke-width="0.6" stroke-linecap="round" stroke-linejoin="round"/>
<path d="M42.4855 44.325H36.5999L26.7068 78.1502H52.3744L42.4855 44.325Z" fill="#F25451" stroke="#9DAFCC" stroke-width="0.6" stroke-linecap="round" stroke-linejoin="round"/>
<path d="M42.4637 37.9626H36.6169V44.3286H42.4637V37.9626Z" fill="#E4EBF5" stroke="#9DAFCC" stroke-width="0.6" stroke-linecap="round" stroke-linejoin="round"/>
<path d="M47.8949 78.1496C47.9606 77.8661 47.994 77.5755 47.9944 77.2844C47.9944 74.9905 45.9907 73.1208 43.472 72.9997L39.5425 66.6943L35.6086 72.9997C33.0899 73.1208 31.0862 74.9905 31.0862 77.2844C31.0866 77.5755 31.1199 77.8661 31.1857 78.1496H47.8949Z" fill="white" stroke="#9DAFCC" stroke-width="0.6" stroke-linecap="round" stroke-linejoin="round"/>
<path d="M53.7375 66.6899H50.3662V78.15H53.7375V66.6899Z" fill="white" stroke="#9DAFCC" stroke-width="0.6" stroke-linecap="round" stroke-linejoin="round"/>
<path d="M28.7192 66.6899H25.3479V78.15H28.7192V66.6899Z" fill="white" stroke="#9DAFCC" stroke-width="0.6" stroke-linecap="round" stroke-linejoin="round"/>
<path d="M39.5426 38.5082C36.7599 38.5082 34.5051 36.7772 34.5051 34.6566C34.5051 31.6749 37.3441 31.1642 39.5426 27.8838C41.7367 31.1642 44.5757 31.6749 44.5757 34.6566C44.5757 36.7772 42.3209 38.5082 39.5426 38.5082Z" fill="#F25451" stroke="#9DAFCC" stroke-width="0.6" stroke-linecap="round" stroke-linejoin="round"/>
<path d="M39.5125 27.8751V16" stroke="#9DAFCC" stroke-width="0.6" stroke-linejoin="round"/>
<path d="M36.4958 20.0938H42.3988" stroke="#9DAFCC" stroke-width="0.6" stroke-linejoin="round"/>
<path d="M38.106 17.8044H40.9189" stroke="#9DAFCC" stroke-width="0.6" stroke-linejoin="round"/>
<path d="M37.8333 23.1101L41.1439 24.9104" stroke="#9DAFCC" stroke-width="0.6" stroke-linejoin="round"/>
<path d="M34.769 38.4998H44.3116" stroke="#9DAFCC" stroke-width="0.6" stroke-linecap="round" stroke-linejoin="round"/>
<path d="M123.816 169.961C123.465 169.961 123.118 170.031 122.794 170.165C122.471 170.299 122.177 170.496 121.929 170.744C121.681 170.992 121.485 171.286 121.351 171.61C121.217 171.934 121.149 172.281 121.149 172.632V185.182H126.498V172.632C126.498 172.28 126.429 171.932 126.294 171.607C126.159 171.282 125.961 170.987 125.712 170.739C125.463 170.491 125.167 170.295 124.841 170.161C124.516 170.028 124.167 169.96 123.816 169.961Z" fill="#365DA0" stroke="#9DAFCC" stroke-width="0.6" stroke-miterlimit="10" stroke-linecap="round"/>
<path d="M123.816 193.902C123.465 193.902 123.118 193.971 122.794 194.106C122.471 194.24 122.177 194.437 121.929 194.685C121.681 194.932 121.485 195.227 121.351 195.551C121.217 195.875 121.149 196.222 121.149 196.572V209.123H126.498V196.572C126.498 196.22 126.429 195.872 126.294 195.547C126.159 195.223 125.961 194.928 125.712 194.68C125.463 194.431 125.167 194.235 124.841 194.102C124.516 193.968 124.167 193.9 123.816 193.902Z" fill="#365DA0" stroke="#9DAFCC" stroke-width="0.6" stroke-miterlimit="10" stroke-linecap="round"/>
<path d="M149.933 186.302C149.225 186.302 148.546 186.583 148.045 187.084C147.544 187.585 147.263 188.264 147.263 188.972V201.523H152.603V188.972C152.603 188.264 152.322 187.585 151.821 187.084C151.32 186.583 150.641 186.302 149.933 186.302Z" fill="#365DA0" stroke="#9DAFCC" stroke-width="0.6" stroke-miterlimit="10" stroke-linecap="round"/>
<path d="M165.56 151.075H80.0193V155.152H165.56V151.075Z" fill="#E4EBF5" stroke="#9DAFCC" stroke-width="0.6" stroke-linecap="round" stroke-linejoin="round"/>
<path d="M131.791 128.303C131.791 120.816 127.031 121.677 124.214 116.978C121.392 121.677 116.645 120.816 116.636 128.303H131.791Z" fill="#F25451" stroke="#9DAFCC" stroke-width="0.6" stroke-linejoin="round"/>
<path d="M130.329 128.303H118.094V147.159H130.329V128.303Z" fill="white" stroke="#9DAFCC" stroke-width="0.6" stroke-linejoin="round"/>
<path d="M118.094 131.337H130.333" stroke="#9DAFCC" stroke-width="0.6" stroke-linejoin="round"/>
<path d="M124.214 134.188C123.506 134.188 122.826 134.47 122.325 134.971C121.825 135.471 121.543 136.151 121.543 136.859V144.238H126.879V136.859C126.88 136.508 126.811 136.161 126.678 135.837C126.544 135.513 126.348 135.219 126.1 134.971C125.853 134.723 125.559 134.526 125.235 134.392C124.911 134.258 124.564 134.188 124.214 134.188Z" fill="#365DA0" stroke="#9DAFCC" stroke-width="0.6" stroke-miterlimit="10" stroke-linecap="round"/>
<path d="M124.279 116.977V105.102" stroke="#9DAFCC" stroke-width="0.6" stroke-linejoin="round"/>
<path d="M121.262 109.197H127.165" stroke="#9DAFCC" stroke-width="0.6" stroke-linejoin="round"/>
<path d="M122.872 106.907H125.689" stroke="#9DAFCC" stroke-width="0.6" stroke-linejoin="round"/>
<path d="M122.599 112.217L125.91 114.017" stroke="#9DAFCC" stroke-width="0.6" stroke-linejoin="round"/>
<path d="M108.301 128.303C108.301 120.816 103.54 121.677 100.719 116.978C97.8968 121.677 93.1539 120.816 93.1406 128.303H108.301Z" fill="#F25451" stroke="#9DAFCC" stroke-width="0.6" stroke-linejoin="round"/>
<path d="M106.838 128.303H94.6033V147.159H106.838V128.303Z" fill="white" stroke="#9DAFCC" stroke-width="0.6" stroke-linejoin="round"/>
<path d="M94.6033 131.337H106.838" stroke="#9DAFCC" stroke-width="0.6" stroke-linejoin="round"/>
<path d="M100.718 134.188C100.368 134.188 100.021 134.258 99.6973 134.392C99.3735 134.526 99.0795 134.723 98.8321 134.971C98.5842 135.219 98.388 135.513 98.2546 135.837C98.1207 136.161 98.0523 136.508 98.0527 136.859V144.238H103.389V136.859C103.389 136.151 103.107 135.471 102.607 134.971C102.106 134.47 101.427 134.188 100.718 134.188Z" fill="#365DA0" stroke="#9DAFCC" stroke-width="0.6" stroke-miterlimit="10" stroke-linecap="round"/>
<path d="M100.788 116.977V105.102" stroke="#9DAFCC" stroke-width="0.6" stroke-linejoin="round"/>
<path d="M97.7673 109.197H103.67" stroke="#9DAFCC" stroke-width="0.6" stroke-linejoin="round"/>
<path d="M99.3813 106.907H102.194" stroke="#9DAFCC" stroke-width="0.6" stroke-linejoin="round"/>
<path d="M99.1089 112.217L102.419 114.017" stroke="#9DAFCC" stroke-width="0.6" stroke-linejoin="round"/>
<path d="M112.468 128.697C111.76 128.697 111.081 128.978 110.58 129.479C110.079 129.98 109.798 130.659 109.798 131.367V141.451H115.134V131.367C115.135 131.017 115.066 130.67 114.932 130.346C114.799 130.022 114.602 129.727 114.355 129.479C114.107 129.232 113.813 129.035 113.49 128.901C113.166 128.766 112.819 128.697 112.468 128.697Z" fill="#365DA0" stroke="#9DAFCC" stroke-width="0.6" stroke-miterlimit="10" stroke-linecap="round"/>
<path d="M164.63 166.949C164.457 166.949 164.288 166.949 164.119 166.975V179.591H177.266C177.267 177.931 176.941 176.287 176.306 174.753C175.671 173.22 174.74 171.826 173.567 170.652C172.393 169.478 171 168.547 169.466 167.912C167.933 167.276 166.29 166.949 164.63 166.949Z" fill="#F25451" stroke="#9DAFCC" stroke-width="0.6" stroke-linecap="round" stroke-linejoin="round"/>
</g>
</g>
<defs>
<filter id="filter0_dd_202_4848" x="-11.9112" y="-11.9112" width="296.822" height="263.822" filterUnits="userSpaceOnUse" color-interpolation-filters="sRGB">
<feFlood flood-opacity="0" result="BackgroundImageFix"/>
<feColorMatrix in="SourceAlpha" type="matrix" values="0 0 0 0 0 0 0 0 0 0 0 0 0 0 0 0 0 0 127 0" result="hardAlpha"/>
<feOffset/>
<feGaussianBlur stdDeviation="5.95559"/>
<feComposite in2="hardAlpha" operator="out"/>
<feColorMatrix type="matrix" values="0 0 0 0 0.568627 0 0 0 0 0.741176 0 0 0 0 0.866667 0 0 0 1 0"/>
<feBlend mode="normal" in2="BackgroundImageFix" result="effect1_dropShadow_202_4848"/>
<feColorMatrix in="SourceAlpha" type="matrix" values="0 0 0 0 0 0 0 0 0 0 0 0 0 0 0 0 0 0 127 0" result="hardAlpha"/>
<feOffset dy="2.38223"/>
<feGaussianBlur stdDeviation="2.97779"/>
<feComposite in2="hardAlpha" operator="out"/>
<feColorMatrix type="matrix" values="0 0 0 0 0 0 0 0 0 0 0 0 0 0 0 0 0 0 0.1 0"/>
<feBlend mode="normal" in2="effect1_dropShadow_202_4848" result="effect2_dropShadow_202_4848"/>
<feBlend mode="normal" in="SourceGraphic" in2="effect2_dropShadow_202_4848" result="shape"/>
</filter>
<filter id="filter1_dd_202_4848" x="4.97896" y="4.08883" width="262.289" height="224.074" filterUnits="userSpaceOnUse" color-interpolation-filters="sRGB">
<feFlood flood-opacity="0" result="BackgroundImageFix"/>
<feColorMatrix in="SourceAlpha" type="matrix" values="0 0 0 0 0 0 0 0 0 0 0 0 0 0 0 0 0 0 127 0" result="hardAlpha"/>
<feOffset/>
<feGaussianBlur stdDeviation="5.95559"/>
<feComposite in2="hardAlpha" operator="out"/>
<feColorMatrix type="matrix" values="0 0 0 0 0.568627 0 0 0 0 0.741176 0 0 0 0 0.866667 0 0 0 1 0"/>
<feBlend mode="normal" in2="BackgroundImageFix" result="effect1_dropShadow_202_4848"/>
<feColorMatrix in="SourceAlpha" type="matrix" values="0 0 0 0 0 0 0 0 0 0 0 0 0 0 0 0 0 0 127 0" result="hardAlpha"/>
<feOffset dy="2.38223"/>
<feGaussianBlur stdDeviation="2.97779"/>
<feComposite in2="hardAlpha" operator="out"/>
<feColorMatrix type="matrix" values="0 0 0 0 0 0 0 0 0 0 0 0 0 0 0 0 0 0 0.1 0"/>
<feBlend mode="normal" in2="effect1_dropShadow_202_4848" result="effect2_dropShadow_202_4848"/>
<feBlend mode="normal" in="SourceGraphic" in2="effect2_dropShadow_202_4848" result="shape"/>
</filter>
</defs>
</svg>
