<svg width="273" height="240" viewBox="0 0 273 240" fill="none" xmlns="http://www.w3.org/2000/svg">
<g filter="url(#filter0_dd_202_1597)">
<g filter="url(#filter1_dd_202_1597)">
<path d="M254.033 101.348H105.368V160.667H254.033V101.348Z" fill="#E4EBF5" stroke="#9DAFCC" stroke-width="0.6" stroke-miterlimit="10" stroke-linecap="round"/>
<path d="M123.592 113.421C125.84 113.421 127.994 114.313 129.583 115.902C131.172 117.491 132.065 119.646 132.065 121.893H135.734C135.764 120.279 135.472 118.677 134.876 117.177C134.279 115.678 133.39 114.312 132.26 113.161C131.13 112.009 129.781 111.094 128.294 110.47C126.805 109.845 125.208 109.524 123.595 109.524C121.981 109.524 120.384 109.845 118.896 110.47C117.408 111.094 116.059 112.009 114.929 113.161C113.799 114.312 112.91 115.678 112.313 117.177C111.717 118.677 111.425 120.279 111.456 121.893H115.124C115.124 119.647 116.017 117.492 117.604 115.904C119.192 114.315 121.346 113.422 123.592 113.421Z" fill="white" stroke="#9DAFCC" stroke-width="0.6" stroke-linecap="round" stroke-linejoin="round"/>
<path d="M123.593 113.421C121.346 113.422 119.192 114.315 117.605 115.904C116.017 117.492 115.125 119.647 115.125 121.893V160.667H132.065V121.893C132.065 119.646 131.172 117.491 129.583 115.902C127.994 114.313 125.84 113.421 123.593 113.421Z" fill="#E4EBF5" stroke="#9DAFCC" stroke-width="0.6" stroke-linecap="round" stroke-linejoin="round"/>
<path d="M128.173 118.682H119.016V127.839H128.173V118.682Z" fill="#365DA0" stroke="#9DAFCC" stroke-width="0.6" stroke-linecap="round" stroke-linejoin="round"/>
<path d="M123.593 118.682V127.839" stroke="#9DAFCC" stroke-width="0.6" stroke-linecap="round" stroke-linejoin="round"/>
<path d="M119.016 123.263H128.173" stroke="#9DAFCC" stroke-width="0.6" stroke-linecap="round" stroke-linejoin="round"/>
<path d="M178.797 113.421C181.044 113.421 183.199 114.313 184.788 115.902C186.377 117.491 187.27 119.646 187.27 121.893H190.938C190.969 120.279 190.677 118.677 190.081 117.177C189.484 115.678 188.595 114.312 187.465 113.161C186.335 112.009 184.986 111.094 183.498 110.47C182.01 109.845 180.413 109.524 178.799 109.524C177.186 109.524 175.589 109.845 174.1 110.47C172.613 111.094 171.264 112.009 170.134 113.161C169.004 114.312 168.115 115.678 167.518 117.177C166.922 118.677 166.63 120.279 166.66 121.893H170.325C170.325 119.646 171.218 117.491 172.806 115.902C174.395 114.313 176.55 113.421 178.797 113.421Z" fill="white" stroke="#9DAFCC" stroke-width="0.6" stroke-linecap="round" stroke-linejoin="round"/>
<path d="M178.797 113.421C176.55 113.421 174.395 114.313 172.806 115.902C171.218 117.491 170.325 119.646 170.325 121.893V160.667H187.27V121.893C187.27 119.646 186.377 117.491 184.788 115.902C183.199 114.313 181.044 113.421 178.797 113.421Z" stroke="#9DAFCC" stroke-width="0.6" stroke-linecap="round" stroke-linejoin="round"/>
<path d="M183.378 118.682H174.221V127.839H183.378V118.682Z" fill="#365DA0" stroke="#9DAFCC" stroke-width="0.6" stroke-linecap="round" stroke-linejoin="round"/>
<path d="M178.797 118.682V127.839" stroke="#9DAFCC" stroke-width="0.6" stroke-linecap="round" stroke-linejoin="round"/>
<path d="M174.221 123.263H183.378" stroke="#9DAFCC" stroke-width="0.6" stroke-linecap="round" stroke-linejoin="round"/>
<path d="M151.197 113.421C153.444 113.421 155.599 114.313 157.188 115.902C158.777 117.491 159.669 119.646 159.669 121.893H163.347C163.377 120.279 163.086 118.677 162.489 117.177C161.893 115.678 161.003 114.312 159.873 113.161C158.743 112.009 157.394 111.094 155.907 110.47C154.419 109.845 152.821 109.524 151.208 109.524C149.594 109.524 147.997 109.845 146.509 110.47C145.021 111.094 143.673 112.009 142.542 113.161C141.412 114.312 140.523 115.678 139.927 117.177C139.33 118.677 139.038 120.279 139.069 121.893H142.738C142.738 119.648 143.629 117.495 145.215 115.907C146.801 114.318 148.953 113.424 151.197 113.421Z" fill="white" stroke="#9DAFCC" stroke-width="0.6" stroke-linecap="round" stroke-linejoin="round"/>
<path d="M151.197 113.421C148.95 113.421 146.795 114.313 145.206 115.902C143.617 117.491 142.725 119.646 142.725 121.893V160.667H159.669V121.893C159.669 119.646 158.777 117.491 157.188 115.902C155.599 114.313 153.444 113.421 151.197 113.421Z" fill="#E4EBF5" stroke="#9DAFCC" stroke-width="0.6" stroke-linecap="round" stroke-linejoin="round"/>
<path d="M155.773 118.682H146.616V127.839H155.773V118.682Z" fill="#365DA0" stroke="#9DAFCC" stroke-width="0.6" stroke-linecap="round" stroke-linejoin="round"/>
<path d="M151.197 118.682V127.839" stroke="#9DAFCC" stroke-width="0.6" stroke-linecap="round" stroke-linejoin="round"/>
<path d="M146.616 123.263H155.773" stroke="#9DAFCC" stroke-width="0.6" stroke-linecap="round" stroke-linejoin="round"/>
<path d="M206.402 113.421C208.649 113.421 210.803 114.313 212.393 115.902C213.981 117.491 214.874 119.646 214.874 121.893H218.539C218.569 120.279 218.277 118.677 217.681 117.177C217.084 115.678 216.195 114.312 215.065 113.161C213.935 112.009 212.586 111.094 211.098 110.47C209.61 109.845 208.013 109.524 206.399 109.524C204.786 109.524 203.189 109.845 201.701 110.47C200.213 111.094 198.864 112.009 197.734 113.161C196.604 114.312 195.715 115.678 195.118 117.177C194.522 118.677 194.23 120.279 194.26 121.893H197.929C197.929 119.646 198.822 117.491 200.411 115.902C202 114.313 204.154 113.421 206.402 113.421Z" fill="white" stroke="#9DAFCC" stroke-width="0.6" stroke-linecap="round" stroke-linejoin="round"/>
<path d="M206.402 113.421C205.289 113.421 204.188 113.64 203.16 114.065C202.132 114.491 201.198 115.115 200.411 115.902C199.624 116.689 199 117.623 198.574 118.65C198.149 119.679 197.929 120.78 197.929 121.893V160.667H214.874V121.893C214.874 119.646 213.981 117.491 212.393 115.902C210.804 114.313 208.649 113.421 206.402 113.421Z" fill="#E4EBF5" stroke="#9DAFCC" stroke-width="0.6" stroke-linecap="round" stroke-linejoin="round"/>
<path d="M210.978 118.682H201.821V127.839H210.978V118.682Z" fill="#365DA0" stroke="#9DAFCC" stroke-width="0.6" stroke-linecap="round" stroke-linejoin="round"/>
<path d="M206.402 118.682V127.839" stroke="#9DAFCC" stroke-width="0.6" stroke-linecap="round" stroke-linejoin="round"/>
<path d="M201.821 123.263H210.978" stroke="#9DAFCC" stroke-width="0.6" stroke-linecap="round" stroke-linejoin="round"/>
<path d="M233.985 113.421C236.232 113.421 238.387 114.313 239.976 115.902C241.564 117.491 242.457 119.646 242.457 121.893H246.126C246.156 120.279 245.865 118.677 245.268 117.177C244.672 115.678 243.782 114.312 242.652 113.161C241.522 112.009 240.174 111.094 238.686 110.47C237.198 109.845 235.6 109.524 233.987 109.524C232.373 109.524 230.776 109.845 229.288 110.47C227.8 111.094 226.452 112.009 225.322 113.161C224.191 114.312 223.302 115.678 222.705 117.177C222.109 118.677 221.817 120.279 221.848 121.893H225.512C225.512 120.78 225.732 119.678 226.157 118.65C226.583 117.623 227.207 116.689 227.994 115.902C228.781 115.115 229.715 114.491 230.743 114.065C231.771 113.64 232.872 113.421 233.985 113.421Z" fill="white" stroke="#9DAFCC" stroke-width="0.6" stroke-linecap="round" stroke-linejoin="round"/>
<path d="M233.985 113.421C231.738 113.421 229.583 114.313 227.994 115.902C226.405 117.491 225.513 119.646 225.513 121.893V160.667H242.457V121.893C242.457 120.78 242.238 119.679 241.813 118.65C241.387 117.623 240.762 116.689 239.976 115.902C239.189 115.115 238.255 114.491 237.227 114.065C236.199 113.64 235.098 113.421 233.985 113.421Z" fill="#E4EBF5" stroke="#9DAFCC" stroke-width="0.6" stroke-linecap="round" stroke-linejoin="round"/>
<path d="M238.583 118.682H229.426V127.839H238.583V118.682Z" fill="#365DA0" stroke="#9DAFCC" stroke-width="0.6" stroke-linecap="round" stroke-linejoin="round"/>
<path d="M234.002 118.682V127.839" stroke="#9DAFCC" stroke-width="0.6" stroke-linecap="round" stroke-linejoin="round"/>
<path d="M229.426 123.263H238.583" stroke="#9DAFCC" stroke-width="0.6" stroke-linecap="round" stroke-linejoin="round"/>
<path d="M182.988 139.39H174.606V160.671H182.988V139.39Z" fill="#F25451" stroke="#9DAFCC" stroke-width="0.6" stroke-linecap="round" stroke-linejoin="round"/>
<path d="M155.773 134.608H146.616V152.516H155.773V134.608Z" fill="#365DA0" stroke="#9DAFCC" stroke-width="0.6" stroke-linecap="round" stroke-linejoin="round"/>
<path d="M151.197 134.608V152.516" stroke="#9DAFCC" stroke-width="0.6" stroke-linecap="round" stroke-linejoin="round"/>
<path d="M146.616 140.576H155.773" stroke="#9DAFCC" stroke-width="0.6" stroke-linecap="round" stroke-linejoin="round"/>
<path d="M146.616 146.544H155.773" stroke="#9DAFCC" stroke-width="0.6" stroke-linecap="round" stroke-linejoin="round"/>
<path d="M210.978 134.608H201.821V152.516H210.978V134.608Z" fill="#365DA0" stroke="#9DAFCC" stroke-width="0.6" stroke-linecap="round" stroke-linejoin="round"/>
<path d="M206.402 134.608V152.516" stroke="#9DAFCC" stroke-width="0.6" stroke-linecap="round" stroke-linejoin="round"/>
<path d="M201.821 140.576H210.978" stroke="#9DAFCC" stroke-width="0.6" stroke-linecap="round" stroke-linejoin="round"/>
<path d="M201.821 146.544H210.978" stroke="#9DAFCC" stroke-width="0.6" stroke-linecap="round" stroke-linejoin="round"/>
<path d="M116.032 131.007H131.333" stroke="white" stroke-width="0.6" stroke-linejoin="round"/>
<path d="M143.547 131.007H158.847" stroke="white" stroke-width="0.6" stroke-linejoin="round"/>
<path d="M171.147 131.007H186.448" stroke="white" stroke-width="0.6" stroke-linejoin="round"/>
<path d="M198.751 131.007H214.052" stroke="white" stroke-width="0.6" stroke-linejoin="round"/>
<path d="M226.352 131.007H241.652" stroke="white" stroke-width="0.6" stroke-linejoin="round"/>
<path d="M109.281 101.348V103.668" stroke="white" stroke-width="0.6" stroke-linejoin="round"/>
<path d="M113.194 101.348V103.668" stroke="white" stroke-width="0.6" stroke-linejoin="round"/>
<path d="M117.107 101.348V103.668" stroke="white" stroke-width="0.6" stroke-linejoin="round"/>
<path d="M121.02 101.348V103.668" stroke="white" stroke-width="0.6" stroke-linejoin="round"/>
<path d="M124.933 101.348V103.668" stroke="white" stroke-width="0.6" stroke-linejoin="round"/>
<path d="M128.841 101.348V103.668" stroke="white" stroke-width="0.6" stroke-linejoin="round"/>
<path d="M132.754 101.348V103.668" stroke="white" stroke-width="0.6" stroke-linejoin="round"/>
<path d="M136.667 101.348V103.668" stroke="white" stroke-width="0.6" stroke-linejoin="round"/>
<path d="M140.58 101.348V103.668" stroke="white" stroke-width="0.6" stroke-linejoin="round"/>
<path d="M144.493 101.348V103.668" stroke="white" stroke-width="0.6" stroke-linejoin="round"/>
<path d="M148.406 101.348V103.668" stroke="white" stroke-width="0.6" stroke-linejoin="round"/>
<path d="M152.314 101.348V103.668" stroke="white" stroke-width="0.6" stroke-linejoin="round"/>
<path d="M156.227 101.348V103.668" stroke="white" stroke-width="0.6" stroke-linejoin="round"/>
<path d="M160.14 101.348V103.668" stroke="white" stroke-width="0.6" stroke-linejoin="round"/>
<path d="M164.053 101.348V103.668" stroke="white" stroke-width="0.6" stroke-linejoin="round"/>
<path d="M167.966 101.348V103.668" stroke="white" stroke-width="0.6" stroke-linejoin="round"/>
<path d="M171.879 101.348V103.668" stroke="white" stroke-width="0.6" stroke-linejoin="round"/>
<path d="M175.788 101.348V103.668" stroke="white" stroke-width="0.6" stroke-linejoin="round"/>
<path d="M179.701 101.348V103.668" stroke="white" stroke-width="0.6" stroke-linejoin="round"/>
<path d="M183.614 101.348V103.668" stroke="white" stroke-width="0.6" stroke-linejoin="round"/>
<path d="M187.526 101.348V103.668" stroke="white" stroke-width="0.6" stroke-linejoin="round"/>
<path d="M191.439 101.348V103.668" stroke="white" stroke-width="0.6" stroke-linejoin="round"/>
<path d="M195.352 101.348V103.668" stroke="white" stroke-width="0.6" stroke-linejoin="round"/>
<path d="M199.265 101.348V103.668" stroke="white" stroke-width="0.6" stroke-linejoin="round"/>
<path d="M203.174 101.348V103.668" stroke="white" stroke-width="0.6" stroke-linejoin="round"/>
<path d="M207.087 101.348V103.668" stroke="white" stroke-width="0.6" stroke-linejoin="round"/>
<path d="M211 101.348V103.668" stroke="white" stroke-width="0.6" stroke-linejoin="round"/>
<path d="M214.913 101.348V103.668" stroke="white" stroke-width="0.6" stroke-linejoin="round"/>
<path d="M218.825 101.348V103.668" stroke="white" stroke-width="0.6" stroke-linejoin="round"/>
<path d="M222.739 101.348V103.668" stroke="white" stroke-width="0.6" stroke-linejoin="round"/>
<path d="M226.647 101.348V103.668" stroke="white" stroke-width="0.6" stroke-linejoin="round"/>
<path d="M230.56 101.348V103.668" stroke="white" stroke-width="0.6" stroke-linejoin="round"/>
<path d="M234.473 101.348V103.668" stroke="white" stroke-width="0.6" stroke-linejoin="round"/>
<path d="M238.386 101.348V103.668" stroke="white" stroke-width="0.6" stroke-linejoin="round"/>
<path d="M242.299 101.348V103.668" stroke="white" stroke-width="0.6" stroke-linejoin="round"/>
<path d="M246.212 101.348V103.668" stroke="white" stroke-width="0.6" stroke-linejoin="round"/>
<path d="M250.12 101.348V103.668" stroke="white" stroke-width="0.6" stroke-linejoin="round"/>
<path d="M257.625 97.1439L179.709 70.0017L101.793 97.1353L103.257 101.339H256.161L257.625 97.1439ZM116.032 96.8956L179.701 74.7195L243.369 96.8956H116.032Z" fill="white" stroke="#9DAFCC" stroke-width="0.6" stroke-linecap="round" stroke-linejoin="round"/>
<path d="M116.032 96.8958L179.701 74.7197L243.369 96.8958H116.032Z" fill="#E4EBF5" stroke="#9DAFCC" stroke-width="0.6" stroke-linecap="round" stroke-linejoin="round"/>
<path d="M200.751 88.3633H191.709V85.7176H167.696V88.3633H158.655V91.0047H173.206V91.7753H186.199V91.0047H200.751V88.3633Z" fill="white" stroke="#9DAFCC" stroke-width="0.6" stroke-linecap="round" stroke-linejoin="round"/>
<path d="M179.7 89.6819C181.445 89.6819 182.86 88.2674 182.86 86.5224C182.86 84.7775 181.445 83.363 179.7 83.363C177.955 83.363 176.541 84.7775 176.541 86.5224C176.541 88.2674 177.955 89.6819 179.7 89.6819Z" fill="white" stroke="#9DAFCC" stroke-width="0.6" stroke-linecap="round" stroke-linejoin="round"/>
<path d="M183.297 75.9739L182.535 78.1658" stroke="white" stroke-width="0.6" stroke-linejoin="round"/>
<path d="M186.991 77.2625L186.229 79.4501" stroke="white" stroke-width="0.6" stroke-linejoin="round"/>
<path d="M190.686 78.5468L189.924 80.7387" stroke="white" stroke-width="0.6" stroke-linejoin="round"/>
<path d="M194.38 79.8353L193.618 82.023" stroke="white" stroke-width="0.6" stroke-linejoin="round"/>
<path d="M198.075 81.1196L197.313 83.3116" stroke="white" stroke-width="0.6" stroke-linejoin="round"/>
<path d="M201.77 82.4085L201.008 84.5962" stroke="white" stroke-width="0.6" stroke-linejoin="round"/>
<path d="M205.464 83.6929L204.702 85.8848" stroke="white" stroke-width="0.6" stroke-linejoin="round"/>
<path d="M209.159 84.9814L208.397 87.169" stroke="white" stroke-width="0.6" stroke-linejoin="round"/>
<path d="M212.853 86.2657L212.091 88.4577" stroke="white" stroke-width="0.6" stroke-linejoin="round"/>
<path d="M216.548 87.5542L215.786 89.7418" stroke="white" stroke-width="0.6" stroke-linejoin="round"/>
<path d="M220.243 88.8385L219.48 91.0304" stroke="white" stroke-width="0.6" stroke-linejoin="round"/>
<path d="M223.937 90.1271L223.175 92.3147" stroke="white" stroke-width="0.6" stroke-linejoin="round"/>
<path d="M227.632 91.416L226.87 93.6037" stroke="white" stroke-width="0.6" stroke-linejoin="round"/>
<path d="M231.326 92.7003L230.564 94.888" stroke="white" stroke-width="0.6" stroke-linejoin="round"/>
<path d="M176.117 75.9739L176.879 78.1658" stroke="white" stroke-width="0.6" stroke-linejoin="round"/>
<path d="M172.423 77.2625L173.185 79.4501" stroke="white" stroke-width="0.6" stroke-linejoin="round"/>
<path d="M168.728 78.5468L169.49 80.7387" stroke="white" stroke-width="0.6" stroke-linejoin="round"/>
<path d="M165.034 79.8353L165.796 82.023" stroke="white" stroke-width="0.6" stroke-linejoin="round"/>
<path d="M161.339 81.1196L162.101 83.3116" stroke="white" stroke-width="0.6" stroke-linejoin="round"/>
<path d="M157.644 82.4085L158.406 84.5962" stroke="white" stroke-width="0.6" stroke-linejoin="round"/>
<path d="M153.95 83.6929L154.712 85.8848" stroke="white" stroke-width="0.6" stroke-linejoin="round"/>
<path d="M150.255 84.9814L151.017 87.169" stroke="white" stroke-width="0.6" stroke-linejoin="round"/>
<path d="M146.561 86.2657L147.323 88.4577" stroke="white" stroke-width="0.6" stroke-linejoin="round"/>
<path d="M142.866 87.5542L143.628 89.7418" stroke="white" stroke-width="0.6" stroke-linejoin="round"/>
<path d="M139.171 88.8385L139.933 91.0304" stroke="white" stroke-width="0.6" stroke-linejoin="round"/>
<path d="M135.477 90.1271L136.239 92.3147" stroke="white" stroke-width="0.6" stroke-linejoin="round"/>
<path d="M131.782 91.416L132.544 93.6037" stroke="white" stroke-width="0.6" stroke-linejoin="round"/>
<path d="M128.088 92.7003L128.85 94.888" stroke="white" stroke-width="0.6" stroke-linejoin="round"/>
<path d="M116.032 96.8958L179.701 74.7197L243.369 96.8958H116.032Z" stroke="#9DAFCC" stroke-width="0.6" stroke-linecap="round" stroke-linejoin="round"/>
<path d="M115.12 155.859H105.368V160.671H115.12V155.859Z" fill="white" stroke="#9DAFCC" stroke-width="0.6" stroke-linecap="round" stroke-linejoin="round"/>
<path d="M254.033 155.859H242.474V160.671H254.033V155.859Z" fill="white" stroke="#9DAFCC" stroke-width="0.6" stroke-linecap="round" stroke-linejoin="round"/>
<path d="M142.725 155.859H132.065V160.671H142.725V155.859Z" fill="white" stroke="#9DAFCC" stroke-width="0.6" stroke-linecap="round" stroke-linejoin="round"/>
<path d="M170.329 155.859H159.669V160.671H170.329V155.859Z" fill="white" stroke="#9DAFCC" stroke-width="0.6" stroke-linecap="round" stroke-linejoin="round"/>
<path d="M197.929 155.859H187.27V160.671H197.929V155.859Z" fill="white" stroke="#9DAFCC" stroke-width="0.6" stroke-linecap="round" stroke-linejoin="round"/>
<path d="M225.534 155.859H214.874V160.671H225.534V155.859Z" fill="white" stroke="#9DAFCC" stroke-width="0.6" stroke-linecap="round" stroke-linejoin="round"/>
<path d="M30.5513 113.964H68.5118V110.951H30.5513V113.964Z" fill="#E4EBF5" stroke="#9DAFCC" stroke-width="0.6" stroke-linecap="round" stroke-linejoin="round"/>
<path d="M28.7319 110.951H70.3356V108.549H28.7319V110.951Z" fill="#E4EBF5" stroke="#9DAFCC" stroke-width="0.6" stroke-linecap="round" stroke-linejoin="round"/>
<path d="M52.6633 116.923H57.441V113.96H52.6633V116.923Z" fill="white" stroke="#9DAFCC" stroke-width="0.6" stroke-linecap="round" stroke-linejoin="round"/>
<path d="M53.2883 148.419H56.8202V116.923H53.2883V148.419Z" fill="white" stroke="#9DAFCC" stroke-width="0.6" stroke-linecap="round" stroke-linejoin="round"/>
<path d="M52.6804 116.923H57.4581V113.96H52.6804V116.923Z" fill="white" stroke="#9DAFCC" stroke-width="0.6" stroke-linecap="round" stroke-linejoin="round"/>
<path d="M52.6804 148.419H57.4581V146.291H52.6804V148.419Z" fill="white" stroke="#9DAFCC" stroke-width="0.6" stroke-linecap="round" stroke-linejoin="round"/>
<path d="M41.6052 116.923H46.3829V113.96H41.6052V116.923Z" fill="white" stroke="#9DAFCC" stroke-width="0.6" stroke-linecap="round" stroke-linejoin="round"/>
<path d="M42.2302 148.419H45.7621V116.923H42.2302V148.419Z" fill="white" stroke="#9DAFCC" stroke-width="0.6" stroke-linecap="round" stroke-linejoin="round"/>
<path d="M41.6223 116.923H46.4V113.96H41.6223V116.923Z" fill="white" stroke="#9DAFCC" stroke-width="0.6" stroke-linecap="round" stroke-linejoin="round"/>
<path d="M41.6223 148.419H46.4V145.55H41.6223V148.419Z" fill="white" stroke="#9DAFCC" stroke-width="0.6" stroke-linecap="round" stroke-linejoin="round"/>
<path d="M30.5427 116.923H35.3204V113.96H30.5427V116.923Z" fill="white" stroke="#9DAFCC" stroke-width="0.6" stroke-linecap="round" stroke-linejoin="round"/>
<path d="M31.168 148.419H34.6999V116.923H31.168V148.419Z" fill="white" stroke="#9DAFCC" stroke-width="0.6" stroke-linecap="round" stroke-linejoin="round"/>
<path d="M30.5598 116.923H35.3375V113.96H30.5598V116.923Z" fill="white" stroke="#9DAFCC" stroke-width="0.6" stroke-linecap="round" stroke-linejoin="round"/>
<path d="M30.5598 148.419H35.3375V145.55H30.5598V148.419Z" fill="white" stroke="#9DAFCC" stroke-width="0.6" stroke-linecap="round" stroke-linejoin="round"/>
<path d="M112.111 148.419H31.1808L14.2405 160.851H129.051L112.111 148.419Z" fill="#365DA0" stroke="#9DAFCC" stroke-width="0.6" stroke-linecap="round" stroke-linejoin="round"/>
<path d="M114.559 96.583H28.7446V108.549H114.559V96.583Z" fill="#F25451" stroke="#9DAFCC" stroke-width="0.6" stroke-linecap="round" stroke-linejoin="round"/>
<path d="M112.74 110.946H74.7793V113.96H112.74V110.946Z" fill="#E4EBF5" stroke="#9DAFCC" stroke-width="0.6" stroke-linecap="round" stroke-linejoin="round"/>
<path d="M114.559 108.545H72.9556V110.946H114.559V108.545Z" fill="#E4EBF5" stroke="#9DAFCC" stroke-width="0.6" stroke-linecap="round" stroke-linejoin="round"/>
<path d="M70.6909 87.3615L70.1387 94.0571H73.1354L72.5832 87.3615H70.6909Z" fill="#F25451" stroke="#9DAFCC" stroke-width="0.6" stroke-linecap="round" stroke-linejoin="round"/>
<path d="M90.6194 110.946H52.6589V113.96H90.6194V110.946Z" fill="white" stroke="#9DAFCC" stroke-width="0.6" stroke-linecap="round" stroke-linejoin="round"/>
<path d="M92.4389 108.545H50.8352V110.946H92.4389V108.545Z" fill="white" stroke="#9DAFCC" stroke-width="0.6" stroke-linecap="round" stroke-linejoin="round"/>
<path d="M57.4452 113.96H52.6675V116.923H57.4452V113.96Z" fill="white" stroke="#9DAFCC" stroke-width="0.6" stroke-linecap="round" stroke-linejoin="round"/>
<path d="M56.8202 116.923H53.2883V148.419H56.8202V116.923Z" fill="white" stroke="#9DAFCC" stroke-width="0.6" stroke-linecap="round" stroke-linejoin="round"/>
<path d="M57.4281 113.96H52.6504V116.923H57.4281V113.96Z" fill="white" stroke="#9DAFCC" stroke-width="0.6" stroke-linecap="round" stroke-linejoin="round"/>
<path d="M57.4281 145.55H52.6504V148.419H57.4281V145.55Z" fill="white" stroke="#9DAFCC" stroke-width="0.6" stroke-linecap="round" stroke-linejoin="round"/>
<path d="M68.5033 113.96H63.7256V116.923H68.5033V113.96Z" fill="white" stroke="#9DAFCC" stroke-width="0.6" stroke-linecap="round" stroke-linejoin="round"/>
<path d="M67.8783 116.923H64.3464V148.419H67.8783V116.923Z" fill="white" stroke="#9DAFCC" stroke-width="0.6" stroke-linecap="round" stroke-linejoin="round"/>
<path d="M68.4862 113.96H63.7085V116.923H68.4862V113.96Z" fill="white" stroke="#9DAFCC" stroke-width="0.6" stroke-linecap="round" stroke-linejoin="round"/>
<path d="M68.4862 145.55H63.7085V148.419H68.4862V145.55Z" fill="white" stroke="#9DAFCC" stroke-width="0.6" stroke-linecap="round" stroke-linejoin="round"/>
<path d="M79.5656 113.96H74.7878V116.923H79.5656V113.96Z" fill="white" stroke="#9DAFCC" stroke-width="0.6" stroke-linecap="round" stroke-linejoin="round"/>
<path d="M78.9406 116.923H75.4087V148.419H78.9406V116.923Z" fill="white" stroke="#9DAFCC" stroke-width="0.6" stroke-linecap="round" stroke-linejoin="round"/>
<path d="M79.5485 113.96H74.7708V116.923H79.5485V113.96Z" fill="white" stroke="#9DAFCC" stroke-width="0.6" stroke-linecap="round" stroke-linejoin="round"/>
<path d="M79.5485 145.55H74.7708V148.419H79.5485V145.55Z" fill="white" stroke="#9DAFCC" stroke-width="0.6" stroke-linecap="round" stroke-linejoin="round"/>
<path d="M90.6281 113.96H85.8503V116.923H90.6281V113.96Z" fill="white" stroke="#9DAFCC" stroke-width="0.6" stroke-linecap="round" stroke-linejoin="round"/>
<path d="M90.0031 116.923H86.4712V148.419H90.0031V116.923Z" fill="white" stroke="#9DAFCC" stroke-width="0.6" stroke-linecap="round" stroke-linejoin="round"/>
<path d="M90.611 113.96H85.8333V116.923H90.611V113.96Z" fill="white" stroke="#9DAFCC" stroke-width="0.6" stroke-linecap="round" stroke-linejoin="round"/>
<path d="M90.611 146.291H85.8333V148.419H90.611V146.291Z" fill="white" stroke="#9DAFCC" stroke-width="0.6" stroke-linecap="round" stroke-linejoin="round"/>
<path d="M90.6281 113.96H85.8503V116.923H90.6281V113.96Z" fill="white" stroke="#9DAFCC" stroke-width="0.6" stroke-linecap="round" stroke-linejoin="round"/>
<path d="M90.0031 116.923H86.4712V148.419H90.0031V116.923Z" fill="white" stroke="#9DAFCC" stroke-width="0.6" stroke-linecap="round" stroke-linejoin="round"/>
<path d="M90.611 113.96H85.8333V116.923H90.611V113.96Z" fill="white" stroke="#9DAFCC" stroke-width="0.6" stroke-linecap="round" stroke-linejoin="round"/>
<path d="M90.611 145.55H85.8333V148.419H90.611V145.55Z" fill="white" stroke="#9DAFCC" stroke-width="0.6" stroke-linecap="round" stroke-linejoin="round"/>
<path d="M101.686 113.96H96.9084V116.923H101.686V113.96Z" fill="white" stroke="#9DAFCC" stroke-width="0.6" stroke-linecap="round" stroke-linejoin="round"/>
<path d="M101.061 116.923H97.5293V148.419H101.061V116.923Z" fill="white" stroke="#9DAFCC" stroke-width="0.6" stroke-linecap="round" stroke-linejoin="round"/>
<path d="M101.669 113.96H96.8914V116.923H101.669V113.96Z" fill="white" stroke="#9DAFCC" stroke-width="0.6" stroke-linecap="round" stroke-linejoin="round"/>
<path d="M101.669 145.55H96.8914V148.419H101.669V145.55Z" fill="white" stroke="#9DAFCC" stroke-width="0.6" stroke-linecap="round" stroke-linejoin="round"/>
<path d="M112.748 113.96H107.971V116.923H112.748V113.96Z" fill="white" stroke="#9DAFCC" stroke-width="0.6" stroke-linecap="round" stroke-linejoin="round"/>
<path d="M112.123 116.923H108.592V148.419H112.123V116.923Z" fill="white" stroke="#9DAFCC" stroke-width="0.6" stroke-linecap="round" stroke-linejoin="round"/>
<path d="M112.731 113.96H107.954V116.923H112.731V113.96Z" fill="white" stroke="#9DAFCC" stroke-width="0.6" stroke-linecap="round" stroke-linejoin="round"/>
<path d="M112.731 145.55H107.954V148.419H112.731V145.55Z" fill="white" stroke="#9DAFCC" stroke-width="0.6" stroke-linecap="round" stroke-linejoin="round"/>
<path d="M92.4389 108.544C89.5706 100.136 81.3423 94.0615 71.6371 94.0615C61.9318 94.0615 53.7035 100.136 50.8352 108.544H92.4389Z" fill="#F25451" stroke="#9DAFCC" stroke-width="0.6" stroke-linecap="round" stroke-linejoin="round"/>
<path d="M79.5614 148.419H63.7256V160.851H79.5614V148.419Z" fill="#E4EBF5" stroke="#9DAFCC" stroke-width="0.6" stroke-linecap="round" stroke-linejoin="round"/>
<path d="M79.5657 160.851H83.0548V148.419H79.5657V160.851Z" fill="#F25451" stroke="#9DAFCC" stroke-width="0.6" stroke-linecap="round" stroke-linejoin="round"/>
<path d="M60.2192 160.851H63.7083V148.419H60.2192V160.851Z" fill="#F25451" stroke="#9DAFCC" stroke-width="0.6" stroke-linecap="round" stroke-linejoin="round"/>
<path d="M63.7085 150.906H79.5486" stroke="#9DAFCC" stroke-width="0.6" stroke-linejoin="round"/>
<path d="M63.7085 153.393H79.5486" stroke="#9DAFCC" stroke-width="0.6" stroke-linejoin="round"/>
<path d="M63.7085 155.881H79.5486" stroke="#9DAFCC" stroke-width="0.6" stroke-linejoin="round"/>
<path d="M63.7085 158.364H79.5486" stroke="#9DAFCC" stroke-width="0.6" stroke-linejoin="round"/>
<path d="M159.13 157.011C163.887 157.011 167.743 153.154 167.743 148.397C167.743 143.64 163.887 139.784 159.13 139.784C154.373 139.784 150.516 143.64 150.516 148.397C150.516 153.154 154.373 157.011 159.13 157.011Z" fill="#365DA0" stroke="#9DAFCC" stroke-width="0.6" stroke-linecap="round" stroke-linejoin="round"/>
<path d="M172.316 157.011H145.94V165.308H172.316V157.011Z" fill="white" stroke="#9DAFCC" stroke-width="0.6" stroke-linecap="round" stroke-linejoin="round"/>
<path d="M159.066 139.197C157.279 139.238 155.499 138.969 153.804 138.401C154.497 136.97 155.279 135.585 156.146 134.253C155.128 132.788 154.606 131.036 154.656 129.252C150.829 128.298 142.956 126.487 139.552 122.873C136.149 119.26 131.701 113.725 133.829 101.387C135.635 105.111 138.825 109.367 140.738 110.112C142.652 110.857 148.183 112.342 151.801 116.49C155.418 120.639 156.694 124.042 156.694 124.042C156.822 121.229 157.978 119.333 159.083 119.072C161.681 118.455 161.339 121.212 161.467 124.042C161.467 124.042 162.752 120.639 166.361 116.49C169.97 112.342 175.509 110.852 177.423 110.112C179.337 109.371 182.526 105.111 184.324 101.387C186.465 113.725 181.982 119.256 178.579 122.873C175.176 126.491 167.307 128.298 163.475 129.252C163.527 131.035 163.007 132.788 161.99 134.253C162.856 135.584 163.637 136.97 164.327 138.401C162.633 138.969 160.852 139.239 159.066 139.197Z" fill="#365DA0" stroke="#9DAFCC" stroke-width="0.6" stroke-linecap="round" stroke-linejoin="round"/>
</g>
</g>
<defs>
<filter id="filter0_dd_202_1597" x="-11.9112" y="-11.9112" width="296.822" height="263.822" filterUnits="userSpaceOnUse" color-interpolation-filters="sRGB">
<feFlood flood-opacity="0" result="BackgroundImageFix"/>
<feColorMatrix in="SourceAlpha" type="matrix" values="0 0 0 0 0 0 0 0 0 0 0 0 0 0 0 0 0 0 127 0" result="hardAlpha"/>
<feOffset/>
<feGaussianBlur stdDeviation="5.95559"/>
<feComposite in2="hardAlpha" operator="out"/>
<feColorMatrix type="matrix" values="0 0 0 0 0.568627 0 0 0 0 0.741176 0 0 0 0 0.866667 0 0 0 1 0"/>
<feBlend mode="normal" in2="BackgroundImageFix" result="effect1_dropShadow_202_1597"/>
<feColorMatrix in="SourceAlpha" type="matrix" values="0 0 0 0 0 0 0 0 0 0 0 0 0 0 0 0 0 0 127 0" result="hardAlpha"/>
<feOffset dy="2.38223"/>
<feGaussianBlur stdDeviation="2.97779"/>
<feComposite in2="hardAlpha" operator="out"/>
<feColorMatrix type="matrix" values="0 0 0 0 0 0 0 0 0 0 0 0 0 0 0 0 0 0 0.1 0"/>
<feBlend mode="normal" in2="effect1_dropShadow_202_1597" result="effect2_dropShadow_202_1597"/>
<feBlend mode="normal" in="SourceGraphic" in2="effect2_dropShadow_202_1597" result="shape"/>
</filter>
<filter id="filter1_dd_202_1597" x="2.02926" y="57.7905" width="267.807" height="119.728" filterUnits="userSpaceOnUse" color-interpolation-filters="sRGB">
<feFlood flood-opacity="0" result="BackgroundImageFix"/>
<feColorMatrix in="SourceAlpha" type="matrix" values="0 0 0 0 0 0 0 0 0 0 0 0 0 0 0 0 0 0 127 0" result="hardAlpha"/>
<feOffset/>
<feGaussianBlur stdDeviation="5.95559"/>
<feComposite in2="hardAlpha" operator="out"/>
<feColorMatrix type="matrix" values="0 0 0 0 0.568627 0 0 0 0 0.741176 0 0 0 0 0.866667 0 0 0 1 0"/>
<feBlend mode="normal" in2="BackgroundImageFix" result="effect1_dropShadow_202_1597"/>
<feColorMatrix in="SourceAlpha" type="matrix" values="0 0 0 0 0 0 0 0 0 0 0 0 0 0 0 0 0 0 127 0" result="hardAlpha"/>
<feOffset dy="2.38223"/>
<feGaussianBlur stdDeviation="2.97779"/>
<feComposite in2="hardAlpha" operator="out"/>
<feColorMatrix type="matrix" values="0 0 0 0 0 0 0 0 0 0 0 0 0 0 0 0 0 0 0.1 0"/>
<feBlend mode="normal" in2="effect1_dropShadow_202_1597" result="effect2_dropShadow_202_1597"/>
<feBlend mode="normal" in="SourceGraphic" in2="effect2_dropShadow_202_1597" result="shape"/>
</filter>
</defs>
</svg>
