<svg width="273" height="240" viewBox="0 0 273 240" fill="none" xmlns="http://www.w3.org/2000/svg">
<g filter="url(#filter0_dd_202_4244)">
<g filter="url(#filter1_dd_202_4244)">
<path d="M58.8824 121.7H23.1338V186.042H58.8824V121.7Z" fill="#E4EBF5" stroke="#9DAFCC" stroke-width="0.6" stroke-linecap="round" stroke-linejoin="round"/>
<path d="M250.529 121.7H141.576V186.042H250.529V121.7Z" fill="#E4EBF5" stroke="#9DAFCC" stroke-width="0.6" stroke-linecap="round" stroke-linejoin="round"/>
<path d="M250.529 179.86H22.7783V186.037H250.529V179.86Z" fill="#9DAFCC" stroke="#9DAFCC" stroke-width="0.6" stroke-linecap="round" stroke-linejoin="round"/>
<path d="M256.935 112.044H18.2065V121.7H256.935V112.044Z" fill="white" stroke="#9DAFCC" stroke-width="0.6" stroke-linecap="round" stroke-linejoin="round"/>
<path d="M18.2065 115.194H256.93" stroke="#9DAFCC" stroke-width="0.6" stroke-linecap="round" stroke-linejoin="round"/>
<path d="M141.576 95.4856H58.8777V115.198H141.576V95.4856Z" fill="#9DAFCC" stroke="#9DAFCC" stroke-width="0.6" stroke-linecap="round" stroke-linejoin="round"/>
<path d="M141.576 115.194H58.8777V186.042H141.576V115.194Z" fill="#E4EBF5" stroke="#9DAFCC" stroke-width="0.6" stroke-linecap="round" stroke-linejoin="round"/>
<path d="M125.26 121.148H75.1992V159.704H125.26V121.148Z" fill="#365DA0" stroke="#9DAFCC" stroke-width="0.6" stroke-linecap="round" stroke-linejoin="round"/>
<path d="M125.26 163.341H75.1992V186.042H125.26V163.341Z" fill="#F25451" stroke="#9DAFCC" stroke-width="0.6" stroke-linecap="round" stroke-linejoin="round"/>
<path d="M75.8088 126.215H125.259" stroke="#9DAFCC" stroke-width="0.6" stroke-linecap="round" stroke-linejoin="round"/>
<path d="M75.2869 133.485H125.922" stroke="#9DAFCC" stroke-width="0.6" stroke-linecap="round" stroke-linejoin="round"/>
<path d="M75.8088 138.675H125.922" stroke="#9DAFCC" stroke-width="0.6" stroke-linecap="round" stroke-linejoin="round"/>
<path d="M83.3376 126.215V133.485" stroke="#9DAFCC" stroke-width="0.6" stroke-linecap="round" stroke-linejoin="round"/>
<path d="M100.229 126.215V133.485" stroke="#9DAFCC" stroke-width="0.6" stroke-linecap="round" stroke-linejoin="round"/>
<path d="M116.704 126.215V133.485" stroke="#9DAFCC" stroke-width="0.6" stroke-linecap="round" stroke-linejoin="round"/>
<path d="M78.0991 133.485V152.439" stroke="#9DAFCC" stroke-width="0.6" stroke-linecap="round" stroke-linejoin="round"/>
<path d="M81.7273 133.485V153.724" stroke="#9DAFCC" stroke-width="0.6" stroke-linecap="round" stroke-linejoin="round"/>
<path d="M85.3557 133.485V153.724" stroke="#9DAFCC" stroke-width="0.6" stroke-linecap="round" stroke-linejoin="round"/>
<path d="M88.9841 133.485V152.439" stroke="#9DAFCC" stroke-width="0.6" stroke-linecap="round" stroke-linejoin="round"/>
<path d="M94.7888 133.485V152.439" stroke="#9DAFCC" stroke-width="0.6" stroke-linecap="round" stroke-linejoin="round"/>
<path d="M98.4128 133.485V153.724" stroke="#9DAFCC" stroke-width="0.6" stroke-linecap="round" stroke-linejoin="round"/>
<path d="M102.041 133.485V153.724" stroke="#9DAFCC" stroke-width="0.6" stroke-linecap="round" stroke-linejoin="round"/>
<path d="M105.67 133.485V152.439" stroke="#9DAFCC" stroke-width="0.6" stroke-linecap="round" stroke-linejoin="round"/>
<path d="M111.474 133.485V152.439" stroke="#9DAFCC" stroke-width="0.6" stroke-linecap="round" stroke-linejoin="round"/>
<path d="M115.103 133.485V153.724" stroke="#9DAFCC" stroke-width="0.6" stroke-linecap="round" stroke-linejoin="round"/>
<path d="M118.731 133.485V153.724" stroke="#9DAFCC" stroke-width="0.6" stroke-linecap="round" stroke-linejoin="round"/>
<path d="M122.359 133.485V152.439" stroke="#9DAFCC" stroke-width="0.6" stroke-linecap="round" stroke-linejoin="round"/>
<path d="M81.7273 146.45H85.3557" stroke="#9DAFCC" stroke-width="0.6" stroke-linecap="round" stroke-linejoin="round"/>
<path d="M98.3953 146.45H102.024" stroke="#9DAFCC" stroke-width="0.6" stroke-linecap="round" stroke-linejoin="round"/>
<path d="M115.103 146.45H118.731" stroke="#9DAFCC" stroke-width="0.6" stroke-linecap="round" stroke-linejoin="round"/>
<path d="M88.9843 153.724H78.0991V159.709H88.9843V153.724Z" stroke="white" stroke-width="0.6" stroke-miterlimit="10" stroke-linecap="round"/>
<path d="M80.8193 153.724V159.709" stroke="white" stroke-width="0.6" stroke-linecap="round" stroke-linejoin="round"/>
<path d="M83.5396 153.724V159.709" stroke="white" stroke-width="0.6" stroke-linecap="round" stroke-linejoin="round"/>
<path d="M86.2595 153.724V159.709" stroke="white" stroke-width="0.6" stroke-linecap="round" stroke-linejoin="round"/>
<path d="M105.674 153.724H94.7888V159.709H105.674V153.724Z" stroke="white" stroke-width="0.6" stroke-miterlimit="10" stroke-linecap="round"/>
<path d="M97.509 153.724V159.709" stroke="white" stroke-width="0.6" stroke-linecap="round" stroke-linejoin="round"/>
<path d="M100.229 153.724V159.709" stroke="white" stroke-width="0.6" stroke-linecap="round" stroke-linejoin="round"/>
<path d="M102.949 153.724V159.709" stroke="white" stroke-width="0.6" stroke-linecap="round" stroke-linejoin="round"/>
<path d="M122.359 153.724H111.474V159.709H122.359V153.724Z" stroke="white" stroke-width="0.6" stroke-miterlimit="10" stroke-linecap="round"/>
<path d="M114.194 153.724V159.709" stroke="white" stroke-width="0.6" stroke-linecap="round" stroke-linejoin="round"/>
<path d="M116.915 153.724V159.709" stroke="white" stroke-width="0.6" stroke-linecap="round" stroke-linejoin="round"/>
<path d="M119.635 153.724V159.709" stroke="white" stroke-width="0.6" stroke-linecap="round" stroke-linejoin="round"/>
<path d="M78.099 115.194H72.2944V186.042H78.099V115.194Z" fill="white" stroke="#9DAFCC" stroke-width="0.6" stroke-linecap="round" stroke-linejoin="round"/>
<path d="M79.0863 115.194H71.3074V122.837H79.0863V115.194Z" fill="#365DA0" stroke="#9DAFCC" stroke-width="0.6" stroke-linecap="round" stroke-linejoin="round"/>
<path d="M79.0863 181.128H71.3074V186.042H79.0863V181.128Z" fill="#365DA0" stroke="#9DAFCC" stroke-width="0.6" stroke-linecap="round" stroke-linejoin="round"/>
<path d="M94.7887 115.194H88.9841V186.042H94.7887V115.194Z" fill="white" stroke="#9DAFCC" stroke-width="0.6" stroke-linecap="round" stroke-linejoin="round"/>
<path d="M95.7716 115.194H87.9927V122.837H95.7716V115.194Z" fill="#365DA0" stroke="#9DAFCC" stroke-width="0.6" stroke-linecap="round" stroke-linejoin="round"/>
<path d="M95.7716 181.128H87.9927V186.042H95.7716V181.128Z" fill="#365DA0" stroke="#9DAFCC" stroke-width="0.6" stroke-linecap="round" stroke-linejoin="round"/>
<path d="M111.474 115.194H105.67V186.042H111.474V115.194Z" fill="white" stroke="#9DAFCC" stroke-width="0.6" stroke-linecap="round" stroke-linejoin="round"/>
<path d="M112.461 115.194H104.682V122.837H112.461V115.194Z" fill="#365DA0" stroke="#9DAFCC" stroke-width="0.6" stroke-linecap="round" stroke-linejoin="round"/>
<path d="M112.461 181.128H104.682V186.042H112.461V181.128Z" fill="#365DA0" stroke="#9DAFCC" stroke-width="0.6" stroke-linecap="round" stroke-linejoin="round"/>
<path d="M128.164 115.194H122.359V186.042H128.164V115.194Z" fill="white" stroke="#9DAFCC" stroke-width="0.6" stroke-linecap="round" stroke-linejoin="round"/>
<path d="M129.147 115.194H121.368V122.837H129.147V115.194Z" fill="#365DA0" stroke="#9DAFCC" stroke-width="0.6" stroke-linecap="round" stroke-linejoin="round"/>
<path d="M129.147 181.128H121.368V186.042H129.147V181.128Z" fill="#365DA0" stroke="#9DAFCC" stroke-width="0.6" stroke-linecap="round" stroke-linejoin="round"/>
<path d="M129.151 91.1377H71.3074V105.537H129.151V91.1377Z" fill="#E4EBF5" stroke="#9DAFCC" stroke-width="0.6" stroke-linecap="round" stroke-linejoin="round"/>
<path d="M129.151 91.1377H71.3074V95.4812H129.151V91.1377Z" fill="#E4EBF5" stroke="#9DAFCC" stroke-width="0.6" stroke-linecap="round" stroke-linejoin="round"/>
<path d="M76.7171 91.1377H71.3074V95.4812H76.7171V91.1377Z" fill="#E4EBF5" stroke="#9DAFCC" stroke-width="0.6" stroke-linecap="round" stroke-linejoin="round"/>
<path d="M94.1919 91.1377H88.7822V95.4812H94.1919V91.1377Z" fill="#E4EBF5" stroke="#9DAFCC" stroke-width="0.6" stroke-linecap="round" stroke-linejoin="round"/>
<path d="M111.672 91.1377H106.262V95.4812H111.672V91.1377Z" fill="#E4EBF5" stroke="#9DAFCC" stroke-width="0.6" stroke-linecap="round" stroke-linejoin="round"/>
<path d="M129.146 91.1377H123.737V95.4812H129.146V91.1377Z" fill="#E4EBF5" stroke="#9DAFCC" stroke-width="0.6" stroke-linecap="round" stroke-linejoin="round"/>
<path d="M147.065 105.537H133.442V115.194H147.065V105.537Z" fill="white" stroke="#9DAFCC" stroke-width="0.6" stroke-linecap="round" stroke-linejoin="round"/>
<path d="M133.442 108.692H147.065" stroke="#9DAFCC" stroke-width="0.6" stroke-linecap="round" stroke-linejoin="round"/>
<path d="M67.0121 105.537H53.3892V115.194H67.0121V105.537Z" fill="white" stroke="#9DAFCC" stroke-width="0.6" stroke-linecap="round" stroke-linejoin="round"/>
<path d="M53.3892 108.692H67.0121" stroke="#9DAFCC" stroke-width="0.6" stroke-linecap="round" stroke-linejoin="round"/>
<path d="M60.2028 108.692H56.8508V112.044H60.2028V108.692Z" fill="white" stroke="#9DAFCC" stroke-width="0.6" stroke-linecap="round" stroke-linejoin="round"/>
<path d="M67.0121 108.692H63.6602V112.044H67.0121V108.692Z" fill="white" stroke="#9DAFCC" stroke-width="0.6" stroke-linecap="round" stroke-linejoin="round"/>
<path d="M136.794 108.692H133.442V112.044H136.794V108.692Z" fill="white" stroke="#9DAFCC" stroke-width="0.6" stroke-linecap="round" stroke-linejoin="round"/>
<path d="M143.608 108.692H140.256V112.044H143.608V108.692Z" fill="white" stroke="#9DAFCC" stroke-width="0.6" stroke-linecap="round" stroke-linejoin="round"/>
<path d="M133.442 105.537H67.012V115.194H133.442V105.537Z" fill="white" stroke="#9DAFCC" stroke-width="0.6" stroke-linecap="round" stroke-linejoin="round"/>
<path d="M67.012 108.692H133.442" stroke="#9DAFCC" stroke-width="0.6" stroke-linecap="round" stroke-linejoin="round"/>
<path d="M74.6594 108.692H71.3074V112.044H74.6594V108.692Z" fill="white" stroke="#9DAFCC" stroke-width="0.6" stroke-linecap="round" stroke-linejoin="round"/>
<path d="M81.4684 108.692H78.1165V112.044H81.4684V108.692Z" fill="white" stroke="#9DAFCC" stroke-width="0.6" stroke-linecap="round" stroke-linejoin="round"/>
<path d="M88.2824 108.692H84.9304V112.044H88.2824V108.692Z" fill="white" stroke="#9DAFCC" stroke-width="0.6" stroke-linecap="round" stroke-linejoin="round"/>
<path d="M95.0915 108.692H91.7395V112.044H95.0915V108.692Z" fill="white" stroke="#9DAFCC" stroke-width="0.6" stroke-linecap="round" stroke-linejoin="round"/>
<path d="M101.905 108.692H98.5535V112.044H101.905V108.692Z" fill="white" stroke="#9DAFCC" stroke-width="0.6" stroke-linecap="round" stroke-linejoin="round"/>
<path d="M108.715 108.692H105.363V112.044H108.715V108.692Z" fill="white" stroke="#9DAFCC" stroke-width="0.6" stroke-linecap="round" stroke-linejoin="round"/>
<path d="M115.528 108.692H112.176V112.044H115.528V108.692Z" fill="white" stroke="#9DAFCC" stroke-width="0.6" stroke-linecap="round" stroke-linejoin="round"/>
<path d="M122.337 108.692H118.985V112.044H122.337V108.692Z" fill="white" stroke="#9DAFCC" stroke-width="0.6" stroke-linecap="round" stroke-linejoin="round"/>
<path d="M129.151 108.692H125.799V112.044H129.151V108.692Z" fill="white" stroke="#9DAFCC" stroke-width="0.6" stroke-linecap="round" stroke-linejoin="round"/>
<path d="M67.7098 170.844H62.6116V186.042H67.7098V170.844Z" fill="#F25451" stroke="#9DAFCC" stroke-width="0.6" stroke-linecap="round" stroke-linejoin="round"/>
<path d="M138.027 170.844H132.929V186.042H138.027V170.844Z" fill="#F25451" stroke="#9DAFCC" stroke-width="0.6" stroke-linecap="round" stroke-linejoin="round"/>
<path d="M46.7202 124.982H35.2866V176.89H46.7202V124.982Z" fill="#365DA0" stroke="#9DAFCC" stroke-width="0.6" stroke-linecap="round" stroke-linejoin="round"/>
<path d="M35.2866 129.26H46.7202" stroke="#9DAFCC" stroke-width="0.6" stroke-linecap="round" stroke-linejoin="round"/>
<path d="M35.2866 156.177H46.7202" stroke="#9DAFCC" stroke-width="0.6" stroke-linecap="round" stroke-linejoin="round"/>
<path d="M35.2866 159.761H46.7202" stroke="#9DAFCC" stroke-width="0.6" stroke-linecap="round" stroke-linejoin="round"/>
<path d="M35.2866 163.341H46.7202" stroke="#9DAFCC" stroke-width="0.6" stroke-linecap="round" stroke-linejoin="round"/>
<path d="M35.2866 139.377H46.7202" stroke="#9DAFCC" stroke-width="0.6" stroke-linecap="round" stroke-linejoin="round"/>
<path d="M35.2866 142.962H46.7202" stroke="#9DAFCC" stroke-width="0.6" stroke-linecap="round" stroke-linejoin="round"/>
<path d="M35.2866 146.542H46.7202" stroke="#9DAFCC" stroke-width="0.6" stroke-linecap="round" stroke-linejoin="round"/>
<path d="M35.2866 171.603H46.7202" stroke="#9DAFCC" stroke-width="0.6" stroke-linecap="round" stroke-linejoin="round"/>
<path d="M39.0994 139.377V146.542" stroke="#9DAFCC" stroke-width="0.6" stroke-linecap="round" stroke-linejoin="round"/>
<path d="M42.9119 139.377V146.542" stroke="#9DAFCC" stroke-width="0.6" stroke-linecap="round" stroke-linejoin="round"/>
<path d="M39.0994 156.396V163.293" stroke="#9DAFCC" stroke-width="0.6" stroke-linecap="round" stroke-linejoin="round"/>
<path d="M42.9119 156.396V163.293" stroke="#9DAFCC" stroke-width="0.6" stroke-linecap="round" stroke-linejoin="round"/>
<path d="M39.0994 124.982V129.26" stroke="#9DAFCC" stroke-width="0.6" stroke-linecap="round" stroke-linejoin="round"/>
<path d="M42.9119 124.982V129.26" stroke="#9DAFCC" stroke-width="0.6" stroke-linecap="round" stroke-linejoin="round"/>
<path d="M39.0994 171.603V176.89" stroke="#9DAFCC" stroke-width="0.6" stroke-linecap="round" stroke-linejoin="round"/>
<path d="M42.9119 171.603V176.89" stroke="#9DAFCC" stroke-width="0.6" stroke-linecap="round" stroke-linejoin="round"/>
<path d="M41.0034 129.26V139.377" stroke="#9DAFCC" stroke-width="0.6" stroke-linecap="round" stroke-linejoin="round"/>
<path d="M41.0034 146.542V156.124" stroke="#9DAFCC" stroke-width="0.6" stroke-linecap="round" stroke-linejoin="round"/>
<path d="M41.0034 163.341V171.603" stroke="#9DAFCC" stroke-width="0.6" stroke-linecap="round" stroke-linejoin="round"/>
<path d="M141.932 125.338H250.529" stroke="#9DAFCC" stroke-width="0.6" stroke-linecap="round" stroke-linejoin="round"/>
<path d="M232.334 145.621H221.449V162.701H232.334V145.621Z" fill="#365DA0" stroke="#9DAFCC" stroke-width="0.6" stroke-linecap="round" stroke-linejoin="round"/>
<path d="M221.449 148.876H232.334" stroke="#9DAFCC" stroke-width="0.6" stroke-linecap="round" stroke-linejoin="round"/>
<path d="M226.894 145.621V156.716" stroke="#9DAFCC" stroke-width="0.6" stroke-linecap="round" stroke-linejoin="round"/>
<path d="M232.334 125.338H221.449V137.947H232.334V125.338Z" fill="#365DA0" stroke="#9DAFCC" stroke-width="0.6" stroke-linecap="round" stroke-linejoin="round"/>
<path d="M221.449 130.067H232.334" stroke="#9DAFCC" stroke-width="0.6" stroke-linecap="round" stroke-linejoin="round"/>
<path d="M226.894 125.338V137.947" stroke="#9DAFCC" stroke-width="0.6" stroke-linecap="round" stroke-linejoin="round"/>
<path d="M232.334 166.224H221.449V176.697H232.334V166.224Z" fill="#365DA0" stroke="#9DAFCC" stroke-width="0.6" stroke-linecap="round" stroke-linejoin="round"/>
<path d="M221.449 170.87H232.334" stroke="#9DAFCC" stroke-width="0.6" stroke-linecap="round" stroke-linejoin="round"/>
<path d="M226.894 166.224V176.697" stroke="#9DAFCC" stroke-width="0.6" stroke-linecap="round" stroke-linejoin="round"/>
<path d="M232.334 156.716H221.449V162.701H232.334V156.716Z" stroke="white" stroke-width="0.6" stroke-miterlimit="10" stroke-linecap="round"/>
<path d="M224.174 156.716V162.701" stroke="white" stroke-width="0.6" stroke-linecap="round" stroke-linejoin="round"/>
<path d="M226.894 156.716V162.701" stroke="white" stroke-width="0.6" stroke-linecap="round" stroke-linejoin="round"/>
<path d="M229.614 156.716V162.701" stroke="white" stroke-width="0.6" stroke-linecap="round" stroke-linejoin="round"/>
<path d="M236.871 125.338H232.334V179.864H236.871V125.338Z" fill="#9DAFCC" stroke="#9DAFCC" stroke-width="0.6" stroke-linecap="round" stroke-linejoin="round"/>
<path d="M216.917 145.621H206.032V162.701H216.917V145.621Z" fill="#365DA0" stroke="#9DAFCC" stroke-width="0.6" stroke-linecap="round" stroke-linejoin="round"/>
<path d="M206.032 148.876H216.913" stroke="#9DAFCC" stroke-width="0.6" stroke-linecap="round" stroke-linejoin="round"/>
<path d="M211.472 145.621V156.716" stroke="#9DAFCC" stroke-width="0.6" stroke-linecap="round" stroke-linejoin="round"/>
<path d="M216.917 125.338H206.032V137.947H216.917V125.338Z" fill="#365DA0" stroke="#9DAFCC" stroke-width="0.6" stroke-linecap="round" stroke-linejoin="round"/>
<path d="M206.032 130.067H216.913" stroke="#9DAFCC" stroke-width="0.6" stroke-linecap="round" stroke-linejoin="round"/>
<path d="M211.472 125.338V137.947" stroke="#9DAFCC" stroke-width="0.6" stroke-linecap="round" stroke-linejoin="round"/>
<path d="M216.917 166.224H206.032V176.697H216.917V166.224Z" fill="#365DA0" stroke="#9DAFCC" stroke-width="0.6" stroke-linecap="round" stroke-linejoin="round"/>
<path d="M206.032 170.87H216.913" stroke="#9DAFCC" stroke-width="0.6" stroke-linecap="round" stroke-linejoin="round"/>
<path d="M211.472 166.224V176.697" stroke="#9DAFCC" stroke-width="0.6" stroke-linecap="round" stroke-linejoin="round"/>
<path d="M216.917 156.716H206.032V162.701H216.917V156.716Z" stroke="white" stroke-width="0.6" stroke-miterlimit="10" stroke-linecap="round"/>
<path d="M208.752 156.716V162.701" stroke="white" stroke-width="0.6" stroke-linecap="round" stroke-linejoin="round"/>
<path d="M211.472 156.716V162.701" stroke="white" stroke-width="0.6" stroke-linecap="round" stroke-linejoin="round"/>
<path d="M214.192 156.716V162.701" stroke="white" stroke-width="0.6" stroke-linecap="round" stroke-linejoin="round"/>
<path d="M221.449 125.338H216.913V179.864H221.449V125.338Z" fill="#9DAFCC" stroke="#9DAFCC" stroke-width="0.6" stroke-linecap="round" stroke-linejoin="round"/>
<path d="M201.495 145.621H190.61V162.701H201.495V145.621Z" fill="#365DA0" stroke="#9DAFCC" stroke-width="0.6" stroke-linecap="round" stroke-linejoin="round"/>
<path d="M190.61 148.876H201.495" stroke="#9DAFCC" stroke-width="0.6" stroke-linecap="round" stroke-linejoin="round"/>
<path d="M196.055 145.621V156.716" stroke="#9DAFCC" stroke-width="0.6" stroke-linecap="round" stroke-linejoin="round"/>
<path d="M201.495 125.338H190.61V137.947H201.495V125.338Z" fill="#365DA0" stroke="#9DAFCC" stroke-width="0.6" stroke-linecap="round" stroke-linejoin="round"/>
<path d="M190.61 130.067H201.495" stroke="#9DAFCC" stroke-width="0.6" stroke-linecap="round" stroke-linejoin="round"/>
<path d="M196.055 125.338V137.947" stroke="#9DAFCC" stroke-width="0.6" stroke-linecap="round" stroke-linejoin="round"/>
<path d="M201.495 166.224H190.61V176.697H201.495V166.224Z" fill="#365DA0" stroke="#9DAFCC" stroke-width="0.6" stroke-linecap="round" stroke-linejoin="round"/>
<path d="M190.61 170.87H201.495" stroke="#9DAFCC" stroke-width="0.6" stroke-linecap="round" stroke-linejoin="round"/>
<path d="M196.055 166.224V176.697" stroke="#9DAFCC" stroke-width="0.6" stroke-linecap="round" stroke-linejoin="round"/>
<path d="M201.495 156.716H190.61V162.701H201.495V156.716Z" stroke="white" stroke-width="0.6" stroke-miterlimit="10" stroke-linecap="round"/>
<path d="M193.334 156.716V162.701" stroke="white" stroke-width="0.6" stroke-linecap="round" stroke-linejoin="round"/>
<path d="M196.055 156.716V162.701" stroke="white" stroke-width="0.6" stroke-linecap="round" stroke-linejoin="round"/>
<path d="M198.775 156.716V162.701" stroke="white" stroke-width="0.6" stroke-linecap="round" stroke-linejoin="round"/>
<path d="M206.032 125.338H201.495V179.864H206.032V125.338Z" fill="#9DAFCC" stroke="#9DAFCC" stroke-width="0.6" stroke-linecap="round" stroke-linejoin="round"/>
<path d="M186.078 145.621H175.193V162.701H186.078V145.621Z" fill="#365DA0" stroke="#9DAFCC" stroke-width="0.6" stroke-linecap="round" stroke-linejoin="round"/>
<path d="M175.193 148.876H186.073" stroke="#9DAFCC" stroke-width="0.6" stroke-linecap="round" stroke-linejoin="round"/>
<path d="M180.633 145.621V156.716" stroke="#9DAFCC" stroke-width="0.6" stroke-linecap="round" stroke-linejoin="round"/>
<path d="M186.078 125.338H175.193V137.947H186.078V125.338Z" fill="#365DA0" stroke="#9DAFCC" stroke-width="0.6" stroke-linecap="round" stroke-linejoin="round"/>
<path d="M175.193 130.067H186.073" stroke="#9DAFCC" stroke-width="0.6" stroke-linecap="round" stroke-linejoin="round"/>
<path d="M180.633 125.338V137.947" stroke="#9DAFCC" stroke-width="0.6" stroke-linecap="round" stroke-linejoin="round"/>
<path d="M186.078 166.224H175.193V176.697H186.078V166.224Z" fill="#365DA0" stroke="#9DAFCC" stroke-width="0.6" stroke-linecap="round" stroke-linejoin="round"/>
<path d="M175.193 170.87H186.073" stroke="#9DAFCC" stroke-width="0.6" stroke-linecap="round" stroke-linejoin="round"/>
<path d="M180.633 166.224V176.697" stroke="#9DAFCC" stroke-width="0.6" stroke-linecap="round" stroke-linejoin="round"/>
<path d="M186.078 156.716H175.193V162.701H186.078V156.716Z" stroke="white" stroke-width="0.6" stroke-miterlimit="10" stroke-linecap="round"/>
<path d="M177.913 156.716V162.701" stroke="white" stroke-width="0.6" stroke-linecap="round" stroke-linejoin="round"/>
<path d="M180.633 156.716V162.701" stroke="white" stroke-width="0.6" stroke-linecap="round" stroke-linejoin="round"/>
<path d="M183.353 156.716V162.701" stroke="white" stroke-width="0.6" stroke-linecap="round" stroke-linejoin="round"/>
<path d="M190.61 125.338H186.073V179.864H190.61V125.338Z" fill="#9DAFCC" stroke="#9DAFCC" stroke-width="0.6" stroke-linecap="round" stroke-linejoin="round"/>
<path d="M170.656 145.621H159.771V162.701H170.656V145.621Z" fill="#365DA0" stroke="#9DAFCC" stroke-width="0.6" stroke-linecap="round" stroke-linejoin="round"/>
<path d="M159.771 148.876H170.656" stroke="#9DAFCC" stroke-width="0.6" stroke-linecap="round" stroke-linejoin="round"/>
<path d="M165.216 145.621V156.716" stroke="#9DAFCC" stroke-width="0.6" stroke-linecap="round" stroke-linejoin="round"/>
<path d="M170.656 125.338H159.771V137.947H170.656V125.338Z" fill="#365DA0" stroke="#9DAFCC" stroke-width="0.6" stroke-linecap="round" stroke-linejoin="round"/>
<path d="M159.771 130.067H170.656" stroke="#9DAFCC" stroke-width="0.6" stroke-linecap="round" stroke-linejoin="round"/>
<path d="M165.216 125.338V137.947" stroke="#9DAFCC" stroke-width="0.6" stroke-linecap="round" stroke-linejoin="round"/>
<path d="M170.656 166.224H159.771V176.697H170.656V166.224Z" fill="#365DA0" stroke="#9DAFCC" stroke-width="0.6" stroke-linecap="round" stroke-linejoin="round"/>
<path d="M159.771 170.87H170.656" stroke="#9DAFCC" stroke-width="0.6" stroke-linecap="round" stroke-linejoin="round"/>
<path d="M165.216 166.224V176.697" stroke="#9DAFCC" stroke-width="0.6" stroke-linecap="round" stroke-linejoin="round"/>
<path d="M170.656 156.716H159.771V162.701H170.656V156.716Z" stroke="white" stroke-width="0.6" stroke-miterlimit="10" stroke-linecap="round"/>
<path d="M162.495 156.716V162.701" stroke="white" stroke-width="0.6" stroke-linecap="round" stroke-linejoin="round"/>
<path d="M165.216 156.716V162.701" stroke="white" stroke-width="0.6" stroke-linecap="round" stroke-linejoin="round"/>
<path d="M167.936 156.716V162.701" stroke="white" stroke-width="0.6" stroke-linecap="round" stroke-linejoin="round"/>
<path d="M175.193 125.338H170.656V179.864H175.193V125.338Z" fill="#9DAFCC" stroke="#9DAFCC" stroke-width="0.6" stroke-linecap="round" stroke-linejoin="round"/>
<path d="M159.775 125.338H155.239V179.864H159.775V125.338Z" fill="#9DAFCC" stroke="#9DAFCC" stroke-width="0.6" stroke-linecap="round" stroke-linejoin="round"/>
<path d="M256.935 186.042H16.561V195.642H256.935V186.042Z" fill="#365DA0" stroke="#9DAFCC" stroke-width="0.6" stroke-linecap="round" stroke-linejoin="round"/>
<path d="M58.8777 186.042V195.642" stroke="#9DAFCC" stroke-width="0.6" stroke-linecap="round" stroke-linejoin="round"/>
<path d="M141.576 186.042V195.642" stroke="#9DAFCC" stroke-width="0.6" stroke-linecap="round" stroke-linejoin="round"/>
<path d="M58.8777 189.24H141.576" stroke="#9DAFCC" stroke-width="0.6" stroke-linecap="round" stroke-linejoin="round"/>
<path d="M58.8777 186.042H141.576" stroke="#9DAFCC" stroke-width="0.6" stroke-linecap="round" stroke-linejoin="round"/>
<path d="M58.8777 192.439H141.576" stroke="#9DAFCC" stroke-width="0.6" stroke-linecap="round" stroke-linejoin="round"/>
<path d="M58.8777 195.642H141.576" stroke="#9DAFCC" stroke-width="0.6" stroke-linecap="round" stroke-linejoin="round"/>
<path d="M124.461 91.1246V85.2762L124.149 84.0257C124.149 84.0257 123.482 84.3153 123.061 83.4598C122.64 82.6042 123.026 80.7747 123.882 80.4544C124.737 80.1341 123.491 78.3353 125.093 77.9097C126.694 77.4841 127.12 78.23 127.76 79.1908C128.401 80.1516 130.489 81.3231 129.871 81.8584C129.252 82.3936 128.195 83.5124 128.195 83.5124C128.195 83.5124 128.195 90.7078 128.195 91.1377C128.195 91.5677 124.461 91.1246 124.461 91.1246Z" fill="#365DA0" stroke="#9DAFCC" stroke-width="0.6" stroke-linecap="round" stroke-linejoin="round"/>
<path d="M108.592 91.1244C108.592 91.1244 107.714 91.4491 107.117 88.764C106.521 86.0789 105.577 83.1393 105.801 82.1171C106.025 81.0948 105.985 80.8009 107.183 79.432C108.03 78.4711 106.832 76.9706 109.074 76.8523C111.202 76.7382 109.728 79.1775 110.39 79.3047C111.053 79.432 112.672 79.6865 112.36 80.9676C112.049 82.2487 110.645 84.2581 110.645 84.2581C110.645 84.2581 111.027 89.523 110.39 91.1244H108.592Z" fill="#365DA0" stroke="#9DAFCC" stroke-width="0.6" stroke-linecap="round" stroke-linejoin="round"/>
<path d="M90.963 91.1246L90.7393 86.3642L89.2432 84.5434C89.2432 84.5434 89.8442 80.5948 90.3663 80.0025C90.8884 79.4102 88.8702 77.528 91.4895 77.4534C94.1088 77.3788 93.6832 78.8047 93.4156 79.6251C94.8547 80.0025 95.9427 80.0025 95.776 80.8975C95.6093 81.7925 94.0211 84.6444 94.1966 85.9167C94.3721 87.1891 94.1878 91.1246 94.1878 91.1246H90.963Z" fill="#365DA0" stroke="#9DAFCC" stroke-width="0.6" stroke-linecap="round" stroke-linejoin="round"/>
<path d="M72.6893 91.1245L71.8952 86.1535L70.636 85.7806L71.4213 83.3105L69.7366 82.9376C69.7366 82.9376 70.9387 79.8664 72.2857 79.7742C71.4082 78.8967 72.0136 77.5805 73.286 77.4533C74.5583 77.326 77.1776 78.4273 77.1776 79.6251C77.1776 80.8228 75.8 81.8714 75.8 81.8714L77.1776 85.3155L75.8 85.9166V91.1245H72.6893Z" fill="#365DA0" stroke="#9DAFCC" stroke-width="0.6" stroke-linecap="round" stroke-linejoin="round"/>
<path d="M241.421 118.849H172.582V134.551H241.421V118.849Z" fill="#F25451" stroke="#9DAFCC" stroke-width="0.6" stroke-linecap="round" stroke-linejoin="round"/>
<path d="M239.008 144.761H174.991V200.143H239.008V144.761Z" fill="white" stroke="#9DAFCC" stroke-width="0.6" stroke-linecap="round" stroke-linejoin="round"/>
<path d="M238.924 144.761L241.416 134.556H172.582L175.074 144.761H238.924Z" fill="white" stroke="#9DAFCC" stroke-width="0.6" stroke-linecap="round" stroke-linejoin="round"/>
<path d="M173.455 137.956H240.447" stroke="#9DAFCC" stroke-width="0.6" stroke-linecap="round" stroke-linejoin="round"/>
<path d="M174.267 141.36H239.732" stroke="#9DAFCC" stroke-width="0.6" stroke-linecap="round" stroke-linejoin="round"/>
<path d="M227.565 80.0287L220.879 73.6667C221.31 72.2833 221.529 70.8425 221.528 69.3934C221.528 57.2096 214.706 58.5565 207.01 46.6447C199.302 58.5565 192.466 57.2096 192.466 69.3934C192.465 70.8425 192.684 72.2833 193.115 73.6667L186.429 80.0287H227.565Z" fill="#F25451" stroke="#9DAFCC" stroke-width="0.6" stroke-linecap="round" stroke-linejoin="round"/>
<path d="M222.717 89.1677H191.277V120.608H222.717V89.1677Z" fill="white" stroke="#9DAFCC" stroke-width="0.6" stroke-linecap="round" stroke-linejoin="round"/>
<path d="M222.638 89.1678L227.552 80.0288H186.447L191.36 89.1678H222.638Z" fill="white" stroke="#9DAFCC" stroke-width="0.6" stroke-linecap="round" stroke-linejoin="round"/>
<path d="M188.271 83.0736H225.727" stroke="#9DAFCC" stroke-width="0.6" stroke-linecap="round" stroke-linejoin="round"/>
<path d="M189.882 86.1184H224.117" stroke="#9DAFCC" stroke-width="0.6" stroke-linecap="round" stroke-linejoin="round"/>
<path d="M191.277 97.28H222.717" stroke="#9DAFCC" stroke-width="0.6" stroke-linecap="round" stroke-linejoin="round"/>
<path d="M206.997 93.3445C206.299 93.3445 205.629 93.6218 205.135 94.1154C204.642 94.6094 204.365 95.2789 204.365 95.9769V108.876H209.629V95.9769C209.629 95.2789 209.352 94.6094 208.859 94.1154C208.365 93.6218 207.695 93.3445 206.997 93.3445Z" fill="#365DA0" stroke="#9DAFCC" stroke-width="0.6" stroke-linecap="round" stroke-linejoin="round"/>
<path d="M197.731 93.3445C197.033 93.3445 196.363 93.6218 195.869 94.1154C195.376 94.6094 195.098 95.2789 195.098 95.9769V108.876H200.363V95.9769C200.363 95.2789 200.086 94.6094 199.592 94.1154C199.098 93.6218 198.429 93.3445 197.731 93.3445Z" fill="white" stroke="#9DAFCC" stroke-width="0.6" stroke-linecap="round" stroke-linejoin="round"/>
<path d="M216.285 93.3445C215.587 93.3445 214.917 93.6218 214.423 94.1154C213.93 94.6094 213.653 95.2789 213.653 95.9769V108.876H218.917V95.9769C218.917 95.2789 218.64 94.6094 218.147 94.1154C217.653 93.6218 216.983 93.3445 216.285 93.3445Z" fill="white" stroke="#9DAFCC" stroke-width="0.6" stroke-linecap="round" stroke-linejoin="round"/>
<path d="M206.997 113.562C204.397 113.561 201.823 114.073 199.422 115.067C197.02 116.061 194.838 117.519 192.999 119.357C191.161 121.195 189.703 123.377 188.708 125.778C187.713 128.18 187.201 130.754 187.201 133.353V200.143H226.789V133.353C226.787 128.105 224.702 123.071 220.991 119.36C217.279 115.648 212.246 113.563 206.997 113.562Z" fill="white" stroke="#9DAFCC" stroke-width="0.6" stroke-linecap="round" stroke-linejoin="round"/>
<path d="M206.997 123.591C203.94 123.593 201.007 124.808 198.845 126.97C196.683 129.132 195.468 132.064 195.467 135.122V200.143H218.532V135.113C218.528 132.056 217.312 129.126 215.149 126.965C212.986 124.805 210.054 123.591 206.997 123.591Z" stroke="#9DAFCC" stroke-width="0.6" stroke-linecap="round" stroke-linejoin="round"/>
<path d="M221.835 139.939V135.336C221.869 133.367 221.511 131.41 220.78 129.58C220.05 127.751 218.962 126.085 217.581 124.68C216.2 123.275 214.553 122.159 212.737 121.397C210.92 120.636 208.969 120.243 206.999 120.243C205.029 120.243 203.079 120.636 201.262 121.397C199.445 122.159 197.798 123.275 196.417 124.68C195.036 126.085 193.949 127.751 193.218 129.58C192.488 131.41 192.129 133.367 192.163 135.336V139.939" stroke="#9DAFCC" stroke-width="0.6" stroke-linecap="square" stroke-linejoin="round"/>
<path d="M224.389 143.383V134.63C224.389 132.346 223.939 130.085 223.065 127.974C222.191 125.865 220.91 123.947 219.295 122.332C217.68 120.717 215.763 119.436 213.653 118.562C211.542 117.688 209.281 117.238 206.997 117.238C204.713 117.238 202.452 117.688 200.341 118.562C198.231 119.436 196.314 120.717 194.699 122.332C193.084 123.947 191.803 125.865 190.929 127.974C190.055 130.085 189.605 132.346 189.605 134.63V143.383" stroke="#9DAFCC" stroke-width="0.6" stroke-linecap="square" stroke-linejoin="round"/>
<path d="M206.944 130.221C205.715 130.221 204.537 130.709 203.668 131.578C202.8 132.447 202.311 133.625 202.311 134.854V148.205H211.595V134.854C211.595 134.244 211.475 133.64 211.241 133.077C211.007 132.514 210.664 132.002 210.232 131.572C209.8 131.141 209.287 130.8 208.723 130.568C208.159 130.337 207.554 130.219 206.944 130.221Z" fill="#F25451" stroke="#9DAFCC" stroke-width="0.6" stroke-linecap="round" stroke-linejoin="round"/>
<path d="M206.944 153.886C205.356 153.886 203.833 154.517 202.71 155.641C201.586 156.764 200.956 158.287 200.956 159.875V189.144H212.938V159.875C212.938 159.089 212.783 158.309 212.481 157.582C212.18 156.856 211.739 156.195 211.182 155.639C210.625 155.083 209.965 154.642 209.238 154.341C208.51 154.04 207.731 153.886 206.944 153.886Z" fill="#365DA0" stroke="#9DAFCC" stroke-width="0.6" stroke-linecap="round" stroke-linejoin="round"/>
<path d="M206.958 153.886V189.144" stroke="#9DAFCC" stroke-width="0.6" stroke-linecap="round" stroke-linejoin="round"/>
<path d="M200.969 159.761H212.951" stroke="#9DAFCC" stroke-width="0.6" stroke-linecap="round" stroke-linejoin="round"/>
<path d="M200.969 165.636H212.951" stroke="#9DAFCC" stroke-width="0.6" stroke-linecap="round" stroke-linejoin="round"/>
<path d="M200.969 171.515H212.951" stroke="#9DAFCC" stroke-width="0.6" stroke-linecap="round" stroke-linejoin="round"/>
<path d="M200.969 177.39H212.951" stroke="#9DAFCC" stroke-width="0.6" stroke-linecap="round" stroke-linejoin="round"/>
<path d="M200.969 183.265H212.951" stroke="#9DAFCC" stroke-width="0.6" stroke-linecap="round" stroke-linejoin="round"/>
<path d="M200.969 189.144H212.951" stroke="#9DAFCC" stroke-width="0.6" stroke-linecap="round" stroke-linejoin="round"/>
<path d="M207.076 46.6449V33" stroke="#9DAFCC" stroke-width="0.6" stroke-linejoin="round"/>
<path d="M203.61 37.7031H210.388" stroke="#9DAFCC" stroke-width="0.6" stroke-linejoin="round"/>
<path d="M205.461 35.0754H208.691" stroke="#9DAFCC" stroke-width="0.6" stroke-linejoin="round"/>
<path d="M205.146 41.1737L208.949 43.2402" stroke="#9DAFCC" stroke-width="0.6" stroke-linejoin="round"/>
</g>
</g>
<defs>
<filter id="filter0_dd_202_4244" x="-11.9112" y="-11.9112" width="296.822" height="263.822" filterUnits="userSpaceOnUse" color-interpolation-filters="sRGB">
<feFlood flood-opacity="0" result="BackgroundImageFix"/>
<feColorMatrix in="SourceAlpha" type="matrix" values="0 0 0 0 0 0 0 0 0 0 0 0 0 0 0 0 0 0 127 0" result="hardAlpha"/>
<feOffset/>
<feGaussianBlur stdDeviation="5.95559"/>
<feComposite in2="hardAlpha" operator="out"/>
<feColorMatrix type="matrix" values="0 0 0 0 0.568627 0 0 0 0 0.741176 0 0 0 0 0.866667 0 0 0 1 0"/>
<feBlend mode="normal" in2="BackgroundImageFix" result="effect1_dropShadow_202_4244"/>
<feColorMatrix in="SourceAlpha" type="matrix" values="0 0 0 0 0 0 0 0 0 0 0 0 0 0 0 0 0 0 127 0" result="hardAlpha"/>
<feOffset dy="2.38223"/>
<feGaussianBlur stdDeviation="2.97779"/>
<feComposite in2="hardAlpha" operator="out"/>
<feColorMatrix type="matrix" values="0 0 0 0 0 0 0 0 0 0 0 0 0 0 0 0 0 0 0.1 0"/>
<feBlend mode="normal" in2="effect1_dropShadow_202_4244" result="effect2_dropShadow_202_4244"/>
<feBlend mode="normal" in="SourceGraphic" in2="effect2_dropShadow_202_4244" result="shape"/>
</filter>
<filter id="filter1_dd_202_4244" x="4.34981" y="21.0888" width="264.796" height="191.265" filterUnits="userSpaceOnUse" color-interpolation-filters="sRGB">
<feFlood flood-opacity="0" result="BackgroundImageFix"/>
<feColorMatrix in="SourceAlpha" type="matrix" values="0 0 0 0 0 0 0 0 0 0 0 0 0 0 0 0 0 0 127 0" result="hardAlpha"/>
<feOffset/>
<feGaussianBlur stdDeviation="5.95559"/>
<feComposite in2="hardAlpha" operator="out"/>
<feColorMatrix type="matrix" values="0 0 0 0 0.568627 0 0 0 0 0.741176 0 0 0 0 0.866667 0 0 0 1 0"/>
<feBlend mode="normal" in2="BackgroundImageFix" result="effect1_dropShadow_202_4244"/>
<feColorMatrix in="SourceAlpha" type="matrix" values="0 0 0 0 0 0 0 0 0 0 0 0 0 0 0 0 0 0 127 0" result="hardAlpha"/>
<feOffset dy="2.38223"/>
<feGaussianBlur stdDeviation="2.97779"/>
<feComposite in2="hardAlpha" operator="out"/>
<feColorMatrix type="matrix" values="0 0 0 0 0 0 0 0 0 0 0 0 0 0 0 0 0 0 0.1 0"/>
<feBlend mode="normal" in2="effect1_dropShadow_202_4244" result="effect2_dropShadow_202_4244"/>
<feBlend mode="normal" in="SourceGraphic" in2="effect2_dropShadow_202_4244" result="shape"/>
</filter>
</defs>
</svg>
