<svg width="273" height="241" viewBox="0 0 273 241" fill="none" xmlns="http://www.w3.org/2000/svg">
<g filter="url(#filter0_dd_202_1510)">
<g filter="url(#filter1_dd_202_1510)">
<path d="M158.715 189.397H109.43V221.298H158.715V189.397Z" fill="white" stroke="#9DAFCC" stroke-width="0.6" stroke-linejoin="round"/>
<path d="M158.715 169.035H109.43V189.397H158.715V169.035Z" fill="#F25451" stroke="#9DAFCC" stroke-width="0.6" stroke-linejoin="round"/>
<path d="M129.088 199.269H139.058" stroke="#9DAFCC" stroke-width="0.6" stroke-miterlimit="10" stroke-linecap="round"/>
<path d="M134.073 194.478C132.986 194.478 131.944 194.909 131.176 195.677C130.408 196.446 129.977 197.488 129.977 198.573V199.269H138.169V198.573C138.167 197.488 137.735 196.447 136.967 195.679C136.199 194.911 135.158 194.479 134.073 194.478Z" fill="white" stroke="#9DAFCC" stroke-width="0.6" stroke-miterlimit="10"/>
<path d="M138.163 199.269H129.977V211.916H138.163V199.269Z" fill="#365DA0" stroke="#9DAFCC" stroke-width="0.6" stroke-miterlimit="10"/>
<path d="M143.625 199.269H153.594" stroke="#9DAFCC" stroke-width="0.6" stroke-miterlimit="10" stroke-linecap="round"/>
<path d="M148.609 194.478C147.523 194.479 146.482 194.911 145.715 195.679C144.947 196.447 144.515 197.488 144.514 198.573V199.269H152.705V198.573C152.704 197.488 152.272 196.447 151.504 195.679C150.736 194.911 149.695 194.479 148.609 194.478Z" fill="white" stroke="#9DAFCC" stroke-width="0.6" stroke-miterlimit="10"/>
<path d="M152.7 199.269H144.514V211.916H152.7V199.269Z" fill="#365DA0" stroke="#9DAFCC" stroke-width="0.6" stroke-miterlimit="10"/>
<path d="M114.551 199.269H124.521" stroke="#9DAFCC" stroke-width="0.6" stroke-miterlimit="10" stroke-linecap="round"/>
<path d="M119.536 194.478C118.45 194.478 117.408 194.909 116.64 195.677C115.872 196.446 115.44 197.488 115.44 198.573V199.269H123.631V198.573C123.63 197.488 123.198 196.447 122.43 195.679C121.663 194.911 120.622 194.479 119.536 194.478Z" fill="white" stroke="#9DAFCC" stroke-width="0.6" stroke-miterlimit="10"/>
<path d="M123.627 199.269H115.44V211.916H123.627V199.269Z" fill="#365DA0" stroke="#9DAFCC" stroke-width="0.6" stroke-miterlimit="10"/>
<path d="M253.364 189.397H221.366V221.298H253.364V189.397Z" fill="white" stroke="#9DAFCC" stroke-width="0.6" stroke-linejoin="round"/>
<path d="M237.56 169.035H221.366V189.401H258.616L237.56 169.035Z" fill="#F25451" stroke="#9DAFCC" stroke-width="0.6" stroke-linejoin="round"/>
<path d="M232.429 199.269H242.398" stroke="#9DAFCC" stroke-width="0.6" stroke-miterlimit="10" stroke-linecap="round"/>
<path d="M237.413 194.478C236.328 194.479 235.288 194.912 234.521 195.679C233.753 196.447 233.323 197.488 233.323 198.573V199.269H241.509V198.573C241.509 198.036 241.403 197.503 241.197 197.006C240.991 196.51 240.69 196.058 240.309 195.677C239.929 195.297 239.478 194.995 238.981 194.79C238.484 194.584 237.951 194.478 237.413 194.478Z" fill="white" stroke="#9DAFCC" stroke-width="0.6" stroke-miterlimit="10"/>
<path d="M241.509 199.269H233.323V211.916H241.509V199.269Z" fill="#365DA0" stroke="#9DAFCC" stroke-width="0.6" stroke-miterlimit="10"/>
<path d="M221.366 122.577H158.715V221.298H221.366V122.577Z" fill="white" stroke="#9DAFCC" stroke-width="0.6" stroke-linejoin="round"/>
<path d="M163.695 153.72L151.049 162.68H229.028L216.381 153.72H163.695Z" fill="#F25451" stroke="#9DAFCC" stroke-width="0.6" stroke-linejoin="round"/>
<path d="M193.419 173.864H205.668" stroke="#9DAFCC" stroke-width="0.6" stroke-miterlimit="10" stroke-linecap="round"/>
<path d="M199.547 167.98C198.886 167.979 198.231 168.109 197.62 168.361C197.01 168.614 196.455 168.984 195.987 169.45C195.52 169.918 195.149 170.473 194.896 171.083C194.643 171.693 194.513 172.348 194.513 173.008V173.888H204.575V173.033C204.578 172.37 204.45 171.714 204.199 171.101C203.948 170.487 203.578 169.931 203.111 169.461C202.643 168.992 202.088 168.619 201.476 168.365C200.865 168.111 200.208 167.98 199.547 167.98Z" fill="white" stroke="#9DAFCC" stroke-width="0.6" stroke-miterlimit="10"/>
<path d="M204.575 173.864H194.513V189.401H204.575V173.864Z" fill="#365DA0" stroke="#9DAFCC" stroke-width="0.6" stroke-miterlimit="10"/>
<path d="M174.408 173.864H186.657" stroke="#9DAFCC" stroke-width="0.6" stroke-miterlimit="10" stroke-linecap="round"/>
<path d="M180.53 167.98C179.196 167.98 177.917 168.509 176.974 169.452C176.031 170.396 175.501 171.674 175.501 173.008V173.888H185.563V173.033C185.566 172.369 185.439 171.713 185.187 171.1C184.935 170.486 184.565 169.929 184.097 169.459C183.63 168.99 183.073 168.617 182.461 168.363C181.849 168.109 181.193 167.979 180.53 167.98Z" fill="white" stroke="#9DAFCC" stroke-width="0.6" stroke-miterlimit="10"/>
<path d="M185.563 173.864H175.501V189.401H185.563V173.864Z" fill="#365DA0" stroke="#9DAFCC" stroke-width="0.6" stroke-miterlimit="10"/>
<path d="M185.053 199.269H195.023" stroke="#9DAFCC" stroke-width="0.6" stroke-miterlimit="10" stroke-linecap="round"/>
<path d="M190.038 194.478C188.952 194.479 187.911 194.911 187.143 195.679C186.375 196.447 185.944 197.488 185.942 198.573V199.269H194.134V198.573C194.134 197.488 193.702 196.446 192.934 195.677C192.166 194.909 191.124 194.478 190.038 194.478Z" fill="white" stroke="#9DAFCC" stroke-width="0.6" stroke-miterlimit="10"/>
<path d="M194.129 199.269H185.942V211.916H194.129V199.269Z" fill="#365DA0" stroke="#9DAFCC" stroke-width="0.6" stroke-miterlimit="10"/>
<path d="M199.59 199.269H209.56" stroke="#9DAFCC" stroke-width="0.6" stroke-miterlimit="10" stroke-linecap="round"/>
<path d="M204.574 194.478C203.489 194.479 202.448 194.911 201.68 195.679C200.912 196.447 200.48 197.488 200.479 198.573V199.269H208.67V198.573C208.67 197.488 208.239 196.446 207.471 195.677C206.703 194.909 205.661 194.478 204.574 194.478Z" fill="white" stroke="#9DAFCC" stroke-width="0.6" stroke-miterlimit="10"/>
<path d="M208.665 199.269H200.479V211.916H208.665V199.269Z" fill="#365DA0" stroke="#9DAFCC" stroke-width="0.6" stroke-miterlimit="10"/>
<path d="M170.516 199.269H180.486" stroke="#9DAFCC" stroke-width="0.6" stroke-miterlimit="10" stroke-linecap="round"/>
<path d="M175.502 194.478C174.416 194.479 173.375 194.911 172.607 195.679C171.839 196.447 171.407 197.488 171.406 198.573V199.269H179.597V198.573C179.596 197.488 179.164 196.447 178.396 195.679C177.628 194.911 176.587 194.479 175.502 194.478Z" fill="white" stroke="#9DAFCC" stroke-width="0.6" stroke-miterlimit="10"/>
<path d="M179.592 199.269H171.406V211.916H179.592V199.269Z" fill="#365DA0" stroke="#9DAFCC" stroke-width="0.6" stroke-miterlimit="10"/>
<path d="M184.358 135.607H195.718" stroke="#9DAFCC" stroke-width="0.6" stroke-miterlimit="10" stroke-linecap="round"/>
<path d="M190.038 130.161C190.038 130.161 185.374 132.25 185.374 134.825V135.617H194.702V134.825C194.702 132.24 190.038 130.161 190.038 130.161Z" fill="white" stroke="#9DAFCC" stroke-width="0.6" stroke-miterlimit="10"/>
<path d="M194.702 135.607H185.374V150.013H194.702V135.607Z" fill="#365DA0" stroke="#9DAFCC" stroke-width="0.6" stroke-miterlimit="10"/>
<path d="M206.178 135.607H217.537" stroke="#9DAFCC" stroke-width="0.6" stroke-miterlimit="10" stroke-linecap="round"/>
<path d="M211.857 130.161C211.857 130.161 207.194 132.25 207.194 134.825V135.617H216.522V134.825C216.522 132.24 211.857 130.161 211.857 130.161Z" fill="white" stroke="#9DAFCC" stroke-width="0.6" stroke-miterlimit="10"/>
<path d="M216.522 135.607H207.194V150.013H216.522V135.607Z" fill="#365DA0" stroke="#9DAFCC" stroke-width="0.6" stroke-miterlimit="10"/>
<path d="M162.543 135.607H173.898" stroke="#9DAFCC" stroke-width="0.6" stroke-miterlimit="10" stroke-linecap="round"/>
<path d="M168.219 130.161C168.219 130.161 163.554 132.25 163.554 134.825V135.617H172.878V134.825C172.878 132.24 168.219 130.161 168.219 130.161Z" fill="white" stroke="#9DAFCC" stroke-width="0.6" stroke-miterlimit="10"/>
<path d="M172.883 135.607H163.554V150.013H172.883V135.607Z" fill="#365DA0" stroke="#9DAFCC" stroke-width="0.6" stroke-miterlimit="10"/>
<path d="M179.131 122.577V153.72" stroke="#9DAFCC" stroke-width="0.6" stroke-miterlimit="10"/>
<path d="M200.946 122.577V153.72" stroke="#9DAFCC" stroke-width="0.6" stroke-miterlimit="10"/>
<path d="M158.715 126.998H221.366" stroke="#9DAFCC" stroke-width="0.6" stroke-linejoin="round"/>
<path d="M199.289 88.7521H180.792L153.103 122.577H226.977L199.289 88.7521Z" fill="#F25451" stroke="#9DAFCC" stroke-width="0.6" stroke-linejoin="round"/>
<path d="M166.309 111.49L158.458 122.577H174.155L166.309 111.49Z" stroke="#9DAFCC" stroke-width="0.6" stroke-linejoin="round"/>
<path d="M213.772 111.49L205.921 122.577H221.618L213.772 111.49Z" stroke="#9DAFCC" stroke-width="0.6" stroke-linejoin="round"/>
<path d="M190.038 111.49L179.131 122.577H200.946L190.038 111.49Z" stroke="#9DAFCC" stroke-width="0.6" stroke-linejoin="round"/>
<path d="M199.289 74.6959H180.792V88.7466H199.289V74.6959Z" fill="white" stroke="#9DAFCC" stroke-width="0.6" stroke-linejoin="round"/>
<path d="M190.038 59.5084C190.038 59.5084 178.776 64.6001 178.776 69.0505C178.776 70.7558 179.524 73.3943 180.792 74.6964H199.284C200.552 73.3943 201.3 70.7558 201.3 69.0505C201.3 64.6001 190.038 59.5084 190.038 59.5084Z" fill="#F25451" stroke="#9DAFCC" stroke-width="0.6" stroke-linejoin="round"/>
<path d="M193.672 52.7305H186.409V61.403H193.672V52.7305Z" fill="white" stroke="#9DAFCC" stroke-width="0.6" stroke-linejoin="round"/>
<path d="M190.038 52.7303H186.511C184.65 52.7303 183.144 50.2622 183.144 47.2159C183.144 44.3008 184.898 43.2465 187.094 41.3176C188.848 39.7726 190.038 33.2962 190.038 33.2962C190.038 33.2962 191.52 39.8309 192.982 41.3176C195.037 43.3971 196.932 44.3153 196.932 47.2159C196.932 50.2622 195.426 52.7303 193.566 52.7303H190.038Z" fill="#F25451" stroke="#9DAFCC" stroke-width="0.6" stroke-linejoin="round"/>
<path d="M185.976 74.6959V88.7518L174.155 122.577" stroke="#9DAFCC" stroke-width="0.6" stroke-linejoin="round"/>
<path d="M194.105 74.6959V88.7518L205.921 122.577" stroke="#9DAFCC" stroke-width="0.6" stroke-linejoin="round"/>
<path d="M166.945 105.664H212.819" stroke="#9DAFCC" stroke-width="0.6" stroke-linejoin="round"/>
<path d="M253.364 217.794H109.43V222.352H253.364V217.794Z" fill="#E4EBF5" stroke="#9DAFCC" stroke-width="0.6" stroke-linejoin="round"/>
<path d="M190.038 33.2966V20.1641" stroke="#9DAFCC" stroke-width="0.6" stroke-linejoin="round"/>
<path d="M186.239 25.3185H193.672" stroke="#9DAFCC" stroke-width="0.6" stroke-linejoin="round"/>
<path d="M188.264 22.4377H191.811" stroke="#9DAFCC" stroke-width="0.6" stroke-linejoin="round"/>
<path d="M187.924 29.1186L192.093 31.3875" stroke="#9DAFCC" stroke-width="0.6" stroke-linejoin="round"/>
<path d="M130.001 214.821H21.2041V222.352H130.001V214.821Z" fill="#E4EBF5" stroke="#9DAFCC" stroke-width="0.6" stroke-linejoin="round"/>
<path d="M121.727 207.291H29.4783V214.821H121.727V207.291Z" fill="#E4EBF5" stroke="#9DAFCC" stroke-width="0.6" stroke-linejoin="round"/>
<path d="M113.798 199.76H37.4072V207.29H113.798V199.76Z" fill="#E4EBF5" stroke="#9DAFCC" stroke-width="0.6" stroke-linejoin="round"/>
<path d="M24.6487 214.821V207.291" stroke="#9DAFCC" stroke-width="0.6" stroke-linecap="round" stroke-linejoin="round"/>
<path d="M33.1074 207.29V199.76" stroke="#9DAFCC" stroke-width="0.6" stroke-linecap="round" stroke-linejoin="round"/>
<path d="M41.4495 199.76V192.224" stroke="#9DAFCC" stroke-width="0.6" stroke-linecap="round" stroke-linejoin="round"/>
<path d="M126.562 214.821V207.291" stroke="#9DAFCC" stroke-width="0.6" stroke-linecap="round" stroke-linejoin="round"/>
<path d="M119.157 207.29V199.76" stroke="#9DAFCC" stroke-width="0.6" stroke-linecap="round" stroke-linejoin="round"/>
<path d="M109.756 199.76V192.224" stroke="#9DAFCC" stroke-width="0.6" stroke-linecap="round" stroke-linejoin="round"/>
<path d="M58.0027 199.76L49.2087 222.352H102.001L93.203 199.76H58.0027Z" fill="white" stroke="#9DAFCC" stroke-width="0.6" stroke-linejoin="round"/>
<path d="M96.1759 199.76H55.0293L60.3105 87.1732H90.8949L96.1759 199.76Z" fill="#E4EBF5" stroke="#9DAFCC" stroke-width="0.6" stroke-linejoin="round"/>
<path d="M75.6051 110.052C73.6038 110.052 71.6846 110.846 70.2695 112.261C68.8545 113.677 68.0601 115.596 68.0601 117.597V199.152H83.1501V117.597C83.1501 115.596 82.3557 113.677 80.9407 112.261C79.5256 110.846 77.6064 110.052 75.6051 110.052Z" fill="#365DA0" stroke="#9DAFCC" stroke-width="0.6" stroke-miterlimit="10"/>
<path d="M58.3379 129.277H92.8726L92.5468 122.383H58.6585L58.3379 129.277Z" fill="#365DA0" stroke="#9DAFCC" stroke-width="0.6" stroke-linejoin="round"/>
<path d="M83.1456 122.383H68.0601V129.282H83.1456V122.383Z" fill="#365DA0" stroke="#9DAFCC" stroke-width="0.6" stroke-linejoin="round"/>
<path d="M79.0495 133.373V118.287H72.1509V133.373H79.0495Z" fill="#365DA0" stroke="#9DAFCC" stroke-width="0.6" stroke-linejoin="round"/>
<path d="M72.1555 122.383H79.0547" stroke="#9DAFCC" stroke-width="0.6" stroke-linejoin="round"/>
<path d="M72.1555 129.277H79.0547" stroke="#9DAFCC" stroke-width="0.6" stroke-linejoin="round"/>
<path d="M88.2469 81.3277H63.1235V87.1726H88.2469V81.3277Z" fill="#E4EBF5" stroke="#9DAFCC" stroke-width="0.6" stroke-linejoin="round"/>
<path d="M86.4494 81.3282C86.4494 81.3282 85.3223 50.802 83.1501 39.778L83.4564 37.0232C83.4564 37.0232 92.6436 35.9203 96.1758 33.9914C98.6205 32.7194 101.19 31.7035 103.843 30.9597C108.803 30.6876 111.131 30.848 112.18 27.5976C113.229 24.3472 104.945 27.5976 104.945 27.5976C104.945 27.5976 97.0557 28.6422 92.8725 27.5976C88.6893 26.553 84.0977 24.2452 81.9845 24.7311C82.6258 20.5041 82.791 12.7208 75.6681 12.7208C68.5458 12.7208 71.0524 24.7311 71.0524 24.7311C64.4401 23.5359 63.6141 26.0137 60.8497 26.0137C58.0852 26.0137 48.9852 25.6348 46.6433 24.7311C44.3015 23.8274 37.7134 21.8159 37.7134 24.7311C37.7134 27.6462 42.1249 29.2738 44.6027 29.0211C48.1835 30.4252 55.2623 33.18 58.3378 34.2829C61.4132 35.3858 69.124 35.5899 69.124 35.5899L69.4005 39.5155C69.4005 39.5155 63.8911 64.4787 65.2712 81.3426L86.4494 81.3282Z" fill="#365DA0" stroke="#9DAFCC" stroke-width="0.6" stroke-linejoin="round"/>
<path d="M74.5169 17.5548C74.3557 18.0873 74.2737 18.6406 74.2737 19.197C74.2737 21.2521 75.2889 22.9138 76.5474 22.9138C77.8059 22.9138 78.8211 21.2521 78.8211 19.197C78.8223 18.6251 78.7357 18.0565 78.5636 17.511C77.2185 17.3552 75.8585 17.3699 74.5169 17.5548Z" stroke="#9DAFCC" stroke-width="0.6" stroke-linejoin="round"/>
<path d="M70.761 18.2543C74.2788 17.3604 78.0491 16.8793 82.0183 18.2543" stroke="#9DAFCC" stroke-width="0.6" stroke-linejoin="round"/>
</g>
</g>
<defs>
<filter id="filter0_dd_202_1510" x="-11.9112" y="-10.9112" width="296.822" height="263.822" filterUnits="userSpaceOnUse" color-interpolation-filters="sRGB">
<feFlood flood-opacity="0" result="BackgroundImageFix"/>
<feColorMatrix in="SourceAlpha" type="matrix" values="0 0 0 0 0 0 0 0 0 0 0 0 0 0 0 0 0 0 127 0" result="hardAlpha"/>
<feOffset/>
<feGaussianBlur stdDeviation="5.95559"/>
<feComposite in2="hardAlpha" operator="out"/>
<feColorMatrix type="matrix" values="0 0 0 0 0.568627 0 0 0 0 0.741176 0 0 0 0 0.866667 0 0 0 1 0"/>
<feBlend mode="normal" in2="BackgroundImageFix" result="effect1_dropShadow_202_1510"/>
<feColorMatrix in="SourceAlpha" type="matrix" values="0 0 0 0 0 0 0 0 0 0 0 0 0 0 0 0 0 0 127 0" result="hardAlpha"/>
<feOffset dy="2.38223"/>
<feGaussianBlur stdDeviation="2.97779"/>
<feComposite in2="hardAlpha" operator="out"/>
<feColorMatrix type="matrix" values="0 0 0 0 0 0 0 0 0 0 0 0 0 0 0 0 0 0 0.1 0"/>
<feBlend mode="normal" in2="effect1_dropShadow_202_1510" result="effect2_dropShadow_202_1510"/>
<feBlend mode="normal" in="SourceGraphic" in2="effect2_dropShadow_202_1510" result="shape"/>
</filter>
<filter id="filter1_dd_202_1510" x="8.99288" y="0.509604" width="261.835" height="234.053" filterUnits="userSpaceOnUse" color-interpolation-filters="sRGB">
<feFlood flood-opacity="0" result="BackgroundImageFix"/>
<feColorMatrix in="SourceAlpha" type="matrix" values="0 0 0 0 0 0 0 0 0 0 0 0 0 0 0 0 0 0 127 0" result="hardAlpha"/>
<feOffset/>
<feGaussianBlur stdDeviation="5.95559"/>
<feComposite in2="hardAlpha" operator="out"/>
<feColorMatrix type="matrix" values="0 0 0 0 0.568627 0 0 0 0 0.741176 0 0 0 0 0.866667 0 0 0 1 0"/>
<feBlend mode="normal" in2="BackgroundImageFix" result="effect1_dropShadow_202_1510"/>
<feColorMatrix in="SourceAlpha" type="matrix" values="0 0 0 0 0 0 0 0 0 0 0 0 0 0 0 0 0 0 127 0" result="hardAlpha"/>
<feOffset dy="2.38223"/>
<feGaussianBlur stdDeviation="2.97779"/>
<feComposite in2="hardAlpha" operator="out"/>
<feColorMatrix type="matrix" values="0 0 0 0 0 0 0 0 0 0 0 0 0 0 0 0 0 0 0.1 0"/>
<feBlend mode="normal" in2="effect1_dropShadow_202_1510" result="effect2_dropShadow_202_1510"/>
<feBlend mode="normal" in="SourceGraphic" in2="effect2_dropShadow_202_1510" result="shape"/>
</filter>
</defs>
</svg>
