<svg width="278" height="240" viewBox="0 0 278 240" fill="none" xmlns="http://www.w3.org/2000/svg">
<g filter="url(#filter0_dd_202_265)">
<g filter="url(#filter1_dd_202_265)">
<path d="M133.946 109.453C134.38 109.444 134.8 109.307 135.156 109.06C135.512 108.813 135.787 108.467 135.947 108.064C136.106 107.661 136.144 107.22 136.053 106.797C135.964 106.373 135.751 105.985 135.441 105.682C135.132 105.379 134.74 105.174 134.314 105.092C133.889 105.011 133.449 105.057 133.05 105.225C132.65 105.393 132.309 105.675 132.069 106.035C131.829 106.396 131.701 106.82 131.701 107.253C131.704 107.545 131.764 107.834 131.878 108.102C131.992 108.371 132.158 108.615 132.367 108.819C132.575 109.024 132.822 109.185 133.093 109.293C133.364 109.402 133.654 109.456 133.946 109.453Z" fill="#365DA0"/>
<path d="M153.204 109.448C154.436 109.448 155.435 108.465 155.435 107.253C155.435 106.04 154.436 105.057 153.204 105.057C151.971 105.057 150.972 106.04 150.972 107.253C150.972 108.465 151.971 109.448 153.204 109.448Z" fill="#365DA0"/>
<path d="M173.426 109.453C173.859 109.444 174.28 109.307 174.636 109.06C174.992 108.813 175.266 108.467 175.426 108.064C175.586 107.661 175.623 107.22 175.533 106.797C175.443 106.373 175.231 105.985 174.921 105.682C174.612 105.379 174.219 105.174 173.794 105.092C173.369 105.011 172.929 105.057 172.529 105.225C172.13 105.393 171.789 105.675 171.549 106.035C171.309 106.396 171.181 106.82 171.181 107.253C171.183 107.545 171.243 107.834 171.357 108.102C171.472 108.371 171.638 108.615 171.846 108.819C172.055 109.024 172.302 109.185 172.573 109.293C172.844 109.402 173.134 109.456 173.426 109.453Z" fill="#365DA0"/>
<path d="M192.679 109.453C193.112 109.444 193.533 109.307 193.888 109.06C194.244 108.813 194.519 108.467 194.679 108.064C194.839 107.661 194.876 107.22 194.786 106.797C194.696 106.373 194.483 105.985 194.174 105.682C193.865 105.379 193.472 105.174 193.047 105.092C192.621 105.011 192.181 105.057 191.782 105.225C191.383 105.393 191.041 105.675 190.802 106.035C190.562 106.396 190.434 106.82 190.434 107.253C190.436 107.545 190.496 107.834 190.61 108.102C190.725 108.371 190.891 108.615 191.099 108.819C191.308 109.024 191.555 109.185 191.826 109.293C192.097 109.402 192.387 109.456 192.679 109.453Z" fill="#365DA0"/>
<path d="M259.839 109.453C260.273 109.444 260.693 109.307 261.049 109.06C261.405 108.813 261.68 108.467 261.84 108.064C262 107.661 262.037 107.22 261.947 106.797C261.857 106.373 261.644 105.985 261.335 105.682C261.025 105.379 260.633 105.174 260.208 105.092C259.782 105.011 259.342 105.057 258.942 105.225C258.543 105.393 258.202 105.675 257.962 106.035C257.722 106.396 257.594 106.82 257.594 107.253C257.597 107.545 257.657 107.834 257.771 108.102C257.885 108.371 258.052 108.615 258.26 108.819C258.469 109.024 258.716 109.185 258.986 109.293C259.258 109.402 259.548 109.456 259.839 109.453Z" fill="#365DA0"/>
<path d="M254.878 121.073H66.0989V161.756H254.878V121.073Z" fill="#F25451" stroke="#9DAFCC" stroke-width="0.6" stroke-miterlimit="10"/>
<path d="M66.0989 111.563H254.878" stroke="#9DAFCC" stroke-width="0.6" stroke-miterlimit="10"/>
<path d="M177.714 111.563V116.533" stroke="#9DAFCC" stroke-width="0.6" stroke-miterlimit="10"/>
<path d="M182.873 111.563V116.533" stroke="#9DAFCC" stroke-width="0.6" stroke-miterlimit="10"/>
<path d="M138.418 111.563V116.533" stroke="#9DAFCC" stroke-width="0.6" stroke-miterlimit="10"/>
<path d="M143.573 111.563V116.533" stroke="#9DAFCC" stroke-width="0.6" stroke-miterlimit="10"/>
<path d="M192.19 111.563V116.533" stroke="#9DAFCC" stroke-width="0.6" stroke-miterlimit="10"/>
<path d="M197.012 111.563V116.533" stroke="#9DAFCC" stroke-width="0.6" stroke-miterlimit="10"/>
<path d="M201.834 111.563V116.533" stroke="#9DAFCC" stroke-width="0.6" stroke-miterlimit="10"/>
<path d="M206.656 111.563V116.533" stroke="#9DAFCC" stroke-width="0.6" stroke-miterlimit="10"/>
<path d="M211.478 111.563V116.533" stroke="#9DAFCC" stroke-width="0.6" stroke-miterlimit="10"/>
<path d="M216.301 111.563V116.533" stroke="#9DAFCC" stroke-width="0.6" stroke-miterlimit="10"/>
<path d="M221.123 111.563V116.533" stroke="#9DAFCC" stroke-width="0.6" stroke-miterlimit="10"/>
<path d="M225.945 111.563V116.533" stroke="#9DAFCC" stroke-width="0.6" stroke-miterlimit="10"/>
<path d="M230.767 111.563V116.533" stroke="#9DAFCC" stroke-width="0.6" stroke-miterlimit="10"/>
<path d="M235.589 111.563V116.533" stroke="#9DAFCC" stroke-width="0.6" stroke-miterlimit="10"/>
<path d="M240.411 111.563V116.533" stroke="#9DAFCC" stroke-width="0.6" stroke-miterlimit="10"/>
<path d="M245.234 111.563V116.533" stroke="#9DAFCC" stroke-width="0.6" stroke-miterlimit="10"/>
<path d="M250.056 111.563V116.533" stroke="#9DAFCC" stroke-width="0.6" stroke-miterlimit="10"/>
<path d="M254.878 111.563V116.533" stroke="#9DAFCC" stroke-width="0.6" stroke-miterlimit="10"/>
<path d="M66.4401 111.563V116.533" stroke="#9DAFCC" stroke-width="0.6" stroke-miterlimit="10"/>
<path d="M71.2623 111.563V116.533" stroke="#9DAFCC" stroke-width="0.6" stroke-miterlimit="10"/>
<path d="M76.0846 111.563V116.533" stroke="#9DAFCC" stroke-width="0.6" stroke-miterlimit="10"/>
<path d="M80.9066 111.563V116.533" stroke="#9DAFCC" stroke-width="0.6" stroke-miterlimit="10"/>
<path d="M85.7289 111.563V116.533" stroke="#9DAFCC" stroke-width="0.6" stroke-miterlimit="10"/>
<path d="M90.5511 111.563V116.533" stroke="#9DAFCC" stroke-width="0.6" stroke-miterlimit="10"/>
<path d="M95.3732 111.563V116.533" stroke="#9DAFCC" stroke-width="0.6" stroke-miterlimit="10"/>
<path d="M100.195 111.563V116.533" stroke="#9DAFCC" stroke-width="0.6" stroke-miterlimit="10"/>
<path d="M105.018 111.563V116.533" stroke="#9DAFCC" stroke-width="0.6" stroke-miterlimit="10"/>
<path d="M109.84 111.563V116.533" stroke="#9DAFCC" stroke-width="0.6" stroke-miterlimit="10"/>
<path d="M114.662 111.563V116.533" stroke="#9DAFCC" stroke-width="0.6" stroke-miterlimit="10"/>
<path d="M119.484 111.563V116.533" stroke="#9DAFCC" stroke-width="0.6" stroke-miterlimit="10"/>
<path d="M124.306 111.563V116.533" stroke="#9DAFCC" stroke-width="0.6" stroke-miterlimit="10"/>
<path d="M129.128 111.563V116.533" stroke="#9DAFCC" stroke-width="0.6" stroke-miterlimit="10"/>
<path d="M168.397 111.563H152.925V116.533H168.397V111.563Z" fill="#E4EBF5" stroke="#9DAFCC" stroke-width="0.6" stroke-miterlimit="10"/>
<path d="M188.032 121.073H133.291V133.986H188.032V121.073Z" fill="white" stroke="#9DAFCC" stroke-width="0.6" stroke-miterlimit="10"/>
<path d="M261.765 168.361H59.2158V177.439H261.765V168.361Z" fill="#F25451" stroke="#9DAFCC" stroke-width="0.6" stroke-miterlimit="10"/>
<path d="M129.128 161.756H66.0989V168.356H129.128V161.756Z" fill="white" stroke="#9DAFCC" stroke-width="0.6" stroke-miterlimit="10"/>
<path d="M84.4942 121.073H72.6722V161.756H84.4942V121.073Z" fill="white" stroke="#9DAFCC" stroke-width="0.6" stroke-miterlimit="10"/>
<path d="M81.6792 126.29H75.4875V138.489H81.6792V126.29Z" fill="#365DA0" stroke="#9DAFCC" stroke-width="0.6" stroke-miterlimit="10"/>
<path d="M75.4875 129.482H81.6792" stroke="#9DAFCC" stroke-width="0.6" stroke-miterlimit="10"/>
<path d="M78.5853 138.489V129.482" stroke="#9DAFCC" stroke-width="0.6" stroke-miterlimit="10"/>
<path d="M81.6792 149.561H75.4875V161.761H81.6792V149.561Z" fill="#365DA0" stroke="#9DAFCC" stroke-width="0.6" stroke-miterlimit="10"/>
<path d="M75.4875 152.749H81.6792" stroke="#9DAFCC" stroke-width="0.6" stroke-miterlimit="10"/>
<path d="M78.5853 161.756V152.749" stroke="#9DAFCC" stroke-width="0.6" stroke-miterlimit="10"/>
<path d="M78.5721 143.917C77.7504 143.917 76.9624 144.244 76.3814 144.825C75.8004 145.406 75.474 146.194 75.474 147.016H81.6656C81.6661 146.609 81.5866 146.206 81.4312 145.83C81.2763 145.454 81.0482 145.113 80.7613 144.825C80.474 144.538 80.1327 144.309 79.7569 144.153C79.3811 143.998 78.9788 143.917 78.5721 143.917Z" fill="#F25451" stroke="#9DAFCC" stroke-width="0.6" stroke-miterlimit="10"/>
<path d="M84.4942 161.756H72.6722V168.356H84.4942V161.756Z" fill="#F25451" stroke="#9DAFCC" stroke-width="0.6" stroke-miterlimit="10"/>
<path d="M75.4875 165.06H81.6792" stroke="white" stroke-width="0.6" stroke-miterlimit="10"/>
<path d="M103.527 121.073H91.705V161.756H103.527V121.073Z" fill="white" stroke="#9DAFCC" stroke-width="0.6" stroke-miterlimit="10"/>
<path d="M100.712 126.29H94.5201V138.489H100.712V126.29Z" fill="#365DA0" stroke="#9DAFCC" stroke-width="0.6" stroke-miterlimit="10"/>
<path d="M94.5201 129.482H100.712" stroke="#9DAFCC" stroke-width="0.6" stroke-miterlimit="10"/>
<path d="M97.6138 138.489V129.482" stroke="#9DAFCC" stroke-width="0.6" stroke-miterlimit="10"/>
<path d="M100.712 149.561H94.5201V161.761H100.712V149.561Z" fill="#365DA0" stroke="#9DAFCC" stroke-width="0.6" stroke-miterlimit="10"/>
<path d="M94.5201 152.749H100.712" stroke="#9DAFCC" stroke-width="0.6" stroke-miterlimit="10"/>
<path d="M97.6138 161.756V152.749" stroke="#9DAFCC" stroke-width="0.6" stroke-miterlimit="10"/>
<path d="M97.6137 143.917C97.2069 143.917 96.8046 143.998 96.4288 144.153C96.053 144.309 95.7118 144.538 95.4249 144.825C95.1375 145.113 94.9094 145.454 94.7545 145.83C94.5992 146.206 94.5197 146.609 94.5201 147.016H100.712C100.712 146.194 100.385 145.406 99.8043 144.825C99.2233 144.244 98.4354 143.917 97.6137 143.917Z" fill="#F25451" stroke="#9DAFCC" stroke-width="0.6" stroke-miterlimit="10"/>
<path d="M103.527 161.756H91.705V168.356H103.527V161.756Z" fill="#F25451" stroke="#9DAFCC" stroke-width="0.6" stroke-miterlimit="10"/>
<path d="M94.5201 165.06H100.712" stroke="white" stroke-width="0.6" stroke-miterlimit="10"/>
<path d="M122.555 121.073H110.733V161.756H122.555V121.073Z" fill="white" stroke="#9DAFCC" stroke-width="0.6" stroke-miterlimit="10"/>
<path d="M119.74 126.29H113.548V138.489H119.74V126.29Z" fill="#365DA0" stroke="#9DAFCC" stroke-width="0.6" stroke-miterlimit="10"/>
<path d="M113.548 129.482H119.74" stroke="#9DAFCC" stroke-width="0.6" stroke-miterlimit="10"/>
<path d="M116.646 138.489V129.482" stroke="#9DAFCC" stroke-width="0.6" stroke-miterlimit="10"/>
<path d="M119.74 149.561H113.548V161.761H119.74V149.561Z" fill="#365DA0" stroke="#9DAFCC" stroke-width="0.6" stroke-miterlimit="10"/>
<path d="M113.548 152.749H119.74" stroke="#9DAFCC" stroke-width="0.6" stroke-miterlimit="10"/>
<path d="M116.646 161.756V152.749" stroke="#9DAFCC" stroke-width="0.6" stroke-miterlimit="10"/>
<path d="M116.646 143.917C115.825 143.917 115.037 144.244 114.456 144.825C113.875 145.406 113.548 146.194 113.548 147.016H119.74C119.74 146.195 119.414 145.407 118.834 144.826C118.254 144.246 117.467 143.919 116.646 143.917Z" fill="#F25451" stroke="#9DAFCC" stroke-width="0.6" stroke-miterlimit="10"/>
<path d="M122.555 161.756H110.733V168.356H122.555V161.756Z" fill="#F25451" stroke="#9DAFCC" stroke-width="0.6" stroke-miterlimit="10"/>
<path d="M113.548 165.06H119.74" stroke="white" stroke-width="0.6" stroke-miterlimit="10"/>
<path d="M129.128 138.489H66.0989V141.417H129.128V138.489Z" fill="white" stroke="#9DAFCC" stroke-width="0.6" stroke-miterlimit="10"/>
<path d="M255.219 161.756H192.19V168.356H255.219V161.756Z" fill="white" stroke="#9DAFCC" stroke-width="0.6" stroke-miterlimit="10"/>
<path d="M210.589 121.073H198.767V161.756H210.589V121.073Z" fill="white" stroke="#9DAFCC" stroke-width="0.6" stroke-miterlimit="10"/>
<path d="M207.774 126.29H201.582V138.489H207.774V126.29Z" fill="#365DA0" stroke="#9DAFCC" stroke-width="0.6" stroke-miterlimit="10"/>
<path d="M201.582 129.482H207.774" stroke="#9DAFCC" stroke-width="0.6" stroke-miterlimit="10"/>
<path d="M204.676 138.489V129.482" stroke="#9DAFCC" stroke-width="0.6" stroke-miterlimit="10"/>
<path d="M207.774 149.561H201.582V161.761H207.774V149.561Z" fill="#365DA0" stroke="#9DAFCC" stroke-width="0.6" stroke-miterlimit="10"/>
<path d="M201.582 152.749H207.774" stroke="#9DAFCC" stroke-width="0.6" stroke-miterlimit="10"/>
<path d="M204.676 161.756V152.749" stroke="#9DAFCC" stroke-width="0.6" stroke-miterlimit="10"/>
<path d="M204.676 143.917C204.269 143.917 203.867 143.998 203.491 144.153C203.115 144.309 202.774 144.538 202.487 144.825C202.2 145.113 201.972 145.454 201.817 145.83C201.661 146.206 201.582 146.609 201.582 147.016H207.774C207.774 146.194 207.448 145.406 206.867 144.825C206.286 144.244 205.498 143.917 204.676 143.917Z" fill="#F25451" stroke="#9DAFCC" stroke-width="0.6" stroke-miterlimit="10"/>
<path d="M210.589 161.756H198.767V168.356H210.589V161.756Z" fill="#F25451" stroke="#9DAFCC" stroke-width="0.6" stroke-miterlimit="10"/>
<path d="M201.582 165.06H207.774" stroke="white" stroke-width="0.6" stroke-miterlimit="10"/>
<path d="M229.618 121.073H217.796V161.756H229.618V121.073Z" fill="white" stroke="#9DAFCC" stroke-width="0.6" stroke-miterlimit="10"/>
<path d="M226.802 126.29H220.611V138.489H226.802V126.29Z" fill="#365DA0" stroke="#9DAFCC" stroke-width="0.6" stroke-miterlimit="10"/>
<path d="M220.611 129.482H226.802" stroke="#9DAFCC" stroke-width="0.6" stroke-miterlimit="10"/>
<path d="M223.709 138.489V129.482" stroke="#9DAFCC" stroke-width="0.6" stroke-miterlimit="10"/>
<path d="M226.802 149.561H220.611V161.761H226.802V149.561Z" fill="#365DA0" stroke="#9DAFCC" stroke-width="0.6" stroke-miterlimit="10"/>
<path d="M220.611 152.749H226.802" stroke="#9DAFCC" stroke-width="0.6" stroke-miterlimit="10"/>
<path d="M223.709 161.756V152.749" stroke="#9DAFCC" stroke-width="0.6" stroke-miterlimit="10"/>
<path d="M223.709 143.917C222.887 143.917 222.099 144.244 221.518 144.825C220.937 145.406 220.611 146.194 220.611 147.016H226.802C226.802 146.195 226.476 145.407 225.897 144.826C225.317 144.246 224.53 143.919 223.709 143.917Z" fill="#F25451" stroke="#9DAFCC" stroke-width="0.6" stroke-miterlimit="10"/>
<path d="M229.618 161.756H217.796V168.356H229.618V161.756Z" fill="#F25451" stroke="#9DAFCC" stroke-width="0.6" stroke-miterlimit="10"/>
<path d="M220.611 165.06H226.802" stroke="white" stroke-width="0.6" stroke-miterlimit="10"/>
<path d="M248.646 121.073H236.824V161.756H248.646V121.073Z" fill="white" stroke="#9DAFCC" stroke-width="0.6" stroke-miterlimit="10"/>
<path d="M245.831 126.29H239.639V138.489H245.831V126.29Z" fill="#365DA0" stroke="#9DAFCC" stroke-width="0.6" stroke-miterlimit="10"/>
<path d="M239.639 129.482H245.831" stroke="#9DAFCC" stroke-width="0.6" stroke-miterlimit="10"/>
<path d="M242.737 138.489V129.482" stroke="#9DAFCC" stroke-width="0.6" stroke-miterlimit="10"/>
<path d="M245.831 149.561H239.639V161.761H245.831V149.561Z" fill="#365DA0" stroke="#9DAFCC" stroke-width="0.6" stroke-miterlimit="10"/>
<path d="M239.639 152.749H245.831" stroke="#9DAFCC" stroke-width="0.6" stroke-miterlimit="10"/>
<path d="M242.737 161.756V152.749" stroke="#9DAFCC" stroke-width="0.6" stroke-miterlimit="10"/>
<path d="M242.737 143.917C241.915 143.917 241.127 144.244 240.546 144.825C239.965 145.406 239.639 146.194 239.639 147.016H245.831C245.831 146.609 245.752 146.206 245.596 145.83C245.441 145.454 245.213 145.113 244.926 144.825C244.639 144.538 244.298 144.309 243.922 144.153C243.546 143.998 243.144 143.917 242.737 143.917Z" fill="#F25451" stroke="#9DAFCC" stroke-width="0.6" stroke-miterlimit="10"/>
<path d="M248.646 161.756H236.824V168.356H248.646V161.756Z" fill="#F25451" stroke="#9DAFCC" stroke-width="0.6" stroke-miterlimit="10"/>
<path d="M239.639 165.06H245.831" stroke="white" stroke-width="0.6" stroke-miterlimit="10"/>
<path d="M255.219 138.489H192.19V141.417H255.219V138.489Z" fill="white" stroke="#9DAFCC" stroke-width="0.6" stroke-miterlimit="10"/>
<path d="M188.032 161.756H133.291V168.356H188.032V161.756Z" fill="#F25451" stroke="#9DAFCC" stroke-width="0.6" stroke-miterlimit="10"/>
<path d="M157.563 165.06H163.755" stroke="white" stroke-width="0.6" stroke-miterlimit="10"/>
<path d="M177.382 165.06H183.573" stroke="white" stroke-width="0.6" stroke-miterlimit="10"/>
<path d="M137.623 165.06H143.815" stroke="white" stroke-width="0.6" stroke-miterlimit="10"/>
<path d="M183.937 142.009L180.511 139.041L177.081 142.009H164.056L160.63 139.041L157.204 142.009H144.179L140.749 139.041L137.323 142.009H133.259V161.756H188.001V142.009H183.937Z" fill="white" stroke="#9DAFCC" stroke-width="0.6" stroke-miterlimit="10"/>
<path d="M160.661 144.663C160.136 144.662 159.615 144.765 159.129 144.966C158.643 145.167 158.202 145.462 157.83 145.833C157.458 146.205 157.163 146.646 156.961 147.131C156.76 147.617 156.656 148.138 156.656 148.663V161.756H164.662V148.663C164.662 147.602 164.24 146.585 163.49 145.835C162.74 145.084 161.722 144.663 160.661 144.663Z" fill="#365DA0" stroke="#9DAFCC" stroke-width="0.6" stroke-miterlimit="10"/>
<path d="M156.656 149.561H164.662" stroke="#9DAFCC" stroke-width="0.6" stroke-miterlimit="10"/>
<path d="M160.63 161.756V149.561" stroke="#9DAFCC" stroke-width="0.6" stroke-miterlimit="10"/>
<path d="M180.22 144.663C179.159 144.663 178.141 145.084 177.391 145.835C176.641 146.585 176.219 147.602 176.219 148.663V161.756H184.225V148.663C184.223 147.602 183.801 146.584 183.05 145.834C182.299 145.084 181.281 144.663 180.22 144.663Z" fill="#365DA0" stroke="#9DAFCC" stroke-width="0.6" stroke-miterlimit="10"/>
<path d="M176.219 149.561H184.225" stroke="#9DAFCC" stroke-width="0.6" stroke-miterlimit="10"/>
<path d="M180.188 161.756V149.561" stroke="#9DAFCC" stroke-width="0.6" stroke-miterlimit="10"/>
<path d="M141.054 144.663C140.528 144.663 140.008 144.766 139.523 144.967C139.037 145.168 138.596 145.463 138.225 145.835C137.853 146.206 137.559 146.647 137.358 147.132C137.156 147.618 137.053 148.138 137.053 148.663V161.756H145.059V148.663C145.059 148.138 144.955 147.617 144.754 147.131C144.552 146.646 144.257 146.205 143.886 145.833C143.513 145.462 143.072 145.167 142.586 144.966C142.1 144.765 141.58 144.662 141.054 144.663Z" fill="#365DA0" stroke="#9DAFCC" stroke-width="0.6" stroke-miterlimit="10"/>
<path d="M137.053 149.561H145.059" stroke="#9DAFCC" stroke-width="0.6" stroke-miterlimit="10"/>
<path d="M141.022 161.756V149.561" stroke="#9DAFCC" stroke-width="0.6" stroke-miterlimit="10"/>
<path d="M133.291 110.252H129.128V168.356H133.291V110.252Z" fill="white" stroke="#9DAFCC" stroke-width="0.6" stroke-miterlimit="10"/>
<path d="M66.0991 110.252H61.9369V168.356H66.0991V110.252Z" fill="white" stroke="#9DAFCC" stroke-width="0.6" stroke-miterlimit="10"/>
<path d="M259.04 110.252H254.878V168.356H259.04V110.252Z" fill="white" stroke="#9DAFCC" stroke-width="0.6" stroke-miterlimit="10"/>
<path d="M152.925 110.252H148.763V168.356H152.925V110.252Z" fill="white" stroke="#9DAFCC" stroke-width="0.6" stroke-miterlimit="10"/>
<path d="M172.56 110.252H168.398V168.356H172.56V110.252Z" fill="white" stroke="#9DAFCC" stroke-width="0.6" stroke-miterlimit="10"/>
<path d="M192.194 110.252H188.032V168.356H192.194V110.252Z" fill="white" stroke="#9DAFCC" stroke-width="0.6" stroke-miterlimit="10"/>
<path d="M259.04 121.073H61.9369L55.871 116.534H265.106L259.04 121.073Z" fill="white" stroke="#9DAFCC" stroke-width="0.6" stroke-linejoin="round"/>
<path d="M160.661 133.447C164.078 133.447 166.848 130.677 166.848 127.26C166.848 123.843 164.078 121.073 160.661 121.073C157.244 121.073 154.474 123.843 154.474 127.26C154.474 130.677 157.244 133.447 160.661 133.447Z" fill="white" stroke="#9DAFCC" stroke-width="0.6" stroke-miterlimit="10"/>
<path d="M160.661 121.073V133.443" stroke="#9DAFCC" stroke-width="0.6" stroke-miterlimit="10"/>
<path d="M154.474 127.26H166.835" stroke="#9DAFCC" stroke-width="0.6" stroke-miterlimit="10"/>
<path d="M160.661 129.482C161.889 129.482 162.884 128.487 162.884 127.26C162.884 126.032 161.889 125.037 160.661 125.037C159.434 125.037 158.439 126.032 158.439 127.26C158.439 128.487 159.434 129.482 160.661 129.482Z" fill="#E4EBF5" stroke="#9DAFCC" stroke-width="0.6" stroke-miterlimit="10"/>
<path d="M141.022 133.447C144.439 133.447 147.209 130.677 147.209 127.26C147.209 123.843 144.439 121.073 141.022 121.073C137.605 121.073 134.835 123.843 134.835 127.26C134.835 130.677 137.605 133.447 141.022 133.447Z" fill="white" stroke="#9DAFCC" stroke-width="0.6" stroke-miterlimit="10"/>
<path d="M141.022 121.073V133.443" stroke="#9DAFCC" stroke-width="0.6" stroke-miterlimit="10"/>
<path d="M134.84 127.26H147.2" stroke="#9DAFCC" stroke-width="0.6" stroke-miterlimit="10"/>
<path d="M141.022 129.482C142.25 129.482 143.245 128.487 143.245 127.26C143.245 126.032 142.25 125.037 141.022 125.037C139.795 125.037 138.8 126.032 138.8 127.26C138.8 128.487 139.795 129.482 141.022 129.482Z" fill="#E4EBF5" stroke="#9DAFCC" stroke-width="0.6" stroke-miterlimit="10"/>
<path d="M180.296 133.447C183.713 133.447 186.483 130.677 186.483 127.26C186.483 123.843 183.713 121.073 180.296 121.073C176.879 121.073 174.109 123.843 174.109 127.26C174.109 130.677 176.879 133.447 180.296 133.447Z" fill="white" stroke="#9DAFCC" stroke-width="0.6" stroke-miterlimit="10"/>
<path d="M180.296 121.073V133.443" stroke="#9DAFCC" stroke-width="0.6" stroke-miterlimit="10"/>
<path d="M174.109 127.26H186.47" stroke="#9DAFCC" stroke-width="0.6" stroke-miterlimit="10"/>
<path d="M180.296 129.482C181.523 129.482 182.518 128.487 182.518 127.26C182.518 126.032 181.523 125.037 180.296 125.037C179.068 125.037 178.073 126.032 178.073 127.26C178.073 128.487 179.068 129.482 180.296 129.482Z" fill="#E4EBF5" stroke="#9DAFCC" stroke-width="0.6" stroke-miterlimit="10"/>
<path d="M64.0202 107.854C64.836 107.854 65.4973 107.193 65.4973 106.377C65.4973 105.561 64.836 104.9 64.0202 104.9C63.2043 104.9 62.543 105.561 62.543 106.377C62.543 107.193 63.2043 107.854 64.0202 107.854Z" fill="white" stroke="#9DAFCC" stroke-width="0.6" stroke-miterlimit="10"/>
<path d="M131.212 107.854C132.028 107.854 132.689 107.193 132.689 106.377C132.689 105.561 132.028 104.9 131.212 104.9C130.396 104.9 129.735 105.561 129.735 106.377C129.735 107.193 130.396 107.854 131.212 107.854Z" fill="white" stroke="#9DAFCC" stroke-width="0.6" stroke-miterlimit="10"/>
<path d="M150.842 107.854C151.658 107.854 152.319 107.193 152.319 106.377C152.319 105.561 151.658 104.9 150.842 104.9C150.026 104.9 149.365 105.561 149.365 106.377C149.365 107.193 150.026 107.854 150.842 107.854Z" fill="white" stroke="#9DAFCC" stroke-width="0.6" stroke-miterlimit="10"/>
<path d="M170.476 107.854C171.292 107.854 171.953 107.193 171.953 106.377C171.953 105.561 171.292 104.9 170.476 104.9C169.66 104.9 168.999 105.561 168.999 106.377C168.999 107.193 169.66 107.854 170.476 107.854Z" fill="white" stroke="#9DAFCC" stroke-width="0.6" stroke-miterlimit="10"/>
<path d="M190.111 107.854C190.927 107.854 191.588 107.193 191.588 106.377C191.588 105.561 190.927 104.9 190.111 104.9C189.295 104.9 188.634 105.561 188.634 106.377C188.634 107.193 189.295 107.854 190.111 107.854Z" fill="white" stroke="#9DAFCC" stroke-width="0.6" stroke-miterlimit="10"/>
<path d="M256.961 107.854C257.777 107.854 258.438 107.193 258.438 106.377C258.438 105.561 257.777 104.9 256.961 104.9C256.145 104.9 255.484 105.561 255.484 106.377C255.484 107.193 256.145 107.854 256.961 107.854Z" fill="white" stroke="#9DAFCC" stroke-width="0.6" stroke-miterlimit="10"/>
<path d="M172.56 111.563V116.533" stroke="#9DAFCC" stroke-width="0.6" stroke-miterlimit="10"/>
<path d="M133.259 111.563V116.533" stroke="#9DAFCC" stroke-width="0.6" stroke-miterlimit="10"/>
<path d="M188.032 111.563V116.533" stroke="#9DAFCC" stroke-width="0.6" stroke-miterlimit="10"/>
<path d="M61.9369 124.602H66.0991" stroke="#9DAFCC" stroke-width="0.6" stroke-linejoin="round"/>
<path d="M254.878 124.553H259.04" stroke="#9DAFCC" stroke-width="0.6" stroke-linejoin="round"/>
<path d="M46.0784 139.953H12.4039V177.439H46.0784V139.953Z" fill="#E4EBF5" stroke="#9DAFCC" stroke-width="0.6" stroke-linecap="round" stroke-linejoin="round"/>
<path d="M46.0784 139.953H12.4039V147.016H46.0784V139.953Z" fill="#F25451" stroke="#9DAFCC" stroke-width="0.6" stroke-linecap="round" stroke-linejoin="round"/>
<path d="M103.154 124.602L104.775 150.401L116.355 177.439H29.6542L41.2337 150.401L42.8546 124.602H103.154Z" fill="#E4EBF5" stroke="#9DAFCC" stroke-width="0.6" stroke-linecap="round" stroke-linejoin="round"/>
<path d="M53.5539 128.369H49.1538V136.841H53.5539V128.369Z" fill="#365DA0" stroke="#9DAFCC" stroke-width="0.6" stroke-linecap="round" stroke-linejoin="round"/>
<path d="M67.9892 128.369H63.5891V136.841H67.9892V128.369Z" fill="#365DA0" stroke="#9DAFCC" stroke-width="0.6" stroke-linecap="round" stroke-linejoin="round"/>
<path d="M82.4198 128.369H78.0197V136.841H82.4198V128.369Z" fill="#365DA0" stroke="#9DAFCC" stroke-width="0.6" stroke-linecap="round" stroke-linejoin="round"/>
<path d="M96.8548 128.369H92.4547V136.841H96.8548V128.369Z" fill="#365DA0" stroke="#9DAFCC" stroke-width="0.6" stroke-linecap="round" stroke-linejoin="round"/>
<path d="M109.427 124.602L100.393 120.022L78.0197 85.0546H67.9892L45.6159 120.022L36.5822 124.602H109.427Z" fill="#F25451" stroke="#9DAFCC" stroke-width="0.6" stroke-linecap="round" stroke-linejoin="round"/>
<path d="M78.0196 78.9932H67.9891V85.0546H78.0196V78.9932Z" fill="white" stroke="#9DAFCC" stroke-width="0.6" stroke-linecap="round" stroke-linejoin="round"/>
<path d="M74.8004 78.9932H71.2219V85.0546H74.8004V78.9932Z" stroke="#9DAFCC" stroke-width="0.6" stroke-linecap="round" stroke-linejoin="round"/>
<path d="M73.0044 63L66.6107 78.9931H79.398L73.0044 63Z" fill="#F25451" stroke="#9DAFCC" stroke-width="0.6" stroke-linecap="round" stroke-linejoin="round"/>
<path d="M83.2324 151.021H76.3179C74.8448 151.021 73.6509 152.215 73.6509 153.688V153.692C73.6509 155.165 74.8448 156.359 76.3179 156.359H83.2324C84.7055 156.359 85.8994 155.165 85.8994 153.692V153.688C85.8994 152.215 84.7055 151.021 83.2324 151.021Z" fill="#E4EBF5" stroke="#9DAFCC" stroke-width="0.6" stroke-miterlimit="10"/>
<path d="M55.6598 165.689H48.7453C47.2721 165.689 46.0782 166.883 46.0782 168.356V168.361C46.0782 169.834 47.2721 171.028 48.7453 171.028H55.6598C57.1329 171.028 58.3268 169.834 58.3268 168.361V168.356C58.3268 166.883 57.1329 165.689 55.6598 165.689Z" fill="#E4EBF5" stroke="#9DAFCC" stroke-width="0.6" stroke-miterlimit="10"/>
<path d="M60.9355 146.89H54.021C52.5479 146.89 51.354 148.084 51.354 149.557V149.561C51.354 151.035 52.5479 152.228 54.021 152.228H60.9355C62.4087 152.228 63.6025 151.035 63.6025 149.561V149.557C63.6025 148.084 62.4087 146.89 60.9355 146.89Z" fill="#E4EBF5" stroke="#9DAFCC" stroke-width="0.6" stroke-miterlimit="10"/>
<path d="M102.036 167.561H95.1217C93.6486 167.561 92.4547 168.755 92.4547 170.228V170.233C92.4547 171.706 93.6486 172.9 95.1217 172.9H102.036C103.509 172.9 104.703 171.706 104.703 170.233V170.228C104.703 168.755 103.509 167.561 102.036 167.561Z" fill="#E4EBF5" stroke="#9DAFCC" stroke-width="0.6" stroke-miterlimit="10"/>
<path d="M94.1879 157.253H91.1977C89.7245 157.253 88.5306 158.446 88.5306 159.92V159.924C88.5306 161.397 89.7245 162.591 91.1977 162.591H94.1879C95.6611 162.591 96.855 161.397 96.855 159.924V159.92C96.855 158.446 95.6611 157.253 94.1879 157.253Z" fill="#E4EBF5" stroke="#9DAFCC" stroke-width="0.6" stroke-miterlimit="10"/>
<path d="M72.2501 162.389H69.2598C67.7866 162.389 66.5928 163.583 66.5928 165.056V165.061C66.5928 166.534 67.7866 167.728 69.2598 167.728H72.2501C73.7232 167.728 74.9171 166.534 74.9171 165.061V165.056C74.9171 163.583 73.7232 162.389 72.2501 162.389Z" fill="#E4EBF5" stroke="#9DAFCC" stroke-width="0.6" stroke-miterlimit="10"/>
<path d="M96.15 143.976H93.1597C91.6865 143.976 90.4927 145.17 90.4927 146.643V146.647C90.4927 148.121 91.6865 149.314 93.1597 149.314H96.15C97.6231 149.314 98.817 148.121 98.817 146.647V146.643C98.817 145.17 97.6231 143.976 96.15 143.976Z" fill="#E4EBF5" stroke="#9DAFCC" stroke-width="0.6" stroke-miterlimit="10"/>
<path d="M27.8808 161.365H20.9663C19.4933 161.365 18.2993 162.56 18.2993 164.032V164.037C18.2993 165.51 19.4933 166.704 20.9663 166.704H27.8808C29.3537 166.704 30.5478 165.51 30.5478 164.037V164.032C30.5478 162.56 29.3537 161.365 27.8808 161.365Z" fill="#E4EBF5" stroke="#9DAFCC" stroke-width="0.6" stroke-miterlimit="10"/>
<path d="M21.7564 151.021H18.7661C17.2932 151.021 16.0991 152.215 16.0991 153.688V153.692C16.0991 155.165 17.2932 156.359 18.7661 156.359H21.7564C23.2294 156.359 24.4234 155.165 24.4234 153.692V153.688C24.4234 152.215 23.2294 151.021 21.7564 151.021Z" fill="#E4EBF5" stroke="#9DAFCC" stroke-width="0.6" stroke-miterlimit="10"/>
</g>
</g>
<defs>
<filter id="filter0_dd_202_265" x="-10.9112" y="-11.9112" width="296.822" height="263.822" filterUnits="userSpaceOnUse" color-interpolation-filters="sRGB">
<feFlood flood-opacity="0" result="BackgroundImageFix"/>
<feColorMatrix in="SourceAlpha" type="matrix" values="0 0 0 0 0 0 0 0 0 0 0 0 0 0 0 0 0 0 127 0" result="hardAlpha"/>
<feOffset/>
<feGaussianBlur stdDeviation="5.95559"/>
<feComposite in2="hardAlpha" operator="out"/>
<feColorMatrix type="matrix" values="0 0 0 0 0.568627 0 0 0 0 0.741176 0 0 0 0 0.866667 0 0 0 1 0"/>
<feBlend mode="normal" in2="BackgroundImageFix" result="effect1_dropShadow_202_265"/>
<feColorMatrix in="SourceAlpha" type="matrix" values="0 0 0 0 0 0 0 0 0 0 0 0 0 0 0 0 0 0 127 0" result="hardAlpha"/>
<feOffset dy="2.38223"/>
<feGaussianBlur stdDeviation="2.97779"/>
<feComposite in2="hardAlpha" operator="out"/>
<feColorMatrix type="matrix" values="0 0 0 0 0 0 0 0 0 0 0 0 0 0 0 0 0 0 0.1 0"/>
<feBlend mode="normal" in2="effect1_dropShadow_202_265" result="effect2_dropShadow_202_265"/>
<feBlend mode="normal" in="SourceGraphic" in2="effect2_dropShadow_202_265" result="shape"/>
</filter>
<filter id="filter1_dd_202_265" x="0.192771" y="50.7888" width="277.125" height="138.862" filterUnits="userSpaceOnUse" color-interpolation-filters="sRGB">
<feFlood flood-opacity="0" result="BackgroundImageFix"/>
<feColorMatrix in="SourceAlpha" type="matrix" values="0 0 0 0 0 0 0 0 0 0 0 0 0 0 0 0 0 0 127 0" result="hardAlpha"/>
<feOffset/>
<feGaussianBlur stdDeviation="5.95559"/>
<feComposite in2="hardAlpha" operator="out"/>
<feColorMatrix type="matrix" values="0 0 0 0 0.568627 0 0 0 0 0.741176 0 0 0 0 0.866667 0 0 0 1 0"/>
<feBlend mode="normal" in2="BackgroundImageFix" result="effect1_dropShadow_202_265"/>
<feColorMatrix in="SourceAlpha" type="matrix" values="0 0 0 0 0 0 0 0 0 0 0 0 0 0 0 0 0 0 127 0" result="hardAlpha"/>
<feOffset dy="2.38223"/>
<feGaussianBlur stdDeviation="2.97779"/>
<feComposite in2="hardAlpha" operator="out"/>
<feColorMatrix type="matrix" values="0 0 0 0 0 0 0 0 0 0 0 0 0 0 0 0 0 0 0.1 0"/>
<feBlend mode="normal" in2="effect1_dropShadow_202_265" result="effect2_dropShadow_202_265"/>
<feBlend mode="normal" in="SourceGraphic" in2="effect2_dropShadow_202_265" result="shape"/>
</filter>
</defs>
</svg>
