<svg width="273" height="240" viewBox="0 0 273 240" fill="none" xmlns="http://www.w3.org/2000/svg">
<g filter="url(#filter0_dd_202_5127)">
<g filter="url(#filter1_dd_202_5127)">
<path d="M151.263 114.401H53.7332V130.102H151.263V114.401Z" fill="white" stroke="#9DAFCC" stroke-width="0.6" stroke-miterlimit="10"/>
<path d="M56.709 121.008V115.186" stroke="#9DAFCC" stroke-width="0.6" stroke-miterlimit="10" stroke-linecap="round"/>
<path d="M62.3723 121.008V115.186" stroke="#9DAFCC" stroke-width="0.6" stroke-miterlimit="10" stroke-linecap="round"/>
<path d="M65.2019 121.008V115.186" stroke="#9DAFCC" stroke-width="0.6" stroke-miterlimit="10" stroke-linecap="round"/>
<path d="M68.0361 121.008V115.186" stroke="#9DAFCC" stroke-width="0.6" stroke-miterlimit="10" stroke-linecap="round"/>
<path d="M70.8657 121.008V115.186" stroke="#9DAFCC" stroke-width="0.6" stroke-miterlimit="10" stroke-linecap="round"/>
<path d="M73.6956 121.008V115.186" stroke="#9DAFCC" stroke-width="0.6" stroke-miterlimit="10"/>
<path d="M76.5293 121.008V115.186" stroke="#9DAFCC" stroke-width="0.6" stroke-miterlimit="10"/>
<path d="M79.3589 121.008V115.186" stroke="#9DAFCC" stroke-width="0.6" stroke-miterlimit="10"/>
<path d="M59.5381 121.008V115.186" stroke="#9DAFCC" stroke-width="0.6" stroke-miterlimit="10" stroke-linecap="round"/>
<path d="M125.693 121.008V115.186" stroke="#9DAFCC" stroke-width="0.6" stroke-miterlimit="10"/>
<path d="M128.522 121.008V115.186" stroke="#9DAFCC" stroke-width="0.6" stroke-miterlimit="10"/>
<path d="M131.357 121.008V115.186" stroke="#9DAFCC" stroke-width="0.6" stroke-miterlimit="10"/>
<path d="M134.186 121.008V115.186" stroke="#9DAFCC" stroke-width="0.6" stroke-miterlimit="10" stroke-linecap="round"/>
<path d="M137.016 121.008V115.186" stroke="#9DAFCC" stroke-width="0.6" stroke-miterlimit="10" stroke-linecap="round"/>
<path d="M139.85 121.008V115.186" stroke="#9DAFCC" stroke-width="0.6" stroke-miterlimit="10" stroke-linecap="round"/>
<path d="M142.679 121.008V115.186" stroke="#9DAFCC" stroke-width="0.6" stroke-miterlimit="10" stroke-linecap="round"/>
<path d="M145.513 121.008V115.186" stroke="#9DAFCC" stroke-width="0.6" stroke-miterlimit="10" stroke-linecap="round"/>
<path d="M148.343 121.008V115.186" stroke="#9DAFCC" stroke-width="0.6" stroke-miterlimit="10" stroke-linecap="round"/>
<path d="M188.567 194.605H16.4285V198.722H188.567V194.605Z" fill="#365DA0" stroke="#9DAFCC" stroke-width="0.6" stroke-miterlimit="10"/>
<path d="M185.759 190.486H19.2412V194.602H185.759V190.486Z" fill="#365DA0" stroke="#9DAFCC" stroke-width="0.6" stroke-miterlimit="10"/>
<path d="M186.522 144.559H18.4695V147.916H186.522V144.559Z" fill="#9DAFCC"/>
<path d="M185.759 146.236H19.2412V151.591H185.759V146.236Z" fill="#E4EBF5" stroke="#9DAFCC" stroke-width="0.6" stroke-miterlimit="10"/>
<path d="M156.524 130.102H48.4727V141.202H156.524V130.102Z" fill="#E4EBF5" stroke="#9DAFCC" stroke-width="0.6" stroke-miterlimit="10"/>
<path d="M154.05 151.59H50.9421V190.486H154.05V151.59Z" fill="#E4EBF5" stroke="#9DAFCC" stroke-width="0.6" stroke-miterlimit="10"/>
<path d="M138.028 171.359H66.9727V176.131H138.028V171.359Z" fill="white" stroke="#9DAFCC" stroke-width="0.6" stroke-miterlimit="10"/>
<path d="M123.815 176.131H81.1812V190.486H123.815V176.131Z" fill="#365DA0"/>
<path d="M190.398 141.202H14.7737V144.559H190.398V141.202Z" fill="#E4EBF5" stroke="#9DAFCC" stroke-width="0.6" stroke-miterlimit="10"/>
<path d="M26.1565 187.124V156.032H22.5251V187.124H26.1565Z" fill="white" stroke="#9DAFCC" stroke-width="0.6" stroke-miterlimit="10"/>
<path d="M27.7431 156.032V151.59H20.9304V156.032H27.7431Z" fill="white" stroke="#9DAFCC" stroke-width="0.6" stroke-miterlimit="10"/>
<path d="M27.7472 190.486V187.12H20.9346V190.486H27.7472Z" fill="white" stroke="#9DAFCC" stroke-width="0.6" stroke-miterlimit="10"/>
<path d="M40.365 187.128V156.036H36.7336V187.128H40.365Z" fill="white" stroke="#9DAFCC" stroke-width="0.6" stroke-miterlimit="10"/>
<path d="M41.9557 156.032V151.59H35.1431V156.032H41.9557Z" fill="white" stroke="#9DAFCC" stroke-width="0.6" stroke-miterlimit="10"/>
<path d="M41.9557 190.49V187.124H35.1431V190.49H41.9557Z" fill="white" stroke="#9DAFCC" stroke-width="0.6" stroke-miterlimit="10"/>
<path d="M54.5777 187.124V156.032H50.9463V187.124H54.5777Z" fill="white" stroke="#9DAFCC" stroke-width="0.6" stroke-miterlimit="10"/>
<path d="M56.1644 156.032V151.59H49.3516V156.032H56.1644Z" fill="white" stroke="#9DAFCC" stroke-width="0.6" stroke-miterlimit="10"/>
<path d="M56.1683 190.49V187.124H49.3557V190.49H56.1683Z" fill="white" stroke="#9DAFCC" stroke-width="0.6" stroke-miterlimit="10"/>
<path d="M68.7906 187.124V156.032H65.1594V187.124H68.7906Z" fill="white" stroke="#9DAFCC" stroke-width="0.6" stroke-miterlimit="10"/>
<path d="M70.3769 156.036V151.595H63.5642V156.036H70.3769Z" fill="white" stroke="#9DAFCC" stroke-width="0.6" stroke-miterlimit="10"/>
<path d="M70.3811 190.486V187.12H63.5684V190.486H70.3811Z" fill="white" stroke="#9DAFCC" stroke-width="0.6" stroke-miterlimit="10"/>
<path d="M82.9991 187.124V156.032H79.3674V187.124H82.9991Z" fill="white" stroke="#9DAFCC" stroke-width="0.6" stroke-miterlimit="10"/>
<path d="M84.5852 156.032V151.59H77.7725V156.032H84.5852Z" fill="white" stroke="#9DAFCC" stroke-width="0.6" stroke-miterlimit="10"/>
<path d="M84.5896 190.49V187.124H77.7769V190.49H84.5896Z" fill="white" stroke="#9DAFCC" stroke-width="0.6" stroke-miterlimit="10"/>
<path d="M97.2118 187.124V156.032H93.5801V187.124H97.2118Z" fill="white" stroke="#9DAFCC" stroke-width="0.6" stroke-miterlimit="10"/>
<path d="M98.7978 156.036V151.595H91.9851V156.036H98.7978Z" fill="white" stroke="#9DAFCC" stroke-width="0.6" stroke-miterlimit="10"/>
<path d="M98.8022 190.486V187.12H91.9895V190.486H98.8022Z" fill="white" stroke="#9DAFCC" stroke-width="0.6" stroke-miterlimit="10"/>
<path d="M111.42 187.128V156.036H107.789V187.128H111.42Z" fill="white" stroke="#9DAFCC" stroke-width="0.6" stroke-miterlimit="10"/>
<path d="M113.011 156.032V151.59H106.198V156.032H113.011Z" fill="white" stroke="#9DAFCC" stroke-width="0.6" stroke-miterlimit="10"/>
<path d="M113.011 190.49V187.124H106.198V190.49H113.011Z" fill="white" stroke="#9DAFCC" stroke-width="0.6" stroke-miterlimit="10"/>
<path d="M125.633 187.124V156.032H122.001V187.124H125.633Z" fill="white" stroke="#9DAFCC" stroke-width="0.6" stroke-miterlimit="10"/>
<path d="M127.219 156.032V151.59H120.406V156.032H127.219Z" fill="white" stroke="#9DAFCC" stroke-width="0.6" stroke-miterlimit="10"/>
<path d="M127.224 190.49V187.124H120.411V190.49H127.224Z" fill="white" stroke="#9DAFCC" stroke-width="0.6" stroke-miterlimit="10"/>
<path d="M139.841 187.124V156.032H136.21V187.124H139.841Z" fill="white" stroke="#9DAFCC" stroke-width="0.6" stroke-miterlimit="10"/>
<path d="M141.432 156.036V151.595H134.619V156.036H141.432Z" fill="white" stroke="#9DAFCC" stroke-width="0.6" stroke-miterlimit="10"/>
<path d="M141.436 190.49V187.124H134.624V190.49H141.436Z" fill="white" stroke="#9DAFCC" stroke-width="0.6" stroke-miterlimit="10"/>
<path d="M154.054 187.124V156.032H150.423V187.124H154.054Z" fill="white" stroke="#9DAFCC" stroke-width="0.6" stroke-miterlimit="10"/>
<path d="M155.64 156.032V151.59H148.828V156.032H155.64Z" fill="white" stroke="#9DAFCC" stroke-width="0.6" stroke-miterlimit="10"/>
<path d="M155.645 190.49V187.124H148.832V190.49H155.645Z" fill="white" stroke="#9DAFCC" stroke-width="0.6" stroke-miterlimit="10"/>
<path d="M168.266 187.124V156.032H164.635V187.124H168.266Z" fill="white" stroke="#9DAFCC" stroke-width="0.6" stroke-miterlimit="10"/>
<path d="M169.853 156.036V151.595H163.04V156.036H169.853Z" fill="white" stroke="#9DAFCC" stroke-width="0.6" stroke-miterlimit="10"/>
<path d="M169.857 190.486V187.12H163.045V190.486H169.857Z" fill="white" stroke="#9DAFCC" stroke-width="0.6" stroke-miterlimit="10"/>
<path d="M182.475 187.128V156.036H178.844V187.128H182.475Z" fill="white" stroke="#9DAFCC" stroke-width="0.6" stroke-miterlimit="10"/>
<path d="M184.065 156.032V151.59H177.253V156.032H184.065Z" fill="white" stroke="#9DAFCC" stroke-width="0.6" stroke-miterlimit="10"/>
<path d="M184.065 190.49V187.124H177.253V190.49H184.065Z" fill="white" stroke="#9DAFCC" stroke-width="0.6" stroke-miterlimit="10"/>
<path d="M120.706 114.401H84.2895C74.3556 117.566 66.7544 123.238 63.5688 130.102H141.428C138.242 123.221 130.64 117.566 120.706 114.401Z" fill="#F25451" stroke="#9DAFCC" stroke-width="0.6" stroke-linejoin="round"/>
<path d="M120.556 106.273H84.4395V114.401H120.556V106.273Z" fill="#F25451"/>
<path d="M102.498 106.273V96.3774" stroke="#9DAFCC" stroke-width="0.6" stroke-miterlimit="10"/>
<path d="M53.7331 130.106V126.398H46.9204V130.106H53.7331Z" fill="#365DA0" stroke="#9DAFCC" stroke-width="0.6" stroke-miterlimit="10"/>
<path d="M48.4724 141.207H52.181V130.106H48.4724V141.207Z" fill="white" stroke="#9DAFCC" stroke-width="0.6" stroke-miterlimit="10"/>
<path d="M65.1377 130.106V126.398H58.325V130.106H65.1377Z" fill="#365DA0" stroke="#9DAFCC" stroke-width="0.6" stroke-miterlimit="10"/>
<path d="M59.8728 141.207H63.5813V130.106H59.8728V141.207Z" fill="white" stroke="#9DAFCC" stroke-width="0.6" stroke-miterlimit="10"/>
<path d="M146.676 130.102V126.393H139.863V130.102H146.676Z" fill="#365DA0" stroke="#9DAFCC" stroke-width="0.6" stroke-miterlimit="10"/>
<path d="M141.415 141.207H145.123V130.106H141.415V141.207Z" fill="white" stroke="#9DAFCC" stroke-width="0.6" stroke-miterlimit="10"/>
<path d="M158.08 130.102V126.393H151.267V130.102H158.08Z" fill="#365DA0" stroke="#9DAFCC" stroke-width="0.6" stroke-miterlimit="10"/>
<path d="M152.815 141.207H156.523V130.106H152.815V141.207Z" fill="white" stroke="#9DAFCC" stroke-width="0.6" stroke-miterlimit="10"/>
<path d="M27.7431 141.207V138.677H20.9304V141.207H27.7431Z" fill="#9DAFCC"/>
<path d="M41.9557 141.207V138.677H35.1431V141.207H41.9557Z" fill="#9DAFCC"/>
<path d="M56.1683 141.207V138.677H49.3557V141.207H56.1683Z" fill="#9DAFCC"/>
<path d="M70.3769 141.207V138.677H63.5642V141.207H70.3769Z" fill="#9DAFCC"/>
<path d="M84.5896 141.202V138.673H77.7769V141.202H84.5896Z" fill="#9DAFCC"/>
<path d="M98.7978 141.207V138.677H91.9851V141.207H98.7978Z" fill="#9DAFCC"/>
<path d="M113.011 141.207V138.677H106.198V141.207H113.011Z" fill="#9DAFCC"/>
<path d="M127.224 141.207V138.677H120.411V141.207H127.224Z" fill="#9DAFCC"/>
<path d="M141.432 141.207V138.677H134.619V141.207H141.432Z" fill="#9DAFCC"/>
<path d="M155.687 141.249V138.719H148.875V141.249H155.687Z" fill="#9DAFCC"/>
<path d="M169.853 141.207V138.677H163.04V141.207H169.853Z" fill="#9DAFCC"/>
<path d="M184.065 141.202V138.673H177.253V141.202H184.065Z" fill="#9DAFCC"/>
<path d="M63.5813 133.502H141.415" stroke="#9DAFCC" stroke-width="0.6" stroke-miterlimit="10"/>
<path d="M236.762 94.0883C238.807 84.3259 235.956 80.347 230.472 74.7948C224.989 69.2427 222.961 65.5769 221.207 59.2874C219.45 65.5769 217.473 69.1826 211.942 74.7948C206.411 80.4071 203.672 84.3385 205.713 94.0883H236.762Z" fill="#F25451" stroke="#9DAFCC" stroke-width="0.6" stroke-linejoin="round"/>
<path d="M236.745 94.0884H205.726V118.599H236.745V94.0884Z" fill="white" stroke="#9DAFCC" stroke-width="0.6" stroke-miterlimit="10"/>
<path d="M224.873 98.1902H217.598V115.186H224.873V98.1902Z" fill="white" stroke="#9DAFCC" stroke-width="0.6" stroke-miterlimit="10"/>
<path d="M250.357 136.048H192.113V191.326H250.357V136.048Z" fill="white" stroke="#9DAFCC" stroke-width="0.6" stroke-miterlimit="10"/>
<path d="M250.357 118.599H192.114L188.585 136.048H253.886L250.357 118.599Z" fill="#F25451" stroke="#9DAFCC" stroke-width="0.6" stroke-miterlimit="10"/>
<path d="M233.769 122.963C229.722 118.329 221.233 112.648 221.233 112.648C221.233 112.648 212.748 118.329 208.705 122.963C204.662 127.598 202.24 134.192 200.019 136.049V191.322H242.464V136.049C240.235 134.192 237.817 127.598 233.769 122.963Z" fill="#E4EBF5" stroke="#9DAFCC" stroke-width="0.6" stroke-miterlimit="10"/>
<path d="M221.233 134.651C218.659 134.651 216.19 135.674 214.369 137.494C212.549 139.314 211.526 141.783 211.526 144.358V191.322H230.944V144.358C230.944 143.083 230.692 141.82 230.205 140.642C229.717 139.464 229.001 138.394 228.099 137.493C227.198 136.591 226.127 135.876 224.949 135.389C223.771 134.901 222.508 134.65 221.233 134.651Z" fill="white" stroke="#9DAFCC" stroke-width="0.6" stroke-miterlimit="10"/>
<path d="M221.233 159.449C219.73 159.449 218.288 160.046 217.225 161.109C216.162 162.172 215.565 163.614 215.565 165.117V191.322H226.905V165.117C226.905 164.373 226.759 163.635 226.474 162.947C226.189 162.259 225.77 161.634 225.243 161.108C224.717 160.581 224.092 160.164 223.404 159.879C222.715 159.595 221.978 159.448 221.233 159.449Z" fill="#F25451" stroke="#9DAFCC" stroke-width="0.6" stroke-miterlimit="10"/>
<path d="M221.233 139.487C220.489 139.487 219.752 139.634 219.064 139.918C218.377 140.203 217.752 140.621 217.225 141.147C216.699 141.673 216.282 142.298 215.997 142.986C215.712 143.673 215.565 144.411 215.565 145.155V155.736H226.905V145.155C226.905 144.41 226.759 143.673 226.474 142.985C226.189 142.297 225.77 141.672 225.243 141.145C224.717 140.619 224.092 140.202 223.404 139.917C222.715 139.633 221.978 139.487 221.233 139.487Z" fill="#365DA0" stroke="#9DAFCC" stroke-width="0.6" stroke-miterlimit="10"/>
<path d="M200.015 136.049C202.236 134.192 204.654 127.598 208.701 122.963C212.748 118.329 221.233 112.648 221.233 112.648C221.233 112.648 229.722 118.329 233.77 122.963C237.817 127.598 240.235 134.192 242.455 136.049" stroke="#9DAFCC" stroke-width="0.6" stroke-linecap="round" stroke-linejoin="round"/>
<path d="M239.776 94.0884H202.694" stroke="#9DAFCC" stroke-width="0.6" stroke-linecap="round" stroke-linejoin="round"/>
<path d="M221.233 109.355V102.35" stroke="#365DA0" stroke-width="0.6" stroke-linecap="round" stroke-linejoin="round"/>
<path d="M210.116 113.579V100.931" stroke="#365DA0" stroke-width="0.6" stroke-linecap="round" stroke-linejoin="round"/>
<path d="M232.355 113.579V100.931" stroke="#365DA0" stroke-width="0.6" stroke-linecap="round" stroke-linejoin="round"/>
<path d="M237.011 98.1902H205.46" stroke="#9DAFCC" stroke-width="0.6" stroke-linejoin="round"/>
<path d="M224.877 98.1907C226.897 95.863 226.301 93.3806 224.877 91.5753C223.454 89.7705 221.649 88.6472 221.233 86.3877C220.804 88.6472 219.021 89.7745 217.593 91.5753C216.165 93.3761 215.573 95.863 217.593 98.1907H224.877Z" fill="#F25451" stroke="#9DAFCC" stroke-width="0.6" stroke-linejoin="round"/>
<path d="M253.886 191.322H188.585V198.717H253.886V191.322Z" fill="#365DA0" stroke="#9DAFCC" stroke-width="0.6" stroke-linecap="round" stroke-linejoin="round"/>
<path d="M188.585 195.021H253.886" stroke="#9DAFCC" stroke-width="0.6" stroke-linecap="round" stroke-linejoin="round"/>
<path d="M196.555 191.322V198.721" stroke="#9DAFCC" stroke-width="0.6" stroke-linecap="round" stroke-linejoin="round"/>
<path d="M245.916 191.322V198.721" stroke="#9DAFCC" stroke-width="0.6" stroke-linecap="round" stroke-linejoin="round"/>
<path d="M221.233 59.9087C222.547 59.9087 223.613 58.8433 223.613 57.5292C223.613 56.215 222.547 55.1497 221.233 55.1497C219.919 55.1497 218.853 56.215 218.853 57.5292C218.853 58.8433 219.919 59.9087 221.233 59.9087Z" fill="#F25451" stroke="#9DAFCC" stroke-width="0.6" stroke-linejoin="round"/>
<path d="M221.233 34V55.1497" stroke="#9DAFCC" stroke-width="0.6" stroke-linejoin="round"/>
<path d="M215.702 40.5251H226.768" stroke="#9DAFCC" stroke-width="0.6" stroke-linejoin="round"/>
<path d="M218.288 37.3015H224.183" stroke="#9DAFCC" stroke-width="0.6" stroke-linejoin="round"/>
<path d="M218.682 49.739L223.788 52.6887" stroke="#9DAFCC" stroke-width="0.6" stroke-linejoin="round"/>
</g>
</g>
<defs>
<filter id="filter0_dd_202_5127" x="-11.9112" y="-11.9112" width="296.822" height="263.822" filterUnits="userSpaceOnUse" color-interpolation-filters="sRGB">
<feFlood flood-opacity="0" result="BackgroundImageFix"/>
<feColorMatrix in="SourceAlpha" type="matrix" values="0 0 0 0 0 0 0 0 0 0 0 0 0 0 0 0 0 0 127 0" result="hardAlpha"/>
<feOffset/>
<feGaussianBlur stdDeviation="5.95559"/>
<feComposite in2="hardAlpha" operator="out"/>
<feColorMatrix type="matrix" values="0 0 0 0 0.568627 0 0 0 0 0.741176 0 0 0 0 0.866667 0 0 0 1 0"/>
<feBlend mode="normal" in2="BackgroundImageFix" result="effect1_dropShadow_202_5127"/>
<feColorMatrix in="SourceAlpha" type="matrix" values="0 0 0 0 0 0 0 0 0 0 0 0 0 0 0 0 0 0 127 0" result="hardAlpha"/>
<feOffset dy="2.38223"/>
<feGaussianBlur stdDeviation="2.97779"/>
<feComposite in2="hardAlpha" operator="out"/>
<feColorMatrix type="matrix" values="0 0 0 0 0 0 0 0 0 0 0 0 0 0 0 0 0 0 0.1 0"/>
<feBlend mode="normal" in2="effect1_dropShadow_202_5127" result="effect2_dropShadow_202_5127"/>
<feBlend mode="normal" in="SourceGraphic" in2="effect2_dropShadow_202_5127" result="shape"/>
</filter>
<filter id="filter1_dd_202_5127" x="2.56252" y="22.0888" width="263.601" height="188.844" filterUnits="userSpaceOnUse" color-interpolation-filters="sRGB">
<feFlood flood-opacity="0" result="BackgroundImageFix"/>
<feColorMatrix in="SourceAlpha" type="matrix" values="0 0 0 0 0 0 0 0 0 0 0 0 0 0 0 0 0 0 127 0" result="hardAlpha"/>
<feOffset/>
<feGaussianBlur stdDeviation="5.95559"/>
<feComposite in2="hardAlpha" operator="out"/>
<feColorMatrix type="matrix" values="0 0 0 0 0.568627 0 0 0 0 0.741176 0 0 0 0 0.866667 0 0 0 1 0"/>
<feBlend mode="normal" in2="BackgroundImageFix" result="effect1_dropShadow_202_5127"/>
<feColorMatrix in="SourceAlpha" type="matrix" values="0 0 0 0 0 0 0 0 0 0 0 0 0 0 0 0 0 0 127 0" result="hardAlpha"/>
<feOffset dy="2.38223"/>
<feGaussianBlur stdDeviation="2.97779"/>
<feComposite in2="hardAlpha" operator="out"/>
<feColorMatrix type="matrix" values="0 0 0 0 0 0 0 0 0 0 0 0 0 0 0 0 0 0 0.1 0"/>
<feBlend mode="normal" in2="effect1_dropShadow_202_5127" result="effect2_dropShadow_202_5127"/>
<feBlend mode="normal" in="SourceGraphic" in2="effect2_dropShadow_202_5127" result="shape"/>
</filter>
</defs>
</svg>
