<svg width="273" height="240" viewBox="0 0 273 240" fill="none" xmlns="http://www.w3.org/2000/svg">
<g filter="url(#filter0_dd_202_1921)">
<g filter="url(#filter1_dd_202_1921)">
<path d="M139.129 160.048H64.2385V164.356H139.129V160.048Z" fill="white" stroke="#9DAFCC" stroke-width="0.6" stroke-linejoin="round"/>
<path d="M29.1665 134.205C29.1665 126.676 34.4026 120.571 40.8614 120.571C47.3203 120.571 52.5564 126.676 52.5564 134.205" fill="#F25451"/>
<path d="M29.1665 134.205C29.1665 126.676 34.4026 120.571 40.8614 120.571C47.3203 120.571 52.5564 126.676 52.5564 134.205" stroke="#9DAFCC" stroke-width="0.6" stroke-linejoin="round"/>
<path d="M40.8487 120.575C41.9664 120.575 42.8724 119.669 42.8724 118.552C42.8724 117.434 41.9664 116.528 40.8487 116.528C39.731 116.528 38.825 117.434 38.825 118.552C38.825 119.669 39.731 120.575 40.8487 120.575Z" fill="#F25451" stroke="#9DAFCC" stroke-width="0.6" stroke-linejoin="round"/>
<path d="M14.6638 139.27H60.7065V134.141H25.447L14.6638 139.27Z" fill="#F25451" stroke="#9DAFCC" stroke-width="0.6" stroke-linejoin="round"/>
<path d="M16.7644 186.74H64.2344V139.27H16.7644V186.74Z" fill="#E4EBF5" stroke="#9DAFCC" stroke-width="0.6" stroke-linejoin="round"/>
<path d="M16.7644 186.745H22.0814V164.356H16.7644V186.745Z" fill="white" stroke="#9DAFCC" stroke-width="0.6" stroke-linejoin="round"/>
<path d="M16.7644 160.044H22.0814V142.057H16.7644V160.044Z" fill="white" stroke="#9DAFCC" stroke-width="0.6" stroke-linejoin="round"/>
<path d="M16.7686 164.352H64.2385V160.044H16.7686V164.352Z" fill="white" stroke="#9DAFCC" stroke-width="0.6" stroke-linejoin="round"/>
<path d="M14.4722 142.687H64.2385V139.266H14.4722V142.687Z" fill="white" stroke="#9DAFCC" stroke-width="0.6" stroke-linejoin="round"/>
<path d="M58.9216 186.745H64.2387V164.356H58.9216V186.745Z" fill="white" stroke="#9DAFCC" stroke-width="0.6" stroke-linejoin="round"/>
<path d="M45.7227 186.74H48.9265V168.437H45.7227V186.74Z" fill="white" stroke="#9DAFCC" stroke-width="0.6" stroke-linejoin="round"/>
<path d="M32.0723 186.74H35.2761V168.437H32.0723V186.74Z" fill="white" stroke="#9DAFCC" stroke-width="0.6" stroke-linejoin="round"/>
<path d="M45.3137 160.049H49.3356V142.692H45.3137V160.049Z" fill="white" stroke="#9DAFCC" stroke-width="0.6" stroke-linejoin="round"/>
<path d="M31.6631 160.049H35.6849V142.692H31.6631V160.049Z" fill="white" stroke="#9DAFCC" stroke-width="0.6" stroke-linejoin="round"/>
<path d="M37.9045 186.74H43.0938V174.427H37.9045V186.74Z" fill="#365DA0" stroke="#9DAFCC" stroke-width="0.6" stroke-linejoin="round"/>
<path d="M58.9171 164.352H22.0813V168.433H58.9171V164.352Z" fill="white" stroke="#9DAFCC" stroke-width="0.6" stroke-linejoin="round"/>
<path d="M114.252 116.528H89.1279V120.605H114.252V116.528Z" fill="#F25451" stroke="#9DAFCC" stroke-width="0.6" stroke-linejoin="round"/>
<path d="M174.213 134.205C174.213 126.676 168.977 120.571 162.518 120.571C156.06 120.571 150.823 126.676 150.823 134.205" fill="#F25451"/>
<path d="M174.213 134.205C174.213 126.676 168.977 120.571 162.518 120.571C156.06 120.571 150.823 126.676 150.823 134.205" stroke="#9DAFCC" stroke-width="0.6" stroke-linejoin="round"/>
<path d="M162.519 120.575C163.636 120.575 164.542 119.669 164.542 118.552C164.542 117.434 163.636 116.528 162.519 116.528C161.401 116.528 160.495 117.434 160.495 118.552C160.495 119.669 161.401 120.575 162.519 120.575Z" fill="#F25451" stroke="#9DAFCC" stroke-width="0.6" stroke-linejoin="round"/>
<path d="M188.703 139.27H142.656V134.141H177.92L188.703 139.27Z" fill="#F25451" stroke="#9DAFCC" stroke-width="0.6" stroke-linejoin="round"/>
<path d="M186.599 139.27H139.129V186.74H186.599V139.27Z" fill="#E4EBF5" stroke="#9DAFCC" stroke-width="0.6" stroke-linejoin="round"/>
<path d="M186.603 164.352H181.286V186.74H186.603V164.352Z" fill="white" stroke="#9DAFCC" stroke-width="0.6" stroke-linejoin="round"/>
<path d="M186.603 142.061H181.286V160.049H186.603V142.061Z" fill="white" stroke="#9DAFCC" stroke-width="0.6" stroke-linejoin="round"/>
<path d="M186.599 160.048H139.129V164.356H186.599V160.048Z" fill="white" stroke="#9DAFCC" stroke-width="0.6" stroke-linejoin="round"/>
<path d="M188.895 139.27H139.129V142.691H188.895V139.27Z" fill="white" stroke="#9DAFCC" stroke-width="0.6" stroke-linejoin="round"/>
<path d="M144.446 164.352H139.129V186.74H144.446V164.352Z" fill="white" stroke="#9DAFCC" stroke-width="0.6" stroke-linejoin="round"/>
<path d="M157.645 168.437H154.441V186.74H157.645V168.437Z" fill="white" stroke="#9DAFCC" stroke-width="0.6" stroke-linejoin="round"/>
<path d="M171.295 168.437H168.091V186.74H171.295V168.437Z" fill="white" stroke="#9DAFCC" stroke-width="0.6" stroke-linejoin="round"/>
<path d="M158.054 142.692H154.032V160.049H158.054V142.692Z" fill="white" stroke="#9DAFCC" stroke-width="0.6" stroke-linejoin="round"/>
<path d="M171.704 142.692H167.682V160.049H171.704V142.692Z" fill="white" stroke="#9DAFCC" stroke-width="0.6" stroke-linejoin="round"/>
<path d="M165.462 174.427H160.273V186.74H165.462V174.427Z" fill="#365DA0" stroke="#9DAFCC" stroke-width="0.6" stroke-linejoin="round"/>
<path d="M144.446 168.437H181.282V164.356H144.446V168.437Z" fill="white" stroke="#9DAFCC" stroke-width="0.6" stroke-linejoin="round"/>
<path d="M118.095 120.605H85.2894C78.2597 120.605 72.5635 126.792 72.5635 134.175H130.825C130.825 126.792 125.125 120.605 118.095 120.605Z" fill="#F25451" stroke="#9DAFCC" stroke-width="0.6" stroke-linejoin="round"/>
<path d="M123.459 131.014H79.9255V134.205H123.459V131.014Z" fill="white" stroke="#9DAFCC" stroke-width="0.6" stroke-linejoin="round"/>
<path d="M111.295 126.468H92.0806V134.205H111.295V126.468Z" fill="white" stroke="#9DAFCC" stroke-width="0.6" stroke-linejoin="round"/>
<path d="M95.6082 126.468H92.0806V134.205H95.6082V126.468Z" fill="white" stroke="#9DAFCC" stroke-width="0.6" stroke-linejoin="round"/>
<path d="M111.295 126.468H107.768V134.205H111.295V126.468Z" fill="white" stroke="#9DAFCC" stroke-width="0.6" stroke-linejoin="round"/>
<path d="M139.146 164.352H64.2385V186.74H139.146V164.352Z" fill="#E4EBF5" stroke="#9DAFCC" stroke-width="0.6" stroke-linejoin="round"/>
<path d="M80.1597 160.048H75.895V186.74H80.1597V160.048Z" fill="white" stroke="#9DAFCC" stroke-width="0.6" stroke-linejoin="round"/>
<path d="M95.9363 160.048H91.6716V186.74H95.9363V160.048Z" fill="white" stroke="#9DAFCC" stroke-width="0.6" stroke-linejoin="round"/>
<path d="M111.713 160.048H107.448V186.74H111.713V160.048Z" fill="white" stroke="#9DAFCC" stroke-width="0.6" stroke-linejoin="round"/>
<path d="M127.489 160.048H123.224V186.74H127.489V160.048Z" fill="white" stroke="#9DAFCC" stroke-width="0.6" stroke-linejoin="round"/>
<path d="M73.1597 171.13H67.4209V183.443H73.1597V171.13Z" fill="#365DA0" stroke="#9DAFCC" stroke-width="0.6" stroke-linejoin="round"/>
<path d="M136.193 171.13H130.454V183.443H136.193V171.13Z" fill="#365DA0" stroke="#9DAFCC" stroke-width="0.6" stroke-linejoin="round"/>
<path d="M139.146 137.66H64.2385V160.049H139.146V137.66Z" fill="#E4EBF5" stroke="#9DAFCC" stroke-width="0.6" stroke-linejoin="round"/>
<path d="M145.2 134.141H58.176V137.66H145.2V134.141Z" fill="white" stroke="#9DAFCC" stroke-width="0.6" stroke-linejoin="round"/>
<path d="M64.2342 137.66H60.7065V160.049H64.2342V137.66Z" fill="white" stroke="#9DAFCC" stroke-width="0.6" stroke-linejoin="round"/>
<path d="M79.9212 137.66H76.3936V160.049H79.9212V137.66Z" fill="white" stroke="#9DAFCC" stroke-width="0.6" stroke-linejoin="round"/>
<path d="M95.6082 137.66H92.0806V160.049H95.6082V137.66Z" fill="white" stroke="#9DAFCC" stroke-width="0.6" stroke-linejoin="round"/>
<path d="M111.295 137.66H107.768V160.049H111.295V137.66Z" fill="white" stroke="#9DAFCC" stroke-width="0.6" stroke-linejoin="round"/>
<path d="M126.982 137.66H123.455V160.049H126.982V137.66Z" fill="white" stroke="#9DAFCC" stroke-width="0.6" stroke-linejoin="round"/>
<path d="M142.669 137.66H139.142V160.049H142.669V137.66Z" fill="white" stroke="#9DAFCC" stroke-width="0.6" stroke-linejoin="round"/>
<path d="M104.794 142.061H98.5906V149.431H104.794V142.061Z" fill="white" stroke="#9DAFCC" stroke-width="0.6" stroke-linecap="round" stroke-linejoin="round"/>
<path d="M101.692 146.351C100.869 146.351 100.081 146.678 99.4989 147.26C98.9173 147.841 98.5906 148.63 98.5906 149.453V160.07H104.794V149.432C104.788 148.613 104.459 147.829 103.878 147.252C103.297 146.675 102.511 146.351 101.692 146.351Z" fill="#365DA0" stroke="#9DAFCC" stroke-width="0.6" stroke-linecap="round" stroke-linejoin="round"/>
<path d="M98.5906 150.501H104.794" stroke="#9DAFCC" stroke-width="0.6" stroke-linecap="round" stroke-linejoin="round"/>
<path d="M89.128 142.061H82.9248V149.431H89.128V142.061Z" fill="white" stroke="#9DAFCC" stroke-width="0.6" stroke-linecap="round" stroke-linejoin="round"/>
<path d="M86.0264 146.351C85.2037 146.351 84.4151 146.678 83.8331 147.26C83.2516 147.841 82.9248 148.63 82.9248 149.453V160.07H89.128V149.432C89.1225 148.613 88.7931 147.829 88.212 147.252C87.6309 146.675 86.8453 146.351 86.0264 146.351Z" fill="#365DA0" stroke="#9DAFCC" stroke-width="0.6" stroke-linecap="round" stroke-linejoin="round"/>
<path d="M82.9248 150.501H89.128" stroke="#9DAFCC" stroke-width="0.6" stroke-linecap="round" stroke-linejoin="round"/>
<path d="M120.455 142.061H114.252V149.431H120.455V142.061Z" fill="white" stroke="#9DAFCC" stroke-width="0.6" stroke-linecap="round" stroke-linejoin="round"/>
<path d="M117.358 146.351C116.535 146.351 115.746 146.678 115.164 147.26C114.583 147.841 114.256 148.63 114.256 149.453V160.07H120.459V149.432C120.454 148.613 120.124 147.829 119.543 147.252C118.962 146.675 118.177 146.351 117.358 146.351Z" fill="#365DA0" stroke="#9DAFCC" stroke-width="0.6" stroke-linecap="round" stroke-linejoin="round"/>
<path d="M114.252 150.501H120.455" stroke="#9DAFCC" stroke-width="0.6" stroke-linecap="round" stroke-linejoin="round"/>
<path d="M101.692 173.478C100.886 173.463 100.107 173.77 99.5262 174.328C98.9446 174.887 98.6085 175.654 98.5906 176.46V186.74H104.794V176.477C104.787 176.076 104.702 175.681 104.542 175.313C104.383 174.946 104.152 174.613 103.864 174.335C103.576 174.056 103.236 173.837 102.863 173.69C102.491 173.543 102.093 173.471 101.692 173.478Z" fill="#365DA0" stroke="#9DAFCC" stroke-width="0.6" stroke-linecap="round" stroke-linejoin="round"/>
<path d="M86.0264 173.478C85.2203 173.463 84.4415 173.77 83.8604 174.328C83.2788 174.887 82.9427 175.654 82.9248 176.46V186.74H89.128V176.477C89.1212 176.076 89.036 175.681 88.8762 175.313C88.7169 174.946 88.4864 174.613 88.1984 174.335C87.9104 174.056 87.5704 173.837 87.1976 173.69C86.8252 173.543 86.4269 173.471 86.0264 173.478Z" fill="#365DA0" stroke="#9DAFCC" stroke-width="0.6" stroke-linecap="round" stroke-linejoin="round"/>
<path d="M117.358 173.478C116.552 173.463 115.773 173.77 115.192 174.328C114.61 174.887 114.274 175.654 114.256 176.46V186.74H120.459V176.477C120.452 176.076 120.367 175.681 120.208 175.313C120.048 174.946 119.818 174.613 119.53 174.335C119.242 174.056 118.902 173.837 118.529 173.69C118.157 173.543 117.758 173.471 117.358 173.478Z" fill="#365DA0" stroke="#9DAFCC" stroke-width="0.6" stroke-linecap="round" stroke-linejoin="round"/>
<path d="M73.1597 146.33H67.4209V160.049H73.1597V146.33Z" fill="#365DA0" stroke="#9DAFCC" stroke-width="0.6" stroke-linejoin="round"/>
<path d="M70.2926 143.803C71.3399 143.803 72.1885 142.954 72.1885 141.907C72.1885 140.86 71.3399 140.012 70.2926 140.012C69.2454 140.012 68.3967 140.86 68.3967 141.907C68.3967 142.954 69.2454 143.803 70.2926 143.803Z" fill="white" stroke="#9DAFCC" stroke-width="0.6" stroke-linejoin="round"/>
<path d="M136.193 146.33H130.454V160.049H136.193V146.33Z" fill="#365DA0" stroke="#9DAFCC" stroke-width="0.6" stroke-linejoin="round"/>
<path d="M133.322 143.803C134.369 143.803 135.218 142.954 135.218 141.907C135.218 140.86 134.369 140.012 133.322 140.012C132.274 140.012 131.426 140.86 131.426 141.907C131.426 142.954 132.274 143.803 133.322 143.803Z" fill="white" stroke="#9DAFCC" stroke-width="0.6" stroke-linejoin="round"/>
<path d="M129.641 164.352H73.7437V167.871H129.641V164.352Z" fill="white" stroke="#9DAFCC" stroke-width="0.6" stroke-linejoin="round"/>
<path d="M64.2342 129.182H60.7065V134.141H64.2342V129.182Z" fill="white" stroke="#9DAFCC" stroke-width="0.6" stroke-linejoin="round"/>
<path d="M79.9212 129.182H76.3936V134.141H79.9212V129.182Z" fill="white" stroke="#9DAFCC" stroke-width="0.6" stroke-linejoin="round"/>
<path d="M126.982 129.182H123.455V134.141H126.982V129.182Z" fill="white" stroke="#9DAFCC" stroke-width="0.6" stroke-linejoin="round"/>
<path d="M142.669 129.182H139.142V134.141H142.669V129.182Z" fill="white" stroke="#9DAFCC" stroke-width="0.6" stroke-linejoin="round"/>
<path d="M113.097 126.468C112.181 123.485 107.435 121.223 101.701 121.223C95.966 121.223 91.2198 123.494 90.2996 126.468H113.097Z" fill="white" stroke="#9DAFCC" stroke-width="0.6" stroke-linejoin="round"/>
<path d="M117.967 128.491C119.085 128.491 119.991 127.585 119.991 126.468C119.991 125.35 119.085 124.444 117.967 124.444C116.85 124.444 115.943 125.35 115.943 126.468C115.943 127.585 116.85 128.491 117.967 128.491Z" fill="#365DA0" stroke="#9DAFCC" stroke-width="0.6" stroke-linejoin="round"/>
<path d="M85.4173 128.491C86.5348 128.491 87.441 127.585 87.441 126.468C87.441 125.35 86.5348 124.444 85.4173 124.444C84.2998 124.444 83.3936 125.35 83.3936 126.468C83.3936 127.585 84.2998 128.491 85.4173 128.491Z" fill="#365DA0" stroke="#9DAFCC" stroke-width="0.6" stroke-linejoin="round"/>
<path d="M101.692 117.142L104.93 113.614C104.461 111.995 103.196 110.832 101.692 110.832C100.188 110.832 98.9229 111.995 98.45 113.614L101.692 117.142Z" fill="#F25451" stroke="#9DAFCC" stroke-width="0.6" stroke-linejoin="round"/>
<path d="M105.786 112.817L103.456 114.926C102.954 114.529 102.332 114.312 101.692 114.312C101.052 114.312 100.43 114.529 99.9282 114.926L97.5977 112.817C96.8198 113.631 96.3822 114.712 96.375 115.838C96.375 118.454 98.7566 120.571 101.692 120.571C104.627 120.571 107.005 118.441 107.005 115.838C106.997 114.713 106.562 113.633 105.786 112.817Z" fill="#365DA0" stroke="#9DAFCC" stroke-width="0.6" stroke-linejoin="round"/>
<path d="M183.386 156.615H170.754V191.052H183.386V156.615Z" fill="#E4EBF5" stroke="#9DAFCC" stroke-width="0.6" stroke-linejoin="round"/>
<path d="M256.231 167.065H234.069V191.052H256.231V167.065Z" fill="white" stroke="#9DAFCC" stroke-width="0.6" stroke-linejoin="round"/>
<path d="M249.061 169.686H254.45" stroke="#F25451" stroke-width="0.6" stroke-miterlimit="10"/>
<path d="M224.704 118.816H192.738V160.108H224.704V118.816Z" fill="#F25451" stroke="#9DAFCC" stroke-width="0.6" stroke-linecap="round" stroke-linejoin="round"/>
<path d="M201.8 128.917C202.718 128.917 203.598 129.282 204.248 129.93C204.897 130.579 205.263 131.459 205.264 132.377V143.948H198.341V132.377C198.341 131.459 198.705 130.579 199.354 129.931C200.003 129.282 200.882 128.917 201.8 128.917Z" fill="#365DA0" stroke="#9DAFCC" stroke-width="0.6" stroke-miterlimit="10"/>
<path d="M208.723 128.917C209.641 128.917 210.521 129.282 211.169 129.931C211.818 130.579 212.183 131.459 212.183 132.377V143.948H205.264V132.377C205.264 131.459 205.628 130.579 206.277 129.931C206.926 129.282 207.805 128.917 208.723 128.917Z" fill="#365DA0" stroke="#9DAFCC" stroke-width="0.6" stroke-miterlimit="10"/>
<path d="M215.646 128.917C216.564 128.918 217.443 129.283 218.091 129.932C218.74 130.58 219.105 131.46 219.106 132.377V143.948H212.183V132.377C212.184 131.459 212.549 130.579 213.199 129.93C213.848 129.282 214.729 128.917 215.646 128.917Z" fill="#365DA0" stroke="#9DAFCC" stroke-width="0.6" stroke-miterlimit="10"/>
<path d="M224.721 118.816C226.262 116.419 227.086 113.631 227.094 110.781C227.094 98.6683 211.578 98.3061 208.736 87.736C205.894 98.3061 190.378 98.6683 190.378 110.781C190.386 113.631 191.21 116.419 192.751 118.816H224.721Z" fill="#F25451" stroke="#9DAFCC" stroke-width="0.6" stroke-linecap="round" stroke-linejoin="round"/>
<path d="M224.704 118.816H192.738V126.071H224.704V118.816Z" fill="white" stroke="#9DAFCC" stroke-width="0.6" stroke-linecap="round" stroke-linejoin="round"/>
<path d="M208.723 121.445V123.315" stroke="#9DAFCC" stroke-width="0.6" stroke-linecap="round" stroke-linejoin="round"/>
<path d="M216.639 121.445V123.315" stroke="#9DAFCC" stroke-width="0.6" stroke-linecap="round" stroke-linejoin="round"/>
<path d="M200.807 121.445V123.315" stroke="#9DAFCC" stroke-width="0.6" stroke-linecap="round" stroke-linejoin="round"/>
<path d="M208.723 145.725L193.82 154.881V191.056H223.626V154.881L208.723 145.725Z" fill="white" stroke="#9DAFCC" stroke-width="0.6" stroke-linejoin="round"/>
<path d="M208.723 158.647C205.853 158.647 203.101 159.787 201.071 161.817C199.042 163.846 197.902 166.599 197.902 169.468V179.809H219.54V169.468C219.54 166.599 218.401 163.847 216.372 161.818C214.344 159.789 211.593 158.648 208.723 158.647Z" fill="#F25451" stroke="#9DAFCC" stroke-width="0.6" stroke-linecap="round" stroke-linejoin="round"/>
<path d="M203.99 166.013C204.301 166.013 204.608 166.073 204.896 166.192C205.183 166.311 205.444 166.485 205.665 166.704C205.884 166.924 206.059 167.185 206.178 167.472C206.297 167.759 206.359 168.067 206.359 168.378V179.809H201.625V168.378C201.625 167.751 201.874 167.149 202.318 166.706C202.761 166.262 203.363 166.013 203.99 166.013Z" fill="#365DA0" stroke="#9DAFCC" stroke-width="0.6" stroke-miterlimit="10"/>
<path d="M208.723 162.004C209.35 162.004 209.952 162.253 210.395 162.697C210.838 163.14 211.088 163.742 211.088 164.369V179.809H206.359V164.369C206.359 163.742 206.608 163.14 207.051 162.697C207.494 162.253 208.096 162.004 208.723 162.004Z" fill="#365DA0" stroke="#9DAFCC" stroke-width="0.6" stroke-miterlimit="10"/>
<path d="M213.456 166.013C214.084 166.013 214.685 166.262 215.128 166.706C215.572 167.149 215.821 167.751 215.821 168.378V179.809H211.088V168.378C211.088 168.067 211.149 167.759 211.268 167.472C211.387 167.185 211.562 166.924 211.782 166.704C212.002 166.485 212.263 166.311 212.55 166.192C212.838 166.073 213.145 166.013 213.456 166.013Z" fill="#365DA0" stroke="#9DAFCC" stroke-width="0.6" stroke-miterlimit="10"/>
<path d="M223.622 179.809H193.82V191.052H223.622V179.809Z" stroke="#9DAFCC" stroke-width="0.6" stroke-linejoin="round"/>
<path d="M193.82 186.233H223.626" stroke="#9DAFCC" stroke-width="0.6" stroke-linejoin="round"/>
<path d="M224.704 142.338H192.738V147.276H224.704V142.338Z" fill="white" stroke="#9DAFCC" stroke-width="0.6" stroke-linecap="round" stroke-linejoin="round"/>
<path d="M212.025 143.037C211.565 143.045 211.12 143.193 210.747 143.463L208.727 140.455L206.708 143.463C206.335 143.194 205.889 143.045 205.43 143.037C204.898 143.037 204.382 143.223 203.971 143.56C203.56 143.898 203.278 144.368 203.174 144.889C203.07 145.411 203.149 145.953 203.398 146.423C203.648 146.893 204.053 147.262 204.544 147.467V154.872H212.92V147.459C213.411 147.253 213.815 146.884 214.065 146.414C214.315 145.944 214.394 145.403 214.289 144.881C214.185 144.359 213.903 143.889 213.492 143.552C213.081 143.214 212.566 143.029 212.034 143.028L212.025 143.037Z" fill="white" stroke="#9DAFCC" stroke-width="0.6" stroke-miterlimit="10"/>
<path d="M210.41 154.872V147.842C210.442 147.602 210.423 147.357 210.352 147.124C210.282 146.892 210.163 146.678 210.003 146.495C209.843 146.312 209.646 146.166 209.425 146.065C209.204 145.965 208.964 145.913 208.721 145.913C208.478 145.913 208.238 145.965 208.017 146.065C207.796 146.166 207.599 146.312 207.439 146.495C207.279 146.678 207.16 146.892 207.09 147.124C207.019 147.357 207 147.602 207.032 147.842V154.872H210.41Z" fill="#365DA0" stroke="#9DAFCC" stroke-width="0.6" stroke-miterlimit="10"/>
<path d="M228.858 136.433C225.105 136.433 222.041 134.102 222.041 131.235C222.041 127.213 225.876 126.523 228.858 122.096C231.84 126.523 235.653 127.209 235.653 131.235C235.653 134.102 232.611 136.433 228.858 136.433Z" fill="#F25451" stroke="#9DAFCC" stroke-width="0.6" stroke-linecap="round" stroke-linejoin="round"/>
<path d="M234.077 167.065H223.656V191.052H234.077V167.065Z" fill="white" stroke="#9DAFCC" stroke-width="0.6" stroke-miterlimit="10"/>
<path d="M234.077 134.554H223.656V157.377H234.077V134.554Z" fill="white" stroke="#9DAFCC" stroke-width="0.6" stroke-miterlimit="10"/>
<path d="M234.077 150.522H223.656V157.382H234.077V150.522Z" fill="white" stroke="#9DAFCC" stroke-width="0.6" stroke-miterlimit="10"/>
<path d="M234.077 157.381H223.656V167.07H234.077V157.381Z" fill="#E4EBF5" stroke="#9DAFCC" stroke-width="0.6" stroke-miterlimit="10"/>
<path d="M223.656 157.377V167.065H234.073L223.656 157.377Z" fill="#F25451" stroke="#9DAFCC" stroke-width="0.6" stroke-linejoin="round"/>
<path d="M225.39 150.522L223.656 157.377H227.128L225.39 150.522Z" fill="white" stroke="#9DAFCC" stroke-width="0.6" stroke-linejoin="round"/>
<path d="M228.862 150.522L227.128 157.377H230.6L228.862 150.522Z" fill="white" stroke="#9DAFCC" stroke-width="0.6" stroke-linejoin="round"/>
<path d="M232.339 150.522L230.601 157.377H234.073L232.339 150.522Z" fill="white" stroke="#9DAFCC" stroke-width="0.6" stroke-linejoin="round"/>
<path d="M226.17 169.686H231.559" stroke="#F25451" stroke-width="0.6" stroke-miterlimit="10"/>
<path d="M228.858 137.754V145.111" stroke="#9DAFCC" stroke-width="0.6" stroke-miterlimit="10" stroke-linecap="round"/>
<path d="M226.17 137.754V145.111" stroke="#9DAFCC" stroke-width="0.6" stroke-miterlimit="10" stroke-linecap="round"/>
<path d="M231.559 137.754V145.111" stroke="#9DAFCC" stroke-width="0.6" stroke-miterlimit="10" stroke-linecap="round"/>
<path d="M188.593 136.433C184.839 136.433 181.797 134.102 181.797 131.235C181.797 127.213 185.632 126.523 188.593 122.096C191.554 126.523 195.388 127.209 195.388 131.235C195.388 134.102 192.342 136.433 188.593 136.433Z" fill="#F25451" stroke="#9DAFCC" stroke-width="0.6" stroke-linecap="round" stroke-linejoin="round"/>
<path d="M193.807 167.065H183.386V191.052H193.807V167.065Z" fill="white" stroke="#9DAFCC" stroke-width="0.6" stroke-miterlimit="10"/>
<path d="M193.807 134.554H183.386V157.377H193.807V134.554Z" fill="white" stroke="#9DAFCC" stroke-width="0.6" stroke-miterlimit="10"/>
<path d="M193.807 150.522H183.386V157.382H193.807V150.522Z" fill="white" stroke="#9DAFCC" stroke-width="0.6" stroke-miterlimit="10"/>
<path d="M183.382 167.065H193.803V157.377H183.382V167.065Z" fill="#E4EBF5" stroke="#9DAFCC" stroke-width="0.6" stroke-miterlimit="10"/>
<path d="M193.803 157.377V167.065H183.386L193.803 157.377Z" fill="#F25451" stroke="#9DAFCC" stroke-width="0.6" stroke-linejoin="round"/>
<path d="M185.125 150.522L183.386 157.377H186.859L185.125 150.522Z" fill="white" stroke="#9DAFCC" stroke-width="0.6" stroke-linejoin="round"/>
<path d="M188.597 150.522L186.859 157.377H190.331L188.597 150.522Z" fill="white" stroke="#9DAFCC" stroke-width="0.6" stroke-linejoin="round"/>
<path d="M192.069 150.522L190.331 157.377H193.803L192.069 150.522Z" fill="white" stroke="#9DAFCC" stroke-width="0.6" stroke-linejoin="round"/>
<path d="M185.9 169.686H191.289" stroke="#F25451" stroke-width="0.6" stroke-miterlimit="10"/>
<path d="M188.593 137.754V145.111" stroke="#9DAFCC" stroke-width="0.6" stroke-miterlimit="10" stroke-linecap="round"/>
<path d="M185.9 137.754V145.111" stroke="#9DAFCC" stroke-width="0.6" stroke-miterlimit="10" stroke-linecap="round"/>
<path d="M191.289 137.754V145.111" stroke="#9DAFCC" stroke-width="0.6" stroke-miterlimit="10" stroke-linecap="round"/>
<path d="M236.927 169.686H244.473" stroke="#F25451" stroke-width="0.6" stroke-miterlimit="10"/>
<path d="M228.858 122.096V114.5" stroke="#9DAFCC" stroke-width="0.6" stroke-linejoin="round"/>
<path d="M231.039 117.355H226.677" stroke="#9DAFCC" stroke-width="0.6" stroke-linejoin="round"/>
<path d="M188.597 122.096V114.5" stroke="#9DAFCC" stroke-width="0.6" stroke-linejoin="round"/>
<path d="M190.778 117.355H186.416" stroke="#9DAFCC" stroke-width="0.6" stroke-linejoin="round"/>
<path d="M208.723 87.7359V80.1393" stroke="#9DAFCC" stroke-width="0.6" stroke-linejoin="round"/>
<path d="M210.904 82.9939H206.542" stroke="#9DAFCC" stroke-width="0.6" stroke-linejoin="round"/>
<path d="M152.123 64.7722L142.716 94.2204H161.526L152.123 64.7722Z" fill="#F25451" stroke="#9DAFCC" stroke-width="0.6" stroke-linejoin="round"/>
<path d="M145.2 91.9792C146.118 91.9801 146.998 92.3456 147.646 92.9949C148.295 93.6447 148.659 94.5249 148.659 95.443V107.01H141.736V95.443C141.736 94.524 142.101 93.643 142.75 92.9937C143.4 92.3439 144.281 91.9792 145.2 91.9792Z" fill="#365DA0" stroke="#9DAFCC" stroke-width="0.6" stroke-miterlimit="10"/>
<path d="M152.119 91.9792C153.037 91.9792 153.919 92.3439 154.568 92.9937C155.218 93.643 155.583 94.524 155.583 95.443V107.01H148.659V95.443C148.659 94.5249 149.024 93.6447 149.673 92.9949C150.321 92.3456 151.201 91.9801 152.119 91.9792Z" fill="#365DA0" stroke="#9DAFCC" stroke-width="0.6" stroke-miterlimit="10"/>
<path d="M159.042 91.9792C159.961 91.9792 160.842 92.3439 161.491 92.9937C162.141 93.643 162.506 94.524 162.506 95.443V107.01H155.583V95.443C155.583 94.5249 155.947 93.6447 156.596 92.9949C157.244 92.3456 158.124 91.9801 159.042 91.9792Z" fill="#365DA0" stroke="#9DAFCC" stroke-width="0.6" stroke-miterlimit="10"/>
<path d="M170.754 156.615H133.501V191.052H170.754V156.615Z" fill="white" stroke="#9DAFCC" stroke-width="0.6" stroke-linejoin="round"/>
<path d="M165.126 152.069H139.133L133.501 156.615H170.754L165.126 152.069Z" fill="#F25451" stroke="#9DAFCC" stroke-width="0.6" stroke-linejoin="round"/>
<path d="M165.122 105.715H139.129V152.064H165.122V105.715Z" fill="#E4EBF5" stroke="#9DAFCC" stroke-width="0.6" stroke-linejoin="round"/>
<path d="M161.82 124.282H142.431V141.409H161.82V124.282Z" stroke="#9DAFCC" stroke-width="0.6" stroke-linejoin="round"/>
<path d="M146.308 124.282V141.409" stroke="#9DAFCC" stroke-width="0.6" stroke-linejoin="round"/>
<path d="M142.431 124.282V141.409" stroke="#9DAFCC" stroke-width="0.6" stroke-linejoin="round"/>
<path d="M150.189 124.282V141.409" stroke="#9DAFCC" stroke-width="0.6" stroke-linejoin="round"/>
<path d="M154.066 124.282V141.409" stroke="#9DAFCC" stroke-width="0.6" stroke-linejoin="round"/>
<path d="M157.943 124.282V141.409" stroke="#9DAFCC" stroke-width="0.6" stroke-linejoin="round"/>
<path d="M161.82 124.282V141.409" stroke="#9DAFCC" stroke-width="0.6" stroke-linejoin="round"/>
<path d="M142.431 141.418H161.82" stroke="#9DAFCC" stroke-width="0.6" stroke-linejoin="round"/>
<path d="M142.431 137.136H161.82" stroke="#9DAFCC" stroke-width="0.6" stroke-linejoin="round"/>
<path d="M142.431 132.85H161.82" stroke="#9DAFCC" stroke-width="0.6" stroke-linejoin="round"/>
<path d="M142.431 128.568H161.82" stroke="#9DAFCC" stroke-width="0.6" stroke-linejoin="round"/>
<path d="M142.431 124.282H161.82" stroke="#9DAFCC" stroke-width="0.6" stroke-linejoin="round"/>
<path d="M165.122 119.902H139.129V124.282H165.122V119.902Z" fill="#F25451" stroke="#9DAFCC" stroke-width="0.6" stroke-linejoin="round"/>
<path d="M165.122 144.494H139.129V152.069H165.122V144.494Z" stroke="#9DAFCC" stroke-width="0.6" stroke-linejoin="round"/>
<path d="M153.802 146.667H150.572V149.896H153.802V146.667Z" fill="#F25451" stroke="#9DAFCC" stroke-width="0.6" stroke-linejoin="round"/>
<path d="M163.149 146.667H159.92V149.896H163.149V146.667Z" fill="#F25451" stroke="#9DAFCC" stroke-width="0.6" stroke-linejoin="round"/>
<path d="M144.335 146.667H141.105V149.896H144.335V146.667Z" fill="#F25451" stroke="#9DAFCC" stroke-width="0.6" stroke-linejoin="round"/>
<path d="M153.802 108.489H150.572V111.718H153.802V108.489Z" fill="#F25451" stroke="#9DAFCC" stroke-width="0.6" stroke-linejoin="round"/>
<path d="M163.149 108.489H159.92V111.718H163.149V108.489Z" fill="#F25451" stroke="#9DAFCC" stroke-width="0.6" stroke-linejoin="round"/>
<path d="M144.335 108.489H141.105V111.718H144.335V108.489Z" fill="#F25451" stroke="#9DAFCC" stroke-width="0.6" stroke-linejoin="round"/>
<path d="M139.129 114.381H165.122" stroke="#9DAFCC" stroke-width="0.6" stroke-linejoin="round"/>
<path d="M157.943 105.715H146.308V152.064H157.943V105.715Z" stroke="#9DAFCC" stroke-width="0.6" stroke-linejoin="round"/>
<path d="M152.102 161.51C152.556 161.509 153.007 161.599 153.427 161.772C153.847 161.945 154.229 162.2 154.551 162.522C154.872 162.843 155.128 163.224 155.302 163.644C155.476 164.064 155.566 164.515 155.566 164.969V178.871H148.642V164.969C148.642 164.515 148.731 164.065 148.904 163.645C149.078 163.225 149.333 162.843 149.654 162.522C149.976 162.201 150.357 161.946 150.777 161.772C151.197 161.599 151.647 161.509 152.102 161.51Z" fill="#365DA0" stroke="#9DAFCC" stroke-width="0.6" stroke-miterlimit="10"/>
<path d="M170.754 178.871H133.501" stroke="#9DAFCC" stroke-width="0.6" stroke-miterlimit="10"/>
<path d="M153.798 58.9865H150.445V70.0168H153.798V58.9865Z" fill="#E4EBF5" stroke="#9DAFCC" stroke-width="0.6" stroke-linejoin="round"/>
<path d="M152.119 67.2432C153.634 67.2432 154.862 66.0148 154.862 64.4995C154.862 62.9842 153.634 61.7557 152.119 61.7557C150.603 61.7557 149.375 62.9842 149.375 64.4995C149.375 66.0148 150.603 67.2432 152.119 67.2432Z" fill="#E4EBF5" stroke="#9DAFCC" stroke-width="0.6" stroke-linejoin="round"/>
<path d="M148.975 58.9864H155.276C155.723 58.5612 156.078 58.0496 156.321 57.4828C156.565 56.916 156.69 56.3056 156.69 55.6888C156.69 52.3146 152.835 52.3912 152.127 49.4515C151.424 52.3912 147.569 52.3146 147.569 55.6888C147.568 56.305 147.692 56.915 147.933 57.4818C148.175 58.0486 148.529 58.5605 148.975 58.9864Z" fill="#F25451" stroke="#9DAFCC" stroke-width="0.6" stroke-linecap="round" stroke-linejoin="round"/>
<path d="M152.119 49.5964V42" stroke="#9DAFCC" stroke-width="0.6" stroke-linejoin="round"/>
<path d="M154.3 44.8546H149.938" stroke="#9DAFCC" stroke-width="0.6" stroke-linejoin="round"/>
<path d="M183.386 156.615H170.754V170.904H183.386V156.615Z" fill="#F25451" stroke="#9DAFCC" stroke-width="0.6" stroke-linejoin="round"/>
<path d="M177.072 176.92C177.443 176.92 177.809 176.993 178.151 177.135C178.493 177.277 178.804 177.484 179.065 177.746C179.327 178.008 179.534 178.319 179.675 178.661C179.817 179.003 179.889 179.37 179.889 179.74V191.056H174.252V179.74C174.252 178.992 174.549 178.275 175.078 177.746C175.607 177.217 176.324 176.92 177.072 176.92Z" fill="#365DA0" stroke="#9DAFCC" stroke-width="0.6" stroke-miterlimit="10"/>
<path d="M247.135 167.065V191.056" stroke="#9DAFCC" stroke-width="0.6" stroke-linejoin="round"/>
<path d="M234.073 179.809H256.231" stroke="#9DAFCC" stroke-width="0.6" stroke-linejoin="round"/>
<path d="M234.073 172.532H256.231" stroke="#9DAFCC" stroke-width="0.6" stroke-linejoin="round"/>
<path d="M255.916 167.065H234.069V154.872H246.479C247.762 154.87 249.033 155.12 250.219 155.61C251.404 156.1 252.482 156.819 253.389 157.725C254.297 158.632 255.016 159.709 255.507 160.894C255.998 162.079 256.25 163.35 256.249 164.633V167.065H255.933" fill="#F25451"/>
<path d="M255.916 167.065H234.069V154.872H246.479C247.762 154.87 249.033 155.12 250.219 155.61C251.404 156.1 252.482 156.819 253.389 157.725C254.297 158.632 255.016 159.709 255.507 160.894C255.998 162.079 256.25 163.35 256.249 164.633V167.065H255.933" stroke="#9DAFCC" stroke-width="0.6" stroke-miterlimit="10"/>
</g>
</g>
<defs>
<filter id="filter0_dd_202_1921" x="-11.9112" y="-11.9112" width="296.822" height="263.822" filterUnits="userSpaceOnUse" color-interpolation-filters="sRGB">
<feFlood flood-opacity="0" result="BackgroundImageFix"/>
<feColorMatrix in="SourceAlpha" type="matrix" values="0 0 0 0 0 0 0 0 0 0 0 0 0 0 0 0 0 0 127 0" result="hardAlpha"/>
<feOffset/>
<feGaussianBlur stdDeviation="5.95559"/>
<feComposite in2="hardAlpha" operator="out"/>
<feColorMatrix type="matrix" values="0 0 0 0 0.568627 0 0 0 0 0.741176 0 0 0 0 0.866667 0 0 0 1 0"/>
<feBlend mode="normal" in2="BackgroundImageFix" result="effect1_dropShadow_202_1921"/>
<feColorMatrix in="SourceAlpha" type="matrix" values="0 0 0 0 0 0 0 0 0 0 0 0 0 0 0 0 0 0 127 0" result="hardAlpha"/>
<feOffset dy="2.38223"/>
<feGaussianBlur stdDeviation="2.97779"/>
<feComposite in2="hardAlpha" operator="out"/>
<feColorMatrix type="matrix" values="0 0 0 0 0 0 0 0 0 0 0 0 0 0 0 0 0 0 0.1 0"/>
<feBlend mode="normal" in2="effect1_dropShadow_202_1921" result="effect2_dropShadow_202_1921"/>
<feBlend mode="normal" in="SourceGraphic" in2="effect2_dropShadow_202_1921" result="shape"/>
</filter>
<filter id="filter1_dd_202_1921" x="2.26101" y="30.0888" width="266.199" height="173.179" filterUnits="userSpaceOnUse" color-interpolation-filters="sRGB">
<feFlood flood-opacity="0" result="BackgroundImageFix"/>
<feColorMatrix in="SourceAlpha" type="matrix" values="0 0 0 0 0 0 0 0 0 0 0 0 0 0 0 0 0 0 127 0" result="hardAlpha"/>
<feOffset/>
<feGaussianBlur stdDeviation="5.95559"/>
<feComposite in2="hardAlpha" operator="out"/>
<feColorMatrix type="matrix" values="0 0 0 0 0.568627 0 0 0 0 0.741176 0 0 0 0 0.866667 0 0 0 1 0"/>
<feBlend mode="normal" in2="BackgroundImageFix" result="effect1_dropShadow_202_1921"/>
<feColorMatrix in="SourceAlpha" type="matrix" values="0 0 0 0 0 0 0 0 0 0 0 0 0 0 0 0 0 0 127 0" result="hardAlpha"/>
<feOffset dy="2.38223"/>
<feGaussianBlur stdDeviation="2.97779"/>
<feComposite in2="hardAlpha" operator="out"/>
<feColorMatrix type="matrix" values="0 0 0 0 0 0 0 0 0 0 0 0 0 0 0 0 0 0 0.1 0"/>
<feBlend mode="normal" in2="effect1_dropShadow_202_1921" result="effect2_dropShadow_202_1921"/>
<feBlend mode="normal" in="SourceGraphic" in2="effect2_dropShadow_202_1921" result="shape"/>
</filter>
</defs>
</svg>
