<svg width="273" height="240" viewBox="0 0 273 240" fill="none" xmlns="http://www.w3.org/2000/svg">
<g filter="url(#filter0_dd_202_6404)">
<g filter="url(#filter1_dd_202_6404)">
<path d="M49.3219 158.829H16.0784V176.304H49.3219V158.829Z" fill="#E4EBF5" stroke="#9DAFCC" stroke-width="0.6" stroke-linejoin="round"/>
<path d="M83.9651 141.854H49.3264V176.304H83.9651V141.854Z" fill="#E4EBF5" stroke="#9DAFCC" stroke-width="0.6" stroke-linejoin="round"/>
<path d="M42.4909 164.283C43.3054 164.283 44.0866 164.606 44.6625 165.182C45.2385 165.758 45.5621 166.539 45.5621 167.354V176.304H39.4197V167.354C39.4197 166.539 39.7432 165.758 40.3192 165.182C40.8952 164.606 41.6763 164.283 42.4909 164.283Z" fill="#365DA0" stroke="#9DAFCC" stroke-width="0.6" stroke-linecap="round" stroke-linejoin="round"/>
<path d="M32.7025 164.283C33.5171 164.283 34.2982 164.606 34.8742 165.182C35.4502 165.758 35.7737 166.539 35.7737 167.354V176.304H29.6313V167.354C29.6313 166.539 29.9549 165.758 30.5309 165.182C31.1068 164.606 31.888 164.283 32.7025 164.283Z" fill="#365DA0" stroke="#9DAFCC" stroke-width="0.6" stroke-linecap="round" stroke-linejoin="round"/>
<path d="M22.9142 164.283C23.7287 164.283 24.5099 164.606 25.0858 165.182C25.6618 165.758 25.9854 166.539 25.9854 167.354V176.304H19.843V167.354C19.843 166.539 20.1666 165.758 20.7425 165.182C21.3185 164.606 22.0996 164.283 22.9142 164.283Z" fill="#365DA0" stroke="#9DAFCC" stroke-width="0.6" stroke-linecap="round" stroke-linejoin="round"/>
<path d="M72.3031 164.09C73.0016 164.09 73.6711 164.367 74.1647 164.861C74.6583 165.355 74.9356 166.024 74.9356 166.722V173.935H69.6707V166.731C69.6698 166.384 69.7369 166.041 69.8685 165.721C70.0006 165.4 70.1941 165.109 70.4385 164.864C70.6833 164.619 70.9737 164.424 71.2936 164.291C71.6139 164.158 71.9569 164.09 72.3031 164.09Z" fill="#365DA0" stroke="white" stroke-width="0.6" stroke-linecap="round" stroke-linejoin="round"/>
<path d="M74.9402 167.565H69.6621" stroke="white" stroke-width="0.6" stroke-linecap="round" stroke-linejoin="round"/>
<path d="M63.5241 164.09C64.2221 164.09 64.8916 164.367 65.3856 164.861C65.8792 165.355 66.1565 166.024 66.1565 166.722V173.935H60.8916V166.731C60.8903 166.384 60.9579 166.041 61.0895 165.721C61.2211 165.4 61.415 165.109 61.6594 164.864C61.9042 164.619 62.1947 164.424 62.5145 164.291C62.8344 164.158 63.1775 164.09 63.5241 164.09Z" fill="#365DA0" stroke="white" stroke-width="0.6" stroke-linecap="round" stroke-linejoin="round"/>
<path d="M66.1653 167.565H60.8872" stroke="white" stroke-width="0.6" stroke-linecap="round" stroke-linejoin="round"/>
<path d="M53.4857 164.09C54.1838 164.09 54.8533 164.367 55.3473 164.861C55.8409 165.355 56.1182 166.024 56.1182 166.722V173.935H50.8533V166.731C50.852 166.384 50.9195 166.041 51.0512 165.721C51.1828 165.4 51.3767 165.109 51.6211 164.864C51.8659 164.619 52.1564 164.424 52.4762 164.291C52.7965 164.158 53.1391 164.09 53.4857 164.09Z" fill="#365DA0" stroke="white" stroke-width="0.6" stroke-linecap="round" stroke-linejoin="round"/>
<path d="M56.1226 167.565H50.8445" stroke="white" stroke-width="0.6" stroke-linecap="round" stroke-linejoin="round"/>
<path d="M49.3264 161.598H78.1474V158.829H49.3264V161.598Z" fill="white" stroke="#9DAFCC" stroke-width="0.6" stroke-linejoin="round"/>
<path d="M16.083 161.598H49.3264V158.829H16.083V161.598Z" fill="white" stroke="#9DAFCC" stroke-width="0.6" stroke-linejoin="round"/>
<path d="M74.9402 146.25H69.6621V154.394H74.9402V146.25Z" fill="#365DA0" stroke="white" stroke-width="0.6" stroke-linecap="round" stroke-linejoin="round"/>
<path d="M72.3033 144.961L74.9402 146.251H69.6621L72.3033 144.961Z" fill="white" stroke="white" stroke-width="0.6" stroke-linejoin="round"/>
<path d="M74.9402 154.069V156.657" stroke="white" stroke-width="0.6" stroke-linejoin="round"/>
<path d="M69.6621 154.069V156.657" stroke="white" stroke-width="0.6" stroke-linejoin="round"/>
<path d="M66.1653 146.25H60.8872V154.394H66.1653V146.25Z" fill="#365DA0" stroke="white" stroke-width="0.6" stroke-linecap="round" stroke-linejoin="round"/>
<path d="M63.524 144.961L66.1653 146.251H60.8872L63.524 144.961Z" fill="white" stroke="white" stroke-width="0.6" stroke-linejoin="round"/>
<path d="M66.1653 154.069V156.657" stroke="white" stroke-width="0.6" stroke-linejoin="round"/>
<path d="M60.8872 154.069V156.657" stroke="white" stroke-width="0.6" stroke-linejoin="round"/>
<path d="M56.1226 146.25H50.8445V154.394H56.1226V146.25Z" fill="#365DA0" stroke="white" stroke-width="0.6" stroke-linecap="round" stroke-linejoin="round"/>
<path d="M53.4857 144.961L56.1226 146.251H50.8445L53.4857 144.961Z" fill="white" stroke="white" stroke-width="0.6" stroke-linejoin="round"/>
<path d="M56.1226 154.069V156.657" stroke="white" stroke-width="0.6" stroke-linejoin="round"/>
<path d="M50.8445 154.069V156.657" stroke="white" stroke-width="0.6" stroke-linejoin="round"/>
<path d="M78.801 139.099H47.8171V141.854H78.801V139.099Z" fill="white" stroke="#9DAFCC" stroke-width="0.6" stroke-linejoin="round"/>
<path d="M74.9446 135.659H71.5049V139.099H74.9446V135.659Z" fill="white" stroke="#9DAFCC" stroke-width="0.6" stroke-linejoin="round"/>
<path d="M73.2203 135.659C74.1144 135.659 74.8392 134.934 74.8392 134.04C74.8392 133.146 74.1144 132.421 73.2203 132.421C72.3261 132.421 71.6013 133.146 71.6013 134.04C71.6013 134.934 72.3261 135.659 73.2203 135.659Z" fill="white" stroke="#9DAFCC" stroke-width="0.6" stroke-linejoin="round"/>
<path d="M40.5384 155.39H37.0986V158.829H40.5384V155.39Z" fill="white" stroke="#9DAFCC" stroke-width="0.6" stroke-linejoin="round"/>
<path d="M38.8184 155.39C39.7125 155.39 40.4374 154.665 40.4374 153.771C40.4374 152.876 39.7125 152.152 38.8184 152.152C37.9243 152.152 37.1995 152.876 37.1995 153.771C37.1995 154.665 37.9243 155.39 38.8184 155.39Z" fill="white" stroke="#9DAFCC" stroke-width="0.6" stroke-linejoin="round"/>
<path d="M28.3106 155.39H24.8708V158.829H28.3106V155.39Z" fill="white" stroke="#9DAFCC" stroke-width="0.6" stroke-linejoin="round"/>
<path d="M26.5906 155.39C27.4847 155.39 28.2096 154.665 28.2096 153.771C28.2096 152.876 27.4847 152.152 26.5906 152.152C25.6965 152.152 24.9717 152.876 24.9717 153.771C24.9717 154.665 25.6965 155.39 26.5906 155.39Z" fill="white" stroke="#9DAFCC" stroke-width="0.6" stroke-linejoin="round"/>
<path d="M67.9161 135.659H64.4763V139.099H67.9161V135.659Z" fill="white" stroke="#9DAFCC" stroke-width="0.6" stroke-linejoin="round"/>
<path d="M66.1961 135.659C67.0903 135.659 67.8151 134.934 67.8151 134.04C67.8151 133.146 67.0903 132.421 66.1961 132.421C65.3019 132.421 64.5771 133.146 64.5771 134.04C64.5771 134.934 65.3019 135.659 66.1961 135.659Z" fill="white" stroke="#9DAFCC" stroke-width="0.6" stroke-linejoin="round"/>
<path d="M60.8873 135.659H49.3264V139.099H60.8873V135.659Z" fill="#E4EBF5" stroke="#9DAFCC" stroke-width="0.6" stroke-linejoin="round"/>
<path d="M60.8873 135.659H57.4475V139.099H60.8873V135.659Z" fill="white" stroke="#9DAFCC" stroke-width="0.6" stroke-linejoin="round"/>
<path d="M59.1675 135.659C60.0617 135.659 60.7865 134.934 60.7865 134.04C60.7865 133.146 60.0617 132.421 59.1675 132.421C58.2734 132.421 57.5486 133.146 57.5486 134.04C57.5486 134.934 58.2734 135.659 59.1675 135.659Z" fill="white" stroke="#9DAFCC" stroke-width="0.6" stroke-linejoin="round"/>
<path d="M148.543 176.304H181.787V158.829H148.543V176.304Z" fill="#E4EBF5" stroke="#9DAFCC" stroke-width="0.6" stroke-linejoin="round"/>
<path d="M113.9 176.304H148.539V141.854H113.9V176.304Z" fill="#E4EBF5" stroke="#9DAFCC" stroke-width="0.6" stroke-linejoin="round"/>
<path d="M155.375 164.283C154.56 164.283 153.779 164.606 153.203 165.182C152.627 165.758 152.303 166.539 152.303 167.354V176.304H158.446V167.354C158.446 166.539 158.123 165.758 157.546 165.182C156.97 164.606 156.189 164.283 155.375 164.283Z" fill="#365DA0" stroke="#9DAFCC" stroke-width="0.6" stroke-linecap="round" stroke-linejoin="round"/>
<path d="M165.163 164.283C164.349 164.283 163.567 164.606 162.991 165.182C162.416 165.758 162.092 166.539 162.092 167.354V176.304H168.234V167.354C168.234 166.539 167.911 165.758 167.335 165.182C166.759 164.606 165.978 164.283 165.163 164.283Z" fill="#365DA0" stroke="#9DAFCC" stroke-width="0.6" stroke-linecap="round" stroke-linejoin="round"/>
<path d="M174.951 164.283C174.137 164.283 173.356 164.606 172.78 165.182C172.204 165.758 171.88 166.539 171.88 167.354V176.304H178.023V167.354C178.023 166.539 177.699 165.758 177.123 165.182C176.547 164.606 175.766 164.283 174.951 164.283Z" fill="#365DA0" stroke="#9DAFCC" stroke-width="0.6" stroke-linecap="round" stroke-linejoin="round"/>
<path d="M125.562 164.09C124.864 164.09 124.194 164.367 123.701 164.861C123.207 165.355 122.93 166.024 122.93 166.722V173.935H128.195V166.731C128.196 166.384 128.129 166.041 127.997 165.721C127.865 165.4 127.671 165.109 127.427 164.864C127.182 164.619 126.892 164.424 126.572 164.291C126.252 164.158 125.909 164.09 125.562 164.09Z" fill="#365DA0" stroke="white" stroke-width="0.6" stroke-linecap="round" stroke-linejoin="round"/>
<path d="M122.925 167.565H128.203" stroke="white" stroke-width="0.6" stroke-linecap="round" stroke-linejoin="round"/>
<path d="M134.341 164.09C133.643 164.09 132.974 164.367 132.48 164.861C131.986 165.355 131.709 166.024 131.709 166.722V173.935H136.974V166.731C136.975 166.384 136.908 166.041 136.776 165.721C136.644 165.4 136.45 165.109 136.206 164.864C135.961 164.619 135.671 164.424 135.351 164.291C135.031 164.158 134.688 164.09 134.341 164.09Z" fill="#365DA0" stroke="white" stroke-width="0.6" stroke-linecap="round" stroke-linejoin="round"/>
<path d="M131.7 167.565H136.978" stroke="white" stroke-width="0.6" stroke-linecap="round" stroke-linejoin="round"/>
<path d="M144.38 164.09C143.682 164.09 143.012 164.367 142.518 164.861C142.025 165.355 141.747 166.024 141.747 166.722V173.935H147.012V166.731C147.014 166.384 146.946 166.041 146.814 165.721C146.683 165.4 146.489 165.109 146.244 164.864C146 164.619 145.709 164.424 145.389 164.291C145.069 164.158 144.726 164.09 144.38 164.09Z" fill="#365DA0" stroke="white" stroke-width="0.6" stroke-linecap="round" stroke-linejoin="round"/>
<path d="M141.743 167.565H147.021" stroke="white" stroke-width="0.6" stroke-linecap="round" stroke-linejoin="round"/>
<path d="M148.539 158.829H119.718V161.598H148.539V158.829Z" fill="white" stroke="#9DAFCC" stroke-width="0.6" stroke-linejoin="round"/>
<path d="M181.783 158.829H148.539V161.598H181.783V158.829Z" fill="white" stroke="#9DAFCC" stroke-width="0.6" stroke-linejoin="round"/>
<path d="M128.203 146.25H122.925V154.394H128.203V146.25Z" fill="#365DA0" stroke="white" stroke-width="0.6" stroke-linecap="round" stroke-linejoin="round"/>
<path d="M125.562 144.961L122.925 146.251H128.203L125.562 144.961Z" fill="white" stroke="white" stroke-width="0.6" stroke-linejoin="round"/>
<path d="M122.925 154.069V156.657" stroke="white" stroke-width="0.6" stroke-linejoin="round"/>
<path d="M128.203 154.069V156.657" stroke="white" stroke-width="0.6" stroke-linejoin="round"/>
<path d="M136.978 146.25H131.7V154.394H136.978V146.25Z" fill="#365DA0" stroke="white" stroke-width="0.6" stroke-linecap="round" stroke-linejoin="round"/>
<path d="M134.341 144.961L131.7 146.251H136.978L134.341 144.961Z" fill="white" stroke="white" stroke-width="0.6" stroke-linejoin="round"/>
<path d="M131.7 154.069V156.657" stroke="white" stroke-width="0.6" stroke-linejoin="round"/>
<path d="M136.978 154.069V156.657" stroke="white" stroke-width="0.6" stroke-linejoin="round"/>
<path d="M147.021 146.25H141.743V154.394H147.021V146.25Z" fill="#365DA0" stroke="white" stroke-width="0.6" stroke-linecap="round" stroke-linejoin="round"/>
<path d="M144.38 144.961L141.743 146.251H147.021L144.38 144.961Z" fill="white" stroke="white" stroke-width="0.6" stroke-linejoin="round"/>
<path d="M141.743 154.069V156.657" stroke="white" stroke-width="0.6" stroke-linejoin="round"/>
<path d="M147.021 154.069V156.657" stroke="white" stroke-width="0.6" stroke-linejoin="round"/>
<path d="M119.064 141.854H150.048V139.099H119.064V141.854Z" fill="white" stroke="#9DAFCC" stroke-width="0.6" stroke-linejoin="round"/>
<path d="M122.921 139.099H126.361V135.659H122.921V139.099Z" fill="white" stroke="#9DAFCC" stroke-width="0.6" stroke-linejoin="round"/>
<path d="M124.645 135.659C125.539 135.659 126.264 134.934 126.264 134.04C126.264 133.146 125.539 132.421 124.645 132.421C123.751 132.421 123.026 133.146 123.026 134.04C123.026 134.934 123.751 135.659 124.645 135.659Z" fill="white" stroke="#9DAFCC" stroke-width="0.6" stroke-linejoin="round"/>
<path d="M157.327 158.829H160.767V155.39H157.327V158.829Z" fill="white" stroke="#9DAFCC" stroke-width="0.6" stroke-linejoin="round"/>
<path d="M159.047 155.39C159.941 155.39 160.666 154.665 160.666 153.771C160.666 152.876 159.941 152.152 159.047 152.152C158.153 152.152 157.428 152.876 157.428 153.771C157.428 154.665 158.153 155.39 159.047 155.39Z" fill="white" stroke="#9DAFCC" stroke-width="0.6" stroke-linejoin="round"/>
<path d="M169.555 158.829H172.995V155.39H169.555V158.829Z" fill="white" stroke="#9DAFCC" stroke-width="0.6" stroke-linejoin="round"/>
<path d="M171.275 155.39C172.169 155.39 172.894 154.665 172.894 153.771C172.894 152.876 172.169 152.152 171.275 152.152C170.381 152.152 169.656 152.876 169.656 153.771C169.656 154.665 170.381 155.39 171.275 155.39Z" fill="white" stroke="#9DAFCC" stroke-width="0.6" stroke-linejoin="round"/>
<path d="M129.95 139.099H133.389V135.659H129.95V139.099Z" fill="white" stroke="#9DAFCC" stroke-width="0.6" stroke-linejoin="round"/>
<path d="M131.669 135.659C132.564 135.659 133.288 134.934 133.288 134.04C133.288 133.146 132.564 132.421 131.669 132.421C130.775 132.421 130.051 133.146 130.051 134.04C130.051 134.934 130.775 135.659 131.669 135.659Z" fill="white" stroke="#9DAFCC" stroke-width="0.6" stroke-linejoin="round"/>
<path d="M136.978 139.099H148.539V135.659H136.978V139.099Z" fill="#E4EBF5" stroke="#9DAFCC" stroke-width="0.6" stroke-linejoin="round"/>
<path d="M136.974 139.099H140.414V135.659H136.974V139.099Z" fill="white" stroke="#9DAFCC" stroke-width="0.6" stroke-linejoin="round"/>
<path d="M138.698 135.659C139.592 135.659 140.317 134.934 140.317 134.04C140.317 133.146 139.592 132.421 138.698 132.421C137.804 132.421 137.079 133.146 137.079 134.04C137.079 134.934 137.804 135.659 138.698 135.659Z" fill="white" stroke="#9DAFCC" stroke-width="0.6" stroke-linejoin="round"/>
<path d="M117.458 128.705H80.4111V154.49H117.458V128.705Z" fill="#E4EBF5" stroke="#9DAFCC" stroke-width="0.6" stroke-linejoin="round"/>
<path d="M117.458 139.099H80.4111V141.854H117.458V139.099Z" fill="white" stroke="#9DAFCC" stroke-width="0.6" stroke-linejoin="round"/>
<path d="M106.301 128.705H103.919L102.853 158.829H107.367L106.301 128.705Z" fill="white" stroke="#9DAFCC" stroke-width="0.6" stroke-linejoin="round"/>
<path d="M107.139 128.705H103.081V131.355H107.139V128.705Z" fill="white" stroke="#9DAFCC" stroke-width="0.6" stroke-linejoin="round"/>
<path d="M93.9507 128.705H91.5683L90.5022 158.829H95.0212L93.9507 128.705Z" fill="white" stroke="#9DAFCC" stroke-width="0.6" stroke-linejoin="round"/>
<path d="M94.7932 128.705H90.7349V131.355H94.7932V128.705Z" fill="white" stroke="#9DAFCC" stroke-width="0.6" stroke-linejoin="round"/>
<path d="M117.458 154.49H80.4111V158.829H117.458V154.49Z" fill="white" stroke="#9DAFCC" stroke-width="0.6" stroke-linejoin="round"/>
<path d="M119.709 158.829H78.1519V176.304H119.709V158.829Z" fill="#E4EBF5" stroke="#9DAFCC" stroke-width="0.6" stroke-linejoin="round"/>
<path d="M119.709 158.829H78.1519V161.598H119.709V158.829Z" fill="white" stroke="#9DAFCC" stroke-width="0.6" stroke-linejoin="round"/>
<path d="M98.9305 164.09C98.2325 164.09 97.563 164.367 97.069 164.861C96.5754 165.355 96.2981 166.024 96.2981 166.722V173.935H101.563V166.731C101.564 166.384 101.497 166.041 101.365 165.721C101.234 165.4 101.04 165.109 100.795 164.864C100.55 164.619 100.26 164.424 99.9401 164.291C99.6203 164.158 99.2772 164.09 98.9305 164.09Z" fill="#365DA0" stroke="white" stroke-width="0.6" stroke-linecap="round" stroke-linejoin="round"/>
<path d="M96.2937 167.565H101.572" stroke="white" stroke-width="0.6" stroke-linecap="round" stroke-linejoin="round"/>
<path d="M111.277 164.09C110.579 164.09 109.909 164.367 109.415 164.861C108.922 165.355 108.645 166.024 108.645 166.722V173.935H113.909V166.731C113.91 166.384 113.843 166.041 113.712 165.721C113.58 165.4 113.386 165.109 113.141 164.864C112.897 164.619 112.606 164.424 112.286 164.291C111.966 164.158 111.623 164.09 111.277 164.09Z" fill="#365DA0" stroke="white" stroke-width="0.6" stroke-linecap="round" stroke-linejoin="round"/>
<path d="M108.622 167.565H113.9" stroke="white" stroke-width="0.6" stroke-linecap="round" stroke-linejoin="round"/>
<path d="M86.6019 164.09C85.9039 164.09 85.2344 164.367 84.7403 164.861C84.2468 165.355 83.9695 166.024 83.9695 166.722V173.935H89.2344V166.731C89.2357 166.384 89.1681 166.041 89.0365 165.721C88.9049 165.4 88.711 165.109 88.4666 164.864C88.2218 164.619 87.9313 164.424 87.6115 164.291C87.2912 164.158 86.9485 164.09 86.6019 164.09Z" fill="#365DA0" stroke="white" stroke-width="0.6" stroke-linecap="round" stroke-linejoin="round"/>
<path d="M83.9651 167.565H89.2431" stroke="white" stroke-width="0.6" stroke-linecap="round" stroke-linejoin="round"/>
<path d="M118.652 128.705H116.27L115.199 158.829H119.718L118.652 128.705Z" fill="white" stroke="#9DAFCC" stroke-width="0.6" stroke-linejoin="round"/>
<path d="M119.49 128.705H115.432V131.355H119.49V128.705Z" fill="white" stroke="#9DAFCC" stroke-width="0.6" stroke-linejoin="round"/>
<path d="M81.6048 128.705H79.2224L78.1519 158.829H82.6709L81.6048 128.705Z" fill="white" stroke="#9DAFCC" stroke-width="0.6" stroke-linejoin="round"/>
<path d="M82.4426 128.705H78.3843V131.355H82.4426V128.705Z" fill="white" stroke="#9DAFCC" stroke-width="0.6" stroke-linejoin="round"/>
<path d="M119.49 125.792H78.3843V128.705H119.49V125.792Z" fill="white" stroke="#9DAFCC" stroke-width="0.6" stroke-linejoin="round"/>
<path d="M120.258 120.18H77.6123V122.879H120.258V120.18Z" fill="white" stroke="#9DAFCC" stroke-width="0.6" stroke-linejoin="round"/>
<path d="M119.49 122.879H78.3843V125.792H119.49V122.879Z" fill="#E4EBF5" stroke="#9DAFCC" stroke-width="0.6" stroke-linejoin="round"/>
<path d="M98.9352 110.335L77.6123 120.181H120.258L98.9352 110.335Z" fill="#E4EBF5" stroke="#9DAFCC" stroke-width="0.6" stroke-linejoin="round"/>
<path d="M98.935 112.542L87.032 118.259H110.838L98.935 112.542Z" fill="white"/>
<path d="M80.4158 120.18V122.879" stroke="#9DAFCC" stroke-width="0.6" stroke-linejoin="round"/>
<path d="M92.7664 120.18V122.879" stroke="#9DAFCC" stroke-width="0.6" stroke-linejoin="round"/>
<path d="M105.113 120.18V122.879" stroke="#9DAFCC" stroke-width="0.6" stroke-linejoin="round"/>
<path d="M117.463 120.18V122.879" stroke="#9DAFCC" stroke-width="0.6" stroke-linejoin="round"/>
<path d="M111.29 120.18V122.879" stroke="#9DAFCC" stroke-width="0.6" stroke-linejoin="round"/>
<path d="M98.9392 120.18V122.879" stroke="#9DAFCC" stroke-width="0.6" stroke-linejoin="round"/>
<path d="M86.5886 120.18V122.879" stroke="#9DAFCC" stroke-width="0.6" stroke-linejoin="round"/>
<path d="M100.721 131.355H97.1538V136.962H100.721V131.355Z" fill="#365DA0" stroke="white" stroke-width="0.6" stroke-linejoin="round"/>
<path d="M113.067 131.355H109.5V136.962H113.067V131.355Z" fill="#365DA0" stroke="white" stroke-width="0.6" stroke-linejoin="round"/>
<path d="M88.3702 131.355H84.8032V136.962H88.3702V131.355Z" fill="#365DA0" stroke="white" stroke-width="0.6" stroke-linejoin="round"/>
<path d="M100.721 146.25H97.1538V151.858H100.721V146.25Z" fill="#365DA0" stroke="white" stroke-width="0.6" stroke-linejoin="round"/>
<path d="M113.067 146.25H109.5V151.858H113.067V146.25Z" fill="#365DA0" stroke="white" stroke-width="0.6" stroke-linejoin="round"/>
<path d="M88.3702 146.25H84.8032V151.858H88.3702V146.25Z" fill="#365DA0" stroke="white" stroke-width="0.6" stroke-linejoin="round"/>
<path d="M98.9351 144.961L97.1538 146.251H100.721L98.9351 144.961Z" fill="white" stroke="white" stroke-width="0.6" stroke-linejoin="round"/>
<path d="M111.285 144.961L109.5 146.251H113.067L111.285 144.961Z" fill="white" stroke="white" stroke-width="0.6" stroke-linejoin="round"/>
<path d="M86.5889 144.961L84.8032 146.251H88.3702L86.5889 144.961Z" fill="white" stroke="white" stroke-width="0.6" stroke-linejoin="round"/>
<path d="M181.782 176.304H16.0784V180.92H181.782V176.304Z" fill="#365DA0" stroke="#9DAFCC" stroke-width="0.6" stroke-linejoin="round"/>
<path d="M216.715 131.18H159.911V139.805H216.715V131.18Z" fill="#F25451" stroke="#9DAFCC" stroke-width="0.6" stroke-linecap="round" stroke-linejoin="round"/>
<path d="M156.937 121.747H137.088V130.372H156.937V121.747Z" fill="#F25451" stroke="#9DAFCC" stroke-width="0.6" stroke-linecap="round" stroke-linejoin="round"/>
<path d="M146.885 74.9813C147.735 75.0098 148.562 74.7003 149.184 74.1206C149.807 73.5409 150.174 72.7382 150.206 71.8882C150.206 69.5365 148.381 69.2821 146.885 66.7812C145.385 69.2821 143.564 69.5365 143.564 71.8882C143.596 72.7382 143.963 73.5409 144.586 74.1206C145.208 74.7003 146.035 75.0098 146.885 74.9813Z" fill="#F25451" stroke="#9DAFCC" stroke-width="0.6" stroke-linejoin="round"/>
<path d="M145.292 80.2419L138.356 111.551H155.673L148.737 80.2419H145.292Z" fill="white" stroke="#9DAFCC" stroke-width="0.6" stroke-miterlimit="10"/>
<path d="M148.732 74.9812H145.292V80.2373H148.732V74.9812Z" fill="#F25451" stroke="#9DAFCC" stroke-width="0.6" stroke-miterlimit="10"/>
<path d="M152.957 109.673C151.312 109.673 149.978 111.16 149.978 112.998C149.978 111.16 148.662 109.673 146.999 109.673C145.336 109.673 144.025 111.16 144.025 112.998C144.025 111.16 142.708 109.673 141.045 109.673C139.383 109.673 138.066 111.16 138.066 112.998V121.747H155.936V112.998C155.949 111.16 154.616 109.673 152.957 109.673Z" fill="#F25451" stroke="#9DAFCC" stroke-width="0.6" stroke-linecap="round" stroke-linejoin="round"/>
<path d="M147.012 98.3838C146.135 98.3838 145.42 99.2613 145.42 100.336V104.614H148.609V100.332C148.609 99.2569 147.894 98.3838 147.012 98.3838Z" fill="white" stroke="#F25451" stroke-width="0.6" stroke-linecap="round" stroke-linejoin="round"/>
<path d="M147.012 114.674C147.508 114.696 147.975 114.913 148.311 115.278C148.648 115.643 148.826 116.127 148.807 116.622V121.747H145.222V116.622C145.202 116.127 145.379 115.643 145.715 115.278C146.05 114.913 146.517 114.696 147.012 114.674Z" fill="#365DA0" stroke="#9DAFCC" stroke-width="0.6" stroke-miterlimit="10"/>
<path d="M154.142 114.674C154.637 114.696 155.104 114.913 155.44 115.278C155.775 115.643 155.952 116.127 155.932 116.622V121.747H152.352V116.622C152.331 116.127 152.509 115.643 152.844 115.278C153.18 114.913 153.646 114.696 154.142 114.674Z" fill="#365DA0" stroke="#9DAFCC" stroke-width="0.6" stroke-miterlimit="10"/>
<path d="M139.869 114.674C140.365 114.696 140.832 114.913 141.167 115.278C141.503 115.643 141.68 116.127 141.66 116.622V121.747H138.079V116.622C138.059 116.127 138.236 115.643 138.572 115.278C138.907 114.913 139.374 114.696 139.869 114.674Z" fill="#365DA0" stroke="#9DAFCC" stroke-width="0.6" stroke-miterlimit="10"/>
<path d="M159.942 130.377H133.824V140.494H159.942V130.377Z" fill="#F25451" stroke="#9DAFCC" stroke-width="0.6" stroke-linecap="round" stroke-linejoin="round"/>
<path d="M133.824 134.374H159.942" stroke="#9DAFCC" stroke-width="0.6" stroke-linecap="round" stroke-linejoin="round"/>
<path d="M146.969 66.7812V52" stroke="#9DAFCC" stroke-width="0.6" stroke-linejoin="round"/>
<path d="M143.208 57.0938H150.557" stroke="#9DAFCC" stroke-width="0.6" stroke-linejoin="round"/>
<path d="M145.218 54.2463H148.719" stroke="#9DAFCC" stroke-width="0.6" stroke-linejoin="round"/>
<path d="M144.876 60.854L148.996 63.0916" stroke="#9DAFCC" stroke-width="0.6" stroke-linejoin="round"/>
<path d="M216.715 139.805H174.895V180.92H216.715V139.805Z" fill="#F25451" stroke="#9DAFCC" stroke-width="0.6" stroke-linecap="round" stroke-linejoin="round"/>
<path d="M180.839 145.75H216.715" stroke="white" stroke-width="0.6" stroke-linecap="round" stroke-linejoin="round"/>
<path d="M180.839 173.273H216.715" stroke="white" stroke-width="0.6" stroke-linecap="round" stroke-linejoin="round"/>
<path d="M216.729 166.024H174.895V169.122H216.729V166.024Z" fill="white" stroke="#9DAFCC" stroke-width="0.6" stroke-linecap="round" stroke-linejoin="round"/>
<path d="M180.835 139.805H174.895V180.92H180.835V139.805Z" stroke="#9DAFCC" stroke-width="0.6" stroke-linecap="round" stroke-linejoin="round"/>
<path d="M180.835 138.801H174.895V145.746H180.835V138.801Z" fill="white" stroke="#9DAFCC" stroke-width="0.6" stroke-linecap="round" stroke-linejoin="round"/>
<path d="M174.895 150.063H180.839" stroke="#9DAFCC" stroke-width="0.6" stroke-linecap="round" stroke-linejoin="round"/>
<path d="M201.745 145.75H195.805V166.025H201.745V145.75Z" stroke="#9DAFCC" stroke-width="0.6" stroke-linecap="round" stroke-linejoin="round"/>
<path d="M195.805 150.063H201.745" stroke="#9DAFCC" stroke-width="0.6" stroke-linecap="round" stroke-linejoin="round"/>
<path d="M201.745 138.801H195.805V145.746H201.745V138.801Z" fill="white" stroke="#9DAFCC" stroke-width="0.6" stroke-linecap="round" stroke-linejoin="round"/>
<path d="M209.23 156.127C211.389 156.127 213.139 154.758 213.139 153.069C213.139 151.38 211.389 150.01 209.23 150.01C207.071 150.01 205.321 151.38 205.321 153.069C205.321 154.758 207.071 156.127 209.23 156.127Z" fill="#365DA0" stroke="white" stroke-width="0.6" stroke-linecap="round" stroke-linejoin="round"/>
<path d="M213.144 153.068H205.321V165.02H213.144V153.068Z" fill="#365DA0" stroke="white" stroke-width="0.6" stroke-linecap="round" stroke-linejoin="round"/>
<path d="M205.321 157.052H213.139" stroke="white" stroke-width="0.6" stroke-linecap="round" stroke-linejoin="round"/>
<path d="M205.321 161.036H213.139" stroke="white" stroke-width="0.6" stroke-linecap="round" stroke-linejoin="round"/>
<path d="M209.23 153.068V165.02" stroke="white" stroke-width="0.6" stroke-linecap="round" stroke-linejoin="round"/>
<path d="M188.32 156.127C190.479 156.127 192.229 154.758 192.229 153.069C192.229 151.38 190.479 150.01 188.32 150.01C186.161 150.01 184.41 151.38 184.41 153.069C184.41 154.758 186.161 156.127 188.32 156.127Z" fill="#365DA0" stroke="white" stroke-width="0.6" stroke-linecap="round" stroke-linejoin="round"/>
<path d="M192.233 153.068H184.41V165.02H192.233V153.068Z" fill="#365DA0" stroke="white" stroke-width="0.6" stroke-linecap="round" stroke-linejoin="round"/>
<path d="M184.41 157.052H192.233" stroke="white" stroke-width="0.6" stroke-linecap="round" stroke-linejoin="round"/>
<path d="M184.41 161.036H192.233" stroke="white" stroke-width="0.6" stroke-linecap="round" stroke-linejoin="round"/>
<path d="M188.32 153.068V165.02" stroke="white" stroke-width="0.6" stroke-linecap="round" stroke-linejoin="round"/>
<path d="M190.619 176.326H186.021V180.924H190.619V176.326Z" fill="#365DA0" stroke="#9DAFCC" stroke-width="0.6" stroke-linecap="round" stroke-linejoin="round"/>
<path d="M211.529 176.326H206.931V180.924H211.529V176.326Z" fill="#365DA0" stroke="#9DAFCC" stroke-width="0.6" stroke-linecap="round" stroke-linejoin="round"/>
<path d="M174.881 139.805H133.06V180.92H174.881V139.805Z" fill="#F25451" stroke="#9DAFCC" stroke-width="0.6" stroke-linecap="round" stroke-linejoin="round"/>
<path d="M139.001 145.75H174.877" stroke="white" stroke-width="0.6" stroke-linecap="round" stroke-linejoin="round"/>
<path d="M139.001 173.273H174.877" stroke="white" stroke-width="0.6" stroke-linecap="round" stroke-linejoin="round"/>
<path d="M174.894 166.024H133.06V169.122H174.894V166.024Z" fill="white" stroke="#9DAFCC" stroke-width="0.6" stroke-linecap="round" stroke-linejoin="round"/>
<path d="M139.001 139.805H133.06V180.92H139.001V139.805Z" stroke="#9DAFCC" stroke-width="0.6" stroke-linecap="round" stroke-linejoin="round"/>
<path d="M139.001 138.801H133.06V145.746H139.001V138.801Z" fill="white" stroke="#9DAFCC" stroke-width="0.6" stroke-linecap="round" stroke-linejoin="round"/>
<path d="M133.06 150.063H139.001" stroke="#9DAFCC" stroke-width="0.6" stroke-linecap="round" stroke-linejoin="round"/>
<path d="M159.907 145.75H153.966V166.025H159.907V145.75Z" stroke="#9DAFCC" stroke-width="0.6" stroke-linecap="round" stroke-linejoin="round"/>
<path d="M153.966 150.063H159.911" stroke="#9DAFCC" stroke-width="0.6" stroke-linecap="round" stroke-linejoin="round"/>
<path d="M159.907 138.801H153.966V145.746H159.907V138.801Z" fill="white" stroke="#9DAFCC" stroke-width="0.6" stroke-linecap="round" stroke-linejoin="round"/>
<path d="M167.396 156.127C169.555 156.127 171.305 154.758 171.305 153.069C171.305 151.38 169.555 150.01 167.396 150.01C165.237 150.01 163.487 151.38 163.487 153.069C163.487 154.758 165.237 156.127 167.396 156.127Z" fill="#365DA0" stroke="white" stroke-width="0.6" stroke-linecap="round" stroke-linejoin="round"/>
<path d="M171.305 153.068H163.483V165.02H171.305V153.068Z" fill="#365DA0" stroke="white" stroke-width="0.6" stroke-linecap="round" stroke-linejoin="round"/>
<path d="M163.483 157.052H171.305" stroke="white" stroke-width="0.6" stroke-linecap="round" stroke-linejoin="round"/>
<path d="M163.483 161.036H171.305" stroke="white" stroke-width="0.6" stroke-linecap="round" stroke-linejoin="round"/>
<path d="M167.396 153.068V165.02" stroke="white" stroke-width="0.6" stroke-linecap="round" stroke-linejoin="round"/>
<path d="M146.486 156.127C148.645 156.127 150.395 154.758 150.395 153.069C150.395 151.38 148.645 150.01 146.486 150.01C144.327 150.01 142.576 151.38 142.576 153.069C142.576 154.758 144.327 156.127 146.486 156.127Z" fill="#365DA0" stroke="white" stroke-width="0.6" stroke-linecap="round" stroke-linejoin="round"/>
<path d="M150.395 153.068H142.572V165.02H150.395V153.068Z" fill="#365DA0" stroke="white" stroke-width="0.6" stroke-linecap="round" stroke-linejoin="round"/>
<path d="M142.572 157.052H150.395" stroke="white" stroke-width="0.6" stroke-linecap="round" stroke-linejoin="round"/>
<path d="M142.572 161.036H150.395" stroke="white" stroke-width="0.6" stroke-linecap="round" stroke-linejoin="round"/>
<path d="M146.486 153.068V165.02" stroke="white" stroke-width="0.6" stroke-linecap="round" stroke-linejoin="round"/>
<path d="M148.785 176.326H144.187V180.924H148.785V176.326Z" fill="#365DA0" stroke="#9DAFCC" stroke-width="0.6" stroke-linecap="round" stroke-linejoin="round"/>
<path d="M169.695 176.326H165.097V180.924H169.695V176.326Z" fill="#365DA0" stroke="#9DAFCC" stroke-width="0.6" stroke-linecap="round" stroke-linejoin="round"/>
<path d="M235.283 113.911L215.982 123.559H254.579L235.283 113.911Z" fill="#E4EBF5" stroke="#9DAFCC" stroke-width="0.6" stroke-linecap="round" stroke-linejoin="round"/>
<path d="M253.385 123.712H216.733V135.664H253.385V123.712Z" fill="#F25451" stroke="#9DAFCC" stroke-width="0.6" stroke-linecap="round" stroke-linejoin="round"/>
<path d="M221.769 123.712H216.733V135.664H221.769V123.712Z" fill="#F25451" stroke="#9DAFCC" stroke-width="0.6" stroke-linecap="round" stroke-linejoin="round"/>
<path d="M221.769 123.712H216.733V128.749H221.769V123.712Z" fill="white" stroke="#9DAFCC" stroke-width="0.6" stroke-linecap="round" stroke-linejoin="round"/>
<path d="M253.385 123.712H248.348V135.664H253.385V123.712Z" fill="#F25451" stroke="#9DAFCC" stroke-width="0.6" stroke-linecap="round" stroke-linejoin="round"/>
<path d="M253.385 123.712H248.348V128.749H253.385V123.712Z" fill="white" stroke="#9DAFCC" stroke-width="0.6" stroke-linecap="round" stroke-linejoin="round"/>
<path d="M253.368 135.664H216.715V139.806H253.368V135.664Z" fill="#F25451" stroke="#9DAFCC" stroke-width="0.6" stroke-linecap="round" stroke-linejoin="round"/>
<path d="M254.307 139.805H216.715V180.92H254.307V139.805Z" fill="#F25451" stroke="#9DAFCC" stroke-width="0.6" stroke-linecap="round" stroke-linejoin="round"/>
<path d="M222.656 145.75H248.362" stroke="white" stroke-width="0.6" stroke-linecap="round" stroke-linejoin="round"/>
<path d="M222.656 173.273H248.362" stroke="white" stroke-width="0.6" stroke-linecap="round" stroke-linejoin="round"/>
<path d="M233.616 153.275H226.122V166.029H233.616V153.275Z" fill="#365DA0" stroke="white" stroke-width="0.6" stroke-linecap="round" stroke-linejoin="round"/>
<path d="M229.869 150.625L226.122 153.275H233.616L229.869 150.625Z" fill="#E4EBF5" stroke="white" stroke-width="0.6" stroke-linecap="round" stroke-linejoin="round"/>
<path d="M244.896 153.275H237.402V166.029H244.896V153.275Z" fill="#365DA0" stroke="white" stroke-width="0.6" stroke-linecap="round" stroke-linejoin="round"/>
<path d="M241.149 150.625L237.402 153.275H244.896L241.149 150.625Z" fill="#E4EBF5" stroke="white" stroke-width="0.6" stroke-linecap="round" stroke-linejoin="round"/>
<path d="M254.307 166.024H216.715V169.122H254.307V166.024Z" fill="white" stroke="#9DAFCC" stroke-width="0.6" stroke-linecap="round" stroke-linejoin="round"/>
<path d="M222.656 139.805H216.715V180.92H222.656V139.805Z" stroke="#9DAFCC" stroke-width="0.6" stroke-linecap="round" stroke-linejoin="round"/>
<path d="M222.656 138.801H216.715V145.746H222.656V138.801Z" fill="white" stroke="#9DAFCC" stroke-width="0.6" stroke-linecap="round" stroke-linejoin="round"/>
<path d="M216.715 150.063H222.656" stroke="#9DAFCC" stroke-width="0.6" stroke-linecap="round" stroke-linejoin="round"/>
<path d="M254.302 139.805H248.362V180.92H254.302V139.805Z" stroke="#9DAFCC" stroke-width="0.6" stroke-linecap="round" stroke-linejoin="round"/>
<path d="M254.302 138.801H248.362V145.746H254.302V138.801Z" fill="white" stroke="#9DAFCC" stroke-width="0.6" stroke-linecap="round" stroke-linejoin="round"/>
<path d="M248.362 150.063H254.302" stroke="#9DAFCC" stroke-width="0.6" stroke-linecap="round" stroke-linejoin="round"/>
<path d="M227.192 126.551C226.675 126.551 226.178 126.757 225.812 127.123C225.446 127.489 225.24 127.986 225.24 128.503V132.79H229.145V128.503C229.143 127.986 228.937 127.49 228.571 127.124C228.205 126.758 227.71 126.552 227.192 126.551Z" fill="#365DA0" stroke="white" stroke-width="0.6" stroke-linecap="round" stroke-linejoin="round"/>
<path d="M235.059 126.551C234.541 126.551 234.044 126.757 233.678 127.123C233.312 127.489 233.106 127.986 233.106 128.503V132.79H237.011V128.503C237.01 127.986 236.804 127.49 236.438 127.124C236.072 126.758 235.576 126.552 235.059 126.551Z" fill="#365DA0" stroke="white" stroke-width="0.6" stroke-linecap="round" stroke-linejoin="round"/>
<path d="M242.926 126.551C242.408 126.551 241.911 126.757 241.545 127.123C241.179 127.489 240.973 127.986 240.973 128.503V132.79H244.878V128.503C244.878 127.986 244.672 127.489 244.306 127.123C243.94 126.757 243.443 126.551 242.926 126.551Z" fill="#365DA0" stroke="white" stroke-width="0.6" stroke-linecap="round" stroke-linejoin="round"/>
<path d="M235.524 102.692C231.137 102.692 227.596 99.9764 227.596 96.6288C227.596 91.9386 232.067 91.1313 235.524 85.9673C238.986 91.1313 243.456 91.9386 243.456 96.6288C243.456 99.9764 239.907 102.692 235.524 102.692Z" fill="#F25451" stroke="#9DAFCC" stroke-width="0.6" stroke-linecap="round" stroke-linejoin="round"/>
<path d="M242.259 101.24H228.794V118.101H242.259V101.24Z" fill="#F25451" stroke="#9DAFCC" stroke-width="0.6" stroke-linecap="round" stroke-linejoin="round"/>
<path d="M229.017 113.911H242" stroke="#9DAFCC" stroke-width="0.6" stroke-linecap="round" stroke-linejoin="round"/>
<path d="M244.711 109.804C242.307 109.804 240.354 108.308 240.354 106.47C240.354 103.89 242.811 103.447 244.711 100.608C246.615 103.447 249.072 103.89 249.072 106.47C249.072 108.308 247.12 109.804 244.711 109.804Z" fill="#F25451" stroke="#9DAFCC" stroke-width="0.6" stroke-linecap="round" stroke-linejoin="round"/>
<path d="M247.423 109.804H242V119.544H247.423V109.804Z" fill="#F25451" stroke="#9DAFCC" stroke-width="0.6" stroke-linecap="round" stroke-linejoin="round"/>
<path d="M242 115.969H247.423" stroke="#9DAFCC" stroke-width="0.6" stroke-linecap="round" stroke-linejoin="round"/>
<path d="M226.306 109.804C223.897 109.804 221.945 108.308 221.945 106.47C221.945 103.89 224.402 103.447 226.306 100.608C228.206 103.447 230.663 103.89 230.663 106.47C230.663 108.308 228.71 109.804 226.306 109.804Z" fill="#F25451" stroke="#9DAFCC" stroke-width="0.6" stroke-linecap="round" stroke-linejoin="round"/>
<path d="M229.018 109.804H223.595V119.544H229.018V109.804Z" fill="#F25451" stroke="#9DAFCC" stroke-width="0.6" stroke-linecap="round" stroke-linejoin="round"/>
<path d="M223.595 115.969H229.018" stroke="#9DAFCC" stroke-width="0.6" stroke-linecap="round" stroke-linejoin="round"/>
<path d="M235.524 104.614C235.007 104.615 234.512 104.822 234.147 105.187C233.781 105.553 233.576 106.049 233.576 106.566V110.853H237.477V106.544C237.471 106.03 237.262 105.539 236.897 105.178C236.532 104.817 236.038 104.614 235.524 104.614Z" fill="#365DA0" stroke="white" stroke-width="0.6" stroke-linecap="round" stroke-linejoin="round"/>
<path d="M235.585 85.9674V72.1733" stroke="#9DAFCC" stroke-width="0.6" stroke-linejoin="round"/>
<path d="M232.08 76.9292H238.937" stroke="#9DAFCC" stroke-width="0.6" stroke-linejoin="round"/>
<path d="M233.953 74.2705H237.222" stroke="#9DAFCC" stroke-width="0.6" stroke-linejoin="round"/>
<path d="M233.637 80.4348L237.481 82.5276" stroke="#9DAFCC" stroke-width="0.6" stroke-linejoin="round"/>
<path d="M133.824 130.377C133.791 129.928 133.85 129.477 134 129.053C134.149 128.628 134.384 128.239 134.69 127.909C134.996 127.58 135.368 127.317 135.78 127.137C136.193 126.957 136.638 126.864 137.088 126.864C137.538 126.864 137.983 126.957 138.395 127.137C138.808 127.317 139.179 127.58 139.485 127.909C139.792 128.239 140.027 128.628 140.176 129.053C140.325 129.477 140.385 129.928 140.352 130.377H133.824Z" fill="#F25451" stroke="#9DAFCC" stroke-width="0.6" stroke-linecap="round" stroke-linejoin="round"/>
<path d="M140.352 130.377C140.324 129.93 140.387 129.483 140.539 129.062C140.69 128.641 140.926 128.255 141.232 127.929C141.538 127.603 141.908 127.343 142.318 127.166C142.729 126.988 143.172 126.896 143.619 126.896C144.066 126.896 144.508 126.988 144.919 127.166C145.329 127.343 145.699 127.603 146.005 127.929C146.311 128.255 146.547 128.641 146.699 129.062C146.85 129.483 146.914 129.93 146.885 130.377H140.352Z" fill="#F25451" stroke="#9DAFCC" stroke-width="0.6" stroke-linecap="round" stroke-linejoin="round"/>
<path d="M146.885 130.377C146.852 129.928 146.912 129.477 147.061 129.053C147.21 128.628 147.445 128.239 147.752 127.909C148.058 127.58 148.429 127.317 148.842 127.137C149.254 126.957 149.699 126.864 150.149 126.864C150.6 126.864 151.044 126.957 151.457 127.137C151.87 127.317 152.24 127.58 152.547 127.909C152.853 128.239 153.089 128.628 153.237 129.053C153.386 129.477 153.447 129.928 153.414 130.377H146.885Z" fill="#F25451" stroke="#9DAFCC" stroke-width="0.6" stroke-linecap="round" stroke-linejoin="round"/>
<path d="M153.396 130.377C153.363 129.928 153.423 129.477 153.572 129.053C153.721 128.628 153.956 128.239 154.263 127.909C154.569 127.58 154.94 127.317 155.353 127.137C155.765 126.957 156.21 126.864 156.66 126.864C157.11 126.864 157.556 126.957 157.968 127.137C158.38 127.317 158.752 127.58 159.058 127.909C159.364 128.239 159.599 128.628 159.749 129.053C159.898 129.477 159.957 129.928 159.924 130.377H153.396Z" fill="#F25451" stroke="#9DAFCC" stroke-width="0.6" stroke-linecap="round" stroke-linejoin="round"/>
<path d="M243.448 176.326H238.85V180.924H243.448V176.326Z" fill="#365DA0" stroke="#9DAFCC" stroke-width="0.6" stroke-linecap="round" stroke-linejoin="round"/>
<path d="M232.168 176.326H227.57V180.924H232.168V176.326Z" fill="#365DA0" stroke="#9DAFCC" stroke-width="0.6" stroke-linecap="round" stroke-linejoin="round"/>
</g>
</g>
<defs>
<filter id="filter0_dd_202_6404" x="-11.9112" y="-11.9112" width="296.822" height="263.822" filterUnits="userSpaceOnUse" color-interpolation-filters="sRGB">
<feFlood flood-opacity="0" result="BackgroundImageFix"/>
<feColorMatrix in="SourceAlpha" type="matrix" values="0 0 0 0 0 0 0 0 0 0 0 0 0 0 0 0 0 0 127 0" result="hardAlpha"/>
<feOffset/>
<feGaussianBlur stdDeviation="5.95559"/>
<feComposite in2="hardAlpha" operator="out"/>
<feColorMatrix type="matrix" values="0 0 0 0 0.568627 0 0 0 0 0.741176 0 0 0 0 0.866667 0 0 0 1 0"/>
<feBlend mode="normal" in2="BackgroundImageFix" result="effect1_dropShadow_202_6404"/>
<feColorMatrix in="SourceAlpha" type="matrix" values="0 0 0 0 0 0 0 0 0 0 0 0 0 0 0 0 0 0 127 0" result="hardAlpha"/>
<feOffset dy="2.38223"/>
<feGaussianBlur stdDeviation="2.97779"/>
<feComposite in2="hardAlpha" operator="out"/>
<feColorMatrix type="matrix" values="0 0 0 0 0 0 0 0 0 0 0 0 0 0 0 0 0 0 0.1 0"/>
<feBlend mode="normal" in2="effect1_dropShadow_202_6404" result="effect2_dropShadow_202_6404"/>
<feBlend mode="normal" in="SourceGraphic" in2="effect2_dropShadow_202_6404" result="shape"/>
</filter>
<filter id="filter1_dd_202_6404" x="3.86715" y="40.0888" width="262.923" height="153.046" filterUnits="userSpaceOnUse" color-interpolation-filters="sRGB">
<feFlood flood-opacity="0" result="BackgroundImageFix"/>
<feColorMatrix in="SourceAlpha" type="matrix" values="0 0 0 0 0 0 0 0 0 0 0 0 0 0 0 0 0 0 127 0" result="hardAlpha"/>
<feOffset/>
<feGaussianBlur stdDeviation="5.95559"/>
<feComposite in2="hardAlpha" operator="out"/>
<feColorMatrix type="matrix" values="0 0 0 0 0.568627 0 0 0 0 0.741176 0 0 0 0 0.866667 0 0 0 1 0"/>
<feBlend mode="normal" in2="BackgroundImageFix" result="effect1_dropShadow_202_6404"/>
<feColorMatrix in="SourceAlpha" type="matrix" values="0 0 0 0 0 0 0 0 0 0 0 0 0 0 0 0 0 0 127 0" result="hardAlpha"/>
<feOffset dy="2.38223"/>
<feGaussianBlur stdDeviation="2.97779"/>
<feComposite in2="hardAlpha" operator="out"/>
<feColorMatrix type="matrix" values="0 0 0 0 0 0 0 0 0 0 0 0 0 0 0 0 0 0 0.1 0"/>
<feBlend mode="normal" in2="effect1_dropShadow_202_6404" result="effect2_dropShadow_202_6404"/>
<feBlend mode="normal" in="SourceGraphic" in2="effect2_dropShadow_202_6404" result="shape"/>
</filter>
</defs>
</svg>
