<svg width="273" height="240" viewBox="0 0 273 240" fill="none" xmlns="http://www.w3.org/2000/svg">
<g filter="url(#filter0_dd_202_6042)">
<g filter="url(#filter1_dd_202_6042)">
<path d="M165.013 153.057V161.828" stroke="#9DAFCC" stroke-width="0.6" stroke-linecap="round" stroke-linejoin="round"/>
<path d="M193.051 129.786C195.676 129.772 198.294 130.046 200.859 130.604C202.762 131.161 204.737 131.425 206.719 131.388C209.221 131.407 211.716 131.148 214.16 130.617C218.261 129.526 222.576 129.526 226.678 130.617C230.514 131.644 234.553 131.644 238.39 130.617C242.491 129.526 246.806 129.526 250.907 130.617C252.417 131.016 252.255 131.388 255.183 131.388V161.828H193.033L193.051 129.786Z" fill="#E4EBF5" stroke="#9DAFCC" stroke-width="0.6" stroke-linecap="round" stroke-linejoin="round"/>
<path d="M230.301 161.828H215.42V149.013C215.42 148.043 215.805 147.114 216.491 146.428C217.176 145.743 218.106 145.358 219.075 145.358H226.647C227.127 145.358 227.602 145.453 228.046 145.636C228.489 145.82 228.892 146.089 229.231 146.428C229.57 146.768 229.84 147.171 230.023 147.614C230.207 148.057 230.301 148.533 230.301 149.013V161.828Z" fill="#365DA0" stroke="#9DAFCC" stroke-width="0.6" stroke-linecap="round" stroke-linejoin="round"/>
<path d="M225.343 145.359V161.828" stroke="#9DAFCC" stroke-width="0.6" stroke-linecap="round" stroke-linejoin="round"/>
<path d="M220.384 145.359V161.828" stroke="#9DAFCC" stroke-width="0.6" stroke-linecap="round" stroke-linejoin="round"/>
<path d="M230.192 151.836H215.425V154.62H230.192V151.836Z" fill="#F25451" stroke="#9DAFCC" stroke-width="0.6" stroke-linecap="round" stroke-linejoin="round"/>
<path d="M226.135 141.743H227.995V137.812H226.135V141.743Z" fill="#365DA0"/>
<path d="M221.933 141.743H223.793V137.812H221.933V141.743Z" fill="#365DA0"/>
<path d="M217.731 141.743H219.591V137.812H217.731V141.743Z" fill="#365DA0"/>
<path d="M249.831 161.828H234.95V149.013C234.95 148.043 235.335 147.114 236.02 146.428C236.705 145.743 237.635 145.358 238.604 145.358H246.176C247.145 145.358 248.075 145.743 248.76 146.428C249.445 147.114 249.831 148.043 249.831 149.013V161.828Z" fill="#365DA0" stroke="#9DAFCC" stroke-width="0.6" stroke-linecap="round" stroke-linejoin="round"/>
<path d="M244.876 145.359V161.828" stroke="#9DAFCC" stroke-width="0.6" stroke-linecap="round" stroke-linejoin="round"/>
<path d="M239.917 145.359V161.828" stroke="#9DAFCC" stroke-width="0.6" stroke-linecap="round" stroke-linejoin="round"/>
<path d="M249.73 151.836H234.963V154.62H249.73V151.836Z" fill="#F25451" stroke="#9DAFCC" stroke-width="0.6" stroke-linecap="round" stroke-linejoin="round"/>
<path d="M245.673 141.743H247.533V137.812H245.673V141.743Z" fill="#365DA0"/>
<path d="M241.467 141.743H243.327V137.812H241.467V141.743Z" fill="#365DA0"/>
<path d="M237.265 141.743H239.125V137.812H237.265V141.743Z" fill="#365DA0"/>
<path d="M137.02 129.786C134.395 129.772 131.777 130.046 129.212 130.604C127.31 131.156 125.336 131.415 123.356 131.375C120.855 131.394 118.36 131.135 115.915 130.604C111.814 129.513 107.499 129.513 103.398 130.604C99.5599 131.631 95.5193 131.631 91.681 130.604C87.58 129.513 83.2647 129.513 79.1637 130.604C77.6583 131.003 77.8201 131.375 74.8921 131.375V161.815H137.042L137.02 129.786Z" fill="#E4EBF5" stroke="#9DAFCC" stroke-width="0.6" stroke-linecap="round" stroke-linejoin="round"/>
<path d="M103.428 145.359H110.991C111.471 145.359 111.947 145.453 112.39 145.637C112.833 145.82 113.236 146.09 113.576 146.429C113.914 146.768 114.184 147.171 114.368 147.614C114.551 148.058 114.646 148.533 114.646 149.013V161.828H99.7649V149.013C99.7649 148.533 99.8597 148.057 100.044 147.613C100.228 147.169 100.498 146.765 100.838 146.426C101.179 146.086 101.583 145.817 102.027 145.634C102.471 145.451 102.948 145.357 103.428 145.359Z" fill="#365DA0" stroke="#9DAFCC" stroke-width="0.6" stroke-linecap="round" stroke-linejoin="round"/>
<path d="M104.729 145.359V161.828" stroke="#9DAFCC" stroke-width="0.6" stroke-linecap="round" stroke-linejoin="round"/>
<path d="M109.687 145.359V161.828" stroke="#9DAFCC" stroke-width="0.6" stroke-linecap="round" stroke-linejoin="round"/>
<path d="M99.8784 154.615H114.646V151.832H99.8784V154.615Z" fill="#F25451" stroke="#9DAFCC" stroke-width="0.6" stroke-linecap="round" stroke-linejoin="round"/>
<path d="M103.936 137.812H102.076V141.743H103.936V137.812Z" fill="#365DA0"/>
<path d="M108.138 137.812H106.278V141.743H108.138V137.812Z" fill="#365DA0"/>
<path d="M112.339 137.812H110.479V141.743H112.339V137.812Z" fill="#365DA0"/>
<path d="M83.8905 145.359H91.4537C91.9335 145.359 92.4087 145.453 92.8522 145.637C93.2953 145.82 93.6983 146.089 94.0377 146.429C94.3771 146.768 94.6463 147.171 94.8299 147.614C95.0136 148.058 95.108 148.533 95.108 149.013V161.828H80.2317V149.013C80.2317 148.533 80.3261 148.057 80.5102 147.613C80.6943 147.17 80.9635 146.767 81.3033 146.427C81.6432 146.088 82.0467 145.819 82.4907 145.635C82.9347 145.452 83.4103 145.358 83.8905 145.359Z" fill="#365DA0" stroke="#9DAFCC" stroke-width="0.6" stroke-linecap="round" stroke-linejoin="round"/>
<path d="M85.1951 145.359V161.828" stroke="#9DAFCC" stroke-width="0.6" stroke-linecap="round" stroke-linejoin="round"/>
<path d="M90.1492 145.359V161.828" stroke="#9DAFCC" stroke-width="0.6" stroke-linecap="round" stroke-linejoin="round"/>
<path d="M80.3408 154.615H95.1078V151.832H80.3408V154.615Z" fill="#F25451" stroke="#9DAFCC" stroke-width="0.6" stroke-linecap="round" stroke-linejoin="round"/>
<path d="M84.3982 137.812H82.5381V141.743H84.3982V137.812Z" fill="#365DA0"/>
<path d="M88.6043 137.812H86.7441V141.743H88.6043V137.812Z" fill="#365DA0"/>
<path d="M92.8062 137.812H90.946V141.743H92.8062V137.812Z" fill="#365DA0"/>
<path d="M165.035 68.9316L129.724 145.026H200.347L165.035 68.9316Z" fill="#F25451" stroke="#9DAFCC" stroke-width="0.6" stroke-linecap="round" stroke-linejoin="round"/>
<path d="M165.035 74.2009L144.18 145.025H185.891L165.035 74.2009Z" fill="#F25451" stroke="white" stroke-width="0.6" stroke-linecap="round" stroke-linejoin="round"/>
<path d="M171.749 83.3968L165.035 68.9316L158.322 83.3968H171.749Z" fill="white" stroke="white" stroke-width="0.6" stroke-linecap="round" stroke-linejoin="round"/>
<path d="M165.035 68.9316L129.724 145.026H200.347L165.035 68.9316Z" stroke="#9DAFCC" stroke-width="0.6" stroke-linecap="round" stroke-linejoin="round"/>
<path d="M185.671 153.057H143.62V161.828H185.671V153.057Z" stroke="#9DAFCC" stroke-width="0.6" stroke-linecap="round" stroke-linejoin="round"/>
<path d="M185.671 153.057H143.62V161.828H185.671V153.057Z" fill="#365DA0" stroke="#9DAFCC" stroke-width="0.6" stroke-linecap="round" stroke-linejoin="round"/>
<path d="M170.345 153.057H159.683V161.828H170.345V153.057Z" fill="#F25451" stroke="#9DAFCC" stroke-width="0.6" stroke-linecap="round" stroke-linejoin="round"/>
<path d="M165.035 137.318C154.312 137.318 145.45 144.163 144.005 153.074V161.828H186.061V153.074C184.621 144.163 175.759 137.318 165.035 137.318Z" stroke="#9DAFCC" stroke-width="0.6" stroke-linecap="round" stroke-linejoin="round"/>
<path d="M183.742 129.112C183.744 128.697 183.778 128.283 183.843 127.873H146.32C146.382 128.283 146.414 128.698 146.417 129.112C146.417 133.436 143.191 136.942 139.208 136.942V161.828H190.872V136.942C186.928 136.889 183.742 133.406 183.742 129.112Z" fill="#E4EBF5" stroke="#9DAFCC" stroke-width="0.6" stroke-linecap="round" stroke-linejoin="round"/>
<path d="M165.035 137.318C154.312 137.318 145.45 144.163 144.005 153.074V161.828H186.061V153.074C184.621 144.163 175.759 137.318 165.035 137.318Z" stroke="#9DAFCC" stroke-width="0.6" stroke-linecap="round" stroke-linejoin="round"/>
<path d="M186.066 153.057C184.621 144.163 175.759 137.301 165.035 137.301C154.312 137.301 145.45 144.146 144.005 153.057H186.066Z" fill="#365DA0" stroke="#9DAFCC" stroke-width="0.6" stroke-linecap="round" stroke-linejoin="round"/>
<path d="M145.147 149.236C144.609 150.457 144.225 151.741 144.005 153.057H186.066C185.844 151.741 185.46 150.458 184.923 149.236H145.147Z" fill="#F25451" stroke="#9DAFCC" stroke-width="0.6" stroke-linecap="round" stroke-linejoin="round"/>
<path d="M165.013 137.318V149.236" stroke="#9DAFCC" stroke-width="0.6" stroke-linecap="round" stroke-linejoin="round"/>
<path d="M177.671 140.82V149.236" stroke="#9DAFCC" stroke-width="0.6" stroke-linecap="round" stroke-linejoin="round"/>
<path d="M177.671 153.057V161.828" stroke="#9DAFCC" stroke-width="0.6" stroke-linecap="round" stroke-linejoin="round"/>
<path d="M152.4 140.82V149.236" stroke="#9DAFCC" stroke-width="0.6" stroke-linecap="round" stroke-linejoin="round"/>
<path d="M152.4 153.057V161.828" stroke="#9DAFCC" stroke-width="0.6" stroke-linecap="round" stroke-linejoin="round"/>
<path d="M158.65 149.236V138.207" stroke="#9DAFCC" stroke-width="0.6" stroke-linecap="round" stroke-linejoin="round"/>
<path d="M171.408 149.236V138.207" stroke="#9DAFCC" stroke-width="0.6" stroke-linecap="round" stroke-linejoin="round"/>
<path d="M152.4 141.743H177.671" stroke="#9DAFCC" stroke-width="0.6" stroke-linecap="round" stroke-linejoin="round"/>
<path d="M200.347 134.263C204.619 134.263 205.568 136.942 209.823 136.942V161.828H190.872V136.942C195.126 136.942 196.071 134.263 200.347 134.263Z" fill="#E4EBF5" stroke="#9DAFCC" stroke-width="0.6" stroke-linecap="round" stroke-linejoin="round"/>
<path d="M200.347 140.999C201.227 140.999 201.94 140.285 201.94 139.406C201.94 138.526 201.227 137.812 200.347 137.812C199.467 137.812 198.754 138.526 198.754 139.406C198.754 140.285 199.467 140.999 200.347 140.999Z" fill="#F25451" stroke="#9DAFCC" stroke-width="0.6" stroke-linecap="round" stroke-linejoin="round"/>
<path d="M202.041 145.359C204.094 145.348 206.066 146.153 207.526 147.597C208.985 149.04 209.811 151.004 209.823 153.057V161.811H194.259V153.057C194.27 151.004 195.097 149.04 196.556 147.597C198.015 146.153 199.988 145.348 202.041 145.359Z" fill="#365DA0" stroke="#9DAFCC" stroke-width="0.6" stroke-linecap="round" stroke-linejoin="round"/>
<path d="M194.259 154.615H209.823V151.832H194.259V154.615Z" fill="#F25451" stroke="#9DAFCC" stroke-width="0.6" stroke-linecap="round" stroke-linejoin="round"/>
<path d="M204.636 145.796V151.836" stroke="#9DAFCC" stroke-width="0.6" stroke-linecap="round" stroke-linejoin="round"/>
<path d="M204.636 154.619V161.828" stroke="#9DAFCC" stroke-width="0.6" stroke-linecap="round" stroke-linejoin="round"/>
<path d="M199.445 145.796V151.836" stroke="#9DAFCC" stroke-width="0.6" stroke-linecap="round" stroke-linejoin="round"/>
<path d="M199.445 154.619V161.828" stroke="#9DAFCC" stroke-width="0.6" stroke-linecap="round" stroke-linejoin="round"/>
<path d="M129.724 134.263C125.448 134.263 124.502 136.942 120.248 136.942V161.828H139.199V136.942C134.941 136.942 133.995 134.263 129.724 134.263Z" fill="#E4EBF5" stroke="#9DAFCC" stroke-width="0.6" stroke-linecap="round" stroke-linejoin="round"/>
<path d="M129.724 140.999C130.603 140.999 131.317 140.285 131.317 139.406C131.317 138.526 130.603 137.812 129.724 137.812C128.844 137.812 128.131 138.526 128.131 139.406C128.131 140.285 128.844 140.999 129.724 140.999Z" fill="#F25451" stroke="#9DAFCC" stroke-width="0.6" stroke-linecap="round" stroke-linejoin="round"/>
<path d="M128.03 145.359C125.977 145.348 124.005 146.153 122.545 147.597C121.086 149.04 120.26 151.004 120.248 153.057V161.811H135.816V153.057C135.811 152.04 135.605 151.035 135.21 150.097C134.816 149.161 134.241 148.31 133.518 147.595C132.795 146.88 131.938 146.315 130.996 145.931C130.054 145.547 129.047 145.352 128.03 145.359Z" fill="#365DA0" stroke="#9DAFCC" stroke-width="0.6" stroke-linecap="round" stroke-linejoin="round"/>
<path d="M135.812 151.836H120.248V154.62H135.812V151.836Z" fill="#F25451" stroke="#9DAFCC" stroke-width="0.6" stroke-linecap="round" stroke-linejoin="round"/>
<path d="M125.435 145.796V151.836" stroke="#9DAFCC" stroke-width="0.6" stroke-linecap="round" stroke-linejoin="round"/>
<path d="M125.435 154.619V161.828" stroke="#9DAFCC" stroke-width="0.6" stroke-linecap="round" stroke-linejoin="round"/>
<path d="M130.625 145.796V151.836" stroke="#9DAFCC" stroke-width="0.6" stroke-linecap="round" stroke-linejoin="round"/>
<path d="M130.625 154.619V161.828" stroke="#9DAFCC" stroke-width="0.6" stroke-linecap="round" stroke-linejoin="round"/>
<path d="M79.5835 164.953C79.5835 164.953 33.1901 165.391 26.3755 165.22C19.5609 165.049 19.539 165.018 17.622 165.014C16.8342 156.011 12.4574 113.714 12.3436 109.762C12.2299 105.81 13.1315 96.9206 19.307 95.485C25.4827 94.0495 33.2295 95.3625 36.4858 96.3604C39.7421 97.3583 79.7192 115.99 82.0782 116.612C84.4376 117.233 95.8912 118.292 101.502 118.988C107.113 119.684 114.532 120.301 118.234 121.299C121.937 122.297 125.421 123.159 124.638 129.571C123.854 135.983 120.817 164.909 120.817 164.909C113.639 164.949 79.5835 164.953 79.5835 164.953Z" fill="white" stroke="#9DAFCC" stroke-width="0.6" stroke-linecap="round" stroke-linejoin="round"/>
<path d="M26.3976 165.238C33.2034 165.4 79.6059 164.971 79.6059 164.971C79.6059 164.971 113.661 164.971 120.848 164.91C120.848 164.91 121.11 162.428 121.495 158.782L80.9885 154.296C80.9885 154.296 32.6738 142.636 29.3431 141.997C26.0124 141.359 19.3598 139.988 15.552 143.52C16.4886 152.913 17.3421 161.496 17.6484 165.006C19.5392 165.019 19.5654 165.063 26.3976 165.238Z" fill="#365DA0" stroke="#9DAFCC" stroke-width="0.6" stroke-linecap="round" stroke-linejoin="round"/>
<path d="M123.089 143.59C120.799 143.551 117.836 143.489 116.178 143.398C113.245 143.235 82.2446 144.798 82.2446 144.798V145.638L122.681 147.389C122.817 146.111 122.953 144.842 123.089 143.59Z" fill="#365DA0" stroke="#9DAFCC" stroke-width="0.6" stroke-linecap="round" stroke-linejoin="round"/>
<path d="M79.5835 164.953L84.6692 122.604" stroke="#9DAFCC" stroke-width="0.6" stroke-linecap="round" stroke-linejoin="round"/>
<path d="M18.0159 121.033C16.462 121.198 14.9209 121.467 13.4028 121.838C13.5998 123.877 13.8099 126.075 14.0374 128.372C15.5518 128.083 17.3463 127.759 18.5718 127.585C21.084 127.221 42.8671 128.718 47.0556 129.099C51.2443 129.48 83.5227 132.128 83.5227 132.128L83.7677 130.088C83.7677 130.088 41.0551 122.21 34.6301 121.426C28.205 120.643 22.7603 120.529 18.0159 121.033Z" fill="#365DA0" stroke="#9DAFCC" stroke-width="0.6" stroke-linecap="round" stroke-linejoin="round"/>
<path d="M30.2185 142.199L28.958 165.251" stroke="#9DAFCC" stroke-width="0.6" stroke-linecap="round" stroke-linejoin="round"/>
<path d="M39.0988 144.378L36.9893 165.25" stroke="#9DAFCC" stroke-width="0.6" stroke-linecap="round" stroke-linejoin="round"/>
<path d="M45.4148 165.211L47.4193 146.247" stroke="#9DAFCC" stroke-width="0.6" stroke-linecap="round" stroke-linejoin="round"/>
<path d="M55.1835 148.103L53.2444 165.163" stroke="#9DAFCC" stroke-width="0.6" stroke-linecap="round" stroke-linejoin="round"/>
<path d="M63.4861 150.094L61.6743 165.102" stroke="#9DAFCC" stroke-width="0.6" stroke-linecap="round" stroke-linejoin="round"/>
<path d="M71.5745 152.037L70.1082 165.036" stroke="#9DAFCC" stroke-width="0.6" stroke-linecap="round" stroke-linejoin="round"/>
<path d="M20.5676 141.345L21.9638 165.11" stroke="#9DAFCC" stroke-width="0.6" stroke-linecap="round" stroke-linejoin="round"/>
<path d="M115.373 158.082L115 164.914" stroke="#9DAFCC" stroke-width="0.6" stroke-linecap="round" stroke-linejoin="round"/>
<path d="M108.567 157.333L108.129 164.931" stroke="#9DAFCC" stroke-width="0.6" stroke-linecap="round" stroke-linejoin="round"/>
<path d="M94.1888 155.753L93.6416 164.949" stroke="#9DAFCC" stroke-width="0.6" stroke-linecap="round" stroke-linejoin="round"/>
<path d="M87.8952 155.065L86.9802 164.953" stroke="#9DAFCC" stroke-width="0.6" stroke-linecap="round" stroke-linejoin="round"/>
<path d="M19.3684 120.91L19.758 127.527" stroke="#9DAFCC" stroke-width="0.6" stroke-linecap="round" stroke-linejoin="round"/>
<path d="M31.374 121.072L30.9976 127.991" stroke="#9DAFCC" stroke-width="0.6" stroke-linecap="round" stroke-linejoin="round"/>
<path d="M41.309 122.482L40.6919 128.613" stroke="#9DAFCC" stroke-width="0.6" stroke-linecap="round" stroke-linejoin="round"/>
<path d="M49.209 129.283L49.7736 123.948" stroke="#9DAFCC" stroke-width="0.6" stroke-linecap="round" stroke-linejoin="round"/>
<path d="M57.77 125.365L57.2493 129.956" stroke="#9DAFCC" stroke-width="0.6" stroke-linecap="round" stroke-linejoin="round"/>
<path d="M66.2869 126.902L65.8318 130.67" stroke="#9DAFCC" stroke-width="0.6" stroke-linecap="round" stroke-linejoin="round"/>
<path d="M74.2486 128.346L73.9292 131.16" stroke="#9DAFCC" stroke-width="0.6" stroke-linecap="round" stroke-linejoin="round"/>
<path d="M94.876 144.186L94.7839 145.709" stroke="#9DAFCC" stroke-width="0.6" stroke-linecap="round" stroke-linejoin="round"/>
<path d="M102.085 143.857L101.936 146.484" stroke="#9DAFCC" stroke-width="0.6" stroke-linecap="round" stroke-linejoin="round"/>
<path d="M101.371 156.545L100.898 164.94" stroke="#9DAFCC" stroke-width="0.6" stroke-linecap="round" stroke-linejoin="round"/>
<path d="M109.359 143.559L109.171 146.793" stroke="#9DAFCC" stroke-width="0.6" stroke-linecap="round" stroke-linejoin="round"/>
<path d="M116.178 143.398L115.977 147.088" stroke="#9DAFCC" stroke-width="0.6" stroke-linecap="round" stroke-linejoin="round"/>
<path d="M80.4154 158.02L29.61 153.328C29.61 153.328 24.2791 152.65 21.2636 153.132C19.6732 153.347 18.1115 153.738 16.6067 154.296" stroke="#9DAFCC" stroke-width="0.6" stroke-linecap="round" stroke-linejoin="round"/>
<path d="M16.6067 154.309L19.5654 142.308" stroke="#9DAFCC" stroke-width="0.6" stroke-linecap="round" stroke-linejoin="round"/>
<path d="M17.6309 165.014L21.2636 153.131" stroke="#9DAFCC" stroke-width="0.6" stroke-linecap="round" stroke-linejoin="round"/>
<path d="M30.2185 142.199L21.929 152.904" stroke="#9DAFCC" stroke-width="0.6" stroke-linecap="round" stroke-linejoin="round"/>
<path d="M39.0989 144.378L30.3499 153.101" stroke="#9DAFCC" stroke-width="0.6" stroke-linecap="round" stroke-linejoin="round"/>
<path d="M38.1142 154.112L28.958 165.251" stroke="#9DAFCC" stroke-width="0.6" stroke-linecap="round" stroke-linejoin="round"/>
<path d="M29.61 153.328L21.9639 165.11" stroke="#9DAFCC" stroke-width="0.6" stroke-linecap="round" stroke-linejoin="round"/>
<path d="M41.3092 122.482L30.9976 127.992" stroke="#9DAFCC" stroke-width="0.6" stroke-linecap="round" stroke-linejoin="round"/>
<path d="M19.3685 120.91L14.0376 128.372" stroke="#9DAFCC" stroke-width="0.6" stroke-linecap="round" stroke-linejoin="round"/>
<path d="M31.3739 121.072L19.7581 127.527" stroke="#9DAFCC" stroke-width="0.6" stroke-linecap="round" stroke-linejoin="round"/>
<path d="M169.333 153.057H160.79V161.828H169.333V153.057Z" fill="#F25451" stroke="#9DAFCC" stroke-width="0.6" stroke-linecap="round" stroke-linejoin="round"/>
<path d="M165.013 153.057V161.828" stroke="#9DAFCC" stroke-width="0.6" stroke-linecap="round" stroke-linejoin="round"/>
</g>
</g>
<defs>
<filter id="filter0_dd_202_6042" x="-11.9112" y="-11.9112" width="296.822" height="263.822" filterUnits="userSpaceOnUse" color-interpolation-filters="sRGB">
<feFlood flood-opacity="0" result="BackgroundImageFix"/>
<feColorMatrix in="SourceAlpha" type="matrix" values="0 0 0 0 0 0 0 0 0 0 0 0 0 0 0 0 0 0 127 0" result="hardAlpha"/>
<feOffset/>
<feGaussianBlur stdDeviation="5.95559"/>
<feComposite in2="hardAlpha" operator="out"/>
<feColorMatrix type="matrix" values="0 0 0 0 0.568627 0 0 0 0 0.741176 0 0 0 0 0.866667 0 0 0 1 0"/>
<feBlend mode="normal" in2="BackgroundImageFix" result="effect1_dropShadow_202_6042"/>
<feColorMatrix in="SourceAlpha" type="matrix" values="0 0 0 0 0 0 0 0 0 0 0 0 0 0 0 0 0 0 127 0" result="hardAlpha"/>
<feOffset dy="2.38223"/>
<feGaussianBlur stdDeviation="2.97779"/>
<feComposite in2="hardAlpha" operator="out"/>
<feColorMatrix type="matrix" values="0 0 0 0 0 0 0 0 0 0 0 0 0 0 0 0 0 0 0.1 0"/>
<feBlend mode="normal" in2="effect1_dropShadow_202_6042" result="effect2_dropShadow_202_6042"/>
<feBlend mode="normal" in="SourceGraphic" in2="effect2_dropShadow_202_6042" result="shape"/>
</filter>
<filter id="filter1_dd_202_6042" x="0.123557" y="56.7204" width="267.271" height="120.765" filterUnits="userSpaceOnUse" color-interpolation-filters="sRGB">
<feFlood flood-opacity="0" result="BackgroundImageFix"/>
<feColorMatrix in="SourceAlpha" type="matrix" values="0 0 0 0 0 0 0 0 0 0 0 0 0 0 0 0 0 0 127 0" result="hardAlpha"/>
<feOffset/>
<feGaussianBlur stdDeviation="5.95559"/>
<feComposite in2="hardAlpha" operator="out"/>
<feColorMatrix type="matrix" values="0 0 0 0 0.568627 0 0 0 0 0.741176 0 0 0 0 0.866667 0 0 0 1 0"/>
<feBlend mode="normal" in2="BackgroundImageFix" result="effect1_dropShadow_202_6042"/>
<feColorMatrix in="SourceAlpha" type="matrix" values="0 0 0 0 0 0 0 0 0 0 0 0 0 0 0 0 0 0 127 0" result="hardAlpha"/>
<feOffset dy="2.38223"/>
<feGaussianBlur stdDeviation="2.97779"/>
<feComposite in2="hardAlpha" operator="out"/>
<feColorMatrix type="matrix" values="0 0 0 0 0 0 0 0 0 0 0 0 0 0 0 0 0 0 0.1 0"/>
<feBlend mode="normal" in2="effect1_dropShadow_202_6042" result="effect2_dropShadow_202_6042"/>
<feBlend mode="normal" in="SourceGraphic" in2="effect2_dropShadow_202_6042" result="shape"/>
</filter>
</defs>
</svg>
