<svg width="273" height="240" viewBox="0 0 273 240" fill="none" xmlns="http://www.w3.org/2000/svg">
<g filter="url(#filter0_dd_202_4079)">
<g filter="url(#filter1_dd_202_4079)">
<path d="M203.951 141.243H26.9409V189.23H203.951V141.243Z" fill="#E4EBF5" stroke="#9DAFCC" stroke-width="0.6" stroke-linejoin="round"/>
<path d="M209.776 128.954H21.1116V141.243H209.776V128.954Z" fill="white" stroke="#9DAFCC" stroke-width="0.6" stroke-linecap="round" stroke-linejoin="round"/>
<path d="M213.803 123.171H17.0845V128.953H213.803V123.171Z" fill="#E4EBF5" stroke="#9DAFCC" stroke-width="0.6" stroke-linecap="round" stroke-linejoin="round"/>
<path d="M21.1116 136.83H209.78" stroke="#9DAFCC" stroke-width="0.6" stroke-linecap="round" stroke-linejoin="round"/>
<path d="M149.417 112.33H81.4702V123.172H149.417V112.33Z" fill="white" stroke="#9DAFCC" stroke-width="0.6" stroke-linecap="round" stroke-linejoin="round"/>
<path d="M150.347 112.33H80.5447V116.395H150.347V112.33Z" fill="#F25451" stroke="#9DAFCC" stroke-width="0.6" stroke-linecap="round" stroke-linejoin="round"/>
<path d="M213.803 189.23H17.0845V193.856H213.803V189.23Z" fill="#365DA0" stroke="#9DAFCC" stroke-width="0.6" stroke-linecap="round" stroke-linejoin="round"/>
<path d="M120.709 111.552C120.711 110.501 120.519 109.458 120.144 108.476C119.842 109.125 119.413 109.707 118.883 110.188C118.352 110.668 117.731 111.038 117.056 111.274C116.647 110.288 116.078 109.671 115.448 109.671C114.818 109.671 114.254 110.288 113.845 111.274C113.17 111.038 112.548 110.668 112.018 110.188C111.487 109.707 111.059 109.125 110.757 108.476C110.38 109.458 110.188 110.5 110.192 111.552C110.192 114.48 111.608 116.969 113.597 117.946C113.997 119.349 114.679 120.27 115.448 120.27C116.217 120.27 116.899 119.349 117.303 117.946C119.288 116.955 120.709 114.467 120.709 111.552Z" fill="#365DA0" stroke="#9DAFCC" stroke-width="0.6" stroke-linecap="round" stroke-linejoin="round"/>
<path d="M129.588 141.243H124.692V189.23H129.588V141.243Z" fill="white" stroke="#9DAFCC" stroke-width="0.6" stroke-linecap="round" stroke-linejoin="round"/>
<path d="M130.517 185.755H123.78V189.23H130.517V185.755Z" fill="white" stroke="#9DAFCC" stroke-width="0.6" stroke-linecap="round" stroke-linejoin="round"/>
<path d="M123.78 142.156H130.521" stroke="#9DAFCC" stroke-width="0.6" stroke-linecap="round" stroke-linejoin="round"/>
<path d="M157.345 141.243H152.449V189.23H157.345V141.243Z" fill="white" stroke="#9DAFCC" stroke-width="0.6" stroke-linecap="round" stroke-linejoin="round"/>
<path d="M158.279 185.755H151.542V189.23H158.279V185.755Z" fill="white" stroke="#9DAFCC" stroke-width="0.6" stroke-linecap="round" stroke-linejoin="round"/>
<path d="M151.542 142.156H158.279" stroke="#9DAFCC" stroke-width="0.6" stroke-linecap="round" stroke-linejoin="round"/>
<path d="M174.512 141.243H169.617V189.23H174.512V141.243Z" fill="white" stroke="#9DAFCC" stroke-width="0.6" stroke-linecap="round" stroke-linejoin="round"/>
<path d="M175.442 185.755H168.705V189.23H175.442V185.755Z" fill="white" stroke="#9DAFCC" stroke-width="0.6" stroke-linecap="round" stroke-linejoin="round"/>
<path d="M168.705 142.156H175.446" stroke="#9DAFCC" stroke-width="0.6" stroke-linecap="round" stroke-linejoin="round"/>
<path d="M191.679 141.243H186.784V189.23H191.679V141.243Z" fill="white" stroke="#9DAFCC" stroke-width="0.6" stroke-linecap="round" stroke-linejoin="round"/>
<path d="M192.609 185.755H185.872V189.23H192.609V185.755Z" fill="white" stroke="#9DAFCC" stroke-width="0.6" stroke-linecap="round" stroke-linejoin="round"/>
<path d="M185.872 142.156H192.614" stroke="#9DAFCC" stroke-width="0.6" stroke-linecap="round" stroke-linejoin="round"/>
<path d="M208.846 141.243H203.951V189.23H208.846V141.243Z" fill="white" stroke="#9DAFCC" stroke-width="0.6" stroke-linecap="round" stroke-linejoin="round"/>
<path d="M209.776 185.755H203.039V189.23H209.776V185.755Z" fill="white" stroke="#9DAFCC" stroke-width="0.6" stroke-linecap="round" stroke-linejoin="round"/>
<path d="M203.039 142.156H209.781" stroke="#9DAFCC" stroke-width="0.6" stroke-linecap="round" stroke-linejoin="round"/>
<path d="M145.638 141.243H136.42V189.23H145.638V141.243Z" fill="#9DAFCC" stroke="#9DAFCC" stroke-width="0.6" stroke-linecap="round" stroke-linejoin="round"/>
<path d="M146.833 144.801H135.222V185.673H146.833V144.801Z" fill="#365DA0" stroke="#9DAFCC" stroke-width="0.6" stroke-linecap="round" stroke-linejoin="round"/>
<path d="M101.304 189.23H106.2V141.243H101.304V189.23Z" fill="white" stroke="#9DAFCC" stroke-width="0.6" stroke-linecap="round" stroke-linejoin="round"/>
<path d="M100.371 189.234H107.108V185.758H100.371V189.234Z" fill="white" stroke="#9DAFCC" stroke-width="0.6" stroke-linecap="round" stroke-linejoin="round"/>
<path d="M107.108 142.156H100.371" stroke="#9DAFCC" stroke-width="0.6" stroke-linecap="round" stroke-linejoin="round"/>
<path d="M73.5469 189.23H78.4421V141.243H73.5469V189.23Z" fill="white" stroke="#9DAFCC" stroke-width="0.6" stroke-linecap="round" stroke-linejoin="round"/>
<path d="M72.6128 189.234H79.3504V185.758H72.6128V189.234Z" fill="white" stroke="#9DAFCC" stroke-width="0.6" stroke-linecap="round" stroke-linejoin="round"/>
<path d="M79.3504 142.156H72.6128" stroke="#9DAFCC" stroke-width="0.6" stroke-linecap="round" stroke-linejoin="round"/>
<path d="M56.3799 189.23H61.2756V141.243H56.3799V189.23Z" fill="white" stroke="#9DAFCC" stroke-width="0.6" stroke-linecap="round" stroke-linejoin="round"/>
<path d="M55.4458 189.234H62.1829V185.758H55.4458V189.234Z" fill="white" stroke="#9DAFCC" stroke-width="0.6" stroke-linecap="round" stroke-linejoin="round"/>
<path d="M62.1829 142.156H55.4458" stroke="#9DAFCC" stroke-width="0.6" stroke-linecap="round" stroke-linejoin="round"/>
<path d="M39.2126 189.23H44.1082V141.243H39.2126V189.23Z" fill="white" stroke="#9DAFCC" stroke-width="0.6" stroke-linecap="round" stroke-linejoin="round"/>
<path d="M38.283 189.234H45.0204V185.758H38.283V189.234Z" fill="white" stroke="#9DAFCC" stroke-width="0.6" stroke-linecap="round" stroke-linejoin="round"/>
<path d="M45.0162 142.156H38.2788" stroke="#9DAFCC" stroke-width="0.6" stroke-linecap="round" stroke-linejoin="round"/>
<path d="M22.0454 189.23H26.941V141.243H22.0454V189.23Z" fill="white" stroke="#9DAFCC" stroke-width="0.6" stroke-linecap="round" stroke-linejoin="round"/>
<path d="M21.1157 189.234H27.8531V185.758H21.1157V189.234Z" fill="white" stroke="#9DAFCC" stroke-width="0.6" stroke-linecap="round" stroke-linejoin="round"/>
<path d="M27.849 142.156H21.1116" stroke="#9DAFCC" stroke-width="0.6" stroke-linecap="round" stroke-linejoin="round"/>
<path d="M85.2493 189.23H94.467V141.243H85.2493V189.23Z" fill="#9DAFCC" stroke="#9DAFCC" stroke-width="0.6" stroke-linecap="round" stroke-linejoin="round"/>
<path d="M84.0549 185.672H95.6659V144.8H84.0549V185.672Z" fill="#365DA0" stroke="#9DAFCC" stroke-width="0.6" stroke-linecap="round" stroke-linejoin="round"/>
<path d="M203.921 132.872H26.9714" stroke="#9DAFCC" stroke-width="0.6" stroke-linecap="round" stroke-linejoin="round"/>
<path d="M73.5469 151.169H78.4421" stroke="#9DAFCC" stroke-width="0.6" stroke-linejoin="round"/>
<path d="M101.292 151.169H106.187" stroke="#9DAFCC" stroke-width="0.6" stroke-linejoin="round"/>
<path d="M124.692 151.169H129.588" stroke="#9DAFCC" stroke-width="0.6" stroke-linejoin="round"/>
<path d="M152.449 151.169H157.345" stroke="#9DAFCC" stroke-width="0.6" stroke-linejoin="round"/>
<path d="M169.617 151.169H174.512" stroke="#9DAFCC" stroke-width="0.6" stroke-linejoin="round"/>
<path d="M186.784 151.169H191.679" stroke="#9DAFCC" stroke-width="0.6" stroke-linejoin="round"/>
<path d="M203.951 151.169H208.846" stroke="#9DAFCC" stroke-width="0.6" stroke-linejoin="round"/>
<path d="M73.5469 168.808H78.4421" stroke="#9DAFCC" stroke-width="0.6" stroke-linejoin="round"/>
<path d="M101.292 168.808H106.187" stroke="#9DAFCC" stroke-width="0.6" stroke-linejoin="round"/>
<path d="M124.692 168.808H129.588" stroke="#9DAFCC" stroke-width="0.6" stroke-linejoin="round"/>
<path d="M152.449 168.808H157.345" stroke="#9DAFCC" stroke-width="0.6" stroke-linejoin="round"/>
<path d="M169.617 168.808H174.512" stroke="#9DAFCC" stroke-width="0.6" stroke-linejoin="round"/>
<path d="M186.784 168.808H191.679" stroke="#9DAFCC" stroke-width="0.6" stroke-linejoin="round"/>
<path d="M203.951 168.808H208.846" stroke="#9DAFCC" stroke-width="0.6" stroke-linejoin="round"/>
<path d="M56.3799 151.169H61.2756" stroke="#9DAFCC" stroke-width="0.6" stroke-linejoin="round"/>
<path d="M56.3799 168.808H61.2756" stroke="#9DAFCC" stroke-width="0.6" stroke-linejoin="round"/>
<path d="M39.2124 151.169H44.108" stroke="#9DAFCC" stroke-width="0.6" stroke-linejoin="round"/>
<path d="M39.2124 168.808H44.108" stroke="#9DAFCC" stroke-width="0.6" stroke-linejoin="round"/>
<path d="M22.0454 151.169H26.941" stroke="#9DAFCC" stroke-width="0.6" stroke-linejoin="round"/>
<path d="M22.0454 168.808H26.941" stroke="#9DAFCC" stroke-width="0.6" stroke-linejoin="round"/>
<path d="M252.902 193.795H162.05V199.959H252.902V193.795Z" fill="#E4EBF5" stroke="#9DAFCC" stroke-width="0.6" stroke-linecap="round" stroke-linejoin="round"/>
<path d="M251.078 175.534H163.87V193.796H251.078V175.534Z" fill="white" stroke="#9DAFCC" stroke-width="0.6" stroke-linecap="round" stroke-linejoin="round"/>
<path d="M180.541 181.949C180.125 181.948 179.713 182.03 179.328 182.189C178.944 182.347 178.594 182.58 178.3 182.875C178.005 183.169 177.771 183.518 177.612 183.903C177.453 184.287 177.371 184.699 177.371 185.115V199.959H183.695V185.115C183.695 184.278 183.363 183.474 182.773 182.881C182.181 182.287 181.379 181.952 180.541 181.949Z" fill="#F25451" stroke="#9DAFCC" stroke-width="0.6" stroke-linecap="round" stroke-linejoin="round"/>
<path d="M229.267 181.949C228.851 181.948 228.439 182.03 228.054 182.189C227.669 182.347 227.32 182.58 227.025 182.875C226.731 183.169 226.497 183.518 226.338 183.903C226.178 184.287 226.096 184.699 226.096 185.115V193.803H232.438V185.115C232.438 184.699 232.356 184.287 232.197 183.903C232.037 183.518 231.804 183.169 231.509 182.875C231.215 182.58 230.865 182.347 230.48 182.189C230.096 182.03 229.683 181.948 229.267 181.949Z" fill="#365DA0" stroke="#9DAFCC" stroke-width="0.6" stroke-linecap="round" stroke-linejoin="round"/>
<path d="M251.078 116.526H163.87V175.53H251.078V116.526Z" fill="#E4EBF5" stroke="#9DAFCC" stroke-width="0.6" stroke-linecap="round" stroke-linejoin="round"/>
<path d="M207.474 121.452C207.474 121.452 199.034 126.499 199.034 132.837V135.157H203.052V133.211C203.052 129.479 207.474 126.508 207.474 126.508C207.474 126.508 211.896 129.479 211.896 133.211V135.157H215.914V132.837C215.914 126.499 207.474 121.452 207.474 121.452Z" fill="white" stroke="#9DAFCC" stroke-width="0.6" stroke-linecap="round" stroke-linejoin="round"/>
<path d="M207.474 126.509C207.474 126.509 203.052 129.48 203.052 133.212V162.446H211.896V133.212C211.896 129.48 207.474 126.509 207.474 126.509Z" fill="#365DA0" stroke="#9DAFCC" stroke-width="0.6" stroke-linecap="round" stroke-linejoin="round"/>
<path d="M207.474 126.509V162.446" stroke="#9DAFCC" stroke-width="0.6" stroke-linecap="round" stroke-linejoin="round"/>
<path d="M203.052 134.254H211.896" stroke="#9DAFCC" stroke-width="0.6" stroke-linecap="round" stroke-linejoin="round"/>
<path d="M203.052 139.891H211.896" stroke="#9DAFCC" stroke-width="0.6" stroke-linecap="round" stroke-linejoin="round"/>
<path d="M203.052 145.53H211.896" stroke="#9DAFCC" stroke-width="0.6" stroke-linecap="round" stroke-linejoin="round"/>
<path d="M203.052 151.169H211.896" stroke="#9DAFCC" stroke-width="0.6" stroke-linecap="round" stroke-linejoin="round"/>
<path d="M203.052 156.807H211.896" stroke="#9DAFCC" stroke-width="0.6" stroke-linecap="round" stroke-linejoin="round"/>
<path d="M203.052 162.445H211.896" stroke="#9DAFCC" stroke-width="0.6" stroke-linecap="round" stroke-linejoin="round"/>
<path d="M212.865 162.445H202.183V165.559H212.865V162.445Z" fill="white" stroke="#9DAFCC" stroke-width="0.6" stroke-linecap="round" stroke-linejoin="round"/>
<path d="M178.291 121.452C178.291 121.452 169.851 126.499 169.851 132.837V135.157H173.869V133.211C173.869 129.479 178.291 126.508 178.291 126.508C178.291 126.508 182.714 129.479 182.714 133.211V135.157H186.736V132.837C186.736 126.499 178.291 121.452 178.291 121.452Z" fill="white" stroke="#9DAFCC" stroke-width="0.6" stroke-linecap="round" stroke-linejoin="round"/>
<path d="M178.291 126.509C178.291 126.509 173.869 129.48 173.869 133.212V162.446H182.713V133.212C182.713 129.48 178.291 126.509 178.291 126.509Z" fill="#365DA0" stroke="#9DAFCC" stroke-width="0.6" stroke-linecap="round" stroke-linejoin="round"/>
<path d="M178.292 126.509V162.446" stroke="#9DAFCC" stroke-width="0.6" stroke-linecap="round" stroke-linejoin="round"/>
<path d="M173.869 134.254H182.713" stroke="#9DAFCC" stroke-width="0.6" stroke-linecap="round" stroke-linejoin="round"/>
<path d="M173.869 139.891H182.713" stroke="#9DAFCC" stroke-width="0.6" stroke-linecap="round" stroke-linejoin="round"/>
<path d="M173.869 145.53H182.713" stroke="#9DAFCC" stroke-width="0.6" stroke-linecap="round" stroke-linejoin="round"/>
<path d="M173.869 151.169H182.713" stroke="#9DAFCC" stroke-width="0.6" stroke-linecap="round" stroke-linejoin="round"/>
<path d="M173.869 156.807H182.713" stroke="#9DAFCC" stroke-width="0.6" stroke-linecap="round" stroke-linejoin="round"/>
<path d="M173.869 162.445H182.713" stroke="#9DAFCC" stroke-width="0.6" stroke-linecap="round" stroke-linejoin="round"/>
<path d="M183.682 162.445H173V165.559H183.682V162.445Z" fill="white" stroke="#9DAFCC" stroke-width="0.6" stroke-linecap="round" stroke-linejoin="round"/>
<path d="M236.657 121.452C236.657 121.452 228.216 126.499 228.216 132.837V135.157H232.235V133.211C232.235 129.479 236.657 126.508 236.657 126.508C236.657 126.508 241.079 129.479 241.079 133.211V135.157H245.092V132.837C245.092 126.499 236.657 121.452 236.657 121.452Z" fill="white" stroke="#9DAFCC" stroke-width="0.6" stroke-linecap="round" stroke-linejoin="round"/>
<path d="M236.656 126.509C236.656 126.509 232.234 129.48 232.234 133.212V162.446H241.078V133.212C241.078 129.48 236.656 126.509 236.656 126.509Z" fill="#365DA0" stroke="#9DAFCC" stroke-width="0.6" stroke-linecap="round" stroke-linejoin="round"/>
<path d="M236.656 126.509V162.446" stroke="#9DAFCC" stroke-width="0.6" stroke-linecap="round" stroke-linejoin="round"/>
<path d="M232.234 134.254H241.078" stroke="#9DAFCC" stroke-width="0.6" stroke-linecap="round" stroke-linejoin="round"/>
<path d="M232.234 139.891H241.078" stroke="#9DAFCC" stroke-width="0.6" stroke-linecap="round" stroke-linejoin="round"/>
<path d="M232.234 145.53H241.078" stroke="#9DAFCC" stroke-width="0.6" stroke-linecap="round" stroke-linejoin="round"/>
<path d="M232.234 151.169H241.078" stroke="#9DAFCC" stroke-width="0.6" stroke-linecap="round" stroke-linejoin="round"/>
<path d="M232.234 156.807H241.078" stroke="#9DAFCC" stroke-width="0.6" stroke-linecap="round" stroke-linejoin="round"/>
<path d="M232.234 162.445H241.078" stroke="#9DAFCC" stroke-width="0.6" stroke-linecap="round" stroke-linejoin="round"/>
<path d="M242.047 162.445H231.365V165.559H242.047V162.445Z" fill="white" stroke="#9DAFCC" stroke-width="0.6" stroke-linecap="round" stroke-linejoin="round"/>
<path d="M224.51 116.526H219.615V175.53H224.51V116.526Z" fill="white" stroke="#9DAFCC" stroke-width="0.6" stroke-linecap="round" stroke-linejoin="round"/>
<path d="M195.333 116.526H190.437V175.53H195.333V116.526Z" fill="white" stroke="#9DAFCC" stroke-width="0.6" stroke-linecap="round" stroke-linejoin="round"/>
<path d="M226.096 186.48H232.438" stroke="#9DAFCC" stroke-width="0.6" stroke-linecap="round" stroke-linejoin="round"/>
<path d="M254.358 96.8431H160.595V106.665H254.358V96.8431Z" fill="white" stroke="#9DAFCC" stroke-width="0.6" stroke-linecap="round" stroke-linejoin="round"/>
<path d="M254.358 106.666H160.595L163.87 116.526H251.083L254.358 106.666Z" fill="white" stroke="#9DAFCC" stroke-width="0.6" stroke-linecap="round" stroke-linejoin="round"/>
<path d="M165.803 106.666V116.526" stroke="#9DAFCC" stroke-width="0.6" stroke-linecap="round" stroke-linejoin="round"/>
<path d="M171.011 106.666V116.526" stroke="#9DAFCC" stroke-width="0.6" stroke-linecap="round" stroke-linejoin="round"/>
<path d="M176.219 106.666V116.526" stroke="#9DAFCC" stroke-width="0.6" stroke-linecap="round" stroke-linejoin="round"/>
<path d="M181.432 106.666V116.526" stroke="#9DAFCC" stroke-width="0.6" stroke-linecap="round" stroke-linejoin="round"/>
<path d="M186.64 106.666V116.526" stroke="#9DAFCC" stroke-width="0.6" stroke-linecap="round" stroke-linejoin="round"/>
<path d="M191.849 106.666V116.526" stroke="#9DAFCC" stroke-width="0.6" stroke-linecap="round" stroke-linejoin="round"/>
<path d="M197.057 106.666V116.526" stroke="#9DAFCC" stroke-width="0.6" stroke-linecap="round" stroke-linejoin="round"/>
<path d="M202.266 106.666V116.526" stroke="#9DAFCC" stroke-width="0.6" stroke-linecap="round" stroke-linejoin="round"/>
<path d="M207.474 106.666V116.526" stroke="#9DAFCC" stroke-width="0.6" stroke-linecap="round" stroke-linejoin="round"/>
<path d="M212.687 106.666V116.526" stroke="#9DAFCC" stroke-width="0.6" stroke-linecap="round" stroke-linejoin="round"/>
<path d="M217.895 106.666V116.526" stroke="#9DAFCC" stroke-width="0.6" stroke-linecap="round" stroke-linejoin="round"/>
<path d="M223.104 106.666V116.526" stroke="#9DAFCC" stroke-width="0.6" stroke-linecap="round" stroke-linejoin="round"/>
<path d="M228.312 106.666V116.526" stroke="#9DAFCC" stroke-width="0.6" stroke-linecap="round" stroke-linejoin="round"/>
<path d="M233.52 106.666V116.526" stroke="#9DAFCC" stroke-width="0.6" stroke-linecap="round" stroke-linejoin="round"/>
<path d="M238.733 106.666V116.526" stroke="#9DAFCC" stroke-width="0.6" stroke-linecap="round" stroke-linejoin="round"/>
<path d="M243.941 106.666V116.526" stroke="#9DAFCC" stroke-width="0.6" stroke-linecap="round" stroke-linejoin="round"/>
<path d="M249.149 106.666V116.526" stroke="#9DAFCC" stroke-width="0.6" stroke-linecap="round" stroke-linejoin="round"/>
<path d="M160.595 100.853H254.358" stroke="#9DAFCC" stroke-width="0.6" stroke-linecap="round" stroke-linejoin="round"/>
<path d="M254.358 56.3934H160.595V74.1948H254.358V56.3934Z" fill="white" stroke="#9DAFCC" stroke-width="0.6" stroke-linecap="round" stroke-linejoin="round"/>
<path d="M254.358 74.1949H160.595V96.8442H254.358V74.1949Z" fill="#E4EBF5" stroke="#9DAFCC" stroke-width="0.6" stroke-linecap="round" stroke-linejoin="round"/>
<path d="M203.847 87.0265V85.2889C203.847 83.3835 203.09 81.5561 201.742 80.2085C200.394 78.8611 198.567 78.1041 196.662 78.1041C194.756 78.1041 192.929 78.8611 191.581 80.2085C190.234 81.5561 189.477 83.3835 189.477 85.2889V87.0265H203.847Z" fill="white" stroke="#9DAFCC" stroke-width="0.6" stroke-linecap="round" stroke-linejoin="round"/>
<path d="M196.662 82.2051C195.841 82.2061 195.054 82.5332 194.475 83.1137C193.895 83.6946 193.569 84.4814 193.569 85.3021V96.8442H199.768V85.3021C199.768 84.8949 199.687 84.4911 199.531 84.1149C199.375 83.7388 199.146 83.3966 198.857 83.1093C198.569 82.8215 198.226 82.5934 197.85 82.4381C197.473 82.2832 197.069 82.2041 196.662 82.2051Z" fill="#365DA0" stroke="#9DAFCC" stroke-width="0.6" stroke-linecap="round" stroke-linejoin="round"/>
<path d="M182.218 87.026V85.2884C182.242 84.3304 182.074 83.3771 181.723 82.4851C181.373 81.593 180.847 80.7801 180.178 80.0941C179.509 79.4082 178.709 78.863 177.826 78.4908C176.943 78.1186 175.994 77.9269 175.036 77.9269C174.077 77.9269 173.129 78.1186 172.245 78.4908C171.362 78.863 170.562 79.4082 169.893 80.0941C169.224 80.7801 168.699 81.593 168.348 82.4851C167.998 83.3771 167.829 84.3304 167.853 85.2884V87.026H182.218Z" fill="white" stroke="#9DAFCC" stroke-width="0.6" stroke-linecap="round" stroke-linejoin="round"/>
<path d="M175.038 82.205C174.216 82.205 173.429 82.5311 172.848 83.1121C172.267 83.693 171.941 84.4808 171.941 85.302V96.844H178.131V85.302C178.131 84.4812 177.805 83.6945 177.225 83.1135C176.645 82.5331 175.859 82.2059 175.038 82.205Z" fill="#365DA0" stroke="#9DAFCC" stroke-width="0.6" stroke-linecap="round" stroke-linejoin="round"/>
<path d="M247.117 87.0265V85.2889C247.117 83.3835 246.36 81.5561 245.012 80.2085C243.665 78.8611 241.837 78.1041 239.932 78.1041C238.026 78.1041 236.199 78.8611 234.852 80.2085C233.504 81.5561 232.747 83.3835 232.747 85.2889V87.0265H247.117Z" fill="white" stroke="#9DAFCC" stroke-width="0.6" stroke-linecap="round" stroke-linejoin="round"/>
<path d="M239.914 82.205C239.094 82.2059 238.307 82.5331 237.727 83.1135C237.147 83.6945 236.822 84.4812 236.822 85.302V96.844H243.012V85.302C243.012 84.4808 242.686 83.693 242.105 83.1121C241.524 82.5311 240.736 82.205 239.914 82.205Z" fill="#365DA0" stroke="#9DAFCC" stroke-width="0.6" stroke-linecap="round" stroke-linejoin="round"/>
<path d="M225.475 87.0265V85.2889C225.475 83.3835 224.718 81.5561 223.37 80.2085C222.023 78.8611 220.196 78.1041 218.29 78.1041C216.384 78.1041 214.557 78.8611 213.21 80.2085C211.862 81.5561 211.105 83.3835 211.105 85.2889V87.0265H225.475Z" fill="white" stroke="#9DAFCC" stroke-width="0.6" stroke-linecap="round" stroke-linejoin="round"/>
<path d="M218.29 82.205C217.469 82.205 216.681 82.5311 216.1 83.1121C215.52 83.693 215.193 84.4808 215.193 85.302V96.844H221.383V85.302C221.383 84.4812 221.057 83.6945 220.477 83.1135C219.897 82.5331 219.111 82.2059 218.29 82.205Z" fill="#365DA0" stroke="#9DAFCC" stroke-width="0.6" stroke-linecap="round" stroke-linejoin="round"/>
<path d="M163.123 61.319C162.79 61.3184 162.461 61.3834 162.154 61.5102C161.847 61.6371 161.569 61.8233 161.334 62.0582C161.099 62.293 160.912 62.5719 160.786 62.8789C160.659 63.1859 160.594 63.5149 160.594 63.8471V74.1943H165.65V63.8471C165.651 63.5149 165.586 63.1859 165.459 62.8789C165.332 62.5719 165.146 62.293 164.911 62.0582C164.676 61.8233 164.398 61.6371 164.09 61.5102C163.784 61.3834 163.455 61.3184 163.123 61.319Z" fill="#365DA0" stroke="#9DAFCC" stroke-width="0.6" stroke-linecap="round" stroke-linejoin="round"/>
<path d="M172.979 61.319C172.647 61.3184 172.318 61.3834 172.011 61.5102C171.704 61.6371 171.425 61.8233 171.19 62.0582C170.955 62.293 170.769 62.5719 170.642 62.8789C170.515 63.1859 170.45 63.5149 170.451 63.8471V74.1943H175.507V63.8471C175.508 63.5149 175.443 63.1859 175.316 62.8789C175.189 62.5719 175.003 62.293 174.768 62.0582C174.533 61.8233 174.254 61.6371 173.947 61.5102C173.64 61.3834 173.311 61.3184 172.979 61.319Z" fill="#365DA0" stroke="#9DAFCC" stroke-width="0.6" stroke-linecap="round" stroke-linejoin="round"/>
<path d="M182.827 61.319C182.495 61.3184 182.165 61.3834 181.858 61.5102C181.552 61.6371 181.272 61.8233 181.038 62.0582C180.803 62.293 180.616 62.5719 180.49 62.8789C180.363 63.1859 180.298 63.5149 180.298 63.8471V74.1943H185.355V63.8471C185.355 63.5149 185.29 63.1859 185.163 62.8789C185.036 62.5719 184.85 62.293 184.615 62.0582C184.381 61.8233 184.102 61.6371 183.795 61.5102C183.488 61.3834 183.158 61.3184 182.827 61.319Z" fill="#365DA0" stroke="#9DAFCC" stroke-width="0.6" stroke-linecap="round" stroke-linejoin="round"/>
<path d="M192.692 61.319C192.359 61.3184 192.03 61.3834 191.724 61.5102C191.416 61.6371 191.138 61.8233 190.903 62.0582C190.668 62.293 190.481 62.5719 190.355 62.8789C190.228 63.1859 190.163 63.5149 190.164 63.8471V74.1943H195.22V63.8471C195.22 63.5149 195.155 63.1859 195.028 62.8789C194.902 62.5719 194.715 62.293 194.481 62.0582C194.246 61.8233 193.967 61.6371 193.66 61.5102C193.353 61.3834 193.024 61.3184 192.692 61.319Z" fill="#365DA0" stroke="#9DAFCC" stroke-width="0.6" stroke-linecap="round" stroke-linejoin="round"/>
<path d="M202.548 61.319C202.216 61.3184 201.887 61.3834 201.58 61.5102C201.273 61.6371 200.994 61.8233 200.759 62.0582C200.524 62.293 200.338 62.5719 200.211 62.8789C200.084 63.1859 200.019 63.5149 200.02 63.8471V74.1943H205.076V63.8471C205.076 63.1766 204.81 62.5336 204.336 62.0594C203.862 61.5853 203.218 61.319 202.548 61.319Z" fill="#365DA0" stroke="#9DAFCC" stroke-width="0.6" stroke-linecap="round" stroke-linejoin="round"/>
<path d="M212.404 61.319C212.072 61.3184 211.743 61.3834 211.436 61.5102C211.129 61.6371 210.85 61.8233 210.615 62.0582C210.38 62.293 210.194 62.5719 210.067 62.8789C209.94 63.1859 209.875 63.5149 209.876 63.8471V74.1943H214.933V63.8471C214.933 63.1766 214.666 62.5336 214.192 62.0594C213.718 61.5853 213.075 61.319 212.404 61.319Z" fill="#365DA0" stroke="#9DAFCC" stroke-width="0.6" stroke-linecap="round" stroke-linejoin="round"/>
<path d="M222.261 61.319C221.929 61.3184 221.6 61.3834 221.292 61.5102C220.986 61.6371 220.707 61.8233 220.472 62.0582C220.237 62.293 220.051 62.5719 219.924 62.8789C219.797 63.1859 219.732 63.5149 219.732 63.8471V74.1943H224.789V63.8471C224.789 63.5151 224.723 63.1864 224.597 62.8796C224.469 62.5729 224.283 62.2942 224.048 62.0594C223.814 61.8247 223.535 61.6384 223.228 61.5114C222.922 61.3844 222.593 61.319 222.261 61.319Z" fill="#365DA0" stroke="#9DAFCC" stroke-width="0.6" stroke-linecap="round" stroke-linejoin="round"/>
<path d="M232.117 61.319C231.784 61.3184 231.456 61.3834 231.149 61.5102C230.841 61.6371 230.563 61.8233 230.328 62.0582C230.093 62.293 229.907 62.5719 229.78 62.8789C229.653 63.1859 229.588 63.5149 229.589 63.8471V74.1943H234.645V63.8471C234.645 63.1766 234.379 62.5336 233.904 62.0594C233.43 61.5853 232.787 61.319 232.117 61.319Z" fill="#365DA0" stroke="#9DAFCC" stroke-width="0.6" stroke-linecap="round" stroke-linejoin="round"/>
<path d="M241.974 61.319C241.641 61.3184 241.312 61.3834 241.005 61.5103C240.698 61.6371 240.419 61.8233 240.185 62.0582C239.95 62.2931 239.763 62.572 239.637 62.879C239.509 63.186 239.445 63.515 239.445 63.8471V74.1943H244.51V63.8471C244.51 63.5144 244.444 63.185 244.317 62.8776C244.189 62.5704 244.002 62.2912 243.766 62.0564C243.531 61.8215 243.251 61.6355 242.944 61.5089C242.636 61.3824 242.306 61.3178 241.974 61.319Z" fill="#365DA0" stroke="#9DAFCC" stroke-width="0.6" stroke-linecap="round" stroke-linejoin="round"/>
<path d="M251.829 61.319C251.497 61.3184 251.168 61.3834 250.861 61.5102C250.554 61.6371 250.275 61.8233 250.04 62.0582C249.805 62.293 249.619 62.5719 249.492 62.8789C249.366 63.1859 249.301 63.5149 249.301 63.8471V74.1943H254.357V63.8471C254.357 63.1766 254.091 62.5336 253.617 62.0594C253.143 61.5853 252.5 61.319 251.829 61.319Z" fill="#365DA0" stroke="#9DAFCC" stroke-width="0.6" stroke-linecap="round" stroke-linejoin="round"/>
<path d="M256.165 51.3882H158.787V56.3924H256.165V51.3882Z" fill="white" stroke="#9DAFCC" stroke-width="0.6" stroke-linecap="round" stroke-linejoin="round"/>
<path d="M207.474 34.439L158.787 51.3889H256.165L207.474 34.439Z" fill="#F25451" stroke="#9DAFCC" stroke-width="0.6" stroke-linecap="round" stroke-linejoin="round"/>
<path d="M207.521 39.9769C205.794 39.9769 204.136 40.6634 202.914 41.8854C201.692 43.1073 201.006 44.7647 201.006 46.4928H214.016C214.016 44.7684 213.332 43.1144 212.115 41.893C210.897 40.6717 209.246 39.9827 207.521 39.9769Z" fill="#365DA0" stroke="#9DAFCC" stroke-width="0.6" stroke-linejoin="round"/>
<path d="M247.117 87.0265V85.2889C247.117 83.3835 246.36 81.5561 245.012 80.2085C243.665 78.8611 241.837 78.1041 239.932 78.1041C238.026 78.1041 236.199 78.8611 234.852 80.2085C233.504 81.5561 232.747 83.3835 232.747 85.2889V87.0265H247.117Z" fill="white" stroke="#9DAFCC" stroke-width="0.6" stroke-linecap="round" stroke-linejoin="round"/>
<path d="M239.914 82.205C239.094 82.2059 238.307 82.5331 237.727 83.1135C237.147 83.6945 236.822 84.4812 236.822 85.302V96.844H243.012V85.302C243.012 84.4808 242.686 83.693 242.105 83.1121C241.524 82.5311 240.736 82.205 239.914 82.205Z" fill="#365DA0" stroke="#9DAFCC" stroke-width="0.6" stroke-linecap="round" stroke-linejoin="round"/>
<path d="M236.822 87.0824H243.012" stroke="#9DAFCC" stroke-width="0.6" stroke-linecap="round" stroke-linejoin="round"/>
<path d="M236.822 91.965H243.012" stroke="#9DAFCC" stroke-width="0.6" stroke-linecap="round" stroke-linejoin="round"/>
<path d="M225.475 87.0265V85.2889C225.475 83.3835 224.718 81.5561 223.37 80.2085C222.023 78.8611 220.196 78.1041 218.29 78.1041C216.384 78.1041 214.557 78.8611 213.21 80.2085C211.862 81.5561 211.105 83.3835 211.105 85.2889V87.0265H225.475Z" fill="white" stroke="#9DAFCC" stroke-width="0.6" stroke-linecap="round" stroke-linejoin="round"/>
<path d="M218.29 82.205C217.469 82.205 216.681 82.5311 216.1 83.1121C215.52 83.693 215.193 84.4808 215.193 85.302V96.844H221.383V85.302C221.383 84.4812 221.057 83.6945 220.477 83.1135C219.897 82.5331 219.111 82.2059 218.29 82.205Z" fill="#365DA0" stroke="#9DAFCC" stroke-width="0.6" stroke-linecap="round" stroke-linejoin="round"/>
<path d="M215.193 87.0824H221.383" stroke="#9DAFCC" stroke-width="0.6" stroke-linecap="round" stroke-linejoin="round"/>
<path d="M215.193 91.965H221.383" stroke="#9DAFCC" stroke-width="0.6" stroke-linecap="round" stroke-linejoin="round"/>
<path d="M203.847 87.0265V85.2889C203.847 83.3835 203.09 81.5561 201.742 80.2085C200.394 78.8611 198.567 78.1041 196.662 78.1041C194.756 78.1041 192.929 78.8611 191.581 80.2085C190.234 81.5561 189.477 83.3835 189.477 85.2889V87.0265H203.847Z" fill="white" stroke="#9DAFCC" stroke-width="0.6" stroke-linecap="round" stroke-linejoin="round"/>
<path d="M196.662 82.2051C195.841 82.2061 195.054 82.5332 194.475 83.1137C193.895 83.6946 193.569 84.4814 193.569 85.3021V96.8442H199.768V85.3021C199.768 84.8949 199.687 84.4911 199.531 84.1149C199.375 83.7388 199.146 83.3966 198.857 83.1093C198.569 82.8215 198.226 82.5934 197.85 82.4381C197.473 82.2832 197.069 82.2041 196.662 82.2051Z" fill="#365DA0" stroke="#9DAFCC" stroke-width="0.6" stroke-linecap="round" stroke-linejoin="round"/>
<path d="M193.569 87.0824H199.759" stroke="#9DAFCC" stroke-width="0.6" stroke-linecap="round" stroke-linejoin="round"/>
<path d="M193.569 91.965H199.759" stroke="#9DAFCC" stroke-width="0.6" stroke-linecap="round" stroke-linejoin="round"/>
<path d="M182.218 87.026V85.2884C182.242 84.3304 182.074 83.3771 181.723 82.4851C181.373 81.593 180.847 80.7801 180.178 80.0941C179.509 79.4082 178.709 78.863 177.826 78.4908C176.943 78.1186 175.994 77.9269 175.036 77.9269C174.077 77.9269 173.129 78.1186 172.245 78.4908C171.362 78.863 170.562 79.4082 169.893 80.0941C169.224 80.7801 168.699 81.593 168.348 82.4851C167.998 83.3771 167.829 84.3304 167.853 85.2884V87.026H182.218Z" fill="white" stroke="#9DAFCC" stroke-width="0.6" stroke-linecap="round" stroke-linejoin="round"/>
<path d="M175.038 82.205C174.216 82.205 173.429 82.5311 172.848 83.1121C172.267 83.693 171.941 84.4808 171.941 85.302V96.844H178.131V85.302C178.131 84.4812 177.805 83.6945 177.225 83.1135C176.645 82.5331 175.859 82.2059 175.038 82.205Z" fill="#365DA0" stroke="#9DAFCC" stroke-width="0.6" stroke-linecap="round" stroke-linejoin="round"/>
<path d="M171.941 87.0824H178.131" stroke="#9DAFCC" stroke-width="0.6" stroke-linecap="round" stroke-linejoin="round"/>
<path d="M171.941 91.965H178.131" stroke="#9DAFCC" stroke-width="0.6" stroke-linecap="round" stroke-linejoin="round"/>
</g>
</g>
<defs>
<filter id="filter0_dd_202_4079" x="-11.9112" y="-11.9112" width="296.822" height="263.822" filterUnits="userSpaceOnUse" color-interpolation-filters="sRGB">
<feFlood flood-opacity="0" result="BackgroundImageFix"/>
<feColorMatrix in="SourceAlpha" type="matrix" values="0 0 0 0 0 0 0 0 0 0 0 0 0 0 0 0 0 0 127 0" result="hardAlpha"/>
<feOffset/>
<feGaussianBlur stdDeviation="5.95559"/>
<feComposite in2="hardAlpha" operator="out"/>
<feColorMatrix type="matrix" values="0 0 0 0 0.568627 0 0 0 0 0.741176 0 0 0 0 0.866667 0 0 0 1 0"/>
<feBlend mode="normal" in2="BackgroundImageFix" result="effect1_dropShadow_202_4079"/>
<feColorMatrix in="SourceAlpha" type="matrix" values="0 0 0 0 0 0 0 0 0 0 0 0 0 0 0 0 0 0 127 0" result="hardAlpha"/>
<feOffset dy="2.38223"/>
<feGaussianBlur stdDeviation="2.97779"/>
<feComposite in2="hardAlpha" operator="out"/>
<feColorMatrix type="matrix" values="0 0 0 0 0 0 0 0 0 0 0 0 0 0 0 0 0 0 0.1 0"/>
<feBlend mode="normal" in2="effect1_dropShadow_202_4079" result="effect2_dropShadow_202_4079"/>
<feBlend mode="normal" in="SourceGraphic" in2="effect2_dropShadow_202_4079" result="shape"/>
</filter>
<filter id="filter1_dd_202_4079" x="4.87325" y="22.2277" width="263.503" height="189.943" filterUnits="userSpaceOnUse" color-interpolation-filters="sRGB">
<feFlood flood-opacity="0" result="BackgroundImageFix"/>
<feColorMatrix in="SourceAlpha" type="matrix" values="0 0 0 0 0 0 0 0 0 0 0 0 0 0 0 0 0 0 127 0" result="hardAlpha"/>
<feOffset/>
<feGaussianBlur stdDeviation="5.95559"/>
<feComposite in2="hardAlpha" operator="out"/>
<feColorMatrix type="matrix" values="0 0 0 0 0.568627 0 0 0 0 0.741176 0 0 0 0 0.866667 0 0 0 1 0"/>
<feBlend mode="normal" in2="BackgroundImageFix" result="effect1_dropShadow_202_4079"/>
<feColorMatrix in="SourceAlpha" type="matrix" values="0 0 0 0 0 0 0 0 0 0 0 0 0 0 0 0 0 0 127 0" result="hardAlpha"/>
<feOffset dy="2.38223"/>
<feGaussianBlur stdDeviation="2.97779"/>
<feComposite in2="hardAlpha" operator="out"/>
<feColorMatrix type="matrix" values="0 0 0 0 0 0 0 0 0 0 0 0 0 0 0 0 0 0 0.1 0"/>
<feBlend mode="normal" in2="effect1_dropShadow_202_4079" result="effect2_dropShadow_202_4079"/>
<feBlend mode="normal" in="SourceGraphic" in2="effect2_dropShadow_202_4079" result="shape"/>
</filter>
</defs>
</svg>
