<svg width="273" height="240" viewBox="0 0 273 240" fill="none" xmlns="http://www.w3.org/2000/svg">
<g filter="url(#filter0_dd_202_1369)">
<g filter="url(#filter1_dd_202_1369)">
<path d="M112.383 109.266H96.3389V115.611H112.383V109.266Z" fill="#F25451" stroke="#9DAFCC" stroke-width="0.6" stroke-linejoin="round"/>
<path d="M114.596 115.611H94.1174V124.759H114.596V115.611Z" fill="#F25451" stroke="#9DAFCC" stroke-width="0.6" stroke-linejoin="round"/>
<path d="M114.596 124.759H94.1174V185.543H114.596V124.759Z" fill="#E4EBF5" stroke="#9DAFCC" stroke-width="0.6" stroke-linejoin="round"/>
<path d="M104.359 118.808C102.78 118.808 101.267 119.435 100.15 120.551C99.0343 121.667 98.4072 123.181 98.4072 124.759V133.824H110.31V124.759C110.31 123.181 109.683 121.667 108.567 120.551C107.451 119.435 105.937 118.808 104.359 118.808Z" fill="#365DA0" stroke="#9DAFCC" stroke-width="0.6" stroke-miterlimit="10"/>
<path d="M104.359 96.9867H101.788C100.432 96.9867 99.3301 95.1894 99.3301 92.968C99.3301 90.8559 100.611 90.0731 102.212 88.665C103.489 87.5412 104.359 82.8184 104.359 82.8184C104.359 82.8184 105.439 87.5805 106.506 88.665C108.002 90.1824 109.388 90.8515 109.388 92.968C109.388 95.1894 108.286 96.9867 106.93 96.9867H104.359Z" fill="#F25451" stroke="#9DAFCC" stroke-width="0.6" stroke-linejoin="round"/>
<path d="M96.3389 112.441H112.379" stroke="#9DAFCC" stroke-width="0.6" stroke-linejoin="round"/>
<path d="M107.486 96.9868H101.237V109.266H107.486V96.9868Z" fill="white" stroke="#9DAFCC" stroke-width="0.6" stroke-linejoin="round"/>
<path d="M104.359 99.2212V106.559" stroke="#9DAFCC" stroke-width="0.6" stroke-linecap="round" stroke-linejoin="round"/>
<path d="M114.578 133.824H15.2295V185.547H114.578V133.824Z" fill="#E4EBF5" stroke="#9DAFCC" stroke-width="0.6" stroke-linejoin="round"/>
<path d="M63.0872 65.9739C63.6374 65.9739 64.1822 65.8655 64.6904 65.655C65.1985 65.4445 65.6607 65.1359 66.0495 64.7469C66.4387 64.3579 66.747 63.8961 66.9577 63.3878C67.1681 62.8795 67.2765 62.3348 67.2765 61.7846C67.2765 58.6055 64.9807 58.2644 63.0872 54.8798C61.1981 58.2644 58.9023 58.6055 58.9023 61.7846C58.9023 62.895 59.3431 63.9599 60.1276 64.7454C60.9126 65.5309 61.977 65.9728 63.0872 65.9739Z" fill="#F25451" stroke="#9DAFCC" stroke-width="0.6" stroke-linejoin="round"/>
<path d="M65.0814 70.312H61.0976L51.897 96.9867H74.282L65.0814 70.312Z" fill="#F25451" stroke="#9DAFCC" stroke-width="0.6" stroke-linejoin="round"/>
<path d="M86.1326 124.475H40.0505V185.547H86.1326V124.475Z" fill="#E4EBF5" stroke="#9DAFCC" stroke-width="0.6" stroke-linejoin="round"/>
<path d="M49.2643 129.088C49.2831 128.471 49.1782 127.857 48.9551 127.281C48.7321 126.706 48.3958 126.181 47.9664 125.738C47.5366 125.295 47.0224 124.942 46.454 124.702C45.8856 124.461 45.2747 124.337 44.6574 124.337C44.0402 124.337 43.4293 124.461 42.8608 124.702C42.2924 124.942 41.7782 125.295 41.3485 125.738C40.9188 126.181 40.5825 126.706 40.3596 127.281C40.1366 127.857 40.0315 128.471 40.0505 129.088" fill="#E4EBF5"/>
<path d="M49.2643 129.088C49.2831 128.471 49.1782 127.857 48.9551 127.281C48.7321 126.706 48.3958 126.181 47.9664 125.738C47.5366 125.295 47.0224 124.942 46.454 124.702C45.8856 124.461 45.2747 124.337 44.6574 124.337C44.0402 124.337 43.4293 124.461 42.8608 124.702C42.2924 124.942 41.7782 125.295 41.3485 125.738C40.9188 126.181 40.5825 126.706 40.3596 127.281C40.1366 127.857 40.0315 128.471 40.0505 129.088" stroke="#9DAFCC" stroke-width="0.6" stroke-linejoin="round"/>
<path d="M58.4826 129.088C58.4826 127.866 57.9972 126.694 57.1326 125.829C56.2681 124.965 55.0957 124.479 53.8735 124.479C52.6512 124.479 51.4789 124.965 50.6143 125.829C49.7498 126.694 49.2644 127.866 49.2644 129.088" fill="#E4EBF5"/>
<path d="M58.4826 129.088C58.4826 127.866 57.9972 126.694 57.1326 125.829C56.2681 124.965 55.0957 124.479 53.8735 124.479C52.6512 124.479 51.4789 124.965 50.6143 125.829C49.7498 126.694 49.2644 127.866 49.2644 129.088" stroke="#9DAFCC" stroke-width="0.6" stroke-linejoin="round"/>
<path d="M67.6964 129.088C67.7152 128.471 67.6102 127.857 67.3872 127.281C67.1642 126.706 66.8279 126.181 66.3985 125.738C65.9686 125.295 65.4544 124.942 64.8859 124.702C64.3179 124.461 63.7065 124.337 63.0895 124.337C62.4725 124.337 61.8611 124.461 61.2931 124.702C60.7246 124.942 60.2104 125.295 59.7805 125.738C59.3511 126.181 59.0148 126.706 58.7918 127.281C58.5688 127.857 58.4638 128.471 58.4826 129.088" fill="#E4EBF5"/>
<path d="M67.6964 129.088C67.7152 128.471 67.6102 127.857 67.3872 127.281C67.1642 126.706 66.8279 126.181 66.3985 125.738C65.9686 125.295 65.4544 124.942 64.8859 124.702C64.3179 124.461 63.7065 124.337 63.0895 124.337C62.4725 124.337 61.8611 124.461 61.2931 124.702C60.7246 124.942 60.2104 125.295 59.7805 125.738C59.3511 126.181 59.0148 126.706 58.7918 127.281C58.5688 127.857 58.4638 128.471 58.4826 129.088" stroke="#9DAFCC" stroke-width="0.6" stroke-linejoin="round"/>
<path d="M76.9318 129.088C76.9318 127.866 76.4464 126.694 75.5818 125.829C74.7173 124.965 73.5449 124.479 72.3227 124.479C71.1005 124.479 69.9281 124.965 69.0636 125.829C68.199 126.694 67.7136 127.866 67.7136 129.088" fill="#E4EBF5"/>
<path d="M76.9318 129.088C76.9318 127.866 76.4464 126.694 75.5818 125.829C74.7173 124.965 73.5449 124.479 72.3227 124.479C71.1005 124.479 69.9281 124.965 69.0636 125.829C68.199 126.694 67.7136 127.866 67.7136 129.088" stroke="#9DAFCC" stroke-width="0.6" stroke-linejoin="round"/>
<path d="M86.1149 129.089C86.1704 128.452 86.093 127.81 85.8875 127.206C85.682 126.6 85.3531 126.045 84.9211 125.573C84.4895 125.102 83.9643 124.726 83.3796 124.469C82.7945 124.211 82.1622 124.078 81.5233 124.078C80.8844 124.078 80.2521 124.211 79.667 124.469C79.0824 124.726 78.5572 125.102 78.1256 125.573C77.6935 126.045 77.3647 126.6 77.1591 127.206C76.9536 127.81 76.8762 128.452 76.9318 129.089" fill="#E4EBF5"/>
<path d="M86.1149 129.089C86.1704 128.452 86.093 127.81 85.8875 127.206C85.682 126.6 85.3531 126.045 84.9211 125.573C84.4895 125.102 83.9643 124.726 83.3796 124.469C82.7945 124.211 82.1622 124.078 81.5233 124.078C80.8844 124.078 80.2521 124.211 79.667 124.469C79.0824 124.726 78.5572 125.102 78.1256 125.573C77.6935 126.045 77.3647 126.6 77.1591 127.206C76.9536 127.81 76.8762 128.452 76.9318 129.089" stroke="#9DAFCC" stroke-width="0.6" stroke-linejoin="round"/>
<path d="M76.9145 118.808H49.2644V124.471H76.9145V118.808Z" fill="#E4EBF5" stroke="#9DAFCC" stroke-width="0.6" stroke-linejoin="round"/>
<path d="M60.1617 123.863C60.1617 123.086 59.853 122.341 59.3038 121.791C58.7541 121.242 58.0089 120.933 57.2319 120.933C56.4548 120.933 55.7096 121.242 55.16 121.791C54.6107 122.341 54.302 123.086 54.302 123.863" fill="#E4EBF5"/>
<path d="M60.1617 123.863C60.1617 123.086 59.853 122.341 59.3038 121.791C58.7541 121.242 58.0089 120.933 57.2319 120.933C56.4548 120.933 55.7096 121.242 55.16 121.791C54.6107 122.341 54.302 123.086 54.302 123.863" stroke="#9DAFCC" stroke-width="0.6" stroke-linejoin="round"/>
<path d="M65.9997 123.863C66.015 123.469 65.9502 123.076 65.8103 122.707C65.6699 122.339 65.4565 122.002 65.1832 121.718C64.9099 121.434 64.582 121.208 64.2194 121.054C63.8565 120.899 63.4664 120.82 63.072 120.82C62.6775 120.82 62.2875 120.899 61.9245 121.054C61.562 121.208 61.234 121.434 60.9607 121.718C60.6874 122.002 60.474 122.339 60.3336 122.707C60.1937 123.076 60.129 123.469 60.1443 123.863" fill="#E4EBF5"/>
<path d="M65.9997 123.863C66.015 123.469 65.9502 123.076 65.8103 122.707C65.6699 122.339 65.4565 122.002 65.1832 121.718C64.9099 121.434 64.582 121.208 64.2194 121.054C63.8565 120.899 63.4664 120.82 63.072 120.82C62.6775 120.82 62.2875 120.899 61.9245 121.054C61.562 121.208 61.234 121.434 60.9607 121.718C60.6874 122.002 60.474 122.339 60.3336 122.707C60.1937 123.076 60.129 123.469 60.1443 123.863" stroke="#9DAFCC" stroke-width="0.6" stroke-linejoin="round"/>
<path d="M71.8768 123.863C71.8768 123.086 71.5681 122.341 71.0189 121.791C70.4692 121.242 69.724 120.933 68.947 120.933C68.1699 120.933 67.4247 121.242 66.8751 121.791C66.3258 122.341 66.0171 123.086 66.0171 123.863" fill="#E4EBF5"/>
<path d="M71.8768 123.863C71.8768 123.086 71.5681 122.341 71.0189 121.791C70.4692 121.242 69.724 120.933 68.947 120.933C68.1699 120.933 67.4247 121.242 66.8751 121.791C66.3258 122.341 66.0171 123.086 66.0171 123.863" stroke="#9DAFCC" stroke-width="0.6" stroke-linejoin="round"/>
<path d="M74.2777 96.9868H51.897V118.808H74.2777V96.9868Z" fill="#E4EBF5" stroke="#9DAFCC" stroke-width="0.6" stroke-linejoin="round"/>
<path d="M51.897 100.669H74.282" stroke="#9DAFCC" stroke-width="0.6" stroke-linejoin="round"/>
<path d="M59.3572 100.669V118.808" stroke="#9DAFCC" stroke-width="0.6" stroke-linejoin="round"/>
<path d="M66.8174 100.669V118.808" stroke="#9DAFCC" stroke-width="0.6" stroke-linejoin="round"/>
<path d="M63.087 104.123C62.4376 104.123 61.8145 104.381 61.3553 104.841C60.8962 105.3 60.6382 105.923 60.6382 106.572V114.409H65.5621V106.572C65.5617 106.249 65.497 105.928 65.3719 105.629C65.2473 105.331 65.0645 105.06 64.8344 104.833C64.6044 104.605 64.3316 104.425 64.0316 104.303C63.7316 104.182 63.4106 104.12 63.087 104.123Z" fill="#365DA0" stroke="#9DAFCC" stroke-width="0.6" stroke-miterlimit="10"/>
<path d="M70.5343 104.123C69.8849 104.123 69.2618 104.381 68.8026 104.84C68.3435 105.3 68.0854 105.922 68.0854 106.572V114.408H72.9963V106.572C72.9958 106.249 72.9315 105.93 72.8073 105.632C72.6832 105.335 72.5017 105.064 72.273 104.837C72.0443 104.61 71.7731 104.429 71.4749 104.307C71.1762 104.185 70.857 104.122 70.5343 104.123Z" fill="#365DA0" stroke="#9DAFCC" stroke-width="0.6" stroke-miterlimit="10"/>
<path d="M55.6441 104.123C54.9943 104.123 54.3707 104.381 53.9111 104.84C53.4511 105.299 53.1922 105.922 53.1909 106.572V114.408H58.093V106.572C58.093 105.922 57.835 105.3 57.3758 104.84C56.9167 104.381 56.2935 104.123 55.6441 104.123Z" fill="#365DA0" stroke="#9DAFCC" stroke-width="0.6" stroke-miterlimit="10"/>
<path d="M55.6271 86.3779L51.897 96.9867H59.3572L55.6271 86.3779Z" fill="#E4EBF5" stroke="#9DAFCC" stroke-width="0.6" stroke-linejoin="round"/>
<path d="M63.0873 86.3779L59.3572 96.9867H66.8218L63.0873 86.3779Z" fill="#E4EBF5" stroke="#9DAFCC" stroke-width="0.6" stroke-linejoin="round"/>
<path d="M70.5516 86.3779L66.8215 96.9867H74.2818L70.5516 86.3779Z" fill="#E4EBF5" stroke="#9DAFCC" stroke-width="0.6" stroke-linejoin="round"/>
<path d="M65.0548 65.4449H61.1191V70.312H65.0548V65.4449Z" fill="#F25451" stroke="#9DAFCC" stroke-width="0.6" stroke-linejoin="round"/>
<path d="M86.8276 129.692H40.0153L15.2295 133.824H90.116L86.8276 129.692Z" fill="#F25451" stroke="#9DAFCC" stroke-width="0.6" stroke-linejoin="round"/>
<path d="M63.0783 149.987C62.3651 149.987 61.6811 150.27 61.1765 150.775C60.6723 151.279 60.3889 151.963 60.3889 152.676V162.878H65.772V152.676C65.772 152.323 65.7025 151.972 65.5669 151.646C65.4314 151.32 65.2328 151.023 64.9827 150.773C64.7326 150.523 64.4356 150.325 64.109 150.19C63.7819 150.055 63.4316 149.986 63.0783 149.987Z" fill="#365DA0" stroke="#9DAFCC" stroke-width="0.6" stroke-miterlimit="10"/>
<path d="M68.4616 149.987C67.7484 149.987 67.0644 150.27 66.5598 150.775C66.0556 151.279 65.7722 151.963 65.7722 152.676V162.878H71.1509V152.676C71.1509 152.323 71.0814 151.973 70.9463 151.647C70.8112 151.321 70.6131 151.024 70.3634 150.775C70.1137 150.525 69.8172 150.327 69.491 150.192C69.1643 150.057 68.8149 149.987 68.4616 149.987Z" fill="#365DA0" stroke="#9DAFCC" stroke-width="0.6" stroke-miterlimit="10"/>
<path d="M57.6911 149.987C56.9778 149.987 56.2939 150.27 55.7893 150.775C55.2851 151.279 55.0017 151.963 55.0017 152.676V162.878H60.3804V152.676C60.3804 151.963 60.097 151.279 59.5928 150.775C59.0882 150.27 58.4043 149.987 57.6911 149.987Z" fill="#365DA0" stroke="#9DAFCC" stroke-width="0.6" stroke-miterlimit="10"/>
<path d="M15.2295 138.193H86.1192" stroke="#9DAFCC" stroke-width="0.6" stroke-miterlimit="10"/>
<path d="M74.2689 141.635H51.8882V185.548H74.2689V141.635Z" stroke="#9DAFCC" stroke-width="0.6" stroke-linejoin="round"/>
<path d="M42.7488 133.824V136.006" stroke="#9DAFCC" stroke-width="0.6" stroke-linejoin="round"/>
<path d="M40.0417 133.824V136.006" stroke="#9DAFCC" stroke-width="0.6" stroke-linejoin="round"/>
<path d="M45.4597 133.824V136.006" stroke="#9DAFCC" stroke-width="0.6" stroke-linejoin="round"/>
<path d="M48.1711 133.824V136.006" stroke="#9DAFCC" stroke-width="0.6" stroke-linejoin="round"/>
<path d="M50.8823 133.824V136.006" stroke="#9DAFCC" stroke-width="0.6" stroke-linejoin="round"/>
<path d="M53.5935 133.824V136.006" stroke="#9DAFCC" stroke-width="0.6" stroke-linejoin="round"/>
<path d="M56.3047 133.824V136.006" stroke="#9DAFCC" stroke-width="0.6" stroke-linejoin="round"/>
<path d="M59.0159 133.824V136.006" stroke="#9DAFCC" stroke-width="0.6" stroke-linejoin="round"/>
<path d="M61.7227 133.824V136.006" stroke="#9DAFCC" stroke-width="0.6" stroke-linejoin="round"/>
<path d="M64.4338 133.824V136.006" stroke="#9DAFCC" stroke-width="0.6" stroke-linejoin="round"/>
<path d="M67.1453 133.824V136.006" stroke="#9DAFCC" stroke-width="0.6" stroke-linejoin="round"/>
<path d="M69.8564 133.824V136.006" stroke="#9DAFCC" stroke-width="0.6" stroke-linejoin="round"/>
<path d="M72.5679 133.824V136.006" stroke="#9DAFCC" stroke-width="0.6" stroke-linejoin="round"/>
<path d="M75.2788 133.824V136.006" stroke="#9DAFCC" stroke-width="0.6" stroke-linejoin="round"/>
<path d="M77.99 133.824V136.006" stroke="#9DAFCC" stroke-width="0.6" stroke-linejoin="round"/>
<path d="M80.6968 133.824V136.006" stroke="#9DAFCC" stroke-width="0.6" stroke-linejoin="round"/>
<path d="M83.4082 133.824V136.006" stroke="#9DAFCC" stroke-width="0.6" stroke-linejoin="round"/>
<path d="M86.1194 133.824V136.006" stroke="#9DAFCC" stroke-width="0.6" stroke-linejoin="round"/>
<path d="M51.8882 146.003H74.2732" stroke="#9DAFCC" stroke-width="0.6" stroke-miterlimit="10"/>
<path d="M51.8882 141.635V143.817" stroke="#9DAFCC" stroke-width="0.6" stroke-linejoin="round"/>
<path d="M54.6865 141.635V143.817" stroke="#9DAFCC" stroke-width="0.6" stroke-linejoin="round"/>
<path d="M57.4854 141.635V143.817" stroke="#9DAFCC" stroke-width="0.6" stroke-linejoin="round"/>
<path d="M60.2842 141.635V143.817" stroke="#9DAFCC" stroke-width="0.6" stroke-linejoin="round"/>
<path d="M63.0784 141.635V143.817" stroke="#9DAFCC" stroke-width="0.6" stroke-linejoin="round"/>
<path d="M65.877 141.635V143.817" stroke="#9DAFCC" stroke-width="0.6" stroke-linejoin="round"/>
<path d="M68.6758 141.635V143.817" stroke="#9DAFCC" stroke-width="0.6" stroke-linejoin="round"/>
<path d="M71.4746 141.635V143.817" stroke="#9DAFCC" stroke-width="0.6" stroke-linejoin="round"/>
<path d="M74.2729 141.635V143.817" stroke="#9DAFCC" stroke-width="0.6" stroke-linejoin="round"/>
<path d="M63.0784 133.824L49.7803 141.634H76.3808L63.0784 133.824Z" fill="#F25451" stroke="#9DAFCC" stroke-width="0.6" stroke-linejoin="round"/>
<path d="M20.4553 152.055H40.0417" stroke="#9DAFCC" stroke-width="0.6" stroke-miterlimit="10"/>
<path d="M20.4553 147.686V149.868" stroke="#9DAFCC" stroke-width="0.6" stroke-linejoin="round"/>
<path d="M23.2542 147.686V149.868" stroke="#9DAFCC" stroke-width="0.6" stroke-linejoin="round"/>
<path d="M26.0527 147.686V149.868" stroke="#9DAFCC" stroke-width="0.6" stroke-linejoin="round"/>
<path d="M28.8472 147.686V149.868" stroke="#9DAFCC" stroke-width="0.6" stroke-linejoin="round"/>
<path d="M31.6455 147.686V149.868" stroke="#9DAFCC" stroke-width="0.6" stroke-linejoin="round"/>
<path d="M34.4443 147.686V149.868" stroke="#9DAFCC" stroke-width="0.6" stroke-linejoin="round"/>
<path d="M37.2432 147.686V149.868" stroke="#9DAFCC" stroke-width="0.6" stroke-linejoin="round"/>
<path d="M18.2776 147.687H40.0417V140.331L18.2776 147.687Z" fill="#F25451" stroke="#9DAFCC" stroke-width="0.6" stroke-linejoin="round"/>
<path d="M40.0417 147.686H20.4553V185.547H40.0417V147.686Z" stroke="#9DAFCC" stroke-width="0.6" stroke-linejoin="round"/>
<path d="M114.578 182.556H15.2295V187.043H114.578V182.556Z" fill="white" stroke="#9DAFCC" stroke-width="0.6" stroke-linejoin="round"/>
<path d="M32.4985 154.543C31.9186 154.543 31.3624 154.774 30.9524 155.184C30.5424 155.594 30.312 156.15 30.312 156.73V163.788H34.7287V156.747C34.7311 156.455 34.6748 156.165 34.5633 155.895C34.4517 155.625 34.2871 155.38 34.0792 155.174C33.8712 154.969 33.6242 154.807 33.3527 154.699C33.0812 154.591 32.7908 154.538 32.4985 154.543Z" fill="#365DA0" stroke="#9DAFCC" stroke-width="0.6" stroke-miterlimit="10"/>
<path d="M107.464 148.775H101.215V155.024H107.464V148.775Z" fill="#365DA0" stroke="#9DAFCC" stroke-width="0.6" stroke-linejoin="round"/>
<path d="M63.0782 172.07C62.0488 172.071 61.0619 172.481 60.3338 173.209C59.6057 173.937 59.1964 174.924 59.1951 175.953V182.556H66.9614V175.953C66.9614 174.923 66.5521 173.936 65.824 173.207C65.0959 172.479 64.1081 172.07 63.0782 172.07Z" fill="#365DA0" stroke="#9DAFCC" stroke-width="0.6" stroke-miterlimit="10"/>
<path d="M14.0798 170.43H115.711" stroke="#9DAFCC" stroke-width="0.6" stroke-linecap="round" stroke-linejoin="round"/>
<path d="M82.5379 112.196H79.9666C78.611 112.196 77.5134 110.394 77.5134 108.177C77.5134 106.061 78.7903 105.282 80.3908 103.874C81.6721 102.75 82.5379 98.0232 82.5379 98.0232C82.5379 98.0232 83.6181 102.79 84.6894 103.874C86.185 105.392 87.5668 106.061 87.5668 108.177C87.5668 110.394 86.4692 112.196 85.1136 112.196H82.5379Z" fill="#F25451" stroke="#9DAFCC" stroke-width="0.6" stroke-linejoin="round"/>
<path d="M85.6647 112.196H79.4158V124.475H85.6647V112.196Z" fill="white" stroke="#9DAFCC" stroke-width="0.6" stroke-linejoin="round"/>
<path d="M82.5378 114.43V121.768" stroke="#9DAFCC" stroke-width="0.6" stroke-linecap="round" stroke-linejoin="round"/>
<path d="M43.6364 112.196H41.0738C39.7182 112.196 38.6206 110.394 38.6206 108.177C38.6206 106.061 39.8975 105.282 41.498 103.874C42.7793 102.75 43.6451 98.0232 43.6451 98.0232C43.6451 98.0232 44.7252 102.79 45.7966 103.874C47.2921 105.392 48.674 106.061 48.674 108.177C48.674 110.394 47.5764 112.196 46.2208 112.196H43.6364Z" fill="#F25451" stroke="#9DAFCC" stroke-width="0.6" stroke-linejoin="round"/>
<path d="M46.7628 112.196H40.5139V124.475H46.7628V112.196Z" fill="white" stroke="#9DAFCC" stroke-width="0.6" stroke-linejoin="round"/>
<path d="M43.6362 114.43V121.768" stroke="#9DAFCC" stroke-width="0.6" stroke-linecap="round" stroke-linejoin="round"/>
<path d="M43.6362 98.0231V84.1477" stroke="#9DAFCC" stroke-width="0.6" stroke-linejoin="round"/>
<path d="M40.5095 88.7876H46.7628" stroke="#9DAFCC" stroke-width="0.6" stroke-linejoin="round"/>
<path d="M41.7646 86.5484H45.5123" stroke="#9DAFCC" stroke-width="0.6" stroke-linejoin="round"/>
<path d="M41.7561 93.8032L45.5212 95.8498" stroke="#9DAFCC" stroke-width="0.6" stroke-linejoin="round"/>
<path d="M82.5378 98.0231V84.1477" stroke="#9DAFCC" stroke-width="0.6" stroke-linejoin="round"/>
<path d="M79.4158 88.7876H85.6647" stroke="#9DAFCC" stroke-width="0.6" stroke-linejoin="round"/>
<path d="M80.6665 86.5484H84.4141" stroke="#9DAFCC" stroke-width="0.6" stroke-linejoin="round"/>
<path d="M80.6577 93.8032L84.4228 95.8498" stroke="#9DAFCC" stroke-width="0.6" stroke-linejoin="round"/>
<path d="M104.359 82.8182V68.9385" stroke="#9DAFCC" stroke-width="0.6" stroke-linejoin="round"/>
<path d="M101.232 73.5827H107.485" stroke="#9DAFCC" stroke-width="0.6" stroke-linejoin="round"/>
<path d="M102.487 71.3394H106.23" stroke="#9DAFCC" stroke-width="0.6" stroke-linejoin="round"/>
<path d="M102.479 78.594L106.239 80.6405" stroke="#9DAFCC" stroke-width="0.6" stroke-linejoin="round"/>
<path d="M63.0872 54.8797V41" stroke="#9DAFCC" stroke-width="0.6" stroke-linejoin="round"/>
<path d="M59.9648 45.6441H66.2138" stroke="#9DAFCC" stroke-width="0.6" stroke-linejoin="round"/>
<path d="M61.2156 43.4051H64.9632" stroke="#9DAFCC" stroke-width="0.6" stroke-linejoin="round"/>
<path d="M61.2068 50.6597L64.9719 52.7063" stroke="#9DAFCC" stroke-width="0.6" stroke-linejoin="round"/>
<path d="M114.596 133.824H94.1174V182.556H114.596V133.824Z" stroke="#9DAFCC" stroke-width="0.6" stroke-linejoin="round"/>
<path d="M53.4363 92.6182H57.8223" stroke="#9DAFCC" stroke-width="0.6" stroke-linecap="round" stroke-linejoin="round"/>
<path d="M60.8877 92.6182H65.2738" stroke="#9DAFCC" stroke-width="0.6" stroke-linecap="round" stroke-linejoin="round"/>
<path d="M68.3433 92.6182H72.7293" stroke="#9DAFCC" stroke-width="0.6" stroke-linecap="round" stroke-linejoin="round"/>
<path d="M171.422 127.833L181.537 130.449L176.482 136.076L184.598 151.92H175.677L168.864 131.957L171.422 127.833Z" fill="#9DAFCC" stroke="#9DAFCC" stroke-width="0.6" stroke-linejoin="round"/>
<path d="M155.33 127.833L145.215 130.449L150.275 136.076L142.159 151.92H151.08L157.893 131.957L155.33 127.833Z" fill="#9DAFCC" stroke="#9DAFCC" stroke-width="0.6" stroke-linejoin="round"/>
<path d="M166.022 139.877L173.219 150.337H179.171L171.252 131.795L174.737 123.872L168.715 125.14L166.022 101.53H163.376V150.337H166.022V139.877Z" fill="white" stroke="#9DAFCC" stroke-width="0.6" stroke-linejoin="round"/>
<path d="M160.73 139.877L153.537 150.337H147.581L155.505 131.795L152.015 123.872L158.037 125.14L160.73 101.53H163.376V150.337H160.73V139.877Z" fill="white" stroke="#9DAFCC" stroke-width="0.6" stroke-linejoin="round"/>
<path d="M167.29 127.833H159.051V136.072H167.29V127.833Z" fill="#F25451" stroke="#9DAFCC" stroke-width="0.6" stroke-linejoin="round"/>
<path d="M163.376 118.327V142.57" stroke="#9DAFCC" stroke-width="0.6" stroke-linejoin="round"/>
<path d="M258.719 191.927C235.171 174.204 213.153 157.473 185.284 148.972H141.467C113.673 157.281 90.3041 171.781 68.0327 191.927H258.719Z" fill="white" stroke="#9DAFCC" stroke-width="0.6" stroke-linecap="round" stroke-linejoin="round"/>
<path d="M198.788 171.143H127.968V191.928H198.788V171.143Z" fill="#365DA0" stroke="#9DAFCC" stroke-width="0.6" stroke-linecap="round" stroke-linejoin="round"/>
<path d="M203.712 171.143H123.04V182.688H203.712V171.143Z" fill="white" stroke="#9DAFCC" stroke-width="0.6" stroke-linecap="round" stroke-linejoin="round"/>
<path d="M198.806 191.311V171.143" stroke="#9DAFCC" stroke-width="0.6" stroke-linecap="round" stroke-linejoin="round"/>
<path d="M127.99 191.311V171.143" stroke="#9DAFCC" stroke-width="0.6" stroke-linecap="round" stroke-linejoin="round"/>
<path d="M132.114 191.928V183.304" stroke="#9DAFCC" stroke-width="0.6" stroke-linecap="round" stroke-linejoin="round"/>
<path d="M194.682 191.928V183.304" stroke="#9DAFCC" stroke-width="0.6" stroke-linecap="round" stroke-linejoin="round"/>
<path d="M187.392 168.073H139.36V182.701H187.392V168.073Z" fill="#365DA0" stroke="#9DAFCC" stroke-width="0.6" stroke-linecap="round" stroke-linejoin="round"/>
<path d="M142.01 171.095H184.449" stroke="#9DAFCC" stroke-width="0.6" stroke-linecap="round" stroke-linejoin="round"/>
<path d="M142.01 173.955H184.449" stroke="#9DAFCC" stroke-width="0.6" stroke-linecap="round" stroke-linejoin="round"/>
<path d="M142.01 176.815H184.449" stroke="#9DAFCC" stroke-width="0.6" stroke-linecap="round" stroke-linejoin="round"/>
<path d="M142.01 179.67H184.449" stroke="#9DAFCC" stroke-width="0.6" stroke-linecap="round" stroke-linejoin="round"/>
<path d="M132.092 186.103H194.66" stroke="#9DAFCC" stroke-width="0.6" stroke-linejoin="round"/>
<path d="M132.092 189.129H194.66" stroke="#9DAFCC" stroke-width="0.6" stroke-linejoin="round"/>
</g>
</g>
<defs>
<filter id="filter0_dd_202_1369" x="-11.9112" y="-11.9112" width="296.822" height="263.822" filterUnits="userSpaceOnUse" color-interpolation-filters="sRGB">
<feFlood flood-opacity="0" result="BackgroundImageFix"/>
<feColorMatrix in="SourceAlpha" type="matrix" values="0 0 0 0 0 0 0 0 0 0 0 0 0 0 0 0 0 0 127 0" result="hardAlpha"/>
<feOffset/>
<feGaussianBlur stdDeviation="5.95559"/>
<feComposite in2="hardAlpha" operator="out"/>
<feColorMatrix type="matrix" values="0 0 0 0 0.568627 0 0 0 0 0.741176 0 0 0 0 0.866667 0 0 0 1 0"/>
<feBlend mode="normal" in2="BackgroundImageFix" result="effect1_dropShadow_202_1369"/>
<feColorMatrix in="SourceAlpha" type="matrix" values="0 0 0 0 0 0 0 0 0 0 0 0 0 0 0 0 0 0 127 0" result="hardAlpha"/>
<feOffset dy="2.38223"/>
<feGaussianBlur stdDeviation="2.97779"/>
<feComposite in2="hardAlpha" operator="out"/>
<feColorMatrix type="matrix" values="0 0 0 0 0 0 0 0 0 0 0 0 0 0 0 0 0 0 0.1 0"/>
<feBlend mode="normal" in2="effect1_dropShadow_202_1369" result="effect2_dropShadow_202_1369"/>
<feBlend mode="normal" in="SourceGraphic" in2="effect2_dropShadow_202_1369" result="shape"/>
</filter>
<filter id="filter1_dd_202_1369" x="1.86861" y="29.0888" width="269.062" height="175.05" filterUnits="userSpaceOnUse" color-interpolation-filters="sRGB">
<feFlood flood-opacity="0" result="BackgroundImageFix"/>
<feColorMatrix in="SourceAlpha" type="matrix" values="0 0 0 0 0 0 0 0 0 0 0 0 0 0 0 0 0 0 127 0" result="hardAlpha"/>
<feOffset/>
<feGaussianBlur stdDeviation="5.95559"/>
<feComposite in2="hardAlpha" operator="out"/>
<feColorMatrix type="matrix" values="0 0 0 0 0.568627 0 0 0 0 0.741176 0 0 0 0 0.866667 0 0 0 1 0"/>
<feBlend mode="normal" in2="BackgroundImageFix" result="effect1_dropShadow_202_1369"/>
<feColorMatrix in="SourceAlpha" type="matrix" values="0 0 0 0 0 0 0 0 0 0 0 0 0 0 0 0 0 0 127 0" result="hardAlpha"/>
<feOffset dy="2.38223"/>
<feGaussianBlur stdDeviation="2.97779"/>
<feComposite in2="hardAlpha" operator="out"/>
<feColorMatrix type="matrix" values="0 0 0 0 0 0 0 0 0 0 0 0 0 0 0 0 0 0 0.1 0"/>
<feBlend mode="normal" in2="effect1_dropShadow_202_1369" result="effect2_dropShadow_202_1369"/>
<feBlend mode="normal" in="SourceGraphic" in2="effect2_dropShadow_202_1369" result="shape"/>
</filter>
</defs>
</svg>
