<svg width="273" height="240" viewBox="0 0 273 240" fill="none" xmlns="http://www.w3.org/2000/svg">
<g filter="url(#filter0_dd_202_2567)">
<g filter="url(#filter1_dd_202_2567)">
<path d="M38.7766 107.053H30.9397V159.996H38.7766V107.053Z" fill="white" stroke="#9DAFCC" stroke-width="0.6" stroke-linejoin="round"/>
<path d="M38.7766 56.8419H30.9397V92.4189H38.7766V56.8419Z" fill="white" stroke="#9DAFCC" stroke-width="0.6" stroke-linejoin="round"/>
<path d="M53.2795 166.449H16.4363V177.893H53.2795V166.449Z" fill="#365DA0" stroke="#9DAFCC" stroke-width="0.6" stroke-linecap="round" stroke-linejoin="round"/>
<path d="M53.2795 201.382H16.4363V206.765H53.2795V201.382Z" fill="#F25451" stroke="#9DAFCC" stroke-width="0.6" stroke-linecap="round" stroke-linejoin="round"/>
<path d="M53.2795 177.893H16.4363V201.382H53.2795V177.893Z" fill="white" stroke="#9DAFCC" stroke-width="0.6" stroke-linecap="round" stroke-linejoin="round"/>
<path d="M42.5143 201.382H27.2061V206.765H42.5143V201.382Z" fill="#F25451" stroke="#9DAFCC" stroke-width="0.6" stroke-linecap="round" stroke-linejoin="round"/>
<path d="M16.4363 182.184H53.2795" stroke="#9DAFCC" stroke-width="0.6" stroke-linecap="round" stroke-linejoin="round"/>
<path d="M23.381 182.184H20.2654V201.382H23.381V182.184Z" fill="white" stroke="#9DAFCC" stroke-width="0.6" stroke-linecap="round" stroke-linejoin="round"/>
<path d="M49.4547 182.184H46.3391V201.382H49.4547V182.184Z" fill="white" stroke="#9DAFCC" stroke-width="0.6" stroke-linecap="round" stroke-linejoin="round"/>
<path d="M45.3949 159.996H24.3254V177.893H45.3949V159.996Z" fill="#E4EBF5" stroke="#9DAFCC" stroke-width="0.6" stroke-linecap="round" stroke-linejoin="round"/>
<path d="M34.8602 171.492C33.8549 171.492 32.8593 171.689 31.9304 172.074C31.0015 172.458 30.1575 173.022 29.4466 173.733C28.7357 174.444 28.172 175.288 27.7875 176.217C27.403 177.145 27.2055 178.141 27.2061 179.147V201.382H42.5143V179.147C42.5143 177.116 41.7079 175.169 40.2724 173.734C38.837 172.299 36.8901 171.492 34.8602 171.492Z" fill="#365DA0" stroke="white" stroke-width="0.6" stroke-miterlimit="10" stroke-linecap="round"/>
<path d="M20.2698 167.276V172.976" stroke="#F25451" stroke-width="0.6" stroke-linejoin="round"/>
<path d="M49.4546 167.276V172.976" stroke="#F25451" stroke-width="0.6" stroke-linejoin="round"/>
<path d="M20.2698 176.997V171.497" stroke="#9DAFCC" stroke-width="0.6" stroke-linejoin="round"/>
<path d="M49.4546 176.997V171.497" stroke="#9DAFCC" stroke-width="0.6" stroke-linejoin="round"/>
<path d="M24.3254 163.686H45.3949" stroke="#9DAFCC" stroke-width="0.6" stroke-linejoin="round"/>
<path d="M42.5143 153.386H27.2061V159.992H42.5143V153.386Z" fill="#E4EBF5" stroke="#9DAFCC" stroke-width="0.6" stroke-linejoin="round"/>
<path d="M42.5143 153.386H27.2061V156.689H42.5143V153.386Z" fill="#E4EBF5" stroke="#9DAFCC" stroke-width="0.6" stroke-linejoin="round"/>
<path d="M40.5603 103.567H29.1597V107.053H40.5603V103.567Z" fill="#E4EBF5" stroke="#9DAFCC" stroke-width="0.6" stroke-linejoin="round"/>
<path d="M40.5603 92.4189H29.1597V95.9044H40.5603V92.4189Z" fill="#E4EBF5" stroke="#9DAFCC" stroke-width="0.6" stroke-linejoin="round"/>
<path d="M40.5603 53.3566H29.1597V56.842H40.5603V53.3566Z" fill="#F25451" stroke="#9DAFCC" stroke-width="0.6" stroke-linejoin="round"/>
<path d="M37.8801 95.9044H31.8403V103.567H37.8801V95.9044Z" fill="white" stroke="#9DAFCC" stroke-width="0.6" stroke-linejoin="round"/>
<path d="M43.8544 71.5322C40.9059 70.8477 37.8868 70.5144 34.8601 70.5401C31.8331 70.5161 28.814 70.8503 25.8657 71.5365V79.8042C28.8142 80.4887 31.8333 80.8216 34.8601 80.7963C37.8868 80.8216 40.9059 80.4887 43.8544 79.8042V71.5322Z" fill="#E4EBF5" stroke="#9DAFCC" stroke-width="0.6" stroke-linejoin="round"/>
<path d="M43.8544 74.1212H25.8657V77.2107H43.8544V74.1212Z" fill="#E4EBF5" stroke="#9DAFCC" stroke-width="0.6" stroke-linejoin="round"/>
<path d="M37.3402 73.1901H32.3796V78.1507H37.3402V73.1901Z" fill="#365DA0" stroke="#9DAFCC" stroke-width="0.6" stroke-linejoin="round"/>
<path d="M34.86 44.4753L29.1597 53.3565H40.5603L34.86 44.4753Z" fill="#F25451" stroke="#9DAFCC" stroke-width="0.6" stroke-linejoin="round"/>
<path d="M34.8601 47.3471C37.6238 47.3471 39.8642 45.1066 39.8642 42.343C39.8642 39.5793 37.6238 37.3389 34.8601 37.3389C32.0964 37.3389 29.856 39.5793 29.856 42.343C29.856 45.1066 32.0964 47.3471 34.8601 47.3471Z" fill="#F25451" stroke="#9DAFCC" stroke-width="0.6" stroke-linejoin="round"/>
<path d="M34.8601 37.3085V28.3054" stroke="#9DAFCC" stroke-width="0.6" stroke-linecap="round" stroke-linejoin="round"/>
<path d="M32.6235 30.5117H37.0968" stroke="#9DAFCC" stroke-width="0.6" stroke-linecap="round" stroke-linejoin="round"/>
<path d="M23.3811 201.382H46.3391" stroke="#9DAFCC" stroke-width="0.6" stroke-linejoin="round"/>
<path d="M91.5284 176.762H61.1687L91.4022 157.942L91.5284 176.762Z" fill="#F25451" stroke="#9DAFCC" stroke-width="0.6" stroke-linejoin="round"/>
<path d="M139.081 137.451H91.4023V162.385H139.081V137.451Z" fill="#F25451" stroke="#9DAFCC" stroke-width="0.6" stroke-linejoin="round"/>
<path d="M123.916 114.876C123.916 119.228 120.021 122.757 115.213 122.757C110.405 122.757 106.51 119.228 106.51 114.876C106.51 110.525 115.213 103.271 115.213 103.271C115.213 103.271 123.916 110.525 123.916 114.876Z" fill="#F25451" stroke="#9DAFCC" stroke-width="0.6" stroke-linejoin="round"/>
<path d="M121.453 123.484H108.991V131.238H121.453V123.484Z" fill="#E4EBF5" stroke="#9DAFCC" stroke-width="0.6" stroke-linejoin="round"/>
<path d="M117.876 123.484H112.572V131.238H117.876V123.484Z" stroke="#9DAFCC" stroke-width="0.6" stroke-linejoin="round"/>
<path d="M108.76 120.011L106.715 122.879H123.729L121.94 120.011H108.76Z" fill="#F25451" stroke="#9DAFCC" stroke-width="0.6" stroke-linejoin="round"/>
<path d="M104.97 131.238L101.724 137.451H128.72L125.878 131.238H104.97Z" fill="#F25451" stroke="#9DAFCC" stroke-width="0.6" stroke-linejoin="round"/>
<path d="M132.963 127.543C132.963 129.758 130.978 131.555 128.533 131.555C126.087 131.555 124.121 129.758 124.121 127.543C124.121 125.329 128.546 121.63 128.546 121.63C128.546 121.63 132.963 125.329 132.963 127.543Z" fill="#F25451" stroke="#9DAFCC" stroke-width="0.6" stroke-linejoin="round"/>
<path d="M134.764 140.963H122.301V149.588H134.764V140.963Z" fill="#E4EBF5" stroke="#9DAFCC" stroke-width="0.6" stroke-linejoin="round"/>
<path d="M131.187 140.963H125.882V149.588H131.187V140.963Z" stroke="#9DAFCC" stroke-width="0.6" stroke-linejoin="round"/>
<path d="M124.964 137.839L122.301 140.963H134.768L132.105 137.839H124.964Z" fill="#F25451" stroke="#9DAFCC" stroke-width="0.6" stroke-linejoin="round"/>
<path d="M125.709 130.859L123.603 133.348H133.463L131.357 130.859H125.709Z" fill="#F25451" stroke="#9DAFCC" stroke-width="0.6" stroke-linejoin="round"/>
<path d="M132.105 133.348H124.964V137.839H132.105V133.348Z" fill="#E4EBF5" stroke="#9DAFCC" stroke-width="0.6" stroke-linejoin="round"/>
<path d="M129.751 133.348H127.314V137.839H129.751V133.348Z" stroke="#9DAFCC" stroke-width="0.6" stroke-linejoin="round"/>
<path d="M128.602 121.63V110.003" stroke="#9DAFCC" stroke-width="0.6" stroke-linejoin="round"/>
<path d="M125.644 114.01H131.422" stroke="#9DAFCC" stroke-width="0.6" stroke-linejoin="round"/>
<path d="M127.223 111.774H129.977" stroke="#9DAFCC" stroke-width="0.6" stroke-linejoin="round"/>
<path d="M126.958 116.969L130.195 118.732" stroke="#9DAFCC" stroke-width="0.6" stroke-linejoin="round"/>
<path d="M106.336 127.543C106.336 129.758 104.356 131.555 101.911 131.555C99.4652 131.555 97.481 129.758 97.481 127.543C97.481 125.329 101.928 121.63 101.928 121.63C101.928 121.63 106.336 125.329 106.336 127.543Z" fill="#F25451" stroke="#9DAFCC" stroke-width="0.6" stroke-linejoin="round"/>
<path d="M108.138 140.963H95.6753V149.588H108.138V140.963Z" fill="#E4EBF5" stroke="#9DAFCC" stroke-width="0.6" stroke-linejoin="round"/>
<path d="M104.561 140.963H99.2563V149.588H104.561V140.963Z" stroke="#9DAFCC" stroke-width="0.6" stroke-linejoin="round"/>
<path d="M98.3383 137.839L95.6753 140.963H108.142L105.479 137.839H98.3383Z" fill="#F25451" stroke="#9DAFCC" stroke-width="0.6" stroke-linejoin="round"/>
<path d="M99.0865 130.859L96.9805 133.348H106.841L104.735 130.859H99.0865Z" fill="#F25451" stroke="#9DAFCC" stroke-width="0.6" stroke-linejoin="round"/>
<path d="M105.479 133.348H98.3384V137.839H105.479V133.348Z" fill="#E4EBF5" stroke="#9DAFCC" stroke-width="0.6" stroke-linejoin="round"/>
<path d="M103.125 133.348H100.688V137.839H103.125V133.348Z" stroke="#9DAFCC" stroke-width="0.6" stroke-linejoin="round"/>
<path d="M101.976 121.63V110.003" stroke="#9DAFCC" stroke-width="0.6" stroke-linejoin="round"/>
<path d="M99.0215 114.01H104.8" stroke="#9DAFCC" stroke-width="0.6" stroke-linejoin="round"/>
<path d="M100.597 111.774H103.351" stroke="#9DAFCC" stroke-width="0.6" stroke-linejoin="round"/>
<path d="M100.331 116.969L103.573 118.732" stroke="#9DAFCC" stroke-width="0.6" stroke-linejoin="round"/>
<path d="M84.2225 146.354C84.2225 148.665 82.1556 150.54 79.61 150.54C77.0644 150.54 74.9932 148.665 74.9932 146.354C74.9932 144.044 79.61 140.193 79.61 140.193C79.61 140.193 84.2225 144.044 84.2225 146.354Z" fill="#F25451" stroke="#9DAFCC" stroke-width="0.6" stroke-linejoin="round"/>
<path d="M86.1022 160.344H73.1133V169.33H86.1022V160.344Z" fill="#E4EBF5" stroke="#9DAFCC" stroke-width="0.6" stroke-linejoin="round"/>
<path d="M82.3688 160.344H76.8425V169.33H82.3688V160.344Z" stroke="#9DAFCC" stroke-width="0.6" stroke-linejoin="round"/>
<path d="M75.8895 157.085L73.1133 160.344H86.1022L83.326 157.085H75.8895Z" fill="#F25451" stroke="#9DAFCC" stroke-width="0.6" stroke-linejoin="round"/>
<path d="M76.6638 149.814L74.4707 152.407H84.7443L82.5512 149.814H76.6638Z" fill="#F25451" stroke="#9DAFCC" stroke-width="0.6" stroke-linejoin="round"/>
<path d="M83.3303 152.407H75.8894V157.085H83.3303V152.407Z" fill="#E4EBF5" stroke="#9DAFCC" stroke-width="0.6" stroke-linejoin="round"/>
<path d="M80.8762 152.407H78.335V157.085H80.8762V152.407Z" stroke="#9DAFCC" stroke-width="0.6" stroke-linejoin="round"/>
<path d="M79.675 140.193V128.078" stroke="#9DAFCC" stroke-width="0.6" stroke-linejoin="round"/>
<path d="M76.5942 132.256H82.6209" stroke="#9DAFCC" stroke-width="0.6" stroke-linejoin="round"/>
<path d="M78.2393 129.919H81.1112" stroke="#9DAFCC" stroke-width="0.6" stroke-linejoin="round"/>
<path d="M77.9604 135.337L81.3415 137.173" stroke="#9DAFCC" stroke-width="0.6" stroke-linejoin="round"/>
<path d="M253.235 173.938H236.064V184.477H253.235V173.938Z" fill="white" stroke="#9DAFCC" stroke-width="0.6" stroke-linejoin="round"/>
<path d="M253.235 184.477H249.884V200.412H253.235V184.477Z" fill="white" stroke="#9DAFCC" stroke-width="0.6" stroke-linejoin="round"/>
<path d="M254.845 166.223H236.064V176.762H254.845V166.223Z" fill="#F25451" stroke="#9DAFCC" stroke-width="0.6" stroke-linejoin="round"/>
<path d="M222.897 53.1607C222.897 55.7977 220.539 57.9473 217.628 57.9473C214.716 57.9473 212.362 55.8107 212.362 53.1607C212.362 50.5107 217.628 46.1245 217.628 46.1245C217.628 46.1245 222.897 50.5238 222.897 53.1607Z" fill="#F25451" stroke="#9DAFCC" stroke-width="0.6" stroke-linejoin="round"/>
<path d="M213.807 66.4366L205.404 102.745H229.846L221.444 66.4366H213.807Z" fill="#F25451" stroke="#9DAFCC" stroke-width="0.6" stroke-miterlimit="10"/>
<path d="M216.118 66.4366L212.802 102.745H222.449L219.133 66.4366H216.118Z" stroke="#9DAFCC" stroke-width="0.6" stroke-miterlimit="10"/>
<path d="M233.719 125.803H201.527V135.785H233.719V125.803Z" fill="#E4EBF5" stroke="#9DAFCC" stroke-width="0.6" stroke-linejoin="round"/>
<path d="M233.719 118.327H201.527V125.803H233.719V118.327Z" fill="white" stroke="#9DAFCC" stroke-width="0.6" stroke-linejoin="round"/>
<path d="M224.703 121.63H210.548V135.785H224.703V121.63Z" stroke="#9DAFCC" stroke-width="0.6" stroke-linejoin="round"/>
<path d="M201.527 121.63H233.723" stroke="#9DAFCC" stroke-width="0.6" stroke-linejoin="round"/>
<path d="M236.513 142.051H198.738V175.035H236.513V142.051Z" fill="#E4EBF5" stroke="#9DAFCC" stroke-width="0.6" stroke-linejoin="round"/>
<path d="M203.703 142.051H198.738V175.035H203.703V142.051Z" fill="white" stroke="#9DAFCC" stroke-width="0.6" stroke-linejoin="round"/>
<path d="M207.106 146.067H198.738V149.905H207.106V146.067Z" fill="white" stroke="#9DAFCC" stroke-width="0.6" stroke-linejoin="round"/>
<path d="M207.106 154.226H198.738V158.064H207.106V154.226Z" fill="white" stroke="#9DAFCC" stroke-width="0.6" stroke-linejoin="round"/>
<path d="M207.106 162.385H198.738V166.223H207.106V162.385Z" fill="white" stroke="#9DAFCC" stroke-width="0.6" stroke-linejoin="round"/>
<path d="M231.547 175.039H236.512V142.055H231.547V175.039Z" fill="white" stroke="#9DAFCC" stroke-width="0.6" stroke-linejoin="round"/>
<path d="M228.145 149.905H236.513V146.067H228.145V149.905Z" fill="white" stroke="#9DAFCC" stroke-width="0.6" stroke-linejoin="round"/>
<path d="M228.145 158.064H236.513V154.226H228.145V158.064Z" fill="white" stroke="#9DAFCC" stroke-width="0.6" stroke-linejoin="round"/>
<path d="M228.145 166.223H236.513V162.385H228.145V166.223Z" fill="white" stroke="#9DAFCC" stroke-width="0.6" stroke-linejoin="round"/>
<path d="M217.697 148.682C216.92 148.682 216.175 148.991 215.626 149.54C215.077 150.089 214.769 150.834 214.769 151.611V161.993H220.626V151.611C220.624 150.835 220.316 150.09 219.767 149.541C219.217 148.992 218.473 148.683 217.697 148.682Z" fill="#365DA0" stroke="#9DAFCC" stroke-width="0.6" stroke-linecap="round" stroke-linejoin="round"/>
<path d="M238.162 138.996H197.084V142.051H238.162V138.996Z" fill="white" stroke="#9DAFCC" stroke-width="0.6" stroke-linejoin="round"/>
<path d="M229.559 132.878L224.703 135.785H210.548L205.692 132.878L197.045 138.996H205.313H215.917H219.333H228.998H238.205L229.559 132.878Z" fill="#F25451" stroke="#9DAFCC" stroke-width="0.6" stroke-linejoin="round"/>
<path d="M207.98 99.368C209.259 99.368 210.486 99.8759 211.39 100.78C212.294 101.684 212.802 102.911 212.802 104.189V118.327H203.155V104.189C203.155 103.556 203.28 102.928 203.522 102.343C203.765 101.758 204.12 101.226 204.569 100.778C205.017 100.331 205.548 99.9755 206.134 99.7336C206.719 99.4916 207.347 99.3672 207.98 99.368Z" fill="#365DA0" stroke="#9DAFCC" stroke-width="0.6" stroke-miterlimit="10"/>
<path d="M217.623 99.3681C218.258 99.3655 218.887 99.4886 219.474 99.7301C220.06 99.9712 220.594 100.326 221.044 100.774C221.493 101.222 221.85 101.754 222.093 102.34C222.337 102.926 222.462 103.555 222.462 104.189V118.327H212.802V104.189C212.802 102.911 213.31 101.684 214.214 100.78C215.118 99.8759 216.345 99.3681 217.623 99.3681Z" fill="#365DA0" stroke="#9DAFCC" stroke-width="0.6" stroke-miterlimit="10"/>
<path d="M227.27 99.368C228.55 99.368 229.776 99.8759 230.681 100.78C231.586 101.684 232.095 102.91 232.096 104.189V118.327H222.462V104.189C222.462 102.913 222.968 101.688 223.87 100.784C224.771 99.8806 225.994 99.3715 227.27 99.368Z" fill="#365DA0" stroke="#9DAFCC" stroke-width="0.6" stroke-miterlimit="10"/>
<path d="M221.443 56.6809H213.807V66.4367H221.443V56.6809Z" fill="white" stroke="#9DAFCC" stroke-width="0.6" stroke-miterlimit="10"/>
<path d="M213.807 62.6033H221.443" stroke="#9DAFCC" stroke-width="0.6" stroke-miterlimit="10"/>
<path d="M217.614 46.1246V34.4977" stroke="#9DAFCC" stroke-width="0.6" stroke-linejoin="round"/>
<path d="M214.655 38.5052H220.438" stroke="#9DAFCC" stroke-width="0.6" stroke-linejoin="round"/>
<path d="M216.235 36.2642H218.989" stroke="#9DAFCC" stroke-width="0.6" stroke-linejoin="round"/>
<path d="M215.97 41.46L219.212 43.2266" stroke="#9DAFCC" stroke-width="0.6" stroke-linejoin="round"/>
<path d="M236.064 180.596H139.207V206.769H236.064V180.596Z" fill="#E4EBF5" stroke="#9DAFCC" stroke-width="0.6" stroke-linejoin="round"/>
<path d="M236.064 200.412H139.207V206.765H236.064V200.412Z" fill="white" stroke="#9DAFCC" stroke-width="0.6" stroke-linejoin="round"/>
<path d="M63.4314 206.765H91.524V180.591H63.4314V206.765Z" fill="#E4EBF5" stroke="#9DAFCC" stroke-width="0.6" stroke-linejoin="round"/>
<path d="M63.4314 206.765H91.524V200.412H63.4314V206.765Z" fill="white" stroke="#9DAFCC" stroke-width="0.6" stroke-linejoin="round"/>
<path d="M239.641 176.762H139.207V180.596H239.641V176.762Z" fill="white" stroke="#9DAFCC" stroke-width="0.6" stroke-linejoin="round"/>
<path d="M91.5284 176.762H61.1687V180.596H91.5284V176.762Z" fill="white" stroke="#9DAFCC" stroke-width="0.6" stroke-linejoin="round"/>
<path d="M156.282 185.008H148.928V196.274H156.282V185.008Z" fill="#365DA0" stroke="#9DAFCC" stroke-width="0.6" stroke-linejoin="round"/>
<path d="M152.604 185.008V196.274" stroke="#9DAFCC" stroke-width="0.6" stroke-linejoin="round"/>
<path d="M148.928 190.639H156.282" stroke="#9DAFCC" stroke-width="0.6" stroke-linejoin="round"/>
<path d="M170.411 185.008H163.057V196.274H170.411V185.008Z" fill="#365DA0" stroke="#9DAFCC" stroke-width="0.6" stroke-linejoin="round"/>
<path d="M166.733 185.008V196.274" stroke="#9DAFCC" stroke-width="0.6" stroke-linejoin="round"/>
<path d="M163.057 190.639H170.411" stroke="#9DAFCC" stroke-width="0.6" stroke-linejoin="round"/>
<path d="M221.278 185.008H213.924V196.274H221.278V185.008Z" fill="#365DA0" stroke="#9DAFCC" stroke-width="0.6" stroke-linejoin="round"/>
<path d="M217.602 185.008V196.274" stroke="#9DAFCC" stroke-width="0.6" stroke-linejoin="round"/>
<path d="M213.924 190.639H221.278" stroke="#9DAFCC" stroke-width="0.6" stroke-linejoin="round"/>
<path d="M123.098 149.553V142.134L115.244 136.338L107.385 142.134V149.553L91.4023 160.335V206.765H139.085V160.335L123.098 149.553Z" fill="white" stroke="#9DAFCC" stroke-width="0.6" stroke-linejoin="round"/>
<path d="M121.74 155.723H121.736V161.245H117.215V155.723H113.272V161.245H108.747V155.723L98.5864 162.72V199.768H131.896V162.72L121.74 155.723Z" fill="#E4EBF5" stroke="#9DAFCC" stroke-width="0.6" stroke-linejoin="round"/>
<path d="M112.006 185.008H104.652V196.274H112.006V185.008Z" fill="#365DA0" stroke="#9DAFCC" stroke-width="0.6" stroke-linejoin="round"/>
<path d="M108.329 185.008V196.274" stroke="#9DAFCC" stroke-width="0.6" stroke-linejoin="round"/>
<path d="M104.652 190.639H112.006" stroke="#9DAFCC" stroke-width="0.6" stroke-linejoin="round"/>
<path d="M125.835 185.008H118.481V196.274H125.835V185.008Z" fill="#365DA0" stroke="#9DAFCC" stroke-width="0.6" stroke-linejoin="round"/>
<path d="M122.158 185.008V196.274" stroke="#9DAFCC" stroke-width="0.6" stroke-linejoin="round"/>
<path d="M118.481 190.639H125.835" stroke="#9DAFCC" stroke-width="0.6" stroke-linejoin="round"/>
<path d="M115.244 166.51C112.264 166.51 109.406 167.694 107.299 169.801C105.192 171.908 104.008 174.766 104.008 177.745H126.479C126.479 174.766 125.295 171.908 123.188 169.801C121.081 167.694 118.223 166.51 115.244 166.51Z" fill="white" stroke="#9DAFCC" stroke-width="0.6" stroke-linejoin="round"/>
<path d="M115.243 170.722C113.381 170.722 111.594 171.462 110.277 172.779C108.96 174.096 108.22 175.882 108.22 177.745H122.267C122.267 175.882 121.527 174.096 120.21 172.779C118.892 171.462 117.106 170.722 115.243 170.722Z" fill="#365DA0" stroke="#9DAFCC" stroke-width="0.6" stroke-linejoin="round"/>
<path d="M115.244 170.722V177.745" stroke="#9DAFCC" stroke-width="0.6" stroke-linejoin="round"/>
<path d="M115.243 142.995C114.986 142.995 114.731 143.046 114.493 143.145C114.255 143.244 114.039 143.388 113.857 143.57C113.675 143.753 113.531 143.969 113.433 144.207C113.335 144.445 113.285 144.7 113.285 144.958V151.92H117.201V144.949C117.2 144.431 116.993 143.934 116.626 143.567C116.259 143.201 115.762 142.995 115.243 142.995Z" fill="#365DA0" stroke="#9DAFCC" stroke-width="0.6" stroke-linecap="round" stroke-linejoin="round"/>
<path d="M82.7909 184.917H75.437V196.182H82.7909V184.917Z" fill="#365DA0" stroke="#9DAFCC" stroke-width="0.6" stroke-linejoin="round"/>
<path d="M79.1138 184.917V196.182" stroke="#9DAFCC" stroke-width="0.6" stroke-linejoin="round"/>
<path d="M75.437 190.547H82.7865" stroke="#9DAFCC" stroke-width="0.6" stroke-linejoin="round"/>
<path d="M183.765 188.628H177.286V206.765H183.765V188.628Z" fill="#F25451" stroke="#9DAFCC" stroke-width="0.6" stroke-linejoin="round"/>
<path d="M198.642 176.762V206.765" stroke="#9DAFCC" stroke-width="0.6" stroke-linejoin="round"/>
<path d="M239.641 176.762L225.943 166.31H198.642V159.504H139.207V176.762H239.641Z" fill="#F25451" stroke="#9DAFCC" stroke-width="0.6" stroke-linejoin="round"/>
<path d="M239.641 179.751H253.235" stroke="#9DAFCC" stroke-width="0.6" stroke-linejoin="round"/>
<path d="M236.069 206.765H257.965V200.412H236.069V206.765Z" fill="#E4EBF5" stroke="#9DAFCC" stroke-width="0.6" stroke-linejoin="round"/>
<path d="M236.513 193.68H249.885" stroke="#9DAFCC" stroke-width="0.6" stroke-linejoin="round"/>
<path d="M239.52 193.68V200.412" stroke="#9DAFCC" stroke-width="0.6" stroke-linejoin="round"/>
<path d="M242.974 193.68V200.412" stroke="#9DAFCC" stroke-width="0.6" stroke-linejoin="round"/>
<path d="M246.429 193.68V200.412" stroke="#9DAFCC" stroke-width="0.6" stroke-linejoin="round"/>
<path d="M115.222 103.271V91.6443" stroke="#9DAFCC" stroke-width="0.6" stroke-linejoin="round"/>
<path d="M112.267 95.652H118.046" stroke="#9DAFCC" stroke-width="0.6" stroke-linejoin="round"/>
<path d="M113.847 93.4154H116.601" stroke="#9DAFCC" stroke-width="0.6" stroke-linejoin="round"/>
<path d="M113.577 98.6108L116.819 100.373" stroke="#9DAFCC" stroke-width="0.6" stroke-linejoin="round"/>
</g>
</g>
<defs>
<filter id="filter0_dd_202_2567" x="-11.9112" y="-11.9112" width="296.822" height="263.822" filterUnits="userSpaceOnUse" color-interpolation-filters="sRGB">
<feFlood flood-opacity="0" result="BackgroundImageFix"/>
<feColorMatrix in="SourceAlpha" type="matrix" values="0 0 0 0 0 0 0 0 0 0 0 0 0 0 0 0 0 0 127 0" result="hardAlpha"/>
<feOffset/>
<feGaussianBlur stdDeviation="5.95559"/>
<feComposite in2="hardAlpha" operator="out"/>
<feColorMatrix type="matrix" values="0 0 0 0 0.568627 0 0 0 0 0.741176 0 0 0 0 0.866667 0 0 0 1 0"/>
<feBlend mode="normal" in2="BackgroundImageFix" result="effect1_dropShadow_202_2567"/>
<feColorMatrix in="SourceAlpha" type="matrix" values="0 0 0 0 0 0 0 0 0 0 0 0 0 0 0 0 0 0 127 0" result="hardAlpha"/>
<feOffset dy="2.38223"/>
<feGaussianBlur stdDeviation="2.97779"/>
<feComposite in2="hardAlpha" operator="out"/>
<feColorMatrix type="matrix" values="0 0 0 0 0 0 0 0 0 0 0 0 0 0 0 0 0 0 0.1 0"/>
<feBlend mode="normal" in2="effect1_dropShadow_202_2567" result="effect2_dropShadow_202_2567"/>
<feBlend mode="normal" in="SourceGraphic" in2="effect2_dropShadow_202_2567" result="shape"/>
</filter>
<filter id="filter1_dd_202_2567" x="4.22506" y="16.0942" width="265.951" height="202.886" filterUnits="userSpaceOnUse" color-interpolation-filters="sRGB">
<feFlood flood-opacity="0" result="BackgroundImageFix"/>
<feColorMatrix in="SourceAlpha" type="matrix" values="0 0 0 0 0 0 0 0 0 0 0 0 0 0 0 0 0 0 127 0" result="hardAlpha"/>
<feOffset/>
<feGaussianBlur stdDeviation="5.95559"/>
<feComposite in2="hardAlpha" operator="out"/>
<feColorMatrix type="matrix" values="0 0 0 0 0.568627 0 0 0 0 0.741176 0 0 0 0 0.866667 0 0 0 1 0"/>
<feBlend mode="normal" in2="BackgroundImageFix" result="effect1_dropShadow_202_2567"/>
<feColorMatrix in="SourceAlpha" type="matrix" values="0 0 0 0 0 0 0 0 0 0 0 0 0 0 0 0 0 0 127 0" result="hardAlpha"/>
<feOffset dy="2.38223"/>
<feGaussianBlur stdDeviation="2.97779"/>
<feComposite in2="hardAlpha" operator="out"/>
<feColorMatrix type="matrix" values="0 0 0 0 0 0 0 0 0 0 0 0 0 0 0 0 0 0 0.1 0"/>
<feBlend mode="normal" in2="effect1_dropShadow_202_2567" result="effect2_dropShadow_202_2567"/>
<feBlend mode="normal" in="SourceGraphic" in2="effect2_dropShadow_202_2567" result="shape"/>
</filter>
</defs>
</svg>
