<svg width="273" height="240" viewBox="0 0 273 240" fill="none" xmlns="http://www.w3.org/2000/svg">
<g filter="url(#filter0_dd_202_5862)">
<g filter="url(#filter1_dd_202_5862)">
<path d="M189.358 55.3157H182.272L165.782 100.006H205.849L189.358 55.3157Z" fill="#F25451" stroke="#9DAFCC" stroke-width="0.6" stroke-linecap="round" stroke-linejoin="round"/>
<path d="M178.385 100.007C178.385 98.0347 179.168 96.1441 180.562 94.7493C181.956 93.3551 183.848 92.5718 185.82 92.5718C187.792 92.5718 189.682 93.3551 191.077 94.7493C192.471 96.1441 193.255 98.0347 193.255 100.007" fill="white"/>
<path d="M178.385 100.007C178.385 98.0347 179.168 96.1441 180.562 94.7493C181.956 93.3551 183.848 92.5718 185.82 92.5718C187.792 92.5718 189.682 93.3551 191.077 94.7493C192.471 96.1441 193.255 98.0347 193.255 100.007" stroke="#9DAFCC" stroke-width="0.6" stroke-linecap="round" stroke-linejoin="round"/>
<path d="M181.226 100.006C181.226 98.7888 181.71 97.6202 182.572 96.7586C183.433 95.8977 184.601 95.4136 185.82 95.4136C187.038 95.4136 188.206 95.8977 189.067 96.7586C189.929 97.6202 190.413 98.7888 190.413 100.006" fill="white"/>
<path d="M181.226 100.006C181.226 98.7888 181.71 97.6202 182.572 96.7586C183.433 95.8977 184.601 95.4136 185.82 95.4136C187.038 95.4136 188.206 95.8977 189.067 96.7586C189.929 97.6202 190.413 98.7888 190.413 100.006" stroke="#9DAFCC" stroke-width="0.6" stroke-linecap="round" stroke-linejoin="round"/>
<path d="M193.258 100.007C193.258 98.0347 194.042 96.1441 195.436 94.7493C196.831 93.3551 198.721 92.5718 200.693 92.5718C202.665 92.5718 204.556 93.3551 205.951 94.7493C207.345 96.1441 208.128 98.0347 208.128 100.007" fill="white"/>
<path d="M193.258 100.007C193.258 98.0347 194.042 96.1441 195.436 94.7493C196.831 93.3551 198.721 92.5718 200.693 92.5718C202.665 92.5718 204.556 93.3551 205.951 94.7493C207.345 96.1441 208.128 98.0347 208.128 100.007" stroke="#9DAFCC" stroke-width="0.6" stroke-linecap="round" stroke-linejoin="round"/>
<path d="M196.096 100.006C196.096 98.7888 196.579 97.6202 197.441 96.7586C198.302 95.8977 199.47 95.4136 200.689 95.4136C201.907 95.4136 203.076 95.8977 203.936 96.7586C204.798 97.6202 205.282 98.7888 205.282 100.006" stroke="#9DAFCC" stroke-width="0.6" stroke-linecap="round" stroke-linejoin="round"/>
<path d="M163.516 100.007C163.516 98.0347 164.299 96.1441 165.693 94.7493C167.087 93.3551 168.978 92.5718 170.95 92.5718C172.922 92.5718 174.813 93.3551 176.207 94.7493C177.601 96.1441 178.385 98.0347 178.385 100.007" fill="white"/>
<path d="M163.516 100.007C163.516 98.0347 164.299 96.1441 165.693 94.7493C167.087 93.3551 168.978 92.5718 170.95 92.5718C172.922 92.5718 174.813 93.3551 176.207 94.7493C177.601 96.1441 178.385 98.0347 178.385 100.007" stroke="#9DAFCC" stroke-width="0.6" stroke-linecap="round" stroke-linejoin="round"/>
<path d="M166.357 100.006C166.357 98.7888 166.841 97.6202 167.702 96.7586C168.564 95.8977 169.732 95.4136 170.95 95.4136C172.168 95.4136 173.337 95.8977 174.198 96.7586C175.059 97.6202 175.543 98.7888 175.543 100.006" stroke="#9DAFCC" stroke-width="0.6" stroke-linecap="round" stroke-linejoin="round"/>
<path d="M209.667 100.007H161.973V151.905H209.667V100.007Z" fill="#E4EBF5" stroke="#9DAFCC" stroke-width="0.6" stroke-linecap="round" stroke-linejoin="round"/>
<path d="M161.981 131.532H209.658" stroke="#9DAFCC" stroke-width="0.6" stroke-linecap="round" stroke-linejoin="round"/>
<path d="M195.368 100.007H176.271V131.532H195.368V100.007Z" stroke="#9DAFCC" stroke-width="0.6" stroke-linecap="round" stroke-linejoin="round"/>
<path d="M185.82 112.91C184.78 112.91 183.782 113.324 183.047 114.059C182.311 114.795 181.898 115.792 181.898 116.833V131.515H189.772V116.85C189.775 116.331 189.674 115.816 189.476 115.337C189.279 114.857 188.987 114.421 188.619 114.054C188.251 113.688 187.815 113.398 187.334 113.202C186.854 113.005 186.339 112.906 185.82 112.91Z" fill="#365DA0" stroke="#9DAFCC" stroke-width="0.6" stroke-linecap="round" stroke-linejoin="round"/>
<path d="M161.99 104.491H209.666" stroke="#9DAFCC" stroke-width="0.6" stroke-linecap="round" stroke-linejoin="round"/>
<path d="M179.435 108.465H192.165" stroke="#9DAFCC" stroke-width="0.6" stroke-linejoin="round"/>
<path d="M169.359 112.91C168.457 112.911 167.593 113.271 166.955 113.909C166.318 114.547 165.96 115.412 165.96 116.314V131.532H172.776V116.314C172.776 115.866 172.687 115.422 172.516 115.008C172.344 114.595 172.092 114.219 171.774 113.902C171.457 113.586 171.08 113.336 170.666 113.165C170.251 112.995 169.807 112.909 169.359 112.91Z" fill="#365DA0" stroke="#9DAFCC" stroke-width="0.6" stroke-linecap="round" stroke-linejoin="round"/>
<path d="M165.96 108.465H172.763" stroke="#9DAFCC" stroke-width="0.6" stroke-linejoin="round"/>
<path d="M202.284 112.91C201.382 112.911 200.517 113.271 199.88 113.909C199.243 114.547 198.885 115.412 198.885 116.314V131.532H205.688V116.314C205.688 115.411 205.329 114.545 204.691 113.907C204.052 113.269 203.187 112.91 202.284 112.91Z" fill="#365DA0" stroke="#9DAFCC" stroke-width="0.6" stroke-linecap="round" stroke-linejoin="round"/>
<path d="M198.885 108.465H205.688" stroke="#9DAFCC" stroke-width="0.6" stroke-linejoin="round"/>
<path d="M212.673 170.941H236.524V151.905H212.673V170.941Z" fill="#E4EBF5" stroke="#9DAFCC" stroke-width="0.6" stroke-linecap="round" stroke-linejoin="round"/>
<path d="M207.832 155.819H236.52V151.901H207.832V155.819Z" fill="white" stroke="#9DAFCC" stroke-width="0.6" stroke-linecap="round" stroke-linejoin="round"/>
<path d="M231.644 170.941H236.52V155.819H231.644V170.941Z" fill="#E4EBF5" stroke="#9DAFCC" stroke-width="0.6" stroke-linecap="round" stroke-linejoin="round"/>
<path d="M222.178 159.714C222.454 159.714 222.726 159.768 222.981 159.873C223.236 159.978 223.468 160.132 223.663 160.327C223.858 160.522 224.013 160.753 224.118 161.008C224.224 161.262 224.278 161.535 224.278 161.81V170.941H220.082V161.81C220.082 161.255 220.303 160.721 220.696 160.328C221.089 159.935 221.622 159.714 222.178 159.714Z" fill="#365DA0" stroke="#9DAFCC" stroke-width="0.6" stroke-linecap="round" stroke-linejoin="round"/>
<path d="M212.673 199.503H236.524V170.941H212.673V199.503Z" fill="#E4EBF5" stroke="#9DAFCC" stroke-width="0.6" stroke-linecap="round" stroke-linejoin="round"/>
<path d="M222.535 186.359C223.186 186.359 223.81 186.618 224.27 187.078C224.73 187.538 224.989 188.162 224.989 188.813V199.494H220.082V188.821C220.08 188.499 220.143 188.179 220.266 187.88C220.389 187.581 220.569 187.309 220.797 187.08C221.025 186.852 221.296 186.671 221.594 186.547C221.893 186.422 222.212 186.359 222.535 186.359Z" fill="#365DA0" stroke="#9DAFCC" stroke-width="0.6" stroke-linecap="round" stroke-linejoin="round"/>
<path d="M212.673 210.101H236.524V199.502H212.673V210.101Z" fill="white" stroke="#9DAFCC" stroke-width="0.6" stroke-linecap="round" stroke-linejoin="round"/>
<path d="M212.673 217.235H236.524V210.097H212.673V217.235Z" fill="#365DA0" stroke="#9DAFCC" stroke-width="0.6" stroke-linecap="round" stroke-linejoin="round"/>
<path d="M231.648 178.197H212.708" stroke="#9DAFCC" stroke-width="0.6" stroke-linecap="round" stroke-linejoin="round"/>
<path d="M212.673 174.859H236.524V170.941H212.673V174.859Z" fill="white" stroke="#9DAFCC" stroke-width="0.6" stroke-linecap="round" stroke-linejoin="round"/>
<path d="M231.644 199.503H236.52V174.859H231.644V199.503Z" fill="#E4EBF5" stroke="#9DAFCC" stroke-width="0.6" stroke-linecap="round" stroke-linejoin="round"/>
<path d="M158.962 151.905H135.11V170.941H158.962V151.905Z" fill="#E4EBF5" stroke="#9DAFCC" stroke-width="0.6" stroke-linecap="round" stroke-linejoin="round"/>
<path d="M163.799 151.905H135.11V155.823H163.799V151.905Z" fill="white" stroke="#9DAFCC" stroke-width="0.6" stroke-linecap="round" stroke-linejoin="round"/>
<path d="M139.987 155.819H135.11V170.941H139.987V155.819Z" fill="#E4EBF5" stroke="#9DAFCC" stroke-width="0.6" stroke-linecap="round" stroke-linejoin="round"/>
<path d="M149.453 159.714C148.896 159.714 148.363 159.935 147.97 160.328C147.577 160.721 147.356 161.255 147.356 161.81V170.941H151.553V161.81C151.553 161.535 151.498 161.262 151.393 161.008C151.287 160.753 151.133 160.522 150.937 160.327C150.742 160.132 150.511 159.978 150.256 159.873C150.001 159.768 149.728 159.714 149.453 159.714Z" fill="#365DA0" stroke="#9DAFCC" stroke-width="0.6" stroke-linecap="round" stroke-linejoin="round"/>
<path d="M158.962 170.941H135.11V199.503H158.962V170.941Z" fill="#E4EBF5" stroke="#9DAFCC" stroke-width="0.6" stroke-linecap="round" stroke-linejoin="round"/>
<path d="M149.1 186.359C148.777 186.358 148.457 186.421 148.159 186.545C147.861 186.667 147.59 186.848 147.362 187.076C147.133 187.304 146.952 187.575 146.829 187.873C146.705 188.171 146.642 188.49 146.642 188.813V199.494H151.553V188.821C151.554 188.499 151.492 188.179 151.369 187.88C151.246 187.581 151.065 187.309 150.838 187.08C150.609 186.852 150.339 186.671 150.04 186.547C149.742 186.422 149.422 186.359 149.1 186.359Z" fill="#365DA0" stroke="#9DAFCC" stroke-width="0.6" stroke-linecap="round" stroke-linejoin="round"/>
<path d="M158.962 199.503H135.11V210.101H158.962V199.503Z" fill="white" stroke="#9DAFCC" stroke-width="0.6" stroke-linecap="round" stroke-linejoin="round"/>
<path d="M158.962 210.101H135.11V217.239H158.962V210.101Z" fill="#365DA0" stroke="#9DAFCC" stroke-width="0.6" stroke-linecap="round" stroke-linejoin="round"/>
<path d="M139.987 178.197H158.922" stroke="#9DAFCC" stroke-width="0.6" stroke-linecap="round" stroke-linejoin="round"/>
<path d="M158.962 170.941H135.11V174.859H158.962V170.941Z" fill="white" stroke="#9DAFCC" stroke-width="0.6" stroke-linecap="round" stroke-linejoin="round"/>
<path d="M139.987 174.859H135.11V199.503H139.987V174.859Z" fill="#E4EBF5" stroke="#9DAFCC" stroke-width="0.6" stroke-linecap="round" stroke-linejoin="round"/>
<path d="M185.798 134.399L156.961 151.905H158.962V169.411V217.235H212.726V169.411V151.905H214.634L185.798 134.399Z" fill="#E4EBF5" stroke="#9DAFCC" stroke-width="0.6" stroke-linecap="round" stroke-linejoin="round"/>
<path d="M163.839 151.905H158.962V169.411H163.839V151.905Z" stroke="#9DAFCC" stroke-width="0.6" stroke-linecap="round" stroke-linejoin="round"/>
<path d="M212.73 151.905H207.854V169.411H212.73V151.905Z" stroke="#9DAFCC" stroke-width="0.6" stroke-linecap="round" stroke-linejoin="round"/>
<path d="M163.839 169.411H158.962V217.24H163.839V169.411Z" stroke="#9DAFCC" stroke-width="0.6" stroke-linecap="round" stroke-linejoin="round"/>
<path d="M212.73 169.411H207.854V217.24H212.73V169.411Z" stroke="#9DAFCC" stroke-width="0.6" stroke-linecap="round" stroke-linejoin="round"/>
<path d="M212.726 210.101H158.962V217.239H212.726V210.101Z" fill="#365DA0" stroke="#9DAFCC" stroke-width="0.6" stroke-linecap="round" stroke-linejoin="round"/>
<path d="M163.839 210.101H158.962V217.239H163.839V210.101Z" fill="#365DA0" stroke="#9DAFCC" stroke-width="0.6" stroke-linecap="round" stroke-linejoin="round"/>
<path d="M212.73 210.101H207.854V217.239H212.73V210.101Z" fill="#365DA0" stroke="#9DAFCC" stroke-width="0.6" stroke-linecap="round" stroke-linejoin="round"/>
<path d="M207.853 151.905L185.846 138.243L163.838 151.905" stroke="#9DAFCC" stroke-width="0.6" stroke-linecap="round" stroke-linejoin="round"/>
<path d="M187.92 149.97V143.803C187.92 143.241 187.697 142.701 187.299 142.303C186.901 141.905 186.361 141.681 185.798 141.681C185.235 141.681 184.695 141.905 184.297 142.303C183.899 142.701 183.675 143.241 183.675 143.803V149.97" stroke="#9DAFCC" stroke-width="0.6" stroke-linejoin="round"/>
<path d="M192.165 152.803V146.623C192.165 146.06 191.941 145.521 191.543 145.123C191.145 144.724 190.605 144.501 190.042 144.501C189.479 144.501 188.94 144.724 188.542 145.123C188.144 145.521 187.92 146.06 187.92 146.623V152.803" stroke="#9DAFCC" stroke-width="0.6" stroke-linejoin="round"/>
<path d="M196.41 155.609V149.443C196.41 148.88 196.186 148.34 195.788 147.942C195.39 147.544 194.85 147.32 194.287 147.32C193.724 147.32 193.184 147.544 192.786 147.942C192.389 148.34 192.165 148.88 192.165 149.443V155.609" stroke="#9DAFCC" stroke-width="0.6" stroke-linejoin="round"/>
<path d="M200.667 158.425V152.263C200.667 151.7 200.443 151.16 200.045 150.762C199.648 150.364 199.107 150.141 198.545 150.141C197.982 150.141 197.442 150.364 197.044 150.762C196.646 151.16 196.422 151.7 196.422 152.263V158.425" stroke="#9DAFCC" stroke-width="0.6" stroke-linejoin="round"/>
<path d="M204.895 161.245V155.078C204.908 154.792 204.862 154.505 204.762 154.237C204.661 153.968 204.507 153.723 204.308 153.516C204.111 153.308 203.872 153.144 203.608 153.031C203.345 152.918 203.061 152.86 202.774 152.86C202.488 152.86 202.204 152.918 201.94 153.031C201.677 153.144 201.438 153.308 201.24 153.516C201.042 153.723 200.888 153.968 200.787 154.237C200.686 154.505 200.641 154.792 200.654 155.078V161.245" stroke="#9DAFCC" stroke-width="0.6" stroke-linejoin="round"/>
<path d="M183.671 149.97V143.803C183.671 143.241 183.895 142.701 184.293 142.303C184.691 141.905 185.231 141.681 185.794 141.681C186.356 141.681 186.897 141.905 187.294 142.303C187.692 142.701 187.916 143.241 187.916 143.803V149.97" stroke="#9DAFCC" stroke-width="0.6" stroke-linejoin="round"/>
<path d="M179.435 152.803V146.623C179.422 146.337 179.468 146.051 179.568 145.782C179.669 145.514 179.823 145.268 180.021 145.061C180.219 144.854 180.458 144.688 180.721 144.576C180.985 144.463 181.269 144.405 181.555 144.405C181.842 144.405 182.126 144.463 182.39 144.576C182.653 144.688 182.892 144.854 183.09 145.061C183.288 145.268 183.442 145.514 183.543 145.782C183.644 146.051 183.689 146.337 183.676 146.623V152.803" stroke="#9DAFCC" stroke-width="0.6" stroke-linejoin="round"/>
<path d="M175.19 155.609V149.443C175.19 148.88 175.414 148.34 175.812 147.942C176.21 147.544 176.75 147.32 177.312 147.32C177.875 147.32 178.415 147.544 178.813 147.942C179.211 148.34 179.435 148.88 179.435 149.443V155.609" stroke="#9DAFCC" stroke-width="0.6" stroke-linejoin="round"/>
<path d="M170.945 158.425V152.263C170.945 151.7 171.169 151.16 171.567 150.762C171.965 150.364 172.505 150.141 173.068 150.141C173.631 150.141 174.171 150.364 174.569 150.762C174.967 151.16 175.19 151.7 175.19 152.263V158.425" stroke="#9DAFCC" stroke-width="0.6" stroke-linejoin="round"/>
<path d="M166.702 161.244V155.078C166.702 154.515 166.925 153.975 167.323 153.577C167.721 153.179 168.261 152.956 168.824 152.956C169.387 152.956 169.926 153.179 170.324 153.577C170.723 153.975 170.946 154.515 170.946 155.078V161.244" stroke="#9DAFCC" stroke-width="0.6" stroke-linejoin="round"/>
<path d="M185.798 187.022L176.35 193.332L177.304 195.232V217.244H182.176V199.638C182.209 198.691 182.608 197.793 183.29 197.134C183.972 196.476 184.883 196.108 185.831 196.108C186.778 196.108 187.689 196.476 188.371 197.134C189.053 197.793 189.452 198.691 189.485 199.638V217.236H194.278V195.206L195.242 193.324L185.798 187.022Z" fill="white" stroke="#9DAFCC" stroke-width="0.6" stroke-linejoin="round"/>
<path d="M185.798 195.986C184.83 195.986 183.901 196.371 183.216 197.056C182.531 197.741 182.146 198.669 182.146 199.638V217.236H189.454V199.638C189.453 198.669 189.068 197.74 188.382 197.056C187.696 196.37 186.767 195.986 185.798 195.986Z" fill="#365DA0" stroke="#9DAFCC" stroke-width="0.6" stroke-linecap="round" stroke-linejoin="round"/>
<path d="M185.798 157.744C185.079 157.744 184.389 158.03 183.881 158.539C183.373 159.047 183.087 159.736 183.087 160.455V179.944H188.508V160.455C188.509 160.099 188.439 159.746 188.303 159.417C188.167 159.088 187.967 158.789 187.715 158.537C187.464 158.285 187.165 158.085 186.836 157.95C186.507 157.813 186.154 157.743 185.798 157.744Z" fill="#365DA0" stroke="#9DAFCC" stroke-width="0.6" stroke-linecap="round" stroke-linejoin="round"/>
<path d="M195.25 166.108C194.532 166.109 193.843 166.395 193.335 166.903C192.827 167.411 192.54 168.1 192.54 168.819V184.368H197.96V168.819C197.96 168.1 197.673 167.411 197.165 166.903C196.657 166.395 195.968 166.109 195.25 166.108Z" fill="#365DA0" stroke="#9DAFCC" stroke-width="0.6" stroke-linecap="round" stroke-linejoin="round"/>
<path d="M176.349 166.108C175.631 166.108 174.941 166.394 174.433 166.902C173.924 167.41 173.639 168.099 173.639 168.819V184.368H179.056V168.819C179.056 168.101 178.771 167.412 178.263 166.904C177.756 166.395 177.068 166.109 176.349 166.108Z" fill="#365DA0" stroke="#9DAFCC" stroke-width="0.6" stroke-linecap="round" stroke-linejoin="round"/>
<path d="M194.274 199.503H207.836" stroke="#9DAFCC" stroke-width="0.6" stroke-linejoin="round"/>
<path d="M163.838 199.503H177.313" stroke="#9DAFCC" stroke-width="0.6" stroke-linejoin="round"/>
<path d="M182.186 202.131H189.494" stroke="#9DAFCC" stroke-width="0.6" stroke-linecap="round" stroke-linejoin="round"/>
<path d="M151.457 103.41H147.596L138.614 124.952H160.439L151.457 103.41Z" fill="#F25451" stroke="#9DAFCC" stroke-width="0.6" stroke-linecap="round" stroke-linejoin="round"/>
<path d="M151.466 94.8513H147.596V103.41H151.466V94.8513Z" fill="#F25451" stroke="#9DAFCC" stroke-width="0.6" stroke-linecap="round" stroke-linejoin="round"/>
<path d="M143.22 128.294C143.198 127.452 143.345 126.615 143.652 125.83C143.959 125.046 144.419 124.331 145.007 123.728C145.594 123.125 146.297 122.645 147.073 122.318C147.848 121.991 148.682 121.822 149.524 121.822C150.366 121.822 151.2 121.991 151.976 122.318C152.751 122.645 153.454 123.125 154.041 123.728C154.629 124.331 155.09 125.046 155.396 125.83C155.703 126.615 155.85 127.452 155.828 128.294" fill="white"/>
<path d="M143.22 128.294C143.198 127.452 143.345 126.615 143.652 125.83C143.959 125.046 144.419 124.331 145.007 123.728C145.594 123.125 146.297 122.645 147.073 122.318C147.848 121.991 148.682 121.822 149.524 121.822C150.366 121.822 151.2 121.991 151.976 122.318C152.751 122.645 153.454 123.125 154.041 123.728C154.629 124.331 155.09 125.046 155.396 125.83C155.703 126.615 155.85 127.452 155.828 128.294" stroke="#9DAFCC" stroke-width="0.6" stroke-linecap="round" stroke-linejoin="round"/>
<path d="M155.684 128.294C155.684 124.807 157.096 121.988 158.835 121.988C160.574 121.988 161.99 124.812 161.99 128.294" fill="white"/>
<path d="M155.684 128.294C155.684 124.807 157.096 121.988 158.835 121.988C160.574 121.988 161.99 124.812 161.99 128.294" stroke="#9DAFCC" stroke-width="0.6" stroke-linecap="round" stroke-linejoin="round"/>
<path d="M137.081 128.294C137.081 124.807 138.493 121.988 140.231 121.988C141.97 121.988 143.382 124.812 143.382 128.294" fill="white"/>
<path d="M137.081 128.294C137.081 124.807 138.493 121.988 140.231 121.988C141.97 121.988 143.382 124.812 143.382 128.294" stroke="#9DAFCC" stroke-width="0.6" stroke-linecap="round" stroke-linejoin="round"/>
<path d="M161.973 128.294H137.081V151.905H161.973V128.294Z" fill="#E4EBF5" stroke="#9DAFCC" stroke-width="0.6" stroke-linecap="round" stroke-linejoin="round"/>
<path d="M155.828 128.294H143.221V151.905H155.828V128.294Z" fill="#E4EBF5" stroke="#9DAFCC" stroke-width="0.6" stroke-linecap="round" stroke-linejoin="round"/>
<path d="M137.081 145.826H161.991" stroke="#9DAFCC" stroke-width="0.6" stroke-linecap="round" stroke-linejoin="round"/>
<path d="M149.526 134.029C149.018 134.029 148.53 134.231 148.17 134.59C147.811 134.95 147.609 135.438 147.609 135.947V145.83H151.444V135.947C151.444 135.694 151.394 135.445 151.298 135.212C151.202 134.98 151.06 134.768 150.882 134.59C150.704 134.412 150.493 134.271 150.26 134.175C150.028 134.079 149.778 134.029 149.526 134.029Z" fill="#365DA0" stroke="#9DAFCC" stroke-width="0.6" stroke-linecap="round" stroke-linejoin="round"/>
<path d="M138.614 134.029C137.765 134.029 137.081 134.9 137.081 135.947V145.83H140.131V135.947C140.144 134.887 139.46 134.029 138.614 134.029Z" fill="#365DA0" stroke="#9DAFCC" stroke-width="0.6" stroke-linecap="round" stroke-linejoin="round"/>
<path d="M160.439 134.029C159.593 134.029 158.905 134.9 158.905 135.947V145.83H161.956V135.947C161.973 134.887 161.284 134.029 160.439 134.029Z" fill="#365DA0" stroke="#9DAFCC" stroke-width="0.6" stroke-linecap="round" stroke-linejoin="round"/>
<path d="M136.1 128.294H162.949" stroke="#9DAFCC" stroke-width="0.6" stroke-linecap="round" stroke-linejoin="round"/>
<path d="M149.523 96.0147C147.287 96.0147 145.479 94.6283 145.479 92.92C145.479 90.5234 147.758 89.1376 149.523 86.5012C151.287 89.1157 153.571 90.5234 153.571 92.92C153.571 94.6283 151.758 96.0147 149.523 96.0147Z" fill="#F25451" stroke="#9DAFCC" stroke-width="0.6" stroke-linecap="round" stroke-linejoin="round"/>
<path d="M149.609 86.5014V71.3792" stroke="#9DAFCC" stroke-width="0.6" stroke-linejoin="round"/>
<path d="M145.765 76.5913H153.283" stroke="#9DAFCC" stroke-width="0.6" stroke-linejoin="round"/>
<path d="M147.818 73.6804H151.401" stroke="#9DAFCC" stroke-width="0.6" stroke-linejoin="round"/>
<path d="M147.47 80.4348L151.684 82.7274" stroke="#9DAFCC" stroke-width="0.6" stroke-linejoin="round"/>
<path d="M149.526 112.095C149.275 112.095 149.026 112.144 148.793 112.24C148.561 112.336 148.349 112.477 148.171 112.654C147.993 112.832 147.852 113.043 147.755 113.275C147.658 113.508 147.609 113.757 147.609 114.008V117.434H151.444V114.017C151.445 113.765 151.396 113.515 151.301 113.281C151.204 113.048 151.063 112.836 150.885 112.658C150.707 112.478 150.495 112.337 150.262 112.241C150.029 112.144 149.779 112.095 149.526 112.095Z" fill="#365DA0" stroke="#9DAFCC" stroke-width="0.6" stroke-linecap="round" stroke-linejoin="round"/>
<path d="M224.043 103.41H220.182L211.2 124.952H233.025L224.043 103.41Z" fill="#F25451" stroke="#9DAFCC" stroke-width="0.6" stroke-linecap="round" stroke-linejoin="round"/>
<path d="M224.052 94.8513H220.182V103.41H224.052V94.8513Z" fill="#F25451" stroke="#9DAFCC" stroke-width="0.6" stroke-linecap="round" stroke-linejoin="round"/>
<path d="M215.811 128.294C215.811 126.622 216.475 125.019 217.656 123.838C218.838 122.656 220.441 121.992 222.112 121.992C223.784 121.992 225.387 122.656 226.568 123.838C227.75 125.019 228.414 126.622 228.414 128.294" fill="white"/>
<path d="M215.811 128.294C215.811 126.622 216.475 125.019 217.656 123.838C218.838 122.656 220.441 121.992 222.112 121.992C223.784 121.992 225.387 122.656 226.568 123.838C227.75 125.019 228.414 126.622 228.414 128.294" stroke="#9DAFCC" stroke-width="0.6" stroke-linecap="round" stroke-linejoin="round"/>
<path d="M228.27 128.294C228.27 124.807 229.682 121.988 231.425 121.988C233.169 121.988 234.576 124.812 234.576 128.294" fill="#E4EBF5"/>
<path d="M228.27 128.294C228.27 124.807 229.682 121.988 231.425 121.988C233.169 121.988 234.576 124.812 234.576 128.294" fill="white"/>
<path d="M228.27 128.294C228.27 124.807 229.682 121.988 231.425 121.988C233.169 121.988 234.576 124.812 234.576 128.294" stroke="#9DAFCC" stroke-width="0.6" stroke-linecap="round" stroke-linejoin="round"/>
<path d="M209.667 128.294C209.667 124.807 211.078 121.988 212.817 121.988C214.556 121.988 215.972 124.812 215.972 128.294" fill="white"/>
<path d="M209.667 128.294C209.667 124.807 211.078 121.988 212.817 121.988C214.556 121.988 215.972 124.812 215.972 128.294" stroke="#9DAFCC" stroke-width="0.6" stroke-linecap="round" stroke-linejoin="round"/>
<path d="M234.559 128.294H209.667V151.905H234.559V128.294Z" fill="#E4EBF5" stroke="#9DAFCC" stroke-width="0.6" stroke-linecap="round" stroke-linejoin="round"/>
<path d="M228.419 128.294H215.811V151.905H228.419V128.294Z" fill="#E4EBF5" stroke="#9DAFCC" stroke-width="0.6" stroke-linecap="round" stroke-linejoin="round"/>
<path d="M209.667 145.826H234.577" stroke="#9DAFCC" stroke-width="0.6" stroke-linecap="round" stroke-linejoin="round"/>
<path d="M222.112 134.029C221.604 134.029 221.116 134.231 220.757 134.59C220.397 134.95 220.195 135.438 220.195 135.947V145.83H224.03V135.947C224.03 135.438 223.828 134.95 223.468 134.59C223.109 134.231 222.621 134.029 222.112 134.029Z" fill="#365DA0" stroke="#9DAFCC" stroke-width="0.6" stroke-linecap="round" stroke-linejoin="round"/>
<path d="M211.2 134.029C210.355 134.029 209.667 134.9 209.667 135.947V145.83H212.717V135.947C212.734 134.887 212.046 134.029 211.2 134.029Z" fill="#365DA0" stroke="#9DAFCC" stroke-width="0.6" stroke-linecap="round" stroke-linejoin="round"/>
<path d="M233.024 134.029C232.179 134.029 231.495 134.9 231.495 135.947V145.83H234.545V135.947C234.559 134.887 233.874 134.029 233.024 134.029Z" fill="#365DA0" stroke="#9DAFCC" stroke-width="0.6" stroke-linecap="round" stroke-linejoin="round"/>
<path d="M208.686 128.294H235.535" stroke="#9DAFCC" stroke-width="0.6" stroke-linecap="round" stroke-linejoin="round"/>
<path d="M222.108 96.0147C219.872 96.0147 218.064 94.6283 218.064 92.92C218.064 90.5234 220.344 89.1376 222.108 86.5012C223.873 89.1157 226.157 90.5234 226.157 92.92C226.157 94.6283 224.344 96.0147 222.108 96.0147Z" fill="#F25451" stroke="#9DAFCC" stroke-width="0.6" stroke-linecap="round" stroke-linejoin="round"/>
<path d="M222.195 86.5014V71.3792" stroke="#9DAFCC" stroke-width="0.6" stroke-linejoin="round"/>
<path d="M218.352 76.5913H225.869" stroke="#9DAFCC" stroke-width="0.6" stroke-linejoin="round"/>
<path d="M220.404 73.6804H223.986" stroke="#9DAFCC" stroke-width="0.6" stroke-linejoin="round"/>
<path d="M220.055 80.4348L224.274 82.7274" stroke="#9DAFCC" stroke-width="0.6" stroke-linejoin="round"/>
<path d="M222.112 112.095C221.861 112.095 221.612 112.144 221.379 112.24C221.147 112.336 220.935 112.477 220.757 112.654C220.579 112.832 220.438 113.043 220.341 113.275C220.244 113.508 220.195 113.757 220.195 114.008V117.434H224.03V114.017C224.031 113.765 223.982 113.515 223.887 113.281C223.791 113.048 223.649 112.836 223.472 112.658C223.293 112.478 223.081 112.337 222.848 112.241C222.615 112.144 222.365 112.095 222.112 112.095Z" fill="#365DA0" stroke="#9DAFCC" stroke-width="0.6" stroke-linecap="round" stroke-linejoin="round"/>
<path d="M172.855 80.3474H198.78" stroke="#9DAFCC" stroke-width="0.6" stroke-linecap="round" stroke-linejoin="round"/>
<path d="M185.798 44.2901C181.989 44.2901 178.899 41.9281 178.899 39.0126C178.899 34.9336 182.791 32.5673 185.798 28.0742C188.809 32.5673 192.701 34.9336 192.701 39.0126C192.701 41.9238 189.611 44.2901 185.798 44.2901Z" fill="#F25451" stroke="#9DAFCC" stroke-width="0.6" stroke-linecap="round" stroke-linejoin="round"/>
<path d="M185.885 28.1221V13" stroke="#9DAFCC" stroke-width="0.6" stroke-linejoin="round"/>
<path d="M182.041 18.2124H189.559" stroke="#9DAFCC" stroke-width="0.6" stroke-linejoin="round"/>
<path d="M184.094 15.2964H187.676" stroke="#9DAFCC" stroke-width="0.6" stroke-linejoin="round"/>
<path d="M183.745 22.0557L187.959 24.348" stroke="#9DAFCC" stroke-width="0.6" stroke-linejoin="round"/>
<path d="M185.815 67.1216C185.006 67.1216 184.231 67.4429 183.658 68.015C183.086 68.5872 182.765 69.363 182.765 70.1721V75.6326H188.866V70.1765C188.866 69.7755 188.788 69.3784 188.635 69.0077C188.482 68.6371 188.257 68.3003 187.974 68.0166C187.69 67.7328 187.354 67.5078 186.984 67.3542C186.613 67.2006 186.216 67.1216 185.815 67.1216Z" fill="#365DA0" stroke="#9DAFCC" stroke-width="0.6" stroke-linecap="round" stroke-linejoin="round"/>
<path d="M189.328 44.2856H182.308V55.3113H189.328V44.2856Z" fill="#F25451" stroke="#9DAFCC" stroke-width="0.6" stroke-linecap="round" stroke-linejoin="round"/>
<path d="M182.308 48.1643H189.328" stroke="#9DAFCC" stroke-width="0.6" stroke-linecap="round" stroke-linejoin="round"/>
<path d="M193.258 99.6271L190.853 80.3474" stroke="#9DAFCC" stroke-width="0.6" stroke-linecap="round" stroke-linejoin="round"/>
<path d="M178.372 99.6271L180.782 80.3474" stroke="#9DAFCC" stroke-width="0.6" stroke-linecap="round" stroke-linejoin="round"/>
<path d="M117.766 170.941H135.111V161.266H125.275C123.221 161.267 121.252 162.083 119.8 163.535C118.348 164.987 117.532 166.956 117.531 169.01V170.941H117.783" fill="#F25451"/>
<path d="M117.766 170.941H135.111V161.266H125.275C123.221 161.267 121.252 162.083 119.8 163.535C118.348 164.987 117.532 166.956 117.531 169.01V170.941H117.783" stroke="#9DAFCC" stroke-width="0.6" stroke-miterlimit="10"/>
<path d="M135.11 170.941H117.513V199.503H135.11V170.941Z" fill="#E4EBF5" stroke="#9DAFCC" stroke-width="0.6" stroke-linecap="round" stroke-linejoin="round"/>
<path d="M135.11 199.503H117.513V210.101H135.11V199.503Z" fill="white" stroke="#9DAFCC" stroke-width="0.6" stroke-linecap="round" stroke-linejoin="round"/>
<path d="M135.11 210.101H117.513V217.239H135.11V210.101Z" fill="#365DA0" stroke="#9DAFCC" stroke-width="0.6" stroke-linecap="round" stroke-linejoin="round"/>
<path d="M135.11 170.941H117.513V174.859H135.11V170.941Z" fill="white" stroke="#9DAFCC" stroke-width="0.6" stroke-linecap="round" stroke-linejoin="round"/>
<path d="M126.556 180.454C125.905 180.454 125.281 180.713 124.821 181.173C124.361 181.633 124.103 182.257 124.103 182.908V193.589H129.01V182.908C129.01 182.257 128.751 181.633 128.291 181.173C127.831 180.713 127.207 180.454 126.556 180.454Z" fill="#365DA0" stroke="#9DAFCC" stroke-width="0.6" stroke-linecap="round" stroke-linejoin="round"/>
<path d="M117.513 193.588H135.11" stroke="#9DAFCC" stroke-width="0.6" stroke-linecap="round" stroke-linejoin="round"/>
<path d="M253.886 170.941H236.542V161.266H246.395C248.448 161.267 250.418 162.083 251.869 163.535C253.322 164.987 254.138 166.956 254.139 169.01V170.941H253.886Z" fill="#F25451" stroke="#9DAFCC" stroke-width="0.6" stroke-miterlimit="10"/>
<path d="M236.542 199.503H254.139V170.941H236.542V199.503Z" fill="#E4EBF5" stroke="#9DAFCC" stroke-width="0.6" stroke-linecap="round" stroke-linejoin="round"/>
<path d="M236.542 210.101H254.139V199.502H236.542V210.101Z" fill="white" stroke="#9DAFCC" stroke-width="0.6" stroke-linecap="round" stroke-linejoin="round"/>
<path d="M236.542 217.235H254.139V210.097H236.542V217.235Z" fill="#365DA0" stroke="#9DAFCC" stroke-width="0.6" stroke-linecap="round" stroke-linejoin="round"/>
<path d="M236.542 174.859H254.139V170.941H236.542V174.859Z" fill="white" stroke="#9DAFCC" stroke-width="0.6" stroke-linecap="round" stroke-linejoin="round"/>
<path d="M245.118 180.454C245.769 180.454 246.394 180.713 246.855 181.173C247.315 181.632 247.575 182.257 247.576 182.908V193.589H242.643V182.908C242.643 182.584 242.707 182.263 242.832 181.964C242.957 181.665 243.139 181.393 243.369 181.165C243.599 180.937 243.872 180.757 244.172 180.635C244.473 180.513 244.794 180.452 245.118 180.454Z" fill="#365DA0" stroke="#9DAFCC" stroke-width="0.6" stroke-linecap="round" stroke-linejoin="round"/>
<path d="M254.139 193.588H236.542" stroke="#9DAFCC" stroke-width="0.6" stroke-linecap="round" stroke-linejoin="round"/>
<path d="M125.545 191.314V141.363L128.09 128.79V98.5459H117.182H110.593H39.9503H36.9259H22.4532V128.79L25.0026 141.363V191.314L19.9038 217.235H36.9259H39.9503H110.593H117.182H130.639L125.545 191.314Z" fill="#E4EBF5" stroke="#9DAFCC" stroke-width="0.6" stroke-linejoin="round"/>
<path d="M109.142 98.5459V108.844" stroke="#9DAFCC" stroke-width="0.6" stroke-linejoin="round"/>
<path d="M95.5488 98.5459V108.844" stroke="#9DAFCC" stroke-width="0.6" stroke-linejoin="round"/>
<path d="M81.9565 98.5459V108.844" stroke="#9DAFCC" stroke-width="0.6" stroke-linejoin="round"/>
<path d="M68.3599 98.5459V108.844" stroke="#9DAFCC" stroke-width="0.6" stroke-linejoin="round"/>
<path d="M54.7676 98.5459V108.844" stroke="#9DAFCC" stroke-width="0.6" stroke-linejoin="round"/>
<path d="M41.1707 98.5459V108.844" stroke="#9DAFCC" stroke-width="0.6" stroke-linejoin="round"/>
<path d="M88.9641 217.236V201.983C88.9641 198.351 87.5215 194.868 84.9536 192.3C82.3856 189.732 78.9025 188.29 75.2714 188.29C71.6396 188.29 68.1569 189.732 65.5891 192.3C63.0212 194.868 61.5786 198.351 61.5786 201.983V217.236H88.9641Z" fill="white" stroke="#9DAFCC" stroke-width="0.6" stroke-linecap="round" stroke-linejoin="round"/>
<path d="M85.0944 217.235V207.879C85.0944 205.273 84.0596 202.775 82.2175 200.933C80.3755 199.091 77.8767 198.056 75.2713 198.055C72.6666 198.056 70.1678 199.091 68.3257 200.933C66.4836 202.775 65.4487 205.273 65.4487 207.879V217.235H85.0944Z" fill="#365DA0" stroke="#9DAFCC" stroke-width="0.6" stroke-linecap="round" stroke-linejoin="round"/>
<path d="M58.6021 191.314H24.9893V195.001H58.6021V191.314Z" fill="#365DA0" stroke="#9DAFCC" stroke-width="0.6" stroke-linecap="round" stroke-linejoin="round"/>
<path d="M125.553 191.314H91.9404V195.001H125.553V191.314Z" fill="#365DA0" stroke="#9DAFCC" stroke-width="0.6" stroke-linecap="round" stroke-linejoin="round"/>
<path d="M75.2713 168.152C74.1822 168.152 73.1384 168.584 72.3686 169.354C71.5988 170.124 71.1658 171.168 71.1658 172.257V184.18H79.3762V172.257C79.3762 171.168 78.9438 170.124 78.174 169.354C77.4043 168.584 76.3598 168.152 75.2713 168.152Z" fill="#F25451" stroke="#9DAFCC" stroke-width="0.6" stroke-linecap="round" stroke-linejoin="round"/>
<path d="M68.7737 184.18H81.769" stroke="#9DAFCC" stroke-width="0.6" stroke-linecap="round" stroke-linejoin="round"/>
<path d="M86.8112 172.515C86.3762 169.764 84.9737 167.261 82.8569 165.452C80.7395 163.644 78.0468 162.65 75.2631 162.65C72.4786 162.65 69.786 163.644 67.669 165.452C65.552 167.261 64.1497 169.764 63.7144 172.515" stroke="#9DAFCC" stroke-width="0.6" stroke-linecap="round" stroke-linejoin="round"/>
<path d="M109.255 128.538C108.638 128.539 108.047 128.785 107.612 129.221C107.177 129.658 106.932 130.249 106.932 130.865V141.69H111.582V130.865C111.582 130.248 111.336 129.656 110.9 129.219C110.464 128.783 109.872 128.538 109.255 128.538Z" fill="#365DA0" stroke="#9DAFCC" stroke-width="0.6" stroke-linecap="round" stroke-linejoin="round"/>
<path d="M95.6623 128.538C95.045 128.538 94.4536 128.783 94.0167 129.219C93.5804 129.656 93.3354 130.248 93.3354 130.865V141.69H97.9898V130.865C97.9898 130.248 97.7441 129.656 97.3079 129.219C96.8716 128.783 96.2795 128.538 95.6623 128.538Z" fill="#365DA0" stroke="#9DAFCC" stroke-width="0.6" stroke-linecap="round" stroke-linejoin="round"/>
<path d="M82.0698 128.538C81.4531 128.538 80.8611 128.783 80.4248 129.219C79.9879 129.656 79.7429 130.248 79.7429 130.865V141.69H84.3927V130.865C84.3927 130.249 84.1484 129.658 83.7128 129.221C83.2771 128.785 82.6864 128.539 82.0698 128.538Z" fill="#365DA0" stroke="#9DAFCC" stroke-width="0.6" stroke-linecap="round" stroke-linejoin="round"/>
<path d="M68.4732 128.538C67.8567 128.539 67.266 128.785 66.8305 129.221C66.395 129.658 66.1504 130.249 66.1504 130.865V141.69H70.8V130.865C70.8 130.248 70.5551 129.656 70.1188 129.219C69.6825 128.783 69.0905 128.538 68.4732 128.538Z" fill="#365DA0" stroke="#9DAFCC" stroke-width="0.6" stroke-linecap="round" stroke-linejoin="round"/>
<path d="M54.8806 128.538C54.2634 128.538 53.6715 128.783 53.2351 129.219C52.7986 129.656 52.5535 130.248 52.5535 130.865V141.69H57.2078V130.865C57.2078 130.248 56.9626 129.656 56.5261 129.219C56.0897 128.783 55.4978 128.538 54.8806 128.538Z" fill="#365DA0" stroke="#9DAFCC" stroke-width="0.6" stroke-linecap="round" stroke-linejoin="round"/>
<path d="M41.2883 128.538C40.6711 128.538 40.0792 128.783 39.6428 129.219C39.2064 129.656 38.9612 130.248 38.9612 130.865V141.69H43.6111V130.865C43.6112 130.249 43.3665 129.658 42.9311 129.221C42.4956 128.785 41.9047 128.539 41.2883 128.538Z" fill="#365DA0" stroke="#9DAFCC" stroke-width="0.6" stroke-linecap="round" stroke-linejoin="round"/>
<path d="M100.766 162.076C100.414 162.076 100.066 162.145 99.7419 162.278C99.4174 162.412 99.122 162.609 98.8739 162.858C98.625 163.106 98.4279 163.4 98.2934 163.724C98.159 164.049 98.0898 164.397 98.0898 164.748V172.514H103.437V164.748C103.437 164.039 103.155 163.36 102.654 162.859C102.153 162.358 101.474 162.076 100.766 162.076Z" fill="#365DA0" stroke="#9DAFCC" stroke-width="0.6" stroke-linecap="round" stroke-linejoin="round"/>
<path d="M107.743 164.775C107.743 162.95 107.018 161.2 105.727 159.909C104.437 158.618 102.687 157.894 100.861 157.894C99.0368 157.894 97.2865 158.618 95.9958 159.909C94.7057 161.2 93.9805 162.95 93.9805 164.775" stroke="#9DAFCC" stroke-width="0.6" stroke-linecap="round" stroke-linejoin="round"/>
<path d="M49.5859 162.076C49.235 162.076 48.8874 162.145 48.563 162.278C48.2386 162.413 47.9439 162.609 47.6957 162.858C47.4475 163.106 47.2508 163.401 47.1167 163.725C46.9827 164.049 46.914 164.397 46.9146 164.748V172.514H52.2574V164.748C52.258 164.397 52.1893 164.049 52.0552 163.725C51.9212 163.401 51.7244 163.106 51.4762 162.858C51.228 162.609 50.9333 162.413 50.609 162.278C50.2846 162.145 49.937 162.076 49.5859 162.076Z" fill="#365DA0" stroke="#9DAFCC" stroke-width="0.6" stroke-linecap="round" stroke-linejoin="round"/>
<path d="M56.5626 164.775C56.5626 162.95 55.8377 161.2 54.5472 159.909C53.2567 158.618 51.5064 157.894 49.6814 157.894C47.8564 157.894 46.1062 158.618 44.8157 159.909C43.5252 161.2 42.8003 162.95 42.8003 164.775" stroke="#9DAFCC" stroke-width="0.6" stroke-linecap="round" stroke-linejoin="round"/>
<path d="M24.9983 141.69H125.545" stroke="#9DAFCC" stroke-width="0.6" stroke-linecap="round" stroke-linejoin="round"/>
<path d="M128.09 128.538H114.497C114.497 125.854 112.148 123.683 109.268 123.683C106.387 123.683 104.038 125.862 104.038 128.538H100.922C100.922 125.854 98.5777 123.683 95.6925 123.683C92.8078 123.683 90.4636 125.862 90.4636 128.538H87.3476C87.3476 125.854 85.0026 123.683 82.118 123.683C79.2327 123.683 76.8885 125.862 76.8885 128.538H73.7724C73.7724 125.854 71.4236 123.683 68.5428 123.683C65.6622 123.683 63.3132 125.862 63.3132 128.538H60.1973C60.1973 125.854 57.8527 123.683 54.9678 123.683C52.0828 123.683 49.7382 125.862 49.7382 128.538H46.5264C46.5264 125.854 44.1818 123.683 41.2969 123.683C38.4119 123.683 36.0673 125.862 36.0673 128.538H22.4531" stroke="#9DAFCC" stroke-width="0.6" stroke-linecap="round" stroke-linejoin="round"/>
<path d="M33.9495 109.52V115.347" stroke="#9DAFCC" stroke-width="0.6" stroke-linecap="round" stroke-linejoin="round"/>
<path d="M47.7249 109.52V115.347" stroke="#9DAFCC" stroke-width="0.6" stroke-linecap="round" stroke-linejoin="round"/>
<path d="M61.5005 109.52V115.347" stroke="#9DAFCC" stroke-width="0.6" stroke-linecap="round" stroke-linejoin="round"/>
<path d="M75.2759 109.52V115.347" stroke="#9DAFCC" stroke-width="0.6" stroke-linecap="round" stroke-linejoin="round"/>
<path d="M89.0513 109.52V115.347" stroke="#9DAFCC" stroke-width="0.6" stroke-linecap="round" stroke-linejoin="round"/>
<path d="M102.827 109.52V115.347" stroke="#9DAFCC" stroke-width="0.6" stroke-linecap="round" stroke-linejoin="round"/>
<path d="M116.603 109.52V115.347" stroke="#9DAFCC" stroke-width="0.6" stroke-linecap="round" stroke-linejoin="round"/>
<path d="M102.822 89.3123H47.7205V98.5427H102.822V89.3123Z" fill="white" stroke="#9DAFCC" stroke-width="0.6" stroke-linejoin="round"/>
<path d="M75.2714 52.8403L50.209 89.3123H100.334L75.2714 52.8403Z" fill="#F25451" stroke="#9DAFCC" stroke-width="0.6" stroke-linejoin="round"/>
<path d="M45.3674 89.3123H105.176" stroke="#9DAFCC" stroke-width="0.6" stroke-linecap="round" stroke-linejoin="round"/>
<path d="M69.1227 73.366C69.1227 73.366 66.7212 74.4467 66.7212 75.7715V81.6724H71.5148V75.7715C71.5277 74.4467 69.1227 73.366 69.1227 73.366Z" fill="#365DA0" stroke="#9DAFCC" stroke-width="0.6" stroke-linecap="round" stroke-linejoin="round"/>
<path d="M81.4208 73.366C81.4208 73.366 79.0151 74.4467 79.0151 75.7715V81.6724H83.8091V75.7715C83.822 74.4467 81.4208 73.366 81.4208 73.366Z" fill="#365DA0" stroke="#9DAFCC" stroke-width="0.6" stroke-linecap="round" stroke-linejoin="round"/>
</g>
</g>
<defs>
<filter id="filter0_dd_202_5862" x="-11.9112" y="-11.9112" width="296.822" height="263.822" filterUnits="userSpaceOnUse" color-interpolation-filters="sRGB">
<feFlood flood-opacity="0" result="BackgroundImageFix"/>
<feColorMatrix in="SourceAlpha" type="matrix" values="0 0 0 0 0 0 0 0 0 0 0 0 0 0 0 0 0 0 127 0" result="hardAlpha"/>
<feOffset/>
<feGaussianBlur stdDeviation="5.95559"/>
<feComposite in2="hardAlpha" operator="out"/>
<feColorMatrix type="matrix" values="0 0 0 0 0.568627 0 0 0 0 0.741176 0 0 0 0 0.866667 0 0 0 1 0"/>
<feBlend mode="normal" in2="BackgroundImageFix" result="effect1_dropShadow_202_5862"/>
<feColorMatrix in="SourceAlpha" type="matrix" values="0 0 0 0 0 0 0 0 0 0 0 0 0 0 0 0 0 0 127 0" result="hardAlpha"/>
<feOffset dy="2.38223"/>
<feGaussianBlur stdDeviation="2.97779"/>
<feComposite in2="hardAlpha" operator="out"/>
<feColorMatrix type="matrix" values="0 0 0 0 0 0 0 0 0 0 0 0 0 0 0 0 0 0 0.1 0"/>
<feBlend mode="normal" in2="effect1_dropShadow_202_5862" result="effect2_dropShadow_202_5862"/>
<feBlend mode="normal" in="SourceGraphic" in2="effect2_dropShadow_202_5862" result="shape"/>
</filter>
<filter id="filter1_dd_202_5862" x="7.69259" y="1.08883" width="258.658" height="228.366" filterUnits="userSpaceOnUse" color-interpolation-filters="sRGB">
<feFlood flood-opacity="0" result="BackgroundImageFix"/>
<feColorMatrix in="SourceAlpha" type="matrix" values="0 0 0 0 0 0 0 0 0 0 0 0 0 0 0 0 0 0 127 0" result="hardAlpha"/>
<feOffset/>
<feGaussianBlur stdDeviation="5.95559"/>
<feComposite in2="hardAlpha" operator="out"/>
<feColorMatrix type="matrix" values="0 0 0 0 0.568627 0 0 0 0 0.741176 0 0 0 0 0.866667 0 0 0 1 0"/>
<feBlend mode="normal" in2="BackgroundImageFix" result="effect1_dropShadow_202_5862"/>
<feColorMatrix in="SourceAlpha" type="matrix" values="0 0 0 0 0 0 0 0 0 0 0 0 0 0 0 0 0 0 127 0" result="hardAlpha"/>
<feOffset dy="2.38223"/>
<feGaussianBlur stdDeviation="2.97779"/>
<feComposite in2="hardAlpha" operator="out"/>
<feColorMatrix type="matrix" values="0 0 0 0 0 0 0 0 0 0 0 0 0 0 0 0 0 0 0.1 0"/>
<feBlend mode="normal" in2="effect1_dropShadow_202_5862" result="effect2_dropShadow_202_5862"/>
<feBlend mode="normal" in="SourceGraphic" in2="effect2_dropShadow_202_5862" result="shape"/>
</filter>
</defs>
</svg>
