<svg width="273" height="240" viewBox="0 0 273 240" fill="none" xmlns="http://www.w3.org/2000/svg">
<g filter="url(#filter0_dd_202_899)">
<g filter="url(#filter1_dd_202_899)">
<path d="M78.3493 167.283H18.2197V190.308H78.3493V167.283Z" fill="#E4EBF5" stroke="#9DAFCC" stroke-width="0.6" stroke-miterlimit="10" stroke-linecap="round"/>
<path d="M78.3493 189.391H18.2197V193.743H78.3493V189.391Z" fill="white" stroke="#9DAFCC" stroke-width="0.6" stroke-miterlimit="10" stroke-linecap="round"/>
<path d="M78.3493 167.283H18.2197V170.718H78.3493V167.283Z" fill="white" stroke="#9DAFCC" stroke-width="0.6" stroke-miterlimit="10" stroke-linecap="round"/>
<path d="M27.328 175.088C27.328 175.088 25.4326 176.523 23.625 177.944V185.636H31.0441V177.944C29.4559 176.738 27.328 175.088 27.328 175.088Z" fill="#365DA0" stroke="#9DAFCC" stroke-width="0.6" stroke-linejoin="round"/>
<path d="M27.3367 175.15V185.636" stroke="#9DAFCC" stroke-width="0.6" stroke-miterlimit="10"/>
<path d="M23.6995 179.59H31.044" stroke="#9DAFCC" stroke-width="0.6" stroke-miterlimit="10"/>
<path d="M23.6995 182.573H31.044" stroke="#9DAFCC" stroke-width="0.6" stroke-miterlimit="10"/>
<path d="M34.826 153.449L15.1177 167.279H86.4571L68.6222 153.449H34.826Z" fill="#F25451" stroke="#9DAFCC" stroke-width="0.6" stroke-linecap="round" stroke-linejoin="round"/>
<path d="M111.084 118.943H63.7742V150.558H111.084V118.943Z" fill="#E4EBF5" stroke="#9DAFCC" stroke-width="0.6" stroke-miterlimit="10" stroke-linecap="round"/>
<path d="M111.084 118.943H63.7742V123.935H111.084V118.943Z" fill="white" stroke="#9DAFCC" stroke-width="0.6" stroke-miterlimit="10" stroke-linecap="round"/>
<path d="M101.274 118.943H95.6753V150.558H101.274V118.943Z" fill="white" stroke="#9DAFCC" stroke-width="0.6" stroke-miterlimit="10" stroke-linecap="round"/>
<path d="M79.1872 118.943H73.5889V150.558H79.1872V118.943Z" fill="white" stroke="#9DAFCC" stroke-width="0.6" stroke-miterlimit="10" stroke-linecap="round"/>
<path d="M87.4354 127.902C86.4535 127.902 85.5115 128.292 84.817 128.986C84.1225 129.681 83.7324 130.622 83.7324 131.605V141.586H91.1428V131.618C91.1445 131.13 91.0498 130.647 90.8642 130.195C90.6786 129.744 90.4057 129.334 90.0613 128.989C89.7169 128.644 89.3075 128.37 88.8569 128.183C88.4063 127.997 87.9233 127.901 87.4354 127.902Z" fill="#365DA0" stroke="#9DAFCC" stroke-width="0.6" stroke-miterlimit="10"/>
<path d="M87.4312 127.915V141.599" stroke="#9DAFCC" stroke-width="0.6" stroke-miterlimit="10"/>
<path d="M83.7939 132.478H91.1385" stroke="#9DAFCC" stroke-width="0.6" stroke-miterlimit="10"/>
<path d="M83.7939 137.036H91.1385" stroke="#9DAFCC" stroke-width="0.6" stroke-miterlimit="10"/>
<path d="M117.498 153.449H57.3687V189.391H117.498V153.449Z" fill="#E4EBF5" stroke="#9DAFCC" stroke-width="0.6" stroke-miterlimit="10" stroke-linecap="round"/>
<path d="M117.498 153.449H111.088V189.391H117.498V153.449Z" fill="white" stroke="#9DAFCC" stroke-width="0.6" stroke-miterlimit="10" stroke-linecap="round"/>
<path d="M117.498 189.391H57.3687V193.743H117.498V189.391Z" fill="white" stroke="#9DAFCC" stroke-width="0.6" stroke-miterlimit="10" stroke-linecap="round"/>
<path d="M68.9119 145.719L57.3687 153.45H117.494L105.951 145.719H68.9119Z" fill="#F25451" stroke="#9DAFCC" stroke-width="0.6" stroke-linecap="round" stroke-linejoin="round"/>
<path d="M87.4354 157.569C87.4354 157.569 85.54 159.425 83.7324 161.272V171.254H91.1428V161.272C89.5501 159.706 87.4354 157.569 87.4354 157.569Z" fill="#365DA0" stroke="#9DAFCC" stroke-width="0.6" stroke-linejoin="round"/>
<path d="M87.4312 157.653V171.254" stroke="#9DAFCC" stroke-width="0.6" stroke-miterlimit="10"/>
<path d="M83.7939 163.409H91.1385" stroke="#9DAFCC" stroke-width="0.6" stroke-miterlimit="10"/>
<path d="M83.7939 167.283H91.1385" stroke="#9DAFCC" stroke-width="0.6" stroke-miterlimit="10"/>
<path d="M113.694 118.942C113.001 110.835 101.506 102.016 87.4354 102.016C73.365 102.016 61.8656 110.83 61.1724 118.938L113.694 118.942Z" fill="#F25451" stroke="#9DAFCC" stroke-width="0.6" stroke-miterlimit="10"/>
<path d="M91.8402 96.7465H83.0215V101.959H91.8402V96.7465Z" fill="white" stroke="#9DAFCC" stroke-width="0.6" stroke-miterlimit="10"/>
<path d="M84.5531 91.8765L80.4202 96.7466H94.4424L90.3094 91.8765H84.5531Z" fill="#F25451" stroke="#9DAFCC" stroke-width="0.6" stroke-linejoin="round"/>
<path d="M90.309 85.7253H84.5527V91.8765H90.309V85.7253Z" fill="white" stroke="#9DAFCC" stroke-width="0.6" stroke-linejoin="round"/>
<path d="M87.4354 85.7253H84.7679C83.3639 85.7253 82.2231 84.1239 82.2231 82.1408C82.2231 80.2542 83.5394 79.561 85.211 78.3062C86.5272 77.3015 87.4354 73.0851 87.4354 73.0851C87.4354 73.0851 88.5542 77.3366 89.6642 78.3062C91.213 79.6575 92.6477 80.2542 92.6477 82.1408C92.6477 84.1239 91.5069 85.7253 90.103 85.7253H87.4354Z" fill="#F25451" stroke="#9DAFCC" stroke-width="0.6" stroke-linejoin="round"/>
<path d="M87.4312 73.0851V65.2141" stroke="#9DAFCC" stroke-width="0.6" stroke-miterlimit="10"/>
<path d="M84.7725 67.7327H90.09" stroke="#9DAFCC" stroke-width="0.6" stroke-miterlimit="10"/>
<path d="M63.7787 153.449H57.3687V189.391H63.7787V153.449Z" fill="white" stroke="#9DAFCC" stroke-width="0.6" stroke-miterlimit="10" stroke-linecap="round"/>
<path d="M162.939 167.283H102.809V190.308H162.939V167.283Z" fill="#E4EBF5" stroke="#9DAFCC" stroke-width="0.6" stroke-miterlimit="10" stroke-linecap="round"/>
<path d="M132.288 170.718H126.927V190.308H132.288V170.718Z" fill="white" stroke="#9DAFCC" stroke-width="0.6" stroke-miterlimit="10" stroke-linecap="round"/>
<path d="M162.939 167.283H156.529V190.308H162.939V167.283Z" stroke="#9DAFCC" stroke-width="0.6" stroke-miterlimit="10" stroke-linecap="round"/>
<path d="M162.939 189.391H102.809V193.743H162.939V189.391Z" fill="white" stroke="#9DAFCC" stroke-width="0.6" stroke-miterlimit="10" stroke-linecap="round"/>
<path d="M162.939 167.283H102.809V170.718H162.939V167.283Z" fill="white" stroke="#9DAFCC" stroke-width="0.6" stroke-miterlimit="10" stroke-linecap="round"/>
<path d="M140.677 175.088C140.677 175.088 138.777 176.523 136.969 177.944V185.636H144.38V177.944C142.791 176.738 140.677 175.088 140.677 175.088Z" fill="#365DA0" stroke="#9DAFCC" stroke-width="0.6" stroke-linejoin="round"/>
<path d="M140.677 175.15V185.636" stroke="#9DAFCC" stroke-width="0.6" stroke-miterlimit="10"/>
<path d="M137.035 179.59H144.38" stroke="#9DAFCC" stroke-width="0.6" stroke-miterlimit="10"/>
<path d="M137.035 182.573H144.38" stroke="#9DAFCC" stroke-width="0.6" stroke-miterlimit="10"/>
<path d="M111.931 175.088C111.931 175.088 110.031 176.523 108.223 177.944V185.636H115.638V177.944C114.045 176.738 111.931 175.088 111.931 175.088Z" fill="#365DA0" stroke="#9DAFCC" stroke-width="0.6" stroke-linejoin="round"/>
<path d="M111.931 175.15V185.636" stroke="#9DAFCC" stroke-width="0.6" stroke-miterlimit="10"/>
<path d="M108.289 179.59H115.638" stroke="#9DAFCC" stroke-width="0.6" stroke-miterlimit="10"/>
<path d="M108.289 182.573H115.638" stroke="#9DAFCC" stroke-width="0.6" stroke-miterlimit="10"/>
<path d="M117.546 156.499L99.7114 167.279H171.051L153.216 156.499H117.546Z" fill="#F25451" stroke="#9DAFCC" stroke-width="0.6" stroke-linecap="round" stroke-linejoin="round"/>
<path d="M219.554 71.9049H187.679V108.356H219.554V71.9049Z" fill="white" stroke="#9DAFCC" stroke-width="0.6" stroke-miterlimit="10"/>
<path d="M193.361 82.7111C192.866 82.7111 192.392 82.9075 192.042 83.2572C191.693 83.6069 191.496 84.0812 191.496 84.5757V103.178H195.221V84.5757C195.221 84.082 195.025 83.6083 194.677 83.2587C194.328 82.9092 193.854 82.7122 193.361 82.7111Z" fill="#365DA0" stroke="#9DAFCC" stroke-width="0.6" stroke-miterlimit="10"/>
<path d="M200.192 82.7111C199.698 82.7111 199.224 82.9075 198.874 83.2572C198.524 83.6069 198.328 84.0812 198.328 84.5757V103.178H202.057V84.5757C202.056 84.0816 201.859 83.6079 201.509 83.2585C201.16 82.9091 200.686 82.7122 200.192 82.7111Z" fill="#365DA0" stroke="#9DAFCC" stroke-width="0.6" stroke-miterlimit="10"/>
<path d="M207.032 82.7111C206.539 82.7122 206.065 82.9092 205.716 83.2587C205.368 83.6083 205.172 84.082 205.172 84.5757V103.178H208.897V84.5757C208.897 84.0812 208.7 83.6069 208.351 83.2572C208.001 82.9075 207.527 82.7111 207.032 82.7111Z" fill="#365DA0" stroke="#9DAFCC" stroke-width="0.6" stroke-miterlimit="10"/>
<path d="M213.872 82.7111C213.378 82.7111 212.903 82.9075 212.554 83.2572C212.204 83.6069 212.007 84.0812 212.007 84.5757V103.178H215.732V84.5757C215.732 84.082 215.537 83.6083 215.188 83.2587C214.839 82.9092 214.366 82.7122 213.872 82.7111Z" fill="#365DA0" stroke="#9DAFCC" stroke-width="0.6" stroke-miterlimit="10"/>
<path d="M167.835 105.828C165.639 105.828 163.465 106.26 161.437 107.1C159.408 107.939 157.565 109.17 156.012 110.723C154.459 112.275 153.227 114.118 152.387 116.146C151.547 118.175 151.114 120.349 151.114 122.545V193.744H184.555V122.545C184.555 120.349 184.123 118.175 183.282 116.146C182.442 114.118 181.21 112.275 179.657 110.723C178.105 109.17 176.262 107.939 174.233 107.1C172.205 106.26 170.03 105.828 167.835 105.828Z" fill="white" stroke="#9DAFCC" stroke-width="0.6" stroke-linejoin="round"/>
<path d="M167.835 112.497C164.68 112.497 161.654 113.75 159.423 115.981C157.191 118.212 155.937 121.237 155.936 124.392H179.733C179.732 121.237 178.478 118.212 176.247 115.981C174.015 113.75 170.99 112.497 167.835 112.497Z" fill="#F25451" stroke="#9DAFCC" stroke-width="0.6" stroke-linejoin="round"/>
<path d="M179.733 124.396H155.936V193.744H179.733V124.396Z" stroke="#9DAFCC" stroke-width="0.6" stroke-linejoin="round"/>
<path d="M167.835 142.757C167.223 142.757 166.636 143 166.203 143.433C165.77 143.866 165.527 144.453 165.527 145.065V168.174H170.143V145.065C170.143 144.453 169.9 143.866 169.467 143.433C169.034 143 168.447 142.757 167.835 142.757Z" fill="#365DA0" stroke="#9DAFCC" stroke-width="0.6" stroke-miterlimit="10"/>
<path d="M155.936 128.858H179.733" stroke="#9DAFCC" stroke-width="0.6" stroke-miterlimit="10"/>
<path d="M167.835 138.633V128.858" stroke="#9DAFCC" stroke-width="0.6" stroke-miterlimit="10" stroke-linecap="round"/>
<path d="M171.801 138.633V128.858" stroke="#9DAFCC" stroke-width="0.6" stroke-miterlimit="10" stroke-linecap="round"/>
<path d="M175.768 138.633V128.858" stroke="#9DAFCC" stroke-width="0.6" stroke-miterlimit="10" stroke-linecap="round"/>
<path d="M159.902 138.633V128.858" stroke="#9DAFCC" stroke-width="0.6" stroke-miterlimit="10" stroke-linecap="round"/>
<path d="M163.869 138.633V128.858" stroke="#9DAFCC" stroke-width="0.6" stroke-miterlimit="10" stroke-linecap="round"/>
<path d="M239.955 105.828C235.522 105.828 231.27 107.59 228.135 110.724C225 113.859 223.239 118.111 223.239 122.545V193.744H256.676V122.545C256.676 120.349 256.243 118.175 255.403 116.146C254.563 114.118 253.331 112.275 251.778 110.723C250.225 109.17 248.382 107.939 246.353 107.1C244.325 106.26 242.151 105.828 239.955 105.828Z" fill="white" stroke="#9DAFCC" stroke-width="0.6" stroke-linejoin="round"/>
<path d="M239.955 112.497C236.801 112.499 233.777 113.752 231.546 115.982C229.316 118.213 228.062 121.238 228.061 124.392H251.854C251.853 121.237 250.599 118.212 248.367 115.981C246.136 113.75 243.11 112.497 239.955 112.497Z" fill="#F25451" stroke="#9DAFCC" stroke-width="0.6" stroke-linejoin="round"/>
<path d="M251.858 124.396H228.061V193.744H251.858V124.396Z" stroke="#9DAFCC" stroke-width="0.6" stroke-linejoin="round"/>
<path d="M239.955 142.757C239.344 142.759 238.757 143.002 238.324 143.435C237.892 143.867 237.649 144.454 237.647 145.065V168.174H242.267V145.065C242.266 144.453 242.022 143.866 241.589 143.433C241.155 143 240.568 142.757 239.955 142.757Z" fill="#365DA0" stroke="#9DAFCC" stroke-width="0.6" stroke-miterlimit="10"/>
<path d="M228.061 128.858H251.854" stroke="#9DAFCC" stroke-width="0.6" stroke-miterlimit="10"/>
<path d="M239.955 138.633V128.858" stroke="#9DAFCC" stroke-width="0.6" stroke-miterlimit="10" stroke-linecap="round"/>
<path d="M243.921 138.633V128.858" stroke="#9DAFCC" stroke-width="0.6" stroke-miterlimit="10" stroke-linecap="round"/>
<path d="M247.888 138.633V128.858" stroke="#9DAFCC" stroke-width="0.6" stroke-miterlimit="10" stroke-linecap="round"/>
<path d="M232.027 138.633V128.858" stroke="#9DAFCC" stroke-width="0.6" stroke-miterlimit="10" stroke-linecap="round"/>
<path d="M235.989 138.633V128.858" stroke="#9DAFCC" stroke-width="0.6" stroke-miterlimit="10" stroke-linecap="round"/>
<path d="M203.895 97.3257C198.766 97.3271 193.848 99.365 190.221 102.992C186.594 106.618 184.556 111.537 184.555 116.665V193.744H223.239V116.665C223.238 111.536 221.199 106.617 217.572 102.99C213.944 99.3633 209.025 97.3257 203.895 97.3257Z" fill="white" stroke="#9DAFCC" stroke-width="0.6" stroke-linejoin="round"/>
<path d="M203.662 103.117C199.962 103.117 196.414 104.587 193.797 107.203C191.18 109.82 189.71 113.369 189.71 117.069H217.61C217.61 115.237 217.25 113.423 216.55 111.73C215.849 110.037 214.822 108.499 213.526 107.204C212.231 105.908 210.693 104.88 209.001 104.179C207.308 103.478 205.495 103.117 203.662 103.117Z" fill="#F25451" stroke="#9DAFCC" stroke-width="0.6" stroke-linejoin="round"/>
<path d="M217.614 117.069H189.71V193.744H217.614V117.069Z" stroke="#9DAFCC" stroke-width="0.6" stroke-linejoin="round"/>
<path d="M189.71 121.794H217.61" stroke="#9DAFCC" stroke-width="0.6" stroke-miterlimit="10"/>
<path d="M203.663 131.569V121.794" stroke="#9DAFCC" stroke-width="0.6" stroke-miterlimit="10" stroke-linecap="round"/>
<path d="M208.313 131.569V121.794" stroke="#9DAFCC" stroke-width="0.6" stroke-miterlimit="10" stroke-linecap="round"/>
<path d="M212.959 131.569V121.794" stroke="#9DAFCC" stroke-width="0.6" stroke-miterlimit="10" stroke-linecap="round"/>
<path d="M194.361 131.569V121.794" stroke="#9DAFCC" stroke-width="0.6" stroke-miterlimit="10" stroke-linecap="round"/>
<path d="M199.012 131.569V121.794" stroke="#9DAFCC" stroke-width="0.6" stroke-miterlimit="10" stroke-linecap="round"/>
<path d="M196.16 138.317C195.612 138.317 195.087 138.535 194.699 138.923C194.311 139.31 194.094 139.836 194.094 140.384V161.027H198.227V140.384C198.227 140.113 198.173 139.844 198.069 139.593C197.966 139.342 197.813 139.114 197.621 138.923C197.43 138.731 197.202 138.578 196.951 138.475C196.7 138.371 196.432 138.317 196.16 138.317Z" fill="#365DA0" stroke="#9DAFCC" stroke-width="0.6" stroke-miterlimit="10"/>
<path d="M203.895 138.317C203.347 138.317 202.821 138.535 202.434 138.923C202.046 139.31 201.829 139.836 201.829 140.384V161.027H205.962V140.384C205.962 139.836 205.744 139.31 205.356 138.923C204.969 138.535 204.443 138.317 203.895 138.317Z" fill="#365DA0" stroke="#9DAFCC" stroke-width="0.6" stroke-miterlimit="10"/>
<path d="M211.63 138.317C211.082 138.317 210.556 138.535 210.169 138.923C209.781 139.31 209.563 139.836 209.563 140.384V161.027H213.701V140.384C213.701 140.112 213.647 139.843 213.543 139.592C213.439 139.341 213.286 139.113 213.094 138.921C212.902 138.729 212.673 138.577 212.422 138.473C212.171 138.37 211.902 138.317 211.63 138.317Z" fill="#365DA0" stroke="#9DAFCC" stroke-width="0.6" stroke-miterlimit="10"/>
<path d="M219.58 71.905C217.68 65.1176 211.244 60.1116 203.614 60.1116C195.985 60.1116 189.548 65.1176 187.653 71.905H219.58Z" fill="#F25451" stroke="#9DAFCC" stroke-width="0.6" stroke-linejoin="round"/>
<path d="M187.679 76.6829H219.554" stroke="#9DAFCC" stroke-width="0.6" stroke-miterlimit="10"/>
<path d="M192.233 76.6829V79.9472" stroke="#9DAFCC" stroke-width="0.6" stroke-miterlimit="10"/>
<path d="M196.788 76.6829V79.9472" stroke="#9DAFCC" stroke-width="0.6" stroke-miterlimit="10"/>
<path d="M201.342 76.6829V79.9472" stroke="#9DAFCC" stroke-width="0.6" stroke-miterlimit="10"/>
<path d="M205.896 76.6829V79.9472" stroke="#9DAFCC" stroke-width="0.6" stroke-miterlimit="10"/>
<path d="M210.445 76.6829V79.9472" stroke="#9DAFCC" stroke-width="0.6" stroke-miterlimit="10"/>
<path d="M215 76.6829V79.9472" stroke="#9DAFCC" stroke-width="0.6" stroke-miterlimit="10"/>
<path d="M203.614 60.1116V41" stroke="#9DAFCC" stroke-width="0.6" stroke-miterlimit="10"/>
<path d="M198.332 49.0597H208.897" stroke="#9DAFCC" stroke-width="0.6" stroke-miterlimit="10"/>
</g>
</g>
<defs>
<filter id="filter0_dd_202_899" x="-11.9112" y="-11.9112" width="296.822" height="263.822" filterUnits="userSpaceOnUse" color-interpolation-filters="sRGB">
<feFlood flood-opacity="0" result="BackgroundImageFix"/>
<feColorMatrix in="SourceAlpha" type="matrix" values="0 0 0 0 0 0 0 0 0 0 0 0 0 0 0 0 0 0 127 0" result="hardAlpha"/>
<feOffset/>
<feGaussianBlur stdDeviation="5.95559"/>
<feComposite in2="hardAlpha" operator="out"/>
<feColorMatrix type="matrix" values="0 0 0 0 0.568627 0 0 0 0 0.741176 0 0 0 0 0.866667 0 0 0 1 0"/>
<feBlend mode="normal" in2="BackgroundImageFix" result="effect1_dropShadow_202_899"/>
<feColorMatrix in="SourceAlpha" type="matrix" values="0 0 0 0 0 0 0 0 0 0 0 0 0 0 0 0 0 0 127 0" result="hardAlpha"/>
<feOffset dy="2.38223"/>
<feGaussianBlur stdDeviation="2.97779"/>
<feComposite in2="hardAlpha" operator="out"/>
<feColorMatrix type="matrix" values="0 0 0 0 0 0 0 0 0 0 0 0 0 0 0 0 0 0 0.1 0"/>
<feBlend mode="normal" in2="effect1_dropShadow_202_899" result="effect2_dropShadow_202_899"/>
<feBlend mode="normal" in="SourceGraphic" in2="effect2_dropShadow_202_899" result="shape"/>
</filter>
<filter id="filter1_dd_202_899" x="2.90646" y="29.0888" width="265.981" height="176.866" filterUnits="userSpaceOnUse" color-interpolation-filters="sRGB">
<feFlood flood-opacity="0" result="BackgroundImageFix"/>
<feColorMatrix in="SourceAlpha" type="matrix" values="0 0 0 0 0 0 0 0 0 0 0 0 0 0 0 0 0 0 127 0" result="hardAlpha"/>
<feOffset/>
<feGaussianBlur stdDeviation="5.95559"/>
<feComposite in2="hardAlpha" operator="out"/>
<feColorMatrix type="matrix" values="0 0 0 0 0.568627 0 0 0 0 0.741176 0 0 0 0 0.866667 0 0 0 1 0"/>
<feBlend mode="normal" in2="BackgroundImageFix" result="effect1_dropShadow_202_899"/>
<feColorMatrix in="SourceAlpha" type="matrix" values="0 0 0 0 0 0 0 0 0 0 0 0 0 0 0 0 0 0 127 0" result="hardAlpha"/>
<feOffset dy="2.38223"/>
<feGaussianBlur stdDeviation="2.97779"/>
<feComposite in2="hardAlpha" operator="out"/>
<feColorMatrix type="matrix" values="0 0 0 0 0 0 0 0 0 0 0 0 0 0 0 0 0 0 0.1 0"/>
<feBlend mode="normal" in2="effect1_dropShadow_202_899" result="effect2_dropShadow_202_899"/>
<feBlend mode="normal" in="SourceGraphic" in2="effect2_dropShadow_202_899" result="shape"/>
</filter>
</defs>
</svg>
