<svg width="273" height="240" viewBox="0 0 273 240" fill="none" xmlns="http://www.w3.org/2000/svg">
<g filter="url(#filter0_dd_202_2179)">
<g filter="url(#filter1_dd_202_2179)">
<path d="M44.5227 161.555H33.6694L35.9789 93.2052H42.2132L44.5227 161.555Z" fill="white" stroke="#9DAFCC" stroke-width="0.6" stroke-miterlimit="10"/>
<path d="M34.9879 122.565L33.6694 161.555H44.5227L43.2042 122.565H34.9879Z" fill="#365DA0" stroke="#9DAFCC" stroke-width="0.6" stroke-miterlimit="10"/>
<path d="M97.981 143.905H31.6262V185.087H97.981V143.905Z" fill="#F25451" stroke="#9DAFCC" stroke-width="0.6" stroke-miterlimit="10"/>
<path d="M69.7699 88.4863H64.3433V143.905H69.7699V88.4863Z" fill="#365DA0" stroke="#9DAFCC" stroke-width="0.6" stroke-miterlimit="10"/>
<path d="M56.0526 95.0912H50.626V143.904H56.0526V95.0912Z" fill="white" stroke="#9DAFCC" stroke-width="0.6" stroke-miterlimit="10"/>
<path d="M57.9169 113.083H49.05V143.905H57.9169V113.083Z" fill="#365DA0" stroke="#9DAFCC" stroke-width="0.6" stroke-miterlimit="10"/>
<path d="M85.8051 161.556H74.9519L77.2614 96.4149H83.4956L85.8051 161.556Z" fill="white" stroke="#9DAFCC" stroke-width="0.6" stroke-miterlimit="10"/>
<path d="M71.5597 169.519H18.9832V185.083H71.5597V169.519Z" fill="#E4EBF5" stroke="#9DAFCC" stroke-width="0.6" stroke-miterlimit="10"/>
<path d="M38.0703 169.518H23.1831V141.01L38.0703 152.614V169.518Z" fill="white" stroke="#9DAFCC" stroke-width="0.6" stroke-miterlimit="10"/>
<path d="M26.907 160.634V167.729" stroke="#365DA0" stroke-width="0.6" stroke-miterlimit="10"/>
<path d="M26.907 149.301V156.989" stroke="#365DA0" stroke-width="0.6" stroke-miterlimit="10"/>
<path d="M30.6267 160.634V167.729" stroke="#365DA0" stroke-width="0.6" stroke-miterlimit="10"/>
<path d="M34.3462 160.634V167.729" stroke="#365DA0" stroke-width="0.6" stroke-miterlimit="10"/>
<path d="M52.9529 169.518H38.0701V141.01L52.9529 152.614V169.518Z" fill="white" stroke="#9DAFCC" stroke-width="0.6" stroke-miterlimit="10"/>
<path d="M41.7898 160.634V167.729" stroke="#365DA0" stroke-width="0.6" stroke-miterlimit="10"/>
<path d="M41.7898 149.301V156.989" stroke="#365DA0" stroke-width="0.6" stroke-miterlimit="10"/>
<path d="M45.5093 160.634V167.729" stroke="#365DA0" stroke-width="0.6" stroke-miterlimit="10"/>
<path d="M49.2334 160.634V167.729" stroke="#365DA0" stroke-width="0.6" stroke-miterlimit="10"/>
<path d="M67.8359 169.518H52.9531V141.01L67.8359 152.614V169.518Z" fill="white" stroke="#9DAFCC" stroke-width="0.6" stroke-miterlimit="10"/>
<path d="M56.6726 160.634V167.729" stroke="#365DA0" stroke-width="0.6" stroke-miterlimit="10"/>
<path d="M56.6726 149.301V156.989" stroke="#365DA0" stroke-width="0.6" stroke-miterlimit="10"/>
<path d="M60.3965 160.634V167.729" stroke="#365DA0" stroke-width="0.6" stroke-miterlimit="10"/>
<path d="M64.1162 160.634V167.729" stroke="#365DA0" stroke-width="0.6" stroke-miterlimit="10"/>
<path d="M60.3964 174.827H38.0701V185.087H60.3964V174.827Z" fill="#365DA0" stroke="#9DAFCC" stroke-width="0.6" stroke-miterlimit="10"/>
<path d="M97.9856 161.556H71.5598V185.082H97.9856V161.556Z" fill="#E4EBF5" stroke="#9DAFCC" stroke-width="0.6" stroke-miterlimit="10"/>
<path d="M76.5234 165.48H93.0172" stroke="#9DAFCC" stroke-width="0.6" stroke-miterlimit="10"/>
<path d="M76.5234 161.556H93.0172" stroke="#9DAFCC" stroke-width="0.6" stroke-miterlimit="10"/>
<path d="M76.5234 169.401H93.0172" stroke="#9DAFCC" stroke-width="0.6" stroke-miterlimit="10"/>
<path d="M76.5234 173.322H93.0172" stroke="#9DAFCC" stroke-width="0.6" stroke-miterlimit="10"/>
<path d="M76.5234 177.241H93.0172" stroke="#9DAFCC" stroke-width="0.6" stroke-miterlimit="10"/>
<path d="M76.5234 181.162H93.0172" stroke="#9DAFCC" stroke-width="0.6" stroke-miterlimit="10"/>
<path d="M76.5234 185.083H93.0172" stroke="#9DAFCC" stroke-width="0.6" stroke-miterlimit="10"/>
<path d="M76.2703 124.395L74.9519 161.556H85.8051L84.4867 124.395H76.2703Z" fill="#365DA0" stroke="#9DAFCC" stroke-width="0.6" stroke-miterlimit="10"/>
<path d="M230.704 136.479H127.323V158.133H230.704V136.479Z" fill="#F25451" stroke="#9DAFCC" stroke-width="0.6" stroke-miterlimit="10"/>
<path d="M105.019 81.5927L94.218 112.345H123.713L112.912 81.5927H105.019Z" fill="#F25451" stroke="#9DAFCC" stroke-width="0.6" stroke-linejoin="round"/>
<path d="M113.807 77.6942H104.128V81.5928H113.807V77.6942Z" fill="#F25451" stroke="#9DAFCC" stroke-width="0.6" stroke-linejoin="round"/>
<path d="M99.1336 107.412C99.7793 107.414 100.418 107.544 101.014 107.793C101.609 108.042 102.149 108.406 102.604 108.864C103.059 109.322 103.419 109.865 103.664 110.463C103.909 111.06 104.034 111.699 104.032 112.345V128.778H94.2178V112.345C94.2156 111.698 94.3409 111.057 94.5871 110.459C94.8329 109.86 95.1949 109.316 95.6515 108.858C96.1082 108.399 96.6508 108.036 97.2485 107.788C97.8457 107.54 98.4866 107.412 99.1336 107.412Z" fill="#365DA0" stroke="#9DAFCC" stroke-width="0.6" stroke-miterlimit="10"/>
<path d="M108.965 107.412C110.269 107.412 111.519 107.93 112.441 108.852C113.363 109.774 113.881 111.024 113.881 112.328V128.76H104.032V112.345C104.03 111.697 104.156 111.054 104.403 110.455C104.65 109.855 105.013 109.31 105.472 108.852C105.93 108.393 106.475 108.03 107.074 107.783C107.674 107.536 108.317 107.41 108.965 107.412Z" fill="#365DA0" stroke="#9DAFCC" stroke-width="0.6" stroke-miterlimit="10"/>
<path d="M118.797 107.412C120.101 107.412 121.351 107.93 122.273 108.852C123.195 109.774 123.713 111.024 123.713 112.328V128.76H113.881V112.345C113.879 111.698 114.004 111.057 114.25 110.459C114.496 109.86 114.858 109.316 115.315 108.858C115.771 108.399 116.314 108.036 116.912 107.788C117.509 107.54 118.15 107.412 118.797 107.412Z" fill="#365DA0" stroke="#9DAFCC" stroke-width="0.6" stroke-miterlimit="10"/>
<path d="M127.323 126.852H90.6074V152.99H127.323V126.852Z" fill="#E4EBF5" stroke="#9DAFCC" stroke-width="0.6" stroke-linejoin="round"/>
<path d="M127.323 130.826H90.6074V134.187H127.323V130.826Z" fill="#E4EBF5" stroke="#9DAFCC" stroke-width="0.6" stroke-linejoin="round"/>
<path d="M90.6074 139.098H127.323" stroke="#9DAFCC" stroke-width="0.6" stroke-linejoin="round"/>
<path d="M239.754 129.131H230.704V151.156H239.754V129.131Z" fill="white" stroke="#9DAFCC" stroke-width="0.6" stroke-linecap="round" stroke-linejoin="round"/>
<path d="M241.086 120.588C241.086 123.521 238.466 125.896 235.227 125.896C231.987 125.896 229.372 123.521 229.372 120.588C229.372 117.654 235.227 112.769 235.227 112.769C235.227 112.769 241.086 117.654 241.086 120.588Z" fill="#F25451" stroke="#9DAFCC" stroke-width="0.6" stroke-linejoin="round"/>
<path d="M232.42 125.303L228.879 129.132H241.579L238.038 125.303H232.42Z" fill="#F25451" stroke="#9DAFCC" stroke-width="0.6" stroke-linecap="round" stroke-linejoin="round"/>
<path d="M177.848 129.131H168.798V151.156H177.848V129.131Z" fill="white" stroke="#9DAFCC" stroke-width="0.6" stroke-linecap="round" stroke-linejoin="round"/>
<path d="M179.184 120.588C179.184 123.521 176.564 125.896 173.325 125.896C170.086 125.896 167.466 123.521 167.466 120.588C167.466 117.654 173.325 112.769 173.325 112.769C173.325 112.769 179.184 117.654 179.184 120.588Z" fill="#F25451" stroke="#9DAFCC" stroke-width="0.6" stroke-linejoin="round"/>
<path d="M170.514 125.303L166.973 129.132H179.677L176.132 125.303H170.514Z" fill="#F25451" stroke="#9DAFCC" stroke-width="0.6" stroke-linecap="round" stroke-linejoin="round"/>
<path d="M209.15 92.9044H199.41V103.675H209.15V92.9044Z" fill="white" stroke="#9DAFCC" stroke-width="0.6" stroke-linecap="round" stroke-linejoin="round"/>
<path d="M204.283 102.235C199.344 102.238 194.61 104.202 191.12 107.696C187.63 111.189 185.67 115.925 185.671 120.863H222.924C222.925 118.415 222.443 115.992 221.506 113.73C220.569 111.469 219.196 109.415 217.465 107.685C215.733 105.955 213.678 104.583 211.416 103.647C209.154 102.712 206.73 102.232 204.283 102.235Z" fill="#365DA0" stroke="#9DAFCC" stroke-width="0.6" stroke-linecap="round" stroke-linejoin="round"/>
<path d="M224.627 133.785H183.99V145.197H224.627V133.785Z" fill="#E4EBF5" stroke="#9DAFCC" stroke-width="0.6" stroke-linecap="round" stroke-linejoin="round"/>
<path d="M187.252 116.497C187.252 116.497 183.99 117.96 183.99 119.763V133.786H190.539V119.763C190.517 117.96 187.252 116.497 187.252 116.497Z" fill="#E4EBF5" stroke="#9DAFCC" stroke-width="0.6" stroke-linecap="round" stroke-linejoin="round"/>
<path d="M187.252 123.334V130.367" stroke="#9DAFCC" stroke-width="0.6" stroke-linecap="round" stroke-linejoin="round"/>
<path d="M193.783 116.497C193.783 116.497 190.517 117.96 190.517 119.763V133.786H197.044V119.763C197.044 117.96 193.783 116.497 193.783 116.497Z" fill="#E4EBF5" stroke="#9DAFCC" stroke-width="0.6" stroke-linecap="round" stroke-linejoin="round"/>
<path d="M193.783 123.334V130.367" stroke="#9DAFCC" stroke-width="0.6" stroke-linecap="round" stroke-linejoin="round"/>
<path d="M214.834 116.497C214.834 116.497 211.573 117.96 211.573 119.763V133.786H218.1V119.763C218.1 117.96 214.834 116.497 214.834 116.497Z" fill="#E4EBF5" stroke="#9DAFCC" stroke-width="0.6" stroke-linecap="round" stroke-linejoin="round"/>
<path d="M214.834 123.334V130.367" stroke="#9DAFCC" stroke-width="0.6" stroke-linecap="round" stroke-linejoin="round"/>
<path d="M221.361 116.497C221.361 116.497 218.1 117.96 218.1 119.763V133.786H224.648V119.763C224.627 117.96 221.361 116.497 221.361 116.497Z" fill="#E4EBF5" stroke="#9DAFCC" stroke-width="0.6" stroke-linecap="round" stroke-linejoin="round"/>
<path d="M221.361 123.334V130.367" stroke="#9DAFCC" stroke-width="0.6" stroke-linecap="round" stroke-linejoin="round"/>
<path d="M204.282 133.785L165.24 149.48H168.806V191.16H239.754V149.48H243.321L204.282 133.785Z" fill="#E4EBF5" stroke="#9DAFCC" stroke-width="0.6" stroke-linejoin="round"/>
<path d="M204.282 139.098C202.869 139.098 201.514 139.659 200.515 140.658C199.515 141.657 198.953 143.012 198.952 144.425V182.406H209.609V144.425C209.609 143.012 209.048 141.657 208.049 140.658C207.05 139.66 205.695 139.098 204.282 139.098Z" stroke="#9DAFCC" stroke-width="0.6" stroke-linecap="round" stroke-linejoin="round"/>
<path d="M204.282 158.133C204.282 158.133 198.952 162.695 198.952 165.638V182.385H209.609V165.638C209.609 162.695 204.282 158.133 204.282 158.133Z" stroke="#9DAFCC" stroke-width="0.6" stroke-linecap="round" stroke-linejoin="round"/>
<path d="M206.758 168.301H201.802V182.385H206.758V168.301Z" fill="#365DA0" stroke="#9DAFCC" stroke-width="0.6" stroke-linecap="round" stroke-linejoin="round"/>
<path d="M217.72 145.83C216.307 145.83 214.953 146.391 213.954 147.39C212.955 148.389 212.394 149.744 212.394 151.156V182.384H223.046V151.156C223.046 149.744 222.485 148.389 221.487 147.39C220.488 146.391 219.133 145.83 217.72 145.83Z" stroke="#9DAFCC" stroke-width="0.6" stroke-linecap="round" stroke-linejoin="round"/>
<path d="M217.72 158.133C217.72 158.133 212.394 162.695 212.394 165.638V182.385H223.046V165.638C223.046 162.695 217.72 158.133 217.72 158.133Z" stroke="#9DAFCC" stroke-width="0.6" stroke-linecap="round" stroke-linejoin="round"/>
<path d="M220.2 168.301H215.245V182.385H220.2V168.301Z" fill="#365DA0" stroke="#9DAFCC" stroke-width="0.6" stroke-linecap="round" stroke-linejoin="round"/>
<path d="M231.162 151.156C230.463 151.156 229.77 151.294 229.124 151.562C228.478 151.829 227.891 152.222 227.396 152.716C226.901 153.211 226.509 153.798 226.242 154.444C225.974 155.09 225.836 155.783 225.836 156.482V182.384H236.489V156.482C236.489 155.07 235.928 153.715 234.929 152.716C233.93 151.717 232.575 151.156 231.162 151.156Z" stroke="#9DAFCC" stroke-width="0.6" stroke-linecap="round" stroke-linejoin="round"/>
<path d="M232.913 169.244H229.25V177.046H232.913V169.244Z" fill="#365DA0" stroke="#9DAFCC" stroke-width="0.6" stroke-linecap="round" stroke-linejoin="round"/>
<path d="M190.84 145.83C192.25 145.835 193.6 146.398 194.595 147.397C195.59 148.395 196.149 149.747 196.149 151.157V182.385H185.497V151.157C185.497 150.456 185.635 149.762 185.903 149.114C186.172 148.467 186.566 147.879 187.063 147.384C187.559 146.889 188.148 146.497 188.797 146.231C189.445 145.964 190.14 145.828 190.84 145.83Z" stroke="#9DAFCC" stroke-width="0.6" stroke-linecap="round" stroke-linejoin="round"/>
<path d="M190.84 158.133C190.84 158.133 196.149 162.695 196.149 165.638V182.385H185.497V165.638C185.514 162.695 190.84 158.133 190.84 158.133Z" stroke="#9DAFCC" stroke-width="0.6" stroke-linecap="round" stroke-linejoin="round"/>
<path d="M193.32 168.301H188.365V182.385H193.32V168.301Z" fill="#365DA0" stroke="#9DAFCC" stroke-width="0.6" stroke-linecap="round" stroke-linejoin="round"/>
<path d="M177.398 151.156C178.811 151.156 180.167 151.717 181.166 152.716C182.166 153.715 182.727 155.069 182.729 156.482V182.384H172.072V156.482C172.073 155.07 172.635 153.716 173.633 152.717C174.632 151.719 175.986 151.157 177.398 151.156Z" stroke="#9DAFCC" stroke-width="0.6" stroke-linecap="round" stroke-linejoin="round"/>
<path d="M179.311 169.244H175.648V177.046H179.311V169.244Z" fill="#365DA0" stroke="#9DAFCC" stroke-width="0.6" stroke-linecap="round" stroke-linejoin="round"/>
<path d="M214.808 125.141H193.752L197.86 120.413H210.704L214.808 125.141Z" fill="#F25451" stroke="#9DAFCC" stroke-width="0.6" stroke-linecap="round" stroke-linejoin="round"/>
<path d="M210.705 111.769H197.861V120.413H210.705V111.769Z" fill="white" stroke="#9DAFCC" stroke-width="0.6" stroke-linecap="round" stroke-linejoin="round"/>
<path d="M206.496 125.141C206.509 124.842 206.462 124.543 206.356 124.263C206.251 123.982 206.09 123.726 205.883 123.51C205.676 123.293 205.427 123.121 205.151 123.003C204.876 122.886 204.58 122.825 204.28 122.825C203.981 122.825 203.684 122.886 203.409 123.003C203.133 123.121 202.884 123.293 202.677 123.51C202.47 123.726 202.309 123.982 202.204 124.263C202.098 124.543 202.051 124.842 202.064 125.141H193.77V133.785H214.825V125.141H206.496Z" fill="white" stroke="#9DAFCC" stroke-width="0.6" stroke-linecap="round" stroke-linejoin="round"/>
<path d="M204.282 95.585L196.167 111.769H212.394L204.282 95.585Z" fill="#F25451" stroke="#9DAFCC" stroke-width="0.6" stroke-linecap="round" stroke-linejoin="round"/>
<path d="M211.053 83.0248C211.053 86.4126 208.024 89.163 204.282 89.163C200.541 89.163 197.507 86.4126 197.507 83.0248C197.507 79.637 204.282 73.979 204.282 73.979C204.282 73.979 211.053 79.6326 211.053 83.0248Z" fill="#F25451" stroke="#9DAFCC" stroke-width="0.6" stroke-linejoin="round"/>
<path d="M201.03 88.4728L196.935 92.904H211.626L207.53 88.4728H201.03Z" fill="#F25451" stroke="#9DAFCC" stroke-width="0.6" stroke-linecap="round" stroke-linejoin="round"/>
<path d="M255.641 164.105H239.754V191.155H255.641V164.105Z" fill="#E4EBF5" stroke="#9DAFCC" stroke-width="0.6" stroke-linejoin="round"/>
<path d="M247.7 179.009V170.256" stroke="#9DAFCC" stroke-width="0.6" stroke-linecap="round" stroke-linejoin="round"/>
<path d="M239.754 152.99V164.11H258.291L239.754 152.99Z" fill="#F25451" stroke="#9DAFCC" stroke-width="0.6" stroke-linecap="round" stroke-linejoin="round"/>
<path d="M118.339 145.83H99.5921L90.6074 152.99H126.878L118.339 145.83Z" fill="#F25451" stroke="#9DAFCC" stroke-width="0.6" stroke-linejoin="round"/>
<path d="M110.908 127.669H107.023L99.592 145.83H118.339L110.908 127.669Z" fill="#F25451" stroke="#9DAFCC" stroke-width="0.6" stroke-linecap="round" stroke-linejoin="round"/>
<path d="M116.099 152.99V148.948H113.161C113.161 146.634 108.965 143.272 108.965 143.272C108.965 143.272 104.77 146.63 104.77 148.948H101.849V152.99H90.6074V191.16H127.323V152.99H116.099Z" fill="#E4EBF5" stroke="#9DAFCC" stroke-width="0.6" stroke-linejoin="round"/>
<path d="M102.705 156.889H98.396V164.11H102.705V156.889Z" fill="#E4EBF5" stroke="#9DAFCC" stroke-width="0.6" stroke-linecap="round" stroke-linejoin="round"/>
<path d="M119.535 156.889H115.226V164.11H119.535V156.889Z" fill="#E4EBF5" stroke="#9DAFCC" stroke-width="0.6" stroke-linecap="round" stroke-linejoin="round"/>
<path d="M108.965 156.889L94.8159 163.778V191.16H123.115V163.778L108.965 156.889Z" fill="#E4EBF5" stroke="#9DAFCC" stroke-width="0.6" stroke-linejoin="round"/>
<path d="M108.965 161.053L101.033 164.917C100.245 165.304 99.582 165.905 99.1193 166.65C98.6561 167.396 98.4116 168.257 98.4133 169.134V191.159H119.557V169.134C119.558 168.257 119.313 167.396 118.85 166.651C118.387 165.905 117.724 165.304 116.937 164.917L108.965 161.053Z" fill="#365DA0" stroke="#9DAFCC" stroke-width="0.6" stroke-linejoin="round"/>
<path d="M108.965 147.646V153.61" stroke="#9DAFCC" stroke-width="0.6" stroke-linecap="round" stroke-linejoin="round"/>
<path d="M111.89 115.454C111.89 116.916 110.581 118.104 108.965 118.104C107.35 118.104 106.04 116.916 106.04 115.454C106.04 113.991 108.965 111.551 108.965 111.551C108.965 111.551 111.89 113.991 111.89 115.454Z" fill="#F25451" stroke="#9DAFCC" stroke-width="0.6" stroke-linejoin="round"/>
<path d="M110.908 117.435H107.022V127.668H110.908V117.435Z" fill="white" stroke="#9DAFCC" stroke-width="0.6" stroke-linejoin="round"/>
<path d="M110.908 117.435H107.022V120.412H110.908V117.435Z" fill="white" stroke="#9DAFCC" stroke-width="0.6" stroke-linejoin="round"/>
<path d="M110.908 124.691H107.022V127.669H110.908V124.691Z" fill="white" stroke="#9DAFCC" stroke-width="0.6" stroke-linejoin="round"/>
<path d="M111.777 70.8923H106.154V77.6985H111.777V70.8923Z" fill="white" stroke="#9DAFCC" stroke-width="0.6" stroke-linejoin="round"/>
<path d="M114.073 63.431C114.073 65.9894 111.781 68.0674 108.957 68.0674C106.132 68.0674 103.844 65.9894 103.844 63.431C103.844 60.8727 108.957 56.603 108.957 56.603C108.957 56.603 114.073 60.8683 114.073 63.431Z" fill="#F25451" stroke="#9DAFCC" stroke-width="0.6" stroke-linejoin="round"/>
<path d="M106.512 67.5481L103.421 70.8922H114.514L111.419 67.5481H106.512Z" fill="#F25451" stroke="#9DAFCC" stroke-width="0.6" stroke-linecap="round" stroke-linejoin="round"/>
<path d="M100.129 93.913C100.129 93.913 97.5837 95.0481 97.5837 96.4538V102.797H102.67V96.4538C102.67 95.0481 100.129 93.913 100.129 93.913Z" fill="#365DA0" stroke="#9DAFCC" stroke-width="0.6" stroke-miterlimit="10"/>
<path d="M108.939 93.913C108.939 93.913 106.398 95.0481 106.398 96.4538V102.797H111.484V96.4538C111.484 95.0481 108.939 93.913 108.939 93.913Z" fill="#365DA0" stroke="#9DAFCC" stroke-width="0.6" stroke-miterlimit="10"/>
<path d="M117.806 93.913C117.806 93.913 115.265 95.0481 115.265 96.4538V102.797H120.347V96.4538C120.347 95.0481 117.806 93.913 117.806 93.913Z" fill="#365DA0" stroke="#9DAFCC" stroke-width="0.6" stroke-miterlimit="10"/>
<path d="M139.006 145.433C139.006 145.433 136.465 146.572 136.465 147.974V154.322H141.547V147.974C141.547 146.572 139.006 145.433 139.006 145.433Z" fill="#365DA0" stroke="#9DAFCC" stroke-width="0.6" stroke-miterlimit="10"/>
<path d="M147.82 145.433C147.82 145.433 145.28 146.572 145.28 147.974V154.322H150.361V147.974C150.361 146.572 147.82 145.433 147.82 145.433Z" fill="#365DA0" stroke="#9DAFCC" stroke-width="0.6" stroke-miterlimit="10"/>
<path d="M156.683 145.433C156.683 145.433 154.142 146.572 154.142 147.974V154.322H159.228V147.974C159.228 146.572 156.683 145.433 156.683 145.433Z" fill="#365DA0" stroke="#9DAFCC" stroke-width="0.6" stroke-miterlimit="10"/>
<path d="M168.806 158.133H127.323V191.16H168.806V158.133Z" fill="#E4EBF5" stroke="#9DAFCC" stroke-width="0.6" stroke-miterlimit="10"/>
<path d="M139.857 168.301H134.902V182.385H139.857V168.301Z" fill="#365DA0" stroke="#9DAFCC" stroke-width="0.6" stroke-linecap="round" stroke-linejoin="round"/>
<path d="M148.737 168.301H143.782V182.385H148.737V168.301Z" fill="#365DA0" stroke="#9DAFCC" stroke-width="0.6" stroke-linecap="round" stroke-linejoin="round"/>
<path d="M168.806 168.301H155.12V191.16H168.806V168.301Z" fill="#E4EBF5" stroke="#9DAFCC" stroke-width="0.6" stroke-linecap="round" stroke-linejoin="round"/>
<path d="M161.965 161.765H168.806V168.296H152.88L161.965 161.765Z" fill="#F25451" stroke="#9DAFCC" stroke-width="0.6" stroke-linecap="round" stroke-linejoin="round"/>
<path d="M108.965 56.6034V42" stroke="#9DAFCC" stroke-width="0.6" stroke-linejoin="round"/>
<path d="M112.257 46.885H105.678" stroke="#9DAFCC" stroke-width="0.6" stroke-linejoin="round"/>
<path d="M110.934 44.5273H106.996" stroke="#9DAFCC" stroke-width="0.6" stroke-linejoin="round"/>
<path d="M110.948 52.1588L106.988 54.3155" stroke="#9DAFCC" stroke-width="0.6" stroke-linejoin="round"/>
<path d="M204.282 74.0356V59.4323" stroke="#9DAFCC" stroke-width="0.6" stroke-linejoin="round"/>
<path d="M207.57 64.3173H200.99" stroke="#9DAFCC" stroke-width="0.6" stroke-linejoin="round"/>
<path d="M206.251 61.9604H202.309" stroke="#9DAFCC" stroke-width="0.6" stroke-linejoin="round"/>
<path d="M206.26 69.5911L202.3 71.7477" stroke="#9DAFCC" stroke-width="0.6" stroke-linejoin="round"/>
<path d="M173.325 112.769V98.1652" stroke="#9DAFCC" stroke-width="0.6" stroke-linejoin="round"/>
<path d="M176.612 103.05H170.038" stroke="#9DAFCC" stroke-width="0.6" stroke-linejoin="round"/>
<path d="M175.294 100.693H171.356" stroke="#9DAFCC" stroke-width="0.6" stroke-linejoin="round"/>
<path d="M175.302 108.329L171.343 110.481" stroke="#9DAFCC" stroke-width="0.6" stroke-linejoin="round"/>
<path d="M235.227 112.769V98.1652" stroke="#9DAFCC" stroke-width="0.6" stroke-linejoin="round"/>
<path d="M238.519 103.05H231.939" stroke="#9DAFCC" stroke-width="0.6" stroke-linejoin="round"/>
<path d="M237.2 100.693H233.258" stroke="#9DAFCC" stroke-width="0.6" stroke-linejoin="round"/>
<path d="M237.209 108.329L233.249 110.481" stroke="#9DAFCC" stroke-width="0.6" stroke-linejoin="round"/>
<path d="M165.296 177.045H160.341V191.129H165.296V177.045Z" fill="#365DA0" stroke="#9DAFCC" stroke-width="0.6" stroke-linecap="round" stroke-linejoin="round"/>
</g>
</g>
<defs>
<filter id="filter0_dd_202_2179" x="-11.9112" y="-11.9112" width="296.822" height="263.822" filterUnits="userSpaceOnUse" color-interpolation-filters="sRGB">
<feFlood flood-opacity="0" result="BackgroundImageFix"/>
<feColorMatrix in="SourceAlpha" type="matrix" values="0 0 0 0 0 0 0 0 0 0 0 0 0 0 0 0 0 0 127 0" result="hardAlpha"/>
<feOffset/>
<feGaussianBlur stdDeviation="5.95559"/>
<feComposite in2="hardAlpha" operator="out"/>
<feColorMatrix type="matrix" values="0 0 0 0 0.568627 0 0 0 0 0.741176 0 0 0 0 0.866667 0 0 0 1 0"/>
<feBlend mode="normal" in2="BackgroundImageFix" result="effect1_dropShadow_202_2179"/>
<feColorMatrix in="SourceAlpha" type="matrix" values="0 0 0 0 0 0 0 0 0 0 0 0 0 0 0 0 0 0 127 0" result="hardAlpha"/>
<feOffset dy="2.38223"/>
<feGaussianBlur stdDeviation="2.97779"/>
<feComposite in2="hardAlpha" operator="out"/>
<feColorMatrix type="matrix" values="0 0 0 0 0 0 0 0 0 0 0 0 0 0 0 0 0 0 0.1 0"/>
<feBlend mode="normal" in2="effect1_dropShadow_202_2179" result="effect2_dropShadow_202_2179"/>
<feBlend mode="normal" in="SourceGraphic" in2="effect2_dropShadow_202_2179" result="shape"/>
</filter>
<filter id="filter1_dd_202_2179" x="6.77193" y="30.0888" width="263.73" height="173.282" filterUnits="userSpaceOnUse" color-interpolation-filters="sRGB">
<feFlood flood-opacity="0" result="BackgroundImageFix"/>
<feColorMatrix in="SourceAlpha" type="matrix" values="0 0 0 0 0 0 0 0 0 0 0 0 0 0 0 0 0 0 127 0" result="hardAlpha"/>
<feOffset/>
<feGaussianBlur stdDeviation="5.95559"/>
<feComposite in2="hardAlpha" operator="out"/>
<feColorMatrix type="matrix" values="0 0 0 0 0.568627 0 0 0 0 0.741176 0 0 0 0 0.866667 0 0 0 1 0"/>
<feBlend mode="normal" in2="BackgroundImageFix" result="effect1_dropShadow_202_2179"/>
<feColorMatrix in="SourceAlpha" type="matrix" values="0 0 0 0 0 0 0 0 0 0 0 0 0 0 0 0 0 0 127 0" result="hardAlpha"/>
<feOffset dy="2.38223"/>
<feGaussianBlur stdDeviation="2.97779"/>
<feComposite in2="hardAlpha" operator="out"/>
<feColorMatrix type="matrix" values="0 0 0 0 0 0 0 0 0 0 0 0 0 0 0 0 0 0 0.1 0"/>
<feBlend mode="normal" in2="effect1_dropShadow_202_2179" result="effect2_dropShadow_202_2179"/>
<feBlend mode="normal" in="SourceGraphic" in2="effect2_dropShadow_202_2179" result="shape"/>
</filter>
</defs>
</svg>
