<svg width="275" height="240" viewBox="0 0 275 240" fill="none" xmlns="http://www.w3.org/2000/svg">
<g filter="url(#filter0_dd_202_997)">
<g filter="url(#filter1_dd_202_997)">
<path d="M72.0955 103.935H65.2302V115.386H72.0955V103.935Z" fill="#F25451" stroke="#9DAFCC" stroke-width="0.6" stroke-linecap="round" stroke-linejoin="round"/>
<path d="M15.458 123.468L42.2314 115.39H81.5008V126.643H15.458V123.468Z" fill="#F25451" stroke="#9DAFCC" stroke-width="0.6" stroke-linecap="round" stroke-linejoin="round"/>
<path d="M118.019 121.484L87.8149 106.563L53.6074 123.459V123.468H15.458V126.643H59.3528V126.497L116.462 124.632L118.019 121.484Z" fill="white" stroke="#9DAFCC" stroke-width="0.6" stroke-linecap="round" stroke-linejoin="round"/>
<path d="M87.8149 110.496L51.5791 128.38H124.051L87.8149 110.496Z" fill="white" stroke="#9DAFCC" stroke-width="0.6" stroke-linecap="round" stroke-linejoin="round"/>
<path d="M89.2126 102.498H86.4568V117.286H89.2126V102.498Z" fill="white" stroke="#9DAFCC" stroke-width="0.6" stroke-linecap="round" stroke-linejoin="round"/>
<path d="M115.505 126.643H60.6799V189.432H115.505V126.643Z" fill="#F25451" stroke="#9DAFCC" stroke-width="0.6" stroke-miterlimit="10" stroke-linecap="round"/>
<path d="M76.721 162.923H67.4658V177.077H76.721V162.923Z" fill="#365DA0" stroke="white" stroke-width="0.6" stroke-miterlimit="10" stroke-linecap="round"/>
<path d="M72.0957 162.923V177.077" stroke="white" stroke-width="0.6" stroke-miterlimit="10"/>
<path d="M67.4658 167.641H76.721" stroke="white" stroke-width="0.6" stroke-miterlimit="10" stroke-linecap="round"/>
<path d="M67.4658 172.359H76.721" stroke="white" stroke-width="0.6" stroke-miterlimit="10" stroke-linecap="round"/>
<path d="M66.6677 163.897V161.481" stroke="white" stroke-width="0.6" stroke-miterlimit="10" stroke-linecap="round"/>
<path d="M72.0957 163.897V161.481" stroke="white" stroke-width="0.6" stroke-miterlimit="10" stroke-linecap="round"/>
<path d="M77.5281 163.897V161.481" stroke="white" stroke-width="0.6" stroke-miterlimit="10" stroke-linecap="round"/>
<path d="M66.6677 177.862V174.735" stroke="white" stroke-width="0.6" stroke-miterlimit="10"/>
<path d="M77.5281 177.862V174.735" stroke="white" stroke-width="0.6" stroke-miterlimit="10"/>
<path d="M92.7181 162.923H83.4629V177.077H92.7181V162.923Z" fill="#365DA0" stroke="white" stroke-width="0.6" stroke-miterlimit="10" stroke-linecap="round"/>
<path d="M88.0928 162.923V177.077" stroke="white" stroke-width="0.6" stroke-miterlimit="10"/>
<path d="M83.4629 167.641H92.7181" stroke="white" stroke-width="0.6" stroke-miterlimit="10" stroke-linecap="round"/>
<path d="M83.4629 172.359H92.7181" stroke="white" stroke-width="0.6" stroke-miterlimit="10" stroke-linecap="round"/>
<path d="M82.6604 163.897V161.481" stroke="white" stroke-width="0.6" stroke-miterlimit="10" stroke-linecap="round"/>
<path d="M88.0928 163.897V161.481" stroke="white" stroke-width="0.6" stroke-miterlimit="10" stroke-linecap="round"/>
<path d="M93.5249 163.897V161.481" stroke="white" stroke-width="0.6" stroke-miterlimit="10" stroke-linecap="round"/>
<path d="M82.6604 177.862V174.735" stroke="white" stroke-width="0.6" stroke-miterlimit="10"/>
<path d="M93.5249 177.862V174.735" stroke="white" stroke-width="0.6" stroke-miterlimit="10"/>
<path d="M108.715 162.923H99.46V177.077H108.715V162.923Z" fill="#365DA0" stroke="white" stroke-width="0.6" stroke-miterlimit="10" stroke-linecap="round"/>
<path d="M104.085 162.923V177.077" stroke="white" stroke-width="0.6" stroke-miterlimit="10"/>
<path d="M99.46 167.641H108.715" stroke="white" stroke-width="0.6" stroke-miterlimit="10" stroke-linecap="round"/>
<path d="M99.46 172.359H108.715" stroke="white" stroke-width="0.6" stroke-miterlimit="10" stroke-linecap="round"/>
<path d="M98.6575 163.897V161.481" stroke="white" stroke-width="0.6" stroke-miterlimit="10" stroke-linecap="round"/>
<path d="M104.085 163.897V161.481" stroke="white" stroke-width="0.6" stroke-miterlimit="10" stroke-linecap="round"/>
<path d="M109.522 163.897V161.481" stroke="white" stroke-width="0.6" stroke-miterlimit="10" stroke-linecap="round"/>
<path d="M98.6575 177.862V174.735" stroke="white" stroke-width="0.6" stroke-miterlimit="10"/>
<path d="M109.522 177.862V174.735" stroke="white" stroke-width="0.6" stroke-miterlimit="10"/>
<path d="M76.721 133.151H67.4658V147.305H76.721V133.151Z" fill="#365DA0" stroke="white" stroke-width="0.6" stroke-miterlimit="10" stroke-linecap="round"/>
<path d="M72.0957 133.151V147.305" stroke="white" stroke-width="0.6" stroke-miterlimit="10"/>
<path d="M67.4658 137.869H76.721" stroke="white" stroke-width="0.6" stroke-miterlimit="10" stroke-linecap="round"/>
<path d="M67.4658 142.587H76.721" stroke="white" stroke-width="0.6" stroke-miterlimit="10" stroke-linecap="round"/>
<path d="M66.6677 134.126V131.709" stroke="white" stroke-width="0.6" stroke-miterlimit="10" stroke-linecap="round"/>
<path d="M72.0957 134.126V131.709" stroke="white" stroke-width="0.6" stroke-miterlimit="10" stroke-linecap="round"/>
<path d="M77.5281 134.126V131.709" stroke="white" stroke-width="0.6" stroke-miterlimit="10" stroke-linecap="round"/>
<path d="M66.6677 148.09V144.959" stroke="white" stroke-width="0.6" stroke-miterlimit="10"/>
<path d="M77.5281 148.09V144.959" stroke="white" stroke-width="0.6" stroke-miterlimit="10"/>
<path d="M92.7181 133.151H83.4629V147.305H92.7181V133.151Z" fill="#365DA0" stroke="white" stroke-width="0.6" stroke-miterlimit="10" stroke-linecap="round"/>
<path d="M88.0928 133.151V147.305" stroke="white" stroke-width="0.6" stroke-miterlimit="10"/>
<path d="M83.4629 137.869H92.7181" stroke="white" stroke-width="0.6" stroke-miterlimit="10" stroke-linecap="round"/>
<path d="M83.4629 142.587H92.7181" stroke="white" stroke-width="0.6" stroke-miterlimit="10" stroke-linecap="round"/>
<path d="M82.6604 134.126V131.709" stroke="white" stroke-width="0.6" stroke-miterlimit="10" stroke-linecap="round"/>
<path d="M88.0928 134.126V131.709" stroke="white" stroke-width="0.6" stroke-miterlimit="10" stroke-linecap="round"/>
<path d="M93.5249 134.126V131.709" stroke="white" stroke-width="0.6" stroke-miterlimit="10" stroke-linecap="round"/>
<path d="M82.6604 148.09V144.959" stroke="white" stroke-width="0.6" stroke-miterlimit="10"/>
<path d="M93.5249 148.09V144.959" stroke="white" stroke-width="0.6" stroke-miterlimit="10"/>
<path d="M108.715 133.151H99.46V147.305H108.715V133.151Z" fill="#365DA0" stroke="white" stroke-width="0.6" stroke-miterlimit="10" stroke-linecap="round"/>
<path d="M104.085 133.151V147.305" stroke="white" stroke-width="0.6" stroke-miterlimit="10"/>
<path d="M99.46 137.869H108.715" stroke="white" stroke-width="0.6" stroke-miterlimit="10" stroke-linecap="round"/>
<path d="M99.46 142.587H108.715" stroke="white" stroke-width="0.6" stroke-miterlimit="10" stroke-linecap="round"/>
<path d="M98.6575 134.126V131.709" stroke="white" stroke-width="0.6" stroke-miterlimit="10" stroke-linecap="round"/>
<path d="M104.085 134.126V131.709" stroke="white" stroke-width="0.6" stroke-miterlimit="10" stroke-linecap="round"/>
<path d="M109.522 134.126V131.709" stroke="white" stroke-width="0.6" stroke-miterlimit="10" stroke-linecap="round"/>
<path d="M98.6575 148.09V144.959" stroke="white" stroke-width="0.6" stroke-miterlimit="10"/>
<path d="M109.522 148.09V144.959" stroke="white" stroke-width="0.6" stroke-miterlimit="10"/>
<path d="M60.6799 181.349H115.505" stroke="#9DAFCC" stroke-width="0.6" stroke-miterlimit="10"/>
<path d="M115.505 152.098H60.6799V158.315H115.505V152.098Z" fill="white" stroke="#9DAFCC" stroke-width="0.6" stroke-miterlimit="10" stroke-linecap="round"/>
<path d="M60.6799 154.787H115.505" stroke="#9DAFCC" stroke-width="0.6" stroke-miterlimit="10"/>
<path d="M64.0752 154.787V158.315" stroke="#9DAFCC" stroke-width="0.6" stroke-miterlimit="10"/>
<path d="M67.4705 154.787V158.315" stroke="#9DAFCC" stroke-width="0.6" stroke-miterlimit="10"/>
<path d="M70.8655 154.787V158.315" stroke="#9DAFCC" stroke-width="0.6" stroke-miterlimit="10"/>
<path d="M74.2607 154.787V158.315" stroke="#9DAFCC" stroke-width="0.6" stroke-miterlimit="10"/>
<path d="M77.6558 154.787V158.315" stroke="#9DAFCC" stroke-width="0.6" stroke-miterlimit="10"/>
<path d="M81.0466 154.787V158.315" stroke="#9DAFCC" stroke-width="0.6" stroke-miterlimit="10"/>
<path d="M84.4419 154.787V158.315" stroke="#9DAFCC" stroke-width="0.6" stroke-miterlimit="10"/>
<path d="M87.8369 154.787V158.315" stroke="#9DAFCC" stroke-width="0.6" stroke-miterlimit="10"/>
<path d="M91.2322 154.787V158.315" stroke="#9DAFCC" stroke-width="0.6" stroke-miterlimit="10"/>
<path d="M94.6272 154.787V158.315" stroke="#9DAFCC" stroke-width="0.6" stroke-miterlimit="10"/>
<path d="M98.0225 154.787V158.315" stroke="#9DAFCC" stroke-width="0.6" stroke-miterlimit="10"/>
<path d="M101.418 154.787V158.315" stroke="#9DAFCC" stroke-width="0.6" stroke-miterlimit="10"/>
<path d="M104.808 154.787V158.315" stroke="#9DAFCC" stroke-width="0.6" stroke-miterlimit="10"/>
<path d="M108.204 154.787V158.315" stroke="#9DAFCC" stroke-width="0.6" stroke-miterlimit="10"/>
<path d="M111.599 154.787V158.315" stroke="#9DAFCC" stroke-width="0.6" stroke-miterlimit="10"/>
<path d="M146.613 95.3103H115.646V151.335H146.613V95.3103Z" fill="#F25451" stroke="#9DAFCC" stroke-width="0.6" stroke-miterlimit="10" stroke-linecap="round"/>
<path d="M136.04 102.515H126.784V116.669H136.04V102.515Z" fill="#365DA0" stroke="white" stroke-width="0.6" stroke-miterlimit="10" stroke-linecap="round"/>
<path d="M131.414 102.515V116.673" stroke="white" stroke-width="0.6" stroke-miterlimit="10"/>
<path d="M126.784 107.233H136.04" stroke="white" stroke-width="0.6" stroke-miterlimit="10" stroke-linecap="round"/>
<path d="M126.784 111.951H136.04" stroke="white" stroke-width="0.6" stroke-miterlimit="10" stroke-linecap="round"/>
<path d="M125.986 103.49V101.073" stroke="white" stroke-width="0.6" stroke-miterlimit="10" stroke-linecap="round"/>
<path d="M131.414 103.49V101.073" stroke="white" stroke-width="0.6" stroke-miterlimit="10" stroke-linecap="round"/>
<path d="M136.846 103.49V101.073" stroke="white" stroke-width="0.6" stroke-miterlimit="10" stroke-linecap="round"/>
<path d="M125.986 117.454V114.328" stroke="white" stroke-width="0.6" stroke-miterlimit="10"/>
<path d="M136.846 117.454V114.328" stroke="white" stroke-width="0.6" stroke-miterlimit="10"/>
<path d="M146.613 120.796H115.646V127.013H146.613V120.796Z" fill="white" stroke="#9DAFCC" stroke-width="0.6" stroke-miterlimit="10" stroke-linecap="round"/>
<path d="M115.646 123.486H146.613" stroke="#9DAFCC" stroke-width="0.6" stroke-miterlimit="10"/>
<path d="M118.945 123.486V127.013" stroke="#9DAFCC" stroke-width="0.6" stroke-miterlimit="10"/>
<path d="M122.34 123.486V127.013" stroke="#9DAFCC" stroke-width="0.6" stroke-miterlimit="10"/>
<path d="M125.735 123.486V127.013" stroke="#9DAFCC" stroke-width="0.6" stroke-miterlimit="10"/>
<path d="M129.13 123.486V127.013" stroke="#9DAFCC" stroke-width="0.6" stroke-miterlimit="10"/>
<path d="M132.525 123.486V127.013" stroke="#9DAFCC" stroke-width="0.6" stroke-miterlimit="10"/>
<path d="M135.921 123.486V127.013" stroke="#9DAFCC" stroke-width="0.6" stroke-miterlimit="10"/>
<path d="M139.311 123.486V127.013" stroke="#9DAFCC" stroke-width="0.6" stroke-miterlimit="10"/>
<path d="M142.707 123.486V127.013" stroke="#9DAFCC" stroke-width="0.6" stroke-miterlimit="10"/>
<path d="M135.978 133.301H126.846V142.433H135.978V133.301Z" fill="#365DA0" stroke="white" stroke-width="0.6" stroke-miterlimit="10" stroke-linecap="round"/>
<path d="M131.414 142.587V133.301" stroke="white" stroke-width="0.6" stroke-miterlimit="10"/>
<path d="M126.784 137.944H135.921" stroke="white" stroke-width="0.6" stroke-miterlimit="10"/>
<path d="M186.645 125.814H146.309V151.335H186.645V125.814Z" fill="#E4EBF5" stroke="#9DAFCC" stroke-width="0.6" stroke-miterlimit="10" stroke-linecap="round"/>
<path d="M186.645 145.563H146.309V151.339H186.645V145.563Z" fill="#E4EBF5" stroke="#9DAFCC" stroke-width="0.6" stroke-miterlimit="10" stroke-linecap="round"/>
<path d="M186.645 125.814H180.089V145.559H186.645V125.814Z" fill="#E4EBF5" stroke="#9DAFCC" stroke-width="0.6" stroke-miterlimit="10" stroke-linecap="round"/>
<path d="M186.645 125.814H180.089V132.917H186.645V125.814Z" fill="#E4EBF5" stroke="#9DAFCC" stroke-width="0.6" stroke-miterlimit="10" stroke-linecap="round"/>
<path d="M152.865 125.814H146.309V145.559H152.865V125.814Z" fill="#E4EBF5" stroke="#9DAFCC" stroke-width="0.6" stroke-miterlimit="10" stroke-linecap="round"/>
<path d="M152.865 125.814H146.309V132.917H152.865V125.814Z" fill="#E4EBF5" stroke="#9DAFCC" stroke-width="0.6" stroke-miterlimit="10" stroke-linecap="round"/>
<path d="M166.455 111.202L142.676 122.939L144.095 125.814H188.868L190.279 122.961L166.455 111.202Z" fill="white" stroke="#9DAFCC" stroke-width="0.6" stroke-linecap="round" stroke-linejoin="round"/>
<path d="M166.455 114.764L144.069 125.814H188.846L166.455 114.764Z" fill="white" stroke="#9DAFCC" stroke-width="0.6" stroke-linecap="round" stroke-linejoin="round"/>
<path d="M167.725 107.515H165.225V120.92H167.725V107.515Z" fill="white" stroke="#9DAFCC" stroke-width="0.6" stroke-linecap="round" stroke-linejoin="round"/>
<path d="M209.08 151.335H115.505V189.432H209.08V151.335Z" fill="#F25451" stroke="#9DAFCC" stroke-width="0.6" stroke-miterlimit="10" stroke-linecap="round"/>
<path d="M149.545 151.406H115.505V156.622H149.545V151.406Z" fill="white" stroke="#9DAFCC" stroke-width="0.6" stroke-miterlimit="10" stroke-linecap="round"/>
<path d="M115.505 154.016H149.545" stroke="#9DAFCC" stroke-width="0.6" stroke-miterlimit="10"/>
<path d="M60.9003 126.643H17.8918V156.679H60.9003V126.643Z" fill="#F25451" stroke="#9DAFCC" stroke-width="0.6" stroke-miterlimit="10" stroke-linecap="round"/>
<path d="M55.0933 132.865H23.699V153.302H55.0933V132.865Z" fill="#365DA0" stroke="white" stroke-width="0.6" stroke-miterlimit="10" stroke-linecap="round"/>
<path d="M23.699 132.865V153.302" stroke="white" stroke-width="0.6" stroke-miterlimit="10" stroke-linecap="round"/>
<path d="M27.6233 132.865V153.302" stroke="white" stroke-width="0.6" stroke-miterlimit="10" stroke-linecap="round"/>
<path d="M31.5476 132.865V153.302" stroke="white" stroke-width="0.6" stroke-miterlimit="10" stroke-linecap="round"/>
<path d="M35.4719 132.865V153.302" stroke="white" stroke-width="0.6" stroke-miterlimit="10" stroke-linecap="round"/>
<path d="M39.3962 132.865V153.302" stroke="white" stroke-width="0.6" stroke-miterlimit="10" stroke-linecap="round"/>
<path d="M43.3206 132.865V153.302" stroke="white" stroke-width="0.6" stroke-miterlimit="10" stroke-linecap="round"/>
<path d="M47.2446 132.865V153.302" stroke="white" stroke-width="0.6" stroke-miterlimit="10" stroke-linecap="round"/>
<path d="M51.1692 132.865V153.302" stroke="white" stroke-width="0.6" stroke-miterlimit="10" stroke-linecap="round"/>
<path d="M55.0933 132.865V153.302" stroke="white" stroke-width="0.6" stroke-miterlimit="10" stroke-linecap="round"/>
<path d="M55.0933 132.865H23.699" stroke="white" stroke-width="0.6" stroke-miterlimit="10" stroke-linecap="round"/>
<path d="M55.0933 136.789H23.699" stroke="white" stroke-width="0.6" stroke-miterlimit="10" stroke-linecap="round"/>
<path d="M55.0933 140.713H23.699" stroke="white" stroke-width="0.6" stroke-miterlimit="10" stroke-linecap="round"/>
<path d="M55.0933 144.637H23.699" stroke="white" stroke-width="0.6" stroke-miterlimit="10" stroke-linecap="round"/>
<path d="M55.0933 148.562H23.699" stroke="white" stroke-width="0.6" stroke-miterlimit="10" stroke-linecap="round"/>
<path d="M22.5967 132.865H56.1957" stroke="white" stroke-width="0.6" stroke-linecap="round" stroke-linejoin="round"/>
<path d="M135.1 162.923H125.845V177.077H135.1V162.923Z" fill="#365DA0" stroke="white" stroke-width="0.6" stroke-miterlimit="10" stroke-linecap="round"/>
<path d="M130.475 162.923V177.077" stroke="white" stroke-width="0.6" stroke-miterlimit="10"/>
<path d="M125.845 167.641H135.1" stroke="white" stroke-width="0.6" stroke-miterlimit="10" stroke-linecap="round"/>
<path d="M125.845 172.359H135.1" stroke="white" stroke-width="0.6" stroke-miterlimit="10" stroke-linecap="round"/>
<path d="M125.047 163.897V161.481" stroke="white" stroke-width="0.6" stroke-miterlimit="10" stroke-linecap="round"/>
<path d="M130.475 163.897V161.481" stroke="white" stroke-width="0.6" stroke-miterlimit="10" stroke-linecap="round"/>
<path d="M135.907 163.897V161.481" stroke="white" stroke-width="0.6" stroke-miterlimit="10" stroke-linecap="round"/>
<path d="M125.047 177.862V174.735" stroke="white" stroke-width="0.6" stroke-miterlimit="10"/>
<path d="M135.907 177.862V174.735" stroke="white" stroke-width="0.6" stroke-miterlimit="10"/>
<path d="M205.129 159.113H196.866V176.138H205.129V159.113Z" fill="#365DA0" stroke="white" stroke-width="0.6" stroke-miterlimit="10" stroke-linecap="round"/>
<path d="M200.998 163.69V176.137" stroke="white" stroke-width="0.6" stroke-miterlimit="10"/>
<path d="M196.866 163.69H205.129" stroke="white" stroke-width="0.6" stroke-miterlimit="10" stroke-linecap="round"/>
<path d="M196.866 167.839H205.129" stroke="white" stroke-width="0.6" stroke-miterlimit="10" stroke-linecap="round"/>
<path d="M196.866 171.988H205.129" stroke="white" stroke-width="0.6" stroke-miterlimit="10" stroke-linecap="round"/>
<path d="M196.866 176.137H205.129" stroke="white" stroke-width="0.6" stroke-miterlimit="10" stroke-linecap="round"/>
<path d="M192.986 159.113H184.723V176.138H192.986V159.113Z" fill="#365DA0" stroke="white" stroke-width="0.6" stroke-miterlimit="10" stroke-linecap="round"/>
<path d="M188.854 163.69V176.137" stroke="white" stroke-width="0.6" stroke-miterlimit="10"/>
<path d="M184.723 163.69H192.986" stroke="white" stroke-width="0.6" stroke-miterlimit="10" stroke-linecap="round"/>
<path d="M184.723 167.839H192.986" stroke="white" stroke-width="0.6" stroke-miterlimit="10" stroke-linecap="round"/>
<path d="M184.723 171.988H192.986" stroke="white" stroke-width="0.6" stroke-miterlimit="10" stroke-linecap="round"/>
<path d="M184.723 176.137H192.986" stroke="white" stroke-width="0.6" stroke-miterlimit="10" stroke-linecap="round"/>
<path d="M180.847 159.113H172.584V176.138H180.847V159.113Z" fill="#365DA0" stroke="white" stroke-width="0.6" stroke-miterlimit="10" stroke-linecap="round"/>
<path d="M176.716 163.69V176.137" stroke="white" stroke-width="0.6" stroke-miterlimit="10"/>
<path d="M172.584 163.69H180.843" stroke="white" stroke-width="0.6" stroke-miterlimit="10" stroke-linecap="round"/>
<path d="M172.584 167.839H180.843" stroke="white" stroke-width="0.6" stroke-miterlimit="10" stroke-linecap="round"/>
<path d="M172.584 171.988H180.843" stroke="white" stroke-width="0.6" stroke-miterlimit="10" stroke-linecap="round"/>
<path d="M172.584 176.137H180.843" stroke="white" stroke-width="0.6" stroke-miterlimit="10" stroke-linecap="round"/>
<path d="M209.08 184.846H60.6799V189.432H209.08V184.846Z" fill="#E4EBF5" stroke="#9DAFCC" stroke-width="0.6" stroke-miterlimit="10" stroke-linecap="round"/>
<path d="M60.9003 159.4H17.8918V189.436H60.9003V159.4Z" fill="#F25451" stroke="#9DAFCC" stroke-width="0.6" stroke-miterlimit="10" stroke-linecap="round"/>
<path d="M44.0215 163.708H34.7664V177.861H44.0215V163.708Z" fill="#365DA0" stroke="white" stroke-width="0.6" stroke-miterlimit="10" stroke-linecap="round"/>
<path d="M39.3918 163.708V177.861" stroke="white" stroke-width="0.6" stroke-miterlimit="10"/>
<path d="M34.7664 168.426H44.0215" stroke="white" stroke-width="0.6" stroke-miterlimit="10" stroke-linecap="round"/>
<path d="M34.7664 173.144H44.0215" stroke="white" stroke-width="0.6" stroke-miterlimit="10" stroke-linecap="round"/>
<path d="M33.9639 164.682V162.266" stroke="white" stroke-width="0.6" stroke-miterlimit="10" stroke-linecap="round"/>
<path d="M39.3918 164.682V162.266" stroke="white" stroke-width="0.6" stroke-miterlimit="10" stroke-linecap="round"/>
<path d="M44.8284 164.682V162.266" stroke="white" stroke-width="0.6" stroke-miterlimit="10" stroke-linecap="round"/>
<path d="M33.9639 178.646V175.516" stroke="white" stroke-width="0.6" stroke-miterlimit="10"/>
<path d="M44.8284 178.646V175.516" stroke="white" stroke-width="0.6" stroke-miterlimit="10"/>
<path d="M20.9872 159.4H17.8918V189.436H20.9872V159.4Z" fill="#E4EBF5" stroke="#9DAFCC" stroke-width="0.6" stroke-miterlimit="10" stroke-linecap="round"/>
<path d="M60.9005 159.4H57.8052V189.436H60.9005V159.4Z" fill="#E4EBF5" stroke="#9DAFCC" stroke-width="0.6" stroke-miterlimit="10" stroke-linecap="round"/>
<path d="M20.9873 181.349H57.8051" stroke="#9DAFCC" stroke-width="0.6" stroke-miterlimit="10" stroke-linecap="round"/>
<path d="M39.3741 143.275L13.1343 156.225L14.6996 159.4H64.1016L65.6537 156.247L39.3741 143.275Z" fill="white" stroke="#9DAFCC" stroke-width="0.6" stroke-linecap="round" stroke-linejoin="round"/>
<path d="M39.3741 147.203L14.6731 159.4H64.0751L39.3741 147.203Z" fill="white" stroke="#9DAFCC" stroke-width="0.6" stroke-linecap="round" stroke-linejoin="round"/>
<path d="M40.7719 139.205H38.0161V153.994H40.7719V139.205Z" fill="white" stroke="#9DAFCC" stroke-width="0.6" stroke-linecap="round" stroke-linejoin="round"/>
<path d="M169.608 181.349H209.08" stroke="#9DAFCC" stroke-width="0.6" stroke-miterlimit="10"/>
<path d="M115.505 181.349H146.472" stroke="#9DAFCC" stroke-width="0.6" stroke-miterlimit="10"/>
<path d="M162.266 162.923H153.011V181.349H162.266V162.923Z" fill="#365DA0" stroke="white" stroke-width="0.6" stroke-miterlimit="10" stroke-linecap="round"/>
<path d="M157.636 162.923V181.349" stroke="white" stroke-width="0.6" stroke-miterlimit="10"/>
<path d="M153.011 167.641H162.266" stroke="white" stroke-width="0.6" stroke-miterlimit="10" stroke-linecap="round"/>
<path d="M152.208 163.897V161.481" stroke="white" stroke-width="0.6" stroke-miterlimit="10" stroke-linecap="round"/>
<path d="M157.636 163.897V161.481" stroke="white" stroke-width="0.6" stroke-miterlimit="10" stroke-linecap="round"/>
<path d="M163.073 163.897V161.481" stroke="white" stroke-width="0.6" stroke-miterlimit="10" stroke-linecap="round"/>
<path d="M171.402 184.846H143.884V189.432H171.402V184.846Z" fill="#365DA0" stroke="#9DAFCC" stroke-width="0.6" stroke-miterlimit="10" stroke-linecap="round"/>
<path d="M168.81 181.349H146.472V184.846H168.81V181.349Z" fill="#365DA0" stroke="#9DAFCC" stroke-width="0.6" stroke-miterlimit="10" stroke-linecap="round"/>
<path d="M149.545 154.787H146.472V181.349H149.545V154.787Z" fill="#E4EBF5" stroke="#9DAFCC" stroke-width="0.6" stroke-miterlimit="10" stroke-linecap="round"/>
<path d="M168.81 154.787H165.736V181.349H168.81V154.787Z" fill="#E4EBF5" stroke="#9DAFCC" stroke-width="0.6" stroke-miterlimit="10" stroke-linecap="round"/>
<path d="M174.987 157.063L157.623 148.491L140.264 157.058L141.657 159.678L157.623 151.794L173.594 159.678L174.987 157.063Z" fill="white" stroke="#9DAFCC" stroke-width="0.6" stroke-linecap="round" stroke-linejoin="round"/>
<path d="M149.942 92.387H112.317V95.3103H149.942V92.387Z" fill="white" stroke="#9DAFCC" stroke-width="0.6" stroke-linejoin="round"/>
<path d="M131.132 83.7094L112.317 92.3869H149.942L131.132 83.7094Z" fill="#F25451" stroke="#9DAFCC" stroke-width="0.6" stroke-linecap="round" stroke-linejoin="round"/>
<path d="M259.002 183.475H209.08V189.432H259.002V183.475Z" fill="#365DA0" stroke="#9DAFCC" stroke-width="0.6" stroke-linecap="round" stroke-linejoin="round"/>
<path d="M248.393 167.05H219.693V183.475H248.393V167.05Z" fill="#365DA0" stroke="#9DAFCC" stroke-width="0.6" stroke-linecap="round" stroke-linejoin="round"/>
<path d="M246.334 128.557H221.748V167.05H246.334V128.557Z" fill="#E4EBF5" stroke="#9DAFCC" stroke-width="0.6" stroke-linecap="round" stroke-linejoin="round"/>
<path d="M246.334 162.83H221.748V167.054H246.334V162.83Z" fill="#F25451" stroke="#9DAFCC" stroke-width="0.6" stroke-linecap="round" stroke-linejoin="round"/>
<path d="M246.334 158.483H221.748V162.83H246.334V158.483Z" fill="#365DA0" stroke="#9DAFCC" stroke-width="0.6" stroke-linecap="round" stroke-linejoin="round"/>
<path d="M246.334 128.557H221.748V134.888H246.334V128.557Z" fill="#E4EBF5" stroke="#9DAFCC" stroke-width="0.6" stroke-linecap="round" stroke-linejoin="round"/>
<path d="M242.983 138.583H225.104V150.63H242.983V138.583Z" fill="#E4EBF5" stroke="#9DAFCC" stroke-width="0.6" stroke-miterlimit="10" stroke-linecap="round"/>
<path d="M228.662 138.583H225.104V150.63H228.662V138.583Z" fill="#F25451" stroke="#9DAFCC" stroke-width="0.6" stroke-miterlimit="10" stroke-linecap="round"/>
<path d="M242.983 138.583H239.425V150.63H242.983V138.583Z" fill="#F25451" stroke="#9DAFCC" stroke-width="0.6" stroke-miterlimit="10" stroke-linecap="round"/>
<path d="M241.202 84.8117H226.88V128.557H241.202V84.8117Z" fill="#E4EBF5" stroke="#9DAFCC" stroke-width="0.6" stroke-miterlimit="10" stroke-linecap="round"/>
<path d="M230.439 84.8117H226.88V128.557H230.439V84.8117Z" fill="#F25451" stroke="#9DAFCC" stroke-width="0.6" stroke-miterlimit="10" stroke-linecap="round"/>
<path d="M241.206 84.8117H237.648V128.557H241.206V84.8117Z" fill="#F25451" stroke="#9DAFCC" stroke-width="0.6" stroke-miterlimit="10" stroke-linecap="round"/>
<path d="M246.334 154.633H221.748V158.483H246.334V154.633Z" fill="#E4EBF5" stroke="#9DAFCC" stroke-width="0.6" stroke-linecap="round" stroke-linejoin="round"/>
<path d="M226.669 154.633V158.483" stroke="#365DA0" stroke-width="0.6" stroke-miterlimit="10"/>
<path d="M231.585 154.633V158.483" stroke="#365DA0" stroke-width="0.6" stroke-miterlimit="10"/>
<path d="M236.501 154.633V158.483" stroke="#365DA0" stroke-width="0.6" stroke-miterlimit="10"/>
<path d="M241.418 154.633V158.483" stroke="#365DA0" stroke-width="0.6" stroke-miterlimit="10"/>
<path d="M246.334 154.633H221.748V158.483H246.334V154.633Z" stroke="#9DAFCC" stroke-width="0.6" stroke-linecap="round" stroke-linejoin="round"/>
<path d="M242.97 134.888C242.972 134.853 242.972 134.818 242.97 134.783C242.97 132.613 238.966 130.858 234.028 130.858C229.09 130.858 225.09 132.622 225.09 134.783C225.088 134.818 225.088 134.853 225.09 134.888H242.97Z" fill="#F25451" stroke="#9DAFCC" stroke-width="0.6" stroke-linecap="round" stroke-linejoin="round"/>
<path d="M224.473 98.8907H243.614" stroke="#9DAFCC" stroke-width="0.6" stroke-miterlimit="10"/>
<path d="M224.473 104.323H243.614" stroke="#9DAFCC" stroke-width="0.6" stroke-miterlimit="10"/>
<path d="M224.649 121.775H243.79" stroke="#9DAFCC" stroke-width="0.6" stroke-miterlimit="10"/>
<path d="M244.315 64.0746H223.768V84.6221H244.315V64.0746Z" fill="#E4EBF5" stroke="#9DAFCC" stroke-width="0.6" stroke-miterlimit="10" stroke-linecap="round"/>
<path d="M234.041 80.711C237.555 80.711 240.404 77.8623 240.404 74.3484C240.404 70.8344 237.555 67.9857 234.041 67.9857C230.527 67.9857 227.678 70.8344 227.678 74.3484C227.678 77.8623 230.527 80.711 234.041 80.711Z" fill="white" stroke="#9DAFCC" stroke-width="0.6" stroke-miterlimit="10" stroke-linecap="round"/>
<path d="M232.498 73.2372L234.041 75.1597L236.404 71.791" stroke="#9DAFCC" stroke-width="0.6" stroke-linecap="round" stroke-linejoin="round"/>
<path d="M239.429 58.572H228.662V64.0748H239.429V58.572Z" fill="#365DA0" stroke="#9DAFCC" stroke-width="0.6" stroke-linecap="round" stroke-linejoin="round"/>
<path d="M234.041 51.257L226.395 58.572H241.687L234.041 51.257Z" fill="#E4EBF5" stroke="#9DAFCC" stroke-width="0.6" stroke-linecap="round" stroke-linejoin="round"/>
<path d="M234.041 51.257L231.585 58.572H236.502L234.041 51.257Z" fill="#E4EBF5" stroke="#9DAFCC" stroke-width="0.6" stroke-linecap="round" stroke-linejoin="round"/>
<path d="M248.133 124.809C248.11 125.27 247.911 125.705 247.577 126.023C247.242 126.341 246.798 126.519 246.337 126.519C245.875 126.519 245.431 126.341 245.096 126.023C244.762 125.705 244.563 125.27 244.54 124.809C244.54 123.817 246.334 121.775 246.334 121.775C246.334 121.775 248.133 123.83 248.133 124.809Z" fill="#F25451" stroke="#9DAFCC" stroke-width="0.6" stroke-miterlimit="10" stroke-linecap="round"/>
<path d="M223.547 124.809C223.524 125.27 223.325 125.705 222.99 126.023C222.656 126.341 222.212 126.519 221.75 126.519C221.288 126.519 220.844 126.341 220.51 126.023C220.176 125.705 219.976 125.27 219.953 124.809C219.953 123.817 221.748 121.775 221.748 121.775C221.748 121.775 223.547 123.83 223.547 124.809Z" fill="#F25451" stroke="#9DAFCC" stroke-width="0.6" stroke-miterlimit="10" stroke-linecap="round"/>
<path d="M234.041 51.2568V45.8818" stroke="#9DAFCC" stroke-width="0.6" stroke-miterlimit="10" stroke-linecap="round"/>
<path d="M234.041 138.583V150.63" stroke="#9DAFCC" stroke-width="0.6" stroke-miterlimit="10"/>
<path d="M240.064 144.607H228.022" stroke="#9DAFCC" stroke-width="0.6" stroke-miterlimit="10"/>
<path d="M234.041 146.965C235.344 146.965 236.4 145.909 236.4 144.607C236.4 143.304 235.344 142.248 234.041 142.248C232.738 142.248 231.682 143.304 231.682 144.607C231.682 145.909 232.738 146.965 234.041 146.965Z" fill="#F25451" stroke="#9DAFCC" stroke-width="0.6" stroke-miterlimit="10" stroke-linecap="round"/>
<path d="M232.264 58.572V64.0748" stroke="#9DAFCC" stroke-width="0.6" stroke-miterlimit="10" stroke-linecap="round"/>
<path d="M235.823 58.6335V64.1364" stroke="#9DAFCC" stroke-width="0.6" stroke-miterlimit="10" stroke-linecap="round"/>
</g>
</g>
<defs>
<filter id="filter0_dd_202_997" x="-9.91117" y="-11.9112" width="296.822" height="263.822" filterUnits="userSpaceOnUse" color-interpolation-filters="sRGB">
<feFlood flood-opacity="0" result="BackgroundImageFix"/>
<feColorMatrix in="SourceAlpha" type="matrix" values="0 0 0 0 0 0 0 0 0 0 0 0 0 0 0 0 0 0 127 0" result="hardAlpha"/>
<feOffset/>
<feGaussianBlur stdDeviation="5.95559"/>
<feComposite in2="hardAlpha" operator="out"/>
<feColorMatrix type="matrix" values="0 0 0 0 0.568627 0 0 0 0 0.741176 0 0 0 0 0.866667 0 0 0 1 0"/>
<feBlend mode="normal" in2="BackgroundImageFix" result="effect1_dropShadow_202_997"/>
<feColorMatrix in="SourceAlpha" type="matrix" values="0 0 0 0 0 0 0 0 0 0 0 0 0 0 0 0 0 0 127 0" result="hardAlpha"/>
<feOffset dy="2.38223"/>
<feGaussianBlur stdDeviation="2.97779"/>
<feComposite in2="hardAlpha" operator="out"/>
<feColorMatrix type="matrix" values="0 0 0 0 0 0 0 0 0 0 0 0 0 0 0 0 0 0 0.1 0"/>
<feBlend mode="normal" in2="effect1_dropShadow_202_997" result="effect2_dropShadow_202_997"/>
<feBlend mode="normal" in="SourceGraphic" in2="effect2_dropShadow_202_997" result="shape"/>
</filter>
<filter id="filter1_dd_202_997" x="0.923057" y="33.6707" width="270.29" height="167.976" filterUnits="userSpaceOnUse" color-interpolation-filters="sRGB">
<feFlood flood-opacity="0" result="BackgroundImageFix"/>
<feColorMatrix in="SourceAlpha" type="matrix" values="0 0 0 0 0 0 0 0 0 0 0 0 0 0 0 0 0 0 127 0" result="hardAlpha"/>
<feOffset/>
<feGaussianBlur stdDeviation="5.95559"/>
<feComposite in2="hardAlpha" operator="out"/>
<feColorMatrix type="matrix" values="0 0 0 0 0.568627 0 0 0 0 0.741176 0 0 0 0 0.866667 0 0 0 1 0"/>
<feBlend mode="normal" in2="BackgroundImageFix" result="effect1_dropShadow_202_997"/>
<feColorMatrix in="SourceAlpha" type="matrix" values="0 0 0 0 0 0 0 0 0 0 0 0 0 0 0 0 0 0 127 0" result="hardAlpha"/>
<feOffset dy="2.38223"/>
<feGaussianBlur stdDeviation="2.97779"/>
<feComposite in2="hardAlpha" operator="out"/>
<feColorMatrix type="matrix" values="0 0 0 0 0 0 0 0 0 0 0 0 0 0 0 0 0 0 0.1 0"/>
<feBlend mode="normal" in2="effect1_dropShadow_202_997" result="effect2_dropShadow_202_997"/>
<feBlend mode="normal" in="SourceGraphic" in2="effect2_dropShadow_202_997" result="shape"/>
</filter>
</defs>
</svg>
