<svg width="273" height="240" viewBox="0 0 273 240" fill="none" xmlns="http://www.w3.org/2000/svg">
<g filter="url(#filter0_dd_202_4464)">
<g filter="url(#filter1_dd_202_4464)">
<path d="M148.857 101.316H116.128V121.444H148.857V101.316Z" fill="#E4EBF5" stroke="#9DAFCC" stroke-width="0.6" stroke-linejoin="round"/>
<path d="M150.373 96.9053H114.607V101.316H150.373V96.9053Z" fill="white" stroke="#9DAFCC" stroke-width="0.6" stroke-linejoin="round"/>
<path d="M150.373 121.444H114.607V126.818H150.373V121.444Z" fill="#E4EBF5" stroke="#9DAFCC" stroke-width="0.6" stroke-linejoin="round"/>
<path d="M150.373 93.0219H114.607V96.9097H150.373V93.0219Z" fill="#F25451" stroke="#9DAFCC" stroke-width="0.6" stroke-linejoin="round"/>
<path d="M137.485 89.1252H127.5V93.0174H137.485V89.1252Z" fill="#F25451" stroke="#9DAFCC" stroke-width="0.6" stroke-linejoin="round"/>
<path d="M132.49 105.98C131.9 105.98 131.333 106.214 130.915 106.632C130.497 107.05 130.263 107.616 130.263 108.207V117.962H134.717V108.207C134.717 107.616 134.483 107.05 134.065 106.632C133.647 106.214 133.081 105.98 132.49 105.98Z" fill="#365DA0" stroke="#9DAFCC" stroke-width="0.6" stroke-miterlimit="10" stroke-linecap="round"/>
<path d="M146.625 105.98C146.034 105.98 145.468 106.214 145.05 106.632C144.633 107.05 144.398 107.616 144.398 108.207V117.962H148.852V108.207C148.852 107.616 148.618 107.05 148.2 106.632C147.782 106.214 147.216 105.98 146.625 105.98Z" fill="#365DA0" stroke="#9DAFCC" stroke-width="0.6" stroke-miterlimit="10" stroke-linecap="round"/>
<path d="M118.355 105.98C117.765 105.98 117.198 106.214 116.781 106.632C116.363 107.05 116.128 107.616 116.128 108.207V117.962H120.583V108.207C120.583 107.616 120.348 107.05 119.93 106.632C119.513 106.214 118.946 105.98 118.355 105.98Z" fill="#365DA0" stroke="#9DAFCC" stroke-width="0.6" stroke-miterlimit="10" stroke-linecap="round"/>
<path d="M164.347 135.378H102.503V149.456H164.347V135.378Z" fill="white" stroke="#9DAFCC" stroke-width="0.6" stroke-linejoin="round"/>
<path d="M132.433 136.067C144.96 136.067 157.896 135.33 159.679 141.001H241.62L195.375 126.818H69.605L23.3694 141.001H104.508C111.656 135.984 119.907 136.067 132.433 136.067Z" fill="#F25451" stroke="#9DAFCC" stroke-width="0.6" stroke-linejoin="round"/>
<path d="M123.424 142.195L118.504 142.788V180.977H123.424V142.195Z" fill="white" stroke="#9DAFCC" stroke-width="0.6" stroke-linejoin="round"/>
<path d="M110.737 144.64L118.504 142.788V180.977H110.737V144.64Z" fill="#E4EBF5" stroke="#9DAFCC" stroke-width="0.6" stroke-linejoin="round"/>
<path d="M110.737 144.64L107.659 145.407V180.977H110.737V144.64Z" fill="white" stroke="#9DAFCC" stroke-width="0.6" stroke-linejoin="round"/>
<path d="M141.56 142.195H123.424V180.977H141.56V142.195Z" fill="#E4EBF5" stroke="#9DAFCC" stroke-width="0.6" stroke-linejoin="round"/>
<path d="M135.737 146.209H129.239V152.708H135.737V146.209Z" fill="#365DA0" stroke="#9DAFCC" stroke-width="0.6" stroke-linejoin="round"/>
<path d="M116.115 153.458L113.099 154.181V147.683L116.115 146.959V153.458Z" fill="#365DA0" stroke="#9DAFCC" stroke-width="0.6" stroke-linejoin="round"/>
<path d="M132.49 162.807C130.385 162.807 128.677 163.648 128.677 164.685V180.977H136.3V164.694C136.3 163.648 134.595 162.807 132.49 162.807Z" fill="#F25451" stroke="#9DAFCC" stroke-width="0.6" stroke-linejoin="round"/>
<path d="M141.56 156.016H123.424V160.087H141.56V156.016Z" fill="white" stroke="#9DAFCC" stroke-width="0.6" stroke-linejoin="round"/>
<path d="M114.633 163.386C113.805 163.386 113.138 164.223 113.138 165.26V180.951H116.128V165.26C116.128 164.232 115.457 163.386 114.633 163.386Z" fill="#F25451" stroke="#9DAFCC" stroke-width="0.6" stroke-linejoin="round"/>
<path d="M118.504 160.087L110.71 161.56V157.489L118.504 156.016V160.087Z" fill="white" stroke="#9DAFCC" stroke-width="0.6" stroke-linejoin="round"/>
<path d="M141.556 142.195L146.477 142.788V180.977H141.556V142.195Z" fill="white" stroke="#9DAFCC" stroke-width="0.6" stroke-linejoin="round"/>
<path d="M154.243 144.64L146.477 142.788V180.977H154.243V144.64Z" fill="#E4EBF5" stroke="#9DAFCC" stroke-width="0.6" stroke-linejoin="round"/>
<path d="M154.244 144.64L157.321 145.407V180.977H154.244V144.64Z" fill="white" stroke="#9DAFCC" stroke-width="0.6" stroke-linejoin="round"/>
<path d="M148.865 153.458L151.881 154.181V147.683L148.865 146.959V153.458Z" fill="#365DA0" stroke="#9DAFCC" stroke-width="0.6" stroke-linejoin="round"/>
<path d="M150.347 163.386C151.175 163.386 151.842 164.223 151.842 165.26V180.951H148.852V165.26C148.852 164.232 149.524 163.386 150.347 163.386Z" fill="#F25451" stroke="#9DAFCC" stroke-width="0.6" stroke-linejoin="round"/>
<path d="M146.477 160.087L154.27 161.56V157.489L146.477 156.016V160.087Z" fill="white" stroke="#9DAFCC" stroke-width="0.6" stroke-linejoin="round"/>
<path d="M107.659 145.411H52.8113V180.977H107.659V145.411Z" fill="#E4EBF5" stroke="#9DAFCC" stroke-width="0.6" stroke-linejoin="round"/>
<path d="M107.659 158.051H52.8113V162.122H107.659V158.051Z" fill="white" stroke="#9DAFCC" stroke-width="0.6" stroke-linejoin="round"/>
<path d="M101.531 165.448H96.9155V176.109H101.531V165.448Z" fill="#365DA0" stroke="#9DAFCC" stroke-width="0.6" stroke-linejoin="round"/>
<path d="M101.531 148.389H96.9155V154.722H101.531V148.389Z" fill="#365DA0" stroke="#9DAFCC" stroke-width="0.6" stroke-linejoin="round"/>
<path d="M88.8699 165.448H84.2542V176.109H88.8699V165.448Z" fill="#365DA0" stroke="#9DAFCC" stroke-width="0.6" stroke-linejoin="round"/>
<path d="M88.8699 148.389H84.2542V154.722H88.8699V148.389Z" fill="#365DA0" stroke="#9DAFCC" stroke-width="0.6" stroke-linejoin="round"/>
<path d="M76.2126 165.448H71.5969V176.109H76.2126V165.448Z" fill="#365DA0" stroke="#9DAFCC" stroke-width="0.6" stroke-linejoin="round"/>
<path d="M76.2126 148.389H71.5969V154.722H76.2126V148.389Z" fill="#365DA0" stroke="#9DAFCC" stroke-width="0.6" stroke-linejoin="round"/>
<path d="M63.5554 165.448H58.9397V176.109H63.5554V165.448Z" fill="#365DA0" stroke="#9DAFCC" stroke-width="0.6" stroke-linejoin="round"/>
<path d="M63.5554 148.389H58.9397V154.722H63.5554V148.389Z" fill="#365DA0" stroke="#9DAFCC" stroke-width="0.6" stroke-linejoin="round"/>
<path d="M26.5903 180.973H52.8114V145.407H26.5903V180.973Z" fill="#E4EBF5" stroke="#9DAFCC" stroke-width="0.6" stroke-linejoin="round"/>
<path d="M31.4153 160.85H47.9865V156.012H31.4153V160.85Z" fill="white" stroke="#9DAFCC" stroke-width="0.6" stroke-linejoin="round"/>
<path d="M33.1194 180.973H36.7762V160.85H33.1194V180.973Z" fill="white" stroke="#9DAFCC" stroke-width="0.6" stroke-linejoin="round"/>
<path d="M42.6255 180.973H46.2823V160.85H42.6255V180.973Z" fill="white" stroke="#9DAFCC" stroke-width="0.6" stroke-linejoin="round"/>
<path d="M42.0503 148.389H37.3474V156.012H42.0503V148.389Z" fill="#365DA0" stroke="#9DAFCC" stroke-width="0.6" stroke-linejoin="round"/>
<path d="M47.9866 156.016V160.854" stroke="#9DAFCC" stroke-width="0.6" stroke-linejoin="round"/>
<path d="M44.6697 156.016V160.854" stroke="#9DAFCC" stroke-width="0.6" stroke-linejoin="round"/>
<path d="M41.3572 156.016V160.854" stroke="#9DAFCC" stroke-width="0.6" stroke-linejoin="round"/>
<path d="M38.0449 156.016V160.854" stroke="#9DAFCC" stroke-width="0.6" stroke-linejoin="round"/>
<path d="M34.7278 156.016V160.854" stroke="#9DAFCC" stroke-width="0.6" stroke-linejoin="round"/>
<path d="M31.4153 156.016V160.854" stroke="#9DAFCC" stroke-width="0.6" stroke-linejoin="round"/>
<path d="M105.301 141.001H55.082V145.412H105.301V141.001Z" fill="white" stroke="#9DAFCC" stroke-width="0.6" stroke-linejoin="round"/>
<path d="M23.3696 145.407H55.8103V140.996H23.3696V145.407Z" fill="white" stroke="#9DAFCC" stroke-width="0.6" stroke-linejoin="round"/>
<path d="M157.321 180.973H212.169V145.407H157.321V180.973Z" fill="#E4EBF5" stroke="#9DAFCC" stroke-width="0.6" stroke-linejoin="round"/>
<path d="M157.321 162.118H212.169V158.047H157.321V162.118Z" fill="white" stroke="#9DAFCC" stroke-width="0.6" stroke-linejoin="round"/>
<path d="M163.453 176.113H168.069V165.452H163.453V176.113Z" fill="#365DA0" stroke="#9DAFCC" stroke-width="0.6" stroke-linejoin="round"/>
<path d="M163.453 154.722H168.069V148.389H163.453V154.722Z" fill="#365DA0" stroke="#9DAFCC" stroke-width="0.6" stroke-linejoin="round"/>
<path d="M176.111 176.113H180.726V165.452H176.111V176.113Z" fill="#365DA0" stroke="#9DAFCC" stroke-width="0.6" stroke-linejoin="round"/>
<path d="M176.111 154.722H180.726V148.389H176.111V154.722Z" fill="#365DA0" stroke="#9DAFCC" stroke-width="0.6" stroke-linejoin="round"/>
<path d="M188.763 176.113H193.379V165.452H188.763V176.113Z" fill="#365DA0" stroke="#9DAFCC" stroke-width="0.6" stroke-linejoin="round"/>
<path d="M188.763 154.722H193.379V148.389H188.763V154.722Z" fill="#365DA0" stroke="#9DAFCC" stroke-width="0.6" stroke-linejoin="round"/>
<path d="M201.425 176.113H206.041V165.452H201.425V176.113Z" fill="#365DA0" stroke="#9DAFCC" stroke-width="0.6" stroke-linejoin="round"/>
<path d="M201.425 154.722H206.041V148.389H201.425V154.722Z" fill="#365DA0" stroke="#9DAFCC" stroke-width="0.6" stroke-linejoin="round"/>
<path d="M238.39 145.411H212.169V180.977H238.39V145.411Z" fill="#E4EBF5" stroke="#9DAFCC" stroke-width="0.6" stroke-linejoin="round"/>
<path d="M233.565 156.016H216.994V160.854H233.565V156.016Z" fill="white" stroke="#9DAFCC" stroke-width="0.6" stroke-linejoin="round"/>
<path d="M231.861 160.854H228.204V180.977H231.861V160.854Z" fill="white" stroke="#9DAFCC" stroke-width="0.6" stroke-linejoin="round"/>
<path d="M222.355 160.854H218.698V180.977H222.355V160.854Z" fill="white" stroke="#9DAFCC" stroke-width="0.6" stroke-linejoin="round"/>
<path d="M222.926 156.016H227.629V148.393H222.926V156.016Z" fill="#365DA0" stroke="#9DAFCC" stroke-width="0.6" stroke-linejoin="round"/>
<path d="M216.994 156.016V160.854" stroke="#9DAFCC" stroke-width="0.6" stroke-linejoin="round"/>
<path d="M220.306 156.016V160.854" stroke="#9DAFCC" stroke-width="0.6" stroke-linejoin="round"/>
<path d="M223.623 156.016V160.854" stroke="#9DAFCC" stroke-width="0.6" stroke-linejoin="round"/>
<path d="M226.936 156.016V160.854" stroke="#9DAFCC" stroke-width="0.6" stroke-linejoin="round"/>
<path d="M230.252 156.016V160.854" stroke="#9DAFCC" stroke-width="0.6" stroke-linejoin="round"/>
<path d="M233.565 156.016V160.854" stroke="#9DAFCC" stroke-width="0.6" stroke-linejoin="round"/>
<path d="M159.675 145.407H209.894V140.996H159.675V145.407Z" fill="white" stroke="#9DAFCC" stroke-width="0.6" stroke-linejoin="round"/>
<path d="M241.615 141.001H209.174V145.412H241.615V141.001Z" fill="white" stroke="#9DAFCC" stroke-width="0.6" stroke-linejoin="round"/>
<path d="M132.49 125.65C127.132 125.631 121.78 126.022 116.481 126.818L105.302 140.286C111.573 137.884 121.428 136.337 132.49 136.337C143.552 136.337 153.411 137.884 159.679 140.286L148.499 126.818C143.2 126.022 137.849 125.631 132.49 125.65Z" fill="#F25451" stroke="#9DAFCC" stroke-width="0.6" stroke-linejoin="round"/>
<path d="M80.2355 130.388C79.5542 130.386 78.8795 130.518 78.2501 130.778C77.6203 131.038 77.0481 131.419 76.5656 131.9C76.0835 132.38 75.7008 132.952 75.4398 133.581C75.1787 134.21 75.0444 134.884 75.0444 135.566H85.396C85.3973 134.195 84.8542 132.88 83.8871 131.909C82.9195 130.938 81.6062 130.391 80.2355 130.388Z" fill="#365DA0" stroke="#9DAFCC" stroke-width="0.6" stroke-linejoin="round"/>
<path d="M184.745 130.388C184.065 130.388 183.392 130.521 182.764 130.782C182.136 131.042 181.566 131.424 181.085 131.904C180.605 132.385 180.224 132.956 179.964 133.584C179.704 134.213 179.571 134.886 179.571 135.566H189.918C189.919 134.886 189.786 134.213 189.526 133.584C189.266 132.956 188.885 132.385 188.405 131.904C187.924 131.424 187.354 131.042 186.726 130.782C186.098 130.521 185.425 130.388 184.745 130.388Z" fill="#365DA0" stroke="#9DAFCC" stroke-width="0.6" stroke-linejoin="round"/>
<path d="M42.6253 170.778H36.7761V180.973H42.6253V170.778Z" fill="#F25451" stroke="#9DAFCC" stroke-width="0.6" stroke-linejoin="round"/>
<path d="M228.204 170.778H222.355V180.973H228.204V170.778Z" fill="#F25451" stroke="#9DAFCC" stroke-width="0.6" stroke-linejoin="round"/>
<path d="M123.459 101.312V121.44H126.532V101.312H123.459Z" fill="white" stroke="#9DAFCC" stroke-width="0.6" stroke-linejoin="round"/>
<path d="M138.444 101.316V121.444H141.517V101.316H138.444Z" fill="white" stroke="#9DAFCC" stroke-width="0.6" stroke-linejoin="round"/>
<path d="M132.49 89.1253V52.7531" stroke="#9DAFCC" stroke-width="0.6" stroke-linecap="round" stroke-linejoin="round"/>
<path d="M247.207 180.977H17.7776V186.953H247.207V180.977Z" fill="#365DA0" stroke="#9DAFCC" stroke-width="0.6" stroke-linecap="round" stroke-linejoin="round"/>
<path d="M254.155 121.03H186.466V132.319H254.155V121.03Z" fill="#F25451" stroke="#9DAFCC" stroke-width="0.6" stroke-linecap="round" stroke-linejoin="round"/>
<path d="M210.081 81.6853H230.545C233.378 79.8242 235.152 77.2047 235.152 74.2757C235.152 66.3693 226.787 65.3364 220.332 56.6323C213.856 65.3494 205.492 66.3693 205.492 74.2757C205.474 77.2047 207.248 79.8242 210.081 81.6853Z" fill="#F25451" stroke="#9DAFCC" stroke-width="0.6" stroke-linecap="round" stroke-linejoin="round"/>
<path d="M231.185 85.8259H209.445V121.03H231.185V85.8259Z" fill="white" stroke="#9DAFCC" stroke-width="0.6" stroke-linejoin="round"/>
<path d="M222.533 100.963V94.1811C222.508 93.6093 222.263 93.0688 221.849 92.6731C221.435 92.2773 220.885 92.0568 220.313 92.0568C219.74 92.0568 219.19 92.2773 218.776 92.6731C218.362 93.0688 218.117 93.6093 218.092 94.1811V100.963H222.533Z" fill="#365DA0" stroke="#9DAFCC" stroke-width="0.6" stroke-linecap="round" stroke-linejoin="round"/>
<path d="M231.181 100.963V94.1811C231.156 93.6093 230.911 93.0688 230.497 92.6731C230.083 92.2773 229.533 92.0568 228.96 92.0568C228.388 92.0568 227.837 92.2773 227.424 92.6731C227.01 93.0688 226.765 93.6093 226.74 94.1811V100.963H231.181Z" fill="#365DA0" stroke="#9DAFCC" stroke-width="0.6" stroke-linecap="round" stroke-linejoin="round"/>
<path d="M213.886 100.963V94.1811C213.861 93.6093 213.616 93.0688 213.202 92.6731C212.788 92.2773 212.238 92.0568 211.666 92.0568C211.093 92.0568 210.542 92.2773 210.129 92.6731C209.715 93.0688 209.47 93.6093 209.445 94.1811V100.963H213.886Z" fill="#365DA0" stroke="#9DAFCC" stroke-width="0.6" stroke-linecap="round" stroke-linejoin="round"/>
<path d="M213.067 85.8259V89.3651" stroke="#9DAFCC" stroke-width="0.6" stroke-linejoin="round"/>
<path d="M216.689 85.8259V89.3651" stroke="#9DAFCC" stroke-width="0.6" stroke-linejoin="round"/>
<path d="M220.315 85.8259V89.3651" stroke="#9DAFCC" stroke-width="0.6" stroke-linejoin="round"/>
<path d="M223.937 85.8259V89.3651" stroke="#9DAFCC" stroke-width="0.6" stroke-linejoin="round"/>
<path d="M227.559 85.8259V89.3651" stroke="#9DAFCC" stroke-width="0.6" stroke-linejoin="round"/>
<path d="M220.315 104.289C217.521 108.146 213.633 107.776 213.446 113.241V121.03H227.184V113.263C226.992 107.797 223.104 108.146 220.315 104.289Z" fill="white" stroke="#9DAFCC" stroke-width="0.6" stroke-linejoin="round"/>
<path d="M223.183 121.03V113.699C223.183 112.938 222.881 112.209 222.343 111.671C221.805 111.133 221.076 110.831 220.315 110.831C219.554 110.831 218.825 111.133 218.287 111.671C217.749 112.209 217.447 112.938 217.447 113.699V121.034L223.183 121.03Z" fill="#365DA0" stroke="#9DAFCC" stroke-width="0.6" stroke-linecap="round" stroke-linejoin="round"/>
<path d="M206.577 104.289C203.783 108.146 199.895 107.776 199.708 113.241V121.03H213.446V113.263C213.254 107.797 209.371 108.146 206.577 104.289Z" fill="white" stroke="#9DAFCC" stroke-width="0.6" stroke-linejoin="round"/>
<path d="M209.445 121.03V113.699C209.445 112.938 209.143 112.209 208.605 111.671C208.067 111.133 207.337 110.831 206.577 110.831C205.816 110.831 205.086 111.133 204.549 111.671C204.011 112.209 203.709 112.938 203.709 113.699V121.034L209.445 121.03Z" fill="#365DA0" stroke="#9DAFCC" stroke-width="0.6" stroke-linecap="round" stroke-linejoin="round"/>
<path d="M234.049 104.289C231.259 108.146 227.371 107.776 227.184 113.241V121.03H240.918V113.263C240.73 107.797 236.843 108.146 234.049 104.289Z" fill="white" stroke="#9DAFCC" stroke-width="0.6" stroke-linejoin="round"/>
<path d="M236.921 121.03V113.699C236.921 113.322 236.847 112.949 236.703 112.601C236.558 112.253 236.347 111.937 236.081 111.671C235.815 111.404 235.498 111.193 235.15 111.049C234.803 110.905 234.43 110.831 234.053 110.831C233.676 110.831 233.303 110.905 232.956 111.049C232.608 111.193 232.291 111.404 232.025 111.671C231.759 111.937 231.548 112.253 231.403 112.601C231.259 112.949 231.185 113.322 231.185 113.699V121.034L236.921 121.03Z" fill="#365DA0" stroke="#9DAFCC" stroke-width="0.6" stroke-linecap="round" stroke-linejoin="round"/>
<path d="M256.129 186.953H184.501V194.371H256.129V186.953Z" fill="#E4EBF5" stroke="#9DAFCC" stroke-width="0.6" stroke-linejoin="round"/>
<path d="M220.311 116.819C214.915 124.277 207.401 123.601 207.034 134.123V186.805H233.591V134.123C233.225 123.601 225.711 124.277 220.311 116.819Z" fill="white" stroke="#9DAFCC" stroke-width="0.6" stroke-linejoin="round"/>
<path d="M243.882 119.561C239.698 125.345 233.857 124.817 233.591 132.977V186.805H254.181V132.977C253.893 124.817 248.079 125.345 243.882 119.561Z" fill="white" stroke="#9DAFCC" stroke-width="0.6" stroke-linejoin="round"/>
<path d="M246.737 168.49H241.031V174.195H246.737V168.49Z" fill="white" stroke="#9DAFCC" stroke-width="0.6" stroke-linejoin="round"/>
<path d="M243.882 148.798V152.25" stroke="#9DAFCC" stroke-width="0.6" stroke-linecap="round" stroke-linejoin="round"/>
<path d="M238.32 141.415V144.867" stroke="#9DAFCC" stroke-width="0.6" stroke-linecap="round" stroke-linejoin="round"/>
<path d="M241.101 141.415V144.867" stroke="#9DAFCC" stroke-width="0.6" stroke-linecap="round" stroke-linejoin="round"/>
<path d="M243.882 141.415V144.867" stroke="#9DAFCC" stroke-width="0.6" stroke-linecap="round" stroke-linejoin="round"/>
<path d="M246.667 141.415V144.867" stroke="#9DAFCC" stroke-width="0.6" stroke-linecap="round" stroke-linejoin="round"/>
<path d="M249.448 141.415V144.867" stroke="#9DAFCC" stroke-width="0.6" stroke-linecap="round" stroke-linejoin="round"/>
<path d="M235.544 132.977H231.643V186.805H235.544V132.977Z" fill="white" stroke="#9DAFCC" stroke-width="0.6" stroke-linejoin="round"/>
<path d="M231.643 136.729H235.539" stroke="#9DAFCC" stroke-width="0.6" stroke-linecap="round" stroke-linejoin="round"/>
<path d="M256.129 132.977H252.228V194.371H256.129V132.977Z" fill="white" stroke="#9DAFCC" stroke-width="0.6" stroke-linejoin="round"/>
<path d="M252.228 136.729H256.129" stroke="#9DAFCC" stroke-width="0.6" stroke-linecap="round" stroke-linejoin="round"/>
<path d="M196.744 119.561C200.928 125.345 206.769 124.817 207.039 132.977V186.805H186.449V132.977C186.737 124.817 192.56 125.345 196.744 119.561Z" fill="white" stroke="#9DAFCC" stroke-width="0.6" stroke-linejoin="round"/>
<path d="M193.893 174.2H199.599V168.495H193.893V174.2Z" fill="white" stroke="#9DAFCC" stroke-width="0.6" stroke-linejoin="round"/>
<path d="M196.744 148.798V152.25" stroke="#9DAFCC" stroke-width="0.6" stroke-linecap="round" stroke-linejoin="round"/>
<path d="M202.305 141.415V144.867" stroke="#9DAFCC" stroke-width="0.6" stroke-linecap="round" stroke-linejoin="round"/>
<path d="M199.525 141.415V144.867" stroke="#9DAFCC" stroke-width="0.6" stroke-linecap="round" stroke-linejoin="round"/>
<path d="M196.744 141.415V144.867" stroke="#9DAFCC" stroke-width="0.6" stroke-linecap="round" stroke-linejoin="round"/>
<path d="M193.963 141.415V144.867" stroke="#9DAFCC" stroke-width="0.6" stroke-linecap="round" stroke-linejoin="round"/>
<path d="M191.182 141.415V144.867" stroke="#9DAFCC" stroke-width="0.6" stroke-linecap="round" stroke-linejoin="round"/>
<path d="M205.086 186.805H208.987V132.977H205.086V186.805Z" fill="white" stroke="#9DAFCC" stroke-width="0.6" stroke-linejoin="round"/>
<path d="M208.987 136.729H205.086" stroke="#9DAFCC" stroke-width="0.6" stroke-linecap="round" stroke-linejoin="round"/>
<path d="M184.496 194.371H188.397V132.977H184.496V194.371Z" fill="white" stroke="#9DAFCC" stroke-width="0.6" stroke-linejoin="round"/>
<path d="M188.397 136.729H184.501" stroke="#9DAFCC" stroke-width="0.6" stroke-linecap="round" stroke-linejoin="round"/>
<path d="M220.315 169.327C219.242 169.327 218.213 169.753 217.455 170.512C216.697 171.27 216.27 172.299 216.27 173.372V186.805H224.355V173.372C224.355 172.3 223.93 171.271 223.172 170.513C222.415 169.755 221.387 169.328 220.315 169.327Z" fill="#365DA0" stroke="#9DAFCC" stroke-width="0.6" stroke-linecap="round" stroke-linejoin="round"/>
<path d="M220.315 161.155C217.098 165.596 212.626 165.191 212.408 171.454V186.805H228.217V171.454C227.999 165.191 223.527 165.596 220.315 161.155Z" stroke="#9DAFCC" stroke-width="0.6" stroke-linejoin="round"/>
<path d="M224.36 148.798H216.27V152.25H224.36V148.798Z" fill="white" stroke="#9DAFCC" stroke-width="0.6" stroke-linecap="round" stroke-linejoin="round"/>
<path d="M211.969 141.415V144.867" stroke="#9DAFCC" stroke-width="0.6" stroke-linecap="round" stroke-linejoin="round"/>
<path d="M214.749 141.415V144.867" stroke="#9DAFCC" stroke-width="0.6" stroke-linecap="round" stroke-linejoin="round"/>
<path d="M217.53 141.415V144.867" stroke="#9DAFCC" stroke-width="0.6" stroke-linecap="round" stroke-linejoin="round"/>
<path d="M220.315 141.415V144.867" stroke="#9DAFCC" stroke-width="0.6" stroke-linecap="round" stroke-linejoin="round"/>
<path d="M223.096 141.415V144.867" stroke="#9DAFCC" stroke-width="0.6" stroke-linecap="round" stroke-linejoin="round"/>
<path d="M220.315 141.415V144.867" stroke="#9DAFCC" stroke-width="0.6" stroke-linecap="round" stroke-linejoin="round"/>
<path d="M223.096 141.415V144.867" stroke="#9DAFCC" stroke-width="0.6" stroke-linecap="round" stroke-linejoin="round"/>
<path d="M225.876 141.415V144.867" stroke="#9DAFCC" stroke-width="0.6" stroke-linecap="round" stroke-linejoin="round"/>
<path d="M228.657 141.415V144.867" stroke="#9DAFCC" stroke-width="0.6" stroke-linecap="round" stroke-linejoin="round"/>
<path d="M220.315 138.364C224.049 138.364 227.075 135.337 227.075 131.604C227.075 127.87 224.049 124.844 220.315 124.844C216.582 124.844 213.555 127.87 213.555 131.604C213.555 135.337 216.582 138.364 220.315 138.364Z" fill="white" stroke="#9DAFCC" stroke-width="0.6" stroke-linecap="round" stroke-linejoin="round"/>
<path d="M220.315 134.733C222.044 134.733 223.444 133.332 223.444 131.604C223.444 129.876 222.044 128.474 220.315 128.474C218.587 128.474 217.186 129.876 217.186 131.604C217.186 133.332 218.587 134.733 220.315 134.733Z" fill="white" stroke="#9DAFCC" stroke-width="0.6" stroke-linecap="round" stroke-linejoin="round"/>
<path d="M237.592 186.805H203.029V190.588H237.592V186.805Z" fill="white" stroke="#9DAFCC" stroke-width="0.6" stroke-linejoin="round"/>
<path d="M241.519 190.588H199.111V194.371H241.519V190.588Z" fill="white" stroke="#9DAFCC" stroke-width="0.6" stroke-linejoin="round"/>
<path d="M232.942 81.6851H207.688V85.8259H232.942V81.6851Z" fill="#F25451" stroke="#9DAFCC" stroke-width="0.6" stroke-linecap="round" stroke-linejoin="round"/>
<path d="M205.531 73.4386H235.095C234.846 70.453 233.317 68.4786 231.15 66.5957H209.48C207.309 68.4786 205.801 70.453 205.531 73.4386Z" fill="#F25451" stroke="#9DAFCC" stroke-width="0.6" stroke-linecap="round" stroke-linejoin="round"/>
<path d="M220.394 56.6497V40" stroke="#9DAFCC" stroke-width="0.6" stroke-linejoin="round"/>
<path d="M216.833 44.8293H223.793" stroke="#9DAFCC" stroke-width="0.6" stroke-linejoin="round"/>
<path d="M218.733 42.1312H222.05" stroke="#9DAFCC" stroke-width="0.6" stroke-linejoin="round"/>
<path d="M218.41 48.3859L222.315 50.5085" stroke="#9DAFCC" stroke-width="0.6" stroke-linejoin="round"/>
</g>
</g>
<defs>
<filter id="filter0_dd_202_4464" x="-11.9112" y="-11.9112" width="296.822" height="263.822" filterUnits="userSpaceOnUse" color-interpolation-filters="sRGB">
<feFlood flood-opacity="0" result="BackgroundImageFix"/>
<feColorMatrix in="SourceAlpha" type="matrix" values="0 0 0 0 0 0 0 0 0 0 0 0 0 0 0 0 0 0 127 0" result="hardAlpha"/>
<feOffset/>
<feGaussianBlur stdDeviation="5.95559"/>
<feComposite in2="hardAlpha" operator="out"/>
<feColorMatrix type="matrix" values="0 0 0 0 0.568627 0 0 0 0 0.741176 0 0 0 0 0.866667 0 0 0 1 0"/>
<feBlend mode="normal" in2="BackgroundImageFix" result="effect1_dropShadow_202_4464"/>
<feColorMatrix in="SourceAlpha" type="matrix" values="0 0 0 0 0 0 0 0 0 0 0 0 0 0 0 0 0 0 127 0" result="hardAlpha"/>
<feOffset dy="2.38223"/>
<feGaussianBlur stdDeviation="2.97779"/>
<feComposite in2="hardAlpha" operator="out"/>
<feColorMatrix type="matrix" values="0 0 0 0 0 0 0 0 0 0 0 0 0 0 0 0 0 0 0.1 0"/>
<feBlend mode="normal" in2="effect1_dropShadow_202_4464" result="effect2_dropShadow_202_4464"/>
<feBlend mode="normal" in="SourceGraphic" in2="effect2_dropShadow_202_4464" result="shape"/>
</filter>
<filter id="filter1_dd_202_4464" x="5.56637" y="28.0888" width="262.774" height="178.494" filterUnits="userSpaceOnUse" color-interpolation-filters="sRGB">
<feFlood flood-opacity="0" result="BackgroundImageFix"/>
<feColorMatrix in="SourceAlpha" type="matrix" values="0 0 0 0 0 0 0 0 0 0 0 0 0 0 0 0 0 0 127 0" result="hardAlpha"/>
<feOffset/>
<feGaussianBlur stdDeviation="5.95559"/>
<feComposite in2="hardAlpha" operator="out"/>
<feColorMatrix type="matrix" values="0 0 0 0 0.568627 0 0 0 0 0.741176 0 0 0 0 0.866667 0 0 0 1 0"/>
<feBlend mode="normal" in2="BackgroundImageFix" result="effect1_dropShadow_202_4464"/>
<feColorMatrix in="SourceAlpha" type="matrix" values="0 0 0 0 0 0 0 0 0 0 0 0 0 0 0 0 0 0 127 0" result="hardAlpha"/>
<feOffset dy="2.38223"/>
<feGaussianBlur stdDeviation="2.97779"/>
<feComposite in2="hardAlpha" operator="out"/>
<feColorMatrix type="matrix" values="0 0 0 0 0 0 0 0 0 0 0 0 0 0 0 0 0 0 0.1 0"/>
<feBlend mode="normal" in2="effect1_dropShadow_202_4464" result="effect2_dropShadow_202_4464"/>
<feBlend mode="normal" in="SourceGraphic" in2="effect2_dropShadow_202_4464" result="shape"/>
</filter>
</defs>
</svg>
