<svg width="273" height="240" viewBox="0 0 273 240" fill="none" xmlns="http://www.w3.org/2000/svg">
<g filter="url(#filter0_dd_202_2436)">
<g filter="url(#filter1_dd_202_2436)">
<path d="M76.7801 139.767H35.0078C33.1207 139.767 31.2522 140.138 29.5089 140.861C27.7656 141.583 26.1816 142.642 24.8475 143.976C23.5133 145.311 22.4552 146.895 21.7335 148.638C21.0117 150.382 20.6406 152.251 20.6411 154.137H76.7801V139.767Z" fill="#F25451" stroke="#9DAFCC" stroke-width="0.6" stroke-linecap="round" stroke-linejoin="round"/>
<path d="M130.264 119.462H48.7214V196.2H130.264V119.462Z" fill="#F25451" stroke="#9DAFCC" stroke-width="0.6" stroke-linecap="round" stroke-linejoin="round"/>
<path d="M70.7386 138.214C70.7635 137.108 70.5674 136.007 70.1617 134.977C69.7555 133.948 69.1476 133.009 68.3741 132.217C67.6 131.426 66.6763 130.797 65.6557 130.367C64.6356 129.938 63.5397 129.717 62.4328 129.717C61.3259 129.717 60.2304 129.938 59.2098 130.367C58.1898 130.797 57.2655 131.426 56.492 132.217C55.7179 133.009 55.1101 133.948 54.7043 134.977C54.2981 136.007 54.102 137.108 54.1274 138.214V196.195H70.7296V138.214H70.7386Z" fill="white" stroke="#9DAFCC" stroke-width="0.6" stroke-linecap="round" stroke-linejoin="round"/>
<path d="M102.832 138.214C102.864 136.441 102.543 134.68 101.886 133.033C101.23 131.386 100.252 129.887 99.0099 128.622C97.7677 127.358 96.286 126.353 94.6511 125.667C93.0162 124.981 91.261 124.628 89.4883 124.628C87.7157 124.628 85.9605 124.981 84.3256 125.667C82.6906 126.353 81.2089 127.358 79.9668 128.622C78.7246 129.887 77.7465 131.386 77.0902 133.033C76.4339 134.68 76.1126 136.441 76.1445 138.214V196.195H102.841V138.214H102.832Z" fill="white" stroke="#9DAFCC" stroke-width="0.6" stroke-linecap="round" stroke-linejoin="round"/>
<path d="M116.546 129.907C115.455 129.907 114.375 130.121 113.367 130.539C112.36 130.957 111.444 131.568 110.673 132.34C109.902 133.112 109.29 134.027 108.873 135.035C108.456 136.043 108.242 137.123 108.242 138.214V196.195H124.854V138.214C124.854 137.123 124.638 136.043 124.221 135.035C123.804 134.027 123.192 133.111 122.42 132.34C121.649 131.568 120.733 130.956 119.725 130.539C118.717 130.121 117.637 129.907 116.546 129.907Z" fill="white" stroke="#9DAFCC" stroke-width="0.6" stroke-linecap="round" stroke-linejoin="round"/>
<path d="M116.546 124.501C114.542 124.499 112.563 124.938 110.748 125.785C108.933 126.633 107.326 127.869 106.041 129.405C104.443 126.402 102.058 123.892 99.1424 122.14C96.2264 120.389 92.8892 119.464 89.4881 119.464C86.087 119.464 82.7498 120.389 79.8338 122.14C76.9183 123.892 74.5333 126.402 72.9354 129.405C71.1278 127.247 68.6998 125.698 65.981 124.968C63.2626 124.238 60.385 124.363 57.74 125.325C55.0945 126.287 52.8098 128.041 51.1955 130.346C49.5812 132.652 48.7159 135.399 48.717 138.214H54.1228C54.0979 137.108 54.294 136.007 54.6998 134.977C55.106 133.948 55.7138 133.009 56.4874 132.218C57.2609 131.426 58.1852 130.797 59.2058 130.368C60.2258 129.938 61.3218 129.717 62.4287 129.717C63.5356 129.717 64.631 129.938 65.6516 130.368C66.6717 130.797 67.5959 131.426 68.3695 132.218C69.1435 133.009 69.7509 133.948 70.1571 134.977C70.5633 136.007 70.7595 137.108 70.734 138.214H76.1398C76.1079 136.442 76.4298 134.681 77.086 133.034C77.7423 131.387 78.7199 129.887 79.9621 128.622C81.2043 127.357 82.6865 126.353 84.3209 125.667C85.9558 124.981 87.711 124.628 89.4836 124.628C91.2568 124.628 93.0115 124.981 94.6464 125.667C96.2813 126.353 97.763 127.357 99.0052 128.622C100.248 129.887 101.225 131.387 101.882 133.034C102.538 134.681 102.859 136.442 102.827 138.214H108.238C108.212 137.108 108.409 136.007 108.815 134.977C109.221 133.948 109.829 133.009 110.602 132.218C111.376 131.426 112.3 130.797 113.32 130.368C114.341 129.938 115.436 129.717 116.544 129.717C117.65 129.717 118.746 129.938 119.766 130.368C120.787 130.797 121.711 131.426 122.484 132.218C123.258 133.009 123.866 133.948 124.272 134.977C124.678 136.007 124.874 137.108 124.849 138.214H130.255C130.255 134.578 128.81 131.09 126.24 128.519C123.669 125.947 120.182 124.502 116.546 124.501Z" fill="#F25451" stroke="#9DAFCC" stroke-width="0.6" stroke-linecap="round" stroke-linejoin="round"/>
<path d="M54.1273 138.214H48.7214V196.2H54.1273V138.214Z" fill="#F25451" stroke="#9DAFCC" stroke-width="0.6" stroke-linecap="round" stroke-linejoin="round"/>
<path d="M130.259 138.214H124.854V196.2H130.259V138.214Z" stroke="#9DAFCC" stroke-width="0.6" stroke-linecap="round" stroke-linejoin="round"/>
<path d="M130.259 138.214H124.854V196.2H130.259V138.214Z" fill="#F25451" stroke="#9DAFCC" stroke-width="0.6" stroke-linecap="round" stroke-linejoin="round"/>
<path d="M108.242 138.214H102.836V196.2H108.242V138.214Z" fill="#F25451" stroke="#9DAFCC" stroke-width="0.6" stroke-linecap="round" stroke-linejoin="round"/>
<path d="M76.136 138.214H70.7297V196.2H76.136V138.214Z" fill="#F25451" stroke="#9DAFCC" stroke-width="0.6" stroke-linecap="round" stroke-linejoin="round"/>
<path d="M54.1273 138.214H48.7214V143.62H54.1273V138.214Z" fill="white" stroke="#9DAFCC" stroke-width="0.6" stroke-linecap="round" stroke-linejoin="round"/>
<path d="M76.136 138.214H70.7297V143.62H76.136V138.214Z" fill="white" stroke="#9DAFCC" stroke-width="0.6" stroke-linecap="round" stroke-linejoin="round"/>
<path d="M108.242 138.214H102.836V143.62H108.242V138.214Z" fill="white" stroke="#9DAFCC" stroke-width="0.6" stroke-linecap="round" stroke-linejoin="round"/>
<path d="M130.259 138.214H124.854V143.62H130.259V138.214Z" fill="white" stroke="#9DAFCC" stroke-width="0.6" stroke-linecap="round" stroke-linejoin="round"/>
<path d="M70.7301 138.214C70.755 137.108 70.5589 136.007 70.1531 134.977C69.7469 133.948 69.1391 133.009 68.3655 132.217C67.5915 131.426 66.6677 130.797 65.6471 130.367C64.6271 129.938 63.5311 129.717 62.4242 129.717C61.3173 129.717 60.2214 129.938 59.2013 130.367C58.1812 130.797 57.257 131.426 56.4834 132.217C55.7094 133.009 55.1015 133.948 54.6958 134.977C54.2896 136.007 54.0934 137.108 54.1189 138.214H124.853C124.879 137.108 124.682 136.007 124.277 134.977C123.87 133.948 123.262 133.009 122.489 132.217C121.715 131.426 120.791 130.797 119.771 130.367C118.75 129.938 117.655 129.717 116.548 129.717C115.441 129.717 114.345 129.938 113.325 130.367C112.305 130.797 111.38 131.426 110.607 132.217C109.833 133.009 109.225 133.948 108.819 134.977C108.413 136.007 108.217 137.108 108.242 138.214" fill="#E4EBF5"/>
<path d="M70.7301 138.214C70.755 137.108 70.5589 136.007 70.1531 134.977C69.7469 133.948 69.1391 133.009 68.3655 132.217C67.5915 131.426 66.6677 130.797 65.6471 130.367C64.6271 129.938 63.5311 129.717 62.4242 129.717C61.3173 129.717 60.2214 129.938 59.2013 130.367C58.1812 130.797 57.257 131.426 56.4834 132.217C55.7094 133.009 55.1015 133.948 54.6958 134.977C54.2896 136.007 54.0934 137.108 54.1189 138.214H124.853C124.878 137.108 124.682 136.007 124.277 134.977C123.87 133.948 123.262 133.009 122.489 132.217C121.715 131.426 120.791 130.797 119.771 130.367C118.75 129.938 117.655 129.717 116.548 129.717C115.441 129.717 114.345 129.938 113.325 130.367C112.305 130.797 111.38 131.426 110.607 132.217C109.833 133.009 109.225 133.948 108.819 134.977C108.413 136.007 108.217 137.108 108.242 138.214" stroke="#9DAFCC" stroke-width="0.6" stroke-linecap="round" stroke-linejoin="round"/>
<path d="M102.837 138.214C102.868 136.441 102.547 134.68 101.89 133.033C101.234 131.386 100.256 129.887 99.0142 128.622C97.7721 127.358 96.2904 126.353 94.6555 125.667C93.0205 124.981 91.2654 124.628 89.4927 124.628C87.7196 124.628 85.9649 124.981 84.33 125.667C82.695 126.353 81.2133 127.358 79.9712 128.622C78.7285 129.887 77.7509 131.386 77.0946 133.033C76.4383 134.68 76.117 136.441 76.1489 138.214" fill="#E4EBF5"/>
<path d="M102.837 138.214C102.868 136.441 102.547 134.68 101.89 133.033C101.234 131.386 100.256 129.887 99.0142 128.622C97.7721 127.358 96.2904 126.353 94.6555 125.667C93.0205 124.981 91.2654 124.628 89.4927 124.628C87.7196 124.628 85.9649 124.981 84.33 125.667C82.695 126.353 81.2133 127.358 79.9712 128.622C78.7285 129.887 77.7509 131.386 77.0946 133.033C76.4383 134.68 76.117 136.441 76.1489 138.214" stroke="#9DAFCC" stroke-width="0.6" stroke-linecap="round" stroke-linejoin="round"/>
<path d="M73.4805 138.214H107.516" stroke="#9DAFCC" stroke-width="0.6" stroke-linecap="round" stroke-linejoin="round"/>
<path d="M116.546 135.031C115.779 135.032 115.044 135.338 114.502 135.88C113.961 136.423 113.656 137.158 113.656 137.925V167.709H119.439V137.925C119.439 137.157 119.134 136.421 118.591 135.879C118.049 135.336 117.313 135.031 116.546 135.031Z" fill="#365DA0" stroke="#9DAFCC" stroke-width="0.6" stroke-linecap="round" stroke-linejoin="round"/>
<path d="M113.656 141.57H119.439" stroke="#9DAFCC" stroke-width="0.6" stroke-linecap="round" stroke-linejoin="round"/>
<path d="M113.656 148.105H119.439" stroke="#9DAFCC" stroke-width="0.6" stroke-linecap="round" stroke-linejoin="round"/>
<path d="M113.656 154.64H119.439" stroke="#9DAFCC" stroke-width="0.6" stroke-linecap="round" stroke-linejoin="round"/>
<path d="M113.656 161.174H119.439" stroke="#9DAFCC" stroke-width="0.6" stroke-linecap="round" stroke-linejoin="round"/>
<path d="M62.4309 135.031C61.6638 135.032 60.9287 135.337 60.3862 135.88C59.8438 136.422 59.5388 137.157 59.5378 137.925V167.709H65.3239V137.925C65.3229 137.157 65.018 136.422 64.4755 135.88C63.9331 135.337 63.1979 135.032 62.4309 135.031Z" fill="#365DA0" stroke="#9DAFCC" stroke-width="0.6" stroke-linecap="round" stroke-linejoin="round"/>
<path d="M59.5378 141.57H65.3239" stroke="#9DAFCC" stroke-width="0.6" stroke-linecap="round" stroke-linejoin="round"/>
<path d="M59.5378 148.105H65.3239" stroke="#9DAFCC" stroke-width="0.6" stroke-linecap="round" stroke-linejoin="round"/>
<path d="M59.5378 154.64H65.3239" stroke="#9DAFCC" stroke-width="0.6" stroke-linecap="round" stroke-linejoin="round"/>
<path d="M59.5378 161.174H65.3239" stroke="#9DAFCC" stroke-width="0.6" stroke-linecap="round" stroke-linejoin="round"/>
<path d="M83.9243 135.031C83.1577 135.032 82.4221 135.337 81.8802 135.88C81.3377 136.422 81.0322 137.157 81.0312 137.925V167.709H86.8178V137.925C86.8163 137.157 86.5114 136.422 85.9689 135.88C85.4265 135.337 84.6913 135.032 83.9243 135.031Z" fill="#365DA0" stroke="#9DAFCC" stroke-width="0.6" stroke-linecap="round" stroke-linejoin="round"/>
<path d="M81.0312 141.57H86.8178" stroke="#9DAFCC" stroke-width="0.6" stroke-linecap="round" stroke-linejoin="round"/>
<path d="M81.0312 148.105H86.8178" stroke="#9DAFCC" stroke-width="0.6" stroke-linecap="round" stroke-linejoin="round"/>
<path d="M81.0312 154.64H86.8178" stroke="#9DAFCC" stroke-width="0.6" stroke-linecap="round" stroke-linejoin="round"/>
<path d="M81.0312 161.174H86.8178" stroke="#9DAFCC" stroke-width="0.6" stroke-linecap="round" stroke-linejoin="round"/>
<path d="M95.0516 135.031C94.2851 135.032 93.5505 135.338 93.009 135.88C92.467 136.423 92.1631 137.158 92.1631 137.925V167.709H97.9452V137.925C97.9452 137.157 97.6403 136.421 97.0978 135.879C96.5553 135.336 95.8192 135.031 95.0516 135.031Z" fill="#365DA0" stroke="#9DAFCC" stroke-width="0.6" stroke-linecap="round" stroke-linejoin="round"/>
<path d="M92.1631 141.57H97.9452" stroke="#9DAFCC" stroke-width="0.6" stroke-linecap="round" stroke-linejoin="round"/>
<path d="M92.1631 148.105H97.9452" stroke="#9DAFCC" stroke-width="0.6" stroke-linecap="round" stroke-linejoin="round"/>
<path d="M92.1631 154.64H97.9452" stroke="#9DAFCC" stroke-width="0.6" stroke-linecap="round" stroke-linejoin="round"/>
<path d="M92.1631 161.174H97.9452" stroke="#9DAFCC" stroke-width="0.6" stroke-linecap="round" stroke-linejoin="round"/>
<path d="M89.8711 155.401L102.694 170.291H76.6765L89.8711 155.401Z" fill="#F25451" stroke="#9DAFCC" stroke-width="0.6" stroke-linecap="round" stroke-linejoin="round"/>
<path d="M89.5896 156.287L101.128 169.754H101.141L103.628 168.331L89.5896 151.945L75.7422 168.106L78.0603 169.741L89.5896 156.287Z" fill="white" stroke="#9DAFCC" stroke-width="0.6" stroke-linecap="round" stroke-linejoin="round"/>
<path d="M105.518 170.29H73.8523V196.2H105.518V170.29Z" fill="#F25451" stroke="#9DAFCC" stroke-width="0.6" stroke-linecap="round" stroke-linejoin="round"/>
<path d="M104.713 182.114H74.6567V183.243H104.713V182.114Z" fill="white"/>
<path d="M89.6848 171.826C86.6511 171.82 83.7386 173.019 81.5886 175.16C79.4387 177.301 78.2269 180.208 78.2205 183.243H101.141C101.134 180.21 99.924 177.304 97.7756 175.163C95.6276 173.022 92.7176 171.822 89.6848 171.826Z" fill="white"/>
<path d="M89.6848 174.974C87.4335 174.974 85.2741 175.868 83.6821 177.46C82.0901 179.052 81.1958 181.212 81.1958 183.464V196.2H98.1788V183.464C98.1788 182.348 97.9592 181.244 97.532 180.214C97.1053 179.183 96.4795 178.247 95.6905 177.459C94.9019 176.67 93.9657 176.046 92.9351 175.619C91.9046 175.193 90.8002 174.974 89.6848 174.974Z" fill="#365DA0" stroke="#9DAFCC" stroke-width="0.6" stroke-linecap="round" stroke-linejoin="round"/>
<path d="M93.1792 177.521C92.5299 177.521 91.8866 177.65 91.2872 177.899C90.6874 178.148 90.1429 178.513 89.6848 178.974C88.9981 178.283 88.1217 177.811 87.1665 177.618C86.2108 177.425 85.2202 177.519 84.3184 177.89C83.4171 178.26 82.6455 178.89 82.1021 179.699C81.5586 180.508 81.2671 181.459 81.2646 182.434H84.1362C84.1238 182.156 84.1672 181.879 84.265 181.618C84.3628 181.357 84.512 181.119 84.7042 180.918C84.8963 180.717 85.1274 180.557 85.3834 180.447C85.6389 180.338 85.9144 180.281 86.1928 180.281C86.4708 180.281 86.7463 180.338 87.0023 180.447C87.2583 180.557 87.4894 180.717 87.6815 180.918C87.8737 181.119 88.0229 181.357 88.1207 181.618C88.218 181.879 88.2619 182.156 88.249 182.434H91.125C91.1126 182.156 91.156 181.879 91.2538 181.618C91.3511 181.357 91.5008 181.119 91.693 180.918C91.8851 180.717 92.1162 180.557 92.3722 180.447C92.6277 180.338 92.9032 180.281 93.1817 180.281C93.4596 180.281 93.7351 180.338 93.9911 180.447C94.2467 180.557 94.4777 180.717 94.6699 180.918C94.8625 181.119 95.0117 181.357 95.1095 181.618C95.2068 181.879 95.2508 182.156 95.2378 182.434H98.1094C98.1049 181.13 97.5834 179.88 96.6596 178.959C95.7353 178.038 94.4837 177.521 93.1792 177.521Z" fill="white" stroke="#9DAFCC" stroke-width="0.6" stroke-linecap="round" stroke-linejoin="round"/>
<path d="M78.3108 186.75H77.2084C76.7303 186.75 76.343 187.137 76.343 187.615V188.718C76.343 189.196 76.7303 189.583 77.2084 189.583H78.3108C78.7889 189.583 79.1762 189.196 79.1762 188.718V187.615C79.1762 187.137 78.7889 186.75 78.3108 186.75Z" fill="white"/>
<path d="M102.166 186.75H101.063C100.585 186.75 100.198 187.137 100.198 187.615V188.718C100.198 189.196 100.585 189.583 101.063 189.583H102.166C102.643 189.583 103.031 189.196 103.031 188.718V187.615C103.031 187.137 102.643 186.75 102.166 186.75Z" fill="white"/>
<path d="M105.518 170.29H73.8523V196.2H105.518V170.29Z" stroke="#9DAFCC" stroke-width="0.6" stroke-linecap="round" stroke-linejoin="round"/>
<path d="M79.9243 167.709H75.2451V170.29H79.9243V167.709Z" fill="white" stroke="#9DAFCC" stroke-width="0.6" stroke-linecap="round" stroke-linejoin="round"/>
<path d="M104.125 167.709H99.446V170.29H104.125V167.709Z" fill="white" stroke="#9DAFCC" stroke-width="0.6" stroke-linecap="round" stroke-linejoin="round"/>
<path d="M131.994 115.687H46.9829V119.463H131.994V115.687Z" fill="white" stroke="#9DAFCC" stroke-width="0.6" stroke-linecap="round" stroke-linejoin="round"/>
<path d="M89.4903 107.357L46.9829 115.687H131.994L89.4903 107.357Z" fill="#F25451" stroke="#9DAFCC" stroke-width="0.6" stroke-linecap="round" stroke-linejoin="round"/>
<path d="M102.032 78.2825H76.9487V97.7823H102.032V78.2825Z" fill="#E4EBF5" stroke="#9DAFCC" stroke-width="0.6" stroke-linecap="round" stroke-linejoin="round"/>
<path d="M104.073 97.7828H74.9077V110.207H104.073V97.7828Z" fill="#F25451" stroke="#9DAFCC" stroke-width="0.6" stroke-linejoin="round"/>
<path d="M84.6294 110.207C84.6294 105.783 81.5761 106.289 79.7685 103.513C77.9565 106.289 74.9162 105.783 74.9077 110.207H84.6294Z" fill="white" stroke="#9DAFCC" stroke-width="0.6" stroke-linejoin="round"/>
<path d="M94.3511 110.207C94.3511 105.783 91.2978 106.289 89.4902 103.513C87.6781 106.289 84.6379 105.783 84.6294 110.207H94.3511Z" fill="white" stroke="#9DAFCC" stroke-width="0.6" stroke-linejoin="round"/>
<path d="M104.073 110.207C104.073 105.783 101.02 106.289 99.2124 103.513C97.4003 106.289 94.3556 105.783 94.3511 110.207H104.073Z" fill="white" stroke="#9DAFCC" stroke-width="0.6" stroke-linejoin="round"/>
<path d="M74.9077 100.918H104.073" stroke="#9DAFCC" stroke-width="0.6" stroke-linejoin="round"/>
<path d="M97.2446 97.7829V84.705C97.2446 83.9377 96.9397 83.2017 96.3972 82.6592C95.8547 82.1166 95.1186 81.8118 94.351 81.8118C93.584 81.8118 92.8479 82.1166 92.3054 82.6592C91.7629 83.2017 91.458 83.9377 91.458 84.705V97.7829H97.2446Z" fill="#365DA0" stroke="#9DAFCC" stroke-width="0.6" stroke-linecap="round" stroke-linejoin="round"/>
<path d="M87.5224 97.7829V84.705C87.5224 83.9377 87.218 83.2017 86.675 82.6592C86.1325 82.1166 85.3969 81.8118 84.6294 81.8118C83.8618 81.8118 83.1262 82.1166 82.5837 82.6592C82.0408 83.2017 81.7363 83.9377 81.7363 84.705V97.7829H87.5224Z" fill="#365DA0" stroke="#9DAFCC" stroke-width="0.6" stroke-linecap="round" stroke-linejoin="round"/>
<path d="M104.073 74.5332H74.9077V78.2827H104.073V74.5332Z" fill="white" stroke="#9DAFCC" stroke-width="0.6" stroke-linejoin="round"/>
<path d="M89.4987 59.9501C85.6315 59.9501 81.922 61.4865 79.1872 64.2213C76.4524 66.9561 74.9163 70.6653 74.9163 74.533H104.073C104.073 70.6668 102.538 66.9589 99.8048 64.2244C97.0719 61.4898 93.365 59.9524 89.4987 59.9501Z" fill="#F25451" stroke="#9DAFCC" stroke-width="0.6" stroke-linejoin="round"/>
<path d="M89.5596 59.9501V47.6248" stroke="#9DAFCC" stroke-width="0.6" stroke-linejoin="round"/>
<path d="M86.4241 51.8718H92.552" stroke="#9DAFCC" stroke-width="0.6" stroke-linejoin="round"/>
<path d="M88.0979 49.4974H91.0214" stroke="#9DAFCC" stroke-width="0.6" stroke-linejoin="round"/>
<path d="M87.8169 55.007L91.2504 56.8752" stroke="#9DAFCC" stroke-width="0.6" stroke-linejoin="round"/>
<path d="M48.7213 154.137H20.6584V196.195H48.7213V154.137Z" fill="#E4EBF5" stroke="#9DAFCC" stroke-width="0.6" stroke-linecap="round" stroke-linejoin="round"/>
<path d="M29.1221 158.635C28.3569 158.636 27.6235 158.941 27.0821 159.481C26.5407 160.022 26.2354 160.755 26.2332 161.52V184.77H32.0152V161.52C32.0129 160.754 31.7071 160.02 31.1648 159.48C30.6225 158.939 29.8879 158.635 29.1221 158.635Z" fill="#365DA0" stroke="#9DAFCC" stroke-width="0.6" stroke-linecap="round" stroke-linejoin="round"/>
<path d="M26.2332 165.17H32.0152" stroke="#9DAFCC" stroke-width="0.6" stroke-linecap="round" stroke-linejoin="round"/>
<path d="M26.2332 171.704H32.0152" stroke="#9DAFCC" stroke-width="0.6" stroke-linecap="round" stroke-linejoin="round"/>
<path d="M26.2332 178.244H32.0152" stroke="#9DAFCC" stroke-width="0.6" stroke-linecap="round" stroke-linejoin="round"/>
<path d="M40.2538 158.635C39.488 158.635 38.7534 158.939 38.211 159.48C37.6687 160.02 37.3629 160.754 37.3606 161.52V184.77H43.147V161.52C43.1436 160.754 42.8374 160.021 42.2953 159.481C41.7532 158.94 41.0193 158.636 40.2538 158.635Z" fill="#365DA0" stroke="#9DAFCC" stroke-width="0.6" stroke-linecap="round" stroke-linejoin="round"/>
<path d="M37.3606 165.17H43.147" stroke="#9DAFCC" stroke-width="0.6" stroke-linecap="round" stroke-linejoin="round"/>
<path d="M37.3606 171.704H43.147" stroke="#9DAFCC" stroke-width="0.6" stroke-linecap="round" stroke-linejoin="round"/>
<path d="M37.3606 178.244H43.147" stroke="#9DAFCC" stroke-width="0.6" stroke-linecap="round" stroke-linejoin="round"/>
<path d="M167.577 142.802H130.259V196.2H167.577V142.802Z" fill="#F25451" stroke="#9DAFCC" stroke-width="0.6" stroke-linecap="round" stroke-linejoin="round"/>
<path d="M162.534 145.847H130.259V196.195H162.534V145.847Z" fill="white" stroke="#9DAFCC" stroke-width="0.6" stroke-linecap="round" stroke-linejoin="round"/>
<path d="M149.214 154.137H130.259V196.195H149.214V154.137Z" fill="#F25451" stroke="#9DAFCC" stroke-width="0.6" stroke-linecap="round" stroke-linejoin="round"/>
<path d="M149.214 148.671H130.259V154.138H149.214V148.671Z" fill="#E4EBF5" stroke="#9DAFCC" stroke-width="0.6" stroke-linecap="round" stroke-linejoin="round"/>
<path d="M145.828 158.38H130.259V196.2H145.828V158.38Z" fill="white" stroke="#9DAFCC" stroke-width="0.6" stroke-linecap="round" stroke-linejoin="round"/>
<path d="M138.044 176.514C137.283 176.514 136.554 176.816 136.016 177.353C135.478 177.891 135.177 178.62 135.177 179.381V187.71H140.911V179.381C140.911 178.62 140.609 177.891 140.071 177.353C139.533 176.816 138.804 176.514 138.044 176.514Z" fill="#365DA0" stroke="#9DAFCC" stroke-width="0.6" stroke-linecap="round" stroke-linejoin="round"/>
<path d="M155.991 176.514C155.231 176.514 154.501 176.816 153.963 177.353C153.425 177.891 153.124 178.62 153.124 179.381V187.71H158.858V179.381C158.858 178.62 158.556 177.891 158.018 177.353C157.481 176.816 156.751 176.514 155.991 176.514Z" fill="#365DA0" stroke="#9DAFCC" stroke-width="0.6" stroke-linecap="round" stroke-linejoin="round"/>
<path d="M199.243 170.29H167.577V196.2H199.243V170.29Z" fill="#F25451" stroke="#9DAFCC" stroke-width="0.6" stroke-linecap="round" stroke-linejoin="round"/>
<path d="M198.438 182.114H168.381V183.243H198.438V182.114Z" fill="white"/>
<path d="M183.41 171.826C180.376 171.82 177.463 173.019 175.313 175.16C173.163 177.301 171.952 180.208 171.945 183.243H194.866C194.859 180.21 193.649 177.304 191.501 175.163C189.352 173.022 186.442 171.822 183.41 171.826Z" fill="white"/>
<path d="M183.41 174.974C181.158 174.974 178.999 175.868 177.407 177.46C175.815 179.052 174.92 181.212 174.92 183.464V196.2H191.903V183.464C191.903 182.348 191.684 181.244 191.257 180.214C190.83 179.183 190.204 178.247 189.416 177.459C188.627 176.67 187.69 176.046 186.66 175.619C185.629 175.193 184.525 174.974 183.41 174.974Z" fill="#365DA0" stroke="#9DAFCC" stroke-width="0.6" stroke-linecap="round" stroke-linejoin="round"/>
<path d="M186.904 177.521C186.254 177.521 185.611 177.65 185.012 177.9C184.412 178.149 183.868 178.514 183.409 178.974C182.723 178.283 181.846 177.811 180.891 177.618C179.935 177.425 178.944 177.519 178.043 177.89C177.142 178.26 176.37 178.89 175.827 179.699C175.283 180.508 174.992 181.459 174.989 182.434H177.861C177.848 182.156 177.892 181.879 177.99 181.618C178.087 181.357 178.237 181.119 178.429 180.918C178.621 180.717 178.852 180.557 179.108 180.447C179.364 180.338 179.639 180.281 179.917 180.281C180.195 180.281 180.471 180.338 180.727 180.447C180.982 180.557 181.214 180.717 181.406 180.918C181.598 181.119 181.748 181.357 181.845 181.618C181.943 181.879 181.987 182.156 181.974 182.434H184.85C184.837 182.156 184.881 181.879 184.978 181.618C185.076 181.357 185.225 181.119 185.418 180.918C185.61 180.717 185.841 180.557 186.096 180.447C186.352 180.338 186.628 180.281 186.906 180.281C187.184 180.281 187.46 180.338 187.715 180.447C187.971 180.557 188.202 180.717 188.394 180.918C188.587 181.119 188.736 181.357 188.834 181.618C188.931 181.879 188.975 182.156 188.962 182.434H191.834C191.829 181.13 191.308 179.88 190.384 178.959C189.46 178.038 188.208 177.521 186.904 177.521Z" fill="white" stroke="#9DAFCC" stroke-width="0.6" stroke-linecap="round" stroke-linejoin="round"/>
<path d="M172.036 186.75H170.933C170.455 186.75 170.068 187.137 170.068 187.615V188.718C170.068 189.196 170.455 189.583 170.933 189.583H172.036C172.514 189.583 172.901 189.196 172.901 188.718V187.615C172.901 187.137 172.514 186.75 172.036 186.75Z" fill="white"/>
<path d="M195.89 186.75H194.788C194.31 186.75 193.923 187.137 193.923 187.615V188.718C193.923 189.196 194.31 189.583 194.788 189.583H195.89C196.368 189.583 196.756 189.196 196.756 188.718V187.615C196.756 187.137 196.368 186.75 195.89 186.75Z" fill="white"/>
<path d="M199.243 170.29H167.577V196.2H199.243V170.29Z" stroke="#9DAFCC" stroke-width="0.6" stroke-linecap="round" stroke-linejoin="round"/>
<path d="M199.243 153.411H167.577V170.286H199.243V153.411Z" fill="#E4EBF5" stroke="#9DAFCC" stroke-width="0.6" stroke-linecap="round" stroke-linejoin="round"/>
<path d="M148.921 134.473L130.259 142.798H167.577L148.921 134.473Z" fill="#F25451" stroke="#9DAFCC" stroke-width="0.6" stroke-linecap="round" stroke-linejoin="round"/>
<path d="M148.92 74.0791C146.961 74.0791 145.378 72.8639 145.378 71.3675C145.378 69.2744 147.372 68.9111 148.92 66.6104C150.464 68.9154 152.462 69.2787 152.462 71.3675C152.462 72.8639 150.875 74.0791 148.92 74.0791Z" fill="#F25451" stroke="#9DAFCC" stroke-width="0.6" stroke-linecap="round" stroke-linejoin="round"/>
<path d="M159.325 114.818H138.511V138.863H159.325V114.818Z" fill="#F25451" stroke="#9DAFCC" stroke-width="0.6" stroke-linecap="round" stroke-linejoin="round"/>
<path d="M159.325 134.685H138.511V138.863H159.325V134.685Z" stroke="#9DAFCC" stroke-width="0.6" stroke-linecap="round" stroke-linejoin="round"/>
<path d="M149.18 117.957C149.18 117.957 146.801 119.285 146.801 120.595V134.707H151.558V120.595C151.537 119.285 149.18 117.957 149.18 117.957Z" fill="#365DA0" stroke="#9DAFCC" stroke-width="0.6" stroke-linecap="round" stroke-linejoin="round"/>
<path d="M156.964 117.957C156.964 117.957 154.585 119.285 154.585 120.595V134.707H159.343V120.595C159.326 119.285 156.964 117.957 156.964 117.957Z" fill="#365DA0" stroke="#9DAFCC" stroke-width="0.6" stroke-linecap="round" stroke-linejoin="round"/>
<path d="M141.058 117.957C141.058 117.957 138.679 119.285 138.679 120.595V134.707H143.436V120.595C143.432 119.285 141.058 117.957 141.058 117.957Z" fill="#365DA0" stroke="#9DAFCC" stroke-width="0.6" stroke-linecap="round" stroke-linejoin="round"/>
<path d="M146.784 114.818H143.432V134.685H146.784V114.818Z" fill="white" stroke="#9DAFCC" stroke-width="0.6" stroke-linecap="round" stroke-linejoin="round"/>
<path d="M154.888 114.818H151.537V134.685H154.888V114.818Z" fill="white" stroke="#9DAFCC" stroke-width="0.6" stroke-linecap="round" stroke-linejoin="round"/>
<path d="M161.025 110.182H136.811V114.818H161.025V110.182Z" fill="white" stroke="#9DAFCC" stroke-width="0.6" stroke-linecap="round" stroke-linejoin="round"/>
<path d="M159.325 106.017H138.511V110.181H159.325V106.017Z" fill="white" stroke="#9DAFCC" stroke-width="0.6" stroke-linecap="round" stroke-linejoin="round"/>
<path d="M143.713 106.017V110.181" stroke="#9DAFCC" stroke-width="0.6" stroke-linecap="round" stroke-linejoin="round"/>
<path d="M148.92 106.017V110.181" stroke="#9DAFCC" stroke-width="0.6" stroke-linecap="round" stroke-linejoin="round"/>
<path d="M154.123 106.017V110.181" stroke="#9DAFCC" stroke-width="0.6" stroke-linecap="round" stroke-linejoin="round"/>
<path d="M146.97 77.4824L140.972 105.519H156.865L150.871 77.4824H146.97Z" fill="#F25451" stroke="#9DAFCC" stroke-width="0.6" stroke-linecap="round" stroke-linejoin="round"/>
<path d="M150.87 73.5775H146.965V77.4827H150.87V73.5775Z" fill="#F25451" stroke="#9DAFCC" stroke-width="0.6" stroke-linecap="round" stroke-linejoin="round"/>
<path d="M148.925 66.6491V54.3237" stroke="#9DAFCC" stroke-width="0.6" stroke-linejoin="round"/>
<path d="M145.793 58.5707H151.921" stroke="#9DAFCC" stroke-width="0.6" stroke-linejoin="round"/>
<path d="M147.467 56.1964H150.386" stroke="#9DAFCC" stroke-width="0.6" stroke-linejoin="round"/>
<path d="M147.182 61.7061L150.62 63.5743" stroke="#9DAFCC" stroke-width="0.6" stroke-linejoin="round"/>
<path d="M251.285 187.766H165.601V196.195H251.285V187.766Z" fill="#365DA0" stroke="#9DAFCC" stroke-width="0.6" stroke-linecap="round" stroke-linejoin="round"/>
<path d="M241.629 96.4938C241.317 96.4938 241.006 96.4464 240.69 96.4464C237.423 96.4479 234.213 97.3088 231.383 98.9422C228.554 100.576 226.203 102.925 224.567 105.753C222.933 102.923 220.582 100.574 217.752 98.9402C214.921 97.3063 211.711 96.4464 208.443 96.4464C205.175 96.4464 201.964 97.3063 199.134 98.9402C196.304 100.574 193.953 102.923 192.318 105.753C190.683 102.925 188.332 100.576 185.502 98.9422C182.673 97.3088 179.463 96.4479 176.196 96.4464C175.876 96.4464 175.569 96.4808 175.257 96.4938V101.554C175.569 101.554 175.876 101.506 176.196 101.506C179.801 101.507 183.259 102.94 185.807 105.49C188.357 108.04 189.788 111.498 189.788 115.103V168.937H194.848V115.103C194.816 113.297 195.144 111.504 195.813 109.826C196.481 108.148 197.477 106.621 198.743 105.332C200.009 104.044 201.518 103.021 203.184 102.322C204.849 101.624 206.637 101.264 208.443 101.264C210.249 101.264 212.037 101.624 213.702 102.322C215.368 103.021 216.877 104.044 218.143 105.332C219.408 106.621 220.405 108.148 221.073 109.826C221.742 111.504 222.07 113.297 222.038 115.103V168.937H227.097V115.103C227.097 111.498 228.529 108.04 231.078 105.49C233.627 102.94 237.085 101.507 240.69 101.506C241.006 101.506 241.317 101.532 241.629 101.554V96.4938Z" fill="#E4EBF5" stroke="#9DAFCC" stroke-width="0.6" stroke-linecap="round" stroke-linejoin="round"/>
<path d="M204.38 50.5698H201.474L197.149 59.8939C189.34 62.3065 182.51 67.1567 177.658 73.7338C172.807 80.3108 170.189 88.2687 170.189 96.4418V187.767H175.249V96.4418C175.249 88.3451 178.21 80.5279 183.575 74.4628C188.939 68.3978 196.335 64.5036 204.371 63.5137L204.38 50.5698Z" fill="white" stroke="#9DAFCC" stroke-width="0.6" stroke-linecap="round" stroke-linejoin="round"/>
<path d="M219.728 59.8897L215.403 50.5657H212.502V63.5095C220.537 64.5003 227.933 68.3948 233.297 74.4597C238.661 80.5245 241.623 88.3411 241.624 96.4378V187.767H246.684V96.4418C246.685 88.2692 244.068 80.3107 239.217 73.733C234.366 67.1553 227.537 62.3039 219.728 59.8897Z" fill="white" stroke="#9DAFCC" stroke-width="0.6" stroke-linecap="round" stroke-linejoin="round"/>
<path d="M214.461 42.5562H209.959V38.0369H206.927V42.5562H202.421V45.5877H206.927V63.2758H209.959V45.5877H214.461V42.5562Z" fill="white" stroke="#9DAFCC" stroke-width="0.6" stroke-linecap="round" stroke-linejoin="round"/>
<path d="M230.415 168.937H186.472V178.507H230.415V168.937Z" fill="#E4EBF5" stroke="#9DAFCC" stroke-width="0.6" stroke-linecap="round" stroke-linejoin="round"/>
<path d="M198.079 168.936C198.079 168.936 198.84 149.83 198.511 147.209C198.182 144.588 195.674 141.133 194.857 140.372C194.039 139.611 195.134 135.896 195.808 134.966C196.483 134.036 196.241 131.169 198.005 130.326C199.77 129.482 200.959 128.89 201.214 127.623C201.469 126.356 200.968 122.771 201.214 121.966C201.539 120.902 202.447 120.089 204.389 120.024C205.11 120.004 205.815 120.242 206.377 120.696C206.938 121.149 207.319 121.788 207.45 122.498C207.723 124.064 206.841 126.645 207.018 127.454C207.316 128.648 210.478 129.902 211.157 130.746C211.836 131.588 212.394 137.232 212.493 138.262C213.791 137.587 214.435 137.245 215.313 137.315C216.403 137.401 217.86 138.409 217.86 139.252C217.86 140.095 217.912 142.145 216.995 143.075C217.756 144.005 218.176 144.446 218.176 144.446C218.176 144.446 221.588 145.099 222.037 145.778C222.487 146.457 223.076 150.418 223.413 152.023C223.75 153.627 224.278 154.981 224.001 155.824C223.724 156.668 221.402 159.358 221.402 159.358L222.414 168.924L198.079 168.936Z" fill="#365DA0" stroke="#9DAFCC" stroke-width="0.6" stroke-linecap="round" stroke-linejoin="round"/>
<path d="M241.629 178.503H175.257V187.767H241.629V178.503Z" fill="white" stroke="#9DAFCC" stroke-width="0.6" stroke-linecap="round" stroke-linejoin="round"/>
<path d="M224.075 172.842H192.051V187.767H224.075V172.842Z" fill="#F25451" stroke="#9DAFCC" stroke-width="0.6" stroke-linecap="round" stroke-linejoin="round"/>
<path d="M196.034 176.574H220.009" stroke="#9DAFCC" stroke-width="0.6" stroke-linejoin="round"/>
<path d="M196.034 180.307H220.009" stroke="#9DAFCC" stroke-width="0.6" stroke-linejoin="round"/>
<path d="M196.034 184.039H220.009" stroke="#9DAFCC" stroke-width="0.6" stroke-linejoin="round"/>
</g>
</g>
<defs>
<filter id="filter0_dd_202_2436" x="-11.9112" y="-11.9112" width="296.822" height="263.822" filterUnits="userSpaceOnUse" color-interpolation-filters="sRGB">
<feFlood flood-opacity="0" result="BackgroundImageFix"/>
<feColorMatrix in="SourceAlpha" type="matrix" values="0 0 0 0 0 0 0 0 0 0 0 0 0 0 0 0 0 0 127 0" result="hardAlpha"/>
<feOffset/>
<feGaussianBlur stdDeviation="5.95559"/>
<feComposite in2="hardAlpha" operator="out"/>
<feColorMatrix type="matrix" values="0 0 0 0 0.568627 0 0 0 0 0.741176 0 0 0 0 0.866667 0 0 0 1 0"/>
<feBlend mode="normal" in2="BackgroundImageFix" result="effect1_dropShadow_202_2436"/>
<feColorMatrix in="SourceAlpha" type="matrix" values="0 0 0 0 0 0 0 0 0 0 0 0 0 0 0 0 0 0 127 0" result="hardAlpha"/>
<feOffset dy="2.38223"/>
<feGaussianBlur stdDeviation="2.97779"/>
<feComposite in2="hardAlpha" operator="out"/>
<feColorMatrix type="matrix" values="0 0 0 0 0 0 0 0 0 0 0 0 0 0 0 0 0 0 0.1 0"/>
<feBlend mode="normal" in2="effect1_dropShadow_202_2436" result="effect2_dropShadow_202_2436"/>
<feBlend mode="normal" in="SourceGraphic" in2="effect2_dropShadow_202_2436" result="shape"/>
</filter>
<filter id="filter1_dd_202_2436" x="8.42989" y="25.8256" width="255.067" height="182.585" filterUnits="userSpaceOnUse" color-interpolation-filters="sRGB">
<feFlood flood-opacity="0" result="BackgroundImageFix"/>
<feColorMatrix in="SourceAlpha" type="matrix" values="0 0 0 0 0 0 0 0 0 0 0 0 0 0 0 0 0 0 127 0" result="hardAlpha"/>
<feOffset/>
<feGaussianBlur stdDeviation="5.95559"/>
<feComposite in2="hardAlpha" operator="out"/>
<feColorMatrix type="matrix" values="0 0 0 0 0.568627 0 0 0 0 0.741176 0 0 0 0 0.866667 0 0 0 1 0"/>
<feBlend mode="normal" in2="BackgroundImageFix" result="effect1_dropShadow_202_2436"/>
<feColorMatrix in="SourceAlpha" type="matrix" values="0 0 0 0 0 0 0 0 0 0 0 0 0 0 0 0 0 0 127 0" result="hardAlpha"/>
<feOffset dy="2.38223"/>
<feGaussianBlur stdDeviation="2.97779"/>
<feComposite in2="hardAlpha" operator="out"/>
<feColorMatrix type="matrix" values="0 0 0 0 0 0 0 0 0 0 0 0 0 0 0 0 0 0 0.1 0"/>
<feBlend mode="normal" in2="effect1_dropShadow_202_2436" result="effect2_dropShadow_202_2436"/>
<feBlend mode="normal" in="SourceGraphic" in2="effect2_dropShadow_202_2436" result="shape"/>
</filter>
</defs>
</svg>
