<svg width="273" height="240" viewBox="0 0 273 240" fill="none" xmlns="http://www.w3.org/2000/svg">
<g filter="url(#filter0_dd_202_1228)">
<g filter="url(#filter1_dd_202_1228)">
<path d="M33.444 67.118L28.6924 88.1293H39.9066L35.1507 67.118H33.444Z" fill="#F25451" stroke="#9DAFCC" stroke-width="0.6" stroke-miterlimit="10"/>
<path d="M34.2996 77.2879C34.2996 77.2879 30.7283 79.8238 30.7283 81.7938V102.283H37.871V81.7938C37.871 79.8238 34.2996 77.2879 34.2996 77.2879Z" fill="#E4EBF5" stroke="#9DAFCC" stroke-width="0.6" stroke-miterlimit="10"/>
<path d="M34.2995 83.3865C35.1524 83.3865 35.8439 82.6951 35.8439 81.8421C35.8439 80.9892 35.1524 80.2977 34.2995 80.2977C33.4466 80.2977 32.7551 80.9892 32.7551 81.8421C32.7551 82.6951 33.4466 83.3865 34.2995 83.3865Z" fill="#9DAFCC"/>
<path d="M32.5139 90.2528C32.5139 87.5414 27.6087 84.5186 27.6087 84.5186C27.6087 84.5186 22.7036 87.5414 22.7036 90.2528C22.7036 91.5537 23.2204 92.8015 24.1403 93.7215C25.0602 94.6411 26.3078 95.158 27.6087 95.158C28.9097 95.158 30.1573 94.6411 31.0772 93.7215C31.9971 92.8015 32.5139 91.5537 32.5139 90.2528Z" fill="#E4EBF5" stroke="#9DAFCC" stroke-width="0.6" stroke-linejoin="round"/>
<path d="M27.6087 92.8064C29.0189 92.8064 30.1621 91.663 30.1621 90.2529C30.1621 88.8428 29.0189 87.6994 27.6087 87.6994C26.1984 87.6994 25.0552 88.8428 25.0552 90.2529C25.0552 91.663 26.1984 92.8064 27.6087 92.8064Z" fill="#9DAFCC"/>
<path d="M45.8955 90.2528C45.8955 87.5414 40.9903 84.5186 40.9903 84.5186C40.9903 84.5186 36.0852 87.5414 36.0852 90.2528C36.0852 91.5537 36.602 92.8015 37.5219 93.7215C38.4418 94.6411 39.6894 95.158 40.9903 95.158C42.2913 95.158 43.5389 94.6411 44.4588 93.7215C45.3787 92.8015 45.8955 91.5537 45.8955 90.2528Z" fill="#E4EBF5" stroke="#9DAFCC" stroke-width="0.6" stroke-linejoin="round"/>
<path d="M40.9902 92.8064C42.4005 92.8064 43.5437 91.663 43.5437 90.2529C43.5437 88.8428 42.4005 87.6994 40.9902 87.6994C39.58 87.6994 38.4368 88.8428 38.4368 90.2529C38.4368 91.663 39.58 92.8064 40.9902 92.8064Z" fill="#9DAFCC"/>
<path d="M37.9454 60.8967C37.9454 62.1471 35.5367 63.8538 34.2907 63.8538C33.0447 63.8538 30.636 62.1471 30.636 60.8967C30.636 59.6463 33.0403 60.164 34.2907 60.164C35.5411 60.164 37.9454 59.6551 37.9454 60.8967Z" fill="#365DA0" stroke="#9DAFCC" stroke-width="0.6" stroke-miterlimit="10"/>
<path d="M34.2996 63.8582V67.1181" stroke="#9DAFCC" stroke-width="0.6" stroke-miterlimit="10"/>
<path d="M88.3656 67.118L83.614 88.1293H94.8283L90.0723 67.118H88.3656Z" fill="#F25451" stroke="#9DAFCC" stroke-width="0.6" stroke-miterlimit="10"/>
<path d="M89.2212 77.2879C89.2212 77.2879 85.6455 79.8238 85.6455 81.7938V102.283H92.7882V81.7938C92.7882 79.8238 89.2212 77.2879 89.2212 77.2879Z" fill="#E4EBF5" stroke="#9DAFCC" stroke-width="0.6" stroke-miterlimit="10"/>
<path d="M89.2211 83.3865C90.074 83.3865 90.7655 82.6951 90.7655 81.8421C90.7655 80.9892 90.074 80.2977 89.2211 80.2977C88.3682 80.2977 87.6768 80.9892 87.6768 81.8421C87.6768 82.6951 88.3682 83.3865 89.2211 83.3865Z" fill="#9DAFCC"/>
<path d="M87.4355 90.2528C87.4355 87.5414 82.5304 84.5186 82.5304 84.5186C82.5304 84.5186 77.6252 87.5414 77.6252 90.2528C77.6252 91.5537 78.1421 92.8015 79.0621 93.7215C79.9817 94.6411 81.2295 95.158 82.5304 95.158C83.8312 95.158 85.079 94.6411 85.9986 93.7215C86.9187 92.8015 87.4355 91.5537 87.4355 90.2528Z" fill="#E4EBF5" stroke="#9DAFCC" stroke-width="0.6" stroke-linejoin="round"/>
<path d="M82.5305 92.8064C83.9406 92.8064 85.084 91.663 85.084 90.2529C85.084 88.8428 83.9406 87.6994 82.5305 87.6994C81.1204 87.6994 79.9771 88.8428 79.9771 90.2529C79.9771 91.663 81.1204 92.8064 82.5305 92.8064Z" fill="#9DAFCC"/>
<path d="M100.817 90.2528C100.817 87.5414 95.9122 84.5186 95.9122 84.5186C95.9122 84.5186 91.0027 87.5414 91.0027 90.2528C91.0409 91.5291 91.5748 92.74 92.4909 93.6294C93.407 94.5183 94.6333 95.0158 95.91 95.0158C97.1867 95.0158 98.413 94.5183 99.3291 93.6294C100.245 92.74 100.779 91.5291 100.817 90.2528Z" fill="#E4EBF5" stroke="#9DAFCC" stroke-width="0.6" stroke-linejoin="round"/>
<path d="M95.9121 92.8064C97.3222 92.8064 98.4656 91.663 98.4656 90.2529C98.4656 88.8428 97.3222 87.6994 95.9121 87.6994C94.502 87.6994 93.3586 88.8428 93.3586 90.2529C93.3586 91.663 94.502 92.8064 95.9121 92.8064Z" fill="#9DAFCC"/>
<path d="M92.8715 60.8967C92.8715 62.1471 90.4672 63.8538 89.2211 63.8538C87.9751 63.8538 85.5664 62.1471 85.5664 60.8967C85.5664 59.6463 87.9707 60.164 89.2211 60.164C90.4715 60.164 92.8715 59.6551 92.8715 60.8967Z" fill="#365DA0" stroke="#9DAFCC" stroke-width="0.6" stroke-miterlimit="10"/>
<path d="M89.2212 63.8582V67.1181" stroke="#9DAFCC" stroke-width="0.6" stroke-miterlimit="10"/>
<path d="M17.6228 103.828V191.234H44.3597V134.351C44.3597 129.786 46.1731 125.408 49.4009 122.18C52.6287 118.952 57.0069 117.139 61.5716 117.139C66.1362 117.139 70.5144 118.952 73.7423 122.18C76.9701 125.408 78.7834 129.786 78.7834 134.351V191.234H105.898V103.828H17.6228Z" fill="#E4EBF5" stroke="#9DAFCC" stroke-width="0.6" stroke-linejoin="round"/>
<path d="M46.1148 168.713H16.0522V191.234H46.1148V168.713Z" fill="#365DA0" stroke="#9DAFCC" stroke-width="0.6" stroke-linejoin="round"/>
<path d="M44.5484 120.798H17.6228V126.287H44.5484V120.798Z" fill="white" stroke="#9DAFCC" stroke-width="0.6" stroke-linejoin="round"/>
<path d="M17.6228 123.54H44.5484" stroke="#9DAFCC" stroke-width="0.6" stroke-linejoin="round"/>
<path d="M44.5484 103.828H17.6228V109.316H44.5484V103.828Z" fill="white" stroke="#9DAFCC" stroke-width="0.6" stroke-linejoin="round"/>
<path d="M17.6228 106.57H44.5484" stroke="#9DAFCC" stroke-width="0.6" stroke-linejoin="round"/>
<path d="M31.0836 168.713H39.4635V140.41C39.4635 131.35 33.9617 132.346 31.0836 128.757C28.2098 132.346 22.7036 131.35 22.7036 140.41V168.713H31.0836Z" fill="white" stroke="#9DAFCC" stroke-width="0.6" stroke-linejoin="round"/>
<path d="M41.6133 162.286H20.5537V168.713H41.6133V162.286Z" fill="white" stroke="#9DAFCC" stroke-width="0.6" stroke-linejoin="round"/>
<path d="M41.6133 176.106H20.5537V183.621H41.6133V176.106Z" fill="#F25451" stroke="#9DAFCC" stroke-width="0.6" stroke-linejoin="round"/>
<path d="M25.4369 109.316H21.2732V113.48H25.4369V109.316Z" fill="white" stroke="#9DAFCC" stroke-width="0.6" stroke-linejoin="round"/>
<path d="M33.1676 109.316H29.0039V113.48H33.1676V109.316Z" fill="white" stroke="#9DAFCC" stroke-width="0.6" stroke-linejoin="round"/>
<path d="M40.8983 109.316H36.7346V113.48H40.8983V109.316Z" fill="white" stroke="#9DAFCC" stroke-width="0.6" stroke-linejoin="round"/>
<path d="M21.2336 153.335H40.9331" stroke="#9DAFCC" stroke-width="0.6" stroke-linecap="round" stroke-linejoin="round"/>
<path d="M21.2336 141.208H40.9331" stroke="#9DAFCC" stroke-width="0.6" stroke-linecap="round" stroke-linejoin="round"/>
<path d="M31.0836 137.896C30.1364 137.896 29.228 138.272 28.5583 138.942C27.8885 139.612 27.5122 140.52 27.5122 141.467V161.952H34.6549V141.467C34.6555 140.998 34.5635 140.533 34.3843 140.1C34.205 139.667 33.9419 139.273 33.6102 138.941C33.2785 138.609 32.8845 138.346 32.4509 138.166C32.0174 137.987 31.5527 137.895 31.0836 137.896Z" fill="#365DA0" stroke="#9DAFCC" stroke-width="0.6" stroke-miterlimit="10"/>
<path d="M23.3528 113.475V120.798" stroke="#9DAFCC" stroke-width="0.6" stroke-linejoin="round"/>
<path d="M31.0835 113.475V120.798" stroke="#9DAFCC" stroke-width="0.6" stroke-linejoin="round"/>
<path d="M38.8142 113.475V120.798" stroke="#9DAFCC" stroke-width="0.6" stroke-linejoin="round"/>
<path d="M16.0522 171.758H46.1148" stroke="#9DAFCC" stroke-width="0.6" stroke-linejoin="round"/>
<path d="M107.464 168.713H77.4016V191.234H107.464V168.713Z" fill="#365DA0" stroke="#9DAFCC" stroke-width="0.6" stroke-linejoin="round"/>
<path d="M105.898 120.798H78.9722V126.287H105.898V120.798Z" fill="white" stroke="#9DAFCC" stroke-width="0.6" stroke-linejoin="round"/>
<path d="M78.9722 123.54H105.898" stroke="#9DAFCC" stroke-width="0.6" stroke-linejoin="round"/>
<path d="M105.898 103.828H78.9722V109.316H105.898V103.828Z" fill="white" stroke="#9DAFCC" stroke-width="0.6" stroke-linejoin="round"/>
<path d="M78.9722 106.57H105.898" stroke="#9DAFCC" stroke-width="0.6" stroke-linejoin="round"/>
<path d="M92.4327 168.713H100.813V140.41C100.813 131.35 95.3109 132.346 92.4327 128.757C89.559 132.346 84.0571 131.35 84.0571 140.41V168.713H92.4327Z" fill="white" stroke="#9DAFCC" stroke-width="0.6" stroke-linejoin="round"/>
<path d="M102.967 162.286H81.9075V168.713H102.967V162.286Z" fill="white" stroke="#9DAFCC" stroke-width="0.6" stroke-linejoin="round"/>
<path d="M102.967 176.106H81.9075V183.621H102.967V176.106Z" fill="#F25451" stroke="#9DAFCC" stroke-width="0.6" stroke-linejoin="round"/>
<path d="M86.786 109.316H82.6223V113.48H86.786V109.316Z" fill="white" stroke="#9DAFCC" stroke-width="0.6" stroke-linejoin="round"/>
<path d="M94.5169 109.316H90.3533V113.48H94.5169V109.316Z" fill="white" stroke="#9DAFCC" stroke-width="0.6" stroke-linejoin="round"/>
<path d="M102.247 109.316H98.0837V113.48H102.247V109.316Z" fill="white" stroke="#9DAFCC" stroke-width="0.6" stroke-linejoin="round"/>
<path d="M82.583 153.335H102.283" stroke="#9DAFCC" stroke-width="0.6" stroke-linecap="round" stroke-linejoin="round"/>
<path d="M82.583 141.208H102.283" stroke="#9DAFCC" stroke-width="0.6" stroke-linecap="round" stroke-linejoin="round"/>
<path d="M92.4329 137.896C91.4857 137.896 90.5775 138.272 89.9075 138.942C89.238 139.612 88.8616 140.52 88.8616 141.467V161.952H96.0087V141.467C96.0087 140.998 95.9161 140.533 95.7362 140.1C95.5568 139.666 95.2931 139.272 94.961 138.94C94.6288 138.609 94.2348 138.346 93.8009 138.166C93.367 137.987 92.9024 137.895 92.4329 137.896Z" fill="#365DA0" stroke="#9DAFCC" stroke-width="0.6" stroke-miterlimit="10"/>
<path d="M84.7021 113.475V120.798" stroke="#9DAFCC" stroke-width="0.6" stroke-linejoin="round"/>
<path d="M92.4329 113.475V120.798" stroke="#9DAFCC" stroke-width="0.6" stroke-linejoin="round"/>
<path d="M100.163 113.475V120.798" stroke="#9DAFCC" stroke-width="0.6" stroke-linejoin="round"/>
<path d="M77.4016 171.758H107.464" stroke="#9DAFCC" stroke-width="0.6" stroke-linejoin="round"/>
<path d="M108.908 90.9723H14.6133V103.827H108.908V90.9723Z" fill="#E4EBF5" stroke="#9DAFCC" stroke-width="0.6" stroke-linejoin="round"/>
<path d="M61.7603 103.827H69.7278V89.485C69.7278 80.8681 64.4936 81.8114 61.7603 78.398C59.0225 81.8114 53.7883 80.8681 53.7883 89.485V103.827H61.7603Z" fill="#E4EBF5" stroke="#9DAFCC" stroke-width="0.6" stroke-linejoin="round"/>
<path d="M61.7604 85.387C61.1462 85.387 60.5569 85.6311 60.1221 86.0655C59.6878 86.4998 59.4438 87.089 59.4438 87.7037V95.1185H64.0813V87.7037C64.0818 87.3988 64.0221 87.0969 63.9058 86.8153C63.7891 86.5336 63.6185 86.2778 63.4026 86.0628C63.1868 85.8474 62.931 85.6769 62.6489 85.5609C62.3672 85.445 62.0653 85.3859 61.7604 85.387Z" fill="white" stroke="#9DAFCC" stroke-width="0.6" stroke-miterlimit="10"/>
<path d="M28.1133 91.7928V102.998" stroke="white" stroke-width="0.6" stroke-linejoin="round"/>
<path d="M40.1787 91.7928V102.998" stroke="white" stroke-width="0.6" stroke-linejoin="round"/>
<path d="M52.2441 91.7928V102.998" stroke="white" stroke-width="0.6" stroke-linejoin="round"/>
<path d="M16.0479 91.7928V102.998" stroke="white" stroke-width="0.6" stroke-linejoin="round"/>
<path d="M52.2441 104.648V112.725" stroke="white" stroke-width="0.6" stroke-linejoin="round"/>
<path d="M95.6094 91.7928V102.998" stroke="white" stroke-width="0.6" stroke-linejoin="round"/>
<path d="M83.5439 91.7928V102.998" stroke="white" stroke-width="0.6" stroke-linejoin="round"/>
<path d="M71.4785 91.7928V102.998" stroke="white" stroke-width="0.6" stroke-linejoin="round"/>
<path d="M107.675 91.7928V102.998" stroke="white" stroke-width="0.6" stroke-linejoin="round"/>
<path d="M71.4785 104.648V112.725" stroke="white" stroke-width="0.6" stroke-linejoin="round"/>
<path d="M131.152 69.7418C131.984 69.7418 132.782 69.4113 133.37 68.823C133.958 68.2346 134.289 67.4367 134.289 66.6048C134.289 64.2224 132.569 63.9723 131.152 61.4276C129.735 63.9679 128.015 64.2224 128.015 66.6048C128.015 67.4367 128.345 68.2346 128.933 68.823C129.522 69.4113 130.32 69.7418 131.152 69.7418Z" fill="#F25451" stroke="#9DAFCC" stroke-width="0.6" stroke-linejoin="round"/>
<path d="M128.985 74.2167L120.381 105.951H141.857L133.254 74.2167H128.985Z" fill="#F25451" stroke="#9DAFCC" stroke-width="0.6" stroke-miterlimit="10"/>
<path d="M130.423 74.2167L127.497 105.951H134.807L131.876 74.2167H130.423Z" fill="#F25451" stroke="#9DAFCC" stroke-width="0.6" stroke-miterlimit="10"/>
<path d="M133.249 68.8862H128.984V74.2169H133.249V68.8862Z" fill="#F25451" stroke="#9DAFCC" stroke-width="0.6" stroke-miterlimit="10"/>
<path d="M212.367 60.23C213.435 60.23 214.46 59.8056 215.215 59.0503C215.97 58.2949 216.395 57.2705 216.395 56.2023C216.395 53.1311 214.201 52.8152 212.367 49.5598C210.551 52.8152 208.339 53.1443 208.339 56.2023C208.339 56.7312 208.443 57.2549 208.646 57.7436C208.848 58.2323 209.145 58.6763 209.519 59.0503C209.893 59.4243 210.337 59.7209 210.826 59.9234C211.314 60.1258 211.838 60.23 212.367 60.23Z" fill="#F25451" stroke="#9DAFCC" stroke-width="0.6" stroke-linejoin="round"/>
<path d="M209.586 65.9727L198.542 106.71H226.109L215.066 65.9727H209.586Z" fill="#F25451" stroke="#9DAFCC" stroke-width="0.6" stroke-miterlimit="10"/>
<path d="M211.437 65.9727L207.677 106.71H217.062L213.302 65.9727H211.437Z" fill="#F25451" stroke="#9DAFCC" stroke-width="0.6" stroke-miterlimit="10"/>
<path d="M215.061 59.1328H209.585V65.9727H215.061V59.1328Z" fill="#F25451" stroke="#9DAFCC" stroke-width="0.6" stroke-miterlimit="10"/>
<path d="M239.433 134.351H185.218V149.838H239.433V134.351Z" fill="#F25451" stroke="#9DAFCC" stroke-width="0.6" stroke-linejoin="round"/>
<path d="M202.798 104.407C204.06 104.407 205.27 104.907 206.163 105.797C207.056 106.689 207.559 107.897 207.563 109.158V138.115H198.033V109.158C198.037 107.897 198.541 106.689 199.433 105.797C200.327 104.907 201.537 104.407 202.798 104.407Z" fill="white" stroke="#9DAFCC" stroke-width="0.6" stroke-miterlimit="10"/>
<path d="M212.328 104.407C213.589 104.407 214.799 104.907 215.692 105.797C216.585 106.689 217.089 107.897 217.092 109.158V138.115H207.563V109.158C207.566 107.897 208.07 106.689 208.963 105.797C209.856 104.907 211.066 104.407 212.328 104.407Z" fill="white" stroke="#9DAFCC" stroke-width="0.6" stroke-miterlimit="10"/>
<path d="M221.857 104.407C223.116 104.411 224.321 104.914 225.211 105.804C226.1 106.694 226.601 107.9 226.604 109.158V138.115H217.093V109.158C217.096 107.897 217.6 106.689 218.493 105.797C219.386 104.907 220.596 104.407 221.857 104.407Z" fill="white" stroke="#9DAFCC" stroke-width="0.6" stroke-miterlimit="10"/>
<path d="M202.798 114.691C202.383 114.691 201.984 114.856 201.691 115.149C201.397 115.443 201.232 115.842 201.232 116.257V121.268H204.365V116.257C204.365 115.842 204.2 115.443 203.906 115.149C203.612 114.856 203.214 114.691 202.798 114.691Z" fill="#365DA0" stroke="#9DAFCC" stroke-width="0.6" stroke-miterlimit="10"/>
<path d="M212.328 114.691C211.912 114.691 211.514 114.856 211.22 115.149C210.926 115.443 210.761 115.842 210.761 116.257V121.268H213.881V116.257C213.881 115.844 213.718 115.448 213.427 115.154C213.136 114.861 212.741 114.694 212.328 114.691Z" fill="#365DA0" stroke="#9DAFCC" stroke-width="0.6" stroke-miterlimit="10"/>
<path d="M221.857 114.691C221.442 114.691 221.043 114.856 220.75 115.149C220.456 115.443 220.291 115.842 220.291 116.257V121.268H223.424V116.257C223.424 115.842 223.259 115.443 222.965 115.149C222.671 114.856 222.273 114.691 221.857 114.691Z" fill="#365DA0" stroke="#9DAFCC" stroke-width="0.6" stroke-miterlimit="10"/>
<path d="M198.033 111.001H226.622" stroke="#9DAFCC" stroke-width="0.6" stroke-miterlimit="10"/>
<path d="M198.033 128.243H226.622" stroke="#9DAFCC" stroke-width="0.6" stroke-miterlimit="10"/>
<path d="M194.576 133.228C195.243 133.228 195.904 133.097 196.52 132.842C197.137 132.587 197.697 132.214 198.169 131.742C198.64 131.271 199.015 130.711 199.27 130.095C199.525 129.479 199.657 128.818 199.657 128.151C199.657 124.295 196.871 123.882 194.576 119.776C192.286 123.882 189.5 124.295 189.5 128.151C189.5 129.497 190.035 130.789 190.987 131.741C191.939 132.693 193.23 133.228 194.576 133.228Z" fill="#F25451" stroke="#9DAFCC" stroke-width="0.6" stroke-linejoin="round"/>
<path d="M198.033 131.876H191.141V142.893H198.033V131.876Z" fill="white" stroke="#9DAFCC" stroke-width="0.6" stroke-miterlimit="10"/>
<path d="M230.066 133.245C231.412 133.245 232.703 132.71 233.655 131.758C234.607 130.806 235.142 129.515 235.142 128.169C235.142 124.312 232.361 123.9 230.066 119.793C227.776 123.9 224.99 124.312 224.99 128.169C224.99 129.515 225.525 130.806 226.477 131.758C227.429 132.71 228.719 133.245 230.066 133.245Z" fill="#F25451" stroke="#9DAFCC" stroke-width="0.6" stroke-linejoin="round"/>
<path d="M233.514 131.894H226.622V142.911H233.514V131.894Z" fill="white" stroke="#9DAFCC" stroke-width="0.6" stroke-miterlimit="10"/>
<path d="M235.651 145.486C235.61 144.032 235.004 142.652 233.961 141.638C232.919 140.624 231.522 140.057 230.068 140.057C228.614 140.057 227.217 140.624 226.175 141.638C225.132 142.652 224.526 144.032 224.485 145.486H221.467C221.467 143.062 220.504 140.738 218.79 139.024C217.076 137.31 214.751 136.347 212.328 136.347C209.904 136.347 207.579 137.31 205.865 139.024C204.152 140.738 203.189 143.062 203.189 145.486H200.17C200.129 144.032 199.523 142.652 198.48 141.638C197.438 140.624 196.041 140.057 194.587 140.057C193.133 140.057 191.736 140.624 190.694 141.638C189.651 142.652 189.045 144.032 189.004 145.486H185.218V191.234H239.437V145.486H235.651Z" fill="white" stroke="#9DAFCC" stroke-width="0.6" stroke-miterlimit="10"/>
<path d="M230.066 167.62V191.234H194.585V167.62" stroke="#9DAFCC" stroke-width="0.6" stroke-miterlimit="10"/>
<path d="M233.51 169.836L212.328 160.364L191.141 169.836" stroke="#9DAFCC" stroke-width="0.6" stroke-miterlimit="10" stroke-linecap="round"/>
<path d="M218.707 191.234V182.683C218.707 175.79 214.522 176.54 212.337 173.816C210.143 176.549 205.962 175.79 205.962 182.683V191.234H218.707Z" fill="#E4EBF5" stroke="#9DAFCC" stroke-width="0.6" stroke-linejoin="round"/>
<path d="M212.328 179.115C211.938 179.115 211.552 179.191 211.192 179.34C210.832 179.489 210.505 179.707 210.229 179.983C209.954 180.258 209.735 180.585 209.586 180.945C209.438 181.306 209.361 181.691 209.362 182.081V191.234H215.294V182.081C215.294 181.295 214.981 180.54 214.425 179.984C213.869 179.428 213.114 179.115 212.328 179.115Z" fill="#365DA0" stroke="#9DAFCC" stroke-width="0.6" stroke-miterlimit="10"/>
<path d="M224.209 170.837C223.904 170.836 223.603 170.896 223.321 171.012C223.04 171.128 222.783 171.299 222.568 171.514C222.353 171.729 222.181 171.984 222.065 172.266C221.948 172.547 221.888 172.849 221.888 173.153V180.568H226.525V173.153C226.525 172.539 226.282 171.95 225.847 171.515C225.412 171.081 224.823 170.837 224.209 170.837Z" fill="#365DA0" stroke="#9DAFCC" stroke-width="0.6" stroke-miterlimit="10"/>
<path d="M212.328 140.541C211.713 140.541 211.123 140.785 210.688 141.219C210.253 141.654 210.008 142.243 210.007 142.858V148.035H214.644V142.858C214.644 142.243 214.4 141.654 213.966 141.22C213.531 140.785 212.942 140.541 212.328 140.541Z" fill="#365DA0" stroke="#9DAFCC" stroke-width="0.6" stroke-miterlimit="10"/>
<path d="M200.446 170.837C200.142 170.836 199.841 170.896 199.559 171.012C199.278 171.128 199.022 171.299 198.807 171.514C198.592 171.729 198.421 171.985 198.305 172.266C198.189 172.547 198.129 172.849 198.13 173.153V180.568H202.763V173.153C202.763 172.849 202.704 172.547 202.588 172.266C202.472 171.985 202.301 171.729 202.086 171.514C201.871 171.299 201.615 171.128 201.334 171.012C201.052 170.896 200.751 170.836 200.446 170.837Z" fill="#365DA0" stroke="#9DAFCC" stroke-width="0.6" stroke-miterlimit="10"/>
<path d="M230.066 148.926C229.344 148.926 228.65 149.213 228.14 149.724C227.628 150.235 227.342 150.928 227.342 151.65V160.364H232.791V151.65C232.791 151.292 232.72 150.938 232.583 150.607C232.446 150.277 232.246 149.977 231.993 149.724C231.74 149.471 231.439 149.27 231.109 149.133C230.778 148.996 230.424 148.926 230.066 148.926Z" fill="#365DA0" stroke="#9DAFCC" stroke-width="0.6" stroke-miterlimit="10"/>
<path d="M194.576 148.926C193.854 148.926 193.16 149.213 192.65 149.724C192.138 150.235 191.852 150.928 191.852 151.65V160.364H197.305V151.65C197.304 150.927 197.016 150.235 196.504 149.723C195.992 149.213 195.299 148.926 194.576 148.926Z" fill="#365DA0" stroke="#9DAFCC" stroke-width="0.6" stroke-miterlimit="10"/>
<path d="M212.328 160.364C212.762 160.365 213.192 160.282 213.593 160.117C213.994 159.952 214.359 159.709 214.666 159.403C214.974 159.097 215.217 158.733 215.384 158.333C215.551 157.932 215.636 157.503 215.636 157.069C215.636 154.563 213.828 154.296 212.341 151.628C210.849 154.296 209.042 154.563 209.042 157.069C209.043 157.941 209.389 158.777 210.005 159.394C210.621 160.012 211.456 160.36 212.328 160.364Z" fill="#F25451" stroke="#9DAFCC" stroke-width="0.6" stroke-linejoin="round"/>
<path d="M214.219 166.054H210.437V169.836H214.219V166.054Z" fill="#365DA0" stroke="#9DAFCC" stroke-width="0.6" stroke-linejoin="round"/>
<path d="M185.218 170.837H146.034V191.234H185.218V170.837Z" fill="white" stroke="#9DAFCC" stroke-width="0.6" stroke-linejoin="round"/>
<path d="M185.218 150.856H146.034V170.832H185.218V150.856Z" fill="#F25451" stroke="#9DAFCC" stroke-width="0.6" stroke-linejoin="round"/>
<path d="M258.303 160.364H239.438V191.234H258.303V160.364Z" fill="white" stroke="#9DAFCC" stroke-width="0.6" stroke-linejoin="round"/>
<path d="M252.306 170.837H239.438V191.234H252.306V170.837Z" fill="white" stroke="#9DAFCC" stroke-width="0.6" stroke-linejoin="round"/>
<path d="M260.256 160.364L239.438 147.456V160.364H260.256Z" fill="#F25451" stroke="#9DAFCC" stroke-width="0.6" stroke-linejoin="round"/>
<path d="M255.14 170.837L239.438 160.364V170.837H255.14Z" fill="#F25451" stroke="#9DAFCC" stroke-width="0.6" stroke-linejoin="round"/>
<path d="M156.59 175.799C156.225 175.799 155.863 175.871 155.526 176.011C155.189 176.15 154.882 176.355 154.624 176.614C154.367 176.872 154.162 177.179 154.023 177.516C153.883 177.854 153.812 178.215 153.813 178.58V184.78H159.372V178.58C159.372 178.215 159.3 177.853 159.16 177.516C159.02 177.179 158.815 176.872 158.557 176.613C158.298 176.355 157.992 176.15 157.654 176.011C157.317 175.871 156.955 175.799 156.59 175.799Z" fill="#365DA0" stroke="#9DAFCC" stroke-width="0.6" stroke-miterlimit="10"/>
<path d="M165.62 175.799C164.882 175.799 164.174 176.092 163.653 176.613C163.131 177.135 162.838 177.842 162.838 178.58V184.78H168.397V178.58C168.397 177.843 168.104 177.136 167.584 176.615C167.063 176.094 166.357 175.8 165.62 175.799Z" fill="#365DA0" stroke="#9DAFCC" stroke-width="0.6" stroke-miterlimit="10"/>
<path d="M174.662 175.799C174.297 175.799 173.935 175.871 173.598 176.011C173.261 176.15 172.954 176.355 172.696 176.614C172.439 176.872 172.234 177.179 172.095 177.516C171.955 177.854 171.884 178.215 171.885 178.58V184.78H177.439V178.58C177.439 178.215 177.368 177.854 177.229 177.516C177.09 177.179 176.885 176.872 176.627 176.614C176.369 176.355 176.063 176.15 175.726 176.011C175.388 175.871 175.027 175.799 174.662 175.799Z" fill="#365DA0" stroke="#9DAFCC" stroke-width="0.6" stroke-miterlimit="10"/>
<path d="M116.204 191.234H146.034V142.095H116.204V191.234Z" fill="white" stroke="#9DAFCC" stroke-width="0.6" stroke-linejoin="round"/>
<path d="M118.477 135.891H143.757V116.288H118.477V135.891Z" fill="white" stroke="#9DAFCC" stroke-width="0.6" stroke-linejoin="round"/>
<path d="M123.728 102.88C124.708 102.88 125.648 103.269 126.34 103.962C127.033 104.654 127.422 105.594 127.422 106.574V116.288H120.034V106.574C120.034 105.594 120.423 104.654 121.116 103.962C121.809 103.269 122.748 102.88 123.728 102.88Z" fill="#365DA0" stroke="#9DAFCC" stroke-width="0.6" stroke-miterlimit="10"/>
<path d="M131.117 102.88C132.097 102.88 133.037 103.269 133.73 103.961C134.424 104.654 134.814 105.594 134.815 106.574V116.288H127.422V106.574C127.422 105.594 127.812 104.654 128.504 103.962C129.197 103.269 130.137 102.88 131.117 102.88Z" fill="#365DA0" stroke="#9DAFCC" stroke-width="0.6" stroke-miterlimit="10"/>
<path d="M138.509 102.88C139.489 102.88 140.429 103.269 141.122 103.962C141.814 104.654 142.204 105.594 142.204 106.574V116.288H134.815V106.574C134.815 105.594 135.204 104.654 135.897 103.962C136.59 103.269 137.53 102.88 138.509 102.88Z" fill="#365DA0" stroke="#9DAFCC" stroke-width="0.6" stroke-miterlimit="10"/>
<path d="M149.149 142.095H113.049L118.481 135.891H143.757L149.149 142.095Z" fill="#F25451" stroke="#9DAFCC" stroke-width="0.6" stroke-linejoin="round"/>
<path d="M125.738 150.277C125.015 150.277 124.322 150.564 123.811 151.075C123.3 151.586 123.013 152.279 123.013 153.002V165.102H128.462V153.002C128.462 152.644 128.392 152.29 128.255 151.959C128.118 151.628 127.917 151.328 127.664 151.075C127.411 150.822 127.111 150.622 126.78 150.485C126.45 150.348 126.096 150.277 125.738 150.277Z" fill="#365DA0" stroke="#9DAFCC" stroke-width="0.6" stroke-miterlimit="10"/>
<path d="M135.785 150.277C135.062 150.277 134.369 150.564 133.857 151.075C133.345 151.586 133.057 152.279 133.056 153.002V165.102H138.509V153.002C138.509 152.279 138.223 151.586 137.711 151.075C137.201 150.564 136.507 150.277 135.785 150.277Z" fill="#365DA0" stroke="#9DAFCC" stroke-width="0.6" stroke-miterlimit="10"/>
<path d="M125.233 124.045H121.754V135.886H125.233V124.045Z" fill="#E4EBF5" stroke="#9DAFCC" stroke-width="0.6" stroke-miterlimit="10"/>
<path d="M133.069 124.045H129.59V135.886H133.069V124.045Z" fill="#E4EBF5" stroke="#9DAFCC" stroke-width="0.6" stroke-miterlimit="10"/>
<path d="M140.479 124.045H137V135.886H140.479V124.045Z" fill="#E4EBF5" stroke="#9DAFCC" stroke-width="0.6" stroke-miterlimit="10"/>
<path d="M118.477 119.776H143.757" stroke="#9DAFCC" stroke-width="0.6" stroke-linejoin="round"/>
<path d="M140.611 191.234V184.767C140.611 174.733 134.517 175.834 131.332 171.859C128.146 175.834 122.052 174.733 122.052 184.767V191.234H140.611Z" fill="#E4EBF5" stroke="#9DAFCC" stroke-width="0.6" stroke-linejoin="round"/>
<path d="M131.332 179.572C130.186 179.572 129.087 180.026 128.278 180.836C127.467 181.645 127.011 182.743 127.01 183.889V191.234H135.649V183.889C135.648 182.744 135.193 181.647 134.383 180.838C133.574 180.028 132.476 179.573 131.332 179.572Z" fill="#365DA0" stroke="#9DAFCC" stroke-width="0.6" stroke-miterlimit="10"/>
<path d="M116.204 146.184H146.034" stroke="#9DAFCC" stroke-width="0.6" stroke-linejoin="round"/>
<path d="M212.367 49.5595V42" stroke="#9DAFCC" stroke-width="0.6" stroke-linejoin="round"/>
<path d="M214.539 44.8386H210.195" stroke="#9DAFCC" stroke-width="0.6" stroke-linejoin="round"/>
<path d="M131.152 61.4273V53.8722" stroke="#9DAFCC" stroke-width="0.6" stroke-linejoin="round"/>
<path d="M133.324 56.7112H128.98" stroke="#9DAFCC" stroke-width="0.6" stroke-linejoin="round"/>
<path d="M230.066 119.793V112.234" stroke="#9DAFCC" stroke-width="0.6" stroke-linejoin="round"/>
<path d="M232.238 115.077H227.894" stroke="#9DAFCC" stroke-width="0.6" stroke-linejoin="round"/>
<path d="M194.585 119.793V112.234" stroke="#9DAFCC" stroke-width="0.6" stroke-linejoin="round"/>
<path d="M196.757 115.077H192.417" stroke="#9DAFCC" stroke-width="0.6" stroke-linejoin="round"/>
<path d="M78.9723 103.828H44.5486V106.57H78.9723V103.828Z" fill="white" stroke="#9DAFCC" stroke-width="0.6" stroke-linejoin="round"/>
<path d="M239.438 174.311H252.301" stroke="#9DAFCC" stroke-width="0.6" stroke-linejoin="round"/>
<path d="M244.347 163.79H258.299" stroke="#9DAFCC" stroke-width="0.6" stroke-linejoin="round"/>
</g>
</g>
<defs>
<filter id="filter0_dd_202_1228" x="-11.9112" y="-11.9112" width="296.822" height="263.822" filterUnits="userSpaceOnUse" color-interpolation-filters="sRGB">
<feFlood flood-opacity="0" result="BackgroundImageFix"/>
<feColorMatrix in="SourceAlpha" type="matrix" values="0 0 0 0 0 0 0 0 0 0 0 0 0 0 0 0 0 0 127 0" result="hardAlpha"/>
<feOffset/>
<feGaussianBlur stdDeviation="5.95559"/>
<feComposite in2="hardAlpha" operator="out"/>
<feColorMatrix type="matrix" values="0 0 0 0 0.568627 0 0 0 0 0.741176 0 0 0 0 0.866667 0 0 0 1 0"/>
<feBlend mode="normal" in2="BackgroundImageFix" result="effect1_dropShadow_202_1228"/>
<feColorMatrix in="SourceAlpha" type="matrix" values="0 0 0 0 0 0 0 0 0 0 0 0 0 0 0 0 0 0 127 0" result="hardAlpha"/>
<feOffset dy="2.38223"/>
<feGaussianBlur stdDeviation="2.97779"/>
<feComposite in2="hardAlpha" operator="out"/>
<feColorMatrix type="matrix" values="0 0 0 0 0 0 0 0 0 0 0 0 0 0 0 0 0 0 0.1 0"/>
<feBlend mode="normal" in2="effect1_dropShadow_202_1228" result="effect2_dropShadow_202_1228"/>
<feBlend mode="normal" in="SourceGraphic" in2="effect2_dropShadow_202_1228" result="shape"/>
</filter>
<filter id="filter1_dd_202_1228" x="2.40212" y="30.0888" width="270.065" height="173.356" filterUnits="userSpaceOnUse" color-interpolation-filters="sRGB">
<feFlood flood-opacity="0" result="BackgroundImageFix"/>
<feColorMatrix in="SourceAlpha" type="matrix" values="0 0 0 0 0 0 0 0 0 0 0 0 0 0 0 0 0 0 127 0" result="hardAlpha"/>
<feOffset/>
<feGaussianBlur stdDeviation="5.95559"/>
<feComposite in2="hardAlpha" operator="out"/>
<feColorMatrix type="matrix" values="0 0 0 0 0.568627 0 0 0 0 0.741176 0 0 0 0 0.866667 0 0 0 1 0"/>
<feBlend mode="normal" in2="BackgroundImageFix" result="effect1_dropShadow_202_1228"/>
<feColorMatrix in="SourceAlpha" type="matrix" values="0 0 0 0 0 0 0 0 0 0 0 0 0 0 0 0 0 0 127 0" result="hardAlpha"/>
<feOffset dy="2.38223"/>
<feGaussianBlur stdDeviation="2.97779"/>
<feComposite in2="hardAlpha" operator="out"/>
<feColorMatrix type="matrix" values="0 0 0 0 0 0 0 0 0 0 0 0 0 0 0 0 0 0 0.1 0"/>
<feBlend mode="normal" in2="effect1_dropShadow_202_1228" result="effect2_dropShadow_202_1228"/>
<feBlend mode="normal" in="SourceGraphic" in2="effect2_dropShadow_202_1228" result="shape"/>
</filter>
</defs>
</svg>
