<svg width="276" height="240" viewBox="0 0 276 240" fill="none" xmlns="http://www.w3.org/2000/svg">
<g filter="url(#filter0_dd_202_5244)">
<g filter="url(#filter1_dd_202_5244)">
<path d="M101.885 89.8713L13.0325 118.492H190.736L101.885 89.8713Z" fill="#F25451" stroke="#9DAFCC" stroke-width="0.6" stroke-linecap="round" stroke-linejoin="round"/>
<path d="M101.835 126.601C108.638 126.601 114.153 121.112 114.153 114.341C114.153 107.57 108.638 102.081 101.835 102.081C95.0309 102.081 89.5161 107.57 89.5161 114.341C89.5161 121.112 95.0309 126.601 101.835 126.601Z" fill="white" stroke="#9DAFCC" stroke-width="0.6" stroke-linecap="round" stroke-linejoin="round"/>
<path d="M117.676 110.583H85.998V118.492H117.676V110.583Z" fill="white" stroke="#9DAFCC" stroke-width="0.6" stroke-linecap="round" stroke-linejoin="round"/>
<path d="M117.676 110.583H85.998V114.535H117.676V110.583Z" fill="#E4EBF5" stroke="#9DAFCC" stroke-width="0.6" stroke-linecap="round" stroke-linejoin="round"/>
<path d="M108.288 97.6042H95.5037V110.583H108.288V97.6042Z" fill="white" stroke="#9DAFCC" stroke-width="0.6" stroke-linecap="round" stroke-linejoin="round"/>
<path d="M93.5501 110.583H85.998V118.492H93.5501V110.583Z" fill="white" stroke="#9DAFCC" stroke-width="0.6" stroke-linecap="round" stroke-linejoin="round"/>
<path d="M117.676 110.583H110.124V118.492H117.676V110.583Z" fill="white" stroke="#9DAFCC" stroke-width="0.6" stroke-linecap="round" stroke-linejoin="round"/>
<path d="M101.835 115.295C103.536 115.295 104.914 113.923 104.914 112.229C104.914 110.536 103.536 109.163 101.835 109.163C100.134 109.163 98.7551 110.536 98.7551 112.229C98.7551 113.923 100.134 115.295 101.835 115.295Z" fill="white" stroke="#9DAFCC" stroke-width="0.6" stroke-linecap="round" stroke-linejoin="round"/>
<path d="M101.835 106.825C103.823 106.825 105.434 105.221 105.434 103.243C105.434 101.265 103.823 99.6619 101.835 99.6619C99.8468 99.6619 98.2351 101.265 98.2351 103.243C98.2351 105.221 99.8468 106.825 101.835 106.825Z" fill="#365DA0" stroke="#9DAFCC" stroke-width="0.6" stroke-linecap="round" stroke-linejoin="round"/>
<path d="M93.6089 97.6042H110.183" stroke="#9DAFCC" stroke-width="0.6" stroke-linecap="round" stroke-linejoin="round"/>
<path d="M138.804 118.492H64.988V197.463H138.804V118.492Z" fill="#E4EBF5" stroke="#9DAFCC" stroke-width="0.6" stroke-linecap="round" stroke-linejoin="round"/>
<path d="M138.804 118.492H64.988V127.478H138.804V118.492Z" fill="white" stroke="#9DAFCC" stroke-width="0.6" stroke-linecap="round" stroke-linejoin="round"/>
<path d="M138.804 154.634H64.988V159.124H138.804V154.634Z" fill="white" stroke="#9DAFCC" stroke-width="0.6" stroke-linecap="round" stroke-linejoin="round"/>
<path d="M115.844 197.463H138.804V165.401C136.407 164.293 131.681 163.592 127.322 163.592C122.962 163.592 118.241 164.311 115.844 165.401V197.463Z" fill="white" stroke="#9DAFCC" stroke-width="0.6" stroke-linejoin="round"/>
<path d="M119.724 197.463H134.919V168.141C133.205 167.309 130.446 166.785 127.322 166.785C124.197 166.785 121.443 167.327 119.724 168.141V197.463Z" fill="#365DA0" stroke="#9DAFCC" stroke-width="0.6" stroke-linejoin="round"/>
<path d="M64.979 197.463H87.9336V165.401C85.5369 164.293 80.8157 163.592 76.4563 163.592C72.0969 163.592 67.3758 164.311 64.979 165.401V197.463Z" fill="white" stroke="#9DAFCC" stroke-width="0.6" stroke-linejoin="round"/>
<path d="M68.8679 197.463H84.0625V168.141C82.3486 167.309 79.59 166.785 76.4652 166.785C73.3404 166.785 70.5863 167.327 68.8679 168.141V197.463Z" fill="#365DA0" stroke="#9DAFCC" stroke-width="0.6" stroke-linejoin="round"/>
<path d="M115.844 191.779H87.9424V197.459H115.844V191.779Z" fill="#365DA0" stroke="#9DAFCC" stroke-width="0.6" stroke-linejoin="round"/>
<path d="M104.2 127.478H99.6326V130.494H104.2V127.478Z" fill="white" stroke="#9DAFCC" stroke-width="0.6" stroke-linecap="round" stroke-linejoin="round"/>
<path d="M129.605 127.478H125.038V130.494H129.605V127.478Z" fill="white" stroke="#9DAFCC" stroke-width="0.6" stroke-linecap="round" stroke-linejoin="round"/>
<path d="M78.7491 127.478H74.1816V130.494H78.7491V127.478Z" fill="white" stroke="#9DAFCC" stroke-width="0.6" stroke-linecap="round" stroke-linejoin="round"/>
<path d="M138.804 136.576H64.988V140.845H138.804V136.576Z" fill="white" stroke="#9DAFCC" stroke-width="0.6" stroke-linecap="round" stroke-linejoin="round"/>
<path d="M101.894 129.856C101.056 129.855 100.227 130.018 99.4524 130.337C98.6778 130.656 97.9741 131.124 97.3808 131.715C96.7875 132.305 96.3163 133.007 95.9939 133.78C95.6719 134.553 95.5055 135.382 95.5037 136.219V154.634H108.288V136.219C108.283 134.528 107.607 132.908 106.408 131.714C105.209 130.521 103.585 129.853 101.894 129.856Z" fill="white" stroke="#9DAFCC" stroke-width="0.6" stroke-linecap="round" stroke-linejoin="round"/>
<path d="M101.893 133.176C100.992 133.174 100.128 133.531 99.489 134.167C98.8505 134.803 98.4905 135.666 98.4883 136.567V150.541H105.303V136.567C105.302 136.121 105.213 135.679 105.04 135.267C104.869 134.854 104.617 134.48 104.301 134.165C103.984 133.851 103.608 133.601 103.195 133.431C102.782 133.261 102.34 133.174 101.893 133.176Z" fill="#365DA0" stroke="#9DAFCC" stroke-width="0.6" stroke-miterlimit="10" stroke-linecap="round"/>
<path d="M105.303 137.811H98.4883" stroke="#9DAFCC" stroke-width="0.6" stroke-linecap="round" stroke-linejoin="round"/>
<path d="M101.894 150.55V137.811" stroke="#9DAFCC" stroke-width="0.6" stroke-linecap="round" stroke-linejoin="round"/>
<path d="M98.4883 141.483H105.303" stroke="#9DAFCC" stroke-width="0.6" stroke-linecap="round" stroke-linejoin="round"/>
<path d="M127.322 129.856C126.484 129.855 125.655 130.018 124.881 130.337C124.106 130.656 123.402 131.124 122.809 131.715C122.216 132.305 121.745 133.007 121.422 133.78C121.1 134.553 120.934 135.382 120.932 136.219V154.634H133.716V136.219C133.711 134.528 133.035 132.908 131.836 131.714C130.637 130.521 129.013 129.853 127.322 129.856Z" fill="white" stroke="#9DAFCC" stroke-width="0.6" stroke-linecap="round" stroke-linejoin="round"/>
<path d="M127.322 133.176C126.42 133.174 125.556 133.531 124.917 134.167C124.279 134.803 123.919 135.666 123.917 136.567V150.541H130.731V136.567C130.73 136.121 130.641 135.679 130.469 135.267C130.297 134.854 130.045 134.48 129.729 134.165C129.412 133.851 129.037 133.601 128.624 133.431C128.211 133.261 127.768 133.174 127.322 133.176Z" fill="#365DA0" stroke="#9DAFCC" stroke-width="0.6" stroke-miterlimit="10" stroke-linecap="round"/>
<path d="M130.731 137.811H123.917" stroke="#9DAFCC" stroke-width="0.6" stroke-linecap="round" stroke-linejoin="round"/>
<path d="M127.322 150.55V137.811" stroke="#9DAFCC" stroke-width="0.6" stroke-linecap="round" stroke-linejoin="round"/>
<path d="M123.917 141.483H130.731" stroke="#9DAFCC" stroke-width="0.6" stroke-linecap="round" stroke-linejoin="round"/>
<path d="M76.4653 129.856C75.6278 129.855 74.7984 130.018 74.0242 130.337C73.2496 130.656 72.5459 131.124 71.9526 131.715C71.3593 132.305 70.8881 133.007 70.5656 133.78C70.2437 134.553 70.0772 135.382 70.0754 136.219V154.634H82.8597V136.219C82.8547 134.528 82.1786 132.908 80.9793 131.714C79.7805 130.521 78.1566 129.853 76.4653 129.856Z" fill="white" stroke="#9DAFCC" stroke-width="0.6" stroke-linecap="round" stroke-linejoin="round"/>
<path d="M76.4653 133.176C75.564 133.174 74.6993 133.531 74.0608 134.167C73.4223 134.803 73.0623 135.666 73.0601 136.567V150.541H79.875V136.567C79.8736 136.121 79.7845 135.679 79.6127 135.267C79.4404 134.854 79.189 134.48 78.8724 134.165C78.5559 133.851 78.1801 133.601 77.7672 133.431C77.3543 133.261 76.9116 133.174 76.4653 133.176Z" fill="#365DA0" stroke="#9DAFCC" stroke-width="0.6" stroke-miterlimit="10" stroke-linecap="round"/>
<path d="M79.875 137.811H73.0601" stroke="#9DAFCC" stroke-width="0.6" stroke-linecap="round" stroke-linejoin="round"/>
<path d="M76.4653 150.55V137.811" stroke="#9DAFCC" stroke-width="0.6" stroke-linecap="round" stroke-linejoin="round"/>
<path d="M73.0601 141.483H79.875" stroke="#9DAFCC" stroke-width="0.6" stroke-linecap="round" stroke-linejoin="round"/>
<path d="M116.523 127.478H111.395V154.638H116.523V127.478Z" fill="white" stroke="#9DAFCC" stroke-width="0.6" stroke-linecap="round" stroke-linejoin="round"/>
<path d="M116.523 159.124H111.395V162.945H116.523V159.124Z" fill="white" stroke="#9DAFCC" stroke-width="0.6" stroke-linecap="round" stroke-linejoin="round"/>
<path d="M92.3969 127.478H87.2688V154.638H92.3969V127.478Z" fill="white" stroke="#9DAFCC" stroke-width="0.6" stroke-linecap="round" stroke-linejoin="round"/>
<path d="M92.3969 159.124H87.2688V162.945H92.3969V159.124Z" fill="white" stroke="#9DAFCC" stroke-width="0.6" stroke-linecap="round" stroke-linejoin="round"/>
<path d="M91.8271 191.779H111.96V165.401C109.857 164.293 105.719 163.592 101.894 163.592C98.0678 163.592 93.93 164.311 91.8271 165.401V191.779Z" fill="white" stroke="#9DAFCC" stroke-width="0.6" stroke-linejoin="round"/>
<path d="M95.2324 187.998H108.559V168.141C107.053 167.309 104.634 166.785 101.894 166.785C99.1532 166.785 96.7383 167.327 95.2324 168.141V187.998Z" fill="#365DA0" stroke="#9DAFCC" stroke-width="0.6" stroke-linejoin="round"/>
<path d="M95.5037 175.729H108.559" stroke="#9DAFCC" stroke-width="0.6" stroke-miterlimit="10" stroke-linecap="round"/>
<path d="M99.8811 187.998V175.729" stroke="#9DAFCC" stroke-width="0.6" stroke-miterlimit="10" stroke-linecap="round"/>
<path d="M104.516 187.998V175.729" stroke="#9DAFCC" stroke-width="0.6" stroke-miterlimit="10" stroke-linecap="round"/>
<path d="M183.234 118.492H138.804V197.463H183.234V118.492Z" fill="#E4EBF5" stroke="#9DAFCC" stroke-width="0.6" stroke-linecap="round" stroke-linejoin="round"/>
<path d="M159.352 154.634V136.219C159.352 132.706 156.933 129.436 152.958 128.174C148.978 129.431 146.563 132.696 146.563 136.219V154.634H159.352Z" fill="white" stroke="#9DAFCC" stroke-width="0.6" stroke-linecap="round" stroke-linejoin="round"/>
<path d="M152.958 133.176C152.057 133.174 151.192 133.531 150.553 134.167C149.915 134.803 149.555 135.666 149.553 136.567V150.541H156.363V136.567C156.36 135.666 156 134.803 155.362 134.167C154.724 133.531 153.859 133.174 152.958 133.176Z" fill="#365DA0" stroke="#9DAFCC" stroke-width="0.6" stroke-miterlimit="10" stroke-linecap="round"/>
<path d="M156.363 137.811H149.553" stroke="#9DAFCC" stroke-width="0.6" stroke-linecap="round" stroke-linejoin="round"/>
<path d="M152.958 150.55V137.811" stroke="#9DAFCC" stroke-width="0.6" stroke-linecap="round" stroke-linejoin="round"/>
<path d="M149.553 141.483H156.363" stroke="#9DAFCC" stroke-width="0.6" stroke-linecap="round" stroke-linejoin="round"/>
<path d="M175.47 154.634V136.219C175.47 132.706 173.05 129.436 169.075 128.174C165.096 129.431 162.681 132.696 162.681 136.219V154.634H175.47Z" fill="white" stroke="#9DAFCC" stroke-width="0.6" stroke-linecap="round" stroke-linejoin="round"/>
<path d="M169.075 133.176C168.174 133.174 167.309 133.531 166.671 134.167C166.032 134.803 165.672 135.666 165.67 136.567V150.541H172.48V136.567C172.478 135.666 172.118 134.803 171.479 134.167C170.841 133.531 169.976 133.174 169.075 133.176Z" fill="#365DA0" stroke="#9DAFCC" stroke-width="0.6" stroke-miterlimit="10" stroke-linecap="round"/>
<path d="M172.48 137.811H165.67" stroke="#9DAFCC" stroke-width="0.6" stroke-linecap="round" stroke-linejoin="round"/>
<path d="M169.075 150.55V137.811" stroke="#9DAFCC" stroke-width="0.6" stroke-linecap="round" stroke-linejoin="round"/>
<path d="M165.67 141.483H172.48" stroke="#9DAFCC" stroke-width="0.6" stroke-linecap="round" stroke-linejoin="round"/>
<path d="M150.95 191.779H171.083V165.401C168.98 164.293 164.838 163.592 161.017 163.592C157.195 163.592 153.053 164.311 150.95 165.401V191.779Z" fill="white" stroke="#9DAFCC" stroke-width="0.6" stroke-linejoin="round"/>
<path d="M154.355 187.998H167.678V168.141C166.172 167.309 163.752 166.785 161.016 166.785C158.28 166.785 155.857 167.327 154.355 168.141V187.998Z" fill="#365DA0" stroke="#9DAFCC" stroke-width="0.6" stroke-linejoin="round"/>
<path d="M154.622 175.729H167.678" stroke="#9DAFCC" stroke-width="0.6" stroke-miterlimit="10" stroke-linecap="round"/>
<path d="M159.004 187.998V175.729" stroke="#9DAFCC" stroke-width="0.6" stroke-miterlimit="10" stroke-linecap="round"/>
<path d="M163.635 187.998V175.729" stroke="#9DAFCC" stroke-width="0.6" stroke-miterlimit="10" stroke-linecap="round"/>
<path d="M143.43 127.478H138.804V191.783H143.43V127.478Z" fill="white" stroke="#9DAFCC" stroke-width="0.6" stroke-linecap="round" stroke-linejoin="round"/>
<path d="M183.234 118.492H138.804V127.478H183.234V118.492Z" fill="white" stroke="#9DAFCC" stroke-width="0.6" stroke-linecap="round" stroke-linejoin="round"/>
<path d="M183.234 191.779H138.804V197.459H183.234V191.779Z" fill="#365DA0" stroke="#9DAFCC" stroke-width="0.6" stroke-linejoin="round"/>
<path d="M183.234 127.478H178.608V191.783H183.234V127.478Z" fill="white" stroke="#9DAFCC" stroke-width="0.6" stroke-linecap="round" stroke-linejoin="round"/>
<path d="M183.234 154.634H138.804V159.124H183.234V154.634Z" fill="white" stroke="#9DAFCC" stroke-width="0.6" stroke-linecap="round" stroke-linejoin="round"/>
<path d="M178.608 159.626H183.23" stroke="#9DAFCC" stroke-width="0.6" stroke-linecap="round" stroke-linejoin="round"/>
<path d="M178.608 163.198H183.23" stroke="#9DAFCC" stroke-width="0.6" stroke-linecap="round" stroke-linejoin="round"/>
<path d="M178.608 166.771H183.23" stroke="#9DAFCC" stroke-width="0.6" stroke-linecap="round" stroke-linejoin="round"/>
<path d="M178.608 170.344H183.23" stroke="#9DAFCC" stroke-width="0.6" stroke-linecap="round" stroke-linejoin="round"/>
<path d="M178.608 173.916H183.23" stroke="#9DAFCC" stroke-width="0.6" stroke-linecap="round" stroke-linejoin="round"/>
<path d="M178.608 177.489H183.23" stroke="#9DAFCC" stroke-width="0.6" stroke-linecap="round" stroke-linejoin="round"/>
<path d="M178.608 181.061H183.23" stroke="#9DAFCC" stroke-width="0.6" stroke-linecap="round" stroke-linejoin="round"/>
<path d="M178.608 184.634H183.23" stroke="#9DAFCC" stroke-width="0.6" stroke-linecap="round" stroke-linejoin="round"/>
<path d="M178.608 188.206H183.23" stroke="#9DAFCC" stroke-width="0.6" stroke-linecap="round" stroke-linejoin="round"/>
<path d="M138.804 163.198H143.425" stroke="#9DAFCC" stroke-width="0.6" stroke-linecap="round" stroke-linejoin="round"/>
<path d="M138.804 166.771H143.425" stroke="#9DAFCC" stroke-width="0.6" stroke-linecap="round" stroke-linejoin="round"/>
<path d="M138.804 170.344H143.425" stroke="#9DAFCC" stroke-width="0.6" stroke-linecap="round" stroke-linejoin="round"/>
<path d="M138.804 173.916H143.425" stroke="#9DAFCC" stroke-width="0.6" stroke-linecap="round" stroke-linejoin="round"/>
<path d="M138.804 177.489H143.425" stroke="#9DAFCC" stroke-width="0.6" stroke-linecap="round" stroke-linejoin="round"/>
<path d="M138.804 181.061H143.425" stroke="#9DAFCC" stroke-width="0.6" stroke-linecap="round" stroke-linejoin="round"/>
<path d="M138.804 184.634H143.425" stroke="#9DAFCC" stroke-width="0.6" stroke-linecap="round" stroke-linejoin="round"/>
<path d="M138.804 188.206H143.425" stroke="#9DAFCC" stroke-width="0.6" stroke-linecap="round" stroke-linejoin="round"/>
<path d="M64.988 118.492H20.5574V197.463H64.988V118.492Z" fill="#E4EBF5" stroke="#9DAFCC" stroke-width="0.6" stroke-linecap="round" stroke-linejoin="round"/>
<path d="M41.1062 154.634V136.219C41.1062 132.706 38.6914 129.436 34.7164 128.174C30.7369 129.431 28.322 132.696 28.322 136.219V154.634H41.1062Z" fill="white" stroke="#9DAFCC" stroke-width="0.6" stroke-linecap="round" stroke-linejoin="round"/>
<path d="M34.7164 133.176C34.2698 133.174 33.8273 133.261 33.4142 133.431C33.0012 133.601 32.6257 133.851 32.309 134.165C31.9924 134.48 31.741 134.854 31.5689 135.267C31.3969 135.679 31.3078 136.121 31.3066 136.567V150.541H38.1216V136.567C38.1192 135.666 37.7592 134.803 37.1207 134.167C36.4822 133.531 35.6175 133.174 34.7164 133.176Z" fill="#365DA0" stroke="#9DAFCC" stroke-width="0.6" stroke-miterlimit="10" stroke-linecap="round"/>
<path d="M38.1216 137.811H31.3066" stroke="#9DAFCC" stroke-width="0.6" stroke-linecap="round" stroke-linejoin="round"/>
<path d="M34.7163 150.55V137.811" stroke="#9DAFCC" stroke-width="0.6" stroke-linecap="round" stroke-linejoin="round"/>
<path d="M31.3066 141.483H38.1216" stroke="#9DAFCC" stroke-width="0.6" stroke-linecap="round" stroke-linejoin="round"/>
<path d="M57.2234 154.634V136.219C57.2234 132.706 54.8085 129.436 50.8333 128.174C46.8538 129.431 44.439 132.696 44.439 136.219V154.634H57.2234Z" fill="white" stroke="#9DAFCC" stroke-width="0.6" stroke-linecap="round" stroke-linejoin="round"/>
<path d="M50.8333 133.176C50.3867 133.174 49.9443 133.261 49.5312 133.431C49.1182 133.601 48.7427 133.851 48.426 134.165C48.1094 134.48 47.8579 134.854 47.6859 135.267C47.5139 135.679 47.4248 136.121 47.4236 136.567V150.541H54.2387V136.567C54.236 135.666 53.876 134.803 53.2375 134.167C52.5994 133.531 51.7345 133.174 50.8333 133.176Z" fill="#365DA0" stroke="#9DAFCC" stroke-width="0.6" stroke-miterlimit="10" stroke-linecap="round"/>
<path d="M54.2387 137.811H47.4236" stroke="#9DAFCC" stroke-width="0.6" stroke-linecap="round" stroke-linejoin="round"/>
<path d="M50.8335 150.55V137.811" stroke="#9DAFCC" stroke-width="0.6" stroke-linecap="round" stroke-linejoin="round"/>
<path d="M47.4236 141.483H54.2387" stroke="#9DAFCC" stroke-width="0.6" stroke-linecap="round" stroke-linejoin="round"/>
<path d="M32.7085 191.779H52.8369V165.401C50.7384 164.293 46.5961 163.592 42.7749 163.592C38.9536 163.592 34.8113 164.311 32.7085 165.401V191.779Z" fill="white" stroke="#9DAFCC" stroke-width="0.6" stroke-linejoin="round"/>
<path d="M36.1091 187.998H49.436V168.141C47.9301 167.309 45.5107 166.785 42.7748 166.785C40.0389 166.785 37.615 167.327 36.1091 168.141V187.998Z" fill="#365DA0" stroke="#9DAFCC" stroke-width="0.6" stroke-linejoin="round"/>
<path d="M36.3804 175.729H49.4359" stroke="#9DAFCC" stroke-width="0.6" stroke-miterlimit="10" stroke-linecap="round"/>
<path d="M40.7625 187.998V175.729" stroke="#9DAFCC" stroke-width="0.6" stroke-miterlimit="10" stroke-linecap="round"/>
<path d="M45.3931 187.998V175.729" stroke="#9DAFCC" stroke-width="0.6" stroke-miterlimit="10" stroke-linecap="round"/>
<path d="M25.1836 127.478H20.5574V191.783H25.1836V127.478Z" fill="white" stroke="#9DAFCC" stroke-width="0.6" stroke-linecap="round" stroke-linejoin="round"/>
<path d="M64.988 118.492H20.5574V127.478H64.988V118.492Z" fill="white" stroke="#9DAFCC" stroke-width="0.6" stroke-linecap="round" stroke-linejoin="round"/>
<path d="M64.988 191.779H20.5574V197.459H64.988V191.779Z" fill="#365DA0" stroke="#9DAFCC" stroke-width="0.6" stroke-linejoin="round"/>
<path d="M64.988 127.478H60.3618V191.783H64.988V127.478Z" fill="white" stroke="#9DAFCC" stroke-width="0.6" stroke-linecap="round" stroke-linejoin="round"/>
<path d="M64.988 154.634H20.5574V159.124H64.988V154.634Z" fill="white" stroke="#9DAFCC" stroke-width="0.6" stroke-linecap="round" stroke-linejoin="round"/>
<path d="M66.4488 154.634H58.8967V159.626H66.4488V154.634Z" fill="white" stroke="#9DAFCC" stroke-width="0.6" stroke-linecap="round" stroke-linejoin="round"/>
<path d="M26.6034 154.634H19.0469V159.626H26.6034V154.634Z" fill="white" stroke="#9DAFCC" stroke-width="0.6" stroke-linecap="round" stroke-linejoin="round"/>
<path d="M60.3618 163.198H64.988" stroke="#9DAFCC" stroke-width="0.6" stroke-linecap="round" stroke-linejoin="round"/>
<path d="M60.3618 166.771H64.988" stroke="#9DAFCC" stroke-width="0.6" stroke-linecap="round" stroke-linejoin="round"/>
<path d="M60.3618 170.344H64.988" stroke="#9DAFCC" stroke-width="0.6" stroke-linecap="round" stroke-linejoin="round"/>
<path d="M60.3618 173.916H64.988" stroke="#9DAFCC" stroke-width="0.6" stroke-linecap="round" stroke-linejoin="round"/>
<path d="M60.3618 177.489H64.988" stroke="#9DAFCC" stroke-width="0.6" stroke-linecap="round" stroke-linejoin="round"/>
<path d="M60.3618 181.061H64.988" stroke="#9DAFCC" stroke-width="0.6" stroke-linecap="round" stroke-linejoin="round"/>
<path d="M60.3618 184.634H64.988" stroke="#9DAFCC" stroke-width="0.6" stroke-linecap="round" stroke-linejoin="round"/>
<path d="M60.3618 188.206H64.988" stroke="#9DAFCC" stroke-width="0.6" stroke-linecap="round" stroke-linejoin="round"/>
<path d="M20.5574 163.198H25.1836" stroke="#9DAFCC" stroke-width="0.6" stroke-linecap="round" stroke-linejoin="round"/>
<path d="M20.5574 166.771H25.1836" stroke="#9DAFCC" stroke-width="0.6" stroke-linecap="round" stroke-linejoin="round"/>
<path d="M20.5574 170.344H25.1836" stroke="#9DAFCC" stroke-width="0.6" stroke-linecap="round" stroke-linejoin="round"/>
<path d="M20.5574 173.916H25.1836" stroke="#9DAFCC" stroke-width="0.6" stroke-linecap="round" stroke-linejoin="round"/>
<path d="M20.5574 177.489H25.1836" stroke="#9DAFCC" stroke-width="0.6" stroke-linecap="round" stroke-linejoin="round"/>
<path d="M20.5574 181.061H25.1836" stroke="#9DAFCC" stroke-width="0.6" stroke-linecap="round" stroke-linejoin="round"/>
<path d="M20.5574 184.634H25.1836" stroke="#9DAFCC" stroke-width="0.6" stroke-linecap="round" stroke-linejoin="round"/>
<path d="M20.5574 188.206H25.1836" stroke="#9DAFCC" stroke-width="0.6" stroke-linecap="round" stroke-linejoin="round"/>
<path d="M178.608 191.779H183.23" stroke="#9DAFCC" stroke-width="0.6" stroke-linecap="round" stroke-linejoin="round"/>
<path d="M93.6089 154.634H86.0569V159.626H93.6089V154.634Z" fill="white" stroke="#9DAFCC" stroke-width="0.6" stroke-linecap="round" stroke-linejoin="round"/>
<path d="M117.735 154.634H110.183V159.626H117.735V154.634Z" fill="white" stroke="#9DAFCC" stroke-width="0.6" stroke-linecap="round" stroke-linejoin="round"/>
<path d="M144.89 154.634H137.338V159.626H144.89V154.634Z" fill="white" stroke="#9DAFCC" stroke-width="0.6" stroke-linecap="round" stroke-linejoin="round"/>
<path d="M92.397 123.824H111.395" stroke="#9DAFCC" stroke-width="0.6" stroke-linejoin="round"/>
<path d="M116.523 123.824H135.52" stroke="#9DAFCC" stroke-width="0.6" stroke-linejoin="round"/>
<path d="M68.271 123.824H87.2687" stroke="#9DAFCC" stroke-width="0.6" stroke-linejoin="round"/>
<path d="M184.695 154.634H177.138V159.626H184.695V154.634Z" fill="white" stroke="#9DAFCC" stroke-width="0.6" stroke-linecap="round" stroke-linejoin="round"/>
<path d="M183.216 110.583H176.062V117.701H183.216V110.583Z" fill="white" stroke="#9DAFCC" stroke-width="0.6" stroke-miterlimit="10" stroke-linecap="round"/>
<path d="M179.639 112.817V115.336" stroke="#9DAFCC" stroke-width="0.6" stroke-linejoin="round"/>
<path d="M174.461 110.583H184.817" stroke="#9DAFCC" stroke-width="0.6" stroke-miterlimit="10" stroke-linecap="round"/>
<path d="M27.7068 110.583H20.5527V117.701H27.7068V110.583Z" fill="white" stroke="#9DAFCC" stroke-width="0.6" stroke-miterlimit="10" stroke-linecap="round"/>
<path d="M24.1299 112.817V115.336" stroke="#9DAFCC" stroke-width="0.6" stroke-linejoin="round"/>
<path d="M18.9519 110.583H29.3077" stroke="#9DAFCC" stroke-width="0.6" stroke-miterlimit="10" stroke-linecap="round"/>
<path d="M64.988 118.492V120.903" stroke="#9DAFCC" stroke-width="0.6" stroke-linejoin="round"/>
<path d="M67.9412 118.492V120.903" stroke="#9DAFCC" stroke-width="0.6" stroke-linejoin="round"/>
<path d="M70.8938 118.492V120.903" stroke="#9DAFCC" stroke-width="0.6" stroke-linejoin="round"/>
<path d="M73.8469 118.492V120.903" stroke="#9DAFCC" stroke-width="0.6" stroke-linejoin="round"/>
<path d="M76.7998 118.492V120.903" stroke="#9DAFCC" stroke-width="0.6" stroke-linejoin="round"/>
<path d="M79.7529 118.492V120.903" stroke="#9DAFCC" stroke-width="0.6" stroke-linejoin="round"/>
<path d="M82.7014 118.492V120.903" stroke="#9DAFCC" stroke-width="0.6" stroke-linejoin="round"/>
<path d="M85.6543 118.492V120.903" stroke="#9DAFCC" stroke-width="0.6" stroke-linejoin="round"/>
<path d="M88.6074 118.492V120.903" stroke="#9DAFCC" stroke-width="0.6" stroke-linejoin="round"/>
<path d="M91.5603 118.492V120.903" stroke="#9DAFCC" stroke-width="0.6" stroke-linejoin="round"/>
<path d="M94.5132 118.492V120.903" stroke="#9DAFCC" stroke-width="0.6" stroke-linejoin="round"/>
<path d="M97.4663 118.492V120.903" stroke="#9DAFCC" stroke-width="0.6" stroke-linejoin="round"/>
<path d="M100.419 118.492V120.903" stroke="#9DAFCC" stroke-width="0.6" stroke-linejoin="round"/>
<path d="M103.372 118.492V120.903" stroke="#9DAFCC" stroke-width="0.6" stroke-linejoin="round"/>
<path d="M106.325 118.492V120.903" stroke="#9DAFCC" stroke-width="0.6" stroke-linejoin="round"/>
<path d="M109.278 118.492V120.903" stroke="#9DAFCC" stroke-width="0.6" stroke-linejoin="round"/>
<path d="M112.227 118.492V120.903" stroke="#9DAFCC" stroke-width="0.6" stroke-linejoin="round"/>
<path d="M115.18 118.492V120.903" stroke="#9DAFCC" stroke-width="0.6" stroke-linejoin="round"/>
<path d="M118.133 118.492V120.903" stroke="#9DAFCC" stroke-width="0.6" stroke-linejoin="round"/>
<path d="M121.086 118.492V120.903" stroke="#9DAFCC" stroke-width="0.6" stroke-linejoin="round"/>
<path d="M124.039 118.492V120.903" stroke="#9DAFCC" stroke-width="0.6" stroke-linejoin="round"/>
<path d="M126.992 118.492V120.903" stroke="#9DAFCC" stroke-width="0.6" stroke-linejoin="round"/>
<path d="M129.945 118.492V120.903" stroke="#9DAFCC" stroke-width="0.6" stroke-linejoin="round"/>
<path d="M132.898 118.492V120.903" stroke="#9DAFCC" stroke-width="0.6" stroke-linejoin="round"/>
<path d="M135.851 118.492V120.903" stroke="#9DAFCC" stroke-width="0.6" stroke-linejoin="round"/>
<path d="M138.804 118.492V120.903" stroke="#9DAFCC" stroke-width="0.6" stroke-linejoin="round"/>
<path d="M138.804 118.492V120.903" stroke="#9DAFCC" stroke-width="0.6" stroke-linejoin="round"/>
<path d="M141.752 118.492V120.903" stroke="#9DAFCC" stroke-width="0.6" stroke-linejoin="round"/>
<path d="M144.705 118.492V120.903" stroke="#9DAFCC" stroke-width="0.6" stroke-linejoin="round"/>
<path d="M147.658 118.492V120.903" stroke="#9DAFCC" stroke-width="0.6" stroke-linejoin="round"/>
<path d="M150.611 118.492V120.903" stroke="#9DAFCC" stroke-width="0.6" stroke-linejoin="round"/>
<path d="M153.564 118.492V120.903" stroke="#9DAFCC" stroke-width="0.6" stroke-linejoin="round"/>
<path d="M156.517 118.492V120.903" stroke="#9DAFCC" stroke-width="0.6" stroke-linejoin="round"/>
<path d="M159.47 118.492V120.903" stroke="#9DAFCC" stroke-width="0.6" stroke-linejoin="round"/>
<path d="M162.423 118.492V120.903" stroke="#9DAFCC" stroke-width="0.6" stroke-linejoin="round"/>
<path d="M165.376 118.492V120.903" stroke="#9DAFCC" stroke-width="0.6" stroke-linejoin="round"/>
<path d="M168.329 118.492V120.903" stroke="#9DAFCC" stroke-width="0.6" stroke-linejoin="round"/>
<path d="M171.277 118.492V120.903" stroke="#9DAFCC" stroke-width="0.6" stroke-linejoin="round"/>
<path d="M174.23 118.492V120.903" stroke="#9DAFCC" stroke-width="0.6" stroke-linejoin="round"/>
<path d="M177.183 118.492V120.903" stroke="#9DAFCC" stroke-width="0.6" stroke-linejoin="round"/>
<path d="M180.136 118.492V120.903" stroke="#9DAFCC" stroke-width="0.6" stroke-linejoin="round"/>
<path d="M183.229 118.492V120.903" stroke="#9DAFCC" stroke-width="0.6" stroke-linejoin="round"/>
<path d="M20.5574 118.492V120.903" stroke="#9DAFCC" stroke-width="0.6" stroke-linejoin="round"/>
<path d="M23.5105 118.492V120.903" stroke="#9DAFCC" stroke-width="0.6" stroke-linejoin="round"/>
<path d="M26.4634 118.492V120.903" stroke="#9DAFCC" stroke-width="0.6" stroke-linejoin="round"/>
<path d="M29.4163 118.492V120.903" stroke="#9DAFCC" stroke-width="0.6" stroke-linejoin="round"/>
<path d="M32.3694 118.492V120.903" stroke="#9DAFCC" stroke-width="0.6" stroke-linejoin="round"/>
<path d="M35.3223 118.492V120.903" stroke="#9DAFCC" stroke-width="0.6" stroke-linejoin="round"/>
<path d="M38.2754 118.492V120.903" stroke="#9DAFCC" stroke-width="0.6" stroke-linejoin="round"/>
<path d="M41.2285 118.492V120.903" stroke="#9DAFCC" stroke-width="0.6" stroke-linejoin="round"/>
<path d="M44.1768 118.492V120.903" stroke="#9DAFCC" stroke-width="0.6" stroke-linejoin="round"/>
<path d="M47.1296 118.492V120.903" stroke="#9DAFCC" stroke-width="0.6" stroke-linejoin="round"/>
<path d="M50.0825 118.492V120.903" stroke="#9DAFCC" stroke-width="0.6" stroke-linejoin="round"/>
<path d="M53.0359 118.492V120.903" stroke="#9DAFCC" stroke-width="0.6" stroke-linejoin="round"/>
<path d="M55.9888 118.492V120.903" stroke="#9DAFCC" stroke-width="0.6" stroke-linejoin="round"/>
<path d="M58.9419 118.492V120.903" stroke="#9DAFCC" stroke-width="0.6" stroke-linejoin="round"/>
<path d="M61.8948 118.492V120.903" stroke="#9DAFCC" stroke-width="0.6" stroke-linejoin="round"/>
<path d="M64.988 118.492V120.903" stroke="#9DAFCC" stroke-width="0.6" stroke-linejoin="round"/>
<path d="M256.295 108.58H157.72V134.162H256.295V108.58Z" fill="#F25451" stroke="#9DAFCC" stroke-width="0.6" stroke-linecap="round" stroke-linejoin="round"/>
<path d="M235.827 96.7993H178.545V122.381H235.827V96.7993Z" fill="#F25451" stroke="#9DAFCC" stroke-width="0.6" stroke-linecap="round" stroke-linejoin="round"/>
<path d="M256.295 134.162H157.72V206.779H256.295V134.162Z" fill="white" stroke="#9DAFCC" stroke-width="0.6" stroke-linecap="round" stroke-linejoin="round"/>
<path d="M229.926 116.417C227.803 116.414 225.701 116.83 223.74 117.641C221.779 118.451 219.996 119.64 218.495 121.14C216.994 122.64 215.802 124.421 214.99 126.382C214.177 128.342 213.759 130.443 213.759 132.565V206.779H246.056V132.565C246.056 128.285 244.357 124.181 241.333 121.153C238.308 118.125 234.205 116.421 229.926 116.417Z" fill="white" stroke="#9DAFCC" stroke-width="0.6" stroke-linecap="round" stroke-linejoin="round"/>
<path d="M229.926 120.767C228.391 120.766 226.872 121.068 225.454 121.655C224.036 122.241 222.748 123.102 221.663 124.186C220.578 125.271 219.717 126.559 219.13 127.977C218.542 129.394 218.24 130.913 218.24 132.448V206.779H241.606V132.448C241.607 130.913 241.305 129.394 240.718 127.977C240.131 126.559 239.271 125.271 238.186 124.187C237.101 123.102 235.813 122.242 234.396 121.655C232.978 121.068 231.459 120.766 229.926 120.767Z" fill="white" stroke="#9DAFCC" stroke-width="0.6" stroke-linecap="round" stroke-linejoin="round"/>
<path d="M229.926 125.113C228.07 125.113 226.291 125.85 224.979 127.162C223.667 128.474 222.93 130.253 222.93 132.109V171.221H236.917V132.109C236.917 130.254 236.18 128.475 234.869 127.163C233.558 125.852 231.78 125.114 229.926 125.113Z" fill="#365DA0" stroke="#9DAFCC" stroke-width="0.6" stroke-linecap="round" stroke-linejoin="round"/>
<path d="M236.917 163.538H222.93" stroke="#9DAFCC" stroke-width="0.6" stroke-linecap="round" stroke-linejoin="round"/>
<path d="M236.917 155.854H222.93" stroke="#9DAFCC" stroke-width="0.6" stroke-linecap="round" stroke-linejoin="round"/>
<path d="M236.917 148.167H222.93" stroke="#9DAFCC" stroke-width="0.6" stroke-linecap="round" stroke-linejoin="round"/>
<path d="M236.917 140.484H222.93" stroke="#9DAFCC" stroke-width="0.6" stroke-linecap="round" stroke-linejoin="round"/>
<path d="M236.917 132.801H222.93" stroke="#9DAFCC" stroke-width="0.6" stroke-linecap="round" stroke-linejoin="round"/>
<path d="M184.618 116.417C182.496 116.416 180.396 116.833 178.436 117.645C176.477 118.456 174.696 119.645 173.196 121.145C171.696 122.644 170.506 124.425 169.694 126.384C168.882 128.344 168.465 130.444 168.465 132.565V206.779H200.767V132.565C200.767 128.283 199.065 124.175 196.036 121.147C193.008 118.118 188.9 116.417 184.618 116.417Z" fill="white" stroke="#9DAFCC" stroke-width="0.6" stroke-linecap="round" stroke-linejoin="round"/>
<path d="M184.618 120.767C183.083 120.766 181.564 121.068 180.146 121.655C178.728 122.241 177.44 123.102 176.355 124.186C175.27 125.271 174.409 126.559 173.822 127.977C173.234 129.394 172.932 130.913 172.932 132.448V206.779H196.298V132.448C196.298 129.35 195.068 126.378 192.877 124.188C190.686 121.997 187.715 120.767 184.618 120.767Z" fill="white" stroke="#9DAFCC" stroke-width="0.6" stroke-linecap="round" stroke-linejoin="round"/>
<path d="M184.618 125.113C182.762 125.113 180.983 125.85 179.671 127.162C178.359 128.474 177.622 130.253 177.622 132.109V171.221H191.6V132.109C191.6 130.255 190.865 128.478 189.556 127.167C188.246 125.855 186.471 125.116 184.618 125.113Z" fill="#365DA0" stroke="#9DAFCC" stroke-width="0.6" stroke-linecap="round" stroke-linejoin="round"/>
<path d="M191.609 163.538H177.622" stroke="#9DAFCC" stroke-width="0.6" stroke-linecap="round" stroke-linejoin="round"/>
<path d="M191.609 155.854H177.622" stroke="#9DAFCC" stroke-width="0.6" stroke-linecap="round" stroke-linejoin="round"/>
<path d="M191.609 148.167H177.622" stroke="#9DAFCC" stroke-width="0.6" stroke-linecap="round" stroke-linejoin="round"/>
<path d="M191.609 140.484H177.622" stroke="#9DAFCC" stroke-width="0.6" stroke-linecap="round" stroke-linejoin="round"/>
<path d="M191.609 132.801H177.622" stroke="#9DAFCC" stroke-width="0.6" stroke-linecap="round" stroke-linejoin="round"/>
<path d="M224.187 90.9023H190.121V109.122H224.187V90.9023Z" fill="white" stroke="#9DAFCC" stroke-width="0.6" stroke-linecap="round" stroke-linejoin="round"/>
<path d="M207.157 94.0137C201.148 94.0137 195.387 96.4 191.138 100.648C186.889 104.896 184.501 110.658 184.5 116.665V193.665H229.808V116.665C229.807 110.658 227.42 104.897 223.172 100.65C218.925 96.4018 213.164 94.015 207.157 94.0137Z" fill="white" stroke="#9DAFCC" stroke-width="0.6" stroke-linecap="round" stroke-linejoin="round"/>
<path d="M207.156 99.7117C202.486 99.7117 198.007 101.567 194.705 104.869C191.402 108.172 189.547 112.651 189.547 117.321V138.123H224.766V117.321C224.759 112.653 222.901 108.178 219.6 104.877C216.299 101.577 211.824 99.7189 207.156 99.7117Z" fill="white" stroke="#9DAFCC" stroke-width="0.6" stroke-linecap="round" stroke-linejoin="round"/>
<path d="M207.157 104.333C203.743 104.333 200.47 105.689 198.056 108.102C195.642 110.516 194.286 113.79 194.286 117.203V145.892H220.022V117.203C220.022 113.79 218.667 110.518 216.254 108.104C213.841 105.691 210.569 104.334 207.157 104.333Z" fill="#F25451" stroke="#9DAFCC" stroke-width="0.6" stroke-linecap="round" stroke-linejoin="round"/>
<path d="M207.156 157.288C204.844 157.288 202.554 157.743 200.418 158.627C198.281 159.512 196.34 160.808 194.705 162.443C193.07 164.078 191.772 166.019 190.887 168.155C190.002 170.291 189.547 172.581 189.547 174.893V193.665H224.766V174.893C224.765 170.224 222.909 165.746 219.607 162.444C216.304 159.143 211.826 157.288 207.156 157.288Z" stroke="#9DAFCC" stroke-width="0.6" stroke-linecap="round" stroke-linejoin="round"/>
<path d="M207.156 163.863C204.542 163.863 202.034 164.902 200.186 166.751C198.336 168.6 197.298 171.107 197.298 173.722V193.664H217.015V173.722C217.015 171.107 215.976 168.6 214.127 166.751C212.278 164.902 209.771 163.863 207.156 163.863Z" fill="#365DA0" stroke="#9DAFCC" stroke-width="0.6" stroke-linecap="round" stroke-linejoin="round"/>
<path d="M207.156 114.345C204.844 114.345 202.554 114.8 200.418 115.684C198.281 116.569 196.34 117.865 194.705 119.5C193.07 121.135 191.772 123.076 190.887 125.212C190.002 127.348 189.547 129.638 189.547 131.95V152.752H224.766V131.95C224.765 127.281 222.909 122.803 219.607 119.501C216.304 116.2 211.826 114.345 207.156 114.345Z" fill="white" stroke="#9DAFCC" stroke-width="0.6" stroke-linecap="round" stroke-linejoin="round"/>
<path d="M207.156 120.921C205.862 120.921 204.58 121.176 203.384 121.671C202.187 122.167 201.101 122.893 200.186 123.808C199.27 124.724 198.544 125.81 198.048 127.007C197.553 128.203 197.298 129.485 197.298 130.779V152.752H217.015V130.779C217.015 129.485 216.76 128.203 216.264 127.007C215.769 125.81 215.043 124.724 214.127 123.808C213.212 122.893 212.125 122.167 210.929 121.671C209.733 121.176 208.451 120.921 207.156 120.921Z" fill="#E4EBF5" stroke="#9DAFCC" stroke-width="0.6" stroke-linecap="round" stroke-linejoin="round"/>
<path d="M212.38 103.895H201.929V114.345H212.38V103.895Z" fill="white" stroke="#9DAFCC" stroke-width="0.6" stroke-linecap="round" stroke-linejoin="round"/>
<path d="M220.488 70.7694C221.784 68.4783 222.465 65.8905 222.464 63.258C222.464 51.9526 209.526 51.5998 207.156 41.7234C204.787 51.5998 191.844 51.939 191.844 63.258C191.842 65.8912 192.525 68.4795 193.825 70.7694H220.488Z" fill="#F25451" stroke="#9DAFCC" stroke-width="0.6" stroke-linecap="round" stroke-linejoin="round"/>
<path d="M193.802 70.7651L191.844 74.627H222.464L220.506 70.7651H193.802Z" fill="#F25451" stroke="#9DAFCC" stroke-width="0.6" stroke-linecap="round" stroke-linejoin="round"/>
<path d="M184.5 152.752H229.808" stroke="#9DAFCC" stroke-width="0.6" stroke-linecap="round" stroke-linejoin="round"/>
<path d="M229.808 193.665H184.5V198.037H229.808V193.665Z" fill="#E4EBF5" stroke="#9DAFCC" stroke-width="0.6" stroke-linecap="round" stroke-linejoin="round"/>
<path d="M234.683 198.038H179.625V202.411H234.683V198.038Z" fill="#E4EBF5" stroke="#9DAFCC" stroke-width="0.6" stroke-linecap="round" stroke-linejoin="round"/>
<path d="M241.493 202.41H173.05V206.783H241.493V202.41Z" fill="#E4EBF5" stroke="#9DAFCC" stroke-width="0.6" stroke-linecap="round" stroke-linejoin="round"/>
<path d="M197.298 133.547H217.015" stroke="#9DAFCC" stroke-width="0.6" stroke-linecap="round" stroke-linejoin="round"/>
<path d="M220.483 74.627H193.825V90.9023H220.483V74.627Z" fill="white" stroke="#9DAFCC" stroke-width="0.6" stroke-linecap="round" stroke-linejoin="round"/>
<path d="M199.369 78.6519C199.09 78.6519 198.814 78.7066 198.556 78.8138C198.299 78.9205 198.065 79.0769 197.868 79.2746C197.67 79.4717 197.514 79.7064 197.408 79.9642C197.302 80.222 197.247 80.4983 197.248 80.7773V90.9025H201.49V80.7773C201.49 80.4983 201.436 80.222 201.33 79.9642C201.223 79.7064 201.067 79.4717 200.87 79.2746C200.673 79.0769 200.439 78.9205 200.182 78.8138C199.924 78.7066 199.648 78.6519 199.369 78.6519Z" fill="#365DA0" stroke="#9DAFCC" stroke-width="0.6" stroke-miterlimit="10"/>
<path d="M207.157 78.6519C206.878 78.6519 206.601 78.7066 206.344 78.8138C206.086 78.9205 205.852 79.0769 205.655 79.2746C205.458 79.4717 205.302 79.7064 205.196 79.9642C205.089 80.222 205.035 80.4983 205.036 80.7773V90.9025H209.277V80.7773C209.278 80.4983 209.224 80.222 209.117 79.9642C209.011 79.7064 208.855 79.4717 208.658 79.2746C208.461 79.0769 208.227 78.9205 207.969 78.8138C207.711 78.7066 207.435 78.6519 207.157 78.6519Z" fill="#365DA0" stroke="#9DAFCC" stroke-width="0.6" stroke-miterlimit="10"/>
<path d="M214.939 78.6519C214.66 78.6519 214.384 78.7066 214.126 78.8138C213.869 78.9205 213.634 79.077 213.438 79.2746C213.24 79.4717 213.084 79.7064 212.978 79.9642C212.872 80.222 212.817 80.4983 212.818 80.7773V90.9025H217.064V80.7773C217.065 80.4978 217.01 80.2211 216.904 79.9633C216.797 79.7051 216.641 79.4704 216.443 79.2728C216.245 79.0756 216.011 78.9191 215.753 78.8124C215.495 78.7057 215.218 78.651 214.939 78.6519Z" fill="#365DA0" stroke="#9DAFCC" stroke-width="0.6" stroke-miterlimit="10"/>
<path d="M202.453 103.895H211.819C212.483 103.262 213.013 102.501 213.375 101.657C213.737 100.814 213.925 99.906 213.926 98.988C213.926 93.9639 208.187 94.0815 207.143 89.6995C206.089 94.0815 200.359 93.9639 200.359 98.988C200.358 99.9051 200.543 100.813 200.903 101.656C201.263 102.499 201.791 103.261 202.453 103.895Z" fill="#F25451" stroke="#9DAFCC" stroke-width="0.6" stroke-linecap="round" stroke-linejoin="round"/>
<path d="M207.156 107.39V110.832" stroke="#9DAFCC" stroke-width="0.6" stroke-linecap="round" stroke-linejoin="round"/>
<path d="M256.295 125.9H251.37V206.783H256.295V125.9Z" fill="white" stroke="#9DAFCC" stroke-width="0.6" stroke-linecap="round" stroke-linejoin="round"/>
<path d="M162.645 125.9H157.72V206.783H162.645V125.9Z" fill="white" stroke="#9DAFCC" stroke-width="0.6" stroke-linecap="round" stroke-linejoin="round"/>
<path d="M184.5 183.033H168.465" stroke="#9DAFCC" stroke-width="0.6" stroke-linecap="round" stroke-linejoin="round"/>
<path d="M245.961 183.033H229.926" stroke="#9DAFCC" stroke-width="0.6" stroke-linecap="round" stroke-linejoin="round"/>
<path d="M207.156 42.9582V26.0181" stroke="#9DAFCC" stroke-width="0.6" stroke-linejoin="round"/>
<path d="M203.534 30.9294H210.616" stroke="#9DAFCC" stroke-width="0.6" stroke-linejoin="round"/>
<path d="M205.47 28.1843H208.843" stroke="#9DAFCC" stroke-width="0.6" stroke-linejoin="round"/>
<path d="M205.14 34.5515L209.11 36.7086" stroke="#9DAFCC" stroke-width="0.6" stroke-linejoin="round"/>
</g>
</g>
<defs>
<filter id="filter0_dd_202_5244" x="-8.91117" y="-11.9112" width="296.822" height="263.822" filterUnits="userSpaceOnUse" color-interpolation-filters="sRGB">
<feFlood flood-opacity="0" result="BackgroundImageFix"/>
<feColorMatrix in="SourceAlpha" type="matrix" values="0 0 0 0 0 0 0 0 0 0 0 0 0 0 0 0 0 0 127 0" result="hardAlpha"/>
<feOffset/>
<feGaussianBlur stdDeviation="5.95559"/>
<feComposite in2="hardAlpha" operator="out"/>
<feColorMatrix type="matrix" values="0 0 0 0 0.568627 0 0 0 0 0.741176 0 0 0 0 0.866667 0 0 0 1 0"/>
<feBlend mode="normal" in2="BackgroundImageFix" result="effect1_dropShadow_202_5244"/>
<feColorMatrix in="SourceAlpha" type="matrix" values="0 0 0 0 0 0 0 0 0 0 0 0 0 0 0 0 0 0 127 0" result="hardAlpha"/>
<feOffset dy="2.38223"/>
<feGaussianBlur stdDeviation="2.97779"/>
<feComposite in2="hardAlpha" operator="out"/>
<feColorMatrix type="matrix" values="0 0 0 0 0 0 0 0 0 0 0 0 0 0 0 0 0 0 0.1 0"/>
<feBlend mode="normal" in2="effect1_dropShadow_202_5244" result="effect2_dropShadow_202_5244"/>
<feBlend mode="normal" in="SourceGraphic" in2="effect2_dropShadow_202_5244" result="shape"/>
</filter>
<filter id="filter1_dd_202_5244" x="0.82125" y="14.1069" width="267.685" height="204.888" filterUnits="userSpaceOnUse" color-interpolation-filters="sRGB">
<feFlood flood-opacity="0" result="BackgroundImageFix"/>
<feColorMatrix in="SourceAlpha" type="matrix" values="0 0 0 0 0 0 0 0 0 0 0 0 0 0 0 0 0 0 127 0" result="hardAlpha"/>
<feOffset/>
<feGaussianBlur stdDeviation="5.95559"/>
<feComposite in2="hardAlpha" operator="out"/>
<feColorMatrix type="matrix" values="0 0 0 0 0.568627 0 0 0 0 0.741176 0 0 0 0 0.866667 0 0 0 1 0"/>
<feBlend mode="normal" in2="BackgroundImageFix" result="effect1_dropShadow_202_5244"/>
<feColorMatrix in="SourceAlpha" type="matrix" values="0 0 0 0 0 0 0 0 0 0 0 0 0 0 0 0 0 0 127 0" result="hardAlpha"/>
<feOffset dy="2.38223"/>
<feGaussianBlur stdDeviation="2.97779"/>
<feComposite in2="hardAlpha" operator="out"/>
<feColorMatrix type="matrix" values="0 0 0 0 0 0 0 0 0 0 0 0 0 0 0 0 0 0 0.1 0"/>
<feBlend mode="normal" in2="effect1_dropShadow_202_5244" result="effect2_dropShadow_202_5244"/>
<feBlend mode="normal" in="SourceGraphic" in2="effect2_dropShadow_202_5244" result="shape"/>
</filter>
</defs>
</svg>
