<svg width="273" height="240" viewBox="0 0 273 240" fill="none" xmlns="http://www.w3.org/2000/svg">
<g filter="url(#filter0_dd_202_3474)">
<g filter="url(#filter1_dd_202_3474)">
<path d="M184.958 129.218H167.061V152.389H184.958V129.218Z" fill="#365DA0" stroke="#9DAFCC" stroke-width="0.6" stroke-linecap="round" stroke-linejoin="round"/>
<path d="M184.958 129.218H167.061V138.914H184.958V129.218Z" fill="#E4EBF5" stroke="#9DAFCC" stroke-width="0.6" stroke-linecap="round" stroke-linejoin="round"/>
<path d="M185.743 105.85L185.275 101.169L180.593 101.637L181.062 106.319L185.743 105.85Z" fill="#F25451" stroke="#9DAFCC" stroke-width="0.6" stroke-linejoin="round"/>
<path d="M182.582 101.514C184.53 101.514 186.11 99.9349 186.11 97.9866C186.11 96.0384 184.53 94.4591 182.582 94.4591C180.634 94.4591 179.055 96.0384 179.055 97.9866C179.055 99.9349 180.634 101.514 182.582 101.514Z" fill="#F25451" stroke="#9DAFCC" stroke-width="0.6" stroke-linejoin="round"/>
<path d="M238.029 157.459H163.842V178.179H238.029V157.459Z" fill="#E4EBF5" stroke="#9DAFCC" stroke-width="0.6" stroke-linejoin="round"/>
<path d="M179.901 162.698H169.667V172.932H179.901V162.698Z" fill="#365DA0" stroke="#9DAFCC" stroke-width="0.6" stroke-linejoin="round"/>
<path d="M197.336 162.698H187.102V172.932H197.336V162.698Z" fill="#365DA0" stroke="#9DAFCC" stroke-width="0.6" stroke-linejoin="round"/>
<path d="M214.765 162.698H204.531V172.932H214.765V162.698Z" fill="#365DA0" stroke="#9DAFCC" stroke-width="0.6" stroke-linejoin="round"/>
<path d="M232.195 162.698H221.961V172.932H232.195V162.698Z" fill="#365DA0" stroke="#9DAFCC" stroke-width="0.6" stroke-linejoin="round"/>
<path d="M238.029 152.393H163.842V157.459H238.029V152.393Z" fill="#365DA0" stroke="#9DAFCC" stroke-width="0.6" stroke-linejoin="round"/>
<path d="M204.505 152.393H232.173L230.074 140.805H206.604L204.505 152.393Z" stroke="#9DAFCC" stroke-width="0.6" stroke-linejoin="round"/>
<path d="M206.604 140.805H230.074L227.975 129.218H208.707L206.604 140.805Z" stroke="#9DAFCC" stroke-width="0.6" stroke-linejoin="round"/>
<path d="M221.675 94.4591H215.004L212.905 106.047H223.778L221.675 94.4591Z" stroke="#9DAFCC" stroke-width="0.6" stroke-linejoin="round"/>
<path d="M210.806 117.634L208.707 129.218H227.976L225.877 117.634H210.806Z" stroke="#9DAFCC" stroke-width="0.6" stroke-linejoin="round"/>
<path d="M223.778 106.047H212.905L210.806 117.634H225.877L223.778 106.047Z" stroke="#9DAFCC" stroke-width="0.6" stroke-linejoin="round"/>
<path d="M204.505 152.393L230.074 140.805L209.624 129.218L225.877 117.634L212.905 106.047L221.675 94.4591" stroke="#9DAFCC" stroke-width="0.6" stroke-linejoin="round"/>
<path d="M216.238 94.4591H209.567L199.068 152.393H226.737" stroke="#9DAFCC" stroke-width="0.6" stroke-linejoin="round"/>
<path d="M254.723 90.7154C253.872 75.177 247.633 62.0284 239.246 55.8818L236.653 77.1127L240.207 76.3058L241.843 83.5238L237.985 84.4057L252.624 110.421C254.418 104.015 255.127 97.355 254.723 90.7154Z" fill="#F25451" stroke="#9DAFCC" stroke-width="0.6" stroke-linecap="round" stroke-linejoin="round"/>
<path d="M240.204 76.3215L174.217 91.2771L175.853 98.493L241.84 83.5373L240.204 76.3215Z" fill="#F25451" stroke="#9DAFCC" stroke-width="0.6" stroke-linejoin="round"/>
<path d="M215.621 94.4591C217.569 94.4591 219.148 92.8798 219.148 90.9316C219.148 88.9835 217.569 87.4042 215.621 87.4042C213.673 87.4042 212.093 88.9835 212.093 90.9316C212.093 92.8798 213.673 94.4591 215.621 94.4591Z" fill="#F25451" stroke="#9DAFCC" stroke-width="0.6" stroke-linejoin="round"/>
<path d="M250.467 85.6272L243.99 87.0955L251.266 100.579C251.672 96.6554 251.589 92.6964 251.019 88.7931C250.866 87.7143 250.682 86.659 250.467 85.6272Z" fill="#365DA0" stroke="#9DAFCC" stroke-width="0.6" stroke-linecap="round" stroke-linejoin="round"/>
<path d="M246.103 70.556C244.612 66.9977 243.629 65.1546 241.543 63.2145L240.812 71.7509L246.103 70.556Z" fill="#365DA0" stroke="#9DAFCC" stroke-width="0.6" stroke-linecap="round" stroke-linejoin="round"/>
<path d="M185.043 157.459H181.819V160.682H185.043V157.459Z" fill="#365DA0" stroke="#9DAFCC" stroke-width="0.6" stroke-linecap="round" stroke-linejoin="round"/>
<path d="M167.065 157.459H163.842V160.682H167.065V157.459Z" fill="#365DA0" stroke="#9DAFCC" stroke-width="0.6" stroke-linecap="round" stroke-linejoin="round"/>
<path d="M202.499 157.459H199.275V160.682H202.499V157.459Z" fill="#365DA0" stroke="#9DAFCC" stroke-width="0.6" stroke-linecap="round" stroke-linejoin="round"/>
<path d="M219.951 157.459H216.728V160.682H219.951V157.459Z" fill="#365DA0" stroke="#9DAFCC" stroke-width="0.6" stroke-linecap="round" stroke-linejoin="round"/>
<path d="M238.029 157.459H234.806V160.682H238.029V157.459Z" fill="#365DA0" stroke="#9DAFCC" stroke-width="0.6" stroke-linecap="round" stroke-linejoin="round"/>
<path d="M185.369 124.1L176.444 126.483L187.244 166.932L196.169 164.549L185.369 124.1Z" fill="#F25451" stroke="#9DAFCC" stroke-width="0.6" stroke-linecap="round" stroke-linejoin="round"/>
<path d="M180.765 142.701L163.208 147.384C165.077 153.487 173.446 156.56 182.124 154.241C182.666 154.095 183.195 153.936 183.711 153.756L180.765 142.701Z" fill="#F25451" stroke="#9DAFCC" stroke-width="0.6" stroke-linecap="round" stroke-linejoin="round"/>
<path d="M187.15 149.836C188.54 149.836 189.667 148.709 189.667 147.318C189.667 145.928 188.54 144.8 187.15 144.8C185.759 144.8 184.632 145.928 184.632 147.318C184.632 148.709 185.759 149.836 187.15 149.836Z" fill="#F25451" stroke="#9DAFCC" stroke-width="0.6" stroke-linejoin="round"/>
<path d="M183.186 103.754L187.15 147.318" stroke="#9DAFCC" stroke-width="0.6" stroke-linecap="round" stroke-linejoin="round"/>
<path d="M167.824 133.962C170.023 133.962 171.805 132.179 171.805 129.98C171.805 127.781 170.023 125.999 167.824 125.999C165.625 125.999 163.842 127.781 163.842 129.98C163.842 132.179 165.625 133.962 167.824 133.962Z" fill="#F25451" stroke="#9DAFCC" stroke-width="0.6" stroke-linecap="round" stroke-linejoin="round"/>
<path d="M248 74.5586L243.33 75.6171L244.965 82.8329L249.635 81.7744L248 74.5586Z" fill="#365DA0" stroke="#9DAFCC" stroke-width="0.6" stroke-linejoin="round"/>
<path d="M252.624 110.443V178.174" stroke="#9DAFCC" stroke-width="0.6" stroke-linejoin="round"/>
<path d="M254.78 166.423H250.463V178.179H254.78V166.423Z" fill="#365DA0" stroke="#9DAFCC" stroke-width="0.6" stroke-linejoin="round"/>
<path d="M167.423 80.8871H19.4546V178.174H167.423V80.8871Z" fill="#F25451" stroke="#9DAFCC" stroke-width="0.6" stroke-miterlimit="10"/>
<path d="M30.0061 84.7452V89.0531" stroke="white" stroke-width="0.6" stroke-linejoin="round"/>
<path d="M33.8774 84.7452V89.0531" stroke="white" stroke-width="0.6" stroke-linejoin="round"/>
<path d="M37.7444 84.7452V89.0531" stroke="white" stroke-width="0.6" stroke-linejoin="round"/>
<path d="M41.616 84.7452V89.0531" stroke="white" stroke-width="0.6" stroke-linejoin="round"/>
<path d="M45.4829 84.7452V89.0531" stroke="white" stroke-width="0.6" stroke-linejoin="round"/>
<path d="M49.3542 84.7452V89.0531" stroke="white" stroke-width="0.6" stroke-linejoin="round"/>
<path d="M53.2212 84.7452V89.0531" stroke="white" stroke-width="0.6" stroke-linejoin="round"/>
<path d="M57.0925 84.7452V89.0531" stroke="white" stroke-width="0.6" stroke-linejoin="round"/>
<path d="M60.9595 84.7452V89.0531" stroke="white" stroke-width="0.6" stroke-linejoin="round"/>
<path d="M64.8264 84.7452V89.0531" stroke="white" stroke-width="0.6" stroke-linejoin="round"/>
<path d="M68.698 84.7452V89.0531" stroke="white" stroke-width="0.6" stroke-linejoin="round"/>
<path d="M72.5649 84.7452V89.0531" stroke="white" stroke-width="0.6" stroke-linejoin="round"/>
<path d="M76.4363 84.7452V89.0531" stroke="white" stroke-width="0.6" stroke-linejoin="round"/>
<path d="M80.3035 84.7452V89.0531" stroke="white" stroke-width="0.6" stroke-linejoin="round"/>
<path d="M84.1748 84.7452V89.0531" stroke="white" stroke-width="0.6" stroke-linejoin="round"/>
<path d="M88.0415 84.7452V89.0531" stroke="white" stroke-width="0.6" stroke-linejoin="round"/>
<path d="M91.9131 84.7452V89.0531" stroke="white" stroke-width="0.6" stroke-linejoin="round"/>
<path d="M95.7798 84.7452V89.0531" stroke="white" stroke-width="0.6" stroke-linejoin="round"/>
<path d="M99.6514 84.7452V89.0531" stroke="white" stroke-width="0.6" stroke-linejoin="round"/>
<path d="M103.518 84.7452V89.0531" stroke="white" stroke-width="0.6" stroke-linejoin="round"/>
<path d="M107.39 84.7452V89.0531" stroke="white" stroke-width="0.6" stroke-linejoin="round"/>
<path d="M111.257 84.7452V89.0531" stroke="white" stroke-width="0.6" stroke-linejoin="round"/>
<path d="M115.128 84.7452V89.0531" stroke="white" stroke-width="0.6" stroke-linejoin="round"/>
<path d="M118.995 84.7452V89.0531" stroke="white" stroke-width="0.6" stroke-linejoin="round"/>
<path d="M122.866 84.7452V89.0531" stroke="white" stroke-width="0.6" stroke-linejoin="round"/>
<path d="M126.733 84.7452V89.0531" stroke="white" stroke-width="0.6" stroke-linejoin="round"/>
<path d="M130.605 84.7452V89.0531" stroke="white" stroke-width="0.6" stroke-linejoin="round"/>
<path d="M134.472 84.7452V89.0531" stroke="white" stroke-width="0.6" stroke-linejoin="round"/>
<path d="M138.343 84.7452V89.0531" stroke="white" stroke-width="0.6" stroke-linejoin="round"/>
<path d="M142.21 84.7452V89.0531" stroke="white" stroke-width="0.6" stroke-linejoin="round"/>
<path d="M146.082 84.7452V89.0531" stroke="white" stroke-width="0.6" stroke-linejoin="round"/>
<path d="M149.948 84.7452V89.0531" stroke="white" stroke-width="0.6" stroke-linejoin="round"/>
<path d="M153.815 84.7452V89.0531" stroke="white" stroke-width="0.6" stroke-linejoin="round"/>
<path d="M157.687 84.7452V89.0531" stroke="white" stroke-width="0.6" stroke-linejoin="round"/>
<path d="M167.423 80.8871H20.0234V178.174H167.423V80.8871Z" stroke="#9DAFCC" stroke-width="0.6" stroke-miterlimit="10"/>
<path d="M129.776 143.839V172.094" stroke="white" stroke-width="0.6" stroke-linejoin="round"/>
<path d="M152.92 140.188H132.88V172.094H152.92V140.188Z" fill="white" stroke="#9DAFCC" stroke-width="0.6" stroke-miterlimit="10"/>
<path d="M149.918 147.481H135.878V172.098H149.918V147.481Z" fill="#365DA0" stroke="#9DAFCC" stroke-width="0.6" stroke-miterlimit="10"/>
<path d="M154.239 136.907H131.553V140.188H154.239V136.907Z" fill="white" stroke="#9DAFCC" stroke-width="0.6" stroke-linejoin="round"/>
<path d="M144.538 136.907H141.258V141.026H144.538V136.907Z" fill="white" stroke="#9DAFCC" stroke-width="0.6" stroke-linejoin="round"/>
<path d="M135.878 143.839H149.918" stroke="#9DAFCC" stroke-width="0.6" stroke-miterlimit="10"/>
<path d="M135.878 153.8H149.918" stroke="#9DAFCC" stroke-width="0.6" stroke-linecap="round" stroke-linejoin="round"/>
<path d="M142.898 172.094V153.8" stroke="#9DAFCC" stroke-width="0.6" stroke-linecap="round" stroke-linejoin="round"/>
<path d="M126.676 140.188H106.636V172.094H126.676V140.188Z" fill="white" stroke="#9DAFCC" stroke-width="0.6" stroke-miterlimit="10"/>
<path d="M123.674 147.481H109.634V172.098H123.674V147.481Z" fill="#365DA0" stroke="#9DAFCC" stroke-width="0.6" stroke-miterlimit="10"/>
<path d="M127.999 136.907H105.313V140.188H127.999V136.907Z" fill="white" stroke="#9DAFCC" stroke-width="0.6" stroke-linejoin="round"/>
<path d="M118.294 136.907H115.013V141.026H118.294V136.907Z" fill="white" stroke="#9DAFCC" stroke-width="0.6" stroke-linejoin="round"/>
<path d="M109.634 143.839H123.678" stroke="#9DAFCC" stroke-width="0.6" stroke-miterlimit="10"/>
<path d="M109.634 153.8H123.678" stroke="#9DAFCC" stroke-width="0.6" stroke-linecap="round" stroke-linejoin="round"/>
<path d="M116.658 172.094V153.8" stroke="#9DAFCC" stroke-width="0.6" stroke-linecap="round" stroke-linejoin="round"/>
<path d="M56.396 143.839V172.094" stroke="white" stroke-width="0.6" stroke-linejoin="round"/>
<path d="M79.5404 140.188H59.5V172.094H79.5404V140.188Z" fill="white" stroke="#9DAFCC" stroke-width="0.6" stroke-miterlimit="10"/>
<path d="M76.5378 147.481H62.4985V172.098H76.5378V147.481Z" fill="#365DA0" stroke="#9DAFCC" stroke-width="0.6" stroke-miterlimit="10"/>
<path d="M80.8588 136.907H58.1729V140.188H80.8588V136.907Z" fill="white" stroke="#9DAFCC" stroke-width="0.6" stroke-linejoin="round"/>
<path d="M71.1582 136.907H67.8777V141.026H71.1582V136.907Z" fill="white" stroke="#9DAFCC" stroke-width="0.6" stroke-linejoin="round"/>
<path d="M62.4985 143.839H76.5378" stroke="#9DAFCC" stroke-width="0.6" stroke-miterlimit="10"/>
<path d="M62.4985 153.8H76.5378" stroke="#9DAFCC" stroke-width="0.6" stroke-linecap="round" stroke-linejoin="round"/>
<path d="M69.5181 172.094V153.8" stroke="#9DAFCC" stroke-width="0.6" stroke-linecap="round" stroke-linejoin="round"/>
<path d="M53.2962 140.188H33.2559V172.094H53.2962V140.188Z" fill="white" stroke="#9DAFCC" stroke-width="0.6" stroke-miterlimit="10"/>
<path d="M50.298 147.481H36.2588V172.098H50.298V147.481Z" fill="#365DA0" stroke="#9DAFCC" stroke-width="0.6" stroke-miterlimit="10"/>
<path d="M54.619 136.907H31.9331V140.188H54.619V136.907Z" fill="white" stroke="#9DAFCC" stroke-width="0.6" stroke-linejoin="round"/>
<path d="M44.9185 136.907H41.6379V141.026H44.9185V136.907Z" fill="white" stroke="#9DAFCC" stroke-width="0.6" stroke-linejoin="round"/>
<path d="M36.2588 143.839H50.298" stroke="#9DAFCC" stroke-width="0.6" stroke-miterlimit="10"/>
<path d="M36.2588 153.8H50.298" stroke="#9DAFCC" stroke-width="0.6" stroke-linecap="round" stroke-linejoin="round"/>
<path d="M43.2783 172.094V153.8" stroke="#9DAFCC" stroke-width="0.6" stroke-linecap="round" stroke-linejoin="round"/>
<path d="M29.314 132.776V135.289" stroke="white" stroke-width="0.6" stroke-linejoin="round"/>
<path d="M33.1853 132.776V135.289" stroke="white" stroke-width="0.6" stroke-linejoin="round"/>
<path d="M37.0522 132.776V135.289" stroke="white" stroke-width="0.6" stroke-linejoin="round"/>
<path d="M40.9192 132.776V135.289" stroke="white" stroke-width="0.6" stroke-linejoin="round"/>
<path d="M44.7905 132.776V135.289" stroke="white" stroke-width="0.6" stroke-linejoin="round"/>
<path d="M48.6577 132.776V135.289" stroke="white" stroke-width="0.6" stroke-linejoin="round"/>
<path d="M52.5288 132.776V135.289" stroke="white" stroke-width="0.6" stroke-linejoin="round"/>
<path d="M56.396 132.776V135.289" stroke="white" stroke-width="0.6" stroke-linejoin="round"/>
<path d="M60.2673 132.776V135.289" stroke="white" stroke-width="0.6" stroke-linejoin="round"/>
<path d="M64.1343 132.776V135.289" stroke="white" stroke-width="0.6" stroke-linejoin="round"/>
<path d="M68.0056 132.776V135.289" stroke="white" stroke-width="0.6" stroke-linejoin="round"/>
<path d="M71.8726 132.776V135.289" stroke="white" stroke-width="0.6" stroke-linejoin="round"/>
<path d="M75.7441 132.776V135.289" stroke="white" stroke-width="0.6" stroke-linejoin="round"/>
<path d="M79.6111 132.776V135.289" stroke="white" stroke-width="0.6" stroke-linejoin="round"/>
<path d="M83.4824 132.776V135.289" stroke="white" stroke-width="0.6" stroke-linejoin="round"/>
<path d="M87.3496 132.776V135.289" stroke="white" stroke-width="0.6" stroke-linejoin="round"/>
<path d="M91.2207 132.776V135.289" stroke="white" stroke-width="0.6" stroke-linejoin="round"/>
<path d="M95.0879 132.776V135.289" stroke="white" stroke-width="0.6" stroke-linejoin="round"/>
<path d="M98.959 132.776V135.289" stroke="white" stroke-width="0.6" stroke-linejoin="round"/>
<path d="M102.826 132.776V135.289" stroke="white" stroke-width="0.6" stroke-linejoin="round"/>
<path d="M106.697 132.776V135.289" stroke="white" stroke-width="0.6" stroke-linejoin="round"/>
<path d="M110.564 132.776V135.289" stroke="white" stroke-width="0.6" stroke-linejoin="round"/>
<path d="M114.436 132.776V135.289" stroke="white" stroke-width="0.6" stroke-linejoin="round"/>
<path d="M118.303 132.776V135.289" stroke="white" stroke-width="0.6" stroke-linejoin="round"/>
<path d="M122.174 132.776V135.289" stroke="white" stroke-width="0.6" stroke-linejoin="round"/>
<path d="M126.041 132.776V135.289" stroke="white" stroke-width="0.6" stroke-linejoin="round"/>
<path d="M129.908 132.776V135.289" stroke="white" stroke-width="0.6" stroke-linejoin="round"/>
<path d="M133.779 132.776V135.289" stroke="white" stroke-width="0.6" stroke-linejoin="round"/>
<path d="M137.646 132.776V135.289" stroke="white" stroke-width="0.6" stroke-linejoin="round"/>
<path d="M141.518 132.776V135.289" stroke="white" stroke-width="0.6" stroke-linejoin="round"/>
<path d="M145.385 132.776V135.289" stroke="white" stroke-width="0.6" stroke-linejoin="round"/>
<path d="M149.256 132.776V135.289" stroke="white" stroke-width="0.6" stroke-linejoin="round"/>
<path d="M153.123 132.776V135.289" stroke="white" stroke-width="0.6" stroke-linejoin="round"/>
<path d="M156.995 132.776V135.289" stroke="white" stroke-width="0.6" stroke-linejoin="round"/>
<path d="M25.447 132.776H160.862" stroke="white" stroke-width="0.6" stroke-linejoin="round"/>
<path d="M147.868 102.413C144.512 102.413 141.796 102.828 141.796 104.424V122.524H153.948V104.424C153.948 102.828 151.219 102.413 147.868 102.413Z" fill="#365DA0" stroke="white" stroke-width="0.6" stroke-linejoin="round"/>
<path d="M147.867 92.3424C143.52 92.3424 140.001 94.0224 140.001 96.0903H155.733C155.733 94.04 152.21 92.3424 147.867 92.3424Z" fill="white" stroke="white" stroke-width="0.6" stroke-linejoin="round"/>
<path d="M155.914 96.108H139.82V99.781H155.914V96.108Z" fill="#F25451" stroke="white" stroke-width="0.6" stroke-linejoin="round"/>
<path d="M143.493 96.108H139.82V99.781H143.493V96.108Z" fill="white" stroke="white" stroke-width="0.6" stroke-linejoin="round"/>
<path d="M155.91 96.108H152.237V99.781H155.91V96.108Z" fill="white" stroke="white" stroke-width="0.6" stroke-linejoin="round"/>
<path d="M141.796 130.862V99.5693" stroke="white" stroke-width="0.6" stroke-linejoin="round"/>
<path d="M153.935 130.862V99.5693" stroke="white" stroke-width="0.6" stroke-linejoin="round"/>
<path d="M151.192 125.214H144.542V128.38H151.192V125.214Z" fill="#E4EBF5" stroke="white" stroke-width="0.6" stroke-miterlimit="10"/>
<path d="M141.796 110.544H153.935" stroke="white" stroke-width="0.6" stroke-linejoin="round"/>
<path d="M147.867 122.524V110.544" stroke="white" stroke-width="0.6" stroke-linejoin="round"/>
<path d="M147.836 93.3744C148.396 93.3744 148.851 92.9203 148.851 92.3602C148.851 91.8001 148.396 91.3461 147.836 91.3461C147.276 91.3461 146.822 91.8001 146.822 92.3602C146.822 92.9203 147.276 93.3744 147.836 93.3744Z" stroke="white" stroke-width="0.6" stroke-linecap="round" stroke-linejoin="round"/>
<path d="M145.927 94.6531H150.094" stroke="#E4EBF5" stroke-width="0.6" stroke-linecap="round" stroke-linejoin="round"/>
<path d="M138.802 102.413V123.256" stroke="white" stroke-width="0.6" stroke-miterlimit="10"/>
<path d="M129.697 102.413C126.346 102.413 123.625 102.828 123.625 104.424V122.524H135.764V104.424C135.751 102.828 133.034 102.413 129.697 102.413Z" fill="#365DA0" stroke="white" stroke-width="0.6" stroke-linejoin="round"/>
<path d="M129.696 92.3424C125.349 92.3424 121.83 94.0224 121.83 96.0903H137.563C137.549 94.04 134.026 92.3424 129.696 92.3424Z" fill="white" stroke="white" stroke-width="0.6" stroke-linejoin="round"/>
<path d="M137.73 96.108H121.636V99.781H137.73V96.108Z" fill="#F25451" stroke="white" stroke-width="0.6" stroke-linejoin="round"/>
<path d="M125.309 96.108H121.636V99.781H125.309V96.108Z" fill="white" stroke="white" stroke-width="0.6" stroke-linejoin="round"/>
<path d="M137.73 96.108H134.057V99.781H137.73V96.108Z" fill="white" stroke="white" stroke-width="0.6" stroke-linejoin="round"/>
<path d="M123.611 130.862V99.5693" stroke="white" stroke-width="0.6" stroke-linejoin="round"/>
<path d="M135.75 130.862V99.5693" stroke="white" stroke-width="0.6" stroke-linejoin="round"/>
<path d="M133.008 125.214H126.358V128.38H133.008V125.214Z" fill="#E4EBF5" stroke="white" stroke-width="0.6" stroke-miterlimit="10"/>
<path d="M123.611 110.544H135.75" stroke="white" stroke-width="0.6" stroke-linejoin="round"/>
<path d="M129.683 122.524V110.544" stroke="white" stroke-width="0.6" stroke-linejoin="round"/>
<path d="M129.652 93.3744C130.212 93.3744 130.666 92.9203 130.666 92.3602C130.666 91.8001 130.212 91.3461 129.652 91.3461C129.092 91.3461 128.638 91.8001 128.638 92.3602C128.638 92.9203 129.092 93.3744 129.652 93.3744Z" stroke="white" stroke-width="0.6" stroke-linecap="round" stroke-linejoin="round"/>
<path d="M127.743 94.6531H131.914" stroke="#E4EBF5" stroke-width="0.6" stroke-linecap="round" stroke-linejoin="round"/>
<path d="M120.587 102.413V123.256" stroke="white" stroke-width="0.6" stroke-miterlimit="10"/>
<path d="M111.499 102.413C108.148 102.413 105.428 102.828 105.428 104.424V122.524H117.567V104.424C117.567 102.828 114.85 102.413 111.499 102.413Z" fill="#365DA0" stroke="white" stroke-width="0.6" stroke-linejoin="round"/>
<path d="M111.499 92.3424C107.156 92.3424 103.633 94.0224 103.633 96.0903H119.365C119.365 94.04 115.842 92.3424 111.499 92.3424Z" fill="white" stroke="white" stroke-width="0.6" stroke-linejoin="round"/>
<path d="M119.546 96.108H103.452V99.781H119.546V96.108Z" fill="#F25451" stroke="white" stroke-width="0.6" stroke-linejoin="round"/>
<path d="M107.125 96.108H103.452V99.781H107.125V96.108Z" fill="white" stroke="white" stroke-width="0.6" stroke-linejoin="round"/>
<path d="M119.546 96.108H115.873V99.781H119.546V96.108Z" fill="white" stroke="white" stroke-width="0.6" stroke-linejoin="round"/>
<path d="M105.428 130.862V99.5693" stroke="white" stroke-width="0.6" stroke-linejoin="round"/>
<path d="M117.566 130.862V99.5693" stroke="white" stroke-width="0.6" stroke-linejoin="round"/>
<path d="M114.824 125.214H108.175V128.38H114.824V125.214Z" fill="#E4EBF5" stroke="white" stroke-width="0.6" stroke-miterlimit="10"/>
<path d="M105.428 110.544H117.567" stroke="white" stroke-width="0.6" stroke-linejoin="round"/>
<path d="M111.5 122.524V110.544" stroke="white" stroke-width="0.6" stroke-linejoin="round"/>
<path d="M111.473 93.3744C112.033 93.3744 112.487 92.9203 112.487 92.3602C112.487 91.8001 112.033 91.3461 111.473 91.3461C110.913 91.3461 110.458 91.8001 110.458 92.3602C110.458 92.9203 110.913 93.3744 111.473 93.3744Z" stroke="white" stroke-width="0.6" stroke-linecap="round" stroke-linejoin="round"/>
<path d="M109.559 94.6531H113.73" stroke="#E4EBF5" stroke-width="0.6" stroke-linecap="round" stroke-linejoin="round"/>
<path d="M102.491 102.413V123.256" stroke="white" stroke-width="0.6" stroke-miterlimit="10"/>
<path d="M93.3153 102.413C89.9642 102.413 87.248 102.828 87.248 104.424V122.524H99.3825V104.424C99.3825 102.828 96.6663 102.413 93.3153 102.413Z" fill="#365DA0" stroke="white" stroke-width="0.6" stroke-linejoin="round"/>
<path d="M93.3149 92.3424C88.9718 92.3424 85.4487 94.0224 85.4487 96.0903H101.181C101.181 94.04 97.6581 92.3424 93.3149 92.3424Z" fill="white" stroke="white" stroke-width="0.6" stroke-linejoin="round"/>
<path d="M101.362 96.108H85.2681V99.781H101.362V96.108Z" fill="#F25451" stroke="white" stroke-width="0.6" stroke-linejoin="round"/>
<path d="M88.941 96.108H85.2681V99.781H88.941V96.108Z" fill="white" stroke="white" stroke-width="0.6" stroke-linejoin="round"/>
<path d="M101.362 96.108H97.689V99.781H101.362V96.108Z" fill="white" stroke="white" stroke-width="0.6" stroke-linejoin="round"/>
<path d="M87.248 122.524V99.5693" stroke="white" stroke-width="0.6" stroke-linejoin="round"/>
<path d="M99.3823 122.524V99.5693" stroke="white" stroke-width="0.6" stroke-linejoin="round"/>
<path d="M87.248 110.544H99.3825" stroke="white" stroke-width="0.6" stroke-linejoin="round"/>
<path d="M93.3149 122.524V110.544" stroke="white" stroke-width="0.6" stroke-linejoin="round"/>
<path d="M93.2886 93.3744C93.8485 93.3744 94.3027 92.9203 94.3027 92.3602C94.3027 91.8001 93.8485 91.3461 93.2886 91.3461C92.7286 91.3461 92.2744 91.8001 92.2744 92.3602C92.2744 92.9203 92.7286 93.3744 93.2886 93.3744Z" stroke="white" stroke-width="0.6" stroke-linecap="round" stroke-linejoin="round"/>
<path d="M91.375 94.6531H95.5462" stroke="#E4EBF5" stroke-width="0.6" stroke-linecap="round" stroke-linejoin="round"/>
<path d="M84.2407 102.413V123.256" stroke="white" stroke-width="0.6" stroke-miterlimit="10"/>
<path d="M75.1312 102.413C71.7801 102.413 69.064 102.828 69.064 104.424V122.524H81.194V104.424C81.194 102.828 78.4823 102.413 75.1312 102.413Z" fill="#365DA0" stroke="white" stroke-width="0.6" stroke-linejoin="round"/>
<path d="M75.1311 92.3424C70.7879 92.3424 67.2649 94.0224 67.2649 96.0903H82.9973C82.9973 94.04 79.4743 92.3424 75.1311 92.3424Z" fill="white" stroke="white" stroke-width="0.6" stroke-linejoin="round"/>
<path d="M83.1782 96.108H67.0842V99.781H83.1782V96.108Z" fill="#F25451" stroke="white" stroke-width="0.6" stroke-linejoin="round"/>
<path d="M70.7572 96.108H67.0842V99.781H70.7572V96.108Z" fill="white" stroke="white" stroke-width="0.6" stroke-linejoin="round"/>
<path d="M83.1781 96.108H79.5051V99.781H83.1781V96.108Z" fill="white" stroke="white" stroke-width="0.6" stroke-linejoin="round"/>
<path d="M69.064 130.862V99.5693" stroke="white" stroke-width="0.6" stroke-linejoin="round"/>
<path d="M81.1982 130.862V99.5693" stroke="white" stroke-width="0.6" stroke-linejoin="round"/>
<path d="M78.4559 125.214H71.8066V128.38H78.4559V125.214Z" fill="#E4EBF5" stroke="white" stroke-width="0.6" stroke-miterlimit="10"/>
<path d="M69.064 110.544H81.1984" stroke="white" stroke-width="0.6" stroke-linejoin="round"/>
<path d="M75.1311 122.524V110.544" stroke="white" stroke-width="0.6" stroke-linejoin="round"/>
<path d="M75.1047 93.3744C75.6647 93.3744 76.1189 92.9203 76.1189 92.3602C76.1189 91.8001 75.6647 91.3461 75.1047 91.3461C74.5447 91.3461 74.0906 91.8001 74.0906 92.3602C74.0906 92.9203 74.5447 93.3744 75.1047 93.3744Z" stroke="white" stroke-width="0.6" stroke-linecap="round" stroke-linejoin="round"/>
<path d="M73.1912 94.6531H77.3624" stroke="#E4EBF5" stroke-width="0.6" stroke-linecap="round" stroke-linejoin="round"/>
<path d="M66.0391 102.413V123.256" stroke="white" stroke-width="0.6" stroke-miterlimit="10"/>
<path d="M56.9427 102.413C53.5916 102.413 50.8755 102.828 50.8755 104.424V122.524H63.0099V104.424C63.0143 102.828 60.2982 102.413 56.9427 102.413Z" fill="#365DA0" stroke="white" stroke-width="0.6" stroke-linejoin="round"/>
<path d="M56.9426 92.3424C52.5995 92.3424 49.0764 94.0224 49.0764 96.0903H64.8089C64.8133 94.04 61.2902 92.3424 56.9426 92.3424Z" fill="white" stroke="white" stroke-width="0.6" stroke-linejoin="round"/>
<path d="M64.9942 96.108H48.9001V99.781H64.9942V96.108Z" fill="#F25451" stroke="white" stroke-width="0.6" stroke-linejoin="round"/>
<path d="M52.5731 96.108H48.9001V99.781H52.5731V96.108Z" fill="white" stroke="white" stroke-width="0.6" stroke-linejoin="round"/>
<path d="M64.994 96.108H61.321V99.781H64.994V96.108Z" fill="white" stroke="white" stroke-width="0.6" stroke-linejoin="round"/>
<path d="M50.8799 130.862V99.5693" stroke="white" stroke-width="0.6" stroke-linejoin="round"/>
<path d="M63.0144 130.862V99.5693" stroke="white" stroke-width="0.6" stroke-linejoin="round"/>
<path d="M60.2718 125.214H53.6226V128.38H60.2718V125.214Z" fill="#E4EBF5" stroke="white" stroke-width="0.6" stroke-miterlimit="10"/>
<path d="M50.8799 110.544H63.0143" stroke="white" stroke-width="0.6" stroke-linejoin="round"/>
<path d="M56.947 122.524V110.544" stroke="white" stroke-width="0.6" stroke-linejoin="round"/>
<path d="M56.9204 93.3744C57.4804 93.3744 57.9345 92.9203 57.9345 92.3602C57.9345 91.8001 57.4804 91.3461 56.9204 91.3461C56.3604 91.3461 55.9062 91.8001 55.9062 92.3602C55.9062 92.9203 56.3604 93.3744 56.9204 93.3744Z" stroke="white" stroke-width="0.6" stroke-linecap="round" stroke-linejoin="round"/>
<path d="M55.0115 94.6531H59.1783" stroke="#E4EBF5" stroke-width="0.6" stroke-linecap="round" stroke-linejoin="round"/>
<path d="M47.842 102.413V123.256" stroke="white" stroke-width="0.6" stroke-miterlimit="10"/>
<path d="M38.763 102.413C35.4119 102.413 32.6958 102.828 32.6958 104.424V122.524H44.8347V104.424C44.8347 102.828 42.1141 102.413 38.763 102.413Z" fill="#365DA0" stroke="white" stroke-width="0.6" stroke-linejoin="round"/>
<path d="M38.7629 92.3424C34.4198 92.3424 30.8967 94.0224 30.8967 96.0903H46.6292C46.6292 94.04 43.1105 92.3424 38.7629 92.3424Z" fill="white" stroke="white" stroke-width="0.6" stroke-linejoin="round"/>
<path d="M46.8101 96.108H30.7161V99.781H46.8101V96.108Z" fill="#F25451" stroke="white" stroke-width="0.6" stroke-linejoin="round"/>
<path d="M34.389 96.108H30.7161V99.781H34.389V96.108Z" fill="white" stroke="white" stroke-width="0.6" stroke-linejoin="round"/>
<path d="M46.8099 96.108H43.137V99.781H46.8099V96.108Z" fill="white" stroke="white" stroke-width="0.6" stroke-linejoin="round"/>
<path d="M32.6958 130.862V99.5693" stroke="white" stroke-width="0.6" stroke-linejoin="round"/>
<path d="M44.8347 130.862V99.5693" stroke="white" stroke-width="0.6" stroke-linejoin="round"/>
<path d="M42.0875 125.214H35.4382V128.38H42.0875V125.214Z" fill="#E4EBF5" stroke="white" stroke-width="0.6" stroke-miterlimit="10"/>
<path d="M32.6958 110.544H44.8347" stroke="white" stroke-width="0.6" stroke-linejoin="round"/>
<path d="M38.7629 122.524V110.544" stroke="white" stroke-width="0.6" stroke-linejoin="round"/>
<path d="M38.7366 93.3744C39.2966 93.3744 39.7507 92.9203 39.7507 92.3602C39.7507 91.8001 39.2966 91.3461 38.7366 91.3461C38.1764 91.3461 37.7224 91.8001 37.7224 92.3602C37.7224 92.9203 38.1764 93.3744 38.7366 93.3744Z" stroke="white" stroke-width="0.6" stroke-linecap="round" stroke-linejoin="round"/>
<path d="M36.8274 94.6531H40.9942" stroke="#E4EBF5" stroke-width="0.6" stroke-linecap="round" stroke-linejoin="round"/>
<path d="M105.427 121.29H81.1982V132.776H105.427V121.29Z" fill="#365DA0" stroke="#9DAFCC" stroke-width="0.6" stroke-miterlimit="10"/>
<path d="M81.1982 121.29V132.776" stroke="#9DAFCC" stroke-width="0.6" stroke-miterlimit="10" stroke-linecap="round"/>
<path d="M84.2275 121.29V132.776" stroke="#9DAFCC" stroke-width="0.6" stroke-miterlimit="10" stroke-linecap="round"/>
<path d="M87.2568 121.29V132.776" stroke="#9DAFCC" stroke-width="0.6" stroke-miterlimit="10" stroke-linecap="round"/>
<path d="M90.2861 121.29V132.776" stroke="#9DAFCC" stroke-width="0.6" stroke-miterlimit="10" stroke-linecap="round"/>
<path d="M93.3149 121.29V132.776" stroke="#9DAFCC" stroke-width="0.6" stroke-miterlimit="10" stroke-linecap="round"/>
<path d="M96.3442 121.29V132.776" stroke="#9DAFCC" stroke-width="0.6" stroke-miterlimit="10" stroke-linecap="round"/>
<path d="M99.3735 121.29V132.776" stroke="#9DAFCC" stroke-width="0.6" stroke-miterlimit="10" stroke-linecap="round"/>
<path d="M102.403 121.29V132.776" stroke="#9DAFCC" stroke-width="0.6" stroke-miterlimit="10" stroke-linecap="round"/>
<path d="M105.428 121.29V132.776" stroke="#9DAFCC" stroke-width="0.6" stroke-miterlimit="10" stroke-linecap="round"/>
<path d="M156.919 102.413V123.256" stroke="white" stroke-width="0.6" stroke-miterlimit="10"/>
<path d="M29.3889 102.413V123.256" stroke="white" stroke-width="0.6" stroke-miterlimit="10"/>
<path d="M160.866 80.8871H25.447V84.7452H160.866V80.8871Z" fill="white" stroke="#9DAFCC" stroke-width="0.6" stroke-miterlimit="10"/>
<path d="M166.854 80.8871H160.861V178.174H166.854V80.8871Z" fill="white" stroke="#9DAFCC" stroke-width="0.6" stroke-miterlimit="10"/>
<path d="M166.854 132.776H160.861V143.839H166.854V132.776Z" fill="white" stroke="#9DAFCC" stroke-width="0.6" stroke-miterlimit="10"/>
<path d="M166.854 80.8871H160.861V95.4907H166.854V80.8871Z" fill="white" stroke="#9DAFCC" stroke-width="0.6" stroke-miterlimit="10"/>
<path d="M166.854 80.8871H160.861V84.7452H166.854V80.8871Z" fill="white" stroke="#9DAFCC" stroke-width="0.6" stroke-miterlimit="10"/>
<path d="M25.4469 80.8871H19.4546V178.174H25.4469V80.8871Z" fill="white" stroke="#9DAFCC" stroke-width="0.6" stroke-miterlimit="10"/>
<path d="M25.4469 132.776H19.4546V143.839H25.4469V132.776Z" fill="white" stroke="#9DAFCC" stroke-width="0.6" stroke-miterlimit="10"/>
<path d="M25.4469 80.8871H19.4546V95.4907H25.4469V80.8871Z" fill="white" stroke="#9DAFCC" stroke-width="0.6" stroke-miterlimit="10"/>
<path d="M25.4469 80.8871H19.4546V84.7452H25.4469V80.8871Z" fill="white" stroke="#9DAFCC" stroke-width="0.6" stroke-miterlimit="10"/>
<path d="M166.854 172.094H19.4546V178.174H166.854V172.094Z" fill="#365DA0" stroke="#9DAFCC" stroke-width="0.6" stroke-miterlimit="10"/>
<path d="M101.68 138.967H84.6289V178.174H101.68V138.967Z" fill="white" stroke="#9DAFCC" stroke-width="0.6" stroke-linejoin="round"/>
<path d="M101.68 138.967H84.6289V143.839H101.68V138.967Z" fill="white" stroke="#9DAFCC" stroke-width="0.6" stroke-linejoin="round"/>
<path d="M98.1079 149.042H88.1958V178.174H98.1079V149.042Z" fill="#F25451" stroke="#9DAFCC" stroke-width="0.6" stroke-miterlimit="10"/>
<path d="M95.2066 138.967H91.106V143.839H95.2066V138.967Z" fill="white" stroke="#9DAFCC" stroke-width="0.6" stroke-linejoin="round"/>
<path d="M157.241 143.839V168.99" stroke="white" stroke-width="0.6" stroke-miterlimit="10"/>
<path d="M29.6357 143.839V168.99" stroke="white" stroke-width="0.6" stroke-miterlimit="10"/>
<path d="M166.854 72.4521H160.861V80.8872H166.854V72.4521Z" fill="white" stroke="#9DAFCC" stroke-width="0.6" stroke-miterlimit="10"/>
<path d="M25.4469 72.4521H19.4546V80.8872H25.4469V72.4521Z" fill="white" stroke="#9DAFCC" stroke-width="0.6" stroke-miterlimit="10"/>
<path d="M83.8748 72.4521H77.8826V80.8872H83.8748V72.4521Z" fill="white" stroke="#9DAFCC" stroke-width="0.6" stroke-linejoin="round"/>
<path d="M108.995 72.4521H103.002V80.8872H108.995V72.4521Z" fill="white" stroke="#9DAFCC" stroke-width="0.6" stroke-linejoin="round"/>
<path d="M99.5413 67.4651C99.3517 65.0708 96.6973 63.1704 93.4388 63.1704C90.1803 63.1704 87.5259 65.0708 87.3363 67.4651H83.875V80.8782H103.003V67.4651H99.5413Z" fill="white" stroke="#9DAFCC" stroke-width="0.6" stroke-linejoin="round"/>
<path d="M93.4385 76.2397C95.6181 76.2397 97.3849 74.4729 97.3849 72.2934C97.3849 70.1139 95.6181 68.347 93.4385 68.347C91.259 68.347 89.4922 70.1139 89.4922 72.2934C89.4922 74.4729 91.259 76.2397 93.4385 76.2397Z" fill="#365DA0" stroke="#9DAFCC" stroke-width="0.6" stroke-linejoin="round"/>
<path d="M108.99 76.2396H160.861" stroke="#9DAFCC" stroke-width="0.6" stroke-linejoin="round"/>
<path d="M108.99 76.2396V80.887" stroke="#9DAFCC" stroke-width="0.6" stroke-linejoin="round"/>
<path d="M113.316 76.2396V80.887" stroke="#9DAFCC" stroke-width="0.6" stroke-linejoin="round"/>
<path d="M117.637 76.2396V80.887" stroke="#9DAFCC" stroke-width="0.6" stroke-linejoin="round"/>
<path d="M121.958 76.2396V80.887" stroke="#9DAFCC" stroke-width="0.6" stroke-linejoin="round"/>
<path d="M126.284 76.2396V80.887" stroke="#9DAFCC" stroke-width="0.6" stroke-linejoin="round"/>
<path d="M130.605 76.2396V80.887" stroke="#9DAFCC" stroke-width="0.6" stroke-linejoin="round"/>
<path d="M134.926 76.2396V80.887" stroke="#9DAFCC" stroke-width="0.6" stroke-linejoin="round"/>
<path d="M139.251 76.2396V80.887" stroke="#9DAFCC" stroke-width="0.6" stroke-linejoin="round"/>
<path d="M143.573 76.2396V80.887" stroke="#9DAFCC" stroke-width="0.6" stroke-linejoin="round"/>
<path d="M147.894 76.2396V80.887" stroke="#9DAFCC" stroke-width="0.6" stroke-linejoin="round"/>
<path d="M152.219 76.2396V80.887" stroke="#9DAFCC" stroke-width="0.6" stroke-linejoin="round"/>
<path d="M156.54 76.2396V80.887" stroke="#9DAFCC" stroke-width="0.6" stroke-linejoin="round"/>
<path d="M160.861 76.2396V80.887" stroke="#9DAFCC" stroke-width="0.6" stroke-linejoin="round"/>
<path d="M26.0159 76.2396H77.8826" stroke="#9DAFCC" stroke-width="0.6" stroke-linejoin="round"/>
<path d="M26.0159 76.2396V80.887" stroke="#9DAFCC" stroke-width="0.6" stroke-linejoin="round"/>
<path d="M30.3369 76.2396V80.887" stroke="#9DAFCC" stroke-width="0.6" stroke-linejoin="round"/>
<path d="M34.658 76.2396V80.887" stroke="#9DAFCC" stroke-width="0.6" stroke-linejoin="round"/>
<path d="M38.9834 76.2396V80.887" stroke="#9DAFCC" stroke-width="0.6" stroke-linejoin="round"/>
<path d="M43.3047 76.2396V80.887" stroke="#9DAFCC" stroke-width="0.6" stroke-linejoin="round"/>
<path d="M47.6257 76.2396V80.887" stroke="#9DAFCC" stroke-width="0.6" stroke-linejoin="round"/>
<path d="M51.9514 76.2396V80.887" stroke="#9DAFCC" stroke-width="0.6" stroke-linejoin="round"/>
<path d="M56.2725 76.2396V80.887" stroke="#9DAFCC" stroke-width="0.6" stroke-linejoin="round"/>
<path d="M60.5935 76.2396V80.887" stroke="#9DAFCC" stroke-width="0.6" stroke-linejoin="round"/>
<path d="M64.9189 76.2396V80.887" stroke="#9DAFCC" stroke-width="0.6" stroke-linejoin="round"/>
<path d="M69.2402 76.2396V80.887" stroke="#9DAFCC" stroke-width="0.6" stroke-linejoin="round"/>
<path d="M73.5615 76.2396V80.887" stroke="#9DAFCC" stroke-width="0.6" stroke-linejoin="round"/>
<path d="M77.8826 76.2396V80.887" stroke="#9DAFCC" stroke-width="0.6" stroke-linejoin="round"/>
<path d="M163.86 74.8331V78.5061" stroke="#9DAFCC" stroke-width="0.6" stroke-miterlimit="10"/>
<path d="M22.4485 74.8331V78.5061" stroke="#9DAFCC" stroke-width="0.6" stroke-miterlimit="10"/>
<path d="M77.8826 75.468H83.8748" stroke="#9DAFCC" stroke-width="0.6" stroke-linejoin="round"/>
<path d="M103.002 75.468H108.99" stroke="#9DAFCC" stroke-width="0.6" stroke-linejoin="round"/>
<path d="M83.875 72.4521H89.4925" stroke="#9DAFCC" stroke-width="0.6" stroke-linejoin="round"/>
<path d="M97.3848 72.4521H103.002" stroke="#9DAFCC" stroke-width="0.6" stroke-linejoin="round"/>
</g>
</g>
<defs>
<filter id="filter0_dd_202_3474" x="-11.9112" y="-11.9112" width="296.822" height="263.822" filterUnits="userSpaceOnUse" color-interpolation-filters="sRGB">
<feFlood flood-opacity="0" result="BackgroundImageFix"/>
<feColorMatrix in="SourceAlpha" type="matrix" values="0 0 0 0 0 0 0 0 0 0 0 0 0 0 0 0 0 0 127 0" result="hardAlpha"/>
<feOffset/>
<feGaussianBlur stdDeviation="5.95559"/>
<feComposite in2="hardAlpha" operator="out"/>
<feColorMatrix type="matrix" values="0 0 0 0 0.568627 0 0 0 0 0.741176 0 0 0 0 0.866667 0 0 0 1 0"/>
<feBlend mode="normal" in2="BackgroundImageFix" result="effect1_dropShadow_202_3474"/>
<feColorMatrix in="SourceAlpha" type="matrix" values="0 0 0 0 0 0 0 0 0 0 0 0 0 0 0 0 0 0 127 0" result="hardAlpha"/>
<feOffset dy="2.38223"/>
<feGaussianBlur stdDeviation="2.97779"/>
<feComposite in2="hardAlpha" operator="out"/>
<feColorMatrix type="matrix" values="0 0 0 0 0 0 0 0 0 0 0 0 0 0 0 0 0 0 0.1 0"/>
<feBlend mode="normal" in2="effect1_dropShadow_202_3474" result="effect2_dropShadow_202_3474"/>
<feBlend mode="normal" in="SourceGraphic" in2="effect2_dropShadow_202_3474" result="shape"/>
</filter>
<filter id="filter1_dd_202_3474" x="7.24337" y="43.6706" width="259.801" height="146.719" filterUnits="userSpaceOnUse" color-interpolation-filters="sRGB">
<feFlood flood-opacity="0" result="BackgroundImageFix"/>
<feColorMatrix in="SourceAlpha" type="matrix" values="0 0 0 0 0 0 0 0 0 0 0 0 0 0 0 0 0 0 127 0" result="hardAlpha"/>
<feOffset/>
<feGaussianBlur stdDeviation="5.95559"/>
<feComposite in2="hardAlpha" operator="out"/>
<feColorMatrix type="matrix" values="0 0 0 0 0.568627 0 0 0 0 0.741176 0 0 0 0 0.866667 0 0 0 1 0"/>
<feBlend mode="normal" in2="BackgroundImageFix" result="effect1_dropShadow_202_3474"/>
<feColorMatrix in="SourceAlpha" type="matrix" values="0 0 0 0 0 0 0 0 0 0 0 0 0 0 0 0 0 0 127 0" result="hardAlpha"/>
<feOffset dy="2.38223"/>
<feGaussianBlur stdDeviation="2.97779"/>
<feComposite in2="hardAlpha" operator="out"/>
<feColorMatrix type="matrix" values="0 0 0 0 0 0 0 0 0 0 0 0 0 0 0 0 0 0 0.1 0"/>
<feBlend mode="normal" in2="effect1_dropShadow_202_3474" result="effect2_dropShadow_202_3474"/>
<feBlend mode="normal" in="SourceGraphic" in2="effect2_dropShadow_202_3474" result="shape"/>
</filter>
</defs>
</svg>
