<svg width="273" height="240" viewBox="0 0 273 240" fill="none" xmlns="http://www.w3.org/2000/svg">
<g filter="url(#filter0_dd_202_6154)">
<g filter="url(#filter1_dd_202_6154)">
<path d="M39.0042 178.515H46.1898L61.7565 171.468H75.3394V195.468H61.7565H18.2573V187.238L39.0042 178.515Z" stroke="#9DAFCC" stroke-width="0.6" stroke-linejoin="round"/>
<path d="M39.0042 182.742H46.1898L61.7565 175.695H75.3394V195.467H61.7565H18.2573V191.465L39.0042 182.742Z" fill="#F25451" stroke="#9DAFCC" stroke-width="0.6" stroke-linejoin="round"/>
<path d="M73.5073 159.132H97.9185V144.67H73.5073V159.132Z" fill="#F25451" stroke="#9DAFCC" stroke-width="0.6" stroke-linejoin="round"/>
<path d="M78.6831 159.132H75.3394V177.796H78.6831V159.132Z" fill="#E4EBF5" stroke="#9DAFCC" stroke-width="0.6" stroke-linejoin="round"/>
<path d="M78.6831 177.796H97.9187V159.133H78.6831V177.796Z" fill="#E4EBF5" stroke="#9DAFCC" stroke-width="0.6" stroke-linejoin="round"/>
<path d="M83.655 171.979H92.9459V162.913H83.655V171.979Z" fill="#365DA0" stroke="#9DAFCC" stroke-width="0.6" stroke-linecap="round" stroke-linejoin="round"/>
<path d="M92.9459 167.444H83.6555" stroke="#9DAFCC" stroke-width="0.6" stroke-linecap="round" stroke-linejoin="round"/>
<path d="M89.8491 162.909V171.974" stroke="#9DAFCC" stroke-width="0.6" stroke-linecap="round" stroke-linejoin="round"/>
<path d="M86.7524 162.909V171.974" stroke="#9DAFCC" stroke-width="0.6" stroke-linecap="round" stroke-linejoin="round"/>
<path d="M78.6831 171.975H97.9182" stroke="#9DAFCC" stroke-width="0.6" stroke-linecap="round" stroke-linejoin="round"/>
<path d="M75.3394 195.463H99.5294V177.792H75.3394V195.463Z" fill="#F25451" stroke="#9DAFCC" stroke-width="0.6" stroke-linejoin="round"/>
<path d="M56.3037 187.503V195.468H70.4279V187.503C70.3822 185.66 69.6184 183.908 68.2988 182.621C66.9792 181.334 65.2088 180.613 63.3656 180.613C61.5223 180.613 59.7523 181.334 58.4328 182.621C57.1132 183.908 56.3494 185.66 56.3037 187.503ZM60.1195 188.2C60.1186 187.773 60.2023 187.351 60.3655 186.956C60.5288 186.562 60.768 186.203 61.0696 185.902C61.3713 185.6 61.7299 185.36 62.1242 185.198C62.5186 185.034 62.9409 184.951 63.3678 184.952C64.2261 184.962 65.0455 185.308 65.6524 185.915C66.2593 186.522 66.6052 187.342 66.6166 188.2H60.1195Z" fill="white" stroke="#9DAFCC" stroke-width="0.6" stroke-linecap="round" stroke-linejoin="round"/>
<path d="M63.3677 184.618C64.2292 184.618 65.0554 184.96 65.6645 185.569C66.2741 186.179 66.616 187.005 66.616 187.866V195.468H60.1194V187.866C60.1194 187.44 60.203 187.017 60.3663 186.623C60.5295 186.229 60.7692 185.871 61.0709 185.569C61.3725 185.268 61.7306 185.029 62.1245 184.865C62.5189 184.702 62.9412 184.618 63.3677 184.618Z" fill="#365DA0" stroke="#9DAFCC" stroke-width="0.6" stroke-linecap="round" stroke-linejoin="round"/>
<path d="M60.115 195.467H66.6161V191.236H60.115V195.467Z" fill="#E4EBF5" stroke="#9DAFCC" stroke-width="0.6" stroke-linecap="round" stroke-linejoin="round"/>
<path d="M61.7563 171.468V175.695" stroke="#9DAFCC" stroke-width="0.6" stroke-linejoin="round"/>
<path d="M46.1899 178.515V182.743" stroke="#9DAFCC" stroke-width="0.6" stroke-linejoin="round"/>
<path d="M39.0044 178.515V182.743" stroke="#9DAFCC" stroke-width="0.6" stroke-linejoin="round"/>
<path d="M83.7939 189.166H89.7058V182.444H83.7939V189.166Z" fill="#365DA0" stroke="#9DAFCC" stroke-width="0.6" stroke-linejoin="round"/>
<path d="M79.9347 140.317C81.6025 140.317 82.9669 139.278 82.9669 138C82.9669 136.211 81.2602 135.904 79.9347 133.933C78.6355 135.904 76.9031 136.211 76.9031 138C76.9071 139.278 78.2629 140.317 79.9347 140.317Z" fill="#F25451" stroke="#9DAFCC" stroke-width="0.6" stroke-linecap="round" stroke-linejoin="round"/>
<path d="M78.0981 144.675H81.7625V139.88H78.0981V144.675Z" fill="#E4EBF5" stroke="#9DAFCC" stroke-width="0.6" stroke-linecap="round" stroke-linejoin="round"/>
<path d="M79.874 133.933V123.317" stroke="#9DAFCC" stroke-width="0.6" stroke-linejoin="round"/>
<path d="M82.5726 126.977H77.293" stroke="#9DAFCC" stroke-width="0.6" stroke-linejoin="round"/>
<path d="M81.1299 124.928H78.6138" stroke="#9DAFCC" stroke-width="0.6" stroke-linejoin="round"/>
<path d="M81.3768 129.675L78.4143 131.287" stroke="#9DAFCC" stroke-width="0.6" stroke-linejoin="round"/>
<path d="M127.943 177.796H99.5293V195.467H127.943V177.796Z" fill="#F25451" stroke="#9DAFCC" stroke-width="0.6" stroke-linejoin="round"/>
<path d="M126.215 144.67H101.262V177.792H126.215V144.67Z" fill="#E4EBF5" stroke="#9DAFCC" stroke-width="0.6" stroke-linejoin="round"/>
<path d="M126.21 177.796H129.554V144.675H126.21V177.796Z" fill="#E4EBF5" stroke="#9DAFCC" stroke-width="0.6" stroke-linejoin="round"/>
<path d="M97.9185 177.796H101.262V144.675H97.9185V177.796Z" fill="#E4EBF5" stroke="#9DAFCC" stroke-width="0.6" stroke-linejoin="round"/>
<path d="M126.21 144.67H101.262" stroke="#9DAFCC" stroke-width="0.6" stroke-linecap="round" stroke-linejoin="round"/>
<path d="M126.21 148.811H101.262" stroke="#9DAFCC" stroke-width="0.6" stroke-linecap="round" stroke-linejoin="round"/>
<path d="M126.21 152.951H101.262" stroke="#9DAFCC" stroke-width="0.6" stroke-linecap="round" stroke-linejoin="round"/>
<path d="M126.21 157.093H101.262" stroke="#9DAFCC" stroke-width="0.6" stroke-linecap="round" stroke-linejoin="round"/>
<path d="M126.21 161.233H101.262" stroke="#9DAFCC" stroke-width="0.6" stroke-linecap="round" stroke-linejoin="round"/>
<path d="M126.21 165.373H101.262" stroke="#9DAFCC" stroke-width="0.6" stroke-linecap="round" stroke-linejoin="round"/>
<path d="M126.21 169.514H101.262" stroke="#9DAFCC" stroke-width="0.6" stroke-linecap="round" stroke-linejoin="round"/>
<path d="M126.21 173.655H101.262" stroke="#9DAFCC" stroke-width="0.6" stroke-linecap="round" stroke-linejoin="round"/>
<path d="M126.21 177.796H101.262" stroke="#9DAFCC" stroke-width="0.6" stroke-linecap="round" stroke-linejoin="round"/>
<path d="M118.379 161.233H109.088V173.655H118.379V161.233Z" fill="#365DA0" stroke="#9DAFCC" stroke-width="0.6" stroke-linecap="round" stroke-linejoin="round"/>
<path d="M109.088 164.59H118.379" stroke="#9DAFCC" stroke-width="0.6" stroke-linecap="round" stroke-linejoin="round"/>
<path d="M112.186 164.59V173.655" stroke="#9DAFCC" stroke-width="0.6" stroke-linecap="round" stroke-linejoin="round"/>
<path d="M115.282 164.59V173.655" stroke="#9DAFCC" stroke-width="0.6" stroke-linecap="round" stroke-linejoin="round"/>
<path d="M116.694 182.448H110.782V189.17H116.694V182.448Z" fill="#365DA0" stroke="#9DAFCC" stroke-width="0.6" stroke-linejoin="round"/>
<path d="M188.468 178.515H181.283L165.716 171.468H152.133V195.468H165.716H209.215V187.238L188.468 178.515Z" stroke="#9DAFCC" stroke-width="0.6" stroke-linejoin="round"/>
<path d="M188.468 182.742H181.283L165.716 175.695H152.133V195.467H165.716H209.215V191.465L188.468 182.742Z" fill="#F25451" stroke="#9DAFCC" stroke-width="0.6" stroke-linejoin="round"/>
<path d="M153.965 144.67H129.554V159.132H153.965V144.67Z" fill="#F25451" stroke="#9DAFCC" stroke-width="0.6" stroke-linejoin="round"/>
<path d="M148.79 177.796H152.133V159.133H148.79V177.796Z" fill="#E4EBF5" stroke="#9DAFCC" stroke-width="0.6" stroke-linejoin="round"/>
<path d="M148.789 159.132H129.554V177.796H148.789V159.132Z" fill="#E4EBF5" stroke="#9DAFCC" stroke-width="0.6" stroke-linejoin="round"/>
<path d="M143.817 162.909H134.527V171.974H143.817V162.909Z" fill="#365DA0" stroke="#9DAFCC" stroke-width="0.6" stroke-linecap="round" stroke-linejoin="round"/>
<path d="M134.527 167.444H143.817" stroke="#9DAFCC" stroke-width="0.6" stroke-linecap="round" stroke-linejoin="round"/>
<path d="M137.623 162.909V171.974" stroke="#9DAFCC" stroke-width="0.6" stroke-linecap="round" stroke-linejoin="round"/>
<path d="M140.72 162.909V171.974" stroke="#9DAFCC" stroke-width="0.6" stroke-linecap="round" stroke-linejoin="round"/>
<path d="M148.789 171.975H129.554" stroke="#9DAFCC" stroke-width="0.6" stroke-linecap="round" stroke-linejoin="round"/>
<path d="M152.133 177.796H127.943V195.467H152.133V177.796Z" fill="#F25451" stroke="#9DAFCC" stroke-width="0.6" stroke-linejoin="round"/>
<path d="M164.092 180.442C162.22 180.442 160.424 181.186 159.1 182.51C157.776 183.834 157.032 185.63 157.032 187.502V195.468H171.152V187.502C171.152 185.63 170.408 183.834 169.084 182.51C167.76 181.186 165.964 180.442 164.092 180.442ZM160.843 188.2C160.857 187.343 161.204 186.526 161.81 185.922C162.417 185.318 163.236 184.974 164.092 184.964C164.953 184.964 165.78 185.307 166.389 185.916C166.998 186.525 167.341 187.351 167.341 188.213L160.843 188.2Z" fill="white" stroke="#9DAFCC" stroke-width="0.6" stroke-linecap="round" stroke-linejoin="round"/>
<path d="M164.092 184.618C163.23 184.618 162.404 184.96 161.795 185.569C161.185 186.179 160.843 187.005 160.843 187.866V195.468H167.34V187.866C167.34 187.005 166.998 186.179 166.388 185.569C165.779 184.96 164.953 184.618 164.092 184.618Z" fill="#365DA0" stroke="#9DAFCC" stroke-width="0.6" stroke-linecap="round" stroke-linejoin="round"/>
<path d="M167.357 191.236H160.856V195.467H167.357V191.236Z" fill="#E4EBF5" stroke="#9DAFCC" stroke-width="0.6" stroke-linecap="round" stroke-linejoin="round"/>
<path d="M165.716 171.468V175.695" stroke="#9DAFCC" stroke-width="0.6" stroke-linejoin="round"/>
<path d="M181.282 178.515V182.743" stroke="#9DAFCC" stroke-width="0.6" stroke-linejoin="round"/>
<path d="M188.468 178.515V182.743" stroke="#9DAFCC" stroke-width="0.6" stroke-linejoin="round"/>
<path d="M143.679 182.448H137.766V189.17H143.679V182.448Z" fill="#365DA0" stroke="#9DAFCC" stroke-width="0.6" stroke-linejoin="round"/>
<path d="M147.537 140.317C145.865 140.317 144.506 139.278 144.506 138C144.506 136.211 146.208 135.904 147.537 133.933C148.858 135.904 150.569 136.211 150.569 138C150.565 139.278 149.209 140.317 147.537 140.317Z" fill="#F25451" stroke="#9DAFCC" stroke-width="0.6" stroke-linecap="round" stroke-linejoin="round"/>
<path d="M149.37 139.875H145.705V144.67H149.37V139.875Z" fill="#E4EBF5" stroke="#9DAFCC" stroke-width="0.6" stroke-linecap="round" stroke-linejoin="round"/>
<path d="M147.598 133.933V123.317" stroke="#9DAFCC" stroke-width="0.6" stroke-linejoin="round"/>
<path d="M144.899 126.977H150.175" stroke="#9DAFCC" stroke-width="0.6" stroke-linejoin="round"/>
<path d="M146.342 124.928H148.854" stroke="#9DAFCC" stroke-width="0.6" stroke-linejoin="round"/>
<path d="M146.095 129.675L149.058 131.287" stroke="#9DAFCC" stroke-width="0.6" stroke-linejoin="round"/>
<path d="M126.21 123.351H101.262" stroke="#9DAFCC" stroke-width="0.6" stroke-linecap="round" stroke-linejoin="round"/>
<path d="M140.04 123.351H87.4365V137.545H140.04V123.351Z" fill="#F25451" stroke="#9DAFCC" stroke-width="0.6" stroke-linejoin="round"/>
<path d="M92.6944 123.351L87.4319 137.545H97.9568L92.6944 123.351Z" fill="#E4EBF5" stroke="#9DAFCC" stroke-width="0.6" stroke-linejoin="round"/>
<path d="M92.6948 134.158V137.546" stroke="#9DAFCC" stroke-width="0.6" stroke-linejoin="round"/>
<path d="M103.215 123.351L97.9575 137.545H108.474L103.215 123.351Z" fill="#E4EBF5" stroke="#9DAFCC" stroke-width="0.6" stroke-linejoin="round"/>
<path d="M103.215 134.158V137.546" stroke="#9DAFCC" stroke-width="0.6" stroke-linejoin="round"/>
<path d="M113.736 123.351L108.473 137.545H118.994L113.736 123.351Z" fill="#E4EBF5" stroke="#9DAFCC" stroke-width="0.6" stroke-linejoin="round"/>
<path d="M113.736 134.158V137.546" stroke="#9DAFCC" stroke-width="0.6" stroke-linejoin="round"/>
<path d="M124.257 123.351L118.994 137.545H129.515L124.257 123.351Z" fill="#E4EBF5" stroke="#9DAFCC" stroke-width="0.6" stroke-linejoin="round"/>
<path d="M124.257 134.158V137.546" stroke="#9DAFCC" stroke-width="0.6" stroke-linejoin="round"/>
<path d="M134.778 123.351L129.515 137.545H140.036L134.778 123.351Z" fill="#E4EBF5" stroke="#9DAFCC" stroke-width="0.6" stroke-linejoin="round"/>
<path d="M134.778 134.158V137.546" stroke="#9DAFCC" stroke-width="0.6" stroke-linejoin="round"/>
<path d="M113.736 62.0121C111.41 62.0121 109.526 60.2795 109.526 58.1746C109.526 55.2119 111.9 54.7095 113.736 51.4351C115.573 54.7008 117.946 55.2119 117.946 58.1746C117.946 60.2926 116.062 62.0121 113.736 62.0121Z" fill="#F25451" stroke="#9DAFCC" stroke-width="0.6" stroke-linecap="round" stroke-linejoin="round"/>
<path d="M132.088 110.93H95.3848V123.352H132.088V110.93Z" fill="#E4EBF5" stroke="#9DAFCC" stroke-width="0.6" stroke-linejoin="round"/>
<path d="M132.088 115.07H95.3848" stroke="#9DAFCC" stroke-width="0.6" stroke-linecap="round" stroke-linejoin="round"/>
<path d="M132.088 119.211H95.3848" stroke="#9DAFCC" stroke-width="0.6" stroke-linecap="round" stroke-linejoin="round"/>
<path d="M121.697 123.351H124.503V110.929H121.697V123.351Z" fill="#E4EBF5" stroke="#9DAFCC" stroke-width="0.6" stroke-linejoin="round"/>
<path d="M102.964 123.351H105.771V110.929H102.964V123.351Z" fill="#E4EBF5" stroke="#9DAFCC" stroke-width="0.6" stroke-linejoin="round"/>
<path d="M133.538 107.2H93.9336V110.929H133.538V107.2Z" fill="#E4EBF5" stroke="#9DAFCC" stroke-width="0.6" stroke-linecap="round" stroke-linejoin="round"/>
<path d="M113.736 65.9622L101.817 101.201H125.656L113.736 65.9622Z" fill="#F25451" stroke="#9DAFCC" stroke-width="0.6" stroke-linecap="round" stroke-linejoin="round"/>
<path d="M125.656 101.202H101.817L92.4521 107.205H135.02L125.656 101.202Z" fill="#F25451" stroke="#9DAFCC" stroke-width="0.6" stroke-linecap="round" stroke-linejoin="round"/>
<path d="M115.563 62.0469H111.908V71.3461H115.563V62.0469Z" fill="#E4EBF5" stroke="#9DAFCC" stroke-width="0.6" stroke-linecap="round" stroke-linejoin="round"/>
<path d="M110.544 62.2375H116.928" stroke="#9DAFCC" stroke-width="0.6" stroke-linecap="round" stroke-linejoin="round"/>
<path d="M113.805 51.4524V39" stroke="#9DAFCC" stroke-width="0.6" stroke-linejoin="round"/>
<path d="M110.639 43.2925H116.828" stroke="#9DAFCC" stroke-width="0.6" stroke-linejoin="round"/>
<path d="M112.333 40.8928H115.282" stroke="#9DAFCC" stroke-width="0.6" stroke-linejoin="round"/>
<path d="M112.047 46.4585L115.516 48.3469" stroke="#9DAFCC" stroke-width="0.6" stroke-linejoin="round"/>
<path d="M136.51 144.696H90.962L87.4668 137.562H140.005L136.51 144.696Z" fill="#E4EBF5" stroke="#9DAFCC" stroke-width="0.6" stroke-linejoin="round"/>
<path d="M253.45 157.092H139.356L154.68 139.828H253.45V157.092Z" fill="#F25451" stroke="#9DAFCC" stroke-width="0.6" stroke-linecap="round" stroke-linejoin="round"/>
<path d="M207.084 142.231L194.536 157.092V195.468H219.627V157.092L207.084 142.231Z" fill="#E4EBF5" stroke="#9DAFCC" stroke-width="0.6" stroke-linejoin="round"/>
<path d="M194.536 195.468H219.627V191.868H194.536V195.468Z" fill="#365DA0" stroke="#9DAFCC" stroke-width="0.6" stroke-linejoin="round"/>
<path d="M194.536 157.093H141.145V195.468H194.536V157.093Z" fill="#E4EBF5" stroke="#9DAFCC" stroke-width="0.6" stroke-linejoin="round"/>
<path d="M153.263 163.351H146.052V172.399H153.263V163.351Z" fill="#365DA0" stroke="white" stroke-width="0.6" stroke-linejoin="round"/>
<path d="M146.052 167.877H153.263" stroke="white" stroke-width="0.6" stroke-linejoin="round"/>
<path d="M149.66 163.351V172.403" stroke="white" stroke-width="0.6" stroke-linejoin="round"/>
<path d="M149.66 161.904L147.654 163.351H151.661L149.66 161.904Z" stroke="white" stroke-width="0.6" stroke-linecap="round" stroke-linejoin="round"/>
<path d="M165.382 163.351H158.171V172.399H165.382V163.351Z" fill="#365DA0" stroke="white" stroke-width="0.6" stroke-linejoin="round"/>
<path d="M158.171 167.877H165.387" stroke="white" stroke-width="0.6" stroke-linejoin="round"/>
<path d="M161.779 163.351V172.403" stroke="white" stroke-width="0.6" stroke-linejoin="round"/>
<path d="M161.779 161.904L159.778 163.351H163.78L161.779 161.904Z" stroke="white" stroke-width="0.6" stroke-linecap="round" stroke-linejoin="round"/>
<path d="M177.506 163.351H170.294V172.399H177.506V163.351Z" fill="#365DA0" stroke="white" stroke-width="0.6" stroke-linejoin="round"/>
<path d="M170.294 167.877H177.506" stroke="white" stroke-width="0.6" stroke-linejoin="round"/>
<path d="M173.902 163.351V172.403" stroke="white" stroke-width="0.6" stroke-linejoin="round"/>
<path d="M173.902 161.904L171.896 163.351H175.903L173.902 161.904Z" stroke="white" stroke-width="0.6" stroke-linecap="round" stroke-linejoin="round"/>
<path d="M189.629 163.351H182.417V172.399H189.629V163.351Z" fill="#365DA0" stroke="white" stroke-width="0.6" stroke-linejoin="round"/>
<path d="M182.417 167.877H189.629" stroke="white" stroke-width="0.6" stroke-linejoin="round"/>
<path d="M186.021 163.351V172.403" stroke="white" stroke-width="0.6" stroke-linejoin="round"/>
<path d="M186.021 161.904L184.02 163.351H188.022L186.021 161.904Z" stroke="white" stroke-width="0.6" stroke-linecap="round" stroke-linejoin="round"/>
<path d="M153.263 178.966H146.052V188.014H153.263V178.966Z" fill="#365DA0" stroke="white" stroke-width="0.6" stroke-linejoin="round"/>
<path d="M146.052 183.491H153.263" stroke="white" stroke-width="0.6" stroke-linejoin="round"/>
<path d="M149.66 178.966V188.014" stroke="white" stroke-width="0.6" stroke-linejoin="round"/>
<path d="M149.66 177.514L147.654 178.965H151.661L149.66 177.514Z" stroke="white" stroke-width="0.6" stroke-linecap="round" stroke-linejoin="round"/>
<path d="M165.382 178.966H158.171V188.014H165.382V178.966Z" fill="#365DA0" stroke="white" stroke-width="0.6" stroke-linejoin="round"/>
<path d="M158.171 183.491H165.387" stroke="white" stroke-width="0.6" stroke-linejoin="round"/>
<path d="M161.779 178.966V188.014" stroke="white" stroke-width="0.6" stroke-linejoin="round"/>
<path d="M161.779 177.514L159.778 178.965H163.78L161.779 177.514Z" stroke="white" stroke-width="0.6" stroke-linecap="round" stroke-linejoin="round"/>
<path d="M177.506 178.966H170.294V188.014H177.506V178.966Z" fill="#365DA0" stroke="white" stroke-width="0.6" stroke-linejoin="round"/>
<path d="M170.294 183.491H177.506" stroke="white" stroke-width="0.6" stroke-linejoin="round"/>
<path d="M173.902 178.966V188.014" stroke="white" stroke-width="0.6" stroke-linejoin="round"/>
<path d="M173.902 177.514L171.896 178.965H175.903L173.902 177.514Z" stroke="white" stroke-width="0.6" stroke-linecap="round" stroke-linejoin="round"/>
<path d="M189.629 178.966H182.417V188.014H189.629V178.966Z" fill="#365DA0" stroke="white" stroke-width="0.6" stroke-linejoin="round"/>
<path d="M182.417 183.491H189.629" stroke="white" stroke-width="0.6" stroke-linejoin="round"/>
<path d="M186.021 178.966V188.014" stroke="white" stroke-width="0.6" stroke-linejoin="round"/>
<path d="M186.021 177.514L184.02 178.965H188.022L186.021 177.514Z" stroke="white" stroke-width="0.6" stroke-linecap="round" stroke-linejoin="round"/>
<path d="M213.139 178.966H201.016V188.014H213.139V178.966Z" fill="#365DA0" stroke="white" stroke-width="0.6" stroke-linejoin="round"/>
<path d="M201.016 182.457H213.139" stroke="white" stroke-width="0.6" stroke-linejoin="round"/>
<path d="M205.057 178.966V188.014" stroke="white" stroke-width="0.6" stroke-linejoin="round"/>
<path d="M209.098 178.966V188.014" stroke="white" stroke-width="0.6" stroke-linejoin="round"/>
<path d="M194.536 191.868H141.145V195.468H194.536V191.868Z" fill="#365DA0" stroke="#9DAFCC" stroke-width="0.6" stroke-linejoin="round"/>
<path d="M213.139 159.804H201.016V168.852H213.139V159.804Z" fill="#365DA0" stroke="white" stroke-width="0.6" stroke-linejoin="round"/>
<path d="M201.016 163.294H213.139" stroke="white" stroke-width="0.6" stroke-linejoin="round"/>
<path d="M205.057 159.804V168.856" stroke="white" stroke-width="0.6" stroke-linejoin="round"/>
<path d="M209.098 159.804V168.856" stroke="white" stroke-width="0.6" stroke-linejoin="round"/>
<path d="M211.068 156.612H203.086V159.804H211.068V156.612Z" fill="#365DA0" stroke="white" stroke-width="0.6" stroke-linejoin="round"/>
<path d="M215.998 167.877H198.157V175.357H215.998V167.877Z" fill="#9DAFCC" stroke="white" stroke-width="0.6" stroke-linejoin="round"/>
<path d="M201.722 167.877V175.357" stroke="white" stroke-width="0.6" stroke-linejoin="round"/>
<path d="M205.291 167.877V175.357" stroke="white" stroke-width="0.6" stroke-linejoin="round"/>
<path d="M208.86 167.877V175.357" stroke="white" stroke-width="0.6" stroke-linejoin="round"/>
<path d="M212.429 167.877V175.357" stroke="white" stroke-width="0.6" stroke-linejoin="round"/>
<path d="M246.611 195.468H253.455V157.092H246.611V195.468Z" fill="#E4EBF5" stroke="#9DAFCC" stroke-width="0.6" stroke-linecap="round" stroke-linejoin="round"/>
<path d="M246.611 180.858H253.455V162.627H246.611V180.858Z" fill="#F25451" stroke="#9DAFCC" stroke-width="0.6" stroke-linecap="round" stroke-linejoin="round"/>
<path d="M246.607 157.093H219.692V195.468H246.607V157.093Z" fill="#E4EBF5" stroke="#9DAFCC" stroke-width="0.6" stroke-linecap="round" stroke-linejoin="round"/>
<path d="M219.696 195.468H246.611V191.868H219.696V195.468Z" fill="#365DA0" stroke="#9DAFCC" stroke-width="0.6" stroke-linejoin="round"/>
<path d="M236.485 180.347H229.815V195.468H236.485V180.347Z" fill="#F25451" stroke="#9DAFCC" stroke-width="0.6" stroke-linejoin="round"/>
<path d="M227.281 161.185H223.218V165.248H227.281V161.185Z" fill="#E4EBF5" stroke="#9DAFCC" stroke-width="0.6" stroke-linejoin="round"/>
<path d="M243.086 161.185H239.023V165.248H243.086V161.185Z" fill="#E4EBF5" stroke="#9DAFCC" stroke-width="0.6" stroke-linejoin="round"/>
<path d="M227.281 187.806H223.218V191.868H227.281V187.806Z" fill="#365DA0" stroke="#9DAFCC" stroke-width="0.6" stroke-linejoin="round"/>
<path d="M243.086 187.806H239.023V191.868H243.086V187.806Z" fill="#365DA0" stroke="#9DAFCC" stroke-width="0.6" stroke-linejoin="round"/>
<path d="M233.154 164.694L225.249 177.142H241.054L233.154 164.694Z" fill="white" stroke="#9DAFCC" stroke-width="0.6" stroke-linejoin="round"/>
<path d="M233.093 168.146L241.128 181.673H241.136L243.83 179.992L233.093 162.628L222.473 179.806L225.071 181.66L233.093 168.146Z" fill="#F25451" stroke="#9DAFCC" stroke-width="0.6" stroke-linecap="round" stroke-linejoin="round"/>
<path d="M244.415 130.446H221.888V153.562H244.415V130.446Z" fill="#E4EBF5" stroke="#9DAFCC" stroke-width="0.6" stroke-linecap="round" stroke-linejoin="round"/>
<path d="M225.63 135.678L223.738 153.562H227.523L225.63 135.678Z" fill="#E4EBF5" stroke="#F25451" stroke-width="0.6" stroke-linecap="round" stroke-linejoin="round"/>
<path d="M233.154 135.678L231.257 153.562H235.046L233.154 135.678Z" fill="#E4EBF5" stroke="#F25451" stroke-width="0.6" stroke-linecap="round" stroke-linejoin="round"/>
<path d="M240.66 135.678L238.767 153.562H242.553L240.66 135.678Z" fill="#E4EBF5" stroke="#F25451" stroke-width="0.6" stroke-linecap="round" stroke-linejoin="round"/>
<path d="M229.399 130.446V153.562" stroke="#9DAFCC" stroke-width="0.6" stroke-linecap="round" stroke-linejoin="round"/>
<path d="M236.905 130.446V153.562" stroke="#9DAFCC" stroke-width="0.6" stroke-linecap="round" stroke-linejoin="round"/>
<path d="M248.339 153.562H217.964V157.092H248.339V153.562Z" fill="#F25451" stroke="#9DAFCC" stroke-width="0.6" stroke-linecap="round" stroke-linejoin="round"/>
<path d="M246.13 127.111H220.173V130.446H246.13V127.111Z" fill="#E4EBF5" stroke="#9DAFCC" stroke-width="0.6" stroke-linecap="round" stroke-linejoin="round"/>
<path d="M233.154 120.324L220.173 127.111H246.13L233.154 120.324Z" fill="#F25451" stroke="#9DAFCC" stroke-width="0.6" stroke-linecap="round" stroke-linejoin="round"/>
<path d="M233.171 103.385L226.6 123.72H239.746L233.171 103.385Z" fill="#F25451" stroke="#9DAFCC" stroke-width="0.6" stroke-linecap="round" stroke-linejoin="round"/>
<path d="M206.989 145.58L218.995 158.699H219.008L221.148 156.819L206.989 141.352L192.981 156.65L194.991 158.682L206.989 145.58Z" fill="#F25451" stroke="#9DAFCC" stroke-width="0.6" stroke-linecap="round" stroke-linejoin="round"/>
<path d="M253.45 191.868H246.607V195.468H253.45V191.868Z" fill="#365DA0" stroke="#9DAFCC" stroke-width="0.6" stroke-linejoin="round"/>
</g>
</g>
<defs>
<filter id="filter0_dd_202_6154" x="-11.9112" y="-11.9112" width="296.822" height="263.822" filterUnits="userSpaceOnUse" color-interpolation-filters="sRGB">
<feFlood flood-opacity="0" result="BackgroundImageFix"/>
<feColorMatrix in="SourceAlpha" type="matrix" values="0 0 0 0 0 0 0 0 0 0 0 0 0 0 0 0 0 0 127 0" result="hardAlpha"/>
<feOffset/>
<feGaussianBlur stdDeviation="5.95559"/>
<feComposite in2="hardAlpha" operator="out"/>
<feColorMatrix type="matrix" values="0 0 0 0 0.568627 0 0 0 0 0.741176 0 0 0 0 0.866667 0 0 0 1 0"/>
<feBlend mode="normal" in2="BackgroundImageFix" result="effect1_dropShadow_202_6154"/>
<feColorMatrix in="SourceAlpha" type="matrix" values="0 0 0 0 0 0 0 0 0 0 0 0 0 0 0 0 0 0 127 0" result="hardAlpha"/>
<feOffset dy="2.38223"/>
<feGaussianBlur stdDeviation="2.97779"/>
<feComposite in2="hardAlpha" operator="out"/>
<feColorMatrix type="matrix" values="0 0 0 0 0 0 0 0 0 0 0 0 0 0 0 0 0 0 0.1 0"/>
<feBlend mode="normal" in2="effect1_dropShadow_202_6154" result="effect2_dropShadow_202_6154"/>
<feBlend mode="normal" in="SourceGraphic" in2="effect2_dropShadow_202_6154" result="shape"/>
</filter>
<filter id="filter1_dd_202_6154" x="6.04616" y="27.0888" width="259.62" height="180.59" filterUnits="userSpaceOnUse" color-interpolation-filters="sRGB">
<feFlood flood-opacity="0" result="BackgroundImageFix"/>
<feColorMatrix in="SourceAlpha" type="matrix" values="0 0 0 0 0 0 0 0 0 0 0 0 0 0 0 0 0 0 127 0" result="hardAlpha"/>
<feOffset/>
<feGaussianBlur stdDeviation="5.95559"/>
<feComposite in2="hardAlpha" operator="out"/>
<feColorMatrix type="matrix" values="0 0 0 0 0.568627 0 0 0 0 0.741176 0 0 0 0 0.866667 0 0 0 1 0"/>
<feBlend mode="normal" in2="BackgroundImageFix" result="effect1_dropShadow_202_6154"/>
<feColorMatrix in="SourceAlpha" type="matrix" values="0 0 0 0 0 0 0 0 0 0 0 0 0 0 0 0 0 0 127 0" result="hardAlpha"/>
<feOffset dy="2.38223"/>
<feGaussianBlur stdDeviation="2.97779"/>
<feComposite in2="hardAlpha" operator="out"/>
<feColorMatrix type="matrix" values="0 0 0 0 0 0 0 0 0 0 0 0 0 0 0 0 0 0 0.1 0"/>
<feBlend mode="normal" in2="effect1_dropShadow_202_6154" result="effect2_dropShadow_202_6154"/>
<feBlend mode="normal" in="SourceGraphic" in2="effect2_dropShadow_202_6154" result="shape"/>
</filter>
</defs>
</svg>
