<svg width="283" height="240" viewBox="0 0 283 240" fill="none" xmlns="http://www.w3.org/2000/svg">
<g filter="url(#filter0_dd_202_2309)">
<g filter="url(#filter1_dd_202_2309)">
<path d="M90.8832 112.414L61.845 150.216L260.87 157.38L240.366 113.411L220.766 126.611L193.436 96.2292L172.825 113.897L139.049 76.1304L98.8877 121.317L90.8832 112.414Z" fill="#E4EBF5" stroke="#9DAFCC" stroke-width="0.6" stroke-linecap="round" stroke-linejoin="round"/>
<path d="M247.391 128.472L240.366 113.411L228.105 121.667L234.941 130.508L239.755 128.202L244.609 134.746L247.391 128.472Z" fill="white" stroke="#9DAFCC" stroke-width="0.6" stroke-linecap="round" stroke-linejoin="round"/>
<path d="M175.265 78.854H161.786V94.0046H175.265V78.854Z" fill="white" stroke="#9DAFCC" stroke-width="0.6" stroke-miterlimit="10"/>
<path d="M178.73 94.0045H172.402L169.885 91.7213H158.969V118.598H178.73V94.0045Z" fill="white" stroke="#9DAFCC" stroke-width="0.6" stroke-miterlimit="10"/>
<path d="M158.969 95.0878H169.885L172.402 97.3709H178.73" fill="white"/>
<path d="M158.969 95.0878H169.885L172.402 97.3709H178.73" stroke="#9DAFCC" stroke-width="0.6" stroke-miterlimit="10"/>
<path d="M206.712 128.706H152.371V149.843H206.712V128.706Z" fill="white" stroke="#9DAFCC" stroke-width="0.6" stroke-miterlimit="10" stroke-linecap="round"/>
<path d="M165.391 132.306C167.363 132.306 169.254 133.091 170.648 134.486C172.042 135.88 172.825 137.772 172.825 139.744V149.843H157.953V139.744C157.953 137.771 158.737 135.879 160.131 134.484C161.526 133.089 163.418 132.306 165.391 132.306Z" fill="#E4EBF5" stroke="#9DAFCC" stroke-width="0.6" stroke-miterlimit="10"/>
<path d="M189.728 135.47C190.714 135.47 191.659 135.861 192.356 136.558C193.054 137.255 193.445 138.2 193.445 139.186V149.843H185.998V139.186C185.998 138.697 186.095 138.213 186.283 137.762C186.471 137.31 186.746 136.9 187.093 136.555C187.439 136.209 187.85 135.936 188.303 135.75C188.755 135.564 189.239 135.468 189.728 135.47Z" fill="#365DA0" stroke="#9DAFCC" stroke-width="0.6" stroke-miterlimit="10"/>
<path d="M168.258 106.22C169.245 106.222 170.19 106.614 170.887 107.312C171.584 108.009 171.975 108.955 171.975 109.942V120.58H164.56V109.942C164.56 108.959 164.948 108.015 165.641 107.318C166.334 106.621 167.276 106.226 168.258 106.22Z" fill="#F25451" stroke="#9DAFCC" stroke-width="0.6" stroke-miterlimit="10"/>
<path d="M200.452 136.692C201.438 136.692 202.384 137.084 203.081 137.781C203.779 138.477 204.172 139.423 204.173 140.409V149.847H196.735V140.409C196.735 139.423 197.126 138.478 197.823 137.781C198.52 137.084 199.466 136.692 200.452 136.692Z" fill="#365DA0" stroke="#9DAFCC" stroke-width="0.6" stroke-miterlimit="10"/>
<path d="M180.443 139.775H176.083V149.843H180.443V139.775Z" fill="#E4EBF5" stroke="#9DAFCC" stroke-width="0.6" stroke-miterlimit="10"/>
<path d="M180.443 133.461H176.083V137.07H180.443V133.461Z" fill="#E4EBF5" stroke="#9DAFCC" stroke-width="0.6" stroke-miterlimit="10"/>
<path d="M183.427 131.524V149.843" stroke="#9DAFCC" stroke-width="0.6" stroke-miterlimit="10"/>
<path d="M183.427 132.306H206.712" stroke="#9DAFCC" stroke-width="0.6" stroke-miterlimit="10"/>
<path d="M182.124 128.625V132.391" stroke="#9DAFCC" stroke-width="0.6" stroke-miterlimit="10"/>
<path d="M184.843 128.625V132.391" stroke="#9DAFCC" stroke-width="0.6" stroke-miterlimit="10"/>
<path d="M187.566 128.625V132.391" stroke="#9DAFCC" stroke-width="0.6" stroke-miterlimit="10"/>
<path d="M190.285 128.625V132.391" stroke="#9DAFCC" stroke-width="0.6" stroke-miterlimit="10"/>
<path d="M193.004 128.625V132.391" stroke="#9DAFCC" stroke-width="0.6" stroke-miterlimit="10"/>
<path d="M195.728 128.625V132.391" stroke="#9DAFCC" stroke-width="0.6" stroke-miterlimit="10"/>
<path d="M198.447 128.625V132.391" stroke="#9DAFCC" stroke-width="0.6" stroke-miterlimit="10"/>
<path d="M201.171 128.625V132.391" stroke="#9DAFCC" stroke-width="0.6" stroke-miterlimit="10"/>
<path d="M203.89 128.625V132.391" stroke="#9DAFCC" stroke-width="0.6" stroke-miterlimit="10"/>
<path d="M159.665 76.1304V78.854" stroke="#9DAFCC" stroke-width="0.6" stroke-miterlimit="10"/>
<path d="M162.263 76.1304V78.854" stroke="#9DAFCC" stroke-width="0.6" stroke-miterlimit="10"/>
<path d="M164.865 76.1304V78.854" stroke="#9DAFCC" stroke-width="0.6" stroke-miterlimit="10"/>
<path d="M167.463 76.1304V78.854" stroke="#9DAFCC" stroke-width="0.6" stroke-miterlimit="10"/>
<path d="M170.065 76.1304V78.854" stroke="#9DAFCC" stroke-width="0.6" stroke-miterlimit="10"/>
<path d="M172.667 76.1304V78.854" stroke="#9DAFCC" stroke-width="0.6" stroke-miterlimit="10"/>
<path d="M175.265 76.1304V78.854" stroke="#9DAFCC" stroke-width="0.6" stroke-miterlimit="10"/>
<path d="M177.867 76.1304V78.854" stroke="#9DAFCC" stroke-width="0.6" stroke-miterlimit="10"/>
<path d="M152.371 132.656H158.564" stroke="#9DAFCC" stroke-width="0.6" stroke-miterlimit="10"/>
<path d="M152.371 135.267H155.881" stroke="#9DAFCC" stroke-width="0.6" stroke-miterlimit="10"/>
<path d="M183.427 117.609H177.319L172.825 113.897H165.391L160.312 110.189H154.128V128.706H183.427V117.609Z" fill="white" stroke="#9DAFCC" stroke-width="0.6" stroke-miterlimit="10"/>
<path d="M162.762 123.043C163.193 123.043 163.607 123.214 163.912 123.519C164.218 123.824 164.389 124.238 164.389 124.67V128.715H161.13V124.67C161.13 124.456 161.173 124.244 161.255 124.046C161.337 123.848 161.457 123.669 161.609 123.518C161.76 123.366 161.94 123.247 162.138 123.165C162.336 123.084 162.548 123.042 162.762 123.043Z" fill="#365DA0" stroke="#9DAFCC" stroke-width="0.6" stroke-miterlimit="10"/>
<path d="M168.258 123.043C168.69 123.043 169.104 123.214 169.409 123.519C169.714 123.824 169.885 124.238 169.885 124.67V128.715H166.627V124.67C166.627 124.456 166.669 124.244 166.751 124.046C166.833 123.848 166.954 123.669 167.105 123.518C167.257 123.366 167.436 123.247 167.635 123.165C167.832 123.084 168.044 123.042 168.258 123.043Z" fill="#365DA0" stroke="#9DAFCC" stroke-width="0.6" stroke-miterlimit="10"/>
<path d="M173.76 123.043C173.973 123.042 174.186 123.084 174.383 123.165C174.582 123.247 174.761 123.366 174.913 123.518C175.064 123.669 175.185 123.848 175.267 124.046C175.349 124.244 175.391 124.456 175.391 124.67V128.715H172.133V124.67C172.133 124.238 172.304 123.824 172.609 123.519C172.914 123.214 173.328 123.043 173.76 123.043Z" fill="#365DA0" stroke="#9DAFCC" stroke-width="0.6" stroke-miterlimit="10"/>
<path d="M165.503 99.2314C165.936 99.2314 166.351 99.4034 166.657 99.7093C166.963 100.015 167.135 100.43 167.135 100.863V103.78H163.872V100.863C163.872 100.43 164.044 100.015 164.35 99.7093C164.656 99.4034 165.07 99.2314 165.503 99.2314Z" fill="#365DA0" stroke="#9DAFCC" stroke-width="0.6" stroke-miterlimit="10"/>
<path d="M171.009 99.2314C171.442 99.2314 171.857 99.4034 172.163 99.7093C172.469 100.015 172.64 100.43 172.64 100.863V103.78H169.377V100.863C169.377 100.43 169.55 100.015 169.855 99.7093C170.161 99.4034 170.576 99.2314 171.009 99.2314Z" fill="#365DA0" stroke="#9DAFCC" stroke-width="0.6" stroke-miterlimit="10"/>
<path d="M168.528 84.1753C168.742 84.1753 168.954 84.2175 169.152 84.2996C169.35 84.3816 169.529 84.5019 169.68 84.6534C169.831 84.805 169.951 84.9848 170.032 85.1828C170.114 85.3807 170.155 85.5927 170.155 85.8068V88.7191H166.896V85.8068C166.896 85.5923 166.938 85.3799 167.02 85.1817C167.101 84.9835 167.221 84.8034 167.373 84.6518C167.525 84.5002 167.705 84.38 167.903 84.2983C168.101 84.2165 168.314 84.1747 168.528 84.1753Z" fill="#365DA0" stroke="#9DAFCC" stroke-width="0.6" stroke-miterlimit="10"/>
<path d="M154.128 113.897H160.312L165.391 117.609H172.825L177.319 121.317H183.427" stroke="#9DAFCC" stroke-width="0.6" stroke-miterlimit="10"/>
<path d="M161.786 81.7706H175.265" stroke="#9DAFCC" stroke-width="0.6" stroke-miterlimit="10"/>
<path d="M158.946 78.854H178.649" stroke="#9DAFCC" stroke-width="0.6" stroke-miterlimit="10"/>
<path d="M136.888 139.775H97.5212V149.843H136.888V139.775Z" fill="#F25451" stroke="#9DAFCC" stroke-width="0.6" stroke-miterlimit="10" stroke-linecap="round"/>
<path d="M127.921 129.712H106.483V139.78H127.921V129.712Z" fill="white" stroke="#9DAFCC" stroke-width="0.6" stroke-miterlimit="10" stroke-linecap="round"/>
<path d="M123.099 117.924H111.31V129.712H123.099V117.924Z" fill="white" stroke="#9DAFCC" stroke-width="0.6" stroke-miterlimit="10" stroke-linecap="round"/>
<path d="M31.3594 147.452H208.649V152.975H24.2134L31.3594 147.452Z" fill="#F25451" stroke="#9DAFCC" stroke-width="0.6" stroke-linejoin="round"/>
<path d="M163.234 152.975L117.162 141.501L71.0899 152.975H26.155V166.256H206.712V152.975H163.234Z" fill="white" stroke="#9DAFCC" stroke-width="0.6" stroke-linecap="round" stroke-linejoin="round"/>
<path d="M116.434 145.946C117.703 145.946 118.92 146.45 119.818 147.348C120.716 148.245 121.22 149.463 121.22 150.733V166.256H111.647V150.733C111.647 149.463 112.151 148.245 113.049 147.348C113.947 146.45 115.164 145.946 116.434 145.946Z" fill="#E4EBF5" stroke="#9DAFCC" stroke-width="0.6" stroke-miterlimit="10"/>
<path d="M128.492 149.843C129.383 149.844 130.237 150.199 130.867 150.829C131.496 151.459 131.849 152.314 131.849 153.205V166.238H125.108V153.205C125.108 152.761 125.196 152.322 125.366 151.913C125.536 151.503 125.786 151.132 126.101 150.819C126.415 150.507 126.788 150.26 127.199 150.092C127.609 149.925 128.049 149.84 128.492 149.843Z" fill="#E4EBF5" stroke="#9DAFCC" stroke-width="0.6" stroke-miterlimit="10"/>
<path d="M139.05 151.928C139.827 151.928 140.573 152.237 141.123 152.786C141.673 153.335 141.983 154.081 141.984 154.858V166.256H136.115V154.858C136.115 154.473 136.191 154.092 136.338 153.736C136.486 153.38 136.702 153.057 136.975 152.785C137.247 152.513 137.571 152.297 137.927 152.15C138.283 152.003 138.664 151.928 139.05 151.928Z" fill="#E4EBF5" stroke="#9DAFCC" stroke-width="0.6" stroke-miterlimit="10"/>
<path d="M148.38 154.89C148.685 154.89 148.988 154.95 149.27 155.067C149.552 155.184 149.809 155.356 150.024 155.572C150.24 155.788 150.411 156.045 150.528 156.327C150.645 156.61 150.704 156.912 150.703 157.218V166.256H146.052V157.218C146.052 156.6 146.297 156.008 146.734 155.572C147.17 155.135 147.762 154.89 148.38 154.89Z" fill="#E4EBF5" stroke="#9DAFCC" stroke-width="0.6" stroke-miterlimit="10"/>
<path d="M161.593 158.198V166.256H165.189V158.198C164.715 157.707 164.072 157.415 163.391 157.38C162.713 157.428 162.075 157.718 161.593 158.198Z" fill="#E4EBF5" stroke="#9DAFCC" stroke-width="0.6" stroke-miterlimit="10"/>
<path d="M169.216 158.045V166.103H172.811V158.045C172.336 157.556 171.694 157.266 171.014 157.231C170.336 157.278 169.698 157.566 169.216 158.045Z" fill="#E4EBF5" stroke="#9DAFCC" stroke-width="0.6" stroke-miterlimit="10"/>
<path d="M176.838 158.045V166.103H180.434V158.045C179.957 157.559 179.316 157.268 178.636 157.231C177.958 157.277 177.32 157.566 176.838 158.045Z" fill="#E4EBF5" stroke="#9DAFCC" stroke-width="0.6" stroke-miterlimit="10"/>
<path d="M184.461 158.045V166.103H188.056V158.045C187.58 157.559 186.938 157.268 186.258 157.231C185.581 157.277 184.942 157.566 184.461 158.045Z" fill="white" stroke="#9DAFCC" stroke-width="0.6" stroke-miterlimit="10"/>
<path d="M192.083 158.045V166.103H195.679V158.045C195.201 157.56 194.561 157.27 193.881 157.231C193.203 157.277 192.565 157.566 192.083 158.045Z" fill="white" stroke="#9DAFCC" stroke-width="0.6" stroke-miterlimit="10"/>
<path d="M199.701 158.198V166.256H203.297V158.198C202.823 157.707 202.18 157.415 201.499 157.38C200.821 157.428 200.183 157.718 199.701 158.198Z" fill="white" stroke="#9DAFCC" stroke-width="0.6" stroke-miterlimit="10"/>
<path d="M154.209 166.252H157.957V160.571H154.209V166.252Z" fill="#E4EBF5" stroke="#9DAFCC" stroke-width="0.6" stroke-miterlimit="10"/>
<path d="M104.375 149.843C103.934 149.843 103.497 149.929 103.09 150.098C102.682 150.267 102.312 150.515 102 150.827C101.688 151.14 101.441 151.511 101.272 151.918C101.104 152.326 101.018 152.763 101.018 153.204V166.238H107.737V153.204C107.737 152.313 107.383 151.457 106.752 150.827C106.122 150.197 105.267 149.843 104.375 149.843Z" fill="#E4EBF5" stroke="#9DAFCC" stroke-width="0.6" stroke-miterlimit="10"/>
<path d="M93.8179 151.928C93.4327 151.928 93.0511 152.003 92.6952 152.15C92.3392 152.297 92.0156 152.513 91.7428 152.785C91.4705 153.057 91.2543 153.38 91.1064 153.736C90.959 154.092 90.8831 154.473 90.8831 154.858V166.256H96.7527V154.858C96.7514 154.081 96.4417 153.335 95.8916 152.786C95.3415 152.237 94.5954 151.928 93.8179 151.928Z" fill="#E4EBF5" stroke="#9DAFCC" stroke-width="0.6" stroke-miterlimit="10"/>
<path d="M84.4875 154.89C83.87 154.89 83.2781 155.135 82.8412 155.572C82.4048 156.008 82.1594 156.6 82.1594 157.218V166.256H86.8066V157.218C86.8066 156.602 86.5626 156.011 86.128 155.575C85.6933 155.138 85.1032 154.892 84.4875 154.89Z" fill="#E4EBF5" stroke="#9DAFCC" stroke-width="0.6" stroke-miterlimit="10"/>
<path d="M71.2696 158.198V166.256H67.6741V158.198C68.1482 157.707 68.7909 157.415 69.4718 157.38C70.1505 157.426 70.7891 157.717 71.2696 158.198Z" fill="#E4EBF5" stroke="#9DAFCC" stroke-width="0.6" stroke-miterlimit="10"/>
<path d="M63.6517 158.045V166.103H60.0562V158.045C60.5312 157.556 61.1735 157.266 61.8539 157.231C62.5317 157.278 63.1699 157.566 63.6517 158.045Z" fill="#E4EBF5" stroke="#9DAFCC" stroke-width="0.6" stroke-miterlimit="10"/>
<path d="M56.0293 158.045V166.103H52.4338V158.045C52.9089 157.556 53.5511 157.266 54.2316 157.231C54.9093 157.278 55.5475 157.566 56.0293 158.045Z" fill="#E4EBF5" stroke="#9DAFCC" stroke-width="0.6" stroke-miterlimit="10"/>
<path d="M48.4068 158.045V166.103H44.8113V158.045C45.2878 157.559 45.9292 157.268 46.609 157.231C47.2868 157.277 47.925 157.566 48.4068 158.045Z" fill="#E4EBF5" stroke="#9DAFCC" stroke-width="0.6" stroke-miterlimit="10"/>
<path d="M40.7842 158.045V166.103H37.1887V158.045C37.6652 157.559 38.3066 157.268 38.9865 157.231C39.6642 157.277 40.3026 157.566 40.7842 158.045Z" fill="#E4EBF5" stroke="#9DAFCC" stroke-width="0.6" stroke-miterlimit="10"/>
<path d="M33.1619 158.198V166.256H29.5664V158.198C30.0427 157.711 30.6838 157.419 31.3642 157.38C32.0425 157.426 32.6812 157.717 33.1619 158.198Z" fill="#E4EBF5" stroke="#9DAFCC" stroke-width="0.6" stroke-miterlimit="10"/>
<path d="M78.6585 160.575H74.9102V166.256H78.6585V160.575Z" fill="#E4EBF5" stroke="#9DAFCC" stroke-width="0.6" stroke-miterlimit="10"/>
<path d="M116.434 153.259C115.798 153.259 115.189 153.511 114.74 153.96C114.291 154.41 114.038 155.019 114.038 155.654V166.103H118.829V155.636C118.824 155.004 118.57 154.399 118.121 153.954C117.672 153.508 117.066 153.259 116.434 153.259Z" fill="#365DA0" stroke="#9DAFCC" stroke-width="0.6" stroke-miterlimit="10"/>
<path d="M128.492 153.259C127.857 153.259 127.248 153.511 126.798 153.96C126.349 154.41 126.097 155.019 126.097 155.654V166.103H130.883V155.636C130.879 155.005 130.625 154.401 130.177 153.955C129.729 153.51 129.124 153.259 128.492 153.259Z" fill="#365DA0" stroke="#9DAFCC" stroke-width="0.6" stroke-miterlimit="10"/>
<path d="M104.375 153.259C103.741 153.26 103.133 153.512 102.685 153.962C102.236 154.411 101.984 155.019 101.984 155.654V166.103H106.771V155.636C106.766 155.004 106.512 154.399 106.063 153.954C105.614 153.508 105.008 153.259 104.375 153.259Z" fill="#365DA0" stroke="#9DAFCC" stroke-width="0.6" stroke-miterlimit="10"/>
<path d="M220.011 166.256H12.8518V173.766H220.011V166.256Z" fill="#E4EBF5" stroke="#9DAFCC" stroke-width="0.6" stroke-miterlimit="10"/>
<path d="M82.1594 166.256H71.2695V173.766H82.1594V166.256Z" fill="white" stroke="#9DAFCC" stroke-width="0.6" stroke-miterlimit="10"/>
<path d="M78.5191 169.443V173.753H74.9236V169.443C75.4009 168.957 76.0418 168.667 76.7213 168.629C77.3991 168.675 78.0373 168.964 78.5191 169.443Z" fill="#E4EBF5" stroke="#9DAFCC" stroke-width="0.6" stroke-miterlimit="10"/>
<path d="M161.593 166.256H150.703V173.766H161.593V166.256Z" fill="white" stroke="#9DAFCC" stroke-width="0.6" stroke-miterlimit="10"/>
<path d="M157.953 169.443V173.753H154.357V169.443C154.834 168.956 155.475 168.666 156.155 168.629C156.833 168.675 157.471 168.964 157.953 169.443Z" fill="#E4EBF5" stroke="#9DAFCC" stroke-width="0.6" stroke-miterlimit="10"/>
<path d="M96.7528 166.256H92.8022V171.195H96.7528V166.256Z" fill="#365DA0" stroke="#9DAFCC" stroke-width="0.6" stroke-miterlimit="10"/>
<path d="M104.969 166.256H101.018V171.195H104.969V166.256Z" fill="#365DA0" stroke="#9DAFCC" stroke-width="0.6" stroke-miterlimit="10"/>
<path d="M111.643 173.762H121.22V166.252H111.643V173.762Z" fill="#365DA0" stroke="#9DAFCC" stroke-width="0.6" stroke-miterlimit="10"/>
<path d="M136.115 171.191H140.065V166.252H136.115V171.191Z" fill="#365DA0" stroke="#9DAFCC" stroke-width="0.6" stroke-miterlimit="10"/>
<path d="M127.899 171.191H131.849V166.252H127.899V171.191Z" fill="#365DA0" stroke="#9DAFCC" stroke-width="0.6" stroke-miterlimit="10"/>
<path d="M66.937 166.256H64.4202V173.757H66.937V166.256Z" fill="white" stroke="#9DAFCC" stroke-width="0.6" stroke-miterlimit="10"/>
<path d="M59.2876 166.256H56.7708V173.757H59.2876V166.256Z" fill="white" stroke="#9DAFCC" stroke-width="0.6" stroke-miterlimit="10"/>
<path d="M51.6382 166.256H49.1213V173.757H51.6382V166.256Z" fill="white" stroke="#9DAFCC" stroke-width="0.6" stroke-miterlimit="10"/>
<path d="M43.9888 166.256H41.4719V173.757H43.9888V166.256Z" fill="white" stroke="#9DAFCC" stroke-width="0.6" stroke-miterlimit="10"/>
<path d="M36.3394 166.256H33.8225V173.757H36.3394V166.256Z" fill="white" stroke="#9DAFCC" stroke-width="0.6" stroke-miterlimit="10"/>
<path d="M28.69 166.256H26.1731V173.757H28.69V166.256Z" fill="white" stroke="#9DAFCC" stroke-width="0.6" stroke-miterlimit="10"/>
<path d="M21.0405 166.256H18.5237V173.757H21.0405V166.256Z" fill="white" stroke="#9DAFCC" stroke-width="0.6" stroke-miterlimit="10"/>
<path d="M165.93 173.753H168.447V166.252H165.93V173.753Z" fill="white" stroke="#9DAFCC" stroke-width="0.6" stroke-miterlimit="10"/>
<path d="M173.58 173.753H176.097V166.252H173.58V173.753Z" fill="white" stroke="#9DAFCC" stroke-width="0.6" stroke-miterlimit="10"/>
<path d="M181.225 173.753H183.741V166.252H181.225V173.753Z" fill="white" stroke="#9DAFCC" stroke-width="0.6" stroke-miterlimit="10"/>
<path d="M188.874 173.753H191.391V166.252H188.874V173.753Z" fill="white" stroke="#9DAFCC" stroke-width="0.6" stroke-miterlimit="10"/>
<path d="M196.524 173.753H199.041V166.252H196.524V173.753Z" fill="white" stroke="#9DAFCC" stroke-width="0.6" stroke-miterlimit="10"/>
<path d="M204.173 173.753H206.69V166.252H204.173V173.753Z" fill="white" stroke="#9DAFCC" stroke-width="0.6" stroke-miterlimit="10"/>
<path d="M211.823 173.753H214.339V166.252H211.823V173.753Z" fill="white" stroke="#9DAFCC" stroke-width="0.6" stroke-miterlimit="10"/>
<path d="M116.434 166.256V173.753" stroke="#9DAFCC" stroke-width="0.6" stroke-miterlimit="10"/>
<path d="M112.933 135.658H108.816V139.775H112.933V135.658Z" fill="#365DA0" stroke="#9DAFCC" stroke-width="0.6" stroke-miterlimit="10" stroke-linecap="round"/>
<path d="M119.261 135.658H115.144V139.775H119.261V135.658Z" fill="#365DA0" stroke="#9DAFCC" stroke-width="0.6" stroke-miterlimit="10" stroke-linecap="round"/>
<path d="M125.589 135.658H121.472V139.775H125.589V135.658Z" fill="#365DA0" stroke="#9DAFCC" stroke-width="0.6" stroke-miterlimit="10" stroke-linecap="round"/>
<path d="M106.483 132.593H127.921" stroke="#9DAFCC" stroke-width="0.6" stroke-miterlimit="10"/>
<path d="M119.598 117.924V129.712" stroke="#9DAFCC" stroke-width="0.6" stroke-miterlimit="10" stroke-linecap="round"/>
<path d="M114.807 117.924V129.712" stroke="#9DAFCC" stroke-width="0.6" stroke-miterlimit="10" stroke-linecap="round"/>
<path d="M119.957 112.413H114.447V117.924H119.957V112.413Z" fill="#365DA0" stroke="#9DAFCC" stroke-width="0.6" stroke-miterlimit="10" stroke-linecap="round"/>
<path d="M117.202 69.2987L114.447 112.413H119.957L117.202 69.2987Z" fill="white" stroke="#9DAFCC" stroke-width="0.6" stroke-linecap="round" stroke-linejoin="round"/>
<path d="M117.202 71.4336C118.381 71.4336 119.337 70.4778 119.337 69.2988C119.337 68.1198 118.381 67.1639 117.202 67.1639C116.023 67.1639 115.067 68.1198 115.067 69.2988C115.067 70.4778 116.023 71.4336 117.202 71.4336Z" fill="#F25451" stroke="#9DAFCC" stroke-width="0.6" stroke-miterlimit="10" stroke-linecap="round"/>
<path d="M117.202 63.8562L119.926 65.2899L119.409 62.2517L121.611 60.1034L118.564 59.663L117.202 56.8989L115.84 59.663L112.793 60.1034L114.995 62.2517L114.474 65.2899L117.202 63.8562Z" fill="#F25451" stroke="#9DAFCC" stroke-width="0.6" stroke-linecap="round" stroke-linejoin="round"/>
<path d="M109.018 117.924H125.386" stroke="#9DAFCC" stroke-width="0.6" stroke-miterlimit="10" stroke-linecap="round"/>
<path d="M151.252 89.7753L139.049 76.1304L125.427 91.4607L131.849 97.3708L138.092 88.7012L146.052 99.2315L151.252 89.7753Z" fill="white" stroke="#9DAFCC" stroke-width="0.6" stroke-linecap="round" stroke-linejoin="round"/>
<path d="M203.557 107.483L193.436 96.2291L185.027 103.434L189.719 110.189L193.885 106.225L199.701 110.283L203.557 107.483Z" fill="white" stroke="#9DAFCC" stroke-width="0.6" stroke-linecap="round" stroke-linejoin="round"/>
<path d="M96.636 118.813L90.8832 112.413L85.1528 119.879L86.8158 124.198L90.8832 120.598L93.818 123.043L96.636 118.813Z" fill="white" stroke="#9DAFCC" stroke-width="0.6" stroke-linecap="round" stroke-linejoin="round"/>
<path d="M161.449 170.13C162.034 170.858 163.247 174.04 164.357 177.07H268.227C269.53 171.573 270.285 169.474 270.285 165.191C270.942 158.377 261.355 153.38 254.6 151.618C247.845 149.856 237.849 147.506 219.629 147.798C219.629 147.798 234.618 109.892 244.609 86.6742C239.022 85.4966 233.148 88.7326 230.227 91.3753C227.306 94.018 223.764 109.595 220.236 119.29C216.708 128.984 206.703 139.007 197.004 147.798C187.306 156.589 163.508 165.429 161.449 166.31C159.391 167.191 158.802 169.838 161.449 170.13Z" fill="#365DA0" stroke="#9DAFCC" stroke-width="0.6" stroke-miterlimit="10" stroke-linecap="round"/>
<path d="M243.283 89.7752C243.733 88.7175 244.182 87.6853 244.631 86.6786C239.045 85.501 233.171 88.737 230.249 91.3797C228.735 92.728 227.063 97.5505 225.306 103.218C229.517 96.0269 235.301 89.4696 243.283 89.7752Z" fill="#F25451" stroke="#9DAFCC" stroke-width="0.6" stroke-miterlimit="10" stroke-linecap="round"/>
<path d="M211.823 142.503L223.436 137.942" stroke="#9DAFCC" stroke-width="0.6" stroke-miterlimit="10" stroke-linecap="round"/>
<path d="M215.314 136.467L225.773 132.36" stroke="#9DAFCC" stroke-width="0.6" stroke-miterlimit="10" stroke-linecap="round"/>
<path d="M218.78 129.793L228.106 126.611" stroke="#9DAFCC" stroke-width="0.6" stroke-miterlimit="10" stroke-linecap="round"/>
<path d="M172.784 170.917C166.366 170.683 162.991 170.917 161.449 170.126" stroke="#9DAFCC" stroke-width="0.6" stroke-miterlimit="10" stroke-linecap="round"/>
<path d="M235.935 99.254L225.773 121.312C227.063 109.056 229.512 100.072 235.935 99.254Z" fill="#E4EBF5" stroke="#9DAFCC" stroke-width="0.6" stroke-linecap="round" stroke-linejoin="round"/>
<path d="M219.885 172.202C213.917 172.009 208.78 169.721 219.629 147.829" stroke="#9DAFCC" stroke-width="0.6" stroke-miterlimit="10" stroke-linecap="round"/>
<path d="M255.796 177.07C255.796 174.602 255.198 173.002 253.701 173.07C252.106 173.141 235.036 172.701 219.921 172.207C209.957 171.883 200.843 171.541 197.575 171.308C189.346 170.719 166.721 166.31 187.584 158.377" stroke="#9DAFCC" stroke-width="0.6" stroke-miterlimit="10" stroke-linecap="round"/>
<path d="M244.721 164.076C233.715 158.4 214.802 159.96 214.515 159.987C211.184 170.647 215.283 172.054 219.908 172.202C235.023 172.692 252.146 173.142 253.742 173.07C255.238 173.002 255.845 174.602 255.836 177.07H268.25C269.553 171.573 270.308 169.474 270.308 165.191C266.937 167.488 255.796 169.798 244.721 164.076Z" fill="white" stroke="#9DAFCC" stroke-width="0.6" stroke-miterlimit="10" stroke-linecap="round"/>
</g>
</g>
<defs>
<filter id="filter0_dd_202_2309" x="-7.91117" y="-11.9112" width="296.822" height="263.822" filterUnits="userSpaceOnUse" color-interpolation-filters="sRGB">
<feFlood flood-opacity="0" result="BackgroundImageFix"/>
<feColorMatrix in="SourceAlpha" type="matrix" values="0 0 0 0 0 0 0 0 0 0 0 0 0 0 0 0 0 0 127 0" result="hardAlpha"/>
<feOffset/>
<feGaussianBlur stdDeviation="5.95559"/>
<feComposite in2="hardAlpha" operator="out"/>
<feColorMatrix type="matrix" values="0 0 0 0 0.568627 0 0 0 0 0.741176 0 0 0 0 0.866667 0 0 0 1 0"/>
<feBlend mode="normal" in2="BackgroundImageFix" result="effect1_dropShadow_202_2309"/>
<feColorMatrix in="SourceAlpha" type="matrix" values="0 0 0 0 0 0 0 0 0 0 0 0 0 0 0 0 0 0 127 0" result="hardAlpha"/>
<feOffset dy="2.38223"/>
<feGaussianBlur stdDeviation="2.97779"/>
<feComposite in2="hardAlpha" operator="out"/>
<feColorMatrix type="matrix" values="0 0 0 0 0 0 0 0 0 0 0 0 0 0 0 0 0 0 0.1 0"/>
<feBlend mode="normal" in2="effect1_dropShadow_202_2309" result="effect2_dropShadow_202_2309"/>
<feBlend mode="normal" in="SourceGraphic" in2="effect2_dropShadow_202_2309" result="shape"/>
</filter>
<filter id="filter1_dd_202_2309" x="0.640586" y="44.6877" width="281.888" height="144.593" filterUnits="userSpaceOnUse" color-interpolation-filters="sRGB">
<feFlood flood-opacity="0" result="BackgroundImageFix"/>
<feColorMatrix in="SourceAlpha" type="matrix" values="0 0 0 0 0 0 0 0 0 0 0 0 0 0 0 0 0 0 127 0" result="hardAlpha"/>
<feOffset/>
<feGaussianBlur stdDeviation="5.95559"/>
<feComposite in2="hardAlpha" operator="out"/>
<feColorMatrix type="matrix" values="0 0 0 0 0.568627 0 0 0 0 0.741176 0 0 0 0 0.866667 0 0 0 1 0"/>
<feBlend mode="normal" in2="BackgroundImageFix" result="effect1_dropShadow_202_2309"/>
<feColorMatrix in="SourceAlpha" type="matrix" values="0 0 0 0 0 0 0 0 0 0 0 0 0 0 0 0 0 0 127 0" result="hardAlpha"/>
<feOffset dy="2.38223"/>
<feGaussianBlur stdDeviation="2.97779"/>
<feComposite in2="hardAlpha" operator="out"/>
<feColorMatrix type="matrix" values="0 0 0 0 0 0 0 0 0 0 0 0 0 0 0 0 0 0 0.1 0"/>
<feBlend mode="normal" in2="effect1_dropShadow_202_2309" result="effect2_dropShadow_202_2309"/>
<feBlend mode="normal" in="SourceGraphic" in2="effect2_dropShadow_202_2309" result="shape"/>
</filter>
</defs>
</svg>
