<svg width="273" height="240" viewBox="0 0 273 240" fill="none" xmlns="http://www.w3.org/2000/svg">
<g filter="url(#filter0_dd_202_2825)">
<g filter="url(#filter1_dd_202_2825)">
<path d="M212.736 129.297H182.452V153.497H212.736V129.297Z" fill="#E4EBF5" stroke="#9DAFCC" stroke-width="0.6" stroke-linejoin="round"/>
<path d="M197.591 135.915C197.591 135.915 190.193 139.227 190.193 143.307V153.497H204.983V143.307C204.989 139.227 197.591 135.915 197.591 135.915Z" fill="#365DA0" stroke="white" stroke-width="0.6" stroke-miterlimit="10" stroke-linecap="round"/>
<path d="M212.736 121.874H182.452V129.298H212.736V121.874Z" fill="white" stroke="#9DAFCC" stroke-width="0.6" stroke-linejoin="round"/>
<path d="M190.021 121.874V125.408" stroke="#9DAFCC" stroke-width="0.6" stroke-linejoin="round"/>
<path d="M197.591 121.874V125.408" stroke="#9DAFCC" stroke-width="0.6" stroke-linejoin="round"/>
<path d="M205.167 121.874V125.408" stroke="#9DAFCC" stroke-width="0.6" stroke-linejoin="round"/>
<path d="M118.952 119.59H129.351V110.294H118.952V119.59Z" fill="#365DA0" stroke="#9DAFCC" stroke-width="0.6" stroke-linejoin="round"/>
<path d="M99.834 74.7494H63.3821V153.446H99.834V74.7494Z" fill="#F25451" stroke="#9DAFCC" stroke-width="0.6" stroke-linejoin="round"/>
<path d="M118.945 91.8429H87.1755V119.589H118.945V91.8429Z" fill="#F25451" stroke="#9DAFCC" stroke-width="0.6" stroke-linejoin="round"/>
<path d="M121.216 85.13H84.9042V91.6336H121.216V85.13Z" fill="white" stroke="#9DAFCC" stroke-width="0.6" stroke-linejoin="round"/>
<path d="M92.1693 85.13V88.3786" stroke="#9DAFCC" stroke-width="0.6" stroke-linejoin="round"/>
<path d="M99.4277 85.13V88.3786" stroke="#9DAFCC" stroke-width="0.6" stroke-linejoin="round"/>
<path d="M106.693 85.13V88.3786" stroke="#9DAFCC" stroke-width="0.6" stroke-linejoin="round"/>
<path d="M113.958 85.13V88.3786" stroke="#9DAFCC" stroke-width="0.6" stroke-linejoin="round"/>
<path d="M108.844 99.0763C108.844 99.0763 105.608 100.523 105.608 102.312V112.35H112.08V102.312C112.08 100.523 108.844 99.0763 108.844 99.0763Z" fill="#365DA0" stroke="white" stroke-width="0.6" stroke-miterlimit="10" stroke-linecap="round"/>
<path d="M97.277 99.0763C97.277 99.0763 94.0474 100.523 94.0474 102.312V112.35H100.513V102.312C100.513 100.523 97.277 99.0763 97.277 99.0763Z" fill="#365DA0" stroke="white" stroke-width="0.6" stroke-miterlimit="10" stroke-linecap="round"/>
<path d="M75.3867 92.0586C75.3867 92.0586 70.5455 94.2286 70.5455 96.9062V111.944H80.2343V96.9062C80.2343 94.2286 75.3867 92.0586 75.3867 92.0586Z" fill="#365DA0" stroke="white" stroke-width="0.6" stroke-miterlimit="10" stroke-linecap="round"/>
<path d="M73.6673 133.561C73.6673 133.561 68.8197 135.731 68.8197 138.402V153.446H78.5212V138.402C78.5212 135.731 73.6673 133.561 73.6673 133.561Z" fill="#365DA0" stroke="white" stroke-width="0.6" stroke-miterlimit="10" stroke-linecap="round"/>
<path d="M87.2073 111.944H53.8834V119.583H87.2073V111.944Z" fill="#365DA0" stroke="#9DAFCC" stroke-width="0.6" stroke-linejoin="round"/>
<path d="M227 153.446H53.23V161.086H227V153.446Z" fill="#365DA0" stroke="#9DAFCC" stroke-width="0.6" stroke-linejoin="round"/>
<path d="M129.351 119.583H83.3878V153.446H129.351V119.583Z" fill="#E4EBF5" stroke="#9DAFCC" stroke-width="0.6" stroke-linejoin="round"/>
<path d="M100.494 126.087V134.621" stroke="#365DA0" stroke-width="0.6" stroke-linecap="round" stroke-linejoin="round"/>
<path d="M110.214 131.816V140.35" stroke="#365DA0" stroke-width="0.6" stroke-linecap="round" stroke-linejoin="round"/>
<path d="M119.941 137.546V146.08" stroke="#365DA0" stroke-width="0.6" stroke-linecap="round" stroke-linejoin="round"/>
<path d="M110.164 151.987C109.707 148.091 105.462 145.007 100.285 145.007C95.107 145.007 90.8622 148.066 90.4054 151.987H110.164Z" fill="white"/>
<path d="M106.134 151.987C105.443 150.084 103.095 148.713 100.284 148.713C97.4735 148.713 95.1259 150.103 94.4343 151.987H106.134Z" fill="#365DA0"/>
<path d="M53.8834 119.589L63.3819 129.189V119.589H53.8834Z" fill="#365DA0" stroke="#9DAFCC" stroke-width="0.6" stroke-linejoin="round"/>
<path d="M88.9966 51.5078V54.8262H84.3584V51.5078H78.8827V54.8262H74.2445V51.5078H62.17V74.7495H101.077V51.5078H88.9966Z" fill="#E4EBF5" stroke="#9DAFCC" stroke-width="0.6" stroke-linejoin="round"/>
<path d="M99.834 63.132H63.3821" stroke="#9DAFCC" stroke-width="0.6" stroke-linejoin="round"/>
<path d="M99.834 70.4221H63.3821" stroke="#9DAFCC" stroke-width="0.6" stroke-linejoin="round"/>
<path d="M70.9198 63.132V70.4223" stroke="#9DAFCC" stroke-width="0.6" stroke-linejoin="round"/>
<path d="M76.2688 63.132V70.4223" stroke="#9DAFCC" stroke-width="0.6" stroke-linejoin="round"/>
<path d="M81.6239 63.132V70.4223" stroke="#9DAFCC" stroke-width="0.6" stroke-linejoin="round"/>
<path d="M86.9729 63.132V70.4223" stroke="#9DAFCC" stroke-width="0.6" stroke-linejoin="round"/>
<path d="M92.3215 63.132V70.4223" stroke="#9DAFCC" stroke-width="0.6" stroke-linejoin="round"/>
<path d="M92.3215 41.0004V76.8686C92.3215 78.3977 95.1006 82.2301 95.1006 82.2301C95.1006 82.2301 97.8797 78.4231 97.8797 76.8686V41.0004H92.3215Z" fill="#E4EBF5" stroke="#9DAFCC" stroke-width="0.6" stroke-linejoin="round"/>
<path d="M95.1004 25.3921L90.2084 41.0007H99.9924L95.1004 25.3921Z" fill="#F25451" stroke="#9DAFCC" stroke-width="0.6" stroke-linejoin="round"/>
<path d="M65.3618 41.0004V76.8686C65.3618 78.3977 68.1409 82.2301 68.1409 82.2301C68.1409 82.2301 70.92 78.4231 70.92 76.8686V41.0004H65.3618Z" fill="#E4EBF5" stroke="#9DAFCC" stroke-width="0.6" stroke-linejoin="round"/>
<path d="M68.1406 25.3921L63.2487 41.0007H73.0263L68.1406 25.3921Z" fill="#F25451" stroke="#9DAFCC" stroke-width="0.6" stroke-linejoin="round"/>
<path d="M65.9518 56.7678H70.9199" stroke="#9DAFCC" stroke-width="0.6" stroke-linejoin="round"/>
<path d="M92.6199 56.7678H97.588" stroke="#9DAFCC" stroke-width="0.6" stroke-linejoin="round"/>
<path d="M95.1006 25.3919V18" stroke="#9DAFCC" stroke-width="0.6" stroke-linecap="round" stroke-linejoin="round"/>
<path d="M68.1407 25.3919V18" stroke="#9DAFCC" stroke-width="0.6" stroke-linecap="round" stroke-linejoin="round"/>
<path d="M182.446 105.098H129.389V153.497H182.446V105.098Z" fill="#E4EBF5" stroke="#9DAFCC" stroke-width="0.6" stroke-linejoin="round"/>
<path d="M147.675 105.098V111.106" stroke="#9DAFCC" stroke-width="0.6" stroke-linejoin="round"/>
<path d="M155.924 105.098V111.106" stroke="#9DAFCC" stroke-width="0.6" stroke-linejoin="round"/>
<path d="M164.166 105.098V111.106" stroke="#9DAFCC" stroke-width="0.6" stroke-linejoin="round"/>
<path d="M130.626 115.763H181.215" stroke="white" stroke-width="0.6" stroke-linejoin="round"/>
<path d="M146.812 115.763V121.874" stroke="white" stroke-width="0.6" stroke-linejoin="round"/>
<path d="M151.571 115.763V121.874" stroke="white" stroke-width="0.6" stroke-linejoin="round"/>
<path d="M156.323 115.763V121.874" stroke="white" stroke-width="0.6" stroke-linejoin="round"/>
<path d="M161.076 115.763V121.874" stroke="white" stroke-width="0.6" stroke-linejoin="round"/>
<path d="M165.834 115.763V121.874" stroke="white" stroke-width="0.6" stroke-linejoin="round"/>
<path d="M135.099 111.106V124.983C135.136 128.488 136.312 131.887 138.45 134.665C140.584 131.885 141.758 128.487 141.793 124.983V111.106H135.099Z" fill="#E4EBF5" stroke="#9DAFCC" stroke-width="0.6" stroke-linecap="round" stroke-linejoin="round"/>
<path d="M135.099 118.708H141.793" stroke="#9DAFCC" stroke-width="0.6" stroke-linecap="round" stroke-linejoin="round"/>
<path d="M135.099 124.983H141.793" stroke="#9DAFCC" stroke-width="0.6" stroke-linecap="round" stroke-linejoin="round"/>
<path d="M141.463 137.59H135.436V153.491H141.463V137.59Z" fill="#E4EBF5" stroke="#9DAFCC" stroke-width="0.6" stroke-linecap="round" stroke-linejoin="round"/>
<path d="M135.436 141.86H141.457" stroke="#9DAFCC" stroke-width="0.6" stroke-linecap="round" stroke-linejoin="round"/>
<path d="M135.436 146.124H141.457" stroke="#9DAFCC" stroke-width="0.6" stroke-linecap="round" stroke-linejoin="round"/>
<path d="M140.556 99.127H136.33V111.113H140.556V99.127Z" fill="#E4EBF5" stroke="#9DAFCC" stroke-width="0.6" stroke-linecap="round" stroke-linejoin="round"/>
<path d="M138.443 84.781L135.099 99.127H141.793L138.443 84.781Z" fill="#F25451" stroke="#9DAFCC" stroke-width="0.6" stroke-linecap="round" stroke-linejoin="round"/>
<path d="M170.047 111.106V124.983C170.084 128.488 171.26 131.887 173.398 134.665C175.532 131.885 176.706 128.487 176.741 124.983V111.106H170.047Z" fill="#E4EBF5" stroke="#9DAFCC" stroke-width="0.6" stroke-linecap="round" stroke-linejoin="round"/>
<path d="M170.047 118.708H176.741" stroke="#9DAFCC" stroke-width="0.6" stroke-linecap="round" stroke-linejoin="round"/>
<path d="M170.047 124.983H176.741" stroke="#9DAFCC" stroke-width="0.6" stroke-linecap="round" stroke-linejoin="round"/>
<path d="M176.411 137.59H170.384V153.491H176.411V137.59Z" fill="#E4EBF5" stroke="#9DAFCC" stroke-width="0.6" stroke-linecap="round" stroke-linejoin="round"/>
<path d="M170.384 141.86H176.405" stroke="#9DAFCC" stroke-width="0.6" stroke-linecap="round" stroke-linejoin="round"/>
<path d="M170.384 146.124H176.405" stroke="#9DAFCC" stroke-width="0.6" stroke-linecap="round" stroke-linejoin="round"/>
<path d="M175.51 99.127H171.285V111.113H175.51V99.127Z" fill="#E4EBF5" stroke="#9DAFCC" stroke-width="0.6" stroke-linecap="round" stroke-linejoin="round"/>
<path d="M173.398 84.781L170.047 99.127H176.741L173.398 84.781Z" fill="#F25451" stroke="#9DAFCC" stroke-width="0.6" stroke-linecap="round" stroke-linejoin="round"/>
<path d="M155.93 130.408C155.93 130.408 151.082 132.571 151.082 135.249V148.713H160.771V135.249C160.765 132.571 155.93 130.408 155.93 130.408Z" fill="#365DA0" stroke="white" stroke-width="0.6" stroke-miterlimit="10" stroke-linecap="round"/>
<path d="M226.994 161.086H53.2302C53.2302 161.086 49.2519 172.951 49.0044 175.394C48.757 177.836 53.5601 179.048 53.2302 181.739C52.9002 184.429 46.3268 189.048 47.0565 190.507C47.7862 191.967 50.229 196.116 49.2519 198.553C48.2747 200.989 53.8076 210.5 54.3278 214.161C54.6025 216.797 54.5897 219.454 54.2898 222.086H226.994V161.086Z" fill="#E4EBF5" stroke="#9DAFCC" stroke-width="0.6" stroke-linejoin="round"/>
<path d="M53.23 153.446V161.086" stroke="#9DAFCC" stroke-width="0.6" stroke-linejoin="round"/>
<path d="M60.1843 153.446V161.086" stroke="#9DAFCC" stroke-width="0.6" stroke-linejoin="round"/>
<path d="M67.1317 153.446V161.086" stroke="#9DAFCC" stroke-width="0.6" stroke-linejoin="round"/>
<path d="M74.0862 153.446V161.086" stroke="#9DAFCC" stroke-width="0.6" stroke-linejoin="round"/>
<path d="M81.0338 153.446V161.086" stroke="#9DAFCC" stroke-width="0.6" stroke-linejoin="round"/>
<path d="M87.9875 153.446V161.086" stroke="#9DAFCC" stroke-width="0.6" stroke-linejoin="round"/>
<path d="M94.9357 153.446V161.086" stroke="#9DAFCC" stroke-width="0.6" stroke-linejoin="round"/>
<path d="M101.89 153.446V161.086" stroke="#9DAFCC" stroke-width="0.6" stroke-linejoin="round"/>
<path d="M108.837 153.446V161.086" stroke="#9DAFCC" stroke-width="0.6" stroke-linejoin="round"/>
<path d="M115.792 153.446V161.086" stroke="#9DAFCC" stroke-width="0.6" stroke-linejoin="round"/>
<path d="M122.739 153.446V161.086" stroke="#9DAFCC" stroke-width="0.6" stroke-linejoin="round"/>
<path d="M129.687 153.446V161.086" stroke="#9DAFCC" stroke-width="0.6" stroke-linejoin="round"/>
<path d="M136.641 153.446V161.086" stroke="#9DAFCC" stroke-width="0.6" stroke-linejoin="round"/>
<path d="M143.589 153.446V161.086" stroke="#9DAFCC" stroke-width="0.6" stroke-linejoin="round"/>
<path d="M150.543 153.446V161.086" stroke="#9DAFCC" stroke-width="0.6" stroke-linejoin="round"/>
<path d="M157.491 153.446V161.086" stroke="#9DAFCC" stroke-width="0.6" stroke-linejoin="round"/>
<path d="M164.445 153.446V161.086" stroke="#9DAFCC" stroke-width="0.6" stroke-linejoin="round"/>
<path d="M171.392 153.446V161.086" stroke="#9DAFCC" stroke-width="0.6" stroke-linejoin="round"/>
<path d="M178.347 153.446V161.086" stroke="#9DAFCC" stroke-width="0.6" stroke-linejoin="round"/>
<path d="M185.295 153.446V161.086" stroke="#9DAFCC" stroke-width="0.6" stroke-linejoin="round"/>
<path d="M192.249 153.446V161.086" stroke="#9DAFCC" stroke-width="0.6" stroke-linejoin="round"/>
<path d="M199.196 153.446V161.086" stroke="#9DAFCC" stroke-width="0.6" stroke-linejoin="round"/>
<path d="M206.15 153.446V161.086" stroke="#9DAFCC" stroke-width="0.6" stroke-linejoin="round"/>
<path d="M213.098 153.446V161.086" stroke="#9DAFCC" stroke-width="0.6" stroke-linejoin="round"/>
<path d="M220.052 153.446V161.086" stroke="#9DAFCC" stroke-width="0.6" stroke-linejoin="round"/>
<path d="M227 153.446V161.086" stroke="#9DAFCC" stroke-width="0.6" stroke-linejoin="round"/>
<path d="M53.8834 111.944V119.583" stroke="#9DAFCC" stroke-width="0.6" stroke-linejoin="round"/>
<path d="M60.5396 111.944V119.583" stroke="#9DAFCC" stroke-width="0.6" stroke-linejoin="round"/>
<path d="M67.2017 111.944V119.583" stroke="#9DAFCC" stroke-width="0.6" stroke-linejoin="round"/>
<path d="M73.8574 111.944V119.583" stroke="#9DAFCC" stroke-width="0.6" stroke-linejoin="round"/>
<path d="M80.5198 111.944V119.583" stroke="#9DAFCC" stroke-width="0.6" stroke-linejoin="round"/>
<path d="M87.1755 111.944V119.583" stroke="#9DAFCC" stroke-width="0.6" stroke-linejoin="round"/>
</g>
</g>
<defs>
<filter id="filter0_dd_202_2825" x="-11.9112" y="-11.9112" width="296.822" height="263.822" filterUnits="userSpaceOnUse" color-interpolation-filters="sRGB">
<feFlood flood-opacity="0" result="BackgroundImageFix"/>
<feColorMatrix in="SourceAlpha" type="matrix" values="0 0 0 0 0 0 0 0 0 0 0 0 0 0 0 0 0 0 127 0" result="hardAlpha"/>
<feOffset/>
<feGaussianBlur stdDeviation="5.95559"/>
<feComposite in2="hardAlpha" operator="out"/>
<feColorMatrix type="matrix" values="0 0 0 0 0.568627 0 0 0 0 0.741176 0 0 0 0 0.866667 0 0 0 1 0"/>
<feBlend mode="normal" in2="BackgroundImageFix" result="effect1_dropShadow_202_2825"/>
<feColorMatrix in="SourceAlpha" type="matrix" values="0 0 0 0 0 0 0 0 0 0 0 0 0 0 0 0 0 0 127 0" result="hardAlpha"/>
<feOffset dy="2.38223"/>
<feGaussianBlur stdDeviation="2.97779"/>
<feComposite in2="hardAlpha" operator="out"/>
<feColorMatrix type="matrix" values="0 0 0 0 0 0 0 0 0 0 0 0 0 0 0 0 0 0 0.1 0"/>
<feBlend mode="normal" in2="effect1_dropShadow_202_2825" result="effect2_dropShadow_202_2825"/>
<feBlend mode="normal" in="SourceGraphic" in2="effect2_dropShadow_202_2825" result="shape"/>
</filter>
<filter id="filter1_dd_202_2825" x="34.7887" y="5.78878" width="204.423" height="228.509" filterUnits="userSpaceOnUse" color-interpolation-filters="sRGB">
<feFlood flood-opacity="0" result="BackgroundImageFix"/>
<feColorMatrix in="SourceAlpha" type="matrix" values="0 0 0 0 0 0 0 0 0 0 0 0 0 0 0 0 0 0 127 0" result="hardAlpha"/>
<feOffset/>
<feGaussianBlur stdDeviation="5.95559"/>
<feComposite in2="hardAlpha" operator="out"/>
<feColorMatrix type="matrix" values="0 0 0 0 0.568627 0 0 0 0 0.741176 0 0 0 0 0.866667 0 0 0 1 0"/>
<feBlend mode="normal" in2="BackgroundImageFix" result="effect1_dropShadow_202_2825"/>
<feColorMatrix in="SourceAlpha" type="matrix" values="0 0 0 0 0 0 0 0 0 0 0 0 0 0 0 0 0 0 127 0" result="hardAlpha"/>
<feOffset dy="2.38223"/>
<feGaussianBlur stdDeviation="2.97779"/>
<feComposite in2="hardAlpha" operator="out"/>
<feColorMatrix type="matrix" values="0 0 0 0 0 0 0 0 0 0 0 0 0 0 0 0 0 0 0.1 0"/>
<feBlend mode="normal" in2="effect1_dropShadow_202_2825" result="effect2_dropShadow_202_2825"/>
<feBlend mode="normal" in="SourceGraphic" in2="effect2_dropShadow_202_2825" result="shape"/>
</filter>
</defs>
</svg>
