<svg width="273" height="240" viewBox="0 0 273 240" fill="none" xmlns="http://www.w3.org/2000/svg">
<g filter="url(#filter0_dd_202_5651)">
<g filter="url(#filter1_dd_202_5651)">
<path d="M155.351 103.95H87.9753V127.227H155.351V103.95Z" fill="#E4EBF5" stroke="#9DAFCC" stroke-width="0.6" stroke-linecap="round" stroke-linejoin="round"/>
<path d="M155.351 90.3831H87.9753V103.95H155.351V90.3831Z" fill="white" stroke="#9DAFCC" stroke-width="0.6" stroke-linejoin="round"/>
<path d="M128.889 90.3832C128.889 90.2993 128.915 90.2195 128.915 90.1312C128.915 89.3096 128.589 88.5221 128.008 87.9415C127.428 87.3608 126.64 87.0345 125.819 87.0345H125.744C125.563 86.0219 125.031 85.1053 124.242 84.4451C123.453 83.7849 122.457 83.4231 121.429 83.4231C120.4 83.4231 119.404 83.7849 118.615 84.4451C117.826 85.1053 117.294 86.0219 117.113 87.0345H117.033C116.212 87.0345 115.425 87.3608 114.844 87.9415C114.263 88.5221 113.937 89.3096 113.937 90.1312C113.941 90.2155 113.95 90.2998 113.964 90.3832H106.665V94.0194H136.161V90.3832H128.889Z" fill="white" stroke="#9DAFCC" stroke-width="0.6" stroke-linejoin="round"/>
<path d="M121.413 90.8831C122.608 90.8831 123.576 89.9149 123.576 88.7199C123.576 87.5253 122.608 86.5569 121.413 86.5569C120.219 86.5569 119.25 87.5253 119.25 88.7199C119.25 89.9149 120.219 90.8831 121.413 90.8831Z" stroke="#9DAFCC" stroke-width="0.6" stroke-linejoin="round"/>
<path d="M136.161 88.5784H133.41V94.0194H136.161V88.5784Z" fill="white" stroke="#9DAFCC" stroke-width="0.6" stroke-linejoin="round"/>
<path d="M109.416 88.5784H106.665V94.0194H109.416V88.5784Z" fill="white" stroke="#9DAFCC" stroke-width="0.6" stroke-linejoin="round"/>
<path d="M87.9753 98.1731H155.351" stroke="#9DAFCC" stroke-width="0.6" stroke-linejoin="round"/>
<path d="M134.786 96.855H108.041V99.4914H134.786V96.855Z" fill="#E4EBF5" stroke="#9DAFCC" stroke-width="0.6" stroke-linejoin="round"/>
<path d="M94.0979 101.659V104.428" stroke="#9DAFCC" stroke-width="0.6" stroke-linejoin="round"/>
<path d="M100.225 101.659V104.428" stroke="#9DAFCC" stroke-width="0.6" stroke-linejoin="round"/>
<path d="M106.351 101.659V104.428" stroke="#9DAFCC" stroke-width="0.6" stroke-linejoin="round"/>
<path d="M112.473 101.659V104.428" stroke="#9DAFCC" stroke-width="0.6" stroke-linejoin="round"/>
<path d="M118.599 101.659V104.428" stroke="#9DAFCC" stroke-width="0.6" stroke-linejoin="round"/>
<path d="M124.727 101.659V104.428" stroke="#9DAFCC" stroke-width="0.6" stroke-linejoin="round"/>
<path d="M130.849 101.659V104.428" stroke="#9DAFCC" stroke-width="0.6" stroke-linejoin="round"/>
<path d="M136.975 101.659V104.428" stroke="#9DAFCC" stroke-width="0.6" stroke-linejoin="round"/>
<path d="M143.102 101.659V104.428" stroke="#9DAFCC" stroke-width="0.6" stroke-linejoin="round"/>
<path d="M149.224 101.659V104.428" stroke="#9DAFCC" stroke-width="0.6" stroke-linejoin="round"/>
<path d="M92.0581 95.0588V98.1731" stroke="#9DAFCC" stroke-width="0.6" stroke-linejoin="round"/>
<path d="M95.4116 95.0588V98.1731" stroke="#9DAFCC" stroke-width="0.6" stroke-linejoin="round"/>
<path d="M98.7605 95.0588V98.1731" stroke="#9DAFCC" stroke-width="0.6" stroke-linejoin="round"/>
<path d="M102.113 95.0588V98.1731" stroke="#9DAFCC" stroke-width="0.6" stroke-linejoin="round"/>
<path d="M141.213 95.0588V98.1731" stroke="#9DAFCC" stroke-width="0.6" stroke-linejoin="round"/>
<path d="M144.562 95.0588V98.1731" stroke="#9DAFCC" stroke-width="0.6" stroke-linejoin="round"/>
<path d="M147.915 95.0588V98.1731" stroke="#9DAFCC" stroke-width="0.6" stroke-linejoin="round"/>
<path d="M151.263 95.0588V98.1731" stroke="#9DAFCC" stroke-width="0.6" stroke-linejoin="round"/>
<path d="M108.877 175.183H134.595V171.794H108.877V175.183Z" fill="white" stroke="#9DAFCC" stroke-width="0.6" stroke-linejoin="round"/>
<path d="M108.877 171.794H134.595V134.07H108.877V171.794Z" fill="#365DA0" stroke="#9DAFCC" stroke-width="0.6" stroke-linejoin="round"/>
<path d="M117.352 134.07V171.794" stroke="#9DAFCC" stroke-width="0.6" stroke-linejoin="round"/>
<path d="M113.115 134.07V171.794" stroke="#9DAFCC" stroke-width="0.6" stroke-linejoin="round"/>
<path d="M108.873 134.07V171.794" stroke="#9DAFCC" stroke-width="0.6" stroke-linejoin="round"/>
<path d="M125.974 134.07V171.794" stroke="#9DAFCC" stroke-width="0.6" stroke-linejoin="round"/>
<path d="M130.283 134.07V171.794" stroke="#9DAFCC" stroke-width="0.6" stroke-linejoin="round"/>
<path d="M134.595 134.07V171.794" stroke="#9DAFCC" stroke-width="0.6" stroke-linejoin="round"/>
<path d="M134.595 146.646H108.873" stroke="#9DAFCC" stroke-width="0.6" stroke-linejoin="round"/>
<path d="M134.595 159.218H108.873" stroke="#9DAFCC" stroke-width="0.6" stroke-linejoin="round"/>
<path d="M134.595 165.504H108.873" stroke="#9DAFCC" stroke-width="0.6" stroke-linejoin="round"/>
<path d="M134.595 140.356H108.873" stroke="#9DAFCC" stroke-width="0.6" stroke-linejoin="round"/>
<path d="M134.595 171.794H108.873" stroke="#9DAFCC" stroke-width="0.6" stroke-linejoin="round"/>
<path d="M134.595 134.07H108.873" stroke="#9DAFCC" stroke-width="0.6" stroke-linejoin="round"/>
<path d="M108.877 134.07H134.595V127.231H108.877V134.07Z" fill="#E4EBF5" stroke="#9DAFCC" stroke-width="0.6" stroke-linejoin="round"/>
<path d="M155.351 134.07H134.595V195.093H155.351V134.07Z" fill="#E4EBF5" stroke="#9DAFCC" stroke-width="0.6" stroke-linejoin="round"/>
<path d="M140.354 134.07H132.848V139.206H140.354V134.07Z" fill="white" stroke="#9DAFCC" stroke-width="0.6" stroke-linejoin="round"/>
<path d="M140.354 127.231H132.848V130.682H140.354V127.231Z" fill="white" stroke="#9DAFCC" stroke-width="0.6" stroke-linejoin="round"/>
<path d="M155.351 134.07H149.613V139.206H155.351V134.07Z" fill="white" stroke="#9DAFCC" stroke-width="0.6" stroke-linejoin="round"/>
<path d="M140.35 130.677H155.351V127.227H140.35V130.677Z" fill="white" stroke="#9DAFCC" stroke-width="0.6" stroke-linejoin="round"/>
<path d="M134.595 134.07H155.351V130.682H134.595V134.07Z" fill="white" stroke="#9DAFCC" stroke-width="0.6" stroke-linejoin="round"/>
<path d="M134.595 175.183H155.351V171.794H134.595V175.183Z" fill="white" stroke="#9DAFCC" stroke-width="0.6" stroke-linejoin="round"/>
<path d="M138.683 139.206H134.595V195.093H138.683V139.206Z" fill="#E4EBF5" stroke="#9DAFCC" stroke-width="0.6" stroke-linejoin="round"/>
<path d="M155.351 139.206H151.263V195.093H155.351V139.206Z" fill="#E4EBF5" stroke="#9DAFCC" stroke-width="0.6" stroke-linejoin="round"/>
<path d="M87.9714 195.093H108.727V134.07H87.9714V195.093Z" fill="#E4EBF5" stroke="#9DAFCC" stroke-width="0.6" stroke-linejoin="round"/>
<path d="M102.972 139.206H110.479V134.07H102.972V139.206Z" fill="white" stroke="#9DAFCC" stroke-width="0.6" stroke-linejoin="round"/>
<path d="M102.972 130.677H110.479V127.227H102.972V130.677Z" fill="white" stroke="#9DAFCC" stroke-width="0.6" stroke-linejoin="round"/>
<path d="M87.9707 139.206H93.7084V134.07H87.9707V139.206Z" fill="white" stroke="#9DAFCC" stroke-width="0.6" stroke-linejoin="round"/>
<path d="M102.976 127.231H87.9753V130.682H102.976V127.231Z" fill="white" stroke="#9DAFCC" stroke-width="0.6" stroke-linejoin="round"/>
<path d="M108.731 130.682H87.9753V134.07H108.731V130.682Z" fill="white" stroke="#9DAFCC" stroke-width="0.6" stroke-linejoin="round"/>
<path d="M108.731 171.794H87.9753V175.182H108.731V171.794Z" fill="white" stroke="#9DAFCC" stroke-width="0.6" stroke-linejoin="round"/>
<path d="M104.639 195.093H108.727V139.206H104.639V195.093Z" fill="#E4EBF5" stroke="#9DAFCC" stroke-width="0.6" stroke-linejoin="round"/>
<path d="M87.9707 195.093H92.0581V139.206H87.9707V195.093Z" fill="#E4EBF5" stroke="#9DAFCC" stroke-width="0.6" stroke-linejoin="round"/>
<path d="M151.263 109.909H92.0581V127.227H151.263V109.909Z" fill="white" stroke="#9DAFCC" stroke-width="0.6" stroke-linejoin="round"/>
<path d="M151.263 109.909H140.351V127.227H151.263V109.909Z" fill="white" stroke="#9DAFCC" stroke-width="0.6" stroke-linejoin="round"/>
<path d="M145.809 113.138C145.25 113.138 144.715 113.36 144.32 113.755C143.925 114.149 143.704 114.685 143.704 115.243V124.019H147.915V115.234C147.912 114.678 147.689 114.144 147.295 113.751C146.9 113.358 146.366 113.138 145.809 113.138Z" fill="#365DA0" stroke="#9DAFCC" stroke-width="0.6" stroke-linecap="round" stroke-linejoin="round"/>
<path d="M102.971 109.909H92.0581V127.227H102.971V109.909Z" fill="white" stroke="#9DAFCC" stroke-width="0.6" stroke-linejoin="round"/>
<path d="M97.5176 113.138C96.959 113.138 96.4234 113.36 96.0285 113.755C95.6335 114.149 95.4116 114.685 95.4116 115.243V124.019H99.623V115.234C99.6205 114.678 99.3977 114.144 99.0032 113.751C98.6087 113.358 98.0742 113.138 97.5176 113.138Z" fill="#365DA0" stroke="#9DAFCC" stroke-width="0.6" stroke-linecap="round" stroke-linejoin="round"/>
<path d="M138.466 127.231C137.899 123.176 135.885 119.463 132.796 116.776C129.707 114.09 125.751 112.61 121.656 112.61C117.562 112.61 113.606 114.09 110.517 116.776C107.428 119.463 105.414 123.176 104.847 127.231H138.466Z" fill="white" stroke="#9DAFCC" stroke-width="0.6" stroke-linejoin="round"/>
<path d="M134.449 127.231C134.012 124.151 132.478 121.332 130.128 119.293C127.779 117.253 124.772 116.13 121.661 116.13C118.55 116.13 115.543 117.253 113.194 119.293C110.844 121.332 109.31 124.151 108.873 127.231H134.449Z" fill="#365DA0" stroke="#9DAFCC" stroke-width="0.6" stroke-linejoin="round"/>
<path d="M153.104 107.056H90.2229V109.909H153.104V107.056Z" fill="white" stroke="#9DAFCC" stroke-width="0.6" stroke-linejoin="round"/>
<path d="M108.731 175.183V195.093" stroke="#9DAFCC" stroke-width="0.6" stroke-linejoin="round"/>
<path d="M134.595 175.183V195.093" stroke="#9DAFCC" stroke-width="0.6" stroke-linejoin="round"/>
<path d="M134.595 175.183H108.731V195.093H134.595V175.183Z" fill="#365DA0" stroke="#9DAFCC" stroke-width="0.6" stroke-linejoin="round"/>
<path d="M134.595 190.116H108.731V195.093H134.595V190.116Z" fill="#F25451" stroke="#9DAFCC" stroke-width="0.6" stroke-linejoin="round"/>
<path d="M115.194 175.183V195.093" stroke="#9DAFCC" stroke-width="0.6" stroke-linejoin="round"/>
<path d="M128.128 180.159H115.194V190.112H128.128V180.159Z" fill="#F25451" stroke="#9DAFCC" stroke-width="0.6" stroke-linejoin="round"/>
<path d="M121.661 175.183V195.093" stroke="#9DAFCC" stroke-width="0.6" stroke-linejoin="round"/>
<path d="M128.128 175.183V195.093" stroke="#9DAFCC" stroke-width="0.6" stroke-linejoin="round"/>
<path d="M108.873 180.159H134.595" stroke="#9DAFCC" stroke-width="0.6" stroke-linejoin="round"/>
<path d="M128.128 185.135H134.595" stroke="#9DAFCC" stroke-width="0.6" stroke-linejoin="round"/>
<path d="M108.873 190.116H134.595" stroke="#9DAFCC" stroke-width="0.6" stroke-linejoin="round"/>
<path d="M108.873 185.135H115.194" stroke="#9DAFCC" stroke-width="0.6" stroke-linejoin="round"/>
<path d="M131.362 175.183V190.116" stroke="#9DAFCC" stroke-width="0.6" stroke-linejoin="round"/>
<path d="M112.035 175.183V190.116" stroke="#9DAFCC" stroke-width="0.6" stroke-linejoin="round"/>
<path d="M216.533 130.682H187.824V195.093H216.533V130.682Z" fill="#E4EBF5" stroke="#9DAFCC" stroke-width="0.6" stroke-linejoin="round"/>
<path d="M216.533 134.623H187.824V138.568H216.533V134.623Z" fill="white" stroke="#9DAFCC" stroke-width="0.6" stroke-linejoin="round"/>
<path d="M193.172 141.754C192.533 141.754 191.92 142.008 191.468 142.46C191.015 142.912 190.761 143.525 190.761 144.165V154.21H195.583V144.165C195.583 143.525 195.329 142.912 194.877 142.46C194.425 142.008 193.811 141.754 193.172 141.754Z" fill="#365DA0" stroke="#9DAFCC" stroke-width="0.6" stroke-linecap="round" stroke-linejoin="round"/>
<path d="M207.526 141.754C206.887 141.754 206.274 142.008 205.822 142.46C205.369 142.912 205.115 143.525 205.115 144.165V154.21H209.937V144.165C209.937 143.525 209.683 142.912 209.231 142.46C208.779 142.008 208.165 141.754 207.526 141.754Z" fill="#365DA0" stroke="#9DAFCC" stroke-width="0.6" stroke-linecap="round" stroke-linejoin="round"/>
<path d="M195.45 167.618C194.637 167.618 193.857 167.941 193.282 168.516C192.707 169.091 192.384 169.871 192.384 170.684V195.093H198.52V170.684C198.518 169.87 198.195 169.091 197.619 168.516C197.043 167.941 196.263 167.618 195.45 167.618Z" fill="#365DA0" stroke="#9DAFCC" stroke-width="0.6" stroke-linecap="round" stroke-linejoin="round"/>
<path d="M206.867 167.618C206.464 167.618 206.066 167.697 205.694 167.852C205.322 168.006 204.984 168.231 204.699 168.516C204.415 168.801 204.189 169.139 204.035 169.511C203.881 169.883 203.801 170.281 203.801 170.684V195.093H209.937V170.684C209.935 169.87 209.612 169.091 209.036 168.516C208.46 167.941 207.68 167.618 206.867 167.618Z" fill="#365DA0" stroke="#9DAFCC" stroke-width="0.6" stroke-linecap="round" stroke-linejoin="round"/>
<path d="M216.533 154.21H187.824" stroke="#9DAFCC" stroke-width="0.6" stroke-linecap="round" stroke-linejoin="round"/>
<path d="M216.533 138.569H212.874V156.692H216.533V138.569Z" fill="#E4EBF5" stroke="#9DAFCC" stroke-width="0.6" stroke-linecap="round" stroke-linejoin="round"/>
<path d="M216.533 154.215H212.874V157.873H216.533V154.215Z" fill="white" stroke="#9DAFCC" stroke-width="0.6" stroke-linecap="round" stroke-linejoin="round"/>
<path d="M202.178 138.569H198.52V156.692H202.178V138.569Z" fill="#E4EBF5" stroke="#9DAFCC" stroke-width="0.6" stroke-linecap="round" stroke-linejoin="round"/>
<path d="M202.178 154.215H198.52V157.873H202.178V154.215Z" fill="white" stroke="#9DAFCC" stroke-width="0.6" stroke-linecap="round" stroke-linejoin="round"/>
<path d="M216.528 195.093H223.38V130.682H216.528V195.093Z" fill="#E4EBF5" stroke="#9DAFCC" stroke-width="0.6" stroke-linejoin="round"/>
<path d="M189.558 130.682H225.048V126.855H189.558V130.682Z" fill="white" stroke="#9DAFCC" stroke-width="0.6" stroke-linejoin="round"/>
<path d="M187.824 126.855H222.518V120.339H187.824V126.855Z" fill="white" stroke="#9DAFCC" stroke-width="0.6" stroke-linejoin="round"/>
<path d="M201.886 120.339H198.268V126.855H201.886V120.339Z" fill="#E4EBF5" stroke="#9DAFCC" stroke-width="0.6" stroke-linejoin="round"/>
<path d="M216.529 120.339H208.743V126.855H216.529V120.339Z" fill="#E4EBF5" stroke="#9DAFCC" stroke-width="0.6" stroke-linejoin="round"/>
<path d="M162.826 79.0766H180.308V75.2502H162.826V79.0766Z" fill="white" stroke="#9DAFCC" stroke-width="0.6" stroke-linejoin="round"/>
<path d="M182.033 79.0811H161.097V195.093H182.033V79.0811Z" fill="#E4EBF5" stroke="#9DAFCC" stroke-width="0.6" stroke-linecap="round" stroke-linejoin="round"/>
<path d="M171.563 85.2122C170.13 85.2122 168.757 85.7812 167.744 86.7941C166.731 87.807 166.162 89.1807 166.162 90.6131V127.231H176.964V90.6131C176.964 89.9039 176.824 89.2018 176.553 88.5463C176.282 87.8911 175.884 87.2957 175.382 86.7941C174.88 86.2926 174.285 85.8947 173.63 85.6233C172.975 85.3518 172.272 85.2122 171.563 85.2122Z" fill="white" stroke="#9DAFCC" stroke-width="0.6" stroke-linecap="round" stroke-linejoin="round"/>
<path d="M171.563 88.5784C171.005 88.5794 170.471 88.8022 170.077 89.1967C169.683 89.5917 169.461 90.1262 169.461 90.6838V99.4604H173.668V90.6838C173.668 90.4078 173.614 90.1337 173.508 89.8783C173.402 89.6228 173.247 89.3909 173.051 89.1952C172.856 88.9995 172.624 88.8444 172.368 88.7385C172.113 88.6331 171.839 88.5784 171.563 88.5784Z" fill="#365DA0" stroke="#9DAFCC" stroke-width="0.6" stroke-linecap="round" stroke-linejoin="round"/>
<path d="M173.673 107.776H169.461V124.007H173.673V107.776Z" fill="#365DA0" stroke="#9DAFCC" stroke-width="0.6" stroke-linecap="round" stroke-linejoin="round"/>
<path d="M169.461 115.894H173.668" stroke="#9DAFCC" stroke-width="0.6" stroke-linecap="round" stroke-linejoin="round"/>
<path d="M176.964 138.569H166.162V154.211H176.964V138.569Z" fill="#365DA0" stroke="#9DAFCC" stroke-width="0.6" stroke-linecap="round" stroke-linejoin="round"/>
<path d="M171.563 138.569V154.211" stroke="#9DAFCC" stroke-width="0.6" stroke-linecap="round" stroke-linejoin="round"/>
<path d="M166.162 146.39H176.964" stroke="#9DAFCC" stroke-width="0.6" stroke-linecap="round" stroke-linejoin="round"/>
<path d="M177.959 168.255H165.171V195.093H177.959V168.255Z" fill="white" stroke="#9DAFCC" stroke-width="0.6" stroke-linecap="round" stroke-linejoin="round"/>
<path d="M174.367 171.113H168.763V195.093H174.367V171.113Z" fill="#F25451" stroke="#9DAFCC" stroke-width="0.6" stroke-linecap="round" stroke-linejoin="round"/>
<path d="M177.959 163.916H165.171V168.255H177.959V163.916Z" fill="white" stroke="#9DAFCC" stroke-width="0.6" stroke-linecap="round" stroke-linejoin="round"/>
<path d="M161.097 79.0811H155.351V195.093H161.097V79.0811Z" fill="#E4EBF5" stroke="#9DAFCC" stroke-width="0.6" stroke-linejoin="round"/>
<path d="M161.097 79.0811H155.351V82.9074H161.097V79.0811Z" fill="white" stroke="#9DAFCC" stroke-width="0.6" stroke-linejoin="round"/>
<path d="M161.097 103.95H155.351V107.777H161.097V103.95Z" fill="white" stroke="#9DAFCC" stroke-width="0.6" stroke-linejoin="round"/>
<path d="M162.826 100.124H153.581V103.95H162.826V100.124Z" fill="white" stroke="#9DAFCC" stroke-width="0.6" stroke-linejoin="round"/>
<path d="M162.826 75.2546H153.581V79.081H162.826V75.2546Z" fill="white" stroke="#9DAFCC" stroke-width="0.6" stroke-linejoin="round"/>
<path d="M161.097 130.682H155.351V134.07H161.097V130.682Z" fill="white" stroke="#9DAFCC" stroke-width="0.6" stroke-linejoin="round"/>
<path d="M162.826 126.855H153.581V130.682H162.826V126.855Z" fill="white" stroke="#9DAFCC" stroke-width="0.6" stroke-linejoin="round"/>
<path d="M187.824 79.0811H182.078V195.093H187.824V79.0811Z" fill="#E4EBF5" stroke="#9DAFCC" stroke-width="0.6" stroke-linejoin="round"/>
<path d="M187.824 79.0811H182.078V82.9074H187.824V79.0811Z" fill="white" stroke="#9DAFCC" stroke-width="0.6" stroke-linejoin="round"/>
<path d="M187.824 103.95H182.078V107.777H187.824V103.95Z" fill="white" stroke="#9DAFCC" stroke-width="0.6" stroke-linejoin="round"/>
<path d="M189.554 100.124H180.308V103.95H189.554V100.124Z" fill="white" stroke="#9DAFCC" stroke-width="0.6" stroke-linejoin="round"/>
<path d="M189.554 75.2546H180.308V79.081H189.554V75.2546Z" fill="white" stroke="#9DAFCC" stroke-width="0.6" stroke-linejoin="round"/>
<path d="M187.824 130.682H182.078V134.07H187.824V130.682Z" fill="white" stroke="#9DAFCC" stroke-width="0.6" stroke-linejoin="round"/>
<path d="M189.554 126.855H180.308V130.682H189.554V126.855Z" fill="white" stroke="#9DAFCC" stroke-width="0.6" stroke-linejoin="round"/>
<path d="M179.229 65.5938H163.901V68.4646H179.229V65.5938Z" fill="white" stroke="#9DAFCC" stroke-width="0.6" stroke-linejoin="round"/>
<path d="M185.382 68.4602H157.757V75.2504H185.382V68.4602Z" fill="white" stroke="#9DAFCC" stroke-width="0.6" stroke-linejoin="round"/>
<path d="M185.382 68.4602H157.757V71.2116H185.382V68.4602Z" fill="white" stroke="#9DAFCC" stroke-width="0.6" stroke-linejoin="round"/>
<path d="M171.567 61.7275C170.542 61.7275 169.559 62.1349 168.833 62.8599C168.109 63.585 167.701 64.5684 167.701 65.5937V71.8575H175.433V65.5937C175.433 64.5684 175.026 63.585 174.301 62.8599C173.576 62.1349 172.593 61.7275 171.567 61.7275Z" fill="white" stroke="#9DAFCC" stroke-width="0.6" stroke-linecap="round" stroke-linejoin="round"/>
<path d="M171.567 66.9341C172.308 66.9341 172.908 66.334 172.908 65.5937C172.908 64.8535 172.308 64.2534 171.567 64.2534C170.827 64.2534 170.227 64.8535 170.227 65.5937C170.227 66.334 170.827 66.9341 171.567 66.9341Z" fill="white" stroke="#9DAFCC" stroke-width="0.6" stroke-linecap="round" stroke-linejoin="round"/>
<path d="M182.613 68.4602V63.5811" stroke="#9DAFCC" stroke-width="0.6" stroke-linecap="round" stroke-linejoin="round"/>
<path d="M160.518 68.4602V63.5811" stroke="#9DAFCC" stroke-width="0.6" stroke-linecap="round" stroke-linejoin="round"/>
<path d="M171.567 58.8699V61.7275" stroke="#9DAFCC" stroke-width="0.6" stroke-linecap="round" stroke-linejoin="round"/>
<path d="M26.7803 195.093H55.4891V130.682H26.7803V195.093Z" fill="#E4EBF5" stroke="#9DAFCC" stroke-width="0.6" stroke-linejoin="round"/>
<path d="M26.7803 138.573H55.4891V134.628H26.7803V138.573Z" fill="white" stroke="#9DAFCC" stroke-width="0.6" stroke-linejoin="round"/>
<path d="M50.1409 141.754C50.7803 141.754 51.3936 142.008 51.8457 142.46C52.2978 142.912 52.5518 143.525 52.5518 144.165V154.21H47.7478V144.165C47.7478 143.528 47.9994 142.918 48.4476 142.466C48.896 142.014 49.5046 141.758 50.1409 141.754Z" fill="#365DA0" stroke="#9DAFCC" stroke-width="0.6" stroke-linecap="round" stroke-linejoin="round"/>
<path d="M35.8045 141.753C36.1209 141.753 36.4341 141.816 36.7263 141.937C37.0186 142.059 37.2841 142.236 37.5076 142.46C37.7311 142.684 37.9083 142.95 38.029 143.242C38.1496 143.535 38.2115 143.848 38.2108 144.165V154.21H33.3804V144.165C33.3804 143.847 33.4432 143.532 33.5651 143.239C33.6871 142.945 33.8659 142.679 34.0912 142.455C34.3165 142.231 34.5838 142.054 34.8778 141.933C35.1718 141.813 35.4867 141.752 35.8045 141.753Z" fill="#365DA0" stroke="#9DAFCC" stroke-width="0.6" stroke-linecap="round" stroke-linejoin="round"/>
<path d="M47.8631 167.618C48.6761 167.618 49.4559 167.941 50.0308 168.516C50.6057 169.091 50.9286 169.871 50.9286 170.684V195.093H44.7976V170.684C44.7976 169.871 45.1206 169.091 45.6955 168.516C46.2704 167.941 47.0501 167.618 47.8631 167.618Z" fill="#365DA0" stroke="#9DAFCC" stroke-width="0.6" stroke-linecap="round" stroke-linejoin="round"/>
<path d="M36.4459 167.618C37.2593 167.618 38.0395 167.941 38.6151 168.516C39.1907 169.091 39.5146 169.87 39.5158 170.684V195.093H33.3804V170.684C33.3804 169.871 33.7033 169.091 34.2782 168.516C34.8531 167.941 35.6328 167.618 36.4459 167.618Z" fill="#365DA0" stroke="#9DAFCC" stroke-width="0.6" stroke-linecap="round" stroke-linejoin="round"/>
<path d="M26.7849 154.21H55.4893" stroke="#9DAFCC" stroke-width="0.6" stroke-linecap="round" stroke-linejoin="round"/>
<path d="M26.7805 156.692H30.4388V138.569H26.7805V156.692Z" fill="#E4EBF5" stroke="#9DAFCC" stroke-width="0.6" stroke-linecap="round" stroke-linejoin="round"/>
<path d="M26.7805 157.877H30.4388V154.219H26.7805V157.877Z" fill="white" stroke="#9DAFCC" stroke-width="0.6" stroke-linecap="round" stroke-linejoin="round"/>
<path d="M41.135 156.692H44.7933V138.569H41.135V156.692Z" fill="#E4EBF5" stroke="#9DAFCC" stroke-width="0.6" stroke-linecap="round" stroke-linejoin="round"/>
<path d="M41.135 157.877H44.7933V154.219H41.135V157.877Z" fill="white" stroke="#9DAFCC" stroke-width="0.6" stroke-linecap="round" stroke-linejoin="round"/>
<path d="M26.7847 130.682H19.9326V195.093H26.7847V130.682Z" fill="#E4EBF5" stroke="#9DAFCC" stroke-width="0.6" stroke-linejoin="round"/>
<path d="M53.7596 126.855H18.2695V130.682H53.7596V126.855Z" fill="white" stroke="#9DAFCC" stroke-width="0.6" stroke-linejoin="round"/>
<path d="M55.4934 120.339H20.7998V126.855H55.4934V120.339Z" fill="white" stroke="#9DAFCC" stroke-width="0.6" stroke-linejoin="round"/>
<path d="M41.4268 126.855H45.0452V120.339H41.4268V126.855Z" fill="#E4EBF5" stroke="#9DAFCC" stroke-width="0.6" stroke-linejoin="round"/>
<path d="M26.7849 126.855H34.5703V120.339H26.7849V126.855Z" fill="#E4EBF5" stroke="#9DAFCC" stroke-width="0.6" stroke-linejoin="round"/>
<path d="M80.4905 75.2546H63.009V79.081H80.4905V75.2546Z" fill="white" stroke="#9DAFCC" stroke-width="0.6" stroke-linejoin="round"/>
<path d="M61.2798 195.093H82.2163V79.0811H61.2798V195.093Z" fill="#E4EBF5" stroke="#9DAFCC" stroke-width="0.6" stroke-linecap="round" stroke-linejoin="round"/>
<path d="M71.7502 85.2122C73.1827 85.2122 74.5563 85.7812 75.5697 86.7941C76.5825 87.807 77.1516 89.1807 77.1516 90.6131V127.231H66.3494V90.6131C66.3494 89.1807 66.918 87.807 67.9313 86.7941C68.9442 85.7812 70.3178 85.2122 71.7502 85.2122Z" fill="white" stroke="#9DAFCC" stroke-width="0.6" stroke-linecap="round" stroke-linejoin="round"/>
<path d="M71.7502 88.5784C72.3083 88.5784 72.8444 88.8002 73.2389 89.1952C73.6338 89.5902 73.8557 90.1257 73.8557 90.6838V99.4604H69.6443V90.6838C69.6443 90.4078 69.699 90.1337 69.8049 89.8783C69.9108 89.6228 70.0659 89.3909 70.2611 89.1952C70.4569 88.9995 70.6887 88.8444 70.9442 88.7385C71.1997 88.6331 71.4737 88.5784 71.7502 88.5784Z" fill="#365DA0" stroke="#9DAFCC" stroke-width="0.6" stroke-linecap="round" stroke-linejoin="round"/>
<path d="M69.6443 124.011H73.8557V107.781H69.6443V124.011Z" fill="#365DA0" stroke="#9DAFCC" stroke-width="0.6" stroke-linecap="round" stroke-linejoin="round"/>
<path d="M73.8557 115.894H69.6443" stroke="#9DAFCC" stroke-width="0.6" stroke-linecap="round" stroke-linejoin="round"/>
<path d="M66.3486 154.211H77.1509V138.569H66.3486V154.211Z" fill="#365DA0" stroke="#9DAFCC" stroke-width="0.6" stroke-linecap="round" stroke-linejoin="round"/>
<path d="M71.7502 138.569V154.211" stroke="#9DAFCC" stroke-width="0.6" stroke-linecap="round" stroke-linejoin="round"/>
<path d="M77.1516 146.39H66.3494" stroke="#9DAFCC" stroke-width="0.6" stroke-linecap="round" stroke-linejoin="round"/>
<path d="M65.3582 195.093H78.1464V168.255H65.3582V195.093Z" fill="white" stroke="#9DAFCC" stroke-width="0.6" stroke-linecap="round" stroke-linejoin="round"/>
<path d="M68.95 195.088H74.5546V171.108H68.95V195.088Z" fill="#F25451" stroke="#9DAFCC" stroke-width="0.6" stroke-linecap="round" stroke-linejoin="round"/>
<path d="M65.3582 168.26H78.1464V163.92H65.3582V168.26Z" fill="white" stroke="#9DAFCC" stroke-width="0.6" stroke-linecap="round" stroke-linejoin="round"/>
<path d="M82.2207 195.093H87.9669V79.0811H82.2207V195.093Z" fill="#E4EBF5" stroke="#9DAFCC" stroke-width="0.6" stroke-linejoin="round"/>
<path d="M82.2207 82.9074H87.9669V79.0811H82.2207V82.9074Z" fill="white" stroke="#9DAFCC" stroke-width="0.6" stroke-linejoin="round"/>
<path d="M82.2207 107.781H87.9669V103.955H82.2207V107.781Z" fill="white" stroke="#9DAFCC" stroke-width="0.6" stroke-linejoin="round"/>
<path d="M80.4912 103.955H89.7361V100.128H80.4912V103.955Z" fill="white" stroke="#9DAFCC" stroke-width="0.6" stroke-linejoin="round"/>
<path d="M80.4912 79.0766H89.7361V75.2502H80.4912V79.0766Z" fill="white" stroke="#9DAFCC" stroke-width="0.6" stroke-linejoin="round"/>
<path d="M82.2207 134.07H87.9669V130.682H82.2207V134.07Z" fill="white" stroke="#9DAFCC" stroke-width="0.6" stroke-linejoin="round"/>
<path d="M80.4912 130.682H89.7361V126.855H80.4912V130.682Z" fill="white" stroke="#9DAFCC" stroke-width="0.6" stroke-linejoin="round"/>
<path d="M55.4893 195.093H61.2354V79.0811H55.4893V195.093Z" fill="#E4EBF5" stroke="#9DAFCC" stroke-width="0.6" stroke-linejoin="round"/>
<path d="M55.4893 82.9074H61.2354V79.0811H55.4893V82.9074Z" fill="white" stroke="#9DAFCC" stroke-width="0.6" stroke-linejoin="round"/>
<path d="M55.4893 107.781H61.2354V103.955H55.4893V107.781Z" fill="white" stroke="#9DAFCC" stroke-width="0.6" stroke-linejoin="round"/>
<path d="M53.7637 103.955H63.009V100.128H53.7637V103.955Z" fill="white" stroke="#9DAFCC" stroke-width="0.6" stroke-linejoin="round"/>
<path d="M53.7637 79.0766H63.009V75.2502H53.7637V79.0766Z" fill="white" stroke="#9DAFCC" stroke-width="0.6" stroke-linejoin="round"/>
<path d="M55.4893 134.07H61.2354V130.682H55.4893V134.07Z" fill="white" stroke="#9DAFCC" stroke-width="0.6" stroke-linejoin="round"/>
<path d="M53.7637 130.682H63.009V126.855H53.7637V130.682Z" fill="white" stroke="#9DAFCC" stroke-width="0.6" stroke-linejoin="round"/>
<path d="M64.0842 68.4602H79.4116V65.5894H64.0842V68.4602Z" fill="white" stroke="#9DAFCC" stroke-width="0.6" stroke-linejoin="round"/>
<path d="M57.9351 75.2548H85.5603V68.4646H57.9351V75.2548Z" fill="white" stroke="#9DAFCC" stroke-width="0.6" stroke-linejoin="round"/>
<path d="M57.9351 71.216H85.5603V68.4646H57.9351V71.216Z" fill="white" stroke="#9DAFCC" stroke-width="0.6" stroke-linejoin="round"/>
<path d="M71.7456 61.7275C72.771 61.7275 73.7542 62.1349 74.4794 62.8599C75.2047 63.585 75.6117 64.5684 75.6117 65.5937V71.8575H67.884V65.5937C67.883 65.0862 67.9829 64.5836 68.1766 64.1145C68.3704 63.6455 68.6549 63.2193 69.0133 62.8602C69.3722 62.5011 69.7978 62.2163 70.2665 62.022C70.7358 61.8276 71.2382 61.7275 71.7456 61.7275Z" fill="white" stroke="#9DAFCC" stroke-width="0.6" stroke-linecap="round" stroke-linejoin="round"/>
<path d="M71.7456 66.9341C72.4859 66.9341 73.0861 66.334 73.0861 65.5937C73.0861 64.8535 72.4859 64.2534 71.7456 64.2534C71.0053 64.2534 70.4055 64.8535 70.4055 65.5937C70.4055 66.334 71.0053 66.9341 71.7456 66.9341Z" fill="white" stroke="#9DAFCC" stroke-width="0.6" stroke-linecap="round" stroke-linejoin="round"/>
<path d="M60.7004 68.4602V63.5811" stroke="#9DAFCC" stroke-width="0.6" stroke-linecap="round" stroke-linejoin="round"/>
<path d="M82.7959 68.4602V63.5811" stroke="#9DAFCC" stroke-width="0.6" stroke-linecap="round" stroke-linejoin="round"/>
<path d="M71.7456 58.8699V61.7275" stroke="#9DAFCC" stroke-width="0.6" stroke-linecap="round" stroke-linejoin="round"/>
<path d="M203.28 189.262C205.492 176.364 206.527 152.047 206.527 146.474C206.527 140.9 204.036 118.707 206.527 104.402C204.036 106.68 203.872 108.653 202.869 108.653C201.864 108.653 198.98 108.383 198.529 107.839C198.078 107.295 195.087 102.681 195.087 102.048C195.087 101.415 194.729 95.2622 195.087 93.6436C195.446 92.0244 200.803 77.5284 202.961 75.3609C204.952 74.2727 213.905 71.1984 213.905 71.1984L215.356 69.3891C215.356 69.3891 215.082 62.7848 215.896 61.3383C215.533 58.8921 215.896 57.7994 215.896 57.7994C215.896 57.7994 215.896 51.8277 216.71 51.1951C217.523 50.5625 220.603 47.214 222.049 45.8559C223.495 44.4979 224.672 43.8653 225.486 44.228C226.3 44.5908 225.667 47.214 225.928 47.5767C226.189 47.9394 228.193 51.4649 228.463 51.8277C228.733 52.1904 228.463 54.4509 228.463 54.4509C228.463 54.4509 240.132 53.1857 241.22 53.0044C240.858 54.6322 240.778 58.7019 240.588 58.9761C240.398 59.2504 235.974 59.8608 234.798 60.5111C233.621 61.1613 231.63 63.9526 230.184 64.4923C229.397 64.8022 228.576 65.0161 227.737 65.1293V66.4829L230.003 67.6596L232.356 70.6454C232.356 70.6454 243.393 74.0825 243.932 74.7151C244.472 75.3477 246.918 79.3288 247.281 80.3241C247.578 81.3923 247.789 82.4825 247.913 83.5843C249.271 85.7562 253.885 93.9884 255.15 96.1606C256.415 98.3322 256.783 100.5 257.597 102.583C258.41 104.667 259.405 109.82 259.946 111.629C260.26 112.638 260.472 113.675 260.578 114.726L259.866 116.234C260.252 117.157 260.495 118.132 260.587 119.127C260.68 120.578 259.866 123.653 259.322 123.741C258.538 123.789 257.752 123.789 256.968 123.741L255.973 124.555L254.327 123.94L254.058 121.768L253.173 119.238L253.085 117.429H252.271C252.271 117.429 248.29 110.351 246.75 108.29C245.21 106.229 239.057 95.0017 238.695 91.374C236.704 93.9974 234.895 97.2532 233.829 98.2484C233.285 99.8761 232.741 102.592 232.741 102.592C232.741 102.592 235.727 109.104 236.722 111.82C237.717 114.536 241.247 129.368 241.247 129.368C241.247 129.368 248.484 179.858 249.749 189.262H203.28Z" fill="#F25451" stroke="#9DAFCC" stroke-width="0.6" stroke-linecap="round" stroke-linejoin="round"/>
<path d="M213.547 189.262C214.63 187.091 214.63 185.281 216.71 185.1C218.788 184.918 221.867 184.918 223.313 186.816C223.945 187.589 224.521 188.407 225.034 189.262H213.547Z" fill="#F25451" stroke="#9DAFCC" stroke-width="0.6" stroke-miterlimit="10"/>
<path d="M219.288 122.936C221.235 119.889 221.92 117.084 226.078 115.673C230.059 114.346 232.869 115.168 232.869 115.168" stroke="#9DAFCC" stroke-width="0.6" stroke-miterlimit="10" stroke-linecap="round"/>
<path d="M232.869 131.938C231.485 136.362 229.436 145.098 229.423 147.73C229.41 150.362 229.719 161.717 227.764 167.95C226.576 171.616 225.664 175.366 225.035 179.168" stroke="#9DAFCC" stroke-width="0.6" stroke-miterlimit="10" stroke-linecap="round"/>
<path d="M207.632 82.6775C207.995 83.08 207.632 84.845 207.632 84.845C208.004 84.8529 208.373 84.9109 208.73 85.0175C209.035 85.1989 209.052 90.5605 208.38 90.8566C207.027 91.4629 206.359 90.2021 205.213 91.091C205.161 92.1585 204.885 93.2029 204.403 94.1565L201.13 93.1302C201.13 93.1302 199.361 89.4367 200.113 87.7779C200.864 86.119 201.882 83.0624 202.917 82.6775C203.952 82.2927 206.845 81.8017 207.632 82.6775Z" stroke="#9DAFCC" stroke-width="0.6" stroke-miterlimit="10" stroke-linecap="round"/>
<path d="M206.487 104.622C207.062 103.105 207.725 93.1967 207.633 91.0291" stroke="#9DAFCC" stroke-width="0.6" stroke-miterlimit="10" stroke-linecap="round"/>
<path d="M205.482 84.8271C206.159 84.8271 207.048 84.8271 207.633 84.8271" stroke="#9DAFCC" stroke-width="0.6" stroke-miterlimit="10" stroke-linecap="round"/>
<path d="M227.746 66.4917C227.746 66.4917 225.738 70.1013 223.853 70.9152C225.977 73.1535 227.764 74.923 227.764 74.923C227.764 74.923 229.091 74.7327 232.364 70.641" stroke="#9DAFCC" stroke-width="0.6" stroke-linecap="round" stroke-linejoin="round"/>
<path d="M217.842 65.8591C219.018 66.5669 219.727 67.2703 220.788 67.5091C221.261 70.4552 220.996 74.9362 220.996 74.9362C220.996 74.9362 217.612 75.9802 216.072 69.513" stroke="#9DAFCC" stroke-width="0.6" stroke-linecap="round" stroke-linejoin="round"/>
<path d="M209.707 77.8823L210.769 79.8862C213.715 79.059 219.138 77.6479 225.623 79.8862C227.039 78.8245 228.109 77.8823 228.109 77.8823" stroke="#9DAFCC" stroke-width="0.6" stroke-linecap="round" stroke-linejoin="round"/>
<path d="M210.844 84.5264L212.494 87.1231C215.794 85.8225 217.802 84.8803 224.517 86.4153L227.348 84.5264L225.229 82.1731" stroke="#9DAFCC" stroke-width="0.6" stroke-linecap="round" stroke-linejoin="round"/>
<path d="M208.933 91.5024L210.844 94.1565C210.844 94.1565 213.246 92.2678 217.479 92.2678C221.713 92.2678 222.075 92.0907 224.318 92.8294C225.17 92.2071 225.924 91.4618 226.556 90.6176L225.026 88.6492" stroke="#9DAFCC" stroke-width="0.6" stroke-linecap="round" stroke-linejoin="round"/>
<path d="M232.723 102.592C229.511 101.814 227.985 100.986 225.034 101.106C222.084 101.225 220.704 101.871 219.094 101.84C217.484 101.809 216.072 101.628 213.834 101.84C210.415 102.168 206.867 102.592 206.867 102.592" stroke="#9DAFCC" stroke-width="0.6" stroke-linecap="round" stroke-linejoin="round"/>
<path d="M233.811 98.2483C229.746 97.8056 227.512 96.9785 225.035 97.3323C222.557 97.6862 219.492 97.3725 216.073 97.8237C212.653 98.2749 208.876 98.5138 207.641 98.8676" stroke="#9DAFCC" stroke-width="0.6" stroke-linecap="round" stroke-linejoin="round"/>
<path d="M215.25 97.8237L215.015 101.765" stroke="#9DAFCC" stroke-width="0.6" stroke-linecap="round" stroke-linejoin="round"/>
<path d="M220.726 97.5447L219.797 101.814" stroke="#9DAFCC" stroke-width="0.6" stroke-linecap="round" stroke-linejoin="round"/>
<path d="M253.08 117.429C254.407 116.336 255.805 115.253 257.614 114.912" stroke="#9DAFCC" stroke-width="0.6" stroke-linecap="round" stroke-linejoin="round"/>
<path d="M210.844 108.887C209.048 114.819 206.332 127.528 205.978 136.534" stroke="#9DAFCC" stroke-width="0.6" stroke-linecap="round" stroke-linejoin="round"/>
<path d="M216.798 54.8266C218.735 55.7113 221.54 56.627 228.471 54.4595" stroke="#9DAFCC" stroke-width="0.6" stroke-linecap="round" stroke-linejoin="round"/>
<path d="M220.456 55.8C220.253 56.9457 220.253 59.0027 219.917 59.5468C220.419 59.718 220.94 59.8264 221.469 59.8697" stroke="#9DAFCC" stroke-width="0.6" stroke-linecap="round" stroke-linejoin="round"/>
<path d="M222.862 57.7506C223.483 57.911 224.141 57.8484 224.72 57.5737" stroke="#9DAFCC" stroke-width="0.6" stroke-linecap="round" stroke-linejoin="round"/>
<path d="M218.32 57.702C217.917 57.702 218.143 57.702 217.815 57.5427" stroke="#9DAFCC" stroke-width="0.6" stroke-linecap="round" stroke-linejoin="round"/>
<path d="M220.081 62.7583C220.49 62.785 220.901 62.785 221.31 62.7583" stroke="#9DAFCC" stroke-width="0.6" stroke-linecap="round" stroke-linejoin="round"/>
<path d="M210.468 39.0039L209.627 63.497L207.549 63.5148V73.419L211.083 72.1893L211.047 66.5935H212.781L212.414 39.0039H210.468Z" fill="#F25451" stroke="#9DAFCC" stroke-width="0.6" stroke-linejoin="round"/>
<path d="M255.951 189.263H194.114V195.088H255.951V189.263Z" fill="#365DA0" stroke="#9DAFCC" stroke-width="0.6" stroke-linejoin="round"/>
</g>
</g>
<defs>
<filter id="filter0_dd_202_5651" x="-11.9112" y="-11.9112" width="296.822" height="263.822" filterUnits="userSpaceOnUse" color-interpolation-filters="sRGB">
<feFlood flood-opacity="0" result="BackgroundImageFix"/>
<feColorMatrix in="SourceAlpha" type="matrix" values="0 0 0 0 0 0 0 0 0 0 0 0 0 0 0 0 0 0 127 0" result="hardAlpha"/>
<feOffset/>
<feGaussianBlur stdDeviation="5.95559"/>
<feComposite in2="hardAlpha" operator="out"/>
<feColorMatrix type="matrix" values="0 0 0 0 0.568627 0 0 0 0 0.741176 0 0 0 0 0.866667 0 0 0 1 0"/>
<feBlend mode="normal" in2="BackgroundImageFix" result="effect1_dropShadow_202_5651"/>
<feColorMatrix in="SourceAlpha" type="matrix" values="0 0 0 0 0 0 0 0 0 0 0 0 0 0 0 0 0 0 127 0" result="hardAlpha"/>
<feOffset dy="2.38223"/>
<feGaussianBlur stdDeviation="2.97779"/>
<feComposite in2="hardAlpha" operator="out"/>
<feColorMatrix type="matrix" values="0 0 0 0 0 0 0 0 0 0 0 0 0 0 0 0 0 0 0.1 0"/>
<feBlend mode="normal" in2="effect1_dropShadow_202_5651" result="effect2_dropShadow_202_5651"/>
<feBlend mode="normal" in="SourceGraphic" in2="effect2_dropShadow_202_5651" result="shape"/>
</filter>
<filter id="filter1_dd_202_5651" x="6.05831" y="26.7927" width="266.747" height="180.511" filterUnits="userSpaceOnUse" color-interpolation-filters="sRGB">
<feFlood flood-opacity="0" result="BackgroundImageFix"/>
<feColorMatrix in="SourceAlpha" type="matrix" values="0 0 0 0 0 0 0 0 0 0 0 0 0 0 0 0 0 0 127 0" result="hardAlpha"/>
<feOffset/>
<feGaussianBlur stdDeviation="5.95559"/>
<feComposite in2="hardAlpha" operator="out"/>
<feColorMatrix type="matrix" values="0 0 0 0 0.568627 0 0 0 0 0.741176 0 0 0 0 0.866667 0 0 0 1 0"/>
<feBlend mode="normal" in2="BackgroundImageFix" result="effect1_dropShadow_202_5651"/>
<feColorMatrix in="SourceAlpha" type="matrix" values="0 0 0 0 0 0 0 0 0 0 0 0 0 0 0 0 0 0 127 0" result="hardAlpha"/>
<feOffset dy="2.38223"/>
<feGaussianBlur stdDeviation="2.97779"/>
<feComposite in2="hardAlpha" operator="out"/>
<feColorMatrix type="matrix" values="0 0 0 0 0 0 0 0 0 0 0 0 0 0 0 0 0 0 0.1 0"/>
<feBlend mode="normal" in2="effect1_dropShadow_202_5651" result="effect2_dropShadow_202_5651"/>
<feBlend mode="normal" in="SourceGraphic" in2="effect2_dropShadow_202_5651" result="shape"/>
</filter>
</defs>
</svg>
