<svg width="286" height="240" viewBox="0 0 286 240" fill="none" xmlns="http://www.w3.org/2000/svg">
<g filter="url(#filter0_dd_202_3772)">
<g filter="url(#filter1_dd_202_3772)">
<path d="M58.5093 162.317H21.6548V167.038H58.5093V162.317Z" stroke="#9DAFCC" stroke-width="0.6" stroke-linecap="round" stroke-linejoin="round"/>
<path d="M27.9741 162.526V167.033" stroke="#9DAFCC" stroke-width="0.6" stroke-linecap="round" stroke-linejoin="round"/>
<path d="M34.2935 162.526V167.033" stroke="#9DAFCC" stroke-width="0.6" stroke-linecap="round" stroke-linejoin="round"/>
<path d="M40.6172 162.526V167.033" stroke="#9DAFCC" stroke-width="0.6" stroke-linecap="round" stroke-linejoin="round"/>
<path d="M152.279 138.342L147.396 142.715V158.972H161.771V138.342H152.279Z" fill="#E4EBF5" stroke="#9DAFCC" stroke-width="0.6" stroke-linecap="round" stroke-linejoin="round"/>
<path d="M161.771 145.81H147.396V149.924H161.771V145.81Z" fill="#9DAFCC" stroke="#9DAFCC" stroke-width="0.6" stroke-linecap="round" stroke-linejoin="round"/>
<path d="M197.746 138.342H161.771V157.392H197.746V138.342Z" fill="#E4EBF5" stroke="#9DAFCC" stroke-width="0.6" stroke-linecap="round" stroke-linejoin="round"/>
<path d="M197.746 141.46H161.771" stroke="#9DAFCC" stroke-width="0.6" stroke-linecap="round" stroke-linejoin="round"/>
<path d="M190.111 147.867H161.771" stroke="#9DAFCC" stroke-width="0.6" stroke-linecap="round" stroke-linejoin="round"/>
<path d="M166.27 138.342V141.46" stroke="#9DAFCC" stroke-width="0.6" stroke-linecap="round" stroke-linejoin="round"/>
<path d="M170.768 138.342V141.46" stroke="#9DAFCC" stroke-width="0.6" stroke-linecap="round" stroke-linejoin="round"/>
<path d="M175.262 138.342V141.46" stroke="#9DAFCC" stroke-width="0.6" stroke-linecap="round" stroke-linejoin="round"/>
<path d="M179.761 138.342V141.46" stroke="#9DAFCC" stroke-width="0.6" stroke-linecap="round" stroke-linejoin="round"/>
<path d="M184.255 138.342V141.46" stroke="#9DAFCC" stroke-width="0.6" stroke-linecap="round" stroke-linejoin="round"/>
<path d="M188.753 138.342V141.46" stroke="#9DAFCC" stroke-width="0.6" stroke-linecap="round" stroke-linejoin="round"/>
<path d="M193.252 138.342V141.46" stroke="#9DAFCC" stroke-width="0.6" stroke-linecap="round" stroke-linejoin="round"/>
<path d="M166.27 149.183V152.301" stroke="#9DAFCC" stroke-width="0.6" stroke-linecap="round" stroke-linejoin="round"/>
<path d="M170.768 149.183V152.301" stroke="#9DAFCC" stroke-width="0.6" stroke-linecap="round" stroke-linejoin="round"/>
<path d="M175.262 149.183V152.301" stroke="#9DAFCC" stroke-width="0.6" stroke-linecap="round" stroke-linejoin="round"/>
<path d="M179.761 149.183V152.301" stroke="#9DAFCC" stroke-width="0.6" stroke-linecap="round" stroke-linejoin="round"/>
<path d="M184.255 149.183V152.301" stroke="#9DAFCC" stroke-width="0.6" stroke-linecap="round" stroke-linejoin="round"/>
<path d="M127.474 154.904H147.395" stroke="#9DAFCC" stroke-width="0.6" stroke-linecap="round" stroke-linejoin="round"/>
<path d="M110.402 162.317H46.9365V170.883H110.402V162.317Z" fill="#E4EBF5" stroke="#9DAFCC" stroke-width="0.6" stroke-linecap="round" stroke-linejoin="round"/>
<path d="M127.479 153.311H83.791V162.312H127.479V153.311Z" fill="#E4EBF5" stroke="#9DAFCC" stroke-width="0.6" stroke-linecap="round" stroke-linejoin="round"/>
<path d="M139.988 158.56H108.322C108.322 158.56 105.167 169.762 86.7376 170.374C86.4318 173.223 180.405 172.407 180.405 172.407L210.648 170.577V144.633H191.315C191.315 144.633 190.704 152.472 184.496 152.472C178.288 152.472 154.544 152.166 154.544 152.166C151.931 156.461 151.899 158.564 139.988 158.56Z" fill="white" stroke="#9DAFCC" stroke-width="0.6" stroke-linecap="round" stroke-linejoin="round"/>
<path d="M239.154 158.564H210.648V170.883H239.154V158.564Z" fill="white" stroke="#9DAFCC" stroke-width="0.6" stroke-linecap="round" stroke-linejoin="round"/>
<path d="M120.645 162.085H110.407V165.574H120.645V162.085Z" fill="#365DA0" stroke="#9DAFCC" stroke-width="0.6" stroke-linecap="round" stroke-linejoin="round"/>
<path d="M135.1 162.085H124.861V165.574H135.1V162.085Z" fill="#365DA0" stroke="#9DAFCC" stroke-width="0.6" stroke-linecap="round" stroke-linejoin="round"/>
<path d="M149.559 162.085H139.321V165.574H149.559V162.085Z" fill="#365DA0" stroke="#9DAFCC" stroke-width="0.6" stroke-linecap="round" stroke-linejoin="round"/>
<path d="M164.018 162.085H153.78V165.574H164.018V162.085Z" fill="#365DA0" stroke="#9DAFCC" stroke-width="0.6" stroke-linecap="round" stroke-linejoin="round"/>
<path d="M273.618 162.085C273.618 162.085 270.139 175.984 268.272 177.86C266.405 179.737 255.851 184.861 253.039 186.491H38.1064C38.1064 186.491 28.5998 180.659 23.0079 178.481C17.416 176.304 14.9235 169.155 16.4756 166.667C28.9148 167.594 96.0635 168.835 129.638 169.447C163.212 170.059 242.217 164.745 273.618 162.085Z" fill="#365DA0" stroke="#9DAFCC" stroke-width="0.6" stroke-linecap="round" stroke-linejoin="round"/>
<path d="M215.221 160.867H214.095C213.606 160.867 213.21 161.263 213.21 161.752V162.877C213.21 163.366 213.606 163.762 214.095 163.762H215.221C215.709 163.762 216.105 163.366 216.105 162.877V161.752C216.105 161.263 215.709 160.867 215.221 160.867Z" fill="#365DA0"/>
<path d="M219.9 160.867H218.774C218.285 160.867 217.889 161.263 217.889 161.752V162.877C217.889 163.366 218.285 163.762 218.774 163.762H219.9C220.389 163.762 220.785 163.366 220.785 162.877V161.752C220.785 161.263 220.389 160.867 219.9 160.867Z" fill="#365DA0"/>
<path d="M224.584 160.867H223.458C222.969 160.867 222.573 161.263 222.573 161.752V162.877C222.573 163.366 222.969 163.762 223.458 163.762H224.584C225.072 163.762 225.469 163.366 225.469 162.877V161.752C225.469 161.263 225.072 160.867 224.584 160.867Z" fill="#365DA0"/>
<path d="M162.336 155.812H161.211C160.722 155.812 160.326 156.208 160.326 156.697V158.087C160.326 158.576 160.722 158.972 161.211 158.972H162.336C162.825 158.972 163.221 158.576 163.221 158.087V156.697C163.221 156.208 162.825 155.812 162.336 155.812Z" fill="#365DA0"/>
<path d="M173.164 155.812H172.038C171.549 155.812 171.153 156.208 171.153 156.697V158.087C171.153 158.576 171.549 158.972 172.038 158.972H173.164C173.652 158.972 174.049 158.576 174.049 158.087V156.697C174.049 156.208 173.652 155.812 173.164 155.812Z" fill="#365DA0"/>
<path d="M173.164 160.737H172.038C171.549 160.737 171.153 161.133 171.153 161.622V163.012C171.153 163.501 171.549 163.897 172.038 163.897H173.164C173.652 163.897 174.049 163.501 174.049 163.012V161.622C174.049 161.133 173.652 160.737 173.164 160.737Z" fill="#365DA0"/>
<path d="M183.995 155.812H182.869C182.38 155.812 181.984 156.208 181.984 156.697V158.087C181.984 158.576 182.38 158.972 182.869 158.972H183.995C184.484 158.972 184.88 158.576 184.88 158.087V156.697C184.88 156.208 184.484 155.812 183.995 155.812Z" fill="#365DA0"/>
<path d="M205.659 155.812H204.533C204.044 155.812 203.648 156.208 203.648 156.697V158.087C203.648 158.576 204.044 158.972 204.533 158.972H205.659C206.147 158.972 206.543 158.576 206.543 158.087V156.697C206.543 156.208 206.147 155.812 205.659 155.812Z" fill="#365DA0"/>
<path d="M194.827 155.812H193.701C193.212 155.812 192.816 156.208 192.816 156.697V158.087C192.816 158.576 193.212 158.972 193.701 158.972H194.827C195.316 158.972 195.712 158.576 195.712 158.087V156.697C195.712 156.208 195.316 155.812 194.827 155.812Z" fill="#365DA0"/>
<path d="M183.995 160.737H182.869C182.38 160.737 181.984 161.133 181.984 161.622V163.012C181.984 163.501 182.38 163.897 182.869 163.897H183.995C184.484 163.897 184.88 163.501 184.88 163.012V161.622C184.88 161.133 184.484 160.737 183.995 160.737Z" fill="#365DA0"/>
<path d="M205.659 160.737H204.533C204.044 160.737 203.648 161.133 203.648 161.622V163.012C203.648 163.501 204.044 163.897 204.533 163.897H205.659C206.147 163.897 206.543 163.501 206.543 163.012V161.622C206.543 161.133 206.147 160.737 205.659 160.737Z" fill="#365DA0"/>
<path d="M194.827 160.737H193.701C193.212 160.737 192.816 161.133 192.816 161.622V163.012C192.816 163.501 193.212 163.897 193.701 163.897H194.827C195.316 163.897 195.712 163.501 195.712 163.012V161.622C195.712 161.133 195.316 160.737 194.827 160.737Z" fill="#365DA0"/>
<path d="M205.659 150.892H204.533C204.044 150.892 203.648 151.288 203.648 151.777V153.167C203.648 153.656 204.044 154.052 204.533 154.052H205.659C206.147 154.052 206.543 153.656 206.543 153.167V151.777C206.543 151.288 206.147 150.892 205.659 150.892Z" fill="#365DA0"/>
<path d="M194.827 150.892H193.701C193.212 150.892 192.816 151.288 192.816 151.777V153.167C192.816 153.656 193.212 154.052 193.701 154.052H194.827C195.316 154.052 195.712 153.656 195.712 153.167V151.777C195.712 151.288 195.316 150.892 194.827 150.892Z" fill="#365DA0"/>
<path d="M122.179 138.342H119.497V153.311H124.861L122.179 138.342Z" fill="#E4EBF5" stroke="#9DAFCC" stroke-width="0.6" stroke-linecap="round" stroke-linejoin="round"/>
<path d="M117.611 138.342H124.861" stroke="#9DAFCC" stroke-width="0.6" stroke-linecap="round" stroke-linejoin="round"/>
<path d="M117.611 144.615H126.427" stroke="#9DAFCC" stroke-width="0.6" stroke-linecap="round" stroke-linejoin="round"/>
<path d="M187.604 138.342H182.165V115.988H185.061L187.604 138.342Z" fill="#365DA0" stroke="#9DAFCC" stroke-width="0.6" stroke-linecap="round" stroke-linejoin="round"/>
<path d="M179.761 115.988H187.604" stroke="#9DAFCC" stroke-width="0.6" stroke-linecap="round" stroke-linejoin="round"/>
<path d="M179.761 122.748H190.111" stroke="#9DAFCC" stroke-width="0.6" stroke-linecap="round" stroke-linejoin="round"/>
<path d="M179.761 130.545H190.111" stroke="#9DAFCC" stroke-width="0.6" stroke-linecap="round" stroke-linejoin="round"/>
<path d="M181.985 133.839H177.481V138.342H181.985V133.839Z" fill="#E4EBF5" stroke="#9DAFCC" stroke-width="0.6" stroke-linecap="round" stroke-linejoin="round"/>
<path d="M174.229 122.748H182.165V126.134L174.229 122.748Z" fill="#9DAFCC" stroke="#9DAFCC" stroke-width="0.6" stroke-linecap="round" stroke-linejoin="round"/>
<path d="M97.4765 123.54H87.7104V127.501H97.4765V123.54Z" fill="#E4EBF5" stroke="#9DAFCC" stroke-width="0.6" stroke-linecap="round" stroke-linejoin="round"/>
<path d="M93.3809 108.78H90.8699V153.311H95.8965L93.3809 108.78Z" fill="#365DA0" stroke="#9DAFCC" stroke-width="0.6" stroke-linecap="round" stroke-linejoin="round"/>
<path d="M82.9338 132.829H90.8699V136.211L82.9338 132.829Z" fill="#9DAFCC" stroke="#9DAFCC" stroke-width="0.6" stroke-linecap="round" stroke-linejoin="round"/>
<path d="M90.8699 113.13H93.6264" stroke="#9DAFCC" stroke-width="0.6" stroke-linecap="round" stroke-linejoin="round"/>
<path d="M97.4765 123.54H87.7104V127.501H97.4765V123.54Z" stroke="#9DAFCC" stroke-width="0.6" stroke-linecap="round" stroke-linejoin="round"/>
<path d="M89.7211 156.234H88.5953C88.1066 156.234 87.7104 156.63 87.7104 157.119V158.509C87.7104 158.998 88.1066 159.394 88.5953 159.394H89.7211C90.2099 159.394 90.606 158.998 90.606 158.509V157.119C90.606 156.63 90.2099 156.234 89.7211 156.234Z" fill="#365DA0"/>
<path d="M103.258 156.234H102.132C101.644 156.234 101.248 156.63 101.248 157.119V158.509C101.248 158.998 101.644 159.394 102.132 159.394H103.258C103.747 159.394 104.143 158.998 104.143 158.509V157.119C104.143 156.63 103.747 156.234 103.258 156.234Z" fill="#365DA0"/>
<path d="M96.4897 156.234H95.3639C94.8751 156.234 94.479 156.63 94.479 157.119V158.509C94.479 158.998 94.8751 159.394 95.3639 159.394H96.4897C96.9784 159.394 97.3745 158.998 97.3745 158.509V157.119C97.3745 156.63 96.9784 156.234 96.4897 156.234Z" fill="#365DA0"/>
<path d="M119.497 149.924H83.791V153.311H119.497V149.924Z" stroke="#9DAFCC" stroke-width="0.6" stroke-linecap="round" stroke-linejoin="round"/>
<path d="M83.7909 158.564H46.9365V162.317H83.7909V158.564Z" stroke="#9DAFCC" stroke-width="0.6" stroke-linecap="round" stroke-linejoin="round"/>
<path d="M52.1995 158.564V162.317" stroke="#9DAFCC" stroke-width="0.6" stroke-linecap="round" stroke-linejoin="round"/>
<path d="M57.467 158.564V162.317" stroke="#9DAFCC" stroke-width="0.6" stroke-linecap="round" stroke-linejoin="round"/>
<path d="M62.73 158.564V162.317" stroke="#9DAFCC" stroke-width="0.6" stroke-linecap="round" stroke-linejoin="round"/>
<path d="M67.9973 158.564V162.317" stroke="#9DAFCC" stroke-width="0.6" stroke-linecap="round" stroke-linejoin="round"/>
<path d="M73.2605 158.564V162.317" stroke="#9DAFCC" stroke-width="0.6" stroke-linecap="round" stroke-linejoin="round"/>
<path d="M78.5234 158.564V162.317" stroke="#9DAFCC" stroke-width="0.6" stroke-linecap="round" stroke-linejoin="round"/>
<path d="M270.875 162.317V152.301" stroke="#9DAFCC" stroke-width="0.6" stroke-linecap="round" stroke-linejoin="round"/>
<path d="M207.943 144.615V134.599" stroke="#9DAFCC" stroke-width="0.6" stroke-linecap="round" stroke-linejoin="round"/>
<path d="M97.4763 127.501C116.434 129.331 147.873 129.224 179.52 125.004" stroke="#9DAFCC" stroke-width="0.6" stroke-linecap="round" stroke-linejoin="round"/>
<path d="M21.6548 163.892V149.924" stroke="#9DAFCC" stroke-width="0.6" stroke-linecap="round" stroke-linejoin="round"/>
<path d="M21.6548 149.781H12.9265V154.909H21.6548V149.781Z" fill="#F25451" stroke="#9DAFCC" stroke-width="0.6" stroke-linecap="round" stroke-linejoin="round"/>
<path d="M166.844 143.165H165.718C165.23 143.165 164.833 143.561 164.833 144.05V145.175C164.833 145.664 165.23 146.06 165.718 146.06H166.844C167.333 146.06 167.729 145.664 167.729 145.175V144.05C167.729 143.561 167.333 143.165 166.844 143.165Z" fill="#365DA0"/>
<path d="M171.917 143.165H170.792C170.303 143.165 169.907 143.561 169.907 144.05V145.175C169.907 145.664 170.303 146.06 170.792 146.06H171.917C172.406 146.06 172.802 145.664 172.802 145.175V144.05C172.802 143.561 172.406 143.165 171.917 143.165Z" fill="#365DA0"/>
<path d="M176.995 143.165H175.869C175.38 143.165 174.984 143.561 174.984 144.05V145.175C174.984 145.664 175.38 146.06 175.869 146.06H176.995C177.484 146.06 177.88 145.664 177.88 145.175V144.05C177.88 143.561 177.484 143.165 176.995 143.165Z" fill="#365DA0"/>
<path d="M182.068 143.165H180.942C180.453 143.165 180.057 143.561 180.057 144.05V145.175C180.057 145.664 180.453 146.06 180.942 146.06H182.068C182.557 146.06 182.953 145.664 182.953 145.175V144.05C182.953 143.561 182.557 143.165 182.068 143.165Z" fill="#365DA0"/>
<path d="M187.141 143.165H186.015C185.526 143.165 185.13 143.561 185.13 144.05V145.175C185.13 145.664 185.526 146.06 186.015 146.06H187.141C187.63 146.06 188.026 145.664 188.026 145.175V144.05C188.026 143.561 187.63 143.165 187.141 143.165Z" fill="#365DA0"/>
<path d="M148.605 91.865H96.8418V97.7024H148.605V91.865Z" fill="white" stroke="#9DAFCC" stroke-width="0.6" stroke-linecap="round" stroke-linejoin="round"/>
<path d="M141.79 73.6903H103.666V97.7024H141.79V73.6903Z" fill="white" stroke="#9DAFCC" stroke-width="0.6" stroke-linecap="round" stroke-linejoin="round"/>
<path d="M122.725 80C122.449 80 122.175 80.0545 121.919 80.1605C121.663 80.2664 121.431 80.4217 121.235 80.6174C121.039 80.8132 120.884 81.0455 120.778 81.3013C120.672 81.5571 120.617 81.8311 120.617 82.108V91.8649H124.833V82.108C124.833 81.8311 124.779 81.5571 124.673 81.3013C124.567 81.0455 124.412 80.8132 124.216 80.6174C124.02 80.4217 123.788 80.2664 123.532 80.1605C123.276 80.0545 123.002 80 122.725 80Z" fill="#365DA0" stroke="#9DAFCC" stroke-width="0.6" stroke-linecap="round" stroke-linejoin="round"/>
<path d="M109.865 80C109.588 80 109.314 80.0545 109.058 80.1605C108.802 80.2664 108.57 80.4217 108.374 80.6174C108.178 80.8132 108.023 81.0455 107.917 81.3013C107.812 81.5571 107.757 81.8311 107.757 82.108V91.8649H111.973V82.108C111.973 81.5489 111.751 81.0127 111.355 80.6174C110.96 80.2221 110.424 80 109.865 80Z" fill="#365DA0" stroke="#9DAFCC" stroke-width="0.6" stroke-linecap="round" stroke-linejoin="round"/>
<path d="M146.835 97.7024H98.6113V193.366H146.835V97.7024Z" fill="#F25451" stroke="#9DAFCC" stroke-width="0.6" stroke-linecap="round" stroke-linejoin="round"/>
<path d="M146.835 159.88H98.6113V171.661H146.835V159.88Z" fill="white" stroke="#9DAFCC" stroke-width="0.6" stroke-linecap="round" stroke-linejoin="round"/>
<path d="M122.726 162.683C121.92 162.683 121.147 163.003 120.576 163.573C120.007 164.143 119.687 164.916 119.687 165.722V171.661H125.765V165.722C125.765 164.916 125.445 164.143 124.875 163.573C124.305 163.003 123.532 162.683 122.726 162.683Z" fill="#365DA0" stroke="#9DAFCC" stroke-width="0.6" stroke-linecap="round" stroke-linejoin="round"/>
<path d="M105.311 162.683C104.505 162.683 103.732 163.003 103.161 163.573C102.592 164.143 102.271 164.916 102.271 165.722V171.661H108.35V165.722C108.35 164.916 108.03 164.143 107.46 163.573C106.89 163.003 106.117 162.683 105.311 162.683Z" fill="#365DA0" stroke="#9DAFCC" stroke-width="0.6" stroke-linecap="round" stroke-linejoin="round"/>
<path d="M140.145 162.683C139.339 162.683 138.566 163.003 137.996 163.573C137.426 164.143 137.106 164.916 137.106 165.722V171.661H143.18V165.722C143.18 164.917 142.86 164.145 142.291 163.575C141.722 163.005 140.95 162.684 140.145 162.683Z" fill="#365DA0" stroke="#9DAFCC" stroke-width="0.6" stroke-linecap="round" stroke-linejoin="round"/>
<path d="M146.835 135.71H98.6113V147.492H146.835V135.71Z" fill="white" stroke="#9DAFCC" stroke-width="0.6" stroke-linecap="round" stroke-linejoin="round"/>
<path d="M122.726 138.513C121.92 138.513 121.147 138.833 120.576 139.404C120.007 139.974 119.687 140.746 119.687 141.552V147.492H125.765V141.552C125.765 140.746 125.445 139.974 124.875 139.404C124.305 138.833 123.532 138.513 122.726 138.513Z" fill="#365DA0" stroke="#9DAFCC" stroke-width="0.6" stroke-linecap="round" stroke-linejoin="round"/>
<path d="M105.311 138.513C104.505 138.513 103.732 138.833 103.161 139.404C102.592 139.974 102.271 140.746 102.271 141.552V147.492H108.35V141.552C108.35 140.746 108.03 139.974 107.46 139.404C106.89 138.833 106.117 138.513 105.311 138.513Z" fill="#365DA0" stroke="#9DAFCC" stroke-width="0.6" stroke-linecap="round" stroke-linejoin="round"/>
<path d="M140.145 138.513C139.746 138.513 139.351 138.591 138.981 138.744C138.613 138.896 138.277 139.12 137.995 139.402C137.712 139.684 137.489 140.02 137.336 140.389C137.184 140.758 137.105 141.153 137.106 141.552V147.492H143.18V141.552C143.18 141.154 143.102 140.758 142.95 140.39C142.798 140.021 142.575 139.686 142.292 139.404C142.011 139.122 141.676 138.897 141.308 138.745C140.939 138.592 140.544 138.513 140.145 138.513Z" fill="#365DA0" stroke="#9DAFCC" stroke-width="0.6" stroke-linecap="round" stroke-linejoin="round"/>
<path d="M146.835 112.375H98.6113V124.156H146.835V112.375Z" fill="white" stroke="#9DAFCC" stroke-width="0.6" stroke-linecap="round" stroke-linejoin="round"/>
<path d="M122.726 115.177C121.92 115.177 121.147 115.498 120.576 116.067C120.007 116.638 119.687 117.411 119.687 118.217V124.156H125.765V118.217C125.765 117.411 125.445 116.638 124.875 116.067C124.305 115.498 123.532 115.177 122.726 115.177Z" fill="#365DA0" stroke="#9DAFCC" stroke-width="0.6" stroke-linecap="round" stroke-linejoin="round"/>
<path d="M105.311 115.177C104.505 115.177 103.732 115.498 103.161 116.067C102.592 116.638 102.271 117.411 102.271 118.217V124.156H108.35V118.217C108.35 117.411 108.03 116.638 107.46 116.067C106.89 115.498 106.117 115.177 105.311 115.177Z" fill="#365DA0" stroke="#9DAFCC" stroke-width="0.6" stroke-linecap="round" stroke-linejoin="round"/>
<path d="M140.145 115.177C139.746 115.177 139.351 115.255 138.981 115.408C138.613 115.56 138.277 115.784 137.995 116.066C137.712 116.349 137.489 116.684 137.336 117.053C137.184 117.422 137.105 117.817 137.106 118.217V124.156H143.18V118.217C143.18 117.818 143.102 117.423 142.95 117.054C142.798 116.685 142.575 116.35 142.292 116.068C142.011 115.786 141.676 115.562 141.308 115.409C140.939 115.256 140.544 115.177 140.145 115.177Z" fill="#365DA0" stroke="#9DAFCC" stroke-width="0.6" stroke-linecap="round" stroke-linejoin="round"/>
<path d="M98.6113 152.227H146.839" stroke="#9DAFCC" stroke-width="0.6" stroke-linecap="round" stroke-linejoin="round"/>
<path d="M115.559 152.227V155.307" stroke="#9DAFCC" stroke-width="0.6" stroke-linecap="square" stroke-linejoin="round"/>
<path d="M119.144 152.227V155.307" stroke="#9DAFCC" stroke-width="0.6" stroke-linecap="square" stroke-linejoin="round"/>
<path d="M122.726 152.227V155.307" stroke="#9DAFCC" stroke-width="0.6" stroke-linecap="square" stroke-linejoin="round"/>
<path d="M126.311 152.227V155.307" stroke="#9DAFCC" stroke-width="0.6" stroke-linecap="square" stroke-linejoin="round"/>
<path d="M129.892 152.227V155.307" stroke="#9DAFCC" stroke-width="0.6" stroke-linecap="square" stroke-linejoin="round"/>
<path d="M133.446 97.7024H112.005V193.366H133.446V97.7024Z" stroke="#9DAFCC" stroke-width="0.6" stroke-linecap="round" stroke-linejoin="round"/>
<path d="M129.388 73.6903H116.063V97.7024H129.388V73.6903Z" stroke="#9DAFCC" stroke-width="0.6" stroke-linecap="round" stroke-linejoin="round"/>
<path d="M135.586 80.0002C135.309 80.0002 135.036 80.0548 134.78 80.1607C134.524 80.2666 134.292 80.4219 134.096 80.6177C133.9 80.8134 133.745 81.0458 133.639 81.3015C133.533 81.5573 133.479 81.8314 133.479 82.1082V91.865H137.713V82.1082C137.713 81.8296 137.659 81.5537 137.552 81.2965C137.445 81.0393 137.288 80.8058 137.09 80.6097C136.892 80.4135 136.658 80.2587 136.4 80.1541C136.142 80.0495 135.865 79.9972 135.586 80.0002Z" fill="#365DA0" stroke="#9DAFCC" stroke-width="0.6" stroke-linecap="round" stroke-linejoin="round"/>
<path d="M103.666 77.0491H141.79" stroke="#9DAFCC" stroke-width="0.6" stroke-linecap="round" stroke-linejoin="round"/>
<path d="M148.605 91.865H96.8418V97.7024H148.605V91.865Z" stroke="#9DAFCC" stroke-width="0.6" stroke-linecap="round" stroke-linejoin="round"/>
<path d="M137.694 67.0652H107.757V73.6902H137.694V67.0652Z" fill="#E4EBF5" stroke="#9DAFCC" stroke-width="0.6" stroke-linecap="round" stroke-linejoin="round"/>
<path d="M130.81 49.6411H114.646V67.0653H130.81V49.6411Z" stroke="#9DAFCC" stroke-width="0.6" stroke-linecap="round" stroke-linejoin="round"/>
<path d="M130.81 59.8704H114.646V67.0698H130.81V59.8704Z" fill="#F25451" stroke="#9DAFCC" stroke-width="0.6" stroke-linecap="round" stroke-linejoin="round"/>
<path d="M125.765 49.6411H119.687V67.0653H125.765V49.6411Z" stroke="#9DAFCC" stroke-width="0.6" stroke-linecap="round" stroke-linejoin="round"/>
<path d="M137.694 59.8704H107.757V67.0698H137.694V59.8704Z" stroke="#9DAFCC" stroke-width="0.6" stroke-linecap="round" stroke-linejoin="round"/>
<path d="M122.726 40.9265L112.825 49.6409H132.626L122.726 40.9265Z" fill="#F25451" stroke="#9DAFCC" stroke-width="0.6" stroke-linecap="round" stroke-linejoin="round"/>
</g>
</g>
<defs>
<filter id="filter0_dd_202_3772" x="-3.91117" y="-11.9112" width="296.822" height="263.822" filterUnits="userSpaceOnUse" color-interpolation-filters="sRGB">
<feFlood flood-opacity="0" result="BackgroundImageFix"/>
<feColorMatrix in="SourceAlpha" type="matrix" values="0 0 0 0 0 0 0 0 0 0 0 0 0 0 0 0 0 0 127 0" result="hardAlpha"/>
<feOffset/>
<feGaussianBlur stdDeviation="5.95559"/>
<feComposite in2="hardAlpha" operator="out"/>
<feColorMatrix type="matrix" values="0 0 0 0 0.568627 0 0 0 0 0.741176 0 0 0 0 0.866667 0 0 0 1 0"/>
<feBlend mode="normal" in2="BackgroundImageFix" result="effect1_dropShadow_202_3772"/>
<feColorMatrix in="SourceAlpha" type="matrix" values="0 0 0 0 0 0 0 0 0 0 0 0 0 0 0 0 0 0 127 0" result="hardAlpha"/>
<feOffset dy="2.38223"/>
<feGaussianBlur stdDeviation="2.97779"/>
<feComposite in2="hardAlpha" operator="out"/>
<feColorMatrix type="matrix" values="0 0 0 0 0 0 0 0 0 0 0 0 0 0 0 0 0 0 0.1 0"/>
<feBlend mode="normal" in2="effect1_dropShadow_202_3772" result="effect2_dropShadow_202_3772"/>
<feBlend mode="normal" in="SourceGraphic" in2="effect2_dropShadow_202_3772" result="shape"/>
</filter>
<filter id="filter1_dd_202_3772" x="0.715354" y="28.7153" width="285.114" height="176.862" filterUnits="userSpaceOnUse" color-interpolation-filters="sRGB">
<feFlood flood-opacity="0" result="BackgroundImageFix"/>
<feColorMatrix in="SourceAlpha" type="matrix" values="0 0 0 0 0 0 0 0 0 0 0 0 0 0 0 0 0 0 127 0" result="hardAlpha"/>
<feOffset/>
<feGaussianBlur stdDeviation="5.95559"/>
<feComposite in2="hardAlpha" operator="out"/>
<feColorMatrix type="matrix" values="0 0 0 0 0.568627 0 0 0 0 0.741176 0 0 0 0 0.866667 0 0 0 1 0"/>
<feBlend mode="normal" in2="BackgroundImageFix" result="effect1_dropShadow_202_3772"/>
<feColorMatrix in="SourceAlpha" type="matrix" values="0 0 0 0 0 0 0 0 0 0 0 0 0 0 0 0 0 0 127 0" result="hardAlpha"/>
<feOffset dy="2.38223"/>
<feGaussianBlur stdDeviation="2.97779"/>
<feComposite in2="hardAlpha" operator="out"/>
<feColorMatrix type="matrix" values="0 0 0 0 0 0 0 0 0 0 0 0 0 0 0 0 0 0 0.1 0"/>
<feBlend mode="normal" in2="effect1_dropShadow_202_3772" result="effect2_dropShadow_202_3772"/>
<feBlend mode="normal" in="SourceGraphic" in2="effect2_dropShadow_202_3772" result="shape"/>
</filter>
</defs>
</svg>
