<svg width="273" height="240" viewBox="0 0 273 240" fill="none" xmlns="http://www.w3.org/2000/svg">
<g filter="url(#filter0_dd_202_2716)">
<g filter="url(#filter1_dd_202_2716)">
<path d="M219.913 162.257L251.059 179.765" stroke="#9DAFCC" stroke-width="0.6" stroke-linejoin="round"/>
<path d="M225.072 165.159V183.939H228.508V167.085L225.072 165.159Z" fill="white" stroke="#9DAFCC" stroke-width="0.6" stroke-linejoin="round"/>
<path d="M232.624 169.404V188.179H236.06V171.329L232.624 169.404Z" fill="white" stroke="#9DAFCC" stroke-width="0.6" stroke-linejoin="round"/>
<path d="M240.177 173.644V191.836H243.609V175.574L240.177 173.644Z" fill="white" stroke="#9DAFCC" stroke-width="0.6" stroke-linejoin="round"/>
<path d="M245.949 191.491L222.669 178.409H214.361V198.982H254.725V191.491H245.949Z" fill="#E4EBF5" stroke="#9DAFCC" stroke-width="0.6" stroke-linejoin="round"/>
<path d="M253.003 177.804H247.729V191.491H253.003V177.804Z" fill="white" stroke="#9DAFCC" stroke-width="0.6" stroke-linejoin="round"/>
<path d="M254.725 188.696H246.011V191.491H254.725V188.696Z" fill="white" stroke="#9DAFCC" stroke-width="0.6" stroke-linejoin="round"/>
<path d="M147.056 162.257L115.91 179.765" stroke="#9DAFCC" stroke-width="0.6" stroke-linejoin="round"/>
<path d="M141.897 165.159V183.939H138.461V167.085L141.897 165.159Z" fill="white" stroke="#9DAFCC" stroke-width="0.6" stroke-linejoin="round"/>
<path d="M134.345 169.404V188.179H130.908V171.329L134.345 169.404Z" fill="white" stroke="#9DAFCC" stroke-width="0.6" stroke-linejoin="round"/>
<path d="M126.792 173.644V191.836H123.36V175.574L126.792 173.644Z" fill="white" stroke="#9DAFCC" stroke-width="0.6" stroke-linejoin="round"/>
<path d="M121.02 191.491L144.3 178.409H152.608V198.982H112.244V191.491H121.02Z" fill="#E4EBF5" stroke="#9DAFCC" stroke-width="0.6" stroke-linejoin="round"/>
<path d="M113.966 191.491H119.24V177.804H113.966V191.491Z" fill="white" stroke="#9DAFCC" stroke-width="0.6" stroke-linejoin="round"/>
<path d="M112.244 191.491H120.958V188.696H112.244V191.491Z" fill="white" stroke="#9DAFCC" stroke-width="0.6" stroke-linejoin="round"/>
<path d="M214.366 178.409H152.608V198.982H214.366V178.409Z" fill="white" stroke="#9DAFCC" stroke-width="0.6" stroke-linejoin="round"/>
<path d="M220.955 131.014H215.682V178.409H220.955V131.014Z" fill="white" stroke="#9DAFCC" stroke-width="0.6" stroke-linejoin="round"/>
<path d="M222.678 175.613H213.964V178.409H222.678V175.613Z" fill="white" stroke="#9DAFCC" stroke-width="0.6" stroke-linejoin="round"/>
<path d="M222.678 128.214H213.964V131.009H222.678V128.214Z" fill="white" stroke="#9DAFCC" stroke-width="0.6" stroke-linejoin="round"/>
<path d="M215.488 133.788H220.761" stroke="#9DAFCC" stroke-width="0.6" stroke-linejoin="round"/>
<path d="M151.287 131.014H146.013V178.409H151.287V131.014Z" fill="white" stroke="#9DAFCC" stroke-width="0.6" stroke-linejoin="round"/>
<path d="M153.014 175.613H144.3V178.409H153.014V175.613Z" fill="white" stroke="#9DAFCC" stroke-width="0.6" stroke-linejoin="round"/>
<path d="M153.014 128.214H144.3V131.009H153.014V128.214Z" fill="white" stroke="#9DAFCC" stroke-width="0.6" stroke-linejoin="round"/>
<path d="M145.824 133.788H151.097" stroke="#9DAFCC" stroke-width="0.6" stroke-linejoin="round"/>
<path d="M174.51 131.014H169.236V162.765H174.51V131.014Z" fill="white" stroke="#9DAFCC" stroke-width="0.6" stroke-linejoin="round"/>
<path d="M176.232 128.214H167.518V131.009H176.232V128.214Z" fill="white" stroke="#9DAFCC" stroke-width="0.6" stroke-linejoin="round"/>
<path d="M169.046 133.788H174.32" stroke="#9DAFCC" stroke-width="0.6" stroke-linejoin="round"/>
<path d="M197.733 131.014H192.459V162.765H197.733V131.014Z" fill="white" stroke="#9DAFCC" stroke-width="0.6" stroke-linejoin="round"/>
<path d="M199.455 128.214H190.741V131.009H199.455V128.214Z" fill="white" stroke="#9DAFCC" stroke-width="0.6" stroke-linejoin="round"/>
<path d="M192.265 133.788H197.543" stroke="#9DAFCC" stroke-width="0.6" stroke-linejoin="round"/>
<path d="M215.682 162.765H151.292V165.561H215.682V162.765Z" fill="white" stroke="#9DAFCC" stroke-width="0.6" stroke-linejoin="round"/>
<path d="M158.826 165.561H155.395V178.409H158.826V165.561Z" fill="white" stroke="#9DAFCC" stroke-width="0.6" stroke-linejoin="round"/>
<path d="M166.361 165.561H162.929V178.409H166.361V165.561Z" fill="white" stroke="#9DAFCC" stroke-width="0.6" stroke-linejoin="round"/>
<path d="M173.896 165.561H170.464V178.409H173.896V165.561Z" fill="white" stroke="#9DAFCC" stroke-width="0.6" stroke-linejoin="round"/>
<path d="M181.431 165.561H177.999V178.409H181.431V165.561Z" fill="white" stroke="#9DAFCC" stroke-width="0.6" stroke-linejoin="round"/>
<path d="M188.97 165.561H185.538V178.409H188.97V165.561Z" fill="white" stroke="#9DAFCC" stroke-width="0.6" stroke-linejoin="round"/>
<path d="M196.505 165.561H193.073V178.409H196.505V165.561Z" fill="white" stroke="#9DAFCC" stroke-width="0.6" stroke-linejoin="round"/>
<path d="M204.04 165.561H200.608V178.409H204.04V165.561Z" fill="white" stroke="#9DAFCC" stroke-width="0.6" stroke-linejoin="round"/>
<path d="M211.575 165.561H208.143V178.409H211.575V165.561Z" fill="white" stroke="#9DAFCC" stroke-width="0.6" stroke-linejoin="round"/>
<path d="M224.325 119.085H142.644V128.218H224.325V119.085Z" fill="white" stroke="#9DAFCC" stroke-width="0.6" stroke-linejoin="round"/>
<path d="M151.132 112.857L134.344 119.084H232.624L215.836 112.857H151.132Z" fill="#365DA0" stroke="#9DAFCC" stroke-width="0.6" stroke-linejoin="round"/>
<path d="M215.837 106.784H151.133V112.857H215.837V106.784Z" fill="#E4EBF5" stroke="#9DAFCC" stroke-width="0.6" stroke-linejoin="round"/>
<path d="M142.767 124.208H224.449" stroke="#9DAFCC" stroke-width="0.6" stroke-linejoin="round"/>
<path d="M207.242 106.784C204.353 99.1874 194.813 93.6047 183.485 93.6047C172.156 93.6047 162.616 99.1874 159.727 106.784H207.242Z" fill="#365DA0" stroke="#9DAFCC" stroke-width="0.6" stroke-linejoin="round"/>
<path d="M139.128 120.604H136.089" stroke="#9DAFCC" stroke-width="0.6" stroke-linejoin="round"/>
<path d="M230.88 120.604H227.841" stroke="#9DAFCC" stroke-width="0.6" stroke-linejoin="round"/>
<path d="M149.021 120.604H145.983" stroke="#9DAFCC" stroke-width="0.6" stroke-linejoin="round"/>
<path d="M155.001 120.604H151.958" stroke="#9DAFCC" stroke-width="0.6" stroke-linejoin="round"/>
<path d="M160.977 120.604H157.938" stroke="#9DAFCC" stroke-width="0.6" stroke-linejoin="round"/>
<path d="M166.953 120.604H163.914" stroke="#9DAFCC" stroke-width="0.6" stroke-linejoin="round"/>
<path d="M172.933 120.604H169.89" stroke="#9DAFCC" stroke-width="0.6" stroke-linejoin="round"/>
<path d="M178.909 120.604H175.87" stroke="#9DAFCC" stroke-width="0.6" stroke-linejoin="round"/>
<path d="M184.889 120.604H181.846" stroke="#9DAFCC" stroke-width="0.6" stroke-linejoin="round"/>
<path d="M190.865 120.604H187.826" stroke="#9DAFCC" stroke-width="0.6" stroke-linejoin="round"/>
<path d="M196.84 120.604H193.802" stroke="#9DAFCC" stroke-width="0.6" stroke-linejoin="round"/>
<path d="M202.821 120.604H199.778" stroke="#9DAFCC" stroke-width="0.6" stroke-linejoin="round"/>
<path d="M208.796 120.604H205.758" stroke="#9DAFCC" stroke-width="0.6" stroke-linejoin="round"/>
<path d="M214.776 120.604H211.733" stroke="#9DAFCC" stroke-width="0.6" stroke-linejoin="round"/>
<path d="M220.752 120.577H217.714" stroke="#9DAFCC" stroke-width="0.6" stroke-linejoin="round"/>
<path d="M109.011 109.129H17.4001V146.83H109.011V109.129Z" fill="#F25451" stroke="#9DAFCC" stroke-width="0.6" stroke-linecap="round" stroke-linejoin="round"/>
<path d="M33.2517 85.7607H93.1726L91.1807 90.3982H35.2436L33.2517 85.7607Z" fill="white" stroke="#9DAFCC" stroke-width="0.6" stroke-linecap="round" stroke-linejoin="round"/>
<path d="M91.1761 90.4027H35.2434V140.011H91.1761V90.4027Z" fill="#E4EBF5" stroke="#9DAFCC" stroke-width="0.6" stroke-linecap="round" stroke-linejoin="round"/>
<path d="M41.9744 95.261C41.2368 95.2632 40.5302 95.5578 40.0094 96.0803C39.4887 96.6028 39.1963 97.3103 39.1963 98.0479V109.129H44.7613V98.0479C44.7613 97.3086 44.4677 96.5997 43.945 96.0772C43.4224 95.5547 42.7135 95.261 41.9744 95.261Z" fill="#365DA0" stroke="#9DAFCC" stroke-width="0.6" stroke-miterlimit="10" stroke-linecap="round"/>
<path d="M84.4495 95.261C83.7106 95.261 83.0017 95.5547 82.4788 96.0772C81.9563 96.5997 81.6626 97.3086 81.6626 98.0479V109.129H87.2408V98.0479C87.2408 97.6813 87.1688 97.3187 87.0284 96.9804C86.8879 96.6421 86.6821 96.3347 86.4229 96.0759C86.1636 95.817 85.8562 95.6117 85.5174 95.4717C85.1787 95.3321 84.8161 95.2605 84.4495 95.261Z" fill="#365DA0" stroke="#9DAFCC" stroke-width="0.6" stroke-miterlimit="10" stroke-linecap="round"/>
<path d="M63.2144 45.6838L33.2517 85.7607H93.1726L63.2144 45.6838Z" fill="#F25451" stroke="#9DAFCC" stroke-width="0.6" stroke-linecap="round" stroke-linejoin="round"/>
<path d="M91.1805 117.941H35.2434" stroke="#9DAFCC" stroke-width="0.6" stroke-linejoin="round"/>
<path d="M20.3638 198.982H106.06V150.575L63.2143 116.691L20.3638 150.575V198.982Z" fill="#E4EBF5" stroke="#9DAFCC" stroke-width="0.6" stroke-linecap="round" stroke-linejoin="round"/>
<path d="M109.024 146.83L63.2318 110.618L63.2142 110.6V110.605L63.2098 110.6L63.1921 110.618L17.4001 146.83L20.3637 150.575L63.2142 116.691L106.06 150.575L109.024 146.83Z" fill="#F25451" stroke="#9DAFCC" stroke-width="0.6" stroke-linecap="round" stroke-linejoin="round"/>
<path d="M106.06 190.012H20.3638V198.982H106.06V190.012Z" fill="#365DA0" stroke="#9DAFCC" stroke-width="0.6" stroke-linecap="round" stroke-linejoin="round"/>
<path d="M77.7231 97.7123H48.7012V138.169H77.7231V97.7123Z" fill="#E4EBF5" stroke="#9DAFCC" stroke-width="0.6" stroke-linecap="round" stroke-linejoin="round"/>
<path d="M70.864 97.7123H55.5647V138.169H70.864V97.7123Z" fill="#E4EBF5" stroke="#9DAFCC" stroke-width="0.6" stroke-linecap="round" stroke-linejoin="round"/>
<path d="M63.2141 102.553C62.7217 102.553 62.234 102.65 61.7791 102.838C61.3242 103.027 60.9108 103.303 60.5628 103.651C60.2143 103.999 59.9383 104.413 59.7497 104.868C59.5615 105.323 59.4644 105.81 59.4644 106.303V117.941H66.9727V106.303C66.9727 105.809 66.8755 105.321 66.6865 104.865C66.4975 104.41 66.2205 103.996 65.8712 103.648C65.5223 103.3 65.108 103.024 64.6517 102.836C64.1959 102.648 63.7075 102.552 63.2141 102.553Z" fill="#365DA0" stroke="#9DAFCC" stroke-width="0.6" stroke-miterlimit="10" stroke-linecap="round"/>
<path d="M48.7012 121.337H77.7231" stroke="#9DAFCC" stroke-width="0.6" stroke-linejoin="round"/>
<path d="M48.7012 129.362H77.7231" stroke="#9DAFCC" stroke-width="0.6" stroke-linejoin="round"/>
<path d="M74.2471 102.553V117.941" stroke="#9DAFCC" stroke-width="0.6" stroke-linecap="round" stroke-linejoin="round"/>
<path d="M52.177 102.553V117.941" stroke="#9DAFCC" stroke-width="0.6" stroke-linecap="round" stroke-linejoin="round"/>
<path d="M80.956 198.982H45.468V144.732L63.2142 130.643L80.956 144.732V198.982Z" fill="#E4EBF5" stroke="#9DAFCC" stroke-width="0.6" stroke-linecap="round" stroke-linejoin="round"/>
<path d="M83.9947 140.987L63.2143 124.557L42.4338 140.987L45.393 144.732L63.2143 130.643L81.0311 144.732L83.9947 140.987Z" fill="#F25451" stroke="#9DAFCC" stroke-width="0.6" stroke-linecap="round" stroke-linejoin="round"/>
<path d="M98.9231 159.7V174.553" stroke="#365DA0" stroke-width="0.6" stroke-linejoin="round"/>
<path d="M98.9231 155.849V157.744" stroke="white" stroke-width="0.6" stroke-linejoin="round"/>
<path d="M98.9231 176.514V178.409" stroke="white" stroke-width="0.6" stroke-linejoin="round"/>
<path d="M27.5012 159.7V174.553" stroke="#365DA0" stroke-width="0.6" stroke-linejoin="round"/>
<path d="M27.5012 155.849V157.744" stroke="white" stroke-width="0.6" stroke-linejoin="round"/>
<path d="M27.5012 176.514V178.409" stroke="white" stroke-width="0.6" stroke-linejoin="round"/>
<path d="M92.3069 153.097H80.9561V198.982H92.3069V153.097Z" fill="#E4EBF5" stroke="#9DAFCC" stroke-width="0.6" stroke-linecap="round" stroke-linejoin="round"/>
<path d="M94.8641 153.097H80.9561V144.732L94.8641 153.097Z" fill="#F25451" stroke="#9DAFCC" stroke-width="0.6" stroke-linecap="round" stroke-linejoin="round"/>
<path d="M85.7659 164.519V188.258V164.519Z" fill="#365DA0"/>
<path d="M85.7659 164.519V188.258" stroke="#365DA0" stroke-width="0.6" stroke-linejoin="round"/>
<path d="M85.7659 159.74V162.765" stroke="white" stroke-width="0.6" stroke-linejoin="round"/>
<path d="M85.7659 190.012V193.042" stroke="white" stroke-width="0.6" stroke-linejoin="round"/>
<path d="M34.1172 198.982H45.468V153.097H34.1172V198.982Z" fill="#E4EBF5" stroke="#9DAFCC" stroke-width="0.6" stroke-linecap="round" stroke-linejoin="round"/>
<path d="M31.5601 153.097H45.4681V144.732L31.5601 153.097Z" fill="#F25451" stroke="#9DAFCC" stroke-width="0.6" stroke-linecap="round" stroke-linejoin="round"/>
<path d="M40.6584 164.519V188.258V164.519Z" fill="#365DA0"/>
<path d="M40.6584 164.519V188.258" stroke="#365DA0" stroke-width="0.6" stroke-linejoin="round"/>
<path d="M40.6584 159.74V162.765" stroke="white" stroke-width="0.6" stroke-linejoin="round"/>
<path d="M40.6584 190.012V193.042" stroke="white" stroke-width="0.6" stroke-linejoin="round"/>
<path d="M45.468 195.351H80.956" stroke="#9DAFCC" stroke-width="0.6" stroke-linecap="round" stroke-linejoin="round"/>
<path d="M65.8201 138.169H60.6084V148.915H65.8201V138.169Z" fill="white" stroke="#9DAFCC" stroke-width="0.6" stroke-linecap="round" stroke-linejoin="round"/>
<path d="M63.2142 153.261C61.8164 153.261 60.4322 153.536 59.1407 154.071C57.8493 154.606 56.6762 155.39 55.6878 156.378C54.6993 157.367 53.9154 158.54 53.3801 159.831C52.8452 161.123 52.5701 162.507 52.5701 163.905V195.351H73.854V163.905C73.854 161.083 72.733 158.376 70.738 156.38C68.7426 154.384 66.0365 153.262 63.2142 153.261Z" fill="white" stroke="#9DAFCC" stroke-width="0.6" stroke-linecap="round" stroke-linejoin="round"/>
<path d="M63.2141 159.74C61.8993 159.74 60.6383 160.261 59.7068 161.189C58.7758 162.117 58.2502 163.376 58.2454 164.691V195.338H68.1784V164.691C68.1749 163.377 67.6502 162.117 66.7196 161.189C65.789 160.261 64.5285 159.74 63.2141 159.74Z" fill="#365DA0" stroke="#9DAFCC" stroke-width="0.6" stroke-linecap="round" stroke-linejoin="round"/>
<path d="M77.7229 97.7123H48.701L46.6738 92.8054H79.7502L77.7229 97.7123Z" fill="white" stroke="#9DAFCC" stroke-width="0.6" stroke-linecap="round" stroke-linejoin="round"/>
<path d="M63.2142 70.8766L46.6738 92.8053H79.7502L63.2142 70.8766Z" fill="#F25451" stroke="#9DAFCC" stroke-width="0.6" stroke-linecap="round" stroke-linejoin="round"/>
<path d="M80.9604 195.351H45.468V198.982H80.9604V195.351Z" fill="#365DA0" stroke="#9DAFCC" stroke-width="0.6" stroke-miterlimit="10" stroke-linecap="round"/>
<path d="M63.2141 45.6839V35" stroke="#9DAFCC" stroke-width="0.6" stroke-linejoin="round"/>
<path d="M66.2793 39.0146H60.1445" stroke="#9DAFCC" stroke-width="0.6" stroke-linejoin="round"/>
<path d="M63.2141 70.8766V60.1882" stroke="#9DAFCC" stroke-width="0.6" stroke-linejoin="round"/>
<path d="M66.2793 64.2029H60.1445" stroke="#9DAFCC" stroke-width="0.6" stroke-linejoin="round"/>
</g>
</g>
<defs>
<filter id="filter0_dd_202_2716" x="-11.9112" y="-11.9112" width="296.822" height="263.822" filterUnits="userSpaceOnUse" color-interpolation-filters="sRGB">
<feFlood flood-opacity="0" result="BackgroundImageFix"/>
<feColorMatrix in="SourceAlpha" type="matrix" values="0 0 0 0 0 0 0 0 0 0 0 0 0 0 0 0 0 0 127 0" result="hardAlpha"/>
<feOffset/>
<feGaussianBlur stdDeviation="5.95559"/>
<feComposite in2="hardAlpha" operator="out"/>
<feColorMatrix type="matrix" values="0 0 0 0 0.568627 0 0 0 0 0.741176 0 0 0 0 0.866667 0 0 0 1 0"/>
<feBlend mode="normal" in2="BackgroundImageFix" result="effect1_dropShadow_202_2716"/>
<feColorMatrix in="SourceAlpha" type="matrix" values="0 0 0 0 0 0 0 0 0 0 0 0 0 0 0 0 0 0 127 0" result="hardAlpha"/>
<feOffset dy="2.38223"/>
<feGaussianBlur stdDeviation="2.97779"/>
<feComposite in2="hardAlpha" operator="out"/>
<feColorMatrix type="matrix" values="0 0 0 0 0 0 0 0 0 0 0 0 0 0 0 0 0 0 0.1 0"/>
<feBlend mode="normal" in2="effect1_dropShadow_202_2716" result="effect2_dropShadow_202_2716"/>
<feBlend mode="normal" in="SourceGraphic" in2="effect2_dropShadow_202_2716" result="shape"/>
</filter>
<filter id="filter1_dd_202_2716" x="5.18899" y="23.0888" width="261.747" height="188.104" filterUnits="userSpaceOnUse" color-interpolation-filters="sRGB">
<feFlood flood-opacity="0" result="BackgroundImageFix"/>
<feColorMatrix in="SourceAlpha" type="matrix" values="0 0 0 0 0 0 0 0 0 0 0 0 0 0 0 0 0 0 127 0" result="hardAlpha"/>
<feOffset/>
<feGaussianBlur stdDeviation="5.95559"/>
<feComposite in2="hardAlpha" operator="out"/>
<feColorMatrix type="matrix" values="0 0 0 0 0.568627 0 0 0 0 0.741176 0 0 0 0 0.866667 0 0 0 1 0"/>
<feBlend mode="normal" in2="BackgroundImageFix" result="effect1_dropShadow_202_2716"/>
<feColorMatrix in="SourceAlpha" type="matrix" values="0 0 0 0 0 0 0 0 0 0 0 0 0 0 0 0 0 0 127 0" result="hardAlpha"/>
<feOffset dy="2.38223"/>
<feGaussianBlur stdDeviation="2.97779"/>
<feComposite in2="hardAlpha" operator="out"/>
<feColorMatrix type="matrix" values="0 0 0 0 0 0 0 0 0 0 0 0 0 0 0 0 0 0 0.1 0"/>
<feBlend mode="normal" in2="effect1_dropShadow_202_2716" result="effect2_dropShadow_202_2716"/>
<feBlend mode="normal" in="SourceGraphic" in2="effect2_dropShadow_202_2716" result="shape"/>
</filter>
</defs>
</svg>
