<svg width="273" height="240" viewBox="0 0 273 240" fill="none" xmlns="http://www.w3.org/2000/svg">
<g filter="url(#filter0_dd_202_3315)">
<g filter="url(#filter1_dd_202_3315)">
<path d="M113.391 87.1093H34.6396V92.9615H113.391V87.1093Z" fill="#F25451" stroke="#9DAFCC" stroke-width="0.6" stroke-linecap="round" stroke-linejoin="round"/>
<path d="M115.214 119.081H32.8162V162.585H115.214V119.081Z" fill="white" stroke="#9DAFCC" stroke-width="0.6" stroke-linecap="round" stroke-linejoin="round"/>
<path d="M113.438 95.6929H34.5928V119.081H113.438V95.6929Z" fill="white" stroke="#9DAFCC" stroke-width="0.6" stroke-linecap="round" stroke-linejoin="round"/>
<path d="M113.438 106.147H34.5928" stroke="#9DAFCC" stroke-width="0.6" stroke-linecap="round" stroke-linejoin="round"/>
<path d="M115.283 95.6929H32.7476V106.147H115.283V95.6929Z" fill="white" stroke="#9DAFCC" stroke-width="0.6" stroke-linecap="round" stroke-linejoin="round"/>
<path d="M115.249 91.9127H32.7817V95.6886H115.249V91.9127Z" fill="#F25451" stroke="#9DAFCC" stroke-width="0.6" stroke-linecap="round" stroke-linejoin="round"/>
<path d="M32.7476 102.337H37.1186C37.6473 101.063 38.5417 99.9744 39.6888 99.2085C40.836 98.4426 42.1844 98.0338 43.5638 98.0338C44.9431 98.0338 46.2915 98.4426 47.4386 99.2085C48.586 99.9744 49.4803 101.063 50.009 102.337H51.9141C52.2454 100.867 53.0674 99.5531 54.2447 98.6122C55.422 97.6707 56.884 97.1579 58.3914 97.1579C59.8983 97.1579 61.3607 97.6707 62.538 98.6122C63.7154 99.5531 64.5369 100.867 64.8687 102.337H67.0777C67.0777 102.166 67.052 101.995 67.052 101.819C67.097 100.01 67.847 98.2902 69.1425 97.0269C70.438 95.7635 72.1757 95.0563 73.9853 95.0563C75.7949 95.0563 77.5326 95.7635 78.8281 97.0269C80.1235 98.2902 80.8736 100.01 80.9185 101.819C80.9185 101.995 80.9185 102.166 80.8928 102.337H83.1019C83.4332 100.867 84.2552 99.5531 85.4325 98.6122C86.6098 97.6707 88.0718 97.1579 89.5792 97.1579C91.0861 97.1579 92.5486 97.6707 93.7259 98.6122C94.9032 99.5531 95.7247 100.867 96.0565 102.337H97.9659C98.4937 101.063 99.3876 99.9735 100.535 99.2072C101.681 98.4409 103.03 98.0321 104.409 98.0321C105.788 98.0321 107.136 98.4409 108.283 99.2072C109.43 99.9735 110.324 101.063 110.852 102.337H115.283V106.147H32.7476V102.337Z" fill="white" stroke="#9DAFCC" stroke-width="0.6" stroke-linecap="round" stroke-linejoin="round"/>
<path d="M104.439 101.631C103.543 101.631 102.684 101.987 102.05 102.62C101.417 103.254 101.061 104.113 101.061 105.009V119.081H107.812V105.017C107.814 104.573 107.728 104.133 107.559 103.722C107.391 103.312 107.142 102.938 106.829 102.624C106.516 102.309 106.143 102.059 105.733 101.889C105.323 101.719 104.883 101.631 104.439 101.631Z" fill="#365DA0" stroke="#9DAFCC" stroke-width="0.6" stroke-linecap="round" stroke-linejoin="round"/>
<path d="M89.6092 100.141C88.6374 100.141 87.7054 100.527 87.0179 101.214C86.3307 101.901 85.9446 102.834 85.9446 103.806V119.081H93.2567V103.806C93.2567 102.837 92.8731 101.907 92.1894 101.22C91.5057 100.534 90.578 100.146 89.6092 100.141Z" fill="#365DA0" stroke="#9DAFCC" stroke-width="0.6" stroke-linecap="round" stroke-linejoin="round"/>
<path d="M74.0131 97.6793C73.4694 97.6793 72.9313 97.7864 72.4291 97.9944C71.9265 98.2025 71.4701 98.5073 71.0857 98.8917C70.7013 99.2762 70.3964 99.7325 70.1884 100.235C69.9803 100.737 69.8733 101.275 69.8733 101.819V119.081H78.1572V101.819C78.1572 101.275 78.0502 100.736 77.8417 100.234C77.6332 99.7313 77.328 99.2749 76.9431 98.8904C76.5582 98.506 76.1014 98.2012 75.5988 97.9931C75.0958 97.7855 74.5572 97.6789 74.0131 97.6793Z" fill="#365DA0" stroke="#9DAFCC" stroke-width="0.6" stroke-linecap="round" stroke-linejoin="round"/>
<path d="M43.5961 101.631C43.1516 101.63 42.7114 101.717 42.3008 101.888C41.8901 102.058 41.5172 102.307 41.2033 102.622C40.8894 102.937 40.6408 103.31 40.4718 103.721C40.3027 104.132 40.2166 104.573 40.2183 105.017V119.089H46.9652V105.017C46.9669 104.573 46.8813 104.134 46.7126 103.723C46.5441 103.313 46.2963 102.94 45.9833 102.625C45.6703 102.31 45.2983 102.061 44.8887 101.89C44.4791 101.719 44.0398 101.631 43.5961 101.631Z" fill="#365DA0" stroke="#9DAFCC" stroke-width="0.6" stroke-linecap="round" stroke-linejoin="round"/>
<path d="M58.4212 100.141C57.4494 100.141 56.5174 100.527 55.8299 101.214C55.1427 101.901 54.7566 102.834 54.7566 103.806V119.081H62.0858V103.806C62.0858 102.834 61.6997 101.901 61.0126 101.214C60.3254 100.527 59.393 100.141 58.4212 100.141Z" fill="#365DA0" stroke="#9DAFCC" stroke-width="0.6" stroke-linecap="round" stroke-linejoin="round"/>
<path d="M40.218 115.048H46.965" stroke="#9DAFCC" stroke-width="0.6" stroke-linecap="round" stroke-linejoin="round"/>
<path d="M54.7566 115.048H62.0858" stroke="#9DAFCC" stroke-width="0.6" stroke-linecap="round" stroke-linejoin="round"/>
<path d="M85.9446 115.048H93.2738" stroke="#9DAFCC" stroke-width="0.6" stroke-linecap="round" stroke-linejoin="round"/>
<path d="M101.061 115.048H107.812" stroke="#9DAFCC" stroke-width="0.6" stroke-linecap="round" stroke-linejoin="round"/>
<path d="M69.8733 115.048H78.1572" stroke="#9DAFCC" stroke-width="0.6" stroke-linecap="round" stroke-linejoin="round"/>
<path d="M109.281 123.734H102.538V130.477H109.281V123.734Z" stroke="#9DAFCC" stroke-width="0.6" stroke-linecap="round" stroke-linejoin="round"/>
<path d="M105.907 123.734V126.358" stroke="#9DAFCC" stroke-width="0.6" stroke-linejoin="round"/>
<path d="M96.5359 123.734H89.7932V130.477H96.5359V123.734Z" stroke="#9DAFCC" stroke-width="0.6" stroke-linecap="round" stroke-linejoin="round"/>
<path d="M93.1667 123.734V126.358" stroke="#9DAFCC" stroke-width="0.6" stroke-linejoin="round"/>
<path d="M83.7913 123.734H77.0486V130.477H83.7913V123.734Z" stroke="#9DAFCC" stroke-width="0.6" stroke-linecap="round" stroke-linejoin="round"/>
<path d="M80.4219 123.734V126.358" stroke="#9DAFCC" stroke-width="0.6" stroke-linejoin="round"/>
<path d="M71.0462 123.734H64.3035V130.477H71.0462V123.734Z" stroke="#9DAFCC" stroke-width="0.6" stroke-linecap="round" stroke-linejoin="round"/>
<path d="M67.677 123.734V126.358" stroke="#9DAFCC" stroke-width="0.6" stroke-linejoin="round"/>
<path d="M58.3057 123.734H51.563V130.477H58.3057V123.734Z" stroke="#9DAFCC" stroke-width="0.6" stroke-linecap="round" stroke-linejoin="round"/>
<path d="M54.9321 123.734V126.358" stroke="#9DAFCC" stroke-width="0.6" stroke-linejoin="round"/>
<path d="M45.5608 123.734H38.8181V130.477H45.5608V123.734Z" stroke="#9DAFCC" stroke-width="0.6" stroke-linecap="round" stroke-linejoin="round"/>
<path d="M42.1875 123.734V126.358" stroke="#9DAFCC" stroke-width="0.6" stroke-linejoin="round"/>
<path d="M74.0132 80.5292C74.0132 80.5292 78.3927 80.8631 79.4074 78.2645C80.422 75.6659 80.422 74.3131 79.8826 72.4893C79.3431 70.6656 78.3285 70.1946 77.2026 69.3855C76.0767 68.5764 75.5586 67.763 74.0132 65.2628C72.472 67.763 71.9497 68.5721 70.828 69.3855C69.7064 70.1989 68.6875 70.6698 68.1481 72.4893C67.6087 74.3088 67.6087 75.6616 68.6233 78.2645C69.6379 80.8674 74.0132 80.5292 74.0132 80.5292Z" fill="#E4EBF5" stroke="#9DAFCC" stroke-width="0.6" stroke-linecap="round" stroke-linejoin="round"/>
<path d="M79.1076 79.035H68.9229V91.9169H79.1076V79.035Z" fill="white" stroke="#9DAFCC" stroke-width="0.6" stroke-linecap="round" stroke-linejoin="round"/>
<path d="M72.3176 82.0105V91.9127" stroke="#9DAFCC" stroke-width="0.6" stroke-linejoin="round"/>
<path d="M75.7126 82.0105V91.9127" stroke="#9DAFCC" stroke-width="0.6" stroke-linejoin="round"/>
<path d="M74.0901 65.2628V52" stroke="#9DAFCC" stroke-width="0.6" stroke-linejoin="round"/>
<path d="M70.7166 56.5721H77.3137" stroke="#9DAFCC" stroke-width="0.6" stroke-linejoin="round"/>
<path d="M72.519 54.0164H75.6614" stroke="#9DAFCC" stroke-width="0.6" stroke-linejoin="round"/>
<path d="M72.2148 59.9414L75.9094 61.9535" stroke="#9DAFCC" stroke-width="0.6" stroke-linejoin="round"/>
<path d="M157.794 143.157H17.5496V182.008H157.794V143.157Z" fill="#F25451" stroke="#9DAFCC" stroke-width="0.6" stroke-linecap="round" stroke-linejoin="round"/>
<path d="M28.3208 136.072H21.2356V143.157H28.3208V136.072Z" fill="#F25451" stroke="#9DAFCC" stroke-width="0.6" stroke-linecap="round" stroke-linejoin="round"/>
<path d="M39.9014 136.072H32.8162V143.157H39.9014V136.072Z" fill="#F25451" stroke="#9DAFCC" stroke-width="0.6" stroke-linecap="round" stroke-linejoin="round"/>
<path d="M51.4817 136.072H44.3965V143.157H51.4817V136.072Z" fill="#F25451" stroke="#9DAFCC" stroke-width="0.6" stroke-linecap="round" stroke-linejoin="round"/>
<path d="M63.0664 136.072H55.9812V143.157H63.0664V136.072Z" fill="#F25451" stroke="#9DAFCC" stroke-width="0.6" stroke-linecap="round" stroke-linejoin="round"/>
<path d="M74.6468 136.072H67.5615V143.157H74.6468V136.072Z" fill="#F25451" stroke="#9DAFCC" stroke-width="0.6" stroke-linecap="round" stroke-linejoin="round"/>
<path d="M86.2271 136.072H79.1418V143.157H86.2271V136.072Z" fill="#F25451" stroke="#9DAFCC" stroke-width="0.6" stroke-linecap="round" stroke-linejoin="round"/>
<path d="M97.8118 136.072H90.7266V143.157H97.8118V136.072Z" fill="#F25451" stroke="#9DAFCC" stroke-width="0.6" stroke-linecap="round" stroke-linejoin="round"/>
<path d="M109.392 136.072H102.307V143.157H109.392V136.072Z" fill="#F25451" stroke="#9DAFCC" stroke-width="0.6" stroke-linecap="round" stroke-linejoin="round"/>
<path d="M120.977 136.072H113.892V143.157H120.977V136.072Z" fill="#F25451" stroke="#9DAFCC" stroke-width="0.6" stroke-linecap="round" stroke-linejoin="round"/>
<path d="M132.557 136.072H125.472V143.157H132.557V136.072Z" fill="#F25451" stroke="#9DAFCC" stroke-width="0.6" stroke-linecap="round" stroke-linejoin="round"/>
<path d="M144.137 136.072H137.052V143.157H144.137V136.072Z" fill="#F25451" stroke="#9DAFCC" stroke-width="0.6" stroke-linecap="round" stroke-linejoin="round"/>
<path d="M155.722 136.072H148.637V143.157H155.722V136.072Z" fill="#F25451" stroke="#9DAFCC" stroke-width="0.6" stroke-linecap="round" stroke-linejoin="round"/>
<path d="M137.352 108.074C128.756 108.074 121.786 103.917 121.786 96.0654C121.786 84.0783 133.028 84.164 137.352 74.7198C141.676 84.164 152.918 84.074 152.918 96.0654C152.935 103.917 145.966 108.074 137.352 108.074Z" fill="#E4EBF5" stroke="#9DAFCC" stroke-width="0.6" stroke-linecap="round" stroke-linejoin="round"/>
<path d="M137.446 74.7199V61.457" stroke="#9DAFCC" stroke-width="0.6" stroke-linejoin="round"/>
<path d="M134.073 66.0292H140.665" stroke="#9DAFCC" stroke-width="0.6" stroke-linejoin="round"/>
<path d="M135.871 63.4733H139.017" stroke="#9DAFCC" stroke-width="0.6" stroke-linejoin="round"/>
<path d="M135.567 69.3983L139.266 71.4104" stroke="#9DAFCC" stroke-width="0.6" stroke-linejoin="round"/>
<path d="M194.068 96.8188C186.597 96.8188 180.544 93.2056 180.544 86.3858C180.544 75.9656 190.309 76.0427 194.068 67.8401C197.822 76.0427 207.588 75.9742 207.588 86.3858C207.588 93.2056 201.534 96.8188 194.068 96.8188Z" fill="#F25451" stroke="#9DAFCC" stroke-width="0.6" stroke-linecap="round" stroke-linejoin="round"/>
<path d="M206.954 91.7072H181.182V115.048H206.954V91.7072Z" fill="white" stroke="#9DAFCC" stroke-width="0.6" stroke-linecap="round" stroke-linejoin="round"/>
<path d="M181.182 103.026C181.182 101.888 181.634 100.796 182.439 99.9903C183.245 99.1851 184.337 98.7325 185.476 98.7325C186.614 98.7325 187.706 99.1851 188.512 99.9903C189.317 100.796 189.77 101.888 189.77 103.026" stroke="#9DAFCC" stroke-width="0.6" stroke-linecap="round" stroke-linejoin="round"/>
<path d="M189.77 103.026C189.77 101.887 190.222 100.794 191.028 99.9886C191.833 99.1829 192.926 98.7303 194.066 98.7303C195.205 98.7303 196.298 99.1829 197.103 99.9886C197.909 100.794 198.362 101.887 198.362 103.026" stroke="#9DAFCC" stroke-width="0.6" stroke-linecap="round" stroke-linejoin="round"/>
<path d="M198.362 103.026C198.362 101.888 198.814 100.796 199.62 99.9903C200.425 99.1851 201.517 98.7325 202.656 98.7325C203.795 98.7325 204.887 99.1851 205.692 99.9903C206.497 100.796 206.95 101.888 206.95 103.026" stroke="#9DAFCC" stroke-width="0.6" stroke-linecap="round" stroke-linejoin="round"/>
<path d="M181.182 95.192H206.95" stroke="#9DAFCC" stroke-width="0.6" stroke-linecap="round" stroke-linejoin="round"/>
<path d="M196.363 115.048V107.586C196.376 107.276 196.326 106.966 196.217 106.676C196.108 106.386 195.941 106.12 195.726 105.896C195.512 105.673 195.254 105.494 194.968 105.372C194.683 105.25 194.376 105.188 194.066 105.188C193.755 105.188 193.449 105.25 193.163 105.372C192.878 105.494 192.62 105.673 192.406 105.896C192.191 106.12 192.024 106.386 191.915 106.676C191.805 106.966 191.755 107.276 191.769 107.586V115.056L196.363 115.048Z" fill="#365DA0" stroke="#9DAFCC" stroke-width="0.6" stroke-linecap="round" stroke-linejoin="round"/>
<path d="M194.017 67.8401V54.5773" stroke="#9DAFCC" stroke-width="0.6" stroke-linejoin="round"/>
<path d="M190.647 59.1494H197.24" stroke="#9DAFCC" stroke-width="0.6" stroke-linejoin="round"/>
<path d="M192.445 56.5936H195.588" stroke="#9DAFCC" stroke-width="0.6" stroke-linejoin="round"/>
<path d="M192.141 62.5187L195.84 64.5308" stroke="#9DAFCC" stroke-width="0.6" stroke-linejoin="round"/>
<path d="M152.404 101.631H122.206V117.938H152.404V101.631Z" fill="white" stroke="#9DAFCC" stroke-width="0.6" stroke-linecap="round" stroke-linejoin="round"/>
<path d="M122.206 108.074C122.206 107.273 122.524 106.506 123.09 105.94C123.656 105.374 124.423 105.056 125.224 105.056C126.024 105.056 126.792 105.374 127.358 105.94C127.924 106.506 128.242 107.273 128.242 108.074" stroke="#9DAFCC" stroke-width="0.6" stroke-linecap="round" stroke-linejoin="round"/>
<path d="M128.242 108.074C128.226 107.668 128.293 107.263 128.438 106.883C128.583 106.503 128.803 106.156 129.085 105.863C129.367 105.571 129.705 105.338 130.079 105.179C130.453 105.02 130.856 104.938 131.262 104.938C131.669 104.938 132.071 105.02 132.445 105.179C132.819 105.338 133.157 105.571 133.439 105.863C133.721 106.156 133.941 106.503 134.086 106.883C134.231 107.263 134.298 107.668 134.282 108.074" stroke="#9DAFCC" stroke-width="0.6" stroke-linecap="round" stroke-linejoin="round"/>
<path d="M134.282 108.074C134.267 107.668 134.334 107.263 134.479 106.883C134.624 106.503 134.844 106.156 135.126 105.863C135.408 105.571 135.746 105.338 136.12 105.179C136.494 105.02 136.896 104.938 137.303 104.938C137.709 104.938 138.111 105.02 138.486 105.179C138.86 105.338 139.198 105.571 139.48 105.863C139.762 106.156 139.982 106.503 140.127 106.883C140.272 107.263 140.338 107.668 140.323 108.074" stroke="#9DAFCC" stroke-width="0.6" stroke-linecap="round" stroke-linejoin="round"/>
<path d="M140.323 108.074C140.323 107.273 140.641 106.506 141.207 105.94C141.773 105.374 142.541 105.056 143.341 105.056C144.142 105.056 144.909 105.374 145.475 105.94C146.041 106.506 146.359 107.273 146.359 108.074" stroke="#9DAFCC" stroke-width="0.6" stroke-linecap="round" stroke-linejoin="round"/>
<path d="M146.342 108.074C146.327 107.668 146.394 107.263 146.539 106.883C146.683 106.503 146.904 106.156 147.186 105.863C147.467 105.571 147.806 105.338 148.18 105.179C148.554 105.02 148.956 104.938 149.363 104.938C149.769 104.938 150.171 105.02 150.545 105.179C150.92 105.338 151.257 105.571 151.54 105.863C151.822 106.156 152.042 106.503 152.186 106.883C152.332 107.263 152.398 107.668 152.383 108.074" stroke="#9DAFCC" stroke-width="0.6" stroke-linecap="round" stroke-linejoin="round"/>
<path d="M174.644 101.34C168.698 101.34 163.877 98.4584 163.877 93.03C163.877 84.7333 171.652 84.7932 174.644 78.2603C177.641 84.7932 185.411 84.7333 185.411 93.03C185.411 98.4584 180.591 101.34 174.644 101.34Z" fill="#E4EBF5" stroke="#9DAFCC" stroke-width="0.6" stroke-linecap="round" stroke-linejoin="round"/>
<path d="M184.906 97.2683H164.383V115.857H184.906V97.2683Z" fill="white" stroke="#9DAFCC" stroke-width="0.6" stroke-linecap="round" stroke-linejoin="round"/>
<path d="M164.383 106.301C164.383 105.393 164.744 104.522 165.386 103.88C166.028 103.237 166.899 102.876 167.808 102.876C168.716 102.876 169.587 103.237 170.23 103.88C170.872 104.522 171.233 105.393 171.233 106.301" stroke="#9DAFCC" stroke-width="0.6" stroke-linecap="round" stroke-linejoin="round"/>
<path d="M171.224 106.301C171.224 105.393 171.585 104.522 172.227 103.88C172.869 103.237 173.741 102.876 174.649 102.876C175.557 102.876 176.428 103.237 177.071 103.88C177.713 104.522 178.074 105.393 178.074 106.301" stroke="#9DAFCC" stroke-width="0.6" stroke-linecap="round" stroke-linejoin="round"/>
<path d="M178.065 106.301C178.065 105.393 178.426 104.522 179.068 103.88C179.71 103.237 180.582 102.876 181.49 102.876C182.399 102.876 183.269 103.237 183.912 103.88C184.554 104.522 184.915 105.393 184.915 106.301" stroke="#9DAFCC" stroke-width="0.6" stroke-linecap="round" stroke-linejoin="round"/>
<path d="M164.383 100.042H184.906" stroke="#9DAFCC" stroke-width="0.6" stroke-linecap="round" stroke-linejoin="round"/>
<path d="M176.472 115.857V109.906C176.472 109.422 176.28 108.956 175.937 108.614C175.594 108.271 175.13 108.078 174.644 108.078C174.16 108.078 173.695 108.271 173.352 108.614C173.009 108.956 172.816 109.422 172.816 109.906V115.857H176.472Z" fill="#365DA0" stroke="#9DAFCC" stroke-width="0.6" stroke-linecap="round" stroke-linejoin="round"/>
<path d="M174.717 78.3673V65.1002" stroke="#9DAFCC" stroke-width="0.6" stroke-linejoin="round"/>
<path d="M171.348 69.6724H177.941" stroke="#9DAFCC" stroke-width="0.6" stroke-linejoin="round"/>
<path d="M173.146 67.1166H176.293" stroke="#9DAFCC" stroke-width="0.6" stroke-linejoin="round"/>
<path d="M172.842 73.0458L176.541 75.0579" stroke="#9DAFCC" stroke-width="0.6" stroke-linejoin="round"/>
<path d="M213.984 101.34C208.037 101.34 203.217 98.4584 203.217 93.03C203.217 84.7333 210.991 84.7932 213.984 78.2603C216.981 84.7932 224.751 84.7333 224.751 93.03C224.746 98.4584 219.926 101.34 213.984 101.34Z" fill="#E4EBF5" stroke="#9DAFCC" stroke-width="0.6" stroke-linecap="round" stroke-linejoin="round"/>
<path d="M224.241 97.2683H203.718V115.857H224.241V97.2683Z" fill="white" stroke="#9DAFCC" stroke-width="0.6" stroke-linecap="round" stroke-linejoin="round"/>
<path d="M203.709 106.301C203.709 105.393 204.07 104.522 204.712 103.88C205.354 103.237 206.226 102.876 207.134 102.876C208.042 102.876 208.913 103.237 209.555 103.88C210.198 104.522 210.559 105.393 210.559 106.301" stroke="#9DAFCC" stroke-width="0.6" stroke-linecap="round" stroke-linejoin="round"/>
<path d="M210.559 106.301C210.559 105.393 210.919 104.522 211.562 103.88C212.204 103.237 213.075 102.876 213.983 102.876C214.892 102.876 215.763 103.237 216.405 103.88C217.047 104.522 217.408 105.393 217.408 106.301" stroke="#9DAFCC" stroke-width="0.6" stroke-linecap="round" stroke-linejoin="round"/>
<path d="M217.408 106.301C217.408 105.393 217.769 104.522 218.412 103.88C219.054 103.237 219.925 102.876 220.833 102.876C221.742 102.876 222.613 103.237 223.255 103.88C223.897 104.522 224.258 105.393 224.258 106.301" stroke="#9DAFCC" stroke-width="0.6" stroke-linecap="round" stroke-linejoin="round"/>
<path d="M203.718 100.042H224.241" stroke="#9DAFCC" stroke-width="0.6" stroke-linecap="round" stroke-linejoin="round"/>
<path d="M215.808 115.857V109.906C215.819 109.658 215.781 109.411 215.694 109.178C215.608 108.946 215.475 108.733 215.304 108.554C215.133 108.374 214.927 108.231 214.699 108.133C214.471 108.036 214.225 107.985 213.977 107.985C213.729 107.985 213.484 108.036 213.256 108.133C213.028 108.231 212.822 108.374 212.651 108.554C212.479 108.733 212.347 108.946 212.26 109.178C212.174 109.411 212.135 109.658 212.147 109.906V115.857H215.808Z" fill="#365DA0" stroke="#9DAFCC" stroke-width="0.6" stroke-linecap="round" stroke-linejoin="round"/>
<path d="M214.052 78.3673V65.1002" stroke="#9DAFCC" stroke-width="0.6" stroke-linejoin="round"/>
<path d="M210.683 69.6724H217.276" stroke="#9DAFCC" stroke-width="0.6" stroke-linejoin="round"/>
<path d="M212.481 67.1166H215.623" stroke="#9DAFCC" stroke-width="0.6" stroke-linejoin="round"/>
<path d="M212.177 73.0458L215.876 75.0579" stroke="#9DAFCC" stroke-width="0.6" stroke-linejoin="round"/>
<path d="M155.615 115.857H230.055C230.915 115.857 231.766 116.026 232.56 116.355C233.354 116.684 234.076 117.166 234.684 117.774C235.291 118.382 235.774 119.104 236.102 119.898C236.431 120.692 236.601 121.543 236.601 122.403V133.799H155.615V115.857Z" fill="#F25451" stroke="#9DAFCC" stroke-width="0.6" stroke-linecap="round" stroke-linejoin="round"/>
<path d="M209.352 120.904H155.615V128.833H209.352V120.904Z" fill="white" stroke="#9DAFCC" stroke-width="0.6" stroke-linecap="round" stroke-linejoin="round"/>
<path d="M239.418 136.072H203.726V182.008H239.418V136.072Z" fill="white" stroke="#9DAFCC" stroke-width="0.6" stroke-linecap="round" stroke-linejoin="round"/>
<path d="M209.352 136.072H203.726V182.008H209.352V136.072Z" stroke="#9DAFCC" stroke-width="0.6" stroke-linecap="round" stroke-linejoin="round"/>
<path d="M239.413 136.072H233.788V182.008H239.413V136.072Z" stroke="#9DAFCC" stroke-width="0.6" stroke-linecap="round" stroke-linejoin="round"/>
<path d="M218.384 173.018V162.696C218.398 162.389 218.349 162.082 218.24 161.794C218.132 161.505 217.966 161.242 217.753 161.019C217.54 160.797 217.284 160.62 217.001 160.499C216.718 160.378 216.413 160.316 216.105 160.316C215.797 160.316 215.492 160.378 215.209 160.499C214.926 160.62 214.67 160.797 214.457 161.019C214.244 161.242 214.078 161.505 213.969 161.794C213.861 162.082 213.812 162.389 213.825 162.696V173.018H218.384Z" fill="#365DA0" stroke="#9DAFCC" stroke-width="0.6" stroke-linecap="round" stroke-linejoin="round"/>
<path d="M239.418 177.051H203.726V182.008H239.418V177.051Z" fill="#E4EBF5" stroke="#9DAFCC" stroke-width="0.6" stroke-linecap="round" stroke-linejoin="round"/>
<path d="M209.352 136.072H203.726V141.085H209.352V136.072Z" fill="#E4EBF5" stroke="#9DAFCC" stroke-width="0.6" stroke-linecap="round" stroke-linejoin="round"/>
<path d="M239.413 136.072H233.788V141.085H239.413V136.072Z" fill="#E4EBF5" stroke="#9DAFCC" stroke-width="0.6" stroke-linecap="round" stroke-linejoin="round"/>
<path d="M155.217 117.938H119.525V136.072H155.217V117.938Z" fill="#F25451" stroke="#9DAFCC" stroke-width="0.6" stroke-linecap="round" stroke-linejoin="round"/>
<path d="M155.217 117.938H119.525V126.221H155.217V117.938Z" fill="white" stroke="#9DAFCC" stroke-width="0.6" stroke-linecap="round" stroke-linejoin="round"/>
<path d="M125.151 121.585H119.525V136.076H125.151V121.585Z" fill="#F25451" stroke="#9DAFCC" stroke-width="0.6" stroke-linecap="round" stroke-linejoin="round"/>
<path d="M155.213 121.585H149.587V136.076H155.213V121.585Z" fill="#F25451" stroke="#9DAFCC" stroke-width="0.6" stroke-linecap="round" stroke-linejoin="round"/>
<path d="M125.151 131.53H119.525V136.076H125.151V131.53Z" fill="white" stroke="#9DAFCC" stroke-width="0.6" stroke-linecap="round" stroke-linejoin="round"/>
<path d="M155.213 131.53H149.587V136.076H155.213V131.53Z" fill="white" stroke="#9DAFCC" stroke-width="0.6" stroke-linecap="round" stroke-linejoin="round"/>
<path d="M155.217 136.072H119.525V182.008H155.217V136.072Z" fill="white" stroke="#9DAFCC" stroke-width="0.6" stroke-linecap="round" stroke-linejoin="round"/>
<path d="M125.151 136.072H119.525V182.008H125.151V136.072Z" fill="white" stroke="#9DAFCC" stroke-width="0.6" stroke-linecap="round" stroke-linejoin="round"/>
<path d="M155.213 136.072H149.587V182.008H155.213V136.072Z" fill="white" stroke="#9DAFCC" stroke-width="0.6" stroke-linecap="round" stroke-linejoin="round"/>
<path d="M139.651 174.046V163.724C139.651 163.118 139.411 162.538 138.983 162.11C138.555 161.682 137.974 161.442 137.369 161.442C136.764 161.442 136.184 161.682 135.755 162.11C135.328 162.538 135.087 163.118 135.087 163.724V174.046H139.651Z" fill="#365DA0" stroke="#9DAFCC" stroke-width="0.6" stroke-linecap="round" stroke-linejoin="round"/>
<path d="M155.217 177.051H119.525V182.008H155.217V177.051Z" fill="#E4EBF5" stroke="#9DAFCC" stroke-width="0.6" stroke-linecap="round" stroke-linejoin="round"/>
<path d="M125.151 136.072H119.525V141.085H125.151V136.072Z" fill="#E4EBF5" stroke="#9DAFCC" stroke-width="0.6" stroke-linecap="round" stroke-linejoin="round"/>
<path d="M155.213 136.072H149.587V141.085H155.213V136.072Z" fill="#E4EBF5" stroke="#9DAFCC" stroke-width="0.6" stroke-linecap="round" stroke-linejoin="round"/>
<path d="M132.596 140.195H128.867V143.924H132.596V140.195Z" fill="#365DA0" stroke="#9DAFCC" stroke-width="0.6" stroke-linecap="round" stroke-linejoin="round"/>
<path d="M145.871 140.195H142.142V143.924H145.871V140.195Z" fill="#365DA0" stroke="#9DAFCC" stroke-width="0.6" stroke-linecap="round" stroke-linejoin="round"/>
<path d="M125.151 173.485V182.008" stroke="#9DAFCC" stroke-width="0.6" stroke-linecap="round" stroke-linejoin="round"/>
<path d="M149.587 171.819V182.008" stroke="#9DAFCC" stroke-width="0.6" stroke-linecap="round" stroke-linejoin="round"/>
<path d="M203.726 130.34H155.213V138.384H203.726V130.34Z" fill="#F25451" stroke="#9DAFCC" stroke-width="0.6" stroke-linecap="round" stroke-linejoin="round"/>
<path d="M184.405 136.466H155.213V182.013H184.405V136.466Z" fill="white" stroke="#9DAFCC" stroke-width="0.6" stroke-linecap="round" stroke-linejoin="round"/>
<path d="M174.645 142.37C177.106 142.37 179.101 140.374 179.101 137.913C179.101 135.452 177.106 133.456 174.645 133.456C172.183 133.456 170.188 135.452 170.188 137.913C170.188 140.374 172.183 142.37 174.645 142.37Z" stroke="#9DAFCC" stroke-width="0.6" stroke-linecap="round" stroke-linejoin="round"/>
<path d="M179.105 137.913H170.188V177.051H179.105V137.913Z" stroke="#9DAFCC" stroke-width="0.6" stroke-linecap="round" stroke-linejoin="round"/>
<path d="M159.674 133.456C158.491 133.456 157.357 133.926 156.521 134.761C155.684 135.597 155.214 136.731 155.213 137.913V177.051H164.13V137.913C164.13 136.731 163.661 135.597 162.825 134.762C161.989 133.926 160.856 133.456 159.674 133.456Z" fill="white" stroke="#9DAFCC" stroke-width="0.6" stroke-linecap="round" stroke-linejoin="round"/>
<path d="M159.674 161.207C159.156 161.207 158.659 161.412 158.293 161.778C157.927 162.145 157.721 162.641 157.721 163.159V173.005H161.622V163.159C161.622 162.642 161.416 162.146 161.051 161.78C160.686 161.414 160.191 161.208 159.674 161.207Z" fill="#365DA0" stroke="#9DAFCC" stroke-width="0.6" stroke-linecap="round" stroke-linejoin="round"/>
<path d="M161.506 143.919V138.298C161.506 137.812 161.313 137.346 160.97 137.003C160.626 136.659 160.16 136.466 159.674 136.466C159.188 136.466 158.722 136.659 158.378 137.003C158.034 137.346 157.841 137.812 157.841 138.298V143.919H161.506Z" fill="#365DA0" stroke="#9DAFCC" stroke-width="0.6" stroke-linecap="round" stroke-linejoin="round"/>
<path d="M159.674 152.914V157.285" stroke="#9DAFCC" stroke-width="0.6" stroke-linecap="round" stroke-linejoin="round"/>
<path d="M174.268 133.456C173.086 133.456 171.952 133.926 171.117 134.762C170.281 135.597 169.811 136.731 169.811 137.913V177.051H178.725V137.913C178.725 136.731 178.255 135.597 177.419 134.762C176.584 133.926 175.45 133.456 174.268 133.456Z" fill="white" stroke="#9DAFCC" stroke-width="0.6" stroke-linecap="round" stroke-linejoin="round"/>
<path d="M174.268 161.207C173.751 161.208 173.255 161.414 172.89 161.78C172.525 162.146 172.32 162.642 172.32 163.159V173.005H176.216V163.159C176.216 162.903 176.167 162.649 176.069 162.412C175.971 162.175 175.828 161.96 175.647 161.778C175.466 161.597 175.251 161.454 175.014 161.355C174.778 161.257 174.524 161.207 174.268 161.207Z" fill="#365DA0" stroke="#9DAFCC" stroke-width="0.6" stroke-linecap="round" stroke-linejoin="round"/>
<path d="M176.1 143.919V138.298C176.1 137.812 175.907 137.346 175.563 137.003C175.22 136.659 174.754 136.466 174.268 136.466C173.782 136.466 173.316 136.659 172.972 137.003C172.629 137.346 172.436 137.812 172.436 138.298V143.919H176.1Z" fill="#365DA0" stroke="#9DAFCC" stroke-width="0.6" stroke-linecap="round" stroke-linejoin="round"/>
<path d="M174.268 152.914V157.285" stroke="#9DAFCC" stroke-width="0.6" stroke-linecap="round" stroke-linejoin="round"/>
<path d="M194.068 133.456C188.729 133.456 184.406 135.451 184.406 137.913V182.008H203.709V137.913C203.709 135.451 199.402 133.456 194.068 133.456Z" fill="white" stroke="#9DAFCC" stroke-width="0.6" stroke-linecap="round" stroke-linejoin="round"/>
<path d="M194.333 168.733C193.369 168.733 192.445 169.115 191.763 169.797C191.082 170.479 190.699 171.403 190.699 172.367V182.008H197.977V172.367C197.977 171.889 197.883 171.416 197.7 170.974C197.517 170.532 197.249 170.131 196.91 169.793C196.572 169.455 196.17 169.188 195.728 169.006C195.285 168.824 194.812 168.731 194.333 168.733Z" fill="#F25451" stroke="#9DAFCC" stroke-width="0.6" stroke-linecap="round" stroke-linejoin="round"/>
<path d="M191.418 143.919V138.298C191.418 137.812 191.225 137.346 190.881 137.003C190.538 136.659 190.071 136.466 189.585 136.466C189.1 136.466 188.633 136.659 188.29 137.003C187.946 137.346 187.753 137.812 187.753 138.298V143.919H191.418Z" fill="#365DA0" stroke="#9DAFCC" stroke-width="0.6" stroke-linecap="round" stroke-linejoin="round"/>
<path d="M200.04 162.555V155.277C200.04 153.967 198.109 152.91 195.729 152.91C193.349 152.91 191.418 153.967 191.418 155.277V162.555H200.04Z" fill="#365DA0" stroke="#9DAFCC" stroke-width="0.6" stroke-linecap="round" stroke-linejoin="round"/>
<path d="M195.729 152.914V162.555" stroke="#9DAFCC" stroke-width="0.6" stroke-linecap="round" stroke-linejoin="round"/>
<path d="M191.418 157.735H200.04" stroke="#9DAFCC" stroke-width="0.6" stroke-linecap="round" stroke-linejoin="round"/>
<path d="M194.333 166.083C192.556 166.083 190.852 166.788 189.594 168.045C188.337 169.301 187.63 171.005 187.629 172.783V182.008H201.038V172.783C201.037 171.005 200.329 169.301 199.073 168.045C197.815 166.788 196.111 166.083 194.333 166.083Z" stroke="#9DAFCC" stroke-width="0.6" stroke-linecap="round" stroke-linejoin="round"/>
<path d="M159.674 111.464C158.491 111.464 157.357 111.934 156.521 112.769C155.684 113.605 155.214 114.739 155.213 115.921V130.34H164.13V115.921C164.13 114.739 163.661 113.605 162.825 112.77C161.989 111.934 160.856 111.464 159.674 111.464Z" fill="white" stroke="#9DAFCC" stroke-width="0.6" stroke-linecap="round" stroke-linejoin="round"/>
<path d="M161.506 126.226V120.6C161.506 120.114 161.313 119.648 160.97 119.305C160.626 118.961 160.16 118.768 159.674 118.768C159.188 118.768 158.722 118.961 158.378 119.305C158.034 119.648 157.841 120.114 157.841 120.6V126.226H161.506Z" fill="#365DA0" stroke="#9DAFCC" stroke-width="0.6" stroke-linecap="round" stroke-linejoin="round"/>
<path d="M194.068 111.011C188.729 111.011 184.406 113.01 184.406 115.472V130.331H203.709V115.48C203.709 113.018 199.402 111.011 194.068 111.011Z" fill="white" stroke="#9DAFCC" stroke-width="0.6" stroke-linecap="round" stroke-linejoin="round"/>
<path d="M192.317 126.226V119.226C192.317 118.621 192.077 118.041 191.649 117.613C191.221 117.185 190.64 116.944 190.035 116.944C189.43 116.944 188.85 117.185 188.421 117.613C187.994 118.041 187.753 118.621 187.753 119.226V126.226H192.317Z" fill="#365DA0" stroke="#9DAFCC" stroke-width="0.6" stroke-linecap="round" stroke-linejoin="round"/>
<path d="M176.361 112.047H172.924L170.188 117.377V130.34H179.101V117.377L176.361 112.047Z" fill="white" stroke="#9DAFCC" stroke-width="0.6" stroke-linecap="round" stroke-linejoin="round"/>
<path d="M176.477 126.226V120.6C176.477 120.114 176.284 119.648 175.94 119.305C175.597 118.961 175.131 118.768 174.645 118.768C174.159 118.768 173.693 118.961 173.349 119.305C173.006 119.648 172.812 120.114 172.812 120.6V126.226H176.477Z" fill="#365DA0" stroke="#9DAFCC" stroke-width="0.6" stroke-linecap="round" stroke-linejoin="round"/>
<path d="M184.406 177.051H155.615V182.008H184.406V177.051Z" fill="#E4EBF5" stroke="#9DAFCC" stroke-width="0.6" stroke-linecap="round" stroke-linejoin="round"/>
<path d="M239.418 126.226H203.726V136.077H239.418V126.226Z" fill="#F25451" stroke="#9DAFCC" stroke-width="0.6" stroke-linecap="round" stroke-linejoin="round"/>
<path d="M146.359 114.371V117.937" stroke="#9DAFCC" stroke-width="0.6" stroke-linejoin="round"/>
<path d="M128.242 114.371V117.937" stroke="#9DAFCC" stroke-width="0.6" stroke-linejoin="round"/>
<path d="M139.133 117.937V112.316C139.133 111.83 138.94 111.364 138.596 111.02C138.253 110.677 137.786 110.484 137.301 110.484C136.815 110.484 136.348 110.677 136.005 111.02C135.661 111.364 135.468 111.83 135.468 112.316V117.937H139.133Z" fill="#365DA0" stroke="#9DAFCC" stroke-width="0.6" stroke-linecap="round" stroke-linejoin="round"/>
<path d="M255.883 161.207H239.418V182.008H255.883V161.207Z" fill="white" stroke="#9DAFCC" stroke-width="0.6" stroke-linecap="round" stroke-linejoin="round"/>
<path d="M258.182 157.735H239.418V161.211H258.182V157.735Z" fill="white" stroke="#9DAFCC" stroke-width="0.6" stroke-linecap="round" stroke-linejoin="round"/>
<path d="M255.883 177.051H239.418V182.008H255.883V177.051Z" fill="#E4EBF5" stroke="#9DAFCC" stroke-width="0.6" stroke-linecap="round" stroke-linejoin="round"/>
<path d="M239.418 146.595C248.258 146.492 251.833 157.7 258.182 157.726H239.418V146.595Z" fill="#F25451" stroke="#9DAFCC" stroke-width="0.6" stroke-linecap="round" stroke-linejoin="round"/>
</g>
</g>
<defs>
<filter id="filter0_dd_202_3315" x="-11.9112" y="-11.9112" width="296.822" height="263.822" filterUnits="userSpaceOnUse" color-interpolation-filters="sRGB">
<feFlood flood-opacity="0" result="BackgroundImageFix"/>
<feColorMatrix in="SourceAlpha" type="matrix" values="0 0 0 0 0 0 0 0 0 0 0 0 0 0 0 0 0 0 127 0" result="hardAlpha"/>
<feOffset/>
<feGaussianBlur stdDeviation="5.95559"/>
<feComposite in2="hardAlpha" operator="out"/>
<feColorMatrix type="matrix" values="0 0 0 0 0.568627 0 0 0 0 0.741176 0 0 0 0 0.866667 0 0 0 1 0"/>
<feBlend mode="normal" in2="BackgroundImageFix" result="effect1_dropShadow_202_3315"/>
<feColorMatrix in="SourceAlpha" type="matrix" values="0 0 0 0 0 0 0 0 0 0 0 0 0 0 0 0 0 0 127 0" result="hardAlpha"/>
<feOffset dy="2.38223"/>
<feGaussianBlur stdDeviation="2.97779"/>
<feComposite in2="hardAlpha" operator="out"/>
<feColorMatrix type="matrix" values="0 0 0 0 0 0 0 0 0 0 0 0 0 0 0 0 0 0 0.1 0"/>
<feBlend mode="normal" in2="effect1_dropShadow_202_3315" result="effect2_dropShadow_202_3315"/>
<feBlend mode="normal" in="SourceGraphic" in2="effect2_dropShadow_202_3315" result="shape"/>
</filter>
<filter id="filter1_dd_202_3315" x="5.33834" y="40.0888" width="265.055" height="154.135" filterUnits="userSpaceOnUse" color-interpolation-filters="sRGB">
<feFlood flood-opacity="0" result="BackgroundImageFix"/>
<feColorMatrix in="SourceAlpha" type="matrix" values="0 0 0 0 0 0 0 0 0 0 0 0 0 0 0 0 0 0 127 0" result="hardAlpha"/>
<feOffset/>
<feGaussianBlur stdDeviation="5.95559"/>
<feComposite in2="hardAlpha" operator="out"/>
<feColorMatrix type="matrix" values="0 0 0 0 0.568627 0 0 0 0 0.741176 0 0 0 0 0.866667 0 0 0 1 0"/>
<feBlend mode="normal" in2="BackgroundImageFix" result="effect1_dropShadow_202_3315"/>
<feColorMatrix in="SourceAlpha" type="matrix" values="0 0 0 0 0 0 0 0 0 0 0 0 0 0 0 0 0 0 127 0" result="hardAlpha"/>
<feOffset dy="2.38223"/>
<feGaussianBlur stdDeviation="2.97779"/>
<feComposite in2="hardAlpha" operator="out"/>
<feColorMatrix type="matrix" values="0 0 0 0 0 0 0 0 0 0 0 0 0 0 0 0 0 0 0.1 0"/>
<feBlend mode="normal" in2="effect1_dropShadow_202_3315" result="effect2_dropShadow_202_3315"/>
<feBlend mode="normal" in="SourceGraphic" in2="effect2_dropShadow_202_3315" result="shape"/>
</filter>
</defs>
</svg>
