<svg width="273" height="240" viewBox="0 0 273 240" fill="none" xmlns="http://www.w3.org/2000/svg">
<g filter="url(#filter0_dd_202_6628)">
<g filter="url(#filter1_dd_202_6628)">
<path d="M163.624 95.0676L146.579 195.935H180.664L163.624 95.0676Z" fill="white" stroke="#9DAFCC" stroke-width="0.6" stroke-linecap="round" stroke-linejoin="round"/>
<path d="M94.8955 200.751C95.561 181.764 103.571 163.778 117.238 150.582C130.905 137.385 149.161 130.01 168.159 130.01C187.157 130.01 205.412 137.385 219.08 150.582C232.746 163.778 240.757 181.764 241.422 200.751H249.087C248.426 179.728 239.61 159.787 224.505 145.149C209.4 130.512 189.192 122.327 168.159 122.327C147.125 122.327 126.917 130.512 111.812 145.149C96.7073 159.787 87.8916 179.728 87.2305 200.751H94.8955Z" fill="#F25451" stroke="#9DAFCC" stroke-width="0.6" stroke-linecap="round" stroke-linejoin="round"/>
<path d="M172.584 62.7434L155.539 195.935H189.624L172.584 62.7434Z" fill="#E4EBF5" stroke="#9DAFCC" stroke-width="0.6" stroke-linecap="round" stroke-linejoin="round"/>
<path d="M172.584 62.7434L175.484 195.935" stroke="#9DAFCC" stroke-width="0.6" stroke-linecap="round" stroke-linejoin="round"/>
<path d="M191.473 195.935H144.829V200.75H191.473V195.935Z" fill="#F25451" stroke="#9DAFCC" stroke-width="0.6" stroke-linecap="round" stroke-linejoin="round"/>
<path d="M253.612 200.75H82.7104V208.27H253.612V200.75Z" fill="#365DA0" stroke="#9DAFCC" stroke-width="0.6" stroke-linecap="round" stroke-linejoin="round"/>
<path d="M249.987 195.935H240.487V200.75H249.987V195.935Z" fill="#F25451" stroke="#9DAFCC" stroke-width="0.6" stroke-linecap="round" stroke-linejoin="round"/>
<path d="M95.8303 195.935H86.3308V200.75H95.8303V195.935Z" fill="#F25451" stroke="#9DAFCC" stroke-width="0.6" stroke-linecap="round" stroke-linejoin="round"/>
<path d="M196.643 200.75H139.679V204.51H196.643V200.75Z" fill="#365DA0" stroke="#9DAFCC" stroke-width="0.6" stroke-linecap="round" stroke-linejoin="round"/>
<path d="M198.489 204.51H137.775V208.27H198.489V204.51Z" fill="#365DA0" stroke="#9DAFCC" stroke-width="0.6" stroke-linecap="round" stroke-linejoin="round"/>
<path d="M74.2909 18.0793L49.7515 203.375H108.41L83.8655 18.0793H74.2909Z" stroke="#9DAFCC" stroke-width="0.6" stroke-linecap="round" stroke-linejoin="round"/>
<path d="M54.6562 166.316H103.5" stroke="#9DAFCC" stroke-width="0.6" stroke-linecap="round" stroke-linejoin="round"/>
<path d="M60.9712 118.647H97.185" stroke="#9DAFCC" stroke-width="0.6" stroke-linecap="round" stroke-linejoin="round"/>
<path d="M108.41 203.376L54.6562 166.316" stroke="#9DAFCC" stroke-width="0.6" stroke-linecap="round" stroke-linejoin="round"/>
<path d="M97.1856 118.647L54.6562 166.316" stroke="#9DAFCC" stroke-width="0.6" stroke-linecap="round" stroke-linejoin="round"/>
<path d="M64.4763 92.198L97.1857 118.647" stroke="#9DAFCC" stroke-width="0.6" stroke-linecap="round" stroke-linejoin="round"/>
<path d="M88.7759 55.1384L64.4763 92.1974" stroke="#9DAFCC" stroke-width="0.6" stroke-linecap="round" stroke-linejoin="round"/>
<path d="M74.291 18.0793L88.7759 55.1385" stroke="#9DAFCC" stroke-width="0.6" stroke-linecap="round" stroke-linejoin="round"/>
<path d="M64.4763 92.198H93.7159" stroke="#9DAFCC" stroke-width="0.6" stroke-linecap="round" stroke-linejoin="round"/>
<path d="M69.3811 55.1384H88.7758" stroke="#9DAFCC" stroke-width="0.6" stroke-linecap="round" stroke-linejoin="round"/>
<path d="M79.0808 18.0793V203.28" stroke="#9DAFCC" stroke-width="0.6" stroke-linecap="round" stroke-linejoin="round"/>
<path d="M94.4205 78.1831H63.626V92.1979H94.4205V78.1831Z" fill="#E4EBF5" stroke="#9DAFCC" stroke-width="0.6" stroke-linecap="round" stroke-linejoin="round"/>
<path d="M63.626 88.1934H94.4205" stroke="#9DAFCC" stroke-width="0.6" stroke-linecap="round" stroke-linejoin="round"/>
<path d="M63.626 78.1831V88.1932" stroke="#9DAFCC" stroke-width="0.6" stroke-linecap="round" stroke-linejoin="round"/>
<path d="M67.4709 78.1831V88.1932" stroke="#9DAFCC" stroke-width="0.6" stroke-linecap="round" stroke-linejoin="round"/>
<path d="M71.3208 78.1831V88.1932" stroke="#9DAFCC" stroke-width="0.6" stroke-linecap="round" stroke-linejoin="round"/>
<path d="M75.1711 78.1831V88.1932" stroke="#9DAFCC" stroke-width="0.6" stroke-linecap="round" stroke-linejoin="round"/>
<path d="M79.021 78.1831V88.1932" stroke="#9DAFCC" stroke-width="0.6" stroke-linecap="round" stroke-linejoin="round"/>
<path d="M82.8708 78.1831V88.1932" stroke="#9DAFCC" stroke-width="0.6" stroke-linecap="round" stroke-linejoin="round"/>
<path d="M86.7205 78.1831V88.1932" stroke="#9DAFCC" stroke-width="0.6" stroke-linecap="round" stroke-linejoin="round"/>
<path d="M90.5703 78.1831V88.1932" stroke="#9DAFCC" stroke-width="0.6" stroke-linecap="round" stroke-linejoin="round"/>
<path d="M94.4204 78.1831V88.1932" stroke="#9DAFCC" stroke-width="0.6" stroke-linecap="round" stroke-linejoin="round"/>
<path d="M81.5361 18.0793H76.6257V30.7091H81.5361V18.0793Z" fill="#E4EBF5" stroke="#9DAFCC" stroke-width="0.6" stroke-linecap="round" stroke-linejoin="round"/>
<path d="M128.889 203.97H19.9121V215.615H128.889V203.97Z" fill="#F25451" stroke="#9DAFCC" stroke-width="0.6" stroke-linecap="round" stroke-linejoin="round"/>
<path d="M52.5766 167.241L48.2917 165.021C48.2917 165.021 50.6717 151.216 50.4367 149.471C50.2017 147.727 49.7217 144.392 49.7217 144.392C49.7217 144.392 46.0718 135.982 46.0718 133.442C46.0718 130.902 46.7068 120.272 46.7068 120.272L47.8167 119.002C47.8167 119.002 47.3417 112.817 48.2917 111.702C49.2417 110.587 51.2916 109.482 52.5766 110.438C53.8616 111.392 53.6866 113.937 53.6866 113.937L54.6416 114.412C54.6416 114.412 54.4816 118.062 53.8466 119.012C53.2116 119.962 53.0516 122.187 53.0516 122.187L52.8966 131.687L57.1765 138.657L58.7666 133.442V130.747C58.7666 130.747 59.2415 127.412 60.9864 126.937C62.7313 126.462 63.0514 125.192 64.9566 125.827C66.8612 126.462 68.2861 127.892 68.4561 129.327C68.6261 130.762 68.2963 134.087 68.4561 136.787L68.5014 141.547C68.5014 141.547 72.5811 142.022 73.531 144.402C74.4809 146.781 76.0709 153.901 75.7563 157.571C75.4411 161.241 75.121 169.156 75.121 169.156H73.6762L73.2012 172.156C73.2012 172.156 71.1363 174.536 69.7012 175.011C69.3811 180.091 69.7012 189.451 69.7012 189.451L69.0665 190.721V198.495L72.396 200.875L74.3962 201.825L73.8414 203.965H63.2063L63.3666 189.926L62.4167 188.656L60.9163 179.456L58.1216 189.29L56.6915 189.926L56.1915 199.425L57.6215 203.925H49.7217C49.7217 203.925 51.1516 193.06 50.9917 191.156C50.8316 189.251 50.8316 188.301 50.8316 188.301L49.8817 187.031C49.8817 187.031 52.4166 178.781 52.4166 174.971C52.4166 171.161 52.5766 167.241 52.5766 167.241Z" fill="#365DA0" stroke="#9DAFCC" stroke-width="0.6" stroke-linecap="round" stroke-linejoin="round"/>
<path d="M58.7664 131.207C61.8978 130.088 65.3077 130.012 68.4861 130.992" stroke="#9DAFCC" stroke-width="0.6" stroke-linecap="round" stroke-linejoin="round"/>
<path d="M61.7814 145.846C60.7813 148.846 58.0666 157.611 57.9414 159.471C57.8164 161.331 56.4414 168.016 56.4414 168.016L52.5615 167.261" stroke="#9DAFCC" stroke-width="0.6" stroke-linecap="round" stroke-linejoin="round"/>
<path d="M71.1911 159.696L69.5811 169.231L66.4011 168.492L67.6009 161.557V151.402L67.4411 147.422" stroke="#9DAFCC" stroke-width="0.6" stroke-linecap="round" stroke-linejoin="round"/>
<path d="M69.8662 167.546L75.1106 169.146" stroke="#9DAFCC" stroke-width="0.6" stroke-linecap="round" stroke-linejoin="round"/>
<path d="M57.7163 161.206C59.5512 161.306 64.8064 162.536 67.4413 162.481" stroke="#9DAFCC" stroke-width="0.6" stroke-linecap="round" stroke-linejoin="round"/>
<path d="M92.7206 162.481H85.9008C84.7906 162.481 82.0909 162.641 82.0909 160.736C82.0909 158.831 81.7757 157.736 82.8859 157.021C83.9956 156.306 87.1707 155.976 88.7558 155.976C90.1855 153.911 90.3404 152.006 90.9757 149.312C91.6104 146.616 92.7206 142.486 92.7206 142.486L97.8004 139.792L95.4208 138.047L94.3705 134.712V131.062C94.3705 131.062 94.9453 126.462 96.5304 125.512C98.1156 124.562 99.3855 123.607 100.976 124.557C102.566 125.507 103.83 125.512 104.476 127.257L105.746 130.757L105.11 132.817C105.11 132.817 107.015 136.942 107.17 139.816C110.67 141.086 111.775 141.561 111.93 144.736C112.085 147.912 113.2 155.871 111.93 157.046C112.565 161.076 112.535 167.581 112.535 167.581L111.295 168.696L110.98 180.911L112.535 188.685L111.455 190.275L112.535 199.635V203.995H92.8803V200.245L93.3305 197.685L93.0158 184.041L91.8657 177.846L94.3656 176.441L92.2408 173.581L92.7406 168.666L94.3905 168.166L92.7206 162.481Z" fill="#365DA0" stroke="#9DAFCC" stroke-width="0.6" stroke-linecap="round" stroke-linejoin="round"/>
<path d="M94.4907 130.302C95.9604 130.167 99.2354 129.907 99.2354 129.907C99.2354 129.907 104.565 130.142 105.735 130.747" stroke="#9DAFCC" stroke-width="0.6" stroke-linecap="round" stroke-linejoin="round"/>
<path d="M99.6305 143.862L98.5802 148.382L97.9255 154.867" stroke="#9DAFCC" stroke-width="0.6" stroke-linecap="round" stroke-linejoin="round"/>
<path d="M97.9255 161.206L100.11 167.996L105 167.546L111.355 168.346" stroke="#9DAFCC" stroke-width="0.6" stroke-linecap="round" stroke-linejoin="round"/>
<path d="M108.41 160.106C107.052 160.746 105.584 161.12 104.085 161.206C102.445 161.326 97.9253 160.106 97.9253 160.106H92.6204C90.1205 160.106 91.1805 156.911 91.1805 156.911L92.6204 155.846L94.9153 154.846C95.903 155.048 96.9074 155.156 97.915 155.171C99.7398 155.026 101.555 154.785 103.355 154.451C103.945 154.256 104.01 151.111 104.01 150.586" stroke="#9DAFCC" stroke-width="0.6" stroke-linecap="round" stroke-linejoin="round"/>
<path d="M75.7858 175.851V177.661V180.876V198.955H80.4009V180.876H97.5752V198.946H42.1367V100.068H37.1118V198.946V201.461V203.97H102.6V201.101V198.946V180.876V177.771V175.851H75.7858Z" fill="#E4EBF5" stroke="#9DAFCC" stroke-width="0.6" stroke-linecap="round" stroke-linejoin="round"/>
<path d="M92.2104 170.081H85.6804V185.615H92.2104V170.081Z" fill="#365DA0" stroke="#9DAFCC" stroke-width="0.6" stroke-linecap="round" stroke-linejoin="round"/>
<path d="M92.2104 180.871H95.4455V175.846H92.2104V180.871Z" fill="#365DA0" stroke="#9DAFCC" stroke-width="0.6" stroke-linecap="round" stroke-linejoin="round"/>
<path d="M82.4458 180.871H85.6803V175.846H82.4458V180.871Z" fill="#365DA0" stroke="#9DAFCC" stroke-width="0.6" stroke-linecap="round" stroke-linejoin="round"/>
<path d="M87.3303 170.086H90.5654V162.486H87.3303V170.086Z" fill="#F25451" stroke="#9DAFCC" stroke-width="0.6" stroke-linecap="round" stroke-linejoin="round"/>
<path d="M83.9561 160.226V163.461H93.9456V160.226H83.9561Z" fill="#F25451" stroke="#9DAFCC" stroke-width="0.6" stroke-linecap="round" stroke-linejoin="round"/>
<path d="M39.4817 100.067C42.5667 100.067 45.0616 97.3224 45.0616 93.9373C45.0616 89.2823 42.0017 85.9026 39.4817 80.9377C36.9818 85.8923 33.9019 89.2726 33.9019 93.9373C33.9019 97.3472 36.4018 100.067 39.4817 100.067Z" fill="#365DA0" stroke="#9DAFCC" stroke-width="0.6" stroke-linejoin="round"/>
</g>
</g>
<defs>
<filter id="filter0_dd_202_6628" x="-11.9112" y="-11.9112" width="296.822" height="263.822" filterUnits="userSpaceOnUse" color-interpolation-filters="sRGB">
<feFlood flood-opacity="0" result="BackgroundImageFix"/>
<feColorMatrix in="SourceAlpha" type="matrix" values="0 0 0 0 0 0 0 0 0 0 0 0 0 0 0 0 0 0 127 0" result="hardAlpha"/>
<feOffset/>
<feGaussianBlur stdDeviation="5.95559"/>
<feComposite in2="hardAlpha" operator="out"/>
<feColorMatrix type="matrix" values="0 0 0 0 0.568627 0 0 0 0 0.741176 0 0 0 0 0.866667 0 0 0 1 0"/>
<feBlend mode="normal" in2="BackgroundImageFix" result="effect1_dropShadow_202_6628"/>
<feColorMatrix in="SourceAlpha" type="matrix" values="0 0 0 0 0 0 0 0 0 0 0 0 0 0 0 0 0 0 127 0" result="hardAlpha"/>
<feOffset dy="2.38223"/>
<feGaussianBlur stdDeviation="2.97779"/>
<feComposite in2="hardAlpha" operator="out"/>
<feColorMatrix type="matrix" values="0 0 0 0 0 0 0 0 0 0 0 0 0 0 0 0 0 0 0.1 0"/>
<feBlend mode="normal" in2="effect1_dropShadow_202_6628" result="effect2_dropShadow_202_6628"/>
<feBlend mode="normal" in="SourceGraphic" in2="effect2_dropShadow_202_6628" result="shape"/>
</filter>
<filter id="filter1_dd_202_6628" x="7.70089" y="5.86812" width="258.122" height="221.958" filterUnits="userSpaceOnUse" color-interpolation-filters="sRGB">
<feFlood flood-opacity="0" result="BackgroundImageFix"/>
<feColorMatrix in="SourceAlpha" type="matrix" values="0 0 0 0 0 0 0 0 0 0 0 0 0 0 0 0 0 0 127 0" result="hardAlpha"/>
<feOffset/>
<feGaussianBlur stdDeviation="5.95559"/>
<feComposite in2="hardAlpha" operator="out"/>
<feColorMatrix type="matrix" values="0 0 0 0 0.568627 0 0 0 0 0.741176 0 0 0 0 0.866667 0 0 0 1 0"/>
<feBlend mode="normal" in2="BackgroundImageFix" result="effect1_dropShadow_202_6628"/>
<feColorMatrix in="SourceAlpha" type="matrix" values="0 0 0 0 0 0 0 0 0 0 0 0 0 0 0 0 0 0 127 0" result="hardAlpha"/>
<feOffset dy="2.38223"/>
<feGaussianBlur stdDeviation="2.97779"/>
<feComposite in2="hardAlpha" operator="out"/>
<feColorMatrix type="matrix" values="0 0 0 0 0 0 0 0 0 0 0 0 0 0 0 0 0 0 0.1 0"/>
<feBlend mode="normal" in2="effect1_dropShadow_202_6628" result="effect2_dropShadow_202_6628"/>
<feBlend mode="normal" in="SourceGraphic" in2="effect2_dropShadow_202_6628" result="shape"/>
</filter>
</defs>
</svg>
